<svg xmlns="http://www.w3.org/2000/svg" xmlns:xlink="http://www.w3.org/1999/xlink" width="108" height="108" viewBox="0 0 108 108">
  <defs>
    <filter id="Trazado_982547" x="0" y="0" width="108" height="108" filterUnits="userSpaceOnUse">
      <feOffset dy="3" input="SourceAlpha"/>
      <feGaussianBlur stdDeviation="3" result="blur"/>
      <feFlood flood-opacity="0.161"/>
      <feComposite operator="in" in2="blur"/>
      <feComposite in="SourceGraphic"/>
    </filter>
  </defs>
  <g id="Grupo_1171388" data-name="Grupo 1171388" transform="translate(-196.701 -401)">
    <g id="Grupo_1168716" data-name="Grupo 1168716" transform="translate(205.701 407)">
      <g id="Grupo_1159095" data-name="Grupo 1159095" transform="translate(0)">
        <g id="Grupo_1154033" data-name="Grupo 1154033">
          <g id="Grupo_1153177" data-name="Grupo 1153177">
            <g id="Grupo_1149598" data-name="Grupo 1149598">
              <g id="Grupo_1148770" data-name="Grupo 1148770">
                <g id="Grupo_1146954" data-name="Grupo 1146954">
                  <g transform="matrix(1, 0, 0, 1, -9, -6)" filter="url(#Trazado_982547)">
                    <g id="Trazado_982547-2" data-name="Trazado 982547" transform="translate(9 6)" fill="#f5fdfa">
                      <path d="M 45.00000762939453 88.5 C 39.12688446044922 88.5 33.43023300170898 87.35007476806641 28.06830787658691 85.08217620849609 C 22.8885326385498 82.89131164550781 18.23630714416504 79.75458526611328 14.24085807800293 75.75914764404297 C 10.24542045593262 71.76370239257812 7.108695030212402 67.11147308349609 4.917832851409912 61.93170166015625 C 2.649932622909546 56.56977462768555 1.500007629394531 50.87312316894531 1.500007629394531 45 C 1.500007629394531 39.12687683105469 2.649932622909546 33.43022537231445 4.917832851409912 28.06830024719238 C 7.108695030212402 22.88852500915527 10.24542045593262 18.23629951477051 14.24085807800293 14.2408504486084 C 18.23630714416504 10.24541282653809 22.8885326385498 7.108687400817871 28.06830787658691 4.917825222015381 C 33.43023300170898 2.649924993515015 39.12688446044922 1.5 45.00000762939453 1.5 C 50.87313079833984 1.5 56.56978225708008 2.649924993515015 61.93170928955078 4.917825222015381 C 67.11148071289062 7.108687400817871 71.76371002197266 10.24541282653809 75.7591552734375 14.2408504486084 C 79.75459289550781 18.23629951477051 82.89131927490234 22.88852500915527 85.08218383789062 28.06830024719238 C 87.35008239746094 33.43022537231445 88.50000762939453 39.12687683105469 88.50000762939453 45 C 88.50000762939453 50.87312316894531 87.35008239746094 56.56977462768555 85.08218383789062 61.93170166015625 C 82.89131927490234 67.11147308349609 79.75459289550781 71.76370239257812 75.7591552734375 75.75914764404297 C 71.76371002197266 79.75458526611328 67.11148071289062 82.89131164550781 61.93170928955078 85.08217620849609 C 56.56978225708008 87.35007476806641 50.87313079833984 88.5 45.00000762939453 88.5 Z" stroke="none"/>
                      <path d="M 45.00000762939453 3 C 39.32872009277344 3 33.82866287231445 4.110054016113281 28.65263748168945 6.299339294433594 C 23.65166473388672 8.414573669433594 19.15969085693359 11.44334411621094 15.30152130126953 15.301513671875 C 11.44335174560547 19.15968322753906 8.414581298828125 23.65165710449219 6.299346923828125 28.65262985229492 C 4.110061645507812 33.82865524291992 3.000007629394531 39.32871246337891 3.000007629394531 45 C 3.000007629394531 50.67128753662109 4.110061645507812 56.17134475708008 6.299346923828125 61.34737396240234 C 8.414581298828125 66.34834289550781 11.44335174560547 70.84031677246094 15.30152130126953 74.698486328125 C 19.15969085693359 78.55665588378906 23.65166473388672 81.58542633056641 28.65263748168945 83.70066070556641 C 33.82866287231445 85.88994598388672 39.32872009277344 87 45.00000762939453 87 C 50.67129516601562 87 56.17135238647461 85.88994598388672 61.34738159179688 83.70066070556641 C 66.34835052490234 81.58542633056641 70.84032440185547 78.55665588378906 74.69849395751953 74.698486328125 C 78.55666351318359 70.84031677246094 81.58543395996094 66.34834289550781 83.70066833496094 61.34737396240234 C 85.88995361328125 56.17134475708008 87.00000762939453 50.67128753662109 87.00000762939453 45 C 87.00000762939453 39.32871246337891 85.88995361328125 33.82865524291992 83.70066833496094 28.65262985229492 C 81.58543395996094 23.65165710449219 78.55666351318359 19.15968322753906 74.69849395751953 15.301513671875 C 70.84032440185547 11.44334411621094 66.34835052490234 8.414573669433594 61.34738159179688 6.299339294433594 C 56.17135238647461 4.110054016113281 50.67129516601562 3 45.00000762939453 3 M 45.00000762939453 0 C 69.85282135009766 0 90.00000762939453 20.14718627929688 90.00000762939453 45 C 90.00000762939453 69.85281372070312 69.85282135009766 90 45.00000762939453 90 C 20.14719390869141 90 7.62939453125e-06 69.85281372070312 7.62939453125e-06 45 C 7.62939453125e-06 20.14718627929688 20.14719390869141 0 45.00000762939453 0 Z" stroke="none" fill="#2e5bb6"/>
                    </g>
                  </g>
                </g>
              </g>
            </g>
          </g>
        </g>
      </g>
    </g>
    <g id="budget_4_" data-name="budget (4)" transform="translate(226.701 427)">
      <path id="Trazado_1015334" data-name="Trazado 1015334" d="M124.563,33.67H93.528V78.589h39.2V41.837Z" transform="translate(-84.595 -30.454)" fill="#f2f2f2"/>
      <g id="Grupo_1171386" data-name="Grupo 1171386" transform="translate(8.933 3.216)">
        <path id="Trazado_1015335" data-name="Trazado 1015335" d="M99.986,33.67H93.528V78.589h35.433Z" transform="translate(-93.528 -33.67)" fill="#e5e5e5"/>
        <path id="Trazado_1015336" data-name="Trazado 1015336" d="M418.472,41.837h8.167l-8.167-8.167Z" transform="translate(-387.437 -33.67)" fill="#e5e5e5"/>
      </g>
      <path id="Trazado_1015337" data-name="Trazado 1015337" d="M27.72,35.785H9.548a1.531,1.531,0,0,1-1.531-1.531V9.548A1.531,1.531,0,0,1,9.548,8.017H27.72a1.531,1.531,0,0,1,1.531,1.531V34.254A1.531,1.531,0,0,1,27.72,35.785Z" transform="translate(-7.251 -7.251)" fill="gray"/>
      <circle id="Elipse_12146" data-name="Elipse 12146" cx="10.617" cy="10.617" r="10.617" transform="translate(23.634 24.45)" fill="#f7d04a"/>
      <path id="Trazado_1015338" data-name="Trazado 1015338" d="M260.925,291.584a10.619,10.619,0,0,1-8.8-16.559,10.618,10.618,0,1,0,14.742,14.742A10.568,10.568,0,0,1,260.925,291.584Z" transform="translate(-223.815 -248.758)" fill="#f3b41b"/>
      <rect id="Rectángulo_414013" data-name="Rectángulo 414013" width="16.334" height="4.084" transform="translate(3.216 3.216)" fill="#62c9cc"/>
      <path id="Trazado_1015339" data-name="Trazado 1015339" d="M85.5,33.67l-4.084,4.084h3.063L88.56,33.67Z" transform="translate(-73.638 -30.454)" fill="#f2f2f2"/>
      <g id="Grupo_1171387" data-name="Grupo 1171387" transform="translate(3.216 9.749)">
        <rect id="Rectángulo_414014" data-name="Rectángulo 414014" width="3.267" height="3.267" fill="#ef9d3c"/>
        <rect id="Rectángulo_414015" data-name="Rectángulo 414015" width="3.267" height="3.267" transform="translate(6.534)" fill="#ef9d3c"/>
        <rect id="Rectángulo_414016" data-name="Rectángulo 414016" width="3.267" height="3.267" transform="translate(13.067)" fill="#ef9d3c"/>
        <rect id="Rectángulo_414017" data-name="Rectángulo 414017" width="3.267" height="3.267" transform="translate(0 6.534)" fill="#ef9d3c"/>
        <rect id="Rectángulo_414018" data-name="Rectángulo 414018" width="3.267" height="3.267" transform="translate(6.534 6.534)" fill="#ef9d3c"/>
        <rect id="Rectángulo_414019" data-name="Rectángulo 414019" width="3.267" height="3.267" transform="translate(0 13.067)" fill="#ef9d3c"/>
        <rect id="Rectángulo_414020" data-name="Rectángulo 414020" width="3.267" height="3.267" transform="translate(6.534 13.067)" fill="#ef9d3c"/>
      </g>
      <path id="Trazado_1015340" data-name="Trazado 1015340" d="M170.489,170.489v9.8h3.267v-9.8Z" transform="translate(-154.206 -154.206)" fill="#f7d04a"/>
      <path id="Trazado_1015341" data-name="Trazado 1015341" d="M310.87,98.72l2.31-2.31-9.818-9.818-2.887-.577.577,2.888Z" transform="translate(-271.777 -77.8)" fill="#62c9cc"/>
      <path id="Trazado_1015342" data-name="Trazado 1015342" d="M303.362,86.592l-2.887-.578.577,2.888.951.951,2.31-2.31Z" transform="translate(-271.777 -77.799)" fill="#f7d04a"/>
      <path id="Trazado_1015343" data-name="Trazado 1015343" d="M397.453,183.139l.144-.144a1.531,1.531,0,0,0,0-2.166l-4.115-4.115-2.31,2.31,4.115,4.115A1.531,1.531,0,0,0,397.453,183.139Z" transform="translate(-353.812 -159.836)" fill="#50a9a9"/>
      <path id="Trazado_1015344" data-name="Trazado 1015344" d="M48.135,39.1a.766.766,0,0,0,.766-.766V11.383a.766.766,0,0,0-.224-.541L40.509,2.674a.766.766,0,0,0-.541-.224h-17.2V2.3a2.3,2.3,0,0,0-2.3-2.3H2.3A2.3,2.3,0,0,0,0,2.3V27a2.3,2.3,0,0,0,2.3,2.3h5.87V48.135a.766.766,0,0,0,.766.766h39.2a.766.766,0,0,0,.766-.766V42.418a.766.766,0,0,0-1.531,0v4.951H9.7V29.3h10.77a2.3,2.3,0,0,0,2.3-2.3V13.833a.766.766,0,0,0-1.531,0V27a.767.767,0,0,1-.766.766H2.3A.767.767,0,0,1,1.531,27V2.3A.767.767,0,0,1,2.3,1.531H20.469a.767.767,0,0,1,.766.766V9.749a.766.766,0,0,0,1.531,0V3.981H39.2c0,.017,0,.034,0,.051v7.35a.766.766,0,0,0,.766.766h7.35l.051,0V38.334A.765.765,0,0,0,48.135,39.1Zm-7.4-34.036,5.553,5.553H40.734Z"/>
      <path id="Trazado_1015345" data-name="Trazado 1015345" d="M142.688,367.7h-5.1a.766.766,0,1,0,0,1.531h5.1a.766.766,0,1,0,0-1.531Z" transform="translate(-123.751 -332.58)"/>
      <path id="Trazado_1015346" data-name="Trazado 1015346" d="M142.688,410.455h-5.1a.766.766,0,1,0,0,1.531h5.1a.766.766,0,0,0,0-1.531Z" transform="translate(-123.751 -371.253)"/>
      <path id="Trazado_1015347" data-name="Trazado 1015347" d="M241.748,253.787a.766.766,0,0,0-1.033.325,11.384,11.384,0,1,0,10.1-6.129,11.287,11.287,0,0,0-8.214,3.5.766.766,0,0,0,1.1,1.06,9.823,9.823,0,1,1-1.633,2.274A.766.766,0,0,0,241.748,253.787Z" transform="translate(-216.564 -224.298)"/>
      <path id="Trazado_1015348" data-name="Trazado 1015348" d="M317.157,295.254a.766.766,0,1,0,0,1.531h2.3v.868a.766.766,0,1,0,1.531,0v-.868h1.174a2.3,2.3,0,0,0,2.3-2.3v-2.552a2.3,2.3,0,0,0-2.285-2.3l-1.187-.035v-4.253h2.705a.766.766,0,1,0,0-1.531h-2.705v-.868a.766.766,0,1,0-1.531,0v.868h-.766a2.3,2.3,0,0,0-2.3,2.3v2.654a2.3,2.3,0,0,0,2.285,2.3l.778.023v4.163h-2.3Zm1.554-5.717h-.023a.767.767,0,0,1-.766-.766v-2.654a.766.766,0,0,1,.766-.766h.766v4.208Zm2.274,1.6,1.151.034h.023a.767.767,0,0,1,.766.766v2.552a.767.767,0,0,1-.766.766h-1.174Z" transform="translate(-286.173 -255.236)"/>
      <path id="Trazado_1015349" data-name="Trazado 1015349" d="M43.519,26.419a.766.766,0,0,0-.766-.766H26.419a.766.766,0,0,0-.766.766V30.5a.766.766,0,0,0,.766.766H42.753a.766.766,0,0,0,.766-.766V26.419Zm-1.531,3.318h-14.8V27.184h14.8v2.552Z" transform="translate(-23.203 -23.203)"/>
      <path id="Trazado_1015350" data-name="Trazado 1015350" d="M30.451,94.828a.766.766,0,0,0-.766-.766H26.419a.766.766,0,0,0-.766.766v3.267a.766.766,0,0,0,.766.766h3.267a.766.766,0,0,0,.766-.766V94.828Zm-1.531,2.5H27.184V95.593H28.92Z" transform="translate(-23.203 -85.078)"/>
      <path id="Trazado_1015351" data-name="Trazado 1015351" d="M98.86,94.828a.766.766,0,0,0-.766-.766H94.828a.766.766,0,0,0-.766.766v3.267a.766.766,0,0,0,.766.766h3.267a.766.766,0,0,0,.766-.766Zm-1.531,2.5H95.593V95.593h1.736Z" transform="translate(-85.078 -85.078)"/>
      <path id="Trazado_1015352" data-name="Trazado 1015352" d="M167.269,94.828a.766.766,0,0,0-.766-.766h-3.267a.766.766,0,0,0-.766.766v3.267a.766.766,0,0,0,.766.766H166.5a.766.766,0,0,0,.766-.766Zm-1.531,2.5H164V95.593h1.735Z" transform="translate(-146.954 -85.078)"/>
      <path id="Trazado_1015353" data-name="Trazado 1015353" d="M30.451,163.238a.766.766,0,0,0-.766-.766H26.419a.766.766,0,0,0-.766.766V166.5a.766.766,0,0,0,.766.766h3.267a.766.766,0,0,0,.766-.766v-3.267Zm-1.531,2.5H27.184V164H28.92Z" transform="translate(-23.203 -146.954)"/>
      <path id="Trazado_1015354" data-name="Trazado 1015354" d="M98.86,163.238a.766.766,0,0,0-.766-.766H94.828a.766.766,0,0,0-.766.766V166.5a.766.766,0,0,0,.766.766h3.267a.766.766,0,0,0,.766-.766Zm-1.531,2.5H95.593V164h1.736Z" transform="translate(-85.078 -146.954)"/>
      <path id="Trazado_1015355" data-name="Trazado 1015355" d="M29.686,230.881H26.419a.766.766,0,0,0-.766.766v3.267a.766.766,0,0,0,.766.766h3.267a.766.766,0,0,0,.766-.766v-3.267A.766.766,0,0,0,29.686,230.881Zm-.766,3.267H27.184v-1.735H28.92Z" transform="translate(-23.203 -208.83)"/>
      <path id="Trazado_1015356" data-name="Trazado 1015356" d="M98.095,230.881H94.828a.766.766,0,0,0-.766.766v3.267a.766.766,0,0,0,.766.766h3.267a.766.766,0,0,0,.766-.766v-3.267A.766.766,0,0,0,98.095,230.881Zm-.766,3.267H95.593v-1.735h1.736Z" transform="translate(-85.078 -208.83)"/>
      <path id="Trazado_1015357" data-name="Trazado 1015357" d="M166.5,162.472h-3.267a.766.766,0,0,0-.766.766v9.8a.766.766,0,0,0,.766.766H166.5a.766.766,0,0,0,.766-.766v-9.8A.766.766,0,0,0,166.5,162.472Zm-.766,9.8H164V164h1.735Z" transform="translate(-146.954 -146.954)"/>
      <path id="Trazado_1015358" data-name="Trazado 1015358" d="M280.245,62.39a.766.766,0,0,0-.391-.209l-2.837-.567-1.366-1.506a.766.766,0,1,0-1.134,1.029s1.574,1.723,1.627,1.757l.5,2.5a.766.766,0,0,0,.209.391l12.2,12.2a2.3,2.3,0,0,0,3.248,0h0l.144-.144a2.3,2.3,0,0,0,0-3.248l-.108-.108,1.191-1.191a.773.773,0,0,0-.014-1.1l-4.171-3.96a.766.766,0,1,0-1.054,1.11l3.6,3.419-.636.636Zm-2.453.94,1.534.307,7.38,7.38-1.227,1.227-7.38-7.38Zm13.57,13.425-.144.144a.767.767,0,0,1-1.083,0l-3.573-3.573,1.227-1.227,3.573,3.573A.767.767,0,0,1,291.362,76.756Z" transform="translate(-248.118 -54.139)"/>
    </g>
  </g>
</svg>
