<svg xmlns="http://www.w3.org/2000/svg" xmlns:xlink="http://www.w3.org/1999/xlink" width="113" height="113" viewBox="0 0 113 113">
  <defs>
    <filter id="Trazado_982547" x="0" y="0" width="113" height="113" filterUnits="userSpaceOnUse">
      <feOffset dy="3" input="SourceAlpha"/>
      <feGaussianBlur stdDeviation="3" result="blur"/>
      <feFlood flood-opacity="0.161"/>
      <feComposite operator="in" in2="blur"/>
      <feComposite in="SourceGraphic"/>
    </filter>
  </defs>
  <g id="Grupo_1171407" data-name="Grupo 1171407" transform="translate(-171.701 -5844)">
    <g id="Grupo_1168725" data-name="Grupo 1168725" transform="translate(0.214 4813.386)">
      <g id="Grupo_1168178" data-name="Grupo 1168178" transform="translate(180.487 1036.614)">
        <g id="Grupo_1166845" data-name="Grupo 1166845" transform="translate(0)">
          <g id="Grupo_1166720" data-name="Grupo 1166720">
            <g id="Grupo_1164305" data-name="Grupo 1164305">
              <g id="Grupo_1163948" data-name="Grupo 1163948">
                <g id="Grupo_1158168" data-name="Grupo 1158168">
                  <g id="Grupo_1152576" data-name="Grupo 1152576">
                    <g id="Grupo_1148633" data-name="Grupo 1148633">
                      <g id="Grupo_1148525" data-name="Grupo 1148525">
                        <g transform="matrix(1, 0, 0, 1, -9, -6)" filter="url(#Trazado_982547)">
                          <g id="Trazado_982547-2" data-name="Trazado 982547" transform="translate(9 6)" fill="#e8edf7">
                            <path d="M 47.5 93.5 C 41.28937149047852 93.5 35.26533508300781 92.28397369384766 29.59518623352051 89.88570404052734 C 24.11771965026855 87.56893157958984 19.19813346862793 84.25196075439453 14.97309303283691 80.02691650390625 C 10.74804019927979 75.80186462402344 7.431066513061523 70.88229370117188 5.114293098449707 65.40481567382812 C 2.716026782989502 59.73468017578125 1.5 53.71062850952148 1.5 47.5 C 1.5 41.28937149047852 2.716026782989502 35.26533508300781 5.114293098449707 29.59518623352051 C 7.431066513061523 24.11771965026855 10.74804019927979 19.19813346862793 14.97309303283691 14.97309303283691 C 19.19813346862793 10.74804019927979 24.11771965026855 7.431066513061523 29.59518623352051 5.114293098449707 C 35.26533508300781 2.716026782989502 41.28937149047852 1.5 47.5 1.5 C 53.71062850952148 1.5 59.73468017578125 2.716026782989502 65.40481567382812 5.114293098449707 C 70.88229370117188 7.431066513061523 75.80186462402344 10.74804019927979 80.02691650390625 14.97309303283691 C 84.25196075439453 19.19813346862793 87.56893157958984 24.11771965026855 89.88570404052734 29.59518623352051 C 92.28397369384766 35.26533508300781 93.5 41.28937149047852 93.5 47.5 C 93.5 53.71062850952148 92.28397369384766 59.73468017578125 89.88570404052734 65.40481567382812 C 87.56893157958984 70.88229370117188 84.25196075439453 75.80186462402344 80.02691650390625 80.02691650390625 C 75.80186462402344 84.25196075439453 70.88229370117188 87.56893157958984 65.40481567382812 89.88570404052734 C 59.73468017578125 92.28397369384766 53.71062850952148 93.5 47.5 93.5 Z" stroke="none"/>
                            <path d="M 47.5 3 C 41.49121475219727 3 35.66376876831055 4.176155090332031 30.17950439453125 6.495796203613281 C 24.88084411621094 8.736953735351562 20.12152099609375 11.94598388671875 16.03375244140625 16.03375244140625 C 11.94598388671875 20.12152099609375 8.736953735351562 24.88084411621094 6.495796203613281 30.17950439453125 C 4.176155090332031 35.66376876831055 3 41.49121475219727 3 47.5 C 3 53.50878524780273 4.176155090332031 59.33623123168945 6.495796203613281 64.82049560546875 C 8.736953735351562 70.11915588378906 11.94598388671875 74.87847900390625 16.03375244140625 78.96624755859375 C 20.12152099609375 83.05401611328125 24.88084411621094 86.26304626464844 30.17950439453125 88.50419616699219 C 35.66376876831055 90.82384490966797 41.49121475219727 92 47.5 92 C 53.50878524780273 92 59.33623123168945 90.82384490966797 64.82049560546875 88.50419616699219 C 70.11915588378906 86.26304626464844 74.87847900390625 83.05401611328125 78.96624755859375 78.96624755859375 C 83.05401611328125 74.87847900390625 86.26304626464844 70.11915588378906 88.50419616699219 64.82049560546875 C 90.82384490966797 59.33623123168945 92 53.50878524780273 92 47.5 C 92 41.49121475219727 90.82384490966797 35.66376876831055 88.50419616699219 30.17950439453125 C 86.26304626464844 24.88084411621094 83.05401611328125 20.12152099609375 78.96624755859375 16.03375244140625 C 74.87847900390625 11.94598388671875 70.11915588378906 8.736953735351562 64.82049560546875 6.495796203613281 C 59.33623123168945 4.176155090332031 53.50878524780273 3 47.5 3 M 47.5 0 C 73.7335205078125 0 95 21.2664794921875 95 47.5 C 95 73.7335205078125 73.7335205078125 95 47.5 95 C 21.2664794921875 95 0 73.7335205078125 0 47.5 C 0 21.2664794921875 21.2664794921875 0 47.5 0 Z" stroke="none" fill="#01899b"/>
                          </g>
                        </g>
                      </g>
                    </g>
                  </g>
                </g>
              </g>
            </g>
          </g>
        </g>
      </g>
    </g>
    <g id="budget_5_" data-name="budget (5)" transform="translate(198.701 5868)">
      <g id="Grupo_1171405" data-name="Grupo 1171405" transform="translate(1.907 1.907)">
        <g id="Grupo_1171391" data-name="Grupo 1171391" transform="translate(9.07)">
          <path id="Trazado_1015368" data-name="Trazado 1015368" d="M51.908,3.814v13.6l-.036.036-6.313,6.313H41.024A4.544,4.544,0,0,0,37.4,25.582H24.7V47.35H44.652v3.628H21.07V23.768A9.073,9.073,0,0,0,12,14.7V11.823a1.785,1.785,0,0,1,.163-.753h7.093A1.819,1.819,0,0,0,21.07,9.256V2.163A1.785,1.785,0,0,1,21.823,2H50.094a1.819,1.819,0,0,1,1.814,1.814Z" transform="translate(-12 -2)" fill="#e6e9ed"/>
        </g>
        <g id="Grupo_1171392" data-name="Grupo 1171392" transform="translate(21.768 23.582)">
          <path id="Trazado_1015369" data-name="Trazado 1015369" d="M43.46,43.238a4.943,4.943,0,0,1-1.1-1.206,5.112,5.112,0,0,1-.726-1.542h-.009l-3.837,3.837-.907.363-3.356,1.342a1.525,1.525,0,0,1-2.059-1.705,1.551,1.551,0,0,1,.082-.272l1.705-4.263.907-.907L39.6,33.442a1.819,1.819,0,0,1-1.814-1.814v-.907A4.482,4.482,0,0,1,38.7,28H26V49.768H45.954V45.233Z" transform="translate(-26 -28)" fill="#ffeaa7"/>
        </g>
        <g id="Grupo_1171393" data-name="Grupo 1171393" transform="translate(21.768 3.628)">
          <path id="Trazado_1015370" data-name="Trazado 1015370" d="M26,6H49.582V9.628H26Z" transform="translate(-26 -6)" fill="#ff826e"/>
        </g>
        <g id="Grupo_1171394" data-name="Grupo 1171394" transform="translate(9.233 0.163)">
          <path id="Trazado_1015371" data-name="Trazado 1015371" d="M21.087,2.18V9.273a1.819,1.819,0,0,1-1.814,1.814H12.18a1.829,1.829,0,0,1,.372-.535l8-8A1.829,1.829,0,0,1,21.087,2.18Z" transform="translate(-12.18 -2.18)" fill="#b4dd7f"/>
        </g>
        <g id="Grupo_1171395" data-name="Grupo 1171395" transform="translate(29.024 27.21)">
          <path id="Trazado_1015372" data-name="Trazado 1015372" d="M42.163,32v7.365a5.15,5.15,0,0,0,.218,1.5h-.009L38.535,44.7,34,40.163l.907-.907,5.442-5.442A1.827,1.827,0,0,0,42.163,32Z" transform="translate(-34 -32)" fill="#ff826e"/>
        </g>
        <g id="Grupo_1171396" data-name="Grupo 1171396" transform="translate(38.883 14.512)">
          <path id="Trazado_1015373" data-name="Trazado 1015373" d="M54.965,18.907a3.207,3.207,0,0,1,4.5,4.571l-5.3,5.3L46.8,36.14V31.6a2.714,2.714,0,0,0-.8-1.923A2.774,2.774,0,0,0,44.87,29l3.746-3.746,6.313-6.313Z" transform="translate(-44.87 -18)" fill="#ff826e"/>
        </g>
        <g id="Grupo_1171397" data-name="Grupo 1171397" transform="translate(27.21 35.373)">
          <path id="Trazado_1015374" data-name="Trazado 1015374" d="M38.349,45.535l-.907.363L34.086,47.24a1.525,1.525,0,0,1-2.059-1.705,1.551,1.551,0,0,1,.082-.272L33.814,41Z" transform="translate(-32 -41)" fill="#aab2bd"/>
        </g>
        <g id="Grupo_1171398" data-name="Grupo 1171398" transform="translate(41.722 38.094)">
          <path id="Trazado_1015375" data-name="Trazado 1015375" d="M57.977,44l1.814,10.884H48V46.721Z" transform="translate(-48 -44)" fill="#b4dd7f"/>
        </g>
        <g id="Grupo_1171399" data-name="Grupo 1171399" transform="translate(33.559 21.768)">
          <path id="Trazado_1015376" data-name="Trazado 1015376" d="M42.093,32.721a1.773,1.773,0,0,1-1.279.535A1.819,1.819,0,0,1,39,31.442v-.907a4.482,4.482,0,0,1,.907-2.721A4.544,4.544,0,0,1,43.535,26H48.07l-3.746,3.746a2.813,2.813,0,0,0-.789-.118.91.91,0,0,0-.907.907v.907A1.773,1.773,0,0,1,42.093,32.721Z" transform="translate(-39 -26)" fill="#f0d0b4"/>
        </g>
        <g id="Grupo_1171400" data-name="Grupo 1171400" transform="translate(37.187 25.287)">
          <path id="Trazado_1015377" data-name="Trazado 1015377" d="M54.474,30.76a24.936,24.936,0,0,1,3.038,11.927l-9.977,2.721-2.494-2a4.943,4.943,0,0,1-1.1-1.206A5.464,5.464,0,0,1,43,39.168V30.9a.91.91,0,0,1,.907-.907,2.813,2.813,0,0,1,.789.118,2.774,2.774,0,0,1,1.134.68,2.714,2.714,0,0,1,.8,1.923v4.535l7.365-7.365Z" transform="translate(-43 -29.88)" fill="#f0d0b4"/>
        </g>
        <g id="Grupo_1171401" data-name="Grupo 1171401" transform="translate(0 21.768)">
          <path id="Trazado_1015378" data-name="Trazado 1015378" d="M20.14,26V55.024a3.627,3.627,0,0,1-3.628,3.628H5.628A3.627,3.627,0,0,1,2,55.024V26a9.062,9.062,0,0,0,3.628,7.256V39.6a.91.91,0,0,0,.907.907H15.6a.91.91,0,0,0,.907-.907V33.256A9.062,9.062,0,0,0,20.14,26Z" transform="translate(-2 -26)" fill="#969faa"/>
        </g>
        <g id="Grupo_1171402" data-name="Grupo 1171402" transform="translate(3.651 39.913)">
          <path id="Trazado_1015379" data-name="Trazado 1015379" d="M16.05,56.854H6.932a.907.907,0,0,1-.907-.907V46.913a.907.907,0,0,1,.907-.907h9.117a.907.907,0,0,1,.907.907v9.034A.905.905,0,0,1,16.05,56.854Z" transform="translate(-6.025 -46.006)" fill="#ff826e"/>
        </g>
        <g id="Grupo_1171403" data-name="Grupo 1171403" transform="translate(3.628 29.024)">
          <path id="Trazado_1015380" data-name="Trazado 1015380" d="M16.884,34v6.349a.91.91,0,0,1-.907.907H6.907A.91.91,0,0,1,6,40.349V34a9.07,9.07,0,0,0,10.884,0Z" transform="translate(-6 -34)" fill="#69d6f4"/>
        </g>
        <g id="Grupo_1171404" data-name="Grupo 1171404" transform="translate(0 12.698)">
          <path id="Trazado_1015381" data-name="Trazado 1015381" d="M20.14,25.07A9.07,9.07,0,1,1,11.07,16,9.062,9.062,0,0,1,20.14,25.07Z" transform="translate(-2 -16)" fill="#fcd770"/>
        </g>
      </g>
      <g id="Grupo_1171406" data-name="Grupo 1171406" transform="translate(1 1)">
        <path id="Trazado_1015382" data-name="Trazado 1015382" d="M51.362,27.644l-.156-.287,4.823-4.823a4.1,4.1,0,0,0-4.237-6.786V3.721A2.724,2.724,0,0,0,49.071,1H20.8a2.7,2.7,0,0,0-1.925.8L10.867,9.8a2.7,2.7,0,0,0-.8,1.925v2.015A9.986,9.986,0,0,0,1,23.675V52.7a4.54,4.54,0,0,0,4.535,4.535H16.419A4.54,4.54,0,0,0,20.954,52.7v-.907H56.491L54.51,39.907A25.886,25.886,0,0,0,51.362,27.644Zm1.315,11.67-8.842,2.412L41.7,40.02A4.517,4.517,0,0,1,40,36.478V28.21a1.816,1.816,0,0,1,1.814,1.814v6.349h1.814V34.934L49.864,28.7A24.048,24.048,0,0,1,52.677,39.314ZM40,26.4a1.816,1.816,0,0,0-1.814,1.814v.907a.907.907,0,0,1-1.814,0V28.21A3.632,3.632,0,0,1,40,24.582h2.345l-1.863,1.863A3.535,3.535,0,0,0,40,26.4ZM30.068,41.88l1.194-2.986,2.589,2.589-2.987,1.195a.628.628,0,0,1-.841-.571A.592.592,0,0,1,30.068,41.88Zm5.4-1.348L32.213,37.28,37.7,31.8a2.647,2.647,0,0,0,.489-.125v4.807a6.38,6.38,0,0,0,.123,1.21Zm-.74-10.508H24.582V26.4H34.876a5.42,5.42,0,0,0-.317,1.814v.907A2.69,2.69,0,0,0,34.726,30.024ZM24.582,31.838H35.09l-3.628,3.628h-6.88Zm0,5.442h5.372L28.5,40.908H24.582Zm0,5.442H28.3a2.42,2.42,0,0,0,3.242,1.641l2.111-.845V46.35h-9.07Zm10.884.07.51-.2L39,39.567c.033.059.063.119.1.177V46.35H35.466Zm5.442-1.086,1.814,1.451V46.35H40.908ZM55.42,19.626a2.285,2.285,0,0,1-.674,1.626L43.629,32.369V30.024a3.606,3.606,0,0,0-1.355-2.8L51.493,18a2.3,2.3,0,0,1,3.926,1.626ZM19.14,4.1V9.163a.908.908,0,0,1-.907.907H13.166ZM10.977,15.512a8.163,8.163,0,1,1-8.163,8.163,8.173,8.173,0,0,1,8.163-8.163ZM6.442,32.551a9.889,9.889,0,0,0,9.07,0V37.28H6.442ZM16.419,55.42H5.535A2.724,2.724,0,0,1,2.814,52.7V29.394a10.07,10.07,0,0,0,1.814,1.972V37.28a1.816,1.816,0,0,0,1.814,1.814h9.07a1.816,1.816,0,0,0,1.814-1.814V31.365a10.07,10.07,0,0,0,1.814-1.972V52.7A2.724,2.724,0,0,1,16.419,55.42Zm4.535-5.442v-26.3a9.986,9.986,0,0,0-9.07-9.931v-1.86h6.349a2.724,2.724,0,0,0,2.721-2.721V2.814H49.071a.908.908,0,0,1,.907.907V16.95L44.16,22.768H40a5.427,5.427,0,0,0-4.045,1.814H22.768V48.164H42.722v1.814Zm23.582,0V43.415l8.34-2.275,1.473,8.838Z" transform="translate(-1 -1)"/>
        <path id="Trazado_1015383" data-name="Trazado 1015383" d="M10.814,29.752V31.7h1.814V29.752a2.579,2.579,0,0,0,.383-4.773L11.242,24.1a.775.775,0,0,1,.346-1.468h.265a.775.775,0,0,1,.775.775v1.039h1.814V23.4a2.584,2.584,0,0,0-1.814-2.457V19H10.814v1.946a2.579,2.579,0,0,0-.383,4.773L12.2,26.6a.775.775,0,0,1-.346,1.468h-.265a.775.775,0,0,1-.775-.775V26.256H9V27.3A2.584,2.584,0,0,0,10.814,29.752Z" transform="translate(-1.744 -2.674)"/>
        <path id="Trazado_1015384" data-name="Trazado 1015384" d="M15.884,45H6.814A1.816,1.816,0,0,0,5,46.814v9.07A1.816,1.816,0,0,0,6.814,57.7h9.07A1.816,1.816,0,0,0,17.7,55.884v-9.07A1.816,1.816,0,0,0,15.884,45Zm0,3.628H14.07V46.814h1.814Zm-3.628,7.256H10.442V54.07h1.814Zm0-3.628H10.442V50.442h1.814Zm-3.628,0H6.814V50.442H8.628Zm1.814-3.628V46.814h1.814v1.814ZM8.628,46.814v1.814H6.814V46.814ZM6.814,54.07H8.628v1.814H6.814Zm7.256,1.814V50.442h1.815v5.442Z" transform="translate(-1.372 -5.092)"/>
        <path id="Trazado_1015385" data-name="Trazado 1015385" d="M50.4,5H25v5.442H50.4ZM48.582,8.628H26.814V6.814H48.582Z" transform="translate(-3.232 -1.372)"/>
        <path id="Trazado_1015386" data-name="Trazado 1015386" d="M25,13H50.4v1.814H25Z" transform="translate(-3.232 -2.116)"/>
        <path id="Trazado_1015387" data-name="Trazado 1015387" d="M25,17H50.4v1.814H25Z" transform="translate(-3.232 -2.488)"/>
        <path id="Trazado_1015388" data-name="Trazado 1015388" d="M25,21H39.512v1.814H25Z" transform="translate(-3.232 -2.86)"/>
      </g>
    </g>
  </g>
</svg>
