<svg xmlns="http://www.w3.org/2000/svg" xmlns:xlink="http://www.w3.org/1999/xlink" width="110" height="110" viewBox="0 0 110 110">
  <defs>
    <filter id="Trazado_982547" x="0" y="0" width="110" height="110" filterUnits="userSpaceOnUse">
      <feOffset dy="3" input="SourceAlpha"/>
      <feGaussianBlur stdDeviation="3" result="blur"/>
      <feFlood flood-opacity="0.161"/>
      <feComposite operator="in" in2="blur"/>
      <feComposite in="SourceGraphic"/>
    </filter>
  </defs>
  <g id="Grupo_1171424" data-name="Grupo 1171424" transform="translate(-7337 -7344)">
    <g id="Grupo_1168731" data-name="Grupo 1168731" transform="translate(6536 2700)">
      <g id="Grupo_1163014" data-name="Grupo 1163014" transform="translate(1 306)">
        <g id="Grupo_1157015" data-name="Grupo 1157015" transform="translate(0 3549)">
          <g id="Grupo_1155792" data-name="Grupo 1155792" transform="translate(-1 -3894.666)">
            <g id="Grupo_1154703" data-name="Grupo 1154703" transform="translate(0 1465.666)">
              <g id="Grupo_1150789" data-name="Grupo 1150789" transform="translate(3 2320)">
                <g id="Grupo_1154212" data-name="Grupo 1154212" transform="translate(-236 -5809)">
                  <g id="Grupo_1152583" data-name="Grupo 1152583" transform="translate(1043 6713)">
                    <g id="Grupo_1146973" data-name="Grupo 1146973" transform="translate(0 0)">
                      <g id="Grupo_1146954" data-name="Grupo 1146954">
                        <g transform="matrix(1, 0, 0, 1, -9, -6)" filter="url(#Trazado_982547)">
                          <g id="Trazado_982547-2" data-name="Trazado 982547" transform="translate(9 6)" fill="#e4f2f4">
                            <path d="M 46 90.49987030029297 C 39.99187850952148 90.49987030029297 34.16426849365234 89.32350921630859 28.67905426025391 87.00345611572266 C 23.38019943237305 84.76224517822266 18.62104034423828 81.55341339111328 14.53374671936035 77.46613311767578 C 10.44646644592285 73.37885284423828 7.237639904022217 68.61969757080078 4.996413230895996 63.32085418701172 C 2.676359891891479 57.83565521240234 1.5 52.008056640625 1.5 45.99993515014648 C 1.5 39.99181365966797 2.676359891891479 34.16421508789062 4.996413230895996 28.67901420593262 C 7.237639904022217 23.38017463684082 10.44646644592285 18.62101554870605 14.53374671936035 14.53373527526855 C 18.62104034423828 10.44645500183105 23.38019943237305 7.23762845993042 28.67905426025391 4.996415138244629 C 34.16426849365234 2.676361799240112 39.99187850952148 1.500001788139343 46 1.500001788139343 C 52.00812149047852 1.500001788139343 57.83573150634766 2.676361799240112 63.32094573974609 4.996415138244629 C 68.61979675292969 7.23762845993042 73.37895965576172 10.44645500183105 77.46625518798828 14.53373527526855 C 81.55353546142578 18.62101554870605 84.76235961914062 23.38017463684082 87.00358581542969 28.67901420593262 C 89.32363891601562 34.16421508789062 90.5 39.99181365966797 90.5 45.99993515014648 C 90.5 52.008056640625 89.32363891601562 57.83565521240234 87.00358581542969 63.32085418701172 C 84.76235961914062 68.61969757080078 81.55353546142578 73.37885284423828 77.46625518798828 77.46613311767578 C 73.37895965576172 81.55341339111328 68.61979675292969 84.76224517822266 63.32094573974609 87.00345611572266 C 57.83573150634766 89.32350921630859 52.00812149047852 90.49987030029297 46 90.49987030029297 Z" stroke="none"/>
                            <path d="M 46 2.999992370605469 C 40.1937141418457 2.999992370605469 34.56269836425781 4.136489868164062 29.26337051391602 6.377906799316406 C 24.14332580566406 8.543502807617188 19.54441070556641 11.64437866210938 15.59439849853516 15.59437561035156 C 11.64440155029297 19.54439544677734 8.54351806640625 24.14329528808594 6.377914428710938 29.26333618164062 C 4.136497497558594 34.56264877319336 3 40.19366455078125 3 45.99993515014648 C 3 51.80620574951172 4.136497497558594 57.43720626831055 6.377914428710938 62.73651885986328 C 8.54351806640625 67.8565673828125 11.64440155029297 72.45545959472656 15.59439849853516 76.40547943115234 C 19.54441070556641 80.35547637939453 24.14332580566406 83.45635223388672 29.26337051391602 85.6219482421875 C 34.56269836425781 87.86336517333984 40.1937141418457 88.99986267089844 46 88.99986267089844 C 51.8062858581543 88.99986267089844 57.43730163574219 87.86336517333984 62.73661422729492 85.6219482421875 C 67.85667419433594 83.45635223388672 72.45557403564453 80.35547637939453 76.40558624267578 76.40547943115234 C 80.35559844970703 72.45545959472656 83.45647430419922 67.8565673828125 85.6220703125 62.73651885986328 C 87.86350250244141 57.43720626831055 89 51.80620574951172 89 45.99993515014648 C 89 40.19366455078125 87.86350250244141 34.56264877319336 85.6220703125 29.26333618164062 C 83.45647430419922 24.14329528808594 80.35559844970703 19.54439544677734 76.40558624267578 15.59437561035156 C 72.45557403564453 11.64437866210938 67.85667419433594 8.543502807617188 62.73661422729492 6.377906799316406 C 57.43730163574219 4.136489868164062 51.8062858581543 2.999992370605469 46 2.999992370605469 M 46 -7.62939453125e-06 C 71.40509033203125 -7.62939453125e-06 92 20.59486389160156 92 45.99993515014648 C 92 71.40499114990234 71.40509033203125 91.99986267089844 46 91.99986267089844 C 20.59490203857422 91.99986267089844 0 71.40499114990234 0 45.99993515014648 C 0 20.59486389160156 20.59490203857422 -7.62939453125e-06 46 -7.62939453125e-06 Z" stroke="none" fill="#01899b"/>
                          </g>
                        </g>
                      </g>
                    </g>
                  </g>
                </g>
              </g>
            </g>
          </g>
        </g>
      </g>
    </g>
    <g id="clipboard_543117" transform="translate(7353.054 7367)">
      <path id="Trazado_1015453" data-name="Trazado 1015453" d="M305.188,167.156l-5.945,10.26-.066.115-1.342,2.314-10.027-5.809-6.976-4.042.019-.034,2.781-4.8,4.176-7.205.376-.65Z" transform="translate(-238.985 -139.295)" fill="#00ddc0"/>
      <g id="Grupo_1171420" data-name="Grupo 1171420" transform="translate(41.846 18.66)">
        <path id="Trazado_1015454" data-name="Trazado 1015454" d="M299.244,269.351l-.067.115-1.342,2.314-10.027-5.809-6.976-4.042.019-.034a15.349,15.349,0,0,1,18.392,7.456Z" transform="translate(-280.832 -249.889)" fill="#00cdb3"/>
        <path id="Trazado_1015455" data-name="Trazado 1015455" d="M287.808,162.979v16.082l-6.976-4.042,2.8-4.835Z" transform="translate(-280.832 -162.979)" fill="#00cdb3"/>
        <path id="Trazado_1015456" data-name="Trazado 1015456" d="M297.832,240.6l-17-9.852,2.8-4.834,15.544,12.371Z" transform="translate(-280.828 -218.707)" fill="#00cdb3"/>
      </g>
      <path id="Trazado_1015457" data-name="Trazado 1015457" d="M316.806,204.007l-3.026,5.224-.36.621-1.665,2.873-12.869-7.457,1.107-1.911,1.662-2.868,2.281-3.937a2.1,2.1,0,0,0,2.867-.764l9.239,5.353A2.1,2.1,0,0,0,316.806,204.007Z" transform="translate(-254.972 -173.371)" fill="#e0e0e3"/>
      <path id="Trazado_1015458" data-name="Trazado 1015458" d="M313.78,267.089l-.36.621-1.665,2.873-12.869-7.457,1.107-1.911a15.628,15.628,0,0,1,1.652-.088A15.3,15.3,0,0,1,313.78,267.089Z" transform="translate(-254.972 -231.23)" fill="#d1d1d1"/>
      <circle id="Elipse_12151" data-name="Elipse 12151" cx="1.534" cy="1.534" r="1.534" transform="translate(52.132 28.363)" fill="#fcd842"/>
      <path id="Trazado_1015459" data-name="Trazado 1015459" d="M49.6,111.188H21.229a2.785,2.785,0,0,1-2.785-2.785V67.3a2.785,2.785,0,0,1,2.785-2.785H49.6A2.785,2.785,0,0,1,52.384,67.3v41.1A2.785,2.785,0,0,1,49.6,111.188Z" transform="translate(-6.64 -57.132)" fill="#00ddc0"/>
      <rect id="Rectángulo_414023" data-name="Rectángulo 414023" width="17.282" height="3.241" transform="translate(20.2 7.387)" fill="#00cdb3"/>
      <rect id="Rectángulo_414024" data-name="Rectángulo 414024" width="27.12" height="39.882" transform="translate(15.281 10.628)" fill="#e0e0e3"/>
      <g id="Grupo_1171421" data-name="Grupo 1171421" transform="translate(15.281 10.628)">
        <rect id="Rectángulo_414025" data-name="Rectángulo 414025" width="27.12" height="3.857" transform="translate(0 36.026)" fill="#d1d1d1"/>
        <path id="Trazado_1015460" data-name="Trazado 1015460" d="M107.907,97.151H92.915a1.145,1.145,0,0,1-1.145-1.145V92.83h17.282v3.176A1.145,1.145,0,0,1,107.907,97.151Z" transform="translate(-86.851 -92.83)" fill="#d1d1d1"/>
      </g>
      <path id="Trazado_1015461" data-name="Trazado 1015461" d="M125.349,12.808a3.324,3.324,0,1,0-5.318,0h-3.1v6.248h11.521V12.808Z" transform="translate(-93.849 -6.633)" fill="#6b7f9e"/>
      <path id="Trazado_1015462" data-name="Trazado 1015462" d="M144.861,10.812a3.311,3.311,0,0,1-.174,1.065,3.324,3.324,0,0,0-6.3,0,3.324,3.324,0,1,1,6.473-1.065Z" transform="translate(-112.696 -6.631)" fill="#798daa"/>
      <rect id="Rectángulo_414026" data-name="Rectángulo 414026" width="11.521" height="2.681" transform="translate(23.081 9.742)" fill="#586c89"/>
      <g id="Grupo_1171422" data-name="Grupo 1171422" transform="translate(19.882 19.121)">
        <circle id="Elipse_12152" data-name="Elipse 12152" cx="1.736" cy="1.736" r="1.736" fill="#00ddc0"/>
        <circle id="Elipse_12153" data-name="Elipse 12153" cx="1.736" cy="1.736" r="1.736" transform="translate(0 9.713)" fill="#00ddc0"/>
      </g>
      <g id="Grupo_1171423" data-name="Grupo 1171423" transform="translate(19.882 32.687)">
        <circle id="Elipse_12154" data-name="Elipse 12154" cx="1.736" cy="1.736" r="1.736" transform="translate(0 5.859)" fill="#ffce00"/>
        <circle id="Elipse_12155" data-name="Elipse 12155" cx="12.537" cy="12.537" r="12.537" transform="translate(14.254)" fill="#ffce00"/>
      </g>
      <circle id="Elipse_12156" data-name="Elipse 12156" cx="8.543" cy="8.543" r="8.543" transform="translate(38.13 36.682)" fill="#ffe571"/>
      <path id="Trazado_1015463" data-name="Trazado 1015463" d="M66.945,28.293a.859.859,0,0,0-.312-1.174l-2.857-1.655a.859.859,0,1,0-.861,1.486l2.113,1.224-6.4,11.017q-.175-.346-.37-.68l4.314-7.445a.859.859,0,0,0-.313-1.174,1.237,1.237,0,0,1-.45-1.691.859.859,0,0,0-.312-1.174l-9.24-5.353a.859.859,0,0,0-1.174.313,1.239,1.239,0,0,1-1.693.449.859.859,0,0,0-1.173.313L46.6,25.54V24.2l2.907-5.018,10.534,6.1a.859.859,0,1,0,.861-1.486L49.629,17.268a.859.859,0,0,0-1.174.312l-1.851,3.2V10.171A3.648,3.648,0,0,0,42.96,6.528h-7.5V6.175a.859.859,0,0,0-.859-.859H32.868a4.182,4.182,0,1,0-8.054,0H23.081a.859.859,0,0,0-.859.859v.353H14.589a3.647,3.647,0,0,0-3.643,3.643V13.24a.859.859,0,1,0,1.717,0V10.171a1.928,1.928,0,0,1,1.926-1.926h7.633V9.77H15.281a.859.859,0,0,0-.859.859V50.51a.859.859,0,0,0,.859.859h19.49A13.43,13.43,0,0,0,35.914,53.2H14.589a1.929,1.929,0,0,1-1.926-1.927V16.6a.859.859,0,0,0-1.717,0V51.27a3.648,3.648,0,0,0,3.643,3.644H37.432A13.394,13.394,0,0,0,59.445,41.178a.856.856,0,0,0,.1-.131ZM46.6,28.967l2.736-4.723a2.969,2.969,0,0,0,2.695-.717l7.971,4.618a2.966,2.966,0,0,0,.717,2.694l-3.533,6.1a13.38,13.38,0,0,0-10.517-5.108H46.6V28.967h0ZM42.96,8.246a1.929,1.929,0,0,1,1.927,1.926V31.948a13.358,13.358,0,0,0-1.627.32V10.628A.859.859,0,0,0,42.4,9.77H35.46V8.246ZM23.939,7.033h2.243a.859.859,0,0,0,.687-1.374,2.443,2.443,0,0,1-.493-1.478,2.465,2.465,0,0,1,4.929,0,2.442,2.442,0,0,1-.493,1.478A.859.859,0,0,0,31.5,7.033h2.243v4.531h-9.8V7.033ZM46.673,56.9a11.679,11.679,0,0,1-8.784-19.377A.859.859,0,1,0,36.6,36.394a13.377,13.377,0,0,0-2.69,4.765h-6.44a.859.859,0,0,0,0,1.717h6.016a13.393,13.393,0,0,0,.545,6.774H16.14V11.487h6.082v.936a.859.859,0,0,0,.859.859H34.6a.859.859,0,0,0,.859-.859v-.936h6.082V32.846A13.35,13.35,0,0,0,39.4,33.974a.859.859,0,0,0,.934,1.441A11.68,11.68,0,1,1,46.673,56.9Z"/>
      <path id="Trazado_1015464" data-name="Trazado 1015464" d="M364.353,244.689h0a2.393,2.393,0,1,0-1.113-1.455A2.379,2.379,0,0,0,364.353,244.689Zm.615-2.409a.676.676,0,1,1,.246.924h0a.676.676,0,0,1-.246-.924Z" transform="translate(-311.885 -212.722)"/>
      <path id="Trazado_1015465" data-name="Trazado 1015465" d="M418.474,268.062l.351.2a.859.859,0,1,0,.861-1.486l-.351-.2a.859.859,0,0,0-.861,1.486Z" transform="translate(-360.488 -235.953)"/>
      <path id="Trazado_1015466" data-name="Trazado 1015466" d="M409.1,284.242l.351.2a.859.859,0,0,0,.861-1.486l-.351-.2a.859.859,0,0,0-.861,1.486Z" transform="translate(-352.187 -250.28)"/>
      <path id="Trazado_1015467" data-name="Trazado 1015467" d="M84.086,159.5a2.595,2.595,0,1,0,2.595,2.595A2.6,2.6,0,0,0,84.086,159.5Zm0,3.472a.877.877,0,1,1,.877-.877A.878.878,0,0,1,84.086,162.974Z" transform="translate(-62.468 -141.24)"/>
      <path id="Trazado_1015468" data-name="Trazado 1015468" d="M148.6,161.219h3.368a.859.859,0,0,0,0-1.717H148.6a.859.859,0,0,0,0,1.717Z" transform="translate(-121.135 -141.24)"/>
      <path id="Trazado_1015469" data-name="Trazado 1015469" d="M148.6,191.547h10.015a.859.859,0,1,0,0-1.717H148.6a.859.859,0,1,0,0,1.717Z" transform="translate(-121.135 -168.096)"/>
      <path id="Trazado_1015470" data-name="Trazado 1015470" d="M84.086,244.333a2.595,2.595,0,1,0,2.595,2.595A2.6,2.6,0,0,0,84.086,244.333Zm0,3.472a.877.877,0,1,1,.877-.877A.878.878,0,0,1,84.086,247.805Z" transform="translate(-62.468 -216.359)"/>
      <path id="Trazado_1015471" data-name="Trazado 1015471" d="M148.6,246.05h3.368a.859.859,0,0,0,0-1.717H148.6a.859.859,0,0,0,0,1.717Z" transform="translate(-121.135 -216.359)"/>
      <path id="Trazado_1015472" data-name="Trazado 1015472" d="M158.618,274.66H148.6a.859.859,0,1,0,0,1.717h10.015a.859.859,0,1,0,0-1.717Z" transform="translate(-121.135 -243.213)"/>
      <path id="Trazado_1015473" data-name="Trazado 1015473" d="M84.086,329.163a2.595,2.595,0,1,0,2.595,2.595A2.6,2.6,0,0,0,84.086,329.163Zm0,3.472a.877.877,0,1,1,.877-.877A.878.878,0,0,1,84.086,332.635Z" transform="translate(-62.468 -291.476)"/>
      <path id="Trazado_1015474" data-name="Trazado 1015474" d="M151.97,329.163H148.6a.859.859,0,1,0,0,1.717h3.368a.859.859,0,0,0,0-1.717Z" transform="translate(-121.134 -291.476)"/>
      <path id="Trazado_1015475" data-name="Trazado 1015475" d="M250.275,312.883a9.4,9.4,0,1,0,9.4,9.4A9.412,9.412,0,0,0,250.275,312.883Zm0,17.085a7.684,7.684,0,1,1,7.684-7.683A7.692,7.692,0,0,1,250.275,329.968Z" transform="translate(-203.602 -277.06)"/>
      <path id="Trazado_1015476" data-name="Trazado 1015476" d="M300.781,351.815h1.7a.859.859,0,0,0,1.712-.1,1.621,1.621,0,0,0-1.62-1.62h-.378v-.866a.859.859,0,0,0-1.717,0v.889a2.3,2.3,0,0,0,.307,4.587h1.1a.587.587,0,0,1,0,1.175h-1.7a.859.859,0,0,0-1.712.1,1.622,1.622,0,0,0,1.62,1.62h.378v.866a.859.859,0,0,0,1.717,0v-.889a2.3,2.3,0,0,0-.307-4.587h-1.1a.587.587,0,0,1,0-1.175Z" transform="translate(-254.609 -308.487)"/>
      <path id="Trazado_1015477" data-name="Trazado 1015477" d="M338.387,121.9h.779a.859.859,0,0,0,0-1.717h-.779a.859.859,0,0,0,0,1.717Z" transform="translate(-289.19 -106.426)"/>
      <path id="Trazado_1015478" data-name="Trazado 1015478" d="M338.387,95.427h.779a.859.859,0,0,0,0-1.717h-.779a.859.859,0,0,0,0,1.717Z" transform="translate(-289.19 -82.981)"/>
      <path id="Trazado_1015479" data-name="Trazado 1015479" d="M338.387,68.951h.779a.859.859,0,0,0,0-1.717h-.779a.859.859,0,0,0,0,1.717Z" transform="translate(-289.19 -59.537)"/>
    </g>
  </g>
</svg>
