<svg xmlns="http://www.w3.org/2000/svg" xmlns:xlink="http://www.w3.org/1999/xlink" width="113" height="113" viewBox="0 0 113 113">
  <defs>
    <filter id="Trazado_982547" x="0" y="0" width="113" height="113" filterUnits="userSpaceOnUse">
      <feOffset dy="3" input="SourceAlpha"/>
      <feGaussianBlur stdDeviation="3" result="blur"/>
      <feFlood flood-opacity="0.161"/>
      <feComposite operator="in" in2="blur"/>
      <feComposite in="SourceGraphic"/>
    </filter>
  </defs>
  <g id="Grupo_1168928" data-name="Grupo 1168928" transform="translate(-744 -4433)">
    <g id="Grupo_1168622" data-name="Grupo 1168622" transform="translate(0.118 -6386.154)">
      <g id="Grupo_1162128" data-name="Grupo 1162128" transform="translate(752.882 10825.154)">
        <g id="Grupo_1152576" data-name="Grupo 1152576" transform="translate(0)">
          <g id="Grupo_1148633" data-name="Grupo 1148633">
            <g id="Grupo_1148525" data-name="Grupo 1148525">
              <g transform="matrix(1, 0, 0, 1, -9, -6)" filter="url(#Trazado_982547)">
                <g id="Trazado_982547-2" data-name="Trazado 982547" transform="translate(9 6)" fill="#e8edf7">
                  <path d="M 47.5 93.5 C 41.28937149047852 93.5 35.26533508300781 92.28397369384766 29.59518623352051 89.88570404052734 C 24.11771965026855 87.56893157958984 19.19813346862793 84.25196075439453 14.97309303283691 80.02691650390625 C 10.74804019927979 75.80186462402344 7.431066513061523 70.88229370117188 5.114293098449707 65.40481567382812 C 2.716026782989502 59.73468017578125 1.5 53.71062850952148 1.5 47.5 C 1.5 41.28937149047852 2.716026782989502 35.26533508300781 5.114293098449707 29.59518623352051 C 7.431066513061523 24.11771965026855 10.74804019927979 19.19813346862793 14.97309303283691 14.97309303283691 C 19.19813346862793 10.74804019927979 24.11771965026855 7.431066513061523 29.59518623352051 5.114293098449707 C 35.26533508300781 2.716026782989502 41.28937149047852 1.5 47.5 1.5 C 53.71062850952148 1.5 59.73468017578125 2.716026782989502 65.40481567382812 5.114293098449707 C 70.88229370117188 7.431066513061523 75.80186462402344 10.74804019927979 80.02691650390625 14.97309303283691 C 84.25196075439453 19.19813346862793 87.56893157958984 24.11771965026855 89.88570404052734 29.59518623352051 C 92.28397369384766 35.26533508300781 93.5 41.28937149047852 93.5 47.5 C 93.5 53.71062850952148 92.28397369384766 59.73468017578125 89.88570404052734 65.40481567382812 C 87.56893157958984 70.88229370117188 84.25196075439453 75.80186462402344 80.02691650390625 80.02691650390625 C 75.80186462402344 84.25196075439453 70.88229370117188 87.56893157958984 65.40481567382812 89.88570404052734 C 59.73468017578125 92.28397369384766 53.71062850952148 93.5 47.5 93.5 Z" stroke="none"/>
                  <path d="M 47.5 3 C 41.49121475219727 3 35.66376876831055 4.176155090332031 30.17950439453125 6.495796203613281 C 24.88084411621094 8.736953735351562 20.12152099609375 11.94598388671875 16.03375244140625 16.03375244140625 C 11.94598388671875 20.12152099609375 8.736953735351562 24.88084411621094 6.495796203613281 30.17950439453125 C 4.176155090332031 35.66376876831055 3 41.49121475219727 3 47.5 C 3 53.50878524780273 4.176155090332031 59.33623123168945 6.495796203613281 64.82049560546875 C 8.736953735351562 70.11915588378906 11.94598388671875 74.87847900390625 16.03375244140625 78.96624755859375 C 20.12152099609375 83.05401611328125 24.88084411621094 86.26304626464844 30.17950439453125 88.50419616699219 C 35.66376876831055 90.82384490966797 41.49121475219727 92 47.5 92 C 53.50878524780273 92 59.33623123168945 90.82384490966797 64.82049560546875 88.50419616699219 C 70.11915588378906 86.26304626464844 74.87847900390625 83.05401611328125 78.96624755859375 78.96624755859375 C 83.05401611328125 74.87847900390625 86.26304626464844 70.11915588378906 88.50419616699219 64.82049560546875 C 90.82384490966797 59.33623123168945 92 53.50878524780273 92 47.5 C 92 41.49121475219727 90.82384490966797 35.66376876831055 88.50419616699219 30.17950439453125 C 86.26304626464844 24.88084411621094 83.05401611328125 20.12152099609375 78.96624755859375 16.03375244140625 C 74.87847900390625 11.94598388671875 70.11915588378906 8.736953735351562 64.82049560546875 6.495796203613281 C 59.33623123168945 4.176155090332031 53.50878524780273 3 47.5 3 M 47.5 0 C 73.7335205078125 0 95 21.2664794921875 95 47.5 C 95 73.7335205078125 73.7335205078125 95 47.5 95 C 21.2664794921875 95 0 73.7335205078125 0 47.5 C 0 21.2664794921875 21.2664794921875 0 47.5 0 Z" stroke="none" fill="#2e5bb6"/>
                </g>
              </g>
            </g>
          </g>
        </g>
      </g>
    </g>
    <g id="cost" transform="translate(770.932 4456.998)">
      <g id="Grupo_1168927" data-name="Grupo 1168927" transform="translate(0.976 0.913)">
        <g id="Grupo_1168923" data-name="Grupo 1168923" transform="translate(0 6.969)">
          <path id="Trazado_1013698" data-name="Trazado 1013698" d="M24.546,77.957,25.89,81.97a55.585,55.585,0,0,1,7.655,9.748c5.117,8.985-2.162,18.11-11.911,17.946C11.884,109.829,4.6,100.7,9.722,91.718a55.576,55.576,0,0,1,7.655-9.748l1.348-4.009L15.443,74.68a2.06,2.06,0,0,1,2.57-3.189,1.059,1.059,0,0,0,1.607-.665,2.06,2.06,0,0,1,4.025,0,1.059,1.059,0,0,0,1.607.665,2.068,2.068,0,0,1,2.57.276h0a2.066,2.066,0,0,1,0,2.913Z" transform="translate(-8.037 -69.203)" fill="#ffe177" fill-rule="evenodd"/>
          <path id="Trazado_1013699" data-name="Trazado 1013699" d="M130.355,77.956l1.344,4.013a55.584,55.584,0,0,1,7.655,9.748c5.117,8.985-2.162,18.11-11.911,17.946V69.2a2.068,2.068,0,0,1,2.013,1.623,1.059,1.059,0,0,0,1.607.665,2.068,2.068,0,0,1,2.57.276h0a2.066,2.066,0,0,1,0,2.913Z" transform="translate(-113.846 -69.202)" fill="#ffd064" fill-rule="evenodd"/>
          <path id="Trazado_1013700" data-name="Trazado 1013700" d="M72.578,150.132H81.52a2,2,0,1,0,0-4.009H72.578a2,2,0,1,0,0,4.009Z" transform="translate(-63.453 -137.365)" fill="#837683" fill-rule="evenodd"/>
          <path id="Trazado_1013701" data-name="Trazado 1013701" d="M127.443,150.132h4.471a2,2,0,1,0,0-4.009h-4.471Z" transform="translate(-113.847 -137.365)" fill="#685e68" fill-rule="evenodd"/>
        </g>
        <g id="Grupo_1168924" data-name="Grupo 1168924" transform="translate(23.785 32.078)">
          <path id="Trazado_1013702" data-name="Trazado 1013702" d="M218.069,420.4h2.684a1.141,1.141,0,0,1,1.139,1.139v7.241a1.141,1.141,0,0,1-1.139,1.139h-2.684a1.141,1.141,0,0,1-1.139-1.139v-7.241A1.141,1.141,0,0,1,218.069,420.4Z" transform="translate(-216.93 -405.523)" fill="#fe646f" fill-rule="evenodd"/>
          <path id="Trazado_1013703" data-name="Trazado 1013703" d="M238.718,420.4h1.342a1.141,1.141,0,0,1,1.139,1.139v7.241a1.141,1.141,0,0,1-1.139,1.139h-1.342Z" transform="translate(-236.237 -405.523)" fill="#fd4755" fill-rule="evenodd"/>
          <path id="Trazado_1013704" data-name="Trazado 1013704" d="M298.981,346.884h2.684a1.141,1.141,0,0,1,1.139,1.139v15.612a1.141,1.141,0,0,1-1.139,1.139h-2.684a1.141,1.141,0,0,1-1.139-1.139V348.023A1.141,1.141,0,0,1,298.981,346.884Z" transform="translate(-288.629 -340.376)" fill="#ffe177" fill-rule="evenodd"/>
          <path id="Trazado_1013705" data-name="Trazado 1013705" d="M319.63,346.884h1.342a1.141,1.141,0,0,1,1.139,1.139v15.612a1.141,1.141,0,0,1-1.139,1.139H319.63Z" transform="translate(-307.936 -340.376)" fill="#ffd064" fill-rule="evenodd"/>
          <path id="Trazado_1013706" data-name="Trazado 1013706" d="M379.894,376.6h2.685a1.141,1.141,0,0,1,1.139,1.139V389.97a1.141,1.141,0,0,1-1.139,1.139h-2.685a1.141,1.141,0,0,1-1.139-1.139V377.742A1.141,1.141,0,0,1,379.894,376.6Z" transform="translate(-360.329 -366.711)" fill="#6cf5c2" fill-rule="evenodd"/>
          <path id="Trazado_1013707" data-name="Trazado 1013707" d="M400.544,376.6h1.342a1.141,1.141,0,0,1,1.139,1.139V389.97a1.141,1.141,0,0,1-1.139,1.139h-1.342Z" transform="translate(-379.637 -366.711)" fill="#00e499" fill-rule="evenodd"/>
          <path id="Trazado_1013708" data-name="Trazado 1013708" d="M460.806,289.724h2.684a1.141,1.141,0,0,1,1.139,1.139v22.121a1.141,1.141,0,0,1-1.139,1.139h-2.684a1.141,1.141,0,0,1-1.139-1.139V290.863A1.141,1.141,0,0,1,460.806,289.724Z" transform="translate(-432.028 -289.724)" fill="#8ac9fe" fill-rule="evenodd"/>
          <path id="Trazado_1013709" data-name="Trazado 1013709" d="M481.455,289.724H482.8a1.141,1.141,0,0,1,1.139,1.139v22.121a1.141,1.141,0,0,1-1.139,1.139h-1.342Z" transform="translate(-451.335 -289.724)" fill="#60b7ff" fill-rule="evenodd"/>
        </g>
        <g id="Grupo_1168925" data-name="Grupo 1168925" transform="translate(23.559 20.755)">
          <circle id="Elipse_12097" data-name="Elipse 12097" cx="2.571" cy="2.571" r="2.571" transform="translate(0 13.375) rotate(-3.151)" fill="#fd4755"/>
          <circle id="Elipse_12098" data-name="Elipse 12098" cx="2.571" cy="2.571" r="2.571" transform="translate(8.277 7.751) rotate(-45)" fill="#ffd064"/>
          <circle id="Elipse_12099" data-name="Elipse 12099" cx="2.571" cy="2.571" r="2.571" transform="translate(17.489 12.296) rotate(-45)" fill="#00e499"/>
          <circle id="Elipse_12100" data-name="Elipse 12100" cx="2.571" cy="2.571" r="2.571" transform="translate(27.658 0.283) rotate(-3.151)" fill="#60b7ff"/>
        </g>
        <g id="Grupo_1168926" data-name="Grupo 1168926" transform="translate(30.015)">
          <path id="Trazado_1013710" data-name="Trazado 1013710" d="M283.837,9.755a8.838,8.838,0,0,1,3.225,1.337l1.72-.764,1.481,1.48-.764,1.719a8.839,8.839,0,0,1,1.337,3.226l1.754.675v2.094l-1.755.676a8.836,8.836,0,0,1-1.337,3.225l.764,1.72-1.48,1.481-1.719-.764a8.838,8.838,0,0,1-3.226,1.337l-.675,1.755h-2.094l-.676-1.755a8.84,8.84,0,0,1-3.225-1.337l-1.72.764-1.48-1.48.764-1.719a8.836,8.836,0,0,1-1.337-3.226l-1.755-.675V17.429l1.755-.675a8.835,8.835,0,0,1,1.337-3.225l-.764-1.72,1.48-1.481,1.72.764a8.839,8.839,0,0,1,3.225-1.337L281.068,8h2.094Zm-1.722,4.1a4.625,4.625,0,1,0,4.625,4.625A4.625,4.625,0,0,0,282.115,13.851Z" transform="translate(-271.639 -8)" fill="#eceff1" fill-rule="evenodd"/>
          <path id="Trazado_1013711" data-name="Trazado 1013711" d="M365.362,9.756a8.838,8.838,0,0,1,3.225,1.337l1.72-.764,1.481,1.48-.764,1.719a8.839,8.839,0,0,1,1.337,3.226l1.754.675v2.094l-1.755.676a8.836,8.836,0,0,1-1.337,3.225l.764,1.72-1.48,1.481-1.719-.764a8.838,8.838,0,0,1-3.226,1.337l-.675,1.755H363.64V23.1a4.625,4.625,0,0,0,0-9.25V8h1.047Z" transform="translate(-353.164 -8.001)" fill="#d1d1d6" fill-rule="evenodd"/>
        </g>
      </g>
      <path id="Trazado_1013712" data-name="Trazado 1013712" d="M31.9,11.81l1.171.45a.91.91,0,0,1,.564.675,7.829,7.829,0,0,0,1.2,2.893.913.913,0,0,1,.075.878l-.51,1.147.6.6,1.15-.51a.909.909,0,0,1,.876.076,7.888,7.888,0,0,0,2.89,1.2.907.907,0,0,1,.677.566l.451,1.172h.843l.451-1.171a.91.91,0,0,1,.671-.567,7.864,7.864,0,0,0,2.9-1.2.907.907,0,0,1,.876-.076l1.15.51.6-.6-.51-1.148a.914.914,0,0,1,.075-.878,8.015,8.015,0,0,0,1.2-2.893.9.9,0,0,1,.564-.674l1.171-.451v-.843l-1.171-.451a.908.908,0,0,1-.564-.675,7.921,7.921,0,0,0-1.2-2.893.913.913,0,0,1-.075-.878l.51-1.147-.6-.6-1.15.51a.906.906,0,0,1-.876-.076,7.913,7.913,0,0,0-2.9-1.2.909.909,0,0,1-.671-.567l-.451-1.171h-.843l-.451,1.171a.908.908,0,0,1-.677.567,7.888,7.888,0,0,0-2.89,1.2.909.909,0,0,1-.876.076L35,4.327l-.6.6.51,1.148a.913.913,0,0,1-.075.877,7.831,7.831,0,0,0-1.2,2.893.909.909,0,0,1-.564.675l-1.171.451Zm-1.821.625V10.341a.91.91,0,0,1,.58-.85l1.3-.5a9.9,9.9,0,0,1,1.09-2.626l-.564-1.274a.9.9,0,0,1,.188-1.014L34.149,2.6a.914.914,0,0,1,1.015-.189l1.273.566a9.7,9.7,0,0,1,2.627-1.089l.5-1.3A.914.914,0,0,1,40.412,0h2.095a.921.921,0,0,1,.854.584l.5,1.3a9.6,9.6,0,0,1,2.621,1.089l1.278-.566a.9.9,0,0,1,1.01.189l1.483,1.48a.9.9,0,0,1,.188,1.014l-.564,1.274a9.9,9.9,0,0,1,1.09,2.627l1.295.5a.907.907,0,0,1,.585.85v2.094a.909.909,0,0,1-.585.85l-1.3.5a9.73,9.73,0,0,1-1.085,2.626l.564,1.274a.9.9,0,0,1-.188,1.014l-1.483,1.48a.9.9,0,0,1-1.01.189L46.488,19.8a9.7,9.7,0,0,1-2.627,1.089l-.5,1.3a.922.922,0,0,1-.854.583H40.412a.914.914,0,0,1-.849-.583l-.5-1.3A9.719,9.719,0,0,1,36.437,19.8l-1.273.566a.914.914,0,0,1-1.015-.189L32.671,18.7a.9.9,0,0,1-.188-1.014l.564-1.274a9.909,9.909,0,0,1-1.09-2.627l-1.3-.5A.912.912,0,0,1,30.077,12.435Zm7.671-1.047A3.715,3.715,0,1,1,41.46,15.1,3.717,3.717,0,0,1,37.748,11.388Zm-1.821,0a5.536,5.536,0,1,1,5.533,5.536A5.541,5.541,0,0,1,35.927,11.388Zm11.4,22.575a1.66,1.66,0,1,0-1.66,1.66A1.663,1.663,0,0,0,47.326,33.963Zm5.893-9.615a1.66,1.66,0,1,0,1.66-1.66A1.66,1.66,0,0,0,53.219,24.348Zm-15.106,5.07a1.66,1.66,0,1,0-1.66,1.66A1.663,1.663,0,0,0,38.113,29.418ZM28.9,37.442a1.663,1.663,0,1,0-1.66,1.66A1.663,1.663,0,0,0,28.9,37.442Zm-2.659,3.335a12.665,12.665,0,0,1-11.657,6.655h-.032A12.688,12.688,0,0,1,3.3,41.536a10.271,10.271,0,0,1,.145-10.688,53.088,53.088,0,0,1,7.257-9.288h7.719a52.9,52.9,0,0,1,7.263,9.288,12.253,12.253,0,0,1,1.262,3.125,3.48,3.48,0,0,0-.709,6.8ZM9,18.644a1.094,1.094,0,0,0,1.1,1.094h8.939a1.093,1.093,0,1,0,0-2.187H10.1A1.094,1.094,0,0,0,9,18.644Zm.016-5.93,3.019,3.015H17.1l3.014-3.015a1.157,1.157,0,0,0,0-1.624,1.156,1.156,0,0,0-1.434-.154A1.969,1.969,0,0,1,15.691,9.7a1.149,1.149,0,0,0-2.245,0,1.972,1.972,0,0,1-2.992,1.238,1.149,1.149,0,0,0-1.434,1.778ZM48.647,32.167a3.49,3.49,0,1,1-6.4,1.126l-3.191-1.572a3.476,3.476,0,0,1-4.545.59l-4.142,3.611a3.483,3.483,0,0,1-2.138,4.857A13.2,13.2,0,0,1,23.217,46.8a15.208,15.208,0,0,1-8.385,2.454l-.263,0A14.51,14.51,0,0,1,1.735,42.465a12.19,12.19,0,0,1,.129-12.518,51.621,51.621,0,0,1,6.747-8.8,2.914,2.914,0,0,1,.908-5.364L7.735,14a2.971,2.971,0,0,1,3.706-4.6.149.149,0,0,0,.226-.093,2.968,2.968,0,0,1,5.8,0,.148.148,0,0,0,.226.093A2.971,2.971,0,0,1,21.4,14l-1.783,1.784a2.914,2.914,0,0,1,.908,5.364,51.637,51.637,0,0,1,6.747,8.8A13.676,13.676,0,0,1,28.9,34.382c.1.051.188.108.279.167l4.147-3.61a3.443,3.443,0,0,1-.355-1.52,3.484,3.484,0,0,1,6.967,0,3.445,3.445,0,0,1-.064.67l3.186,1.572a3.476,3.476,0,0,1,4.276-.754l4.561-4.762a3.483,3.483,0,1,1,2.987,1.686,3.476,3.476,0,0,1-1.671-.426ZM28.809,48.781H25.667v7.7h3.143Zm1.821-.911a.912.912,0,0,0-.913-.911H24.759a.912.912,0,0,0-.913.911v9.519a.912.912,0,0,0,.913.911h4.958a.912.912,0,0,0,.913-.911ZM56.447,33.9H53.31V56.478h3.137Zm1.821-.911a.91.91,0,0,0-.908-.91H52.4a.911.911,0,0,0-.913.91v24.4a.912.912,0,0,0,.913.911H57.36a.91.91,0,0,0,.908-.911Zm-11.034,10.8H44.092V56.478h3.143Zm1.821-.91a.91.91,0,0,0-.908-.911H43.184a.912.912,0,0,0-.913.911V57.389a.912.912,0,0,0,.913.911h4.964a.911.911,0,0,0,.908-.911ZM38.022,40.41H34.879V56.478h3.143Zm1.821-.911a.911.911,0,0,0-.908-.911H33.971a.912.912,0,0,0-.913.911v17.89a.912.912,0,0,0,.913.911h4.964a.91.91,0,0,0,.908-.911ZM20.327,37.976c-.435-3.581-4.351-4.223-5.635-4.435-3.556-.584-3.637-2.174-3.658-2.7a2.919,2.919,0,0,1,2.536-2.863,3.962,3.962,0,0,1,4.636,2.208.912.912,0,0,0,1.681-.705,5.5,5.5,0,0,0-4.448-3.371V24.791a.911.911,0,1,0-1.821,0V26.12c-.15.023-.3.051-.451.084a4.683,4.683,0,0,0-3.954,4.728c.075,1.635,1.042,3.727,5.184,4.407,2.664.437,3.938,1.319,4.12,2.857a2,2,0,0,1-.467,1.651,4.723,4.723,0,0,1-3.341,1.274c-1.622.037-3.7-.65-4.217-2.72a.911.911,0,0,0-1.767.441,5.549,5.549,0,0,0,4.894,4.041V44.2a.911.911,0,1,0,1.821,0V42.9a6.143,6.143,0,0,0,3.991-1.857,3.863,3.863,0,0,0,.9-3.063Z" fill-rule="evenodd"/>
    </g>
  </g>
</svg>
