<svg xmlns="http://www.w3.org/2000/svg" xmlns:xlink="http://www.w3.org/1999/xlink" width="505" height="424" viewBox="0 0 505 424">
  <defs>
    <clipPath id="clip-path">
      <rect id="Rectángulo_413765" data-name="Rectángulo 413765" width="505" height="424" transform="translate(915 4788)" fill="#fff" stroke="#707070" stroke-width="1" opacity="0.7"/>
    </clipPath>
  </defs>
  <g id="Enmascarar_grupo_1098752" data-name="Enmascarar grupo 1098752" transform="translate(-915 -4788)" clip-path="url(#clip-path)">
    <g id="Grupo_1169779" data-name="Grupo 1169779" transform="translate(2289.342 -126.07)">
      <g id="BACKGROUND" transform="translate(-1338.379 4945.184)">
        <path id="Trazado_1013836" data-name="Trazado 1013836" d="M436.541,141.164c-1.526-29.277-42.124-29.612-48.658-58.463C382.359,58.31,367.9,42.49,341.6,39.417,329.5,38,313.423,40.35,303.385,47.2c-15.128,10.32-24.312,28.6-43.829,31.956-18.174,3.127-33.851-8.522-48.174-17.369C173.029,38.1,74.235,32.8,78.69,98.167c1.179,17.294,20.716,33.928,12.7,51.581C82.866,168.5,55.959,172.035,45.851,189.7c-8.382,14.647-5.494,32.564,4.868,45.541C59.319,246,76.526,252.6,75.684,268.1c-.568,10.445-8.068,18.477-12.062,27.761-9.186,21.354,1.363,46.07,18.075,60.665,23.72,20.718,45.138,15.959,72.054,3.095,16.723-7.993,32.942-13.278,51.719-8.835,24.3,5.75,44.41,21.652,68.851,27.469,15.556,3.7,32.567,3.708,47.57-2.193,14.579-5.733,25.689-16.866,39.706-23.5,16.851-7.972,36.681-1.954,52.844-10.743,31.545-17.149,30.519-67.116,10.138-91.77-18.742-22.669-9.132-45.734,1.885-69.217C432.092,168.846,437.221,154.211,436.541,141.164Z" transform="translate(-20.74 -18.531)" fill="#fccc86" opacity="0.9"/>
        <g id="Grupo_1169376" data-name="Grupo 1169376" transform="translate(0 159.113)">
          <g id="Grupo_1169375" data-name="Grupo 1169375">
            <g id="Grupo_1169374" data-name="Grupo 1169374">
              <path id="Trazado_1013837" data-name="Trazado 1013837" d="M50.928,341.679c-.15.165-.73-.1-1.71-.767q-.736-.5-1.767-1.3-.961-.871-2.183-2.063a13.1,13.1,0,0,1-1.211-1.333l-1.279-1.54c-.43-.551-.809-1.186-1.238-1.821l-.642-.984c-.192-.351-.37-.721-.561-1.092a23.455,23.455,0,0,1-2.7-11.091,29.794,29.794,0,0,1,.785-6.621,48.781,48.781,0,0,1,2.174-6.7c1.766-4.471,4.143-8.871,6.319-13.457a70.172,70.172,0,0,0,2.979-7.022,30.04,30.04,0,0,0,1.743-7.32,21,21,0,0,0-.56-7.373l-.552-1.81-.771-1.77a14.144,14.144,0,0,0-.912-1.727,18.848,18.848,0,0,0-1.05-1.75c-6.454-9.693-13.838-18.521-19.352-27.637a67.581,67.581,0,0,1-6.609-13.788,40.482,40.482,0,0,1-2.2-13.371,37.136,37.136,0,0,1,1.8-10.982,40.861,40.861,0,0,1,3.331-7.566c.584-.965,1.127-1.8,1.6-2.523a19.689,19.689,0,0,1,1.333-1.734c.767-.9,1.256-1.314,1.446-1.2s.07.755-.322,1.848l-1.784,4.666a43.113,43.113,0,0,0-2.846,17.374,38.394,38.394,0,0,0,2.677,11.681,67.9,67.9,0,0,0,6.606,12.432c5.48,8.476,12.908,17.068,19.718,27.269a30.094,30.094,0,0,1,4.1,8.959,26.894,26.894,0,0,1,.635,9.687,35.209,35.209,0,0,1-2.242,8.755,70.821,70.821,0,0,1-3.437,7.539c-2.422,4.7-4.9,8.893-6.726,12.92a47.463,47.463,0,0,0-2.279,5.864,26.709,26.709,0,0,0-1.04,5.516,20.938,20.938,0,0,0,1.427,9.438q.19.51.374,1l.463.93c.312.606.569,1.216.889,1.765s.652,1.066.957,1.563a13.72,13.72,0,0,0,.908,1.409c.623.863,1.169,1.645,1.636,2.337q.777.974,1.28,1.687C50.793,340.93,51.078,341.514,50.928,341.679Z" transform="translate(-19.621 -185.321)" fill="#fcc082"/>
            </g>
          </g>
        </g>
        <g id="Grupo_1169379" data-name="Grupo 1169379" transform="translate(40.854 19.304)">
          <g id="Grupo_1169378" data-name="Grupo 1169378">
            <g id="Grupo_1169377" data-name="Grupo 1169377">
              <path id="Trazado_1013838" data-name="Trazado 1013838" d="M107.2,38.306c.149.987-5.089,2.128-12.1,6.623a61.847,61.847,0,0,0-5.51,3.939,65.716,65.716,0,0,0-5.721,5.23A59.908,59.908,0,0,0,73.579,68.345a52.186,52.186,0,0,0-3.321,8.373,43.119,43.119,0,0,0-1.574,8.193,42.462,42.462,0,0,0,1.126,14.14,78.116,78.116,0,0,0,3.222,9.364c.972,2.176,1.366,3.538,1.005,3.8s-1.453-.616-3.149-2.495a36.4,36.4,0,0,1-5.409-9.25A39.537,39.537,0,0,1,62.756,84.55a43.218,43.218,0,0,1,1.416-9.517,51.037,51.037,0,0,1,3.659-9.606A56.163,56.163,0,0,1,86.437,44.549a48.669,48.669,0,0,1,6.489-3.628A33.25,33.25,0,0,1,103.2,37.878a11.631,11.631,0,0,1,2.932-.032C106.805,37.933,107.167,38.086,107.2,38.306Z" transform="translate(-62.737 -37.769)" fill="#fcc082"/>
            </g>
          </g>
        </g>
        <g id="Grupo_1169382" data-name="Grupo 1169382" transform="translate(16.384 110.761)">
          <g id="Grupo_1169381" data-name="Grupo 1169381">
            <g id="Grupo_1169380" data-name="Grupo 1169380">
              <path id="Trazado_1013839" data-name="Trazado 1013839" d="M79.314,134.334c.351-.225,1.368.43,2.633,2.178a13.644,13.644,0,0,1,1.8,3.584,12.956,12.956,0,0,1,.548,5.586,15.541,15.541,0,0,1-2.424,6.386,27.54,27.54,0,0,1-4.857,5.565A85.052,85.052,0,0,1,64.055,166.7c-4.672,2.808-9.079,5.339-12.787,7.9a36.409,36.409,0,0,0-8.575,7.671,17.029,17.029,0,0,0-3.112,6.805c-.4,1.823-.545,2.982-1.01,3.061-.4.077-1.121-.933-1.5-3.1a14.791,14.791,0,0,1,1.739-9.151,25.95,25.95,0,0,1,3.7-5.224,44.172,44.172,0,0,1,5.212-4.825,122.119,122.119,0,0,1,13-8.651A128.219,128.219,0,0,0,73.173,153.1c3.473-2.684,5.85-5.536,6.644-8.29a13.833,13.833,0,0,0-.145-7.241C79.217,135.719,78.917,134.584,79.314,134.334Z" transform="translate(-36.912 -134.291)" fill="#fcc082"/>
            </g>
          </g>
        </g>
        <g id="Grupo_1169385" data-name="Grupo 1169385" transform="translate(204.174 37.308)">
          <g id="Grupo_1169384" data-name="Grupo 1169384">
            <g id="Grupo_1169383" data-name="Grupo 1169383">
              <path id="Trazado_1013840" data-name="Trazado 1013840" d="M286.325,56.833c.147.105.171.36.069.763a5.371,5.371,0,0,1-.723,1.6,14.813,14.813,0,0,1-4.544,4.505,26.957,26.957,0,0,1-8.681,3.655,41.928,41.928,0,0,1-11.294,1.07,46.171,46.171,0,0,1-19.675-4.959,21.641,21.641,0,0,1-5.083-3.59c-1.055-1.048-1.448-1.828-1.236-2.1.483-.6,3.16.866,7.763,2.279a70.924,70.924,0,0,0,18.408,3.134c7.288.28,13.78-.884,18.011-2.734C283.626,58.683,285.662,56.361,286.325,56.833Z" transform="translate(-235.102 -56.771)" fill="#fcc082"/>
            </g>
          </g>
        </g>
        <g id="Grupo_1169388" data-name="Grupo 1169388" transform="translate(269.109 0)" opacity="0.82">
          <g id="Grupo_1169387" data-name="Grupo 1169387">
            <g id="Grupo_1169386" data-name="Grupo 1169386">
              <path id="Trazado_1013841" data-name="Trazado 1013841" d="M436.314,89.351c-.048.217-.665.28-1.82.2a23.21,23.21,0,0,1-4.958-.991,32.749,32.749,0,0,1-7.373-3.368,37.52,37.52,0,0,1-8.187-7.062,61.9,61.9,0,0,1-7.318-10.644c-2.266-4-4.35-8.348-6.6-12.8A97.953,97.953,0,0,0,392.354,41.5a41.5,41.5,0,0,0-11.219-10.915,42.946,42.946,0,0,0-14.579-5.78,65.331,65.331,0,0,0-14.936-1.371c-1.207.006-2.4.132-3.578.187l-1.757.1-1.726.21-3.38.416-3.255.587-1.59.286-1.545.367-3.011.7c-1.944.552-3.819,1.074-5.591,1.632a114.782,114.782,0,0,0-16.352,6.744c-1.928.872-3.336,1.708-4.392,2.139-1.039.454-1.653.61-1.784.43s.228-.688,1.043-1.5a30.269,30.269,0,0,1,3.825-3.214,73.655,73.655,0,0,1,16.094-8.883c1.809-.727,3.738-1.413,5.751-2.122l3.132-.937,1.614-.478,1.669-.4,3.431-.792c1.174-.216,2.375-.4,3.591-.606l1.84-.3,1.886-.187c1.268-.108,2.547-.282,3.855-.334a66.874,66.874,0,0,1,16.46,1.125,47.388,47.388,0,0,1,16.784,6.547A46.162,46.162,0,0,1,397.5,37.844a94.087,94.087,0,0,1,7.9,14.247c2.145,4.613,4.019,8.978,5.975,12.883a65.062,65.062,0,0,0,6.132,10.274,38.472,38.472,0,0,0,6.72,6.989,40.923,40.923,0,0,0,6.248,4c1.847.914,3.326,1.613,4.35,2.061C435.84,88.773,436.362,89.134,436.314,89.351Z" transform="translate(-303.633 -17.396)" fill="#fcc082"/>
            </g>
          </g>
        </g>
        <g id="Grupo_1169391" data-name="Grupo 1169391" transform="translate(407.071 90.881)">
          <g id="Grupo_1169390" data-name="Grupo 1169390">
            <g id="Grupo_1169389" data-name="Grupo 1169389">
              <path id="Trazado_1013842" data-name="Trazado 1013842" d="M455.325,242.2c-.417.117-1.337-1.56-2.522-4.775a63.6,63.6,0,0,1-3.252-14.229,56.534,56.534,0,0,1-.138-10.261,66.117,66.117,0,0,1,2.052-11.6,110.9,110.9,0,0,1,4.1-12.13c.795-2.065,1.67-4.087,2.526-6.154.758-2.01,1.557-4.031,2.23-6.166a110.285,110.285,0,0,0,3.393-12.556c.476-2.051.784-4.092,1.133-6.086.188-1,.27-1.993.411-2.971.112-.982.286-1.949.35-2.911a90.021,90.021,0,0,0-.168-20.424,71.722,71.722,0,0,0-3.114-13.457c-.21-.809-.51-1.473-.721-2.079s-.388-1.125-.508-1.56c-.241-.87-.28-1.392-.092-1.509s.6.177,1.216.859q.462.512,1.077,1.313a13.783,13.783,0,0,1,1.3,1.911,46.978,46.978,0,0,1,5.325,13.7,77.4,77.4,0,0,1,1.6,21.717c-.028,1.027-.169,2.053-.252,3.1-.112,1.042-.168,2.107-.333,3.165-.3,2.121-.582,4.3-1.04,6.474a100.406,100.406,0,0,1-3.465,13.341c-.713,2.249-1.588,4.451-2.437,6.619-.876,2.059-1.783,4.072-2.584,6.039-1.631,3.937-3.13,7.74-4.251,11.409a70.47,70.47,0,0,0-2.447,10.534,62.613,62.613,0,0,0-.623,9.408,129.731,129.731,0,0,0,1.143,13.918C455.662,240.17,455.765,242.076,455.325,242.2Z" transform="translate(-449.235 -113.31)" fill="#fcc082"/>
            </g>
          </g>
        </g>
        <g id="Grupo_1169394" data-name="Grupo 1169394" transform="translate(414.949 239.596)">
          <g id="Grupo_1169393" data-name="Grupo 1169393">
            <g id="Grupo_1169392" data-name="Grupo 1169392">
              <path id="Trazado_1013843" data-name="Trazado 1013843" d="M458.6,270.334c.33-.3,1.42.332,3.15,1.776.837.744,1.785,1.733,2.864,2.912a44.122,44.122,0,0,1,3.25,4.359,47.33,47.33,0,0,1,5.869,12.987,51.073,51.073,0,0,1,1.6,8.318,53.761,53.761,0,0,1,.262,9.066,58.789,58.789,0,0,1-1.108,8.947,62.465,62.465,0,0,1-2.13,8.077,63.93,63.93,0,0,1-5.826,12.789,38.458,38.458,0,0,1-5.759,7.536c-1.636,1.573-2.806,2.169-3.117,1.875-.337-.314.166-1.443,1.093-3.357s2.273-4.657,3.721-8.119a86.229,86.229,0,0,0,6.689-28.069,58.765,58.765,0,0,0-.11-8.144,56.8,56.8,0,0,0-1.075-7.487,59.506,59.506,0,0,0-4.089-12.205c-.735-1.707-1.571-3.171-2.229-4.52-.741-1.292-1.352-2.445-1.858-3.393C458.73,271.826,458.274,270.632,458.6,270.334Z" transform="translate(-457.55 -270.262)" fill="#fcc082"/>
            </g>
          </g>
        </g>
        <g id="Grupo_1169397" data-name="Grupo 1169397" transform="translate(92.887 9.37)">
          <g id="Grupo_1169396" data-name="Grupo 1169396">
            <g id="Grupo_1169395" data-name="Grupo 1169395">
              <path id="Trazado_1013844" data-name="Trazado 1013844" d="M214.309,46.284c-.189.4-1.644.235-4.1-.407-1.226-.32-2.7-.76-4.395-1.306l-2.7-.9-3.063-.87a230.2,230.2,0,0,0-33.675-7.764,159.384,159.384,0,0,0-18.819-1.783,121.592,121.592,0,0,0-15.391.463c-8.765.825-14.205,2.112-14.51,1.195-.278-.756,4.743-3.633,13.794-5.7a81.556,81.556,0,0,1,16.124-1.9,114.758,114.758,0,0,1,19.749,1.346c13.806,2.221,26.091,5.91,34.335,9.876,1.046.459,2.046.887,2.974,1.326l2.562,1.379c1.591.875,2.943,1.66,4.028,2.34C213.4,44.943,214.5,45.881,214.309,46.284Z" transform="translate(-117.651 -27.285)" fill="#fcc082"/>
            </g>
          </g>
        </g>
      </g>
      <g id="OBJECTS" transform="translate(-1317.057 5018.556)">
        <g id="Grupo_1169418" data-name="Grupo 1169418" transform="translate(209.42 2.228)">
          <g id="Grupo_1169416" data-name="Grupo 1169416" transform="translate(1.497)">
            <path id="Trazado_1013845" data-name="Trazado 1013845" d="M314.316,155.413l-49.148-.227c-.388-13.284-1.364-54.824,1.867-55.961,8.054-2.843,44.373-3.155,46.9,1.9C315.9,105.033,315.471,140.347,314.316,155.413Z" transform="translate(-264.722 -97.182)" fill="#52d88c"/>
            <path id="Trazado_1013846" data-name="Trazado 1013846" d="M309.305,155.709l-38.289-.18c-.494-19.87-.322-37.124.161-46.069a5.588,5.588,0,0,0,3.2-.512,4.92,4.92,0,0,0,2.681-5.382c3.526-.332,7.618-.388,12.612-.388a118.471,118.471,0,0,1,14.309.749,4.977,4.977,0,0,0,5.627,5.543C310.12,120.082,310.016,142.443,309.305,155.709Z" transform="translate(-265.037 -97.497)" fill="#81efad"/>
            <path id="Trazado_1013847" data-name="Trazado 1013847" d="M306.386,157.325l-28.7-.133c-.512-6.851.114-21.063,13.711-22.854C291.4,134.338,307.978,133.532,306.386,157.325Z" transform="translate(-265.397 -99.132)" fill="#52d88c"/>
            <g id="Grupo_1169400" data-name="Grupo 1169400" transform="translate(5.497 11.755)">
              <g id="Grupo_1169399" data-name="Grupo 1169399">
                <g id="Grupo_1169398" data-name="Grupo 1169398">
                  <path id="Trazado_1013848" data-name="Trazado 1013848" d="M271.129,109.588c.167,0,.318,2.615.427,6.838s.177,10.057.177,16.5-.067,12.269-.177,16.491-.261,6.835-.427,6.835-.318-2.613-.427-6.836-.177-10.057-.177-16.5.067-12.282.177-16.5S270.962,109.585,271.129,109.588Z" transform="translate(-270.524 -109.588)" fill="#3fb16d"/>
                </g>
              </g>
            </g>
            <g id="Grupo_1169403" data-name="Grupo 1169403" transform="translate(43.929 11.991)">
              <g id="Grupo_1169402" data-name="Grupo 1169402">
                <g id="Grupo_1169401" data-name="Grupo 1169401">
                  <path id="Trazado_1013849" data-name="Trazado 1013849" d="M311.75,109.838c.167,0,.311,2.589.41,6.769s.152,9.955.135,16.334-.1,12.144-.218,16.324-.279,6.765-.445,6.765-.311-2.586-.41-6.767-.152-9.955-.135-16.33.1-12.157.22-16.336S311.583,109.835,311.75,109.838Z" transform="translate(-311.084 -109.838)" fill="#3fb16d"/>
                </g>
              </g>
            </g>
            <g id="Grupo_1169406" data-name="Grupo 1169406" transform="translate(14.427 38.898)">
              <g id="Grupo_1169405" data-name="Grupo 1169405">
                <g id="Grupo_1169404" data-name="Grupo 1169404">
                  <path id="Trazado_1013850" data-name="Trazado 1013850" d="M303.128,157.283a13.38,13.38,0,0,1,.225-1.905,17.477,17.477,0,0,0-.39-5.108,16.969,16.969,0,0,0-3.066-6.818,10.065,10.065,0,0,0-3.268-2.784,9.025,9.025,0,0,0-4.433-1.01,11.862,11.862,0,0,0-4.5,1,9.141,9.141,0,0,0-3.253,2.751,18.612,18.612,0,0,0-3.115,6.828c-1.056,4.256-.7,7.033-.936,7.049-.145.049-.885-2.771-.045-7.266a20.746,20.746,0,0,1,1.007-3.587,15.625,15.625,0,0,1,2.044-3.815,10.213,10.213,0,0,1,3.681-3.208c.389-.189.807-.329,1.216-.494s.827-.227,1.246-.345c.421-.1.858-.155,1.291-.234.441-.041.887-.087,1.336-.1a10.212,10.212,0,0,1,5.116,1.2,11.111,11.111,0,0,1,3.653,3.216,16.93,16.93,0,0,1,3.015,7.43,14.734,14.734,0,0,1-.05,5.378C303.613,156.716,303.2,157.321,303.128,157.283Z" transform="translate(-279.948 -138.235)" fill="#3fb16d"/>
                </g>
              </g>
            </g>
            <g id="Grupo_1169409" data-name="Grupo 1169409" transform="translate(11.905 5.304)">
              <g id="Grupo_1169408" data-name="Grupo 1169408">
                <g id="Grupo_1169407" data-name="Grupo 1169407">
                  <path id="Trazado_1013851" data-name="Trazado 1013851" d="M304.331,103.861c-.027.333-6.084.39-13.53.127-7.443.014-13.5-.225-13.515-.561s6.047-.634,13.533-.647C298.314,103.044,304.359,103.529,304.331,103.861Z" transform="translate(-277.287 -102.78)" fill="#3fb16d"/>
                </g>
              </g>
            </g>
            <g id="Grupo_1169412" data-name="Grupo 1169412" transform="translate(6.1 5.951)">
              <g id="Grupo_1169411" data-name="Grupo 1169411">
                <g id="Grupo_1169410" data-name="Grupo 1169410">
                  <path id="Trazado_1013852" data-name="Trazado 1013852" d="M277.2,103.463c.089,0,.224.551.1,1.452a5.859,5.859,0,0,1-1.559,3.165,5.4,5.4,0,0,1-3.132,1.645c-.926.106-1.474-.13-1.451-.222.019-.125.553-.106,1.337-.336a6.232,6.232,0,0,0,2.663-1.644,7.049,7.049,0,0,0,1.585-2.735C277,103.994,277.071,103.457,277.2,103.463Z" transform="translate(-271.16 -103.463)" fill="#3fb16d"/>
                </g>
              </g>
            </g>
            <g id="Grupo_1169415" data-name="Grupo 1169415" transform="translate(38.734 6.385)">
              <g id="Grupo_1169414" data-name="Grupo 1169414">
                <g id="Grupo_1169413" data-name="Grupo 1169413">
                  <path id="Trazado_1013853" data-name="Trazado 1013853" d="M305.737,103.921c.111,0,.271.485.431,1.244.1.375.309.788.465,1.264a6.437,6.437,0,0,0,.912,1.316A4.677,4.677,0,0,0,310,109.212a4.912,4.912,0,0,0,.9.171c.22.041.352.09.36.145s-.11.112-.34.168a2.548,2.548,0,0,1-1,.08,4.325,4.325,0,0,1-2.96-1.487,5.635,5.635,0,0,1-1-1.563,9.561,9.561,0,0,1-.344-1.451C305.582,104.428,305.627,103.923,305.737,103.921Z" transform="translate(-305.602 -103.921)" fill="#3fb16d"/>
                </g>
              </g>
            </g>
          </g>
          <g id="Grupo_1169417" data-name="Grupo 1169417" transform="translate(0 4.64)">
            <path id="Trazado_1013854" data-name="Trazado 1013854" d="M267.044,104.906s2.295-.221,2.537.421-1.628,1.683-1.628,1.683.389,3.061-.176,3.4c-.621.375-2.372-2.531-2.372-2.531s-1.948.473-2.2.14c-.416-.548,1.384-2.282,1.384-2.282s-.736-3.006-.02-3.62C265.081,101.683,267.044,104.906,267.044,104.906Z" transform="translate(-263.142 -102.08)" fill="#f3ffff"/>
            <path id="Trazado_1013855" data-name="Trazado 1013855" d="M317.193,142.009s-1.233-.154-1.372.188.85.931.85.931-.257,1.642.043,1.836c.33.211,1.317-1.327,1.317-1.327s1.041.284,1.183.11c.232-.289-.711-1.251-.711-1.251s.444-1.608.066-1.95C318.3,140.3,317.193,142.009,317.193,142.009Z" transform="translate(-265.906 -104.097)" fill="#f3ffff"/>
          </g>
        </g>
        <g id="Grupo_1169501" data-name="Grupo 1169501" transform="translate(57.47 59.519)">
          <g id="Grupo_1169428" data-name="Grupo 1169428">
            <g id="Grupo_1169427" data-name="Grupo 1169427">
              <g id="Grupo_1169426" data-name="Grupo 1169426">
                <g id="Grupo_1169419" data-name="Grupo 1169419" transform="translate(2.262 1.053)">
                  <path id="Trazado_1013856" data-name="Trazado 1013856" d="M105.78,191.438l-.616,108.246c-.16,27.545,19.62,32.887,31.514,32.941l219.348,1.014c11.9.056,21.615-9.9,21.681-22.2l.734-129.267c.071-12.3-9.536-22.344-21.432-22.4L137.66,158.758C125.771,158.709,105.939,163.867,105.78,191.438Z" transform="translate(-105.163 -158.758)" fill="#656e72"/>
                  <path id="Trazado_1013857" data-name="Trazado 1013857" d="M148.2,177.854c3.993-3.047,10.715-2.362,10.715-2.362l190.324,1.687s6.258.07,9.139,2.575c3.385,2.938,4.522,7.5,4.862,10.437,3.4,29.942.587,85.43-1.408,109.99-.294,3.586-.262,10.4-3.181,14.054-3.83,4.8-10.807,4.162-10.807,4.162l-190.7-.533s-6.068.894-10.19-2.586a13.821,13.821,0,0,1-5.069-9.68c-3-30.992-5.6-85.33-1.124-116.644C141.163,186.109,144.163,180.934,148.2,177.854Z" transform="translate(-106.905 -159.632)" fill="#f9e6c0"/>
                  <path id="Trazado_1013858" data-name="Trazado 1013858" d="M121.733,230.431a2.574,2.574,0,0,1,2.52,2.635l-.19,33.226a2.581,2.581,0,0,1-2.548,2.616h0a2.577,2.577,0,0,1-2.522-2.634l.19-33.23a2.575,2.575,0,0,1,2.55-2.613Z" transform="translate(-105.889 -162.519)" fill="#4f5354"/>
                </g>
                <g id="Grupo_1169422" data-name="Grupo 1169422" transform="translate(0.796 30.03)">
                  <g id="Grupo_1169421" data-name="Grupo 1169421">
                    <g id="Grupo_1169420" data-name="Grupo 1169420">
                      <path id="Trazado_1013859" data-name="Trazado 1013859" d="M378.125,213.2a4.764,4.764,0,0,1,.15,1.334c.052.883.1,2.2.158,3.917.088,3.443.217,8.522.383,15.062.146,6.541.325,14.545.533,23.836.179,9.3.394,19.881.263,31.6-.092,5.861-.233,12.011-.8,18.424a83.448,83.448,0,0,1-1.4,9.8,32.5,32.5,0,0,1-3.577,9.83,18.973,18.973,0,0,1-5.636,6.082,20.543,20.543,0,0,1-2.473,1.378,23.873,23.873,0,0,1-2.626,1.056c-.9.242-1.805.551-2.728.711a40.621,40.621,0,0,1-5.572.768c-.931.055-1.876.1-2.807.135l-2.78.041-5.619.081-11.465.164-23.779.33c-4.054.077-8.147.073-12.279.063l-12.515-.012c-16.841-.037-34.275.02-52.143-.217l-26.434-.269c-4.346-.062-8.66-.054-12.939-.174l-12.732-.359-24.779-.71-12.014-.349c-3.961-.137-7.859-.139-11.8-.554a35.54,35.54,0,0,1-11.488-2.848,20.353,20.353,0,0,1-8.578-7.97,36.625,36.625,0,0,1-3.937-10.435,85.863,85.863,0,0,1-1.753-10.481c-.769-6.9-1.04-13.565-1.205-19.964s-.138-12.539-.116-18.4c.239-23.421.943-42.346,1.379-55.43.236-6.541.441-11.62.611-15.063.085-1.722.162-3.034.23-3.916a4.773,4.773,0,0,1,.175-1.332,4.771,4.771,0,0,1,.114,1.339c.027.884.044,2.2.05,3.923.013,3.447-.015,8.531-.082,15.075-.1,13.088-.5,32.03-.482,55.41.042,5.842.075,11.964.3,18.33s.547,12.981,1.353,19.752a84.244,84.244,0,0,0,1.774,10.186,34.337,34.337,0,0,0,3.722,9.732,17.818,17.818,0,0,0,7.547,6.949,33.155,33.155,0,0,0,10.652,2.555c3.753.381,7.7.371,11.648.493l12,.305,24.749.639,12.716.334c4.274.113,8.586.1,12.928.156l26.413.254c17.849.238,35.289.2,52.126.275l12.514.044c4.132.021,8.225.038,12.27-.026l23.746-.233,11.449-.107,5.612-.052,2.776-.025c.914-.023,1.808-.065,2.7-.113a38.151,38.151,0,0,0,5.234-.687c.86-.14,1.667-.42,2.495-.631a21.378,21.378,0,0,0,2.342-.926,18.047,18.047,0,0,0,2.171-1.187,16.158,16.158,0,0,0,1.911-1.519,16.412,16.412,0,0,0,3.046-3.77A30.348,30.348,0,0,0,375.2,316.7a81.843,81.843,0,0,0,1.445-9.518c.614-6.307.818-12.422.972-18.255.257-11.674.181-22.256.153-31.549s-.039-17.3-.054-23.844c.019-6.544.064-11.625.146-15.07.038-1.723.079-3.036.122-3.919A4.758,4.758,0,0,1,378.125,213.2Z" transform="translate(-103.617 -189.339)" fill="#4f5354"/>
                    </g>
                  </g>
                </g>
                <g id="Grupo_1169425" data-name="Grupo 1169425">
                  <g id="Grupo_1169424" data-name="Grupo 1169424">
                    <g id="Grupo_1169423" data-name="Grupo 1169423">
                      <path id="Trazado_1013860" data-name="Trazado 1013860" d="M377.913,275.308a4.625,4.625,0,0,1-.127-1.317c-.036-.871-.065-2.164-.09-3.861-.047-3.393-.069-8.4-.069-14.84,0-3.221,0-6.8,0-10.723q-.034-5.88-.075-12.754c-.046-4.575.007-9.471-.111-14.654q-.146-7.777-.311-16.42c-.079-2.874-.285-5.8-.425-8.8-.181-2.991-.226-6.084-.653-9.141a41.989,41.989,0,0,0-2.17-9.083,18.642,18.642,0,0,0-5.2-7.7,19.806,19.806,0,0,0-8.825-3.884,60.4,60.4,0,0,0-10.422-.825c-7.2-.189-14.614-.5-22.226-.456l-11.553-.054-11.833.088-24.414.18c-16.586.231-33.768-.047-51.364-.142l-51.3-.366-24.39-.174-11.824-.083a80.455,80.455,0,0,0-11.332.77,28.067,28.067,0,0,0-10.175,3.342,19.317,19.317,0,0,0-7.046,7.379,39.853,39.853,0,0,0-3.594,9.656q-.294,1.255-.588,2.5-.232,1.264-.461,2.517c-.34,1.663-.507,3.353-.76,5.01-.847,6.662-1.189,13.181-1.433,19.445s-.322,12.3-.369,18.05c-.1,23.026.22,41.684.252,54.577.034,6.447.034,11.453,0,14.849-.016,1.7-.04,2.992-.072,3.863a4.663,4.663,0,0,1-.121,1.318,4.68,4.68,0,0,1-.167-1.313c-.063-.869-.133-2.162-.208-3.857-.151-3.392-.328-8.4-.531-14.839-.37-12.889-1-31.53-1.148-54.6-.018-5.768,0-11.814.188-18.12s.477-12.871,1.287-19.66c.244-1.694.4-3.41.74-5.127q.226-1.289.455-2.59.294-1.293.592-2.6a42.165,42.165,0,0,1,3.771-10.29,21.834,21.834,0,0,1,7.9-8.348,30.539,30.539,0,0,1,11.082-3.732,82.5,82.5,0,0,1,11.714-.852l11.837.04,24.409.1,51.3.309c17.585.1,34.749.393,51.334.2l24.418-.111,11.842-.044,11.584.1c7.629-.008,15.068.342,22.3.576,1.816.081,3.579.082,5.4.23.91.078,1.815.112,2.717.263.9.135,1.8.224,2.689.446a22.137,22.137,0,0,1,9.847,4.456,20.888,20.888,0,0,1,5.81,8.691,43.922,43.922,0,0,1,2.215,9.608c.412,3.185.425,6.266.579,9.3.111,3.025.288,5.988.334,8.875q.058,8.651.111,16.457c.048,5.2-.076,10.09-.105,14.67-.057,4.578-.109,8.839-.157,12.761-.092,3.921-.176,7.5-.251,10.725-.169,6.443-.323,11.445-.46,14.836-.067,1.7-.132,2.988-.19,3.856A4.552,4.552,0,0,1,377.913,275.308Z" transform="translate(-102.776 -157.646)" fill="#4f5354"/>
                    </g>
                  </g>
                </g>
              </g>
            </g>
          </g>
          <g id="Grupo_1169471" data-name="Grupo 1169471" transform="translate(54.707 32.557)">
            <g id="Grupo_1169453" data-name="Grupo 1169453" transform="translate(12.556)">
              <g id="Grupo_1169431" data-name="Grupo 1169431" transform="translate(0 1.263)">
                <g id="Grupo_1169430" data-name="Grupo 1169430">
                  <g id="Grupo_1169429" data-name="Grupo 1169429">
                    <path id="Trazado_1013861" data-name="Trazado 1013861" d="M175.562,310.833c-.167.007-.362-1.632-.571-4.6s-.434-7.27-.66-12.588c-.1-2.66-.217-5.573-.338-8.7s-.1-6.471-.147-9.989c-.054-7.036-.1-14.774-.076-22.9.316-16.224.588-30.92,1.284-41.543.3-5.313.575-9.612.824-12.578s.464-4.6.631-4.6.268,1.659.309,4.636.021,7.282-.056,12.6c-.259,10.626-.259,25.308-.575,41.509-.04,8.112-.079,15.837-.115,22.864-.014,3.512-.112,6.853-.077,9.976.015,3.124.029,6.033.043,8.69.007,5.313-.029,9.616-.109,12.592S175.729,310.826,175.562,310.833Z" transform="translate(-173.764 -193.339)" fill="#f7e4be"/>
                  </g>
                </g>
              </g>
              <g id="Grupo_1169434" data-name="Grupo 1169434" transform="translate(23.699 1.263)">
                <g id="Grupo_1169433" data-name="Grupo 1169433">
                  <g id="Grupo_1169432" data-name="Grupo 1169432">
                    <path id="Trazado_1013862" data-name="Trazado 1013862" d="M200.574,310.833c-.167.007-.362-1.632-.571-4.6s-.434-7.27-.66-12.588c-.1-2.66-.217-5.573-.338-8.7s-.1-6.471-.147-9.989c-.054-7.036-.1-14.774-.076-22.9.316-16.224.588-30.92,1.284-41.543.295-5.313.575-9.612.824-12.578s.464-4.6.631-4.6.268,1.659.309,4.636.021,7.282-.056,12.6c-.259,10.626-.259,25.308-.575,41.509-.04,8.112-.079,15.837-.115,22.864-.014,3.512-.112,6.853-.077,9.976.015,3.124.029,6.033.043,8.69.007,5.313-.029,9.616-.109,12.592S200.741,310.826,200.574,310.833Z" transform="translate(-198.776 -193.339)" fill="#f7e4be"/>
                  </g>
                </g>
              </g>
              <g id="Grupo_1169437" data-name="Grupo 1169437" transform="translate(48.347 1.263)">
                <g id="Grupo_1169436" data-name="Grupo 1169436">
                  <g id="Grupo_1169435" data-name="Grupo 1169435">
                    <path id="Trazado_1013863" data-name="Trazado 1013863" d="M226.587,310.833c-.167.007-.362-1.632-.571-4.6s-.434-7.27-.66-12.588c-.1-2.66-.217-5.573-.338-8.7s-.1-6.471-.147-9.989c-.054-7.036-.1-14.774-.076-22.9.316-16.224.588-30.92,1.284-41.543.295-5.313.575-9.612.824-12.578s.464-4.6.631-4.6.268,1.659.309,4.636.021,7.282-.056,12.6c-.259,10.626-.259,25.308-.575,41.509-.04,8.112-.079,15.837-.115,22.864-.014,3.512-.112,6.853-.077,9.976.015,3.124.029,6.033.043,8.69.007,5.313-.029,9.616-.109,12.592S226.754,310.826,226.587,310.833Z" transform="translate(-224.789 -193.339)" fill="#f7e4be"/>
                  </g>
                </g>
              </g>
              <g id="Grupo_1169440" data-name="Grupo 1169440" transform="translate(72.049 1.263)">
                <g id="Grupo_1169439" data-name="Grupo 1169439">
                  <g id="Grupo_1169438" data-name="Grupo 1169438">
                    <path id="Trazado_1013864" data-name="Trazado 1013864" d="M251.6,310.833c-.167.007-.362-1.632-.572-4.6s-.434-7.27-.66-12.588c-.1-2.66-.217-5.573-.337-8.7s-.1-6.471-.147-9.989c-.054-7.036-.1-14.774-.075-22.9.316-16.224.587-30.92,1.284-41.543.3-5.313.576-9.612.824-12.578s.464-4.6.632-4.6.267,1.659.308,4.636.021,7.282-.056,12.6c-.258,10.626-.259,25.308-.575,41.509-.041,8.112-.08,15.837-.115,22.864-.014,3.512-.111,6.853-.076,9.976.015,3.124.029,6.033.043,8.69.008,5.313-.028,9.616-.108,12.592S251.768,310.826,251.6,310.833Z" transform="translate(-249.804 -193.339)" fill="#f7e4be"/>
                  </g>
                </g>
              </g>
              <g id="Grupo_1169443" data-name="Grupo 1169443" transform="translate(96.017)">
                <g id="Grupo_1169442" data-name="Grupo 1169442">
                  <g id="Grupo_1169441" data-name="Grupo 1169441">
                    <path id="Trazado_1013865" data-name="Trazado 1013865" d="M276.9,309.5c-.167.008-.362-1.631-.57-4.6s-.435-7.269-.66-12.588c-.1-2.66-.216-5.572-.338-8.7s-.1-6.472-.146-9.99c-.054-7.036-.1-14.774-.076-22.9.316-16.224.588-30.919,1.284-41.543.3-5.313.575-9.611.824-12.578s.464-4.6.631-4.6.267,1.658.308,4.636.022,7.282-.056,12.6c-.258,10.626-.259,25.307-.575,41.509-.04,8.112-.079,15.838-.114,22.865-.014,3.512-.112,6.853-.077,9.975.016,3.124.029,6.033.044,8.691.007,5.313-.028,9.615-.108,12.592S277.062,309.493,276.9,309.5Z" transform="translate(-275.099 -192.006)" fill="#f7e4be"/>
                  </g>
                </g>
              </g>
              <g id="Grupo_1169446" data-name="Grupo 1169446" transform="translate(119.717)">
                <g id="Grupo_1169445" data-name="Grupo 1169445">
                  <g id="Grupo_1169444" data-name="Grupo 1169444">
                    <path id="Trazado_1013866" data-name="Trazado 1013866" d="M301.909,309.5c-.167.007-.362-1.632-.57-4.6s-.435-7.27-.66-12.588c-.1-2.66-.218-5.573-.338-8.7s-.1-6.471-.147-9.989c-.054-7.036-.1-14.774-.075-22.9.316-16.224.588-30.919,1.284-41.543.3-5.313.575-9.611.824-12.578s.464-4.6.631-4.6.268,1.658.309,4.636.021,7.282-.057,12.6c-.258,10.626-.259,25.308-.575,41.509-.041,8.112-.08,15.838-.115,22.864-.014,3.513-.111,6.853-.076,9.976.016,3.124.029,6.033.043,8.69.008,5.313-.028,9.616-.107,12.592S302.075,309.492,301.909,309.5Z" transform="translate(-300.112 -192.006)" fill="#f7e4be"/>
                  </g>
                </g>
              </g>
              <g id="Grupo_1169449" data-name="Grupo 1169449" transform="translate(144.365)">
                <g id="Grupo_1169448" data-name="Grupo 1169448">
                  <g id="Grupo_1169447" data-name="Grupo 1169447">
                    <path id="Trazado_1013867" data-name="Trazado 1013867" d="M327.921,309.5c-.167.008-.361-1.631-.571-4.6s-.434-7.269-.659-12.588c-.1-2.66-.217-5.572-.338-8.7s-.1-6.472-.146-9.99c-.055-7.036-.1-14.774-.076-22.9.316-16.224.588-30.919,1.284-41.543.295-5.313.575-9.611.823-12.578s.464-4.6.631-4.6.268,1.658.309,4.636.02,7.282-.056,12.6c-.259,10.626-.259,25.307-.575,41.509-.041,8.112-.08,15.838-.115,22.865-.014,3.512-.111,6.853-.076,9.975.015,3.124.029,6.033.043,8.691.008,5.313-.028,9.615-.108,12.592S328.086,309.493,327.921,309.5Z" transform="translate(-326.124 -192.006)" fill="#f7e4be"/>
                  </g>
                </g>
              </g>
              <g id="Grupo_1169452" data-name="Grupo 1169452" transform="translate(168.064)">
                <g id="Grupo_1169451" data-name="Grupo 1169451">
                  <g id="Grupo_1169450" data-name="Grupo 1169450">
                    <path id="Trazado_1013868" data-name="Trazado 1013868" d="M352.934,309.5c-.167.008-.362-1.631-.571-4.6s-.435-7.269-.66-12.588c-.1-2.66-.218-5.572-.339-8.7s-.1-6.472-.147-9.99c-.054-7.036-.1-14.774-.075-22.9.316-16.224.588-30.919,1.285-41.543.295-5.313.575-9.611.824-12.578s.464-4.6.631-4.6.268,1.658.308,4.636.021,7.282-.056,12.6c-.259,10.626-.26,25.307-.576,41.509-.041,8.112-.079,15.838-.114,22.865-.015,3.512-.112,6.853-.077,9.975.016,3.124.029,6.033.043,8.691.008,5.313-.028,9.615-.107,12.592S353.1,309.493,352.934,309.5Z" transform="translate(-351.136 -192.006)" fill="#f7e4be"/>
                  </g>
                </g>
              </g>
            </g>
            <g id="Grupo_1169460" data-name="Grupo 1169460" transform="translate(0 19.809)">
              <g id="Grupo_1169456" data-name="Grupo 1169456">
                <g id="Grupo_1169455" data-name="Grupo 1169455">
                  <g id="Grupo_1169454" data-name="Grupo 1169454">
                    <path id="Trazado_1013869" data-name="Trazado 1013869" d="M358.687,214.263c0,.167-2.767.324-7.778.465s-12.267.267-21.234.37c-17.933.2-42.716.334-70.1.3-27.341-.117-52.106-.359-70.036-.655-8.965-.148-16.223-.309-21.238-.475s-7.791-.336-7.791-.5,2.772-.314,7.789-.437,12.272-.222,21.239-.294c17.933-.141,42.7-.171,70.051-.053,27.367.031,52.135.172,70.066.406,8.965.116,16.222.25,21.237.4S358.684,214.1,358.687,214.263Z" transform="translate(-160.513 -212.912)" fill="#f7e4be"/>
                  </g>
                </g>
              </g>
              <g id="Grupo_1169459" data-name="Grupo 1169459" transform="translate(0 22.751)">
                <g id="Grupo_1169458" data-name="Grupo 1169458">
                  <g id="Grupo_1169457" data-name="Grupo 1169457">
                    <path id="Trazado_1013870" data-name="Trazado 1013870" d="M358.687,238.275c0,.167-2.767.324-7.778.465s-12.267.267-21.234.37c-17.933.2-42.716.334-70.1.3-27.341-.117-52.106-.359-70.036-.655-8.965-.148-16.223-.309-21.238-.476s-7.791-.336-7.791-.5,2.772-.314,7.789-.437,12.272-.222,21.239-.294c17.933-.141,42.7-.171,70.051-.053,27.367.031,52.135.172,70.066.406,8.965.116,16.222.25,21.237.4S358.684,238.108,358.687,238.275Z" transform="translate(-160.513 -236.923)" fill="#f7e4be"/>
                  </g>
                </g>
              </g>
            </g>
            <g id="Grupo_1169470" data-name="Grupo 1169470" transform="translate(0 64.366)">
              <g id="Grupo_1169463" data-name="Grupo 1169463">
                <g id="Grupo_1169462" data-name="Grupo 1169462">
                  <g id="Grupo_1169461" data-name="Grupo 1169461">
                    <path id="Trazado_1013871" data-name="Trazado 1013871" d="M358.687,261.289c0,.167-2.767.324-7.778.465s-12.267.267-21.234.371c-17.933.2-42.716.333-70.1.3-27.341-.117-52.106-.36-70.036-.656-8.965-.147-16.223-.309-21.238-.475s-7.791-.337-7.791-.5,2.772-.314,7.789-.437,12.272-.223,21.239-.295c17.933-.141,42.7-.171,70.051-.053,27.367.03,52.135.172,70.066.406,8.965.116,16.222.25,21.237.4S358.684,261.123,358.687,261.289Z" transform="translate(-160.513 -259.937)" fill="#f7e4be"/>
                  </g>
                </g>
              </g>
              <g id="Grupo_1169466" data-name="Grupo 1169466" transform="translate(0 22.763)">
                <g id="Grupo_1169465" data-name="Grupo 1169465">
                  <g id="Grupo_1169464" data-name="Grupo 1169464">
                    <path id="Trazado_1013872" data-name="Trazado 1013872" d="M358.687,285.313c0,.168-2.767.324-7.778.465s-12.267.267-21.234.371c-17.933.2-42.716.334-70.1.3-27.341-.117-52.106-.36-70.036-.656-8.965-.147-16.223-.309-21.238-.475s-7.791-.338-7.791-.5,2.772-.314,7.789-.437,12.272-.223,21.239-.295c17.933-.141,42.7-.171,70.051-.053,27.367.03,52.135.172,70.066.406,8.965.116,16.222.25,21.237.4S358.684,285.145,358.687,285.313Z" transform="translate(-160.513 -283.961)" fill="#f7e4be"/>
                  </g>
                </g>
              </g>
              <g id="Grupo_1169469" data-name="Grupo 1169469" transform="translate(0 44.578)">
                <g id="Grupo_1169468" data-name="Grupo 1169468">
                  <g id="Grupo_1169467" data-name="Grupo 1169467">
                    <path id="Trazado_1013873" data-name="Trazado 1013873" d="M358.687,308.335c0,.167-2.767.324-7.778.465s-12.267.266-21.234.371c-17.933.2-42.716.334-70.1.3-27.341-.117-52.106-.359-70.036-.655-8.965-.148-16.223-.309-21.238-.476s-7.791-.336-7.791-.5,2.772-.314,7.789-.437,12.272-.222,21.239-.294c17.933-.141,42.7-.171,70.051-.054,27.367.031,52.135.173,70.066.406,8.965.115,16.222.25,21.237.4S358.684,308.168,358.687,308.335Z" transform="translate(-160.513 -306.984)" fill="#f7e4be"/>
                  </g>
                </g>
              </g>
            </g>
          </g>
          <g id="Grupo_1169500" data-name="Grupo 1169500" transform="translate(38.74 30.503)">
            <path id="Trazado_1013874" data-name="Trazado 1013874" d="M143.662,262.955l7.58,6.317,20.846-30.953,34.743,18.319,32.216-41.691,39.8,32.847L313.506,205l7.106,4.975.711-20.135-19.74,6.79,5.685,4.422-28.426,36.638-40.428-34.111-33.637,42.165-34.585-17.529Z" transform="translate(-143.662 -189.838)" fill="#fb475a"/>
            <g id="Grupo_1169496" data-name="Grupo 1169496" transform="translate(51.522 31.63)">
              <g id="Grupo_1169495" data-name="Grupo 1169495">
                <g id="Grupo_1169472" data-name="Grupo 1169472" transform="translate(0 66.697)">
                  <path id="Trazado_1013875" data-name="Trazado 1013875" d="M200.98,293.808c.5.439.311,1.473-.43,2.311s-1.742,1.154-2.237.707-.3-1.482.429-2.311S200.477,293.37,200.98,293.808Z" transform="translate(-198.038 -293.611)" fill="#fdfdfd"/>
                </g>
                <g id="Grupo_1169473" data-name="Grupo 1169473" transform="translate(5.306 60.628)">
                  <path id="Trazado_1013876" data-name="Trazado 1013876" d="M206.572,287.4c.5.442.315,1.477-.417,2.313s-1.732,1.159-2.235.72-.316-1.474.417-2.312S206.072,286.962,206.572,287.4Z" transform="translate(-203.638 -287.206)" fill="#fdfdfd"/>
                </g>
                <g id="Grupo_1169474" data-name="Grupo 1169474" transform="translate(10.646 54.626)">
                  <path id="Trazado_1013877" data-name="Trazado 1013877" d="M212.26,281.083c.488.455.28,1.486-.466,2.3s-1.753,1.118-2.249.673-.289-1.477.465-2.3S211.772,280.627,212.26,281.083Z" transform="translate(-209.274 -280.871)" fill="#fdfdfd"/>
                </g>
                <g id="Grupo_1169475" data-name="Grupo 1169475" transform="translate(16.177 48.851)">
                  <path id="Trazado_1013878" data-name="Trazado 1013878" d="M218.235,275.032c.45.493.18,1.512-.6,2.275s-1.807,1-2.284.538-.208-1.484.6-2.274S217.785,274.539,218.235,275.032Z" transform="translate(-215.11 -274.776)" fill="#fdfdfd"/>
                </g>
                <g id="Grupo_1169476" data-name="Grupo 1169476" transform="translate(22.278 44.993)">
                  <path id="Trazado_1013879" data-name="Trazado 1013879" d="M225.446,272.723c-.345.591-1.365.551-2.1.406a3.377,3.377,0,0,1-.874-.335,2.184,2.184,0,0,1-.8-.55c-.191-.252-.169-.685.251-1.067a2.205,2.205,0,0,1,1.933-.413C225.3,271.113,225.774,272.188,225.446,272.723Z" transform="translate(-221.549 -270.705)" fill="#fdfdfd"/>
                </g>
                <g id="Grupo_1169477" data-name="Grupo 1169477" transform="translate(29.162 49.19)">
                  <path id="Trazado_1013880" data-name="Trazado 1013880" d="M231.931,278.192c-.477.467-1.5.234-2.286-.522s-1.062-1.774-.62-2.273,1.467-.266,2.286.522S232.408,277.725,231.931,278.192Z" transform="translate(-228.815 -275.134)" fill="#fdfdfd"/>
                </g>
                <g id="Grupo_1169478" data-name="Grupo 1169478" transform="translate(34.86 54.891)">
                  <path id="Trazado_1013881" data-name="Trazado 1013881" d="M238.013,284.136c-.393.533-1.472.337-2.343-.457-.812-.8-1.083-1.825-.605-2.29s1.494-.226,2.268.535C238.107,282.628,238.412,283.594,238.013,284.136Z" transform="translate(-234.828 -281.151)" fill="#fdfdfd"/>
                </g>
                <g id="Grupo_1169479" data-name="Grupo 1169479" transform="translate(41.101 54.26)">
                  <path id="Trazado_1013882" data-name="Trazado 1013882" d="M244.487,280.717c.479.464.226,1.484-.567,2.277s-1.811,1.046-2.274.567-.21-1.5.567-2.276S244.007,280.253,244.487,280.717Z" transform="translate(-241.414 -280.485)" fill="#fdfdfd"/>
                </g>
                <g id="Grupo_1169480" data-name="Grupo 1169480" transform="translate(46.693 48.42)">
                  <path id="Trazado_1013883" data-name="Trazado 1013883" d="M250.313,274.532c.493.451.278,1.48-.482,2.3s-1.768,1.112-2.254.654-.27-1.487.482-2.3S249.82,274.082,250.313,274.532Z" transform="translate(-247.317 -274.321)" fill="#fdfdfd"/>
                </g>
                <g id="Grupo_1169481" data-name="Grupo 1169481" transform="translate(52.125 42.444)">
                  <path id="Trazado_1013884" data-name="Trazado 1013884" d="M256.011,268.217c.5.444.3,1.477-.445,2.308s-1.748,1.14-2.244.693-.3-1.481.444-2.307S255.513,267.773,256.011,268.217Z" transform="translate(-253.049 -268.015)" fill="#fdfdfd"/>
                </g>
                <g id="Grupo_1169482" data-name="Grupo 1169482" transform="translate(57.496 36.431)">
                  <path id="Trazado_1013885" data-name="Trazado 1013885" d="M261.682,261.874c.494.448.295,1.482-.446,2.307s-1.745,1.137-2.244.694-.3-1.478.445-2.308S261.186,261.426,261.682,261.874Z" transform="translate(-258.718 -261.669)" fill="#fdfdfd"/>
                </g>
                <g id="Grupo_1169483" data-name="Grupo 1169483" transform="translate(62.939 30.571)">
                  <path id="Trazado_1013886" data-name="Trazado 1013886" d="M267.6,255.777c.4.549.117,1.49-.635,2.225-.758.775-1.769,1.036-2.257.58s-.238-1.487.56-2.3C266.114,255.458,267.219,255.242,267.6,255.777Z" transform="translate(-264.462 -255.484)" fill="#fdfdfd"/>
                </g>
                <g id="Grupo_1169484" data-name="Grupo 1169484" transform="translate(69.958 29.946)">
                  <path id="Trazado_1013887" data-name="Trazado 1013887" d="M275.558,257.145c-.385.559-1.37.539-2.255.133-.885-.387-1.544-1.071-1.417-1.743.117-.64,1.241-.969,2.4-.464C275.426,255.6,275.93,256.608,275.558,257.145Z" transform="translate(-271.87 -254.824)" fill="#fdfdfd"/>
                </g>
                <g id="Grupo_1169485" data-name="Grupo 1169485" transform="translate(76.559 34.541)">
                  <path id="Trazado_1013888" data-name="Trazado 1013888" d="M282,262.679c-.44.5-1.462.291-2.284-.474s-1.118-1.779-.663-2.267,1.478-.277,2.284.474S282.436,262.175,282,262.679Z" transform="translate(-278.836 -259.674)" fill="#fdfdfd"/>
                </g>
                <g id="Grupo_1169486" data-name="Grupo 1169486" transform="translate(82.862 39.428)">
                  <path id="Trazado_1013889" data-name="Trazado 1013889" d="M289.346,266.722c-.095.643-1.184,1.024-2.361.6-1.164-.448-1.739-1.425-1.4-1.986.35-.581,1.329-.629,2.244-.279S289.451,266.047,289.346,266.722Z" transform="translate(-285.489 -264.832)" fill="#fdfdfd"/>
                </g>
                <g id="Grupo_1169487" data-name="Grupo 1169487" transform="translate(90.437 37.936)">
                  <path id="Trazado_1013890" data-name="Trazado 1013890" d="M296.911,263.6c.408.528-.012,1.5-.942,2.177-.974.649-2.061.677-2.381.1s.129-1.5,1.006-2.084C295.463,263.159,296.5,263.076,296.911,263.6Z" transform="translate(-293.483 -263.257)" fill="#fdfdfd"/>
                </g>
                <g id="Grupo_1169488" data-name="Grupo 1169488" transform="translate(96.81 32.832)">
                  <path id="Trazado_1013891" data-name="Trazado 1013891" d="M303.438,258.15c.445.5.12,1.5-.728,2.234s-1.883.92-2.312.409-.1-1.513.727-2.234S302.992,257.654,303.438,258.15Z" transform="translate(-300.209 -257.871)" fill="#fdfdfd"/>
                </g>
                <g id="Grupo_1169489" data-name="Grupo 1169489" transform="translate(102.797 27.381)">
                  <path id="Trazado_1013892" data-name="Trazado 1013892" d="M309.675,252.371c.461.481.176,1.493-.637,2.262s-1.841.993-2.295.5-.169-1.5.636-2.262S309.211,251.889,309.675,252.371Z" transform="translate(-306.528 -252.117)" fill="#fdfdfd"/>
                </g>
                <g id="Grupo_1169490" data-name="Grupo 1169490" transform="translate(108.606 21.757)">
                  <path id="Trazado_1013893" data-name="Trazado 1013893" d="M315.75,246.421c.473.471.214,1.49-.579,2.276s-1.814,1.035-2.281.558-.208-1.5.579-2.275S315.277,245.949,315.75,246.421Z" transform="translate(-312.658 -246.182)" fill="#fdfdfd"/>
                </g>
                <g id="Grupo_1169491" data-name="Grupo 1169491" transform="translate(114.29 16.014)">
                  <path id="Trazado_1013894" data-name="Trazado 1013894" d="M321.709,240.346c.481.462.241,1.487-.537,2.287s-1.794,1.07-2.27.6-.235-1.491.537-2.286S321.228,239.885,321.709,240.346Z" transform="translate(-318.657 -240.121)" fill="#fdfdfd"/>
                </g>
                <g id="Grupo_1169492" data-name="Grupo 1169492" transform="translate(119.868 10.171)">
                  <path id="Trazado_1013895" data-name="Trazado 1013895" d="M327.556,234.169c.49.454.267,1.481-.5,2.3s-1.776,1.1-2.26.643-.262-1.488.5-2.3S327.066,233.715,327.556,234.169Z" transform="translate(-324.544 -233.954)" fill="#fdfdfd"/>
                </g>
                <g id="Grupo_1169493" data-name="Grupo 1169493" transform="translate(125.334 4.211)">
                  <path id="Trazado_1013896" data-name="Trazado 1013896" d="M333.271,227.863c.5.44.3,1.473-.443,2.309s-1.752,1.147-2.245.7-.3-1.483.442-2.308S332.769,227.423,333.271,227.863Z" transform="translate(-330.312 -227.664)" fill="#fdfdfd"/>
                </g>
                <g id="Grupo_1169494" data-name="Grupo 1169494" transform="translate(130.283)">
                  <path id="Trazado_1013897" data-name="Trazado 1013897" d="M336.918,223.647c.522.416.773.964.563,1.222s-.8.123-1.312-.3-.766-.974-.563-1.222S336.4,223.231,336.918,223.647Z" transform="translate(-335.536 -223.22)" fill="#fdfdfd"/>
                </g>
              </g>
            </g>
            <g id="Grupo_1169499" data-name="Grupo 1169499" transform="translate(171.963 25.79)">
              <g id="Grupo_1169498" data-name="Grupo 1169498">
                <g id="Grupo_1169497" data-name="Grupo 1169497">
                  <path id="Trazado_1013898" data-name="Trazado 1013898" d="M340.8,233.431c-.144-.083-.074-.6.161-1.423.193-.849.488-2.057.751-3.577.138-.755.231-1.6.363-2.488.06-.9.208-1.855.206-2.859a24.715,24.715,0,0,0-.062-3.1c-.117-.734-.08-.479-.093-.517l-.017.007-.8,0A22.831,22.831,0,0,0,335,220.633a46.4,46.4,0,0,0-5.032,1.954c-2.832,1.293-4.622,2.142-4.81,1.842-.167-.263,1.285-1.62,4.005-3.35a29.329,29.329,0,0,1,5.1-2.549,21.1,21.1,0,0,1,6.963-1.473l2.76.017a1.952,1.952,0,0,1,.213.007l.03.218.061.435.12.863q.08.6.157,1.181a21.849,21.849,0,0,1-.075,3.452,28.269,28.269,0,0,1-.45,3.037c-.226.932-.426,1.8-.682,2.573a16.659,16.659,0,0,1-1.546,3.539C341.291,233.151,340.939,233.514,340.8,233.431Z" transform="translate(-325.148 -217.056)" fill="#fdfdfd"/>
                </g>
              </g>
            </g>
          </g>
        </g>
        <g id="Grupo_1169535" data-name="Grupo 1169535" transform="translate(296.436 166.325)">
          <g id="Grupo_1169534" data-name="Grupo 1169534">
            <path id="Trazado_1013899" data-name="Trazado 1013899" d="M455.358,467a139.232,139.232,0,0,1-20.72-3.291c-8.957-1.671-17.957-6.15-27.1-6.082-5.664.441-16.482,7.63-18.771,1.484-.431-1.176-1.159-3.509-1.965-6.294,0-.012-.008-.021-.008-.03-.985-4.132-2.167-8.432-3.372-12.789,0-.01,0-.022-.009-.022-2.325-8.333-4.785-16.88-6.416-24.812-1.382-6.735-6.151-23.584-4.2-27.059a19.4,19.4,0,0,1,6.286-6.2c11.089-7.455,31.936-12.287,44.133-13.015,3.733-.22,6.647-.063,8.236.519,6.286,2.311,11.827,18.547,14.138,25.234,6.651,19.242,17.684,54,21.495,64.5l.01.01C467.342,465.21,462,467.72,455.358,467Z" transform="translate(-355.888 -275.532)" fill="#656e72"/>
            <path id="Trazado_1013900" data-name="Trazado 1013900" d="M422.305,334.139a107.137,107.137,0,0,0-4.489-32.9c-2.162-6.932-7.917-16.6-17.449-25.035-4.107-3.633-7.178-6.319-8.054-5.211,0,0,2.276,29.212.518,39.62-2.133,12.621-8.894,9.715-9.08,9.568-2.079-1.64-6.452-30.006-14.646-31.261-15.161-2.32-15.187,15.4-10.284,25.973,4.778,10.3,3.357,20.049,7.3,28.485a74.519,74.519,0,0,0,7.564,12.132c.729.977,8.105,6.846,9.5,6.144,9.178-4.624,25.227-9.663,33.8-10.134C420.182,345.822,422.133,341.2,422.305,334.139Z" transform="translate(-355.027 -270.386)" fill="#ffd1bd"/>
            <g id="Grupo_1169503" data-name="Grupo 1169503" transform="translate(22.658 114.751)">
              <g id="Grupo_1169502" data-name="Grupo 1169502" opacity="0.3">
                <path id="Trazado_1013901" data-name="Trazado 1013901" d="M383.857,391.494a6.106,6.106,0,0,0-1.377.275c-5,1.547-4.68,7.755.341,9.2C390.1,403.052,391.354,390.9,383.857,391.494Z" transform="translate(-378.89 -391.473)" fill="#97b1d1"/>
              </g>
              <path id="Trazado_1013902" data-name="Trazado 1013902" d="M383.3,396.657a1.215,1.215,0,0,1-.028.21c-.484,2.068-2.6,1.112-2.5-.367C380.869,394.865,383.37,395.3,383.3,396.657Z" transform="translate(-378.989 -391.681)" fill="#97b1d1" opacity="0.3"/>
              <path id="Trazado_1013903" data-name="Trazado 1013903" d="M387.857,395.472a1.977,1.977,0,0,1-.03.215c-.486,2.072-2.6,1.115-2.5-.361C385.426,393.684,387.928,394.113,387.857,395.472Z" transform="translate(-379.228 -391.619)" fill="#97b1d1" opacity="0.3"/>
            </g>
            <g id="Grupo_1169505" data-name="Grupo 1169505" transform="translate(26.194 129.845)">
              <g id="Grupo_1169504" data-name="Grupo 1169504" opacity="0.3">
                <path id="Trazado_1013904" data-name="Trazado 1013904" d="M387.588,407.424a6.216,6.216,0,0,0-1.378.277c-4.993,1.547-4.679,7.755.343,9.194C393.829,418.983,395.085,406.83,387.588,407.424Z" transform="translate(-382.622 -407.403)" fill="#97b1d1"/>
              </g>
              <path id="Trazado_1013905" data-name="Trazado 1013905" d="M387.034,412.585a1.92,1.92,0,0,1-.028.212c-.486,2.068-2.6,1.112-2.5-.367C384.6,410.8,387.1,411.223,387.034,412.585Z" transform="translate(-382.721 -407.611)" fill="#97b1d1" opacity="0.3"/>
              <path id="Trazado_1013906" data-name="Trazado 1013906" d="M391.588,411.4c0,.063-.016.138-.028.212-.487,2.071-2.6,1.117-2.507-.36C389.157,409.614,391.659,410.043,391.588,411.4Z" transform="translate(-382.959 -407.549)" fill="#97b1d1" opacity="0.3"/>
            </g>
            <g id="Grupo_1169507" data-name="Grupo 1169507" transform="translate(31.653 145.532)">
              <g id="Grupo_1169506" data-name="Grupo 1169506" opacity="0.3">
                <path id="Trazado_1013907" data-name="Trazado 1013907" d="M393.352,423.98a6.012,6.012,0,0,0-1.378.277c-5,1.545-4.682,7.753.342,9.194C399.591,435.541,400.847,423.386,393.352,423.98Z" transform="translate(-388.384 -423.959)" fill="#97b1d1"/>
              </g>
              <path id="Trazado_1013908" data-name="Trazado 1013908" d="M392.794,429.143a1.357,1.357,0,0,1-.027.209c-.485,2.07-2.6,1.112-2.5-.365C390.364,427.351,392.866,427.778,392.794,429.143Z" transform="translate(-388.482 -424.167)" fill="#97b1d1" opacity="0.3"/>
              <path id="Trazado_1013909" data-name="Trazado 1013909" d="M397.35,427.96a2.12,2.12,0,0,1-.027.213c-.485,2.071-2.6,1.115-2.506-.361C394.92,426.172,397.422,426.6,397.35,427.96Z" transform="translate(-388.721 -424.105)" fill="#97b1d1" opacity="0.3"/>
            </g>
            <path id="Trazado_1013910" data-name="Trazado 1013910" d="M428.289,366.734c-13.8.824-37.377,6.29-49.921,14.723-1.325-3.945-1.754-8.26-.836-10.366.616-1.4,3.153-3.151,6.758-4.968,9.178-4.624,25.227-9.663,33.8-10.134a10.294,10.294,0,0,1,4.724.51C424.886,357.51,427.642,362.91,428.289,366.734Z" transform="translate(-356.135 -274.858)" fill="#fce9c5"/>
            <g id="Grupo_1169510" data-name="Grupo 1169510" transform="translate(0 17.414)">
              <g id="Grupo_1169509" data-name="Grupo 1169509">
                <g id="Grupo_1169508" data-name="Grupo 1169508">
                  <path id="Trazado_1013911" data-name="Trazado 1013911" d="M386.084,325.97c-.029.04-.439-.236-.942-.983a18.629,18.629,0,0,1-1.68-3.481c-1.23-3.109-2.57-7.734-4.5-13.314a72.572,72.572,0,0,0-3.663-8.867,28.025,28.025,0,0,0-2.759-4.46,11.7,11.7,0,0,0-3.993-3.462,9,9,0,0,0-5.3-.725,6.8,6.8,0,0,0-4.28,3.272,15.7,15.7,0,0,0-1.887,5.794,24,24,0,0,0-.019,6.433,22.082,22.082,0,0,0,.665,3.162c.157.517.275,1.039.461,1.548s.375,1.016.562,1.52c.769,2.024,1.693,3.974,2.471,6.019a29.745,29.745,0,0,1,1.022,3.125,28.828,28.828,0,0,1,.428,3.218c.153,2.018.406,3.986.741,5.891a58.1,58.1,0,0,0,6.85,19.265,31.6,31.6,0,0,0,8.993,10.344,15.613,15.613,0,0,0,4.611,2.027c0,.032-.118.052-.346.06a4.3,4.3,0,0,1-1.012-.075,11,11,0,0,1-3.638-1.391c-2.949-1.687-6.575-5.157-9.743-10.279a57.078,57.078,0,0,1-7.417-19.645,60.036,60.036,0,0,1-.824-6.046,27.1,27.1,0,0,0-.41-2.941,28.542,28.542,0,0,0-.97-2.891c-1.534-3.853-3.684-7.95-4.307-12.672a25.545,25.545,0,0,1,.032-6.934,17.4,17.4,0,0,1,2.167-6.49,8.609,8.609,0,0,1,5.474-4.065c.14-.033.281-.074.422-.1l.426-.027.851-.049a11.354,11.354,0,0,1,1.652.145,10.552,10.552,0,0,1,1.562.383,8.252,8.252,0,0,1,1.512.568,13.289,13.289,0,0,1,4.553,4.017,29.081,29.081,0,0,1,2.841,4.768,69.181,69.181,0,0,1,3.53,9.142c1.785,5.689,2.925,10.35,3.929,13.492a26.787,26.787,0,0,0,1.319,3.536C385.845,325.569,386.138,325.913,386.084,325.97Z" transform="translate(-354.977 -288.746)" fill="#f7b5a3"/>
                </g>
              </g>
            </g>
            <g id="Grupo_1169513" data-name="Grupo 1169513" transform="translate(15.651 92.382)">
              <g id="Grupo_1169512" data-name="Grupo 1169512">
                <g id="Grupo_1169511" data-name="Grupo 1169511">
                  <path id="Trazado_1013912" data-name="Trazado 1013912" d="M467.32,459.816a11.49,11.49,0,0,1-.911-2.153c-.541-1.433-1.313-3.555-2.288-6.3-1.948-5.483-4.732-13.442-8.1-23.29-3.337-9.852-7.312-21.586-11.727-34.615-1.135-3.238-2.351-6.53-3.761-9.812a52.686,52.686,0,0,0-5.1-9.537,12.127,12.127,0,0,0-3.728-3.652,12.582,12.582,0,0,0-5.225-.822,74.659,74.659,0,0,0-11.559,1.037,125.691,125.691,0,0,0-22.27,5.6,73.517,73.517,0,0,0-9.958,4.365,37.769,37.769,0,0,0-4.411,2.79,18.983,18.983,0,0,0-3.664,3.4l-.388.468-.328.5a5.324,5.324,0,0,0-.549.925,7.441,7.441,0,0,0-.251,2.228,35.235,35.235,0,0,0,.459,4.816c.488,3.185,1.155,6.27,1.815,9.248,1.347,5.966,2.6,11.522,3.748,16.6,2.4,10.1,4.726,18.207,6.11,23.864.666,2.838,1.169,5.044,1.49,6.544a11.6,11.6,0,0,1,.4,2.307,11.655,11.655,0,0,1-.749-2.224c-.434-1.472-1.044-3.646-1.812-6.45-1.587-5.6-4.091-13.637-6.663-23.749-1.212-5.063-2.539-10.608-3.964-16.56-.7-2.987-1.4-6.084-1.923-9.337a36.224,36.224,0,0,1-.517-5.043,8.834,8.834,0,0,1,.324-2.778,6.207,6.207,0,0,1,.718-1.284l.373-.575.428-.526a20.6,20.6,0,0,1,3.94-3.711,39.541,39.541,0,0,1,4.595-2.941,74.532,74.532,0,0,1,10.184-4.516,125.2,125.2,0,0,1,22.585-5.722,75.6,75.6,0,0,1,11.85-1.048,27.6,27.6,0,0,1,2.986.175,8.8,8.8,0,0,1,3.047.865,13.713,13.713,0,0,1,4.319,4.188,53.815,53.815,0,0,1,5.248,9.886c1.417,3.345,2.626,6.681,3.746,9.942,4.335,13.068,8.158,24.859,11.373,34.76s5.813,17.9,7.559,23.449c.875,2.775,1.541,4.936,1.974,6.407A11.694,11.694,0,0,1,467.32,459.816Z" transform="translate(-371.495 -367.865)" fill="#4f5354"/>
                </g>
              </g>
            </g>
            <g id="Grupo_1169516" data-name="Grupo 1169516" transform="translate(37.856)">
              <g id="Grupo_1169515" data-name="Grupo 1169515">
                <g id="Grupo_1169514" data-name="Grupo 1169514">
                  <path id="Trazado_1013913" data-name="Trazado 1013913" d="M418.808,351.436c-.117-.109.775-1.051,1.729-3.148a31.661,31.661,0,0,0,2.575-9.333,32.369,32.369,0,0,0,.174-6.664c-.239-2.437-.495-5.042-.765-7.784-.568-5.482-1.223-11.506-2.373-17.724-.265-1.559-.649-3.065-.957-4.57-.37-1.483-.78-2.941-1.179-4.352a27.565,27.565,0,0,0-3.995-7.318,93.368,93.368,0,0,0-9.654-10.843c-2.944-2.942-5.457-5.175-7.193-6.741a24.748,24.748,0,0,1-1.956-1.884,1.65,1.65,0,0,1-.257-.379.3.3,0,0,1-.029-.145c0-.055.065-.161.106-.16a.3.3,0,0,1,.191-.017c.174.039.239.1.236.123s-.1.044-.238.069c-.023.007-.084.021-.064.027-.018-.028-.045-.047-.028-.039s-.023-.01.03,0c.063-.008.02-.008.052.013a2.254,2.254,0,0,0,.265.239c.468.369,1.216.89,2.153,1.589a93.6,93.6,0,0,1,7.645,6.344,82.742,82.742,0,0,1,10.129,10.777,28.368,28.368,0,0,1,4.353,7.779c.433,1.473.858,2.956,1.245,4.482.322,1.532.716,3.078.985,4.66,1.168,6.325,1.774,12.4,2.25,17.909.226,2.765.442,5.357.6,7.841a31.921,31.921,0,0,1-.413,6.961,28.082,28.082,0,0,1-3.243,9.481C419.984,350.7,418.866,351.515,418.808,351.436Z" transform="translate(-394.93 -270.367)" fill="#f7b5a3"/>
                </g>
              </g>
            </g>
            <g id="Grupo_1169519" data-name="Grupo 1169519" transform="translate(48.834 22.806)">
              <g id="Grupo_1169518" data-name="Grupo 1169518">
                <g id="Grupo_1169517" data-name="Grupo 1169517">
                  <path id="Trazado_1013914" data-name="Trazado 1013914" d="M412.67,295.095c-.026.3-1.514.264-3.19.358a6.842,6.842,0,0,0-2.021.448c-.473.215-.794.409-.913.31-.1-.069.044-.464.53-.911a4.17,4.17,0,0,1,2.32-.851C411.3,294.349,412.7,294.848,412.67,295.095Z" transform="translate(-406.516 -294.436)" fill="#f7b5a3"/>
                </g>
              </g>
            </g>
            <g id="Grupo_1169530" data-name="Grupo 1169530" transform="translate(5.461 23.107)">
              <g id="Grupo_1169523" data-name="Grupo 1169523">
                <path id="Trazado_1013915" data-name="Trazado 1013915" d="M372.9,305.626c.443-1.4-.594-4.04-1.285-5.495-1.3-2.728-2.855-5.986-7-5.281-2.976.5-3.936,3.336-3.875,5.9.051,2.2.681,6.506,2.051,7.423,2.071,1.39,6.5.408,8.544-.879A3.214,3.214,0,0,0,372.9,305.626Z" transform="translate(-360.74 -294.753)" fill="#ffe7dc"/>
                <path id="Trazado_1013916" data-name="Trazado 1013916" d="M368.123,305.106c-1.986.286-5.356,1.35-5.157,3.63,2.093,1.342,6.463.371,8.489-.906a3.214,3.214,0,0,0,1.562-1.667,2.447,2.447,0,0,0,.093-.521A9.741,9.741,0,0,0,368.123,305.106Z" transform="translate(-360.857 -295.291)" fill="#ffe7dc" opacity="0.4"/>
                <g id="Grupo_1169522" data-name="Grupo 1169522" transform="translate(1.018 10.127)">
                  <g id="Grupo_1169521" data-name="Grupo 1169521">
                    <g id="Grupo_1169520" data-name="Grupo 1169520">
                      <path id="Trazado_1013917" data-name="Trazado 1013917" d="M373.917,305.445c.1.025-.074.864-.974,1.824a9.23,9.23,0,0,1-4.352,2.408,12.02,12.02,0,0,1-2.724.372,8.6,8.6,0,0,1-2.238-.276c-1.257-.339-1.873-.91-1.81-.991.076-.129.762.2,1.94.355a10.948,10.948,0,0,0,2.079.067,14.9,14.9,0,0,0,2.521-.415,11.065,11.065,0,0,0,4.14-1.994C373.416,306.055,373.778,305.381,373.917,305.445Z" transform="translate(-361.814 -305.441)" fill="#f7b5a3"/>
                    </g>
                  </g>
                </g>
              </g>
              <g id="Grupo_1169526" data-name="Grupo 1169526" transform="translate(6.613 24.124)">
                <g id="Grupo_1169525" data-name="Grupo 1169525">
                  <g id="Grupo_1169524" data-name="Grupo 1169524">
                    <path id="Trazado_1013918" data-name="Trazado 1013918" d="M375.234,320.331c.055.239-1.5.966-3.589,1.527a10.246,10.246,0,0,1-2.772.385,2.666,2.666,0,0,1-.884-.17c-.209-.113-.291-.207-.263-.269.07-.131.431-.1,1.09-.272.652-.145,1.56-.388,2.577-.65C373.418,320.339,375.162,320.028,375.234,320.331Z" transform="translate(-367.72 -320.213)" fill="#f7b5a3"/>
                  </g>
                </g>
              </g>
              <g id="Grupo_1169529" data-name="Grupo 1169529" transform="translate(5.57 26.741)">
                <g id="Grupo_1169528" data-name="Grupo 1169528">
                  <g id="Grupo_1169527" data-name="Grupo 1169527">
                    <path id="Trazado_1013919" data-name="Trazado 1013919" d="M376.4,322.989c.1.074-.19.629-.878,1.385A7.343,7.343,0,0,1,372,326.2a8.7,8.7,0,0,1-3.936-.214c-.956-.324-1.484-.655-1.437-.773.052-.14.657-.054,1.584.077a13.091,13.091,0,0,0,3.594-.078,9.755,9.755,0,0,0,3.262-1.387C375.8,323.273,376.278,322.9,376.4,322.989Z" transform="translate(-366.619 -322.975)" fill="#f7b5a3"/>
                  </g>
                </g>
              </g>
            </g>
            <g id="Grupo_1169533" data-name="Grupo 1169533" transform="translate(28.411 0.446)">
              <g id="Grupo_1169532" data-name="Grupo 1169532">
                <g id="Grupo_1169531" data-name="Grupo 1169531">
                  <path id="Trazado_1013920" data-name="Trazado 1013920" d="M393.995,270.838c.249-.032.911,3.032,1.555,8.057a137.4,137.4,0,0,1,1.1,19.78A67.651,67.651,0,0,1,395.6,309.6a22.8,22.8,0,0,1-3.147,8.543,8.1,8.1,0,0,1-2.626,2.509,5.573,5.573,0,0,1-2.646.757c-1.508.012-2.244-.4-2.219-.486.024-.159.824-.014,2.14-.241a6.241,6.241,0,0,0,4.239-3.262A23.644,23.644,0,0,0,393.9,309.3a79.505,79.505,0,0,0,.876-10.668c.167-7.642-.26-14.588-.544-19.611C393.926,273.991,393.729,270.871,393.995,270.838Z" transform="translate(-384.961 -270.838)" fill="#f7b5a3"/>
                </g>
              </g>
            </g>
          </g>
        </g>
        <g id="Grupo_1169536" data-name="Grupo 1169536" transform="translate(74.731 124.694)">
          <path id="Trazado_1013921" data-name="Trazado 1013921" d="M123.733,226.431a2.574,2.574,0,0,1,2.52,2.635l-.19,33.226a2.582,2.582,0,0,1-2.548,2.616h0a2.577,2.577,0,0,1-2.522-2.634l.19-33.23a2.575,2.575,0,0,1,2.55-2.613Z" transform="translate(-120.993 -226.431)" fill="#4f5354"/>
        </g>
        <g id="Grupo_1169582" data-name="Grupo 1169582" transform="translate(0 140.495)">
          <path id="Trazado_1013922" data-name="Trazado 1013922" d="M54.144,468.539a139.188,139.188,0,0,0,20.724-3.264c8.959-1.659,17.966-6.127,27.108-6.046,5.664.448,16.472,7.651,18.768,1.508.435-1.174,1.164-3.507,1.975-6.291,0-.013.008-.021.007-.03.991-4.132,2.178-8.43,3.388-12.785,0-.009,0-.022.009-.022,2.336-8.329,4.807-16.874,6.448-24.8,1.392-6.734,6.182-23.576,4.231-27.055a19.405,19.405,0,0,0-6.278-6.212c-11.078-7.469-31.92-12.328-44.116-13.072-3.733-.225-6.647-.072-8.238.508-6.289,2.3-11.85,18.533-14.17,25.217-6.674,19.232-17.753,53.98-21.577,64.471l-.009.01C42.162,466.728,47.5,469.247,54.144,468.539Z" transform="translate(-42.138 -249.785)" fill="#656e72"/>
          <g id="Grupo_1169538" data-name="Grupo 1169538" transform="translate(78.888 142.123)">
            <g id="Grupo_1169537" data-name="Grupo 1169537" opacity="0.3">
              <path id="Trazado_1013923" data-name="Trazado 1013923" d="M130.443,393.123a6.247,6.247,0,0,1,1.377.278c4.994,1.555,4.67,7.761-.353,9.2C124.186,404.674,122.946,392.518,130.443,393.123Z" transform="translate(-125.381 -393.101)" fill="#97b1d1"/>
            </g>
            <path id="Trazado_1013924" data-name="Trazado 1013924" d="M131.408,398.286a1.14,1.14,0,0,0,.028.212c.481,2.068,2.6,1.115,2.5-.364C133.84,396.5,131.34,396.926,131.408,398.286Z" transform="translate(-125.697 -393.31)" fill="#97b1d1" opacity="0.3"/>
            <path id="Trazado_1013925" data-name="Trazado 1013925" d="M126.851,397.1c.006.067.017.14.03.216.483,2.072,2.6,1.119,2.505-.358C129.285,395.313,126.783,395.738,126.851,397.1Z" transform="translate(-125.458 -393.247)" fill="#97b1d1" opacity="0.3"/>
          </g>
          <g id="Grupo_1169540" data-name="Grupo 1169540" transform="translate(75.334 157.214)">
            <g id="Grupo_1169539" data-name="Grupo 1169539" transform="translate(0)" opacity="0.3">
              <path id="Trazado_1013926" data-name="Trazado 1013926" d="M126.691,409.05a6.119,6.119,0,0,1,1.378.279c4.991,1.553,4.668,7.76-.355,9.194C120.435,420.6,119.195,408.446,126.691,409.05Z" transform="translate(-121.629 -409.028)" fill="#97b1d1"/>
            </g>
            <path id="Trazado_1013927" data-name="Trazado 1013927" d="M127.654,414.211a1.851,1.851,0,0,0,.028.212c.483,2.069,2.6,1.117,2.5-.364C130.087,412.425,127.588,412.85,127.654,414.211Z" transform="translate(-121.945 -409.237)" fill="#97b1d1" opacity="0.3"/>
            <path id="Trazado_1013928" data-name="Trazado 1013928" d="M123.1,413.025c0,.064.016.138.028.213.484,2.071,2.6,1.12,2.508-.357C125.533,411.237,123.033,411.664,123.1,413.025Z" transform="translate(-121.706 -409.174)" fill="#97b1d1" opacity="0.3"/>
          </g>
          <g id="Grupo_1169542" data-name="Grupo 1169542" transform="translate(69.854 172.895)">
            <g id="Grupo_1169541" data-name="Grupo 1169541" opacity="0.3">
              <path id="Trazado_1013929" data-name="Trazado 1013929" d="M120.907,425.6a5.977,5.977,0,0,1,1.378.279c4.994,1.551,4.672,7.756-.353,9.193C114.651,437.149,113.412,425,120.907,425.6Z" transform="translate(-115.846 -425.577)" fill="#97b1d1"/>
            </g>
            <path id="Trazado_1013930" data-name="Trazado 1013930" d="M121.872,430.762a1.259,1.259,0,0,0,.027.209c.481,2.069,2.6,1.114,2.5-.361C124.3,428.973,121.8,429.4,121.872,430.762Z" transform="translate(-116.162 -425.786)" fill="#97b1d1" opacity="0.3"/>
            <path id="Trazado_1013931" data-name="Trazado 1013931" d="M117.317,429.573a1.87,1.87,0,0,0,.027.214c.481,2.072,2.6,1.118,2.506-.358C119.75,427.789,117.248,428.214,117.317,429.573Z" transform="translate(-115.923 -425.723)" fill="#97b1d1" opacity="0.3"/>
          </g>
          <path id="Trazado_1013932" data-name="Trazado 1013932" d="M133.66,383.1c-12.535-8.45-36.1-13.947-49.905-14.792.572-3.358,2.779-7.931,4.707-9.678a3.817,3.817,0,0,1,.785-.552,10.309,10.309,0,0,1,4.727-.5c8.574.478,24.615,5.548,33.785,10.18a24.559,24.559,0,0,1,5.827,3.749,3.953,3.953,0,0,1,.923,1.227C135.43,374.835,134.993,379.142,133.66,383.1Z" transform="translate(-44.308 -249.111)" fill="#fce9c5"/>
          <g id="Grupo_1169545" data-name="Grupo 1169545" transform="translate(0 119.702)">
            <g id="Grupo_1169544" data-name="Grupo 1169544">
              <g id="Grupo_1169543" data-name="Grupo 1169543">
                <path id="Trazado_1013933" data-name="Trazado 1013933" d="M42.133,461.336a11.644,11.644,0,0,1,.578-2.276c.434-1.471,1.1-3.631,1.981-6.405,1.754-5.551,4.361-13.549,7.589-23.439S59.348,407.532,63.7,394.47c1.124-3.26,2.338-6.594,3.76-9.937a53.712,53.712,0,0,1,5.261-9.879,13.716,13.716,0,0,1,4.324-4.183,8.818,8.818,0,0,1,3.049-.86,27.844,27.844,0,0,1,2.986-.172A75.817,75.817,0,0,1,94.926,370.5a125.279,125.279,0,0,1,22.579,5.75,74.633,74.633,0,0,1,10.178,4.528,39.255,39.255,0,0,1,4.59,2.947,20.606,20.606,0,0,1,3.936,3.715l.428.527.372.574a6.2,6.2,0,0,1,.716,1.286,8.8,8.8,0,0,1,.319,2.778,36.311,36.311,0,0,1-.523,5.043c-.531,3.253-1.236,6.348-1.936,9.335-1.433,5.949-2.767,11.493-3.985,16.554-2.586,10.109-5.1,18.145-6.694,23.741-.77,2.8-1.383,4.976-1.819,6.447a11.671,11.671,0,0,1-.752,2.223,11.48,11.48,0,0,1,.4-2.306c.323-1.5.829-3.7,1.5-6.543,1.39-5.656,3.726-13.764,6.14-23.857,1.152-5.072,2.415-10.626,3.77-16.59.664-2.977,1.336-6.061,1.828-9.246a35.213,35.213,0,0,0,.465-4.815,7.452,7.452,0,0,0-.247-2.228,5.36,5.36,0,0,0-.549-.926l-.326-.5-.388-.468a19.066,19.066,0,0,0-3.659-3.4,38.041,38.041,0,0,0-4.407-2.8,73.661,73.661,0,0,0-9.952-4.379,125.579,125.579,0,0,0-22.263-5.632,74.792,74.792,0,0,0-11.557-1.051,12.589,12.589,0,0,0-5.226.815,12.161,12.161,0,0,0-3.732,3.649,52.589,52.589,0,0,0-5.114,9.53c-1.415,3.28-2.634,6.571-3.774,9.808l-11.771,34.6c-3.382,9.844-6.177,17.8-8.132,23.279-.98,2.74-1.754,4.863-2.3,6.294A11.607,11.607,0,0,1,42.133,461.336Z" transform="translate(-42.124 -369.439)" fill="#4f5354"/>
              </g>
            </g>
          </g>
          <path id="Trazado_1013934" data-name="Trazado 1013934" d="M174.429,244.075c-9.348.567-19.2,32.679-23.963,47.806-1.048-2.4-1.8-5.038-3.625-6.856-3.259-3.3-5.535-3.4-8.611-2.97a.1.1,0,0,1-.04,0,27.353,27.353,0,0,1-3.982.575,5.089,5.089,0,0,1-3.951-1.2c-2.683-2.536-5.331-5.648-8.535-5.349a7.4,7.4,0,0,0-3.107.954,19.577,19.577,0,0,1-4.92,3.183c-8.077,3.379-9.629-6.781-17.1-1.229-10.666,7.929-15.258,31.086-14.612,50.277a54.557,54.557,0,0,0,6.384,23.4,3.817,3.817,0,0,1,.785-.552,10.309,10.309,0,0,1,4.727-.5c8.574.479,24.615,5.548,33.785,10.18a24.559,24.559,0,0,1,5.827,3.749,43.965,43.965,0,0,0,5.064-4.154c10.583-4.323,21.747-11.717,27.6-19.839,6.57-8.714,6.013-21.261-.48-26.629,1.239-3.183,2.449-6.5,3.657-9.946C172.126,296.952,195.231,242.805,174.429,244.075Z" transform="translate(-44.212 -243.157)" fill="#ffd1bd"/>
          <g id="Grupo_1169556" data-name="Grupo 1169556" transform="translate(118.398 6.025)">
            <g id="Grupo_1169549" data-name="Grupo 1169549" transform="translate(4.075)">
              <path id="Trazado_1013935" data-name="Trazado 1013935" d="M182.327,263.281c1.1-.967,1.568-3.77,1.724-5.372.289-3.008.629-6.6-3.286-8.127-2.811-1.1-5.092.839-6.357,3.066-1.087,1.911-2.76,5.929-2.057,7.422,1.063,2.257,5.366,3.692,7.78,3.638A3.21,3.21,0,0,0,182.327,263.281Z" transform="translate(-171.422 -249.466)" fill="#ffe7dc"/>
              <path id="Trazado_1013936" data-name="Trazado 1013936" d="M178.686,260.389c-1.85-.776-5.288-1.6-6.291.46,1.1,2.228,5.353,3.642,7.747,3.589a3.211,3.211,0,0,0,2.2-.628,2.313,2.313,0,0,0,.347-.4A9.719,9.719,0,0,0,178.686,260.389Z" transform="translate(-171.433 -249.995)" fill="#ffe7dc" opacity="0.4"/>
              <g id="Grupo_1169548" data-name="Grupo 1169548" transform="translate(0 10.307)">
                <g id="Grupo_1169547" data-name="Grupo 1169547">
                  <g id="Grupo_1169546" data-name="Grupo 1169546">
                    <path id="Trazado_1013937" data-name="Trazado 1013937" d="M183.491,263.711c.07.071-.508.7-1.774,1.063a9.226,9.226,0,0,1-4.97-.173,12,12,0,0,1-2.528-1.082,8.556,8.556,0,0,1-1.778-1.387c-.9-.938-1.138-1.744-1.042-1.781.132-.071.548.568,1.479,1.3a11.117,11.117,0,0,0,1.749,1.126,14.877,14.877,0,0,0,2.376.941,11.06,11.06,0,0,0,4.576.419C182.748,263.976,183.405,263.586,183.491,263.711Z" transform="translate(-171.38 -260.344)" fill="#f7b5a3"/>
                  </g>
                </g>
              </g>
            </g>
            <g id="Grupo_1169552" data-name="Grupo 1169552" transform="translate(2.568 23.682)">
              <g id="Grupo_1169551" data-name="Grupo 1169551">
                <g id="Grupo_1169550" data-name="Grupo 1169550">
                  <path id="Trazado_1013938" data-name="Trazado 1013938" d="M177.017,277.072c-.077.232-1.781.058-3.865-.534a10.271,10.271,0,0,1-2.575-1.1,2.635,2.635,0,0,1-.671-.6c-.121-.206-.143-.327-.088-.368.127-.076.424.133,1.074.328.634.21,1.539.469,2.545.767C175.454,276.145,177.111,276.775,177.017,277.072Z" transform="translate(-169.789 -274.46)" fill="#f7b5a3"/>
                </g>
              </g>
            </g>
            <g id="Grupo_1169555" data-name="Grupo 1169555" transform="translate(0 25.945)">
              <g id="Grupo_1169554" data-name="Grupo 1169554">
                <g id="Grupo_1169553" data-name="Grupo 1169553">
                  <path id="Trazado_1013939" data-name="Trazado 1013939" d="M176.627,279.98c.048.116-.486.442-1.466.737a7.365,7.365,0,0,1-3.962-.244,8.726,8.726,0,0,1-3.266-2.208c-.653-.77-.935-1.325-.835-1.4.117-.095.591.292,1.32.88a13.087,13.087,0,0,0,3.122,1.782,9.731,9.731,0,0,0,3.512.488C175.967,279.915,176.575,279.837,176.627,279.98Z" transform="translate(-167.079 -276.848)" fill="#f7b5a3"/>
                </g>
              </g>
            </g>
          </g>
          <g id="Grupo_1169559" data-name="Grupo 1169559" transform="translate(52.67 40.957)">
            <g id="Grupo_1169558" data-name="Grupo 1169558">
              <g id="Grupo_1169557" data-name="Grupo 1169557">
                <path id="Trazado_1013940" data-name="Trazado 1013940" d="M104.361,286.913c.049.121-.329.39-1.006.476a14.518,14.518,0,0,1-2.468-.038,5.429,5.429,0,0,0-2.184.245c-.522.2-.852.425-.966.32-.091-.075.053-.5.618-.942a3.988,3.988,0,0,1,2.577-.63,23.133,23.133,0,0,1,2.426.333C103.94,286.775,104.31,286.775,104.361,286.913Z" transform="translate(-97.71 -286.332)" fill="#f7b5a3"/>
              </g>
            </g>
          </g>
          <g id="Grupo_1169562" data-name="Grupo 1169562" transform="translate(72.837 39.311)">
            <g id="Grupo_1169561" data-name="Grupo 1169561" transform="translate(0)">
              <g id="Grupo_1169560" data-name="Grupo 1169560">
                <path id="Trazado_1013941" data-name="Trazado 1013941" d="M127.076,286.262c-.084.12-.546-.022-1.217-.256a11.311,11.311,0,0,0-2.754-.4c-2.194-.024-4.022.415-4.108.118-.089-.225,1.678-1.144,4.129-1.127a6.614,6.614,0,0,1,3.013.755C126.822,285.79,127.153,286.157,127.076,286.262Z" transform="translate(-118.995 -284.595)" fill="#f7b5a3"/>
              </g>
            </g>
          </g>
          <g id="Grupo_1169565" data-name="Grupo 1169565" transform="translate(91.176 43.573)">
            <g id="Grupo_1169564" data-name="Grupo 1169564">
              <g id="Grupo_1169563" data-name="Grupo 1169563">
                <path id="Trazado_1013942" data-name="Trazado 1013942" d="M144.388,292.975c-.28.154-1.126-1.288-2.754-2.239-1.621-.967-3.3-1.063-3.285-1.387,0-.137.425-.23,1.135-.256a5.729,5.729,0,0,1,2.662.775,5.359,5.359,0,0,1,1.948,1.982C144.425,292.479,144.5,292.917,144.388,292.975Z" transform="translate(-138.349 -289.093)" fill="#f7b5a3"/>
              </g>
            </g>
          </g>
          <g id="Grupo_1169581" data-name="Grupo 1169581" transform="translate(36.839)">
            <g id="Grupo_1169568" data-name="Grupo 1169568" transform="translate(0 33.96)">
              <g id="Grupo_1169567" data-name="Grupo 1169567">
                <g id="Grupo_1169566" data-name="Grupo 1169566">
                  <path id="Trazado_1013943" data-name="Trazado 1013943" d="M113.539,282.676c.031.056-.248.245-.85.563a4.927,4.927,0,0,1-2.93.1,23.161,23.161,0,0,1-4.182-1.726,10.937,10.937,0,0,0-5.344-1.34,9.927,9.927,0,0,0-5.73,3.119,19.555,19.555,0,0,0-2.478,2.917A28.316,28.316,0,0,0,89.9,289.82a62.338,62.338,0,0,0-5.465,17.628A121.116,121.116,0,0,0,82.734,326a69.676,69.676,0,0,0,1.092,15.116,56.13,56.13,0,0,0,2.894,9.816c.434,1.135.808,2,1.056,2.6s.337.93.28.961-.267-.24-.617-.786a22.972,22.972,0,0,1-1.386-2.474,45.218,45.218,0,0,1-3.524-9.833A64.772,64.772,0,0,1,81,325.982a111.2,111.2,0,0,1,1.581-18.859,60.807,60.807,0,0,1,5.787-18.116,28.719,28.719,0,0,1,2.318-3.667,20.584,20.584,0,0,1,2.745-3.08,14.46,14.46,0,0,1,3.16-2.279l.857-.423a7.309,7.309,0,0,1,.9-.3,7.463,7.463,0,0,1,1.8-.315,8.84,8.84,0,0,1,3.289.54,18.037,18.037,0,0,1,2.608,1.188,27.15,27.15,0,0,0,3.91,1.96,5.154,5.154,0,0,0,2.621.238C113.165,282.694,113.508,282.621,113.539,282.676Z" transform="translate(-81.003 -278.948)" fill="#f7b5a3"/>
                </g>
              </g>
            </g>
            <g id="Grupo_1169571" data-name="Grupo 1169571" transform="translate(68.917)">
              <g id="Grupo_1169570" data-name="Grupo 1169570">
                <g id="Grupo_1169569" data-name="Grupo 1169569">
                  <path id="Trazado_1013944" data-name="Trazado 1013944" d="M153.75,292.688a52.15,52.15,0,0,1,1.58-5.965c1.1-3.813,2.689-9.341,5.01-16.071,1.169-3.362,2.512-7.029,4.187-10.883.839-1.926,1.749-3.906,2.813-5.892a41.83,41.83,0,0,1,3.731-5.916,19.545,19.545,0,0,1,2.538-2.735,9.1,9.1,0,0,1,3.533-1.929c.353-.061.719-.135,1.067-.171l1-.019a9.974,9.974,0,0,1,2.047.268,7.154,7.154,0,0,1,3.675,2.172,9.515,9.515,0,0,1,2.007,3.728,18.726,18.726,0,0,1,.706,4.064,40.827,40.827,0,0,1-.37,8.191,108.565,108.565,0,0,1-3.478,15.54c-1.436,4.926-3.031,9.606-4.632,14.028s-3.241,8.584-4.744,12.463c-.7,1.923-1.494,3.821-2.209,5.627s-1.405,3.554-2.163,5.159c-2.89,6.5-5.394,11.672-7.128,15.246s-2.738,5.526-2.858,5.475.667-2.1,2.193-5.777c1.553-3.652,3.8-8.936,6.573-15.464.719-1.623,1.352-3.358,2.032-5.158s1.408-3.644,2.1-5.654c1.449-3.926,3.025-8.081,4.574-12.5s3.1-9.074,4.493-13.956a110.609,110.609,0,0,0,3.385-15.277,39.558,39.558,0,0,0,.369-7.811c-.186-2.5-.724-5.04-2.215-6.693a5.318,5.318,0,0,0-2.751-1.64,8.169,8.169,0,0,0-1.654-.226l-.854.01c-.264.029-.5.085-.756.118a7.421,7.421,0,0,0-2.8,1.53,17.85,17.85,0,0,0-2.32,2.46,57.012,57.012,0,0,0-6.48,11.37c-1.714,3.774-3.119,7.388-4.361,10.7-2.468,6.635-4.247,12.1-5.562,15.844C154.736,290.7,153.875,292.736,153.75,292.688Z" transform="translate(-153.736 -243.107)" fill="#f7b5a3"/>
                </g>
              </g>
            </g>
            <g id="Grupo_1169574" data-name="Grupo 1169574" transform="translate(25.662 31.975)">
              <g id="Grupo_1169573" data-name="Grupo 1169573">
                <g id="Grupo_1169572" data-name="Grupo 1169572">
                  <path id="Trazado_1013945" data-name="Trazado 1013945" d="M140.01,283.607c.036.123-.406.389-1.252.754a11.8,11.8,0,0,1-3.881,1,4.677,4.677,0,0,1-2.965-.814,5.1,5.1,0,0,1-.651-.588l-.294-.331-.232-.282c-.31-.381-.644-.758-.995-1.134a10.674,10.674,0,0,0-5.29-3.4,4.4,4.4,0,0,0-1.544-.034,6.4,6.4,0,0,0-1.509.348,13.616,13.616,0,0,0-2.757,1.52c-1.733,1.171-3.53,2.384-5.353,2.617a6.818,6.818,0,0,1-4.041-.669c-.816-.495-1.216-.819-1.154-.931s.575-.013,1.413.249a7.454,7.454,0,0,0,3.517.051c1.433-.331,2.884-1.435,4.631-2.736a14.007,14.007,0,0,1,3.084-1.815,7.987,7.987,0,0,1,1.945-.486,6.1,6.1,0,0,1,2.107.042,8.946,8.946,0,0,1,3.636,1.658,15.6,15.6,0,0,1,2.6,2.434c.365.426.706.853,1.015,1.281l.231.318.19.24a3.583,3.583,0,0,0,.4.42,3.424,3.424,0,0,0,2.027.721,18.143,18.143,0,0,0,3.668-.379C139.454,283.514,139.973,283.483,140.01,283.607Z" transform="translate(-108.085 -276.853)" fill="#f7b5a3"/>
                </g>
              </g>
            </g>
            <g id="Grupo_1169577" data-name="Grupo 1169577" transform="translate(52.296 71.612)">
              <g id="Grupo_1169576" data-name="Grupo 1169576">
                <g id="Grupo_1169575" data-name="Grupo 1169575">
                  <path id="Trazado_1013946" data-name="Trazado 1013946" d="M168.365,318.7c.038-.053.264.055.669.315q.3.195.737.5c.261.236.552.519.882.841a13.6,13.6,0,0,1,3.419,6.93,23.018,23.018,0,0,1-.859,11.425,30.724,30.724,0,0,1-7.245,11.987,56.326,56.326,0,0,1-11.04,8.446c-3.641,2.2-7.042,3.923-9.868,5.387s-5.085,2.665-6.568,3.61c-.366.243-.691.458-.972.646s-.481.384-.674.518c-.368.283-.59.416-.641.375s.076-.257.37-.641a5.938,5.938,0,0,1,.582-.679c.261-.234.562-.5.9-.809a50.56,50.56,0,0,1,6.361-4.183c2.755-1.618,6.071-3.454,9.6-5.695a60.065,60.065,0,0,0,10.6-8.281,30.43,30.43,0,0,0,6.951-11.223,22.883,22.883,0,0,0,1.194-10.656,14.237,14.237,0,0,0-2.667-6.685l-.713-.912c-.237-.236-.435-.442-.592-.613C168.479,318.961,168.327,318.751,168.365,318.7Z" transform="translate(-136.195 -318.685)" fill="#f7b5a3"/>
                </g>
              </g>
            </g>
            <g id="Grupo_1169580" data-name="Grupo 1169580" transform="translate(51.264 37.924)">
              <g id="Grupo_1169579" data-name="Grupo 1169579">
                <g id="Grupo_1169578" data-name="Grupo 1169578">
                  <path id="Trazado_1013947" data-name="Trazado 1013947" d="M157.078,298.688c-.051.1-.493.031-1.187-.358a7.179,7.179,0,0,1-2.365-2.367,30.894,30.894,0,0,1-2.128-4.281,11.885,11.885,0,0,0-2.935-4.415,8.294,8.294,0,0,0-4.514-2.369,18.918,18.918,0,0,0-4.459.04c-2.663.262-4.373.17-4.383-.091s1.576-.623,4.187-1.221a15.763,15.763,0,0,1,4.877-.443,9.421,9.421,0,0,1,5.562,2.7,9.739,9.739,0,0,1,2.039,2.5,17.841,17.841,0,0,1,1.222,2.627c.641,1.682,1.124,3.145,1.684,4.287C155.761,297.605,157.234,298.414,157.078,298.688Z" transform="translate(-135.106 -283.131)" fill="#f7b5a3"/>
                </g>
              </g>
            </g>
          </g>
        </g>
        <g id="Grupo_1169681" data-name="Grupo 1169681" transform="translate(191.029 174.204)">
          <g id="Grupo_1169680" data-name="Grupo 1169680">
            <path id="Trazado_1013985" data-name="Trazado 1013985" d="M266.492,324.368l-19.62-10.039s10.951-34.222,45.629-35.59c0,0,25.1-2.738,45.173,30.115L318.51,319.348s-7.956-20.663-33.766-15.97C274.706,305.2,269.231,315.7,266.492,324.368Z" transform="translate(-243.897 -278.683)" fill="#f99348"/>
            <path id="Trazado_1013986" data-name="Trazado 1013986" d="M245.795,322.564l20.076,9.126s-1.826,24.639,29.659,26.009v20.076s-25.457,3.562-41.522-14.146C246.674,355.548,240.319,341.273,245.795,322.564Z" transform="translate(-243.732 -280.986)" fill="#fb475a"/>
            <path id="Trazado_1013987" data-name="Trazado 1013987" d="M322.15,326.849l21.9-9.582s14.6,50.649-34.678,59.775l-1.826-20.077S326.713,346.925,322.15,326.849Z" transform="translate(-247.081 -280.708)" fill="#0eaf94"/>
            <g id="Grupo_1169677" data-name="Grupo 1169677" transform="translate(48.166 4.874)">
              <path id="Trazado_1013988" data-name="Trazado 1013988" d="M297.856,284.028c9.7-1.6,26.122,6.616,27.377,14.146.338,2.029-2.738,5.932-8.783-.913-3.512-3.974-11.521-6.844-18.708-6.844C293.521,290.416,293.454,284.754,297.856,284.028Z" transform="translate(-294.565 -283.827)" fill="#fff" opacity="0.3"/>
              <path id="Trazado_1013989" data-name="Trazado 1013989" d="M328.355,304.712c-3.278,1.359-3.152,4.7,0,6.172,3.621,1.694,6.75-2.258,3.8-5.324A3.323,3.323,0,0,0,328.355,304.712Z" transform="translate(-296.212 -284.909)" fill="#fff" opacity="0.3"/>
            </g>
            <g id="Grupo_1169678" data-name="Grupo 1169678" transform="translate(77.873 45.316)">
              <path id="Trazado_1013990" data-name="Trazado 1013990" d="M342.182,328.636c3.15,7.7-.528,22.81-6.5,25.268-1.61.661-5.412-1.139-.906-7.422,2.618-3.65,3.473-10.8,2.116-16.733C336.091,326.265,340.75,325.139,342.182,328.636Z" transform="translate(-326.27 -326.509)" fill="#fff" opacity="0.3"/>
              <path id="Trazado_1013991" data-name="Trazado 1013991" d="M331.1,357.712c-1.742-2.448-4.472-1.715-5.1,1.166-.713,3.308,3.139,5.144,5.112,2.128A2.812,2.812,0,0,0,331.1,357.712Z" transform="translate(-325.917 -328.068)" fill="#fff" opacity="0.3"/>
            </g>
            <g id="Grupo_1169679" data-name="Grupo 1169679" transform="translate(5.056 51.148)">
              <path id="Trazado_1013992" data-name="Trazado 1013992" d="M267.6,365.05c-8.181-2.258-18.086-14.641-16.345-21,.468-1.711,4.293-3.66,6.556,3.894,1.315,4.387,6.555,9.534,12.189,12.136C273.306,361.611,271.311,366.074,267.6,365.05Z" transform="translate(-249.172 -333.179)" fill="#fff" opacity="0.3"/>
              <path id="Trazado_1013993" data-name="Trazado 1013993" d="M251.966,338.724c3.061.121,4.17-2.541,2.232-4.839-2.226-2.641-6.108-.674-4.9,2.8A2.869,2.869,0,0,0,251.966,338.724Z" transform="translate(-249.068 -332.664)" fill="#fff" opacity="0.3"/>
            </g>
          </g>
          <path id="SVGID_x5F_00000049909642691774598600000012457961437133617829_x5F_" d="M280.737,340.739h34.678" transform="translate(-245.674 -281.939)" fill="none"/>
        </g>
        <g id="Grupo_1169777" data-name="Grupo 1169777" transform="translate(103.646 0)">
          <g id="Grupo_1169776" data-name="Grupo 1169776">
            <path id="Trazado_1014030" data-name="Trazado 1014030" d="M197.1,141.568c-4.063-1.474,1.672-36.466.084-40.243-3.339-7.946-47.995.229-45.58,41.937,2.661,45.954,59.3,51.172,79.652,18.633,5.354-8.562,5.781-26.379-1.159-29.807C227.155,130.633,201.272,143.082,197.1,141.568Z" transform="translate(-151.51 -95.029)" fill="#0eaf94"/>
            <path id="Trazado_1014031" data-name="Trazado 1014031" d="M203.21,136.046c-2.359-3.545,1.376-30.742,4.379-39.618,2.416-7.141,35.743,11.284,33.269,23.17C239.979,123.825,205.092,138.875,203.21,136.046Z" transform="translate(-154.184 -94.831)" fill="#64e2ca"/>
            <path id="Trazado_1014032" data-name="Trazado 1014032" d="M212.684,104.2c1.3-3.384,6.939-3.028,10.815-1.03,8.343,4.3,12.253,14.031,8.6,15.305-2.654.928-3.906-6.073-10.289-9.227-3.81-1.883-9.565-1.716-9.3-4.318A2.863,2.863,0,0,1,212.684,104.2Z" transform="translate(-154.711 -95.189)" fill="#eff" opacity="0.4"/>
          </g>
          <path id="SVGID_x5F_00000147918786454181509800000015256231603429772175_x5F_" d="M201.925,124.49H228.9" transform="translate(-154.156 -96.387)" fill="none"/>
          <path id="SVGID_x5F_00000011011955504824514320000008095567135378716292_x5F_" d="M159.926,143.332h33.432" transform="translate(-151.952 -97.376)" fill="none"/>
        </g>
        <path id="SVGID_x5F_00000083802352412782822820000007489631079407287938_x5F_" d="M151.655,422.026H344.944" transform="translate(-47.871 -112.001)" fill="none"/>
        <g id="Grupo_1169778" data-name="Grupo 1169778" transform="translate(108.551 333.555)">
          <path id="SVGID_x5F_00000094588206135262681930000005409097905224326303_x5F_" d="M156.686,446.859l175.29.893" transform="translate(-156.686 -446.859)" fill="none"/>
        </g>
      </g>
    </g>
  </g>
</svg>
