<svg xmlns="http://www.w3.org/2000/svg" xmlns:xlink="http://www.w3.org/1999/xlink" width="989" height="479" viewBox="0 0 989 479">
  <defs>
    <filter id="Trazado_1015667" x="565" y="0" width="424" height="201" filterUnits="userSpaceOnUse">
      <feOffset dy="3" input="SourceAlpha"/>
      <feGaussianBlur stdDeviation="3" result="blur"/>
      <feFlood flood-opacity="0.161"/>
      <feComposite operator="in" in2="blur"/>
      <feComposite in="SourceGraphic"/>
    </filter>
    <filter id="Trazado_1015669" x="393" y="218" width="303" height="261" filterUnits="userSpaceOnUse">
      <feOffset dy="3" input="SourceAlpha"/>
      <feGaussianBlur stdDeviation="3" result="blur-2"/>
      <feFlood flood-opacity="0.161"/>
      <feComposite operator="in" in2="blur-2"/>
      <feComposite in="SourceGraphic"/>
    </filter>
    <filter id="Trazado_1015671" x="0" y="0" width="540" height="201" filterUnits="userSpaceOnUse">
      <feOffset dy="3" input="SourceAlpha"/>
      <feGaussianBlur stdDeviation="3" result="blur-3"/>
      <feFlood flood-opacity="0.161"/>
      <feComposite operator="in" in2="blur-3"/>
      <feComposite in="SourceGraphic"/>
    </filter>
    <filter id="XMLID_956_" x="629.464" y="164.501" width="227.072" height="219.375" filterUnits="userSpaceOnUse">
      <feOffset dy="3" input="SourceAlpha"/>
      <feGaussianBlur stdDeviation="3" result="blur-4"/>
      <feFlood flood-opacity="0.161"/>
      <feComposite operator="in" in2="blur-4"/>
      <feComposite in="SourceGraphic"/>
    </filter>
    <filter id="XMLID_956_2" x="230.928" y="164.501" width="227.072" height="219.375" filterUnits="userSpaceOnUse">
      <feOffset dy="3" input="SourceAlpha"/>
      <feGaussianBlur stdDeviation="3" result="blur-5"/>
      <feFlood flood-opacity="0.161"/>
      <feComposite operator="in" in2="blur-5"/>
      <feComposite in="SourceGraphic"/>
    </filter>
  </defs>
  <g id="Grupo_1171492" data-name="Grupo 1171492" transform="translate(-305.701 -3164)">
    <g transform="matrix(1, 0, 0, 1, 305.7, 3164)" filter="url(#Trazado_1015667)">
      <path id="Trazado_1015667-2" data-name="Trazado 1015667" d="M10,0H396a10,10,0,0,1,10,10V173a10,10,0,0,1-10,10H10A10,10,0,0,1,0,173V10A10,10,0,0,1,10,0Z" transform="translate(574 6)" fill="#cbe7ea"/>
    </g>
    <path id="Trazado_1015668" data-name="Trazado 1015668" d="M10.477,18.552a8.311,8.311,0,0,1-3.6.668,6.074,6.074,0,0,1-4.562-1.705A6.233,6.233,0,0,1,.65,12.971a6.659,6.659,0,0,1,1.868-4.9A6.533,6.533,0,0,1,7.365,6.186a9.065,9.065,0,0,1,3.111.466V9.385a5.513,5.513,0,0,0-2.883-.756A3.824,3.824,0,0,0,4.729,9.745a4.142,4.142,0,0,0-1.09,3.023,4.062,4.062,0,0,0,1.028,2.914,3.633,3.633,0,0,0,2.769,1.085,5.905,5.905,0,0,0,3.041-.809ZM23.759,19H20.665l-.9-2.8H15.286L14.4,19H11.322L15.91,6.4h3.366Zm-4.641-4.983L17.764,9.78a5.52,5.52,0,0,1-.211-1.134h-.07a4.807,4.807,0,0,1-.22,1.1l-1.371,4.271ZM35.907,19H32.646l-1.96-3.243q-.22-.369-.422-.659a3.662,3.662,0,0,0-.409-.5,1.625,1.625,0,0,0-.431-.316,1.093,1.093,0,0,0-.488-.11h-.765V19H25.334V6.4h4.5q4.588,0,4.588,3.428a3.55,3.55,0,0,1-.2,1.217,3.382,3.382,0,0,1-.571,1.006,3.621,3.621,0,0,1-.892.773,4.6,4.6,0,0,1-1.165.51v.035a1.806,1.806,0,0,1,.545.286,3.9,3.9,0,0,1,.51.461,6.439,6.439,0,0,1,.47.567q.224.3.409.593ZM28.173,8.523V12.03H29.4a2.04,2.04,0,0,0,1.468-.527,1.76,1.76,0,0,0,.563-1.327q0-1.652-1.978-1.652ZM48.169,19H45.076l-.9-2.8H39.7L38.809,19H35.733L40.321,6.4h3.366Zm-4.641-4.983L42.175,9.78a5.521,5.521,0,0,1-.211-1.134h-.07a4.807,4.807,0,0,1-.22,1.1L40.3,14.017Zm14.978,4.535a8.311,8.311,0,0,1-3.6.668,6.074,6.074,0,0,1-4.562-1.705,6.233,6.233,0,0,1-1.661-4.544,6.659,6.659,0,0,1,1.868-4.9A6.533,6.533,0,0,1,55.4,6.186a9.065,9.065,0,0,1,3.111.466V9.385a5.513,5.513,0,0,0-2.883-.756,3.824,3.824,0,0,0-2.865,1.116,4.142,4.142,0,0,0-1.09,3.023A4.062,4.062,0,0,0,52.7,15.682a3.633,3.633,0,0,0,2.769,1.085,5.905,5.905,0,0,0,3.041-.809Zm11.05-9.844H65.962V19H63.114V8.708H59.537V6.4h10.02ZM78.814,19H71.255V6.4h7.269V8.708h-4.43v2.8h4.122v2.3H74.094V16.7h4.72Zm12.6,0H88.149l-1.96-3.243q-.22-.369-.422-.659a3.662,3.662,0,0,0-.409-.5,1.625,1.625,0,0,0-.431-.316,1.093,1.093,0,0,0-.488-.11h-.765V19H80.837V6.4h4.5q4.588,0,4.588,3.428a3.55,3.55,0,0,1-.2,1.217,3.382,3.382,0,0,1-.571,1.006,3.621,3.621,0,0,1-.892.773,4.6,4.6,0,0,1-1.165.51v.035a1.806,1.806,0,0,1,.545.286,3.9,3.9,0,0,1,.51.461,6.438,6.438,0,0,1,.47.567q.224.3.409.593ZM83.676,8.523V12.03h1.23a2.04,2.04,0,0,0,1.468-.527,1.76,1.76,0,0,0,.563-1.327q0-1.652-1.978-1.652ZM95.428,19H92.59V6.4h2.839ZM96.87,2.389,94.119,5.228h-2L94.4,2.389Zm.846,16.128V15.7a5.4,5.4,0,0,0,1.661.962,5.34,5.34,0,0,0,1.811.321,4.015,4.015,0,0,0,.936-.1,2.193,2.193,0,0,0,.668-.268,1.169,1.169,0,0,0,.4-.4,1.009,1.009,0,0,0,.132-.505,1.092,1.092,0,0,0-.211-.659,2.27,2.27,0,0,0-.576-.536,6.015,6.015,0,0,0-.866-.475q-.5-.229-1.081-.466a5.517,5.517,0,0,1-2.2-1.5,3.281,3.281,0,0,1-.725-2.145,3.416,3.416,0,0,1,.4-1.692,3.359,3.359,0,0,1,1.077-1.165,4.828,4.828,0,0,1,1.578-.672,8.106,8.106,0,0,1,1.9-.215,11.418,11.418,0,0,1,1.745.119,6.861,6.861,0,0,1,1.4.365V9.3a4.239,4.239,0,0,0-.69-.387,5.466,5.466,0,0,0-.769-.277,5.866,5.866,0,0,0-.787-.163,5.567,5.567,0,0,0-.743-.053,3.873,3.873,0,0,0-.879.092,2.254,2.254,0,0,0-.668.259,1.29,1.29,0,0,0-.422.4.948.948,0,0,0-.149.523,1,1,0,0,0,.167.567,1.916,1.916,0,0,0,.475.475,5.037,5.037,0,0,0,.747.439q.439.215.993.444a11.067,11.067,0,0,1,1.358.672,4.827,4.827,0,0,1,1.033.8,3.133,3.133,0,0,1,.659,1.024,3.618,3.618,0,0,1,.229,1.34,3.59,3.59,0,0,1-.4,1.771,3.247,3.247,0,0,1-1.085,1.16,4.707,4.707,0,0,1-1.6.637,9.219,9.219,0,0,1-1.92.193,10.678,10.678,0,0,1-1.973-.176A5.956,5.956,0,0,1,97.715,18.517Zm19.522-9.809h-3.595V19H110.8V8.708h-3.577V6.4h10.02ZM121.775,19h-2.839V6.4h2.839Zm11.9-.448a8.311,8.311,0,0,1-3.6.668,6.074,6.074,0,0,1-4.562-1.705,6.233,6.233,0,0,1-1.661-4.544,6.659,6.659,0,0,1,1.868-4.9,6.533,6.533,0,0,1,4.847-1.881,9.065,9.065,0,0,1,3.111.466V9.385a5.513,5.513,0,0,0-2.883-.756,3.824,3.824,0,0,0-2.865,1.116,4.142,4.142,0,0,0-1.09,3.023,4.062,4.062,0,0,0,1.028,2.914,3.633,3.633,0,0,0,2.769,1.085,5.905,5.905,0,0,0,3.041-.809ZM146.959,19h-3.094l-.9-2.8h-4.482L137.6,19h-3.076L139.11,6.4h3.366Zm-4.641-4.983L140.965,9.78a5.521,5.521,0,0,1-.211-1.134h-.07a4.807,4.807,0,0,1-.22,1.1l-1.371,4.271Zm5.636,4.5V15.7a5.4,5.4,0,0,0,1.661.962,5.34,5.34,0,0,0,1.811.321,4.015,4.015,0,0,0,.936-.1,2.193,2.193,0,0,0,.668-.268,1.169,1.169,0,0,0,.4-.4,1.009,1.009,0,0,0,.132-.505,1.092,1.092,0,0,0-.211-.659,2.27,2.27,0,0,0-.576-.536,6.015,6.015,0,0,0-.866-.475q-.5-.229-1.081-.466a5.517,5.517,0,0,1-2.2-1.5A3.281,3.281,0,0,1,147.9,9.93a3.416,3.416,0,0,1,.4-1.692,3.359,3.359,0,0,1,1.077-1.165,4.828,4.828,0,0,1,1.578-.672,8.106,8.106,0,0,1,1.9-.215,11.418,11.418,0,0,1,1.745.119,6.861,6.861,0,0,1,1.4.365V9.3a4.239,4.239,0,0,0-.69-.387,5.466,5.466,0,0,0-.769-.277,5.866,5.866,0,0,0-.787-.163,5.567,5.567,0,0,0-.743-.053,3.873,3.873,0,0,0-.879.092,2.254,2.254,0,0,0-.668.259,1.29,1.29,0,0,0-.422.4.948.948,0,0,0-.149.523,1,1,0,0,0,.167.567,1.916,1.916,0,0,0,.475.475,5.037,5.037,0,0,0,.747.439q.439.215.993.444a11.067,11.067,0,0,1,1.358.672,4.827,4.827,0,0,1,1.033.8,3.133,3.133,0,0,1,.659,1.024,3.618,3.618,0,0,1,.229,1.34,3.59,3.59,0,0,1-.4,1.771,3.247,3.247,0,0,1-1.085,1.16,4.707,4.707,0,0,1-1.6.637,9.219,9.219,0,0,1-1.92.193,10.678,10.678,0,0,1-1.973-.176A5.956,5.956,0,0,1,147.954,18.517Zm11.639-5.73a1.63,1.63,0,0,1-1.143-.417,1.343,1.343,0,0,1-.457-1.033,1.306,1.306,0,0,1,.47-1.037,1.736,1.736,0,0,1,1.173-.4,1.671,1.671,0,0,1,1.165.409,1.41,1.41,0,0,1-.009,2.079A1.754,1.754,0,0,1,159.592,12.786Zm0,6.434a1.62,1.62,0,0,1-1.143-.422,1.356,1.356,0,0,1-.457-1.037,1.306,1.306,0,0,1,.47-1.037,1.736,1.736,0,0,1,1.173-.4,1.671,1.671,0,0,1,1.165.409,1.415,1.415,0,0,1-.009,2.083A1.742,1.742,0,0,1,159.592,19.22ZM7.313,33.115V46H4.544V36.244A3.315,3.315,0,0,1,4,36.626a5.58,5.58,0,0,1-.664.325,5.925,5.925,0,0,1-.729.246,5.328,5.328,0,0,1-.747.145V35A11.549,11.549,0,0,0,3.9,34.2a11.6,11.6,0,0,0,1.731-1.081Zm5.451,13.1a1.62,1.62,0,0,1-1.143-.422,1.356,1.356,0,0,1-.457-1.037,1.306,1.306,0,0,1,.47-1.037,1.736,1.736,0,0,1,1.173-.4,1.671,1.671,0,0,1,1.165.409,1.415,1.415,0,0,1-.009,2.083A1.742,1.742,0,0,1,12.764,46.22Zm17.67-.747a7.392,7.392,0,0,1-3.48.738,5.613,5.613,0,0,1-4.307-1.731,6.389,6.389,0,0,1-1.617-4.544,6.7,6.7,0,0,1,1.819-4.887,6.175,6.175,0,0,1,4.614-1.863,7.4,7.4,0,0,1,2.971.519v1.573a6.024,6.024,0,0,0-2.988-.756,4.585,4.585,0,0,0-3.52,1.45,5.463,5.463,0,0,0-1.349,3.876,5.2,5.2,0,0,0,1.261,3.669,4.292,4.292,0,0,0,3.309,1.367,6.208,6.208,0,0,0,3.287-.844Zm6.137.738a4.175,4.175,0,0,1-3.186-1.261,4.672,4.672,0,0,1-1.191-3.344,4.867,4.867,0,0,1,1.239-3.542,4.455,4.455,0,0,1,3.349-1.274,4.037,4.037,0,0,1,3.142,1.239,4.914,4.914,0,0,1,1.129,3.437,4.835,4.835,0,0,1-1.217,3.45A4.265,4.265,0,0,1,36.57,46.211ZM36.675,38a2.742,2.742,0,0,0-2.2.945,3.88,3.88,0,0,0-.809,2.606,3.67,3.67,0,0,0,.817,2.522A2.778,2.778,0,0,0,36.675,45a2.635,2.635,0,0,0,2.149-.905,3.928,3.928,0,0,0,.751-2.575,4,4,0,0,0-.751-2.6A2.623,2.623,0,0,0,36.675,38Zm19.461,8H54.695V40.832a3.9,3.9,0,0,0-.461-2.162A1.75,1.75,0,0,0,52.682,38a1.921,1.921,0,0,0-1.569.844,3.228,3.228,0,0,0-.646,2.021V46H49.026V40.656Q49.026,38,46.978,38a1.9,1.9,0,0,0-1.564.8,3.288,3.288,0,0,0-.615,2.07V46H43.357V37H44.8v1.424h.035a3.058,3.058,0,0,1,2.795-1.635,2.6,2.6,0,0,1,2.549,1.863,3.212,3.212,0,0,1,2.988-1.863q2.971,0,2.971,3.665Zm4.2-1.3H60.3v5.44H58.862V37H60.3v1.582h.035a3.408,3.408,0,0,1,3.111-1.793A3.3,3.3,0,0,1,66.166,38a5.005,5.005,0,0,1,.976,3.239,5.578,5.578,0,0,1-1.1,3.617,3.658,3.658,0,0,1-3.006,1.358A3.011,3.011,0,0,1,60.339,44.7Zm-.035-3.63v1.257a2.676,2.676,0,0,0,.725,1.894A2.587,2.587,0,0,0,64.922,44a4.6,4.6,0,0,0,.743-2.786,3.629,3.629,0,0,0-.694-2.355A2.3,2.3,0,0,0,63.09,38a2.554,2.554,0,0,0-2.021.875A3.211,3.211,0,0,0,60.3,41.069Zm13.836-2.61a1.763,1.763,0,0,0-1.09-.29,1.839,1.839,0,0,0-1.542.87,4.023,4.023,0,0,0-.62,2.373V46H69.446V37h1.441v1.854h.035a3.143,3.143,0,0,1,.94-1.481,2.144,2.144,0,0,1,1.415-.532,2.353,2.353,0,0,1,.861.123Zm8.8,3.4H76.585a3.366,3.366,0,0,0,.809,2.32A2.788,2.788,0,0,0,79.52,45a4.422,4.422,0,0,0,2.795-1V45.35a5.224,5.224,0,0,1-3.138.861,3.8,3.8,0,0,1-3-1.226,5.018,5.018,0,0,1-1.09-3.45,4.921,4.921,0,0,1,1.191-3.423,3.819,3.819,0,0,1,2.958-1.323,3.384,3.384,0,0,1,2.733,1.143,4.764,4.764,0,0,1,.967,3.173Zm-1.477-1.222a2.933,2.933,0,0,0-.6-1.942A2.051,2.051,0,0,0,79.213,38a2.328,2.328,0,0,0-1.731.729,3.31,3.31,0,0,0-.879,1.907ZM92.591,46H91.15V40.867Q91.15,38,89.058,38a2.269,2.269,0,0,0-1.789.813,3.013,3.013,0,0,0-.708,2.052V46H85.121V37h1.441v1.494H86.6a3.248,3.248,0,0,1,2.953-1.705,2.753,2.753,0,0,1,2.259.954,4.248,4.248,0,0,1,.782,2.755Zm2.173-.325V44.128a4.266,4.266,0,0,0,2.593.87q1.9,0,1.9-1.266a1.1,1.1,0,0,0-.163-.611,1.62,1.62,0,0,0-.439-.444,3.383,3.383,0,0,0-.65-.347q-.374-.154-.8-.321a10.357,10.357,0,0,1-1.05-.479,3.173,3.173,0,0,1-.756-.545,2.028,2.028,0,0,1-.457-.69,2.441,2.441,0,0,1-.154-.905,2.15,2.15,0,0,1,.29-1.121,2.572,2.572,0,0,1,.773-.817,3.607,3.607,0,0,1,1.1-.5,4.893,4.893,0,0,1,1.279-.167,5.164,5.164,0,0,1,2.092.4v1.459A4.077,4.077,0,0,0,98.034,38a2.671,2.671,0,0,0-.729.092,1.786,1.786,0,0,0-.558.259,1.2,1.2,0,0,0-.36.4,1.053,1.053,0,0,0-.127.514,1.233,1.233,0,0,0,.127.589,1.3,1.3,0,0,0,.374.422,2.855,2.855,0,0,0,.6.334q.352.149.8.325a11.131,11.131,0,0,1,1.072.47,3.678,3.678,0,0,1,.809.545,2.129,2.129,0,0,1,.514.7,2.254,2.254,0,0,1,.18.94,2.217,2.217,0,0,1-.294,1.16,2.523,2.523,0,0,1-.787.817,3.6,3.6,0,0,1-1.134.483,5.6,5.6,0,0,1-1.345.158A5.106,5.106,0,0,1,94.764,45.675Zm8.923-10.96a.913.913,0,0,1-.659-.264.89.89,0,0,1-.272-.668.923.923,0,0,1,.932-.94.931.931,0,0,1,.672.268.939.939,0,0,1,0,1.332A.923.923,0,0,1,103.687,34.715ZM104.39,46h-1.441V37h1.441Zm4.4-1.3h-.035V46H107.31V32.676h1.441v5.906h.035a3.408,3.408,0,0,1,3.111-1.793A3.3,3.3,0,0,1,114.609,38a4.99,4.99,0,0,1,.98,3.239,5.578,5.578,0,0,1-1.1,3.617,3.658,3.658,0,0,1-3.006,1.358A2.96,2.96,0,0,1,108.786,44.7Zm-.035-3.63v1.257a2.676,2.676,0,0,0,.725,1.894A2.587,2.587,0,0,0,113.37,44a4.6,4.6,0,0,0,.743-2.786,3.629,3.629,0,0,0-.694-2.355A2.3,2.3,0,0,0,111.537,38a2.554,2.554,0,0,0-2.021.875A3.211,3.211,0,0,0,108.751,41.069Zm9.881-6.354a.913.913,0,0,1-.659-.264.89.89,0,0,1-.272-.668.923.923,0,0,1,.932-.94.931.931,0,0,1,.672.268.939.939,0,0,1,0,1.332A.923.923,0,0,1,118.632,34.715Zm.7,11.285h-1.441V37h1.441Zm4.361,0h-1.441V32.676H123.7Zm3.658-11.285a.913.913,0,0,1-.659-.264.89.89,0,0,1-.272-.668.923.923,0,0,1,.932-.94.931.931,0,0,1,.672.268.939.939,0,0,1,0,1.332A.923.923,0,0,1,127.354,34.715Zm.7,11.285h-1.441V37h1.441Zm10.6,0h-1.441V44.471h-.035a3.327,3.327,0,0,1-3.094,1.74A3.362,3.362,0,0,1,131.377,45a4.958,4.958,0,0,1-1.015-3.292,5.394,5.394,0,0,1,1.125-3.577,3.71,3.71,0,0,1,3-1.345,2.885,2.885,0,0,1,2.7,1.459h.035V32.676h1.441Zm-1.441-4.069V40.6a2.575,2.575,0,0,0-.721-1.846A2.417,2.417,0,0,0,134.668,38a2.489,2.489,0,0,0-2.074.967,4.237,4.237,0,0,0-.756,2.672,3.81,3.81,0,0,0,.725,2.457,2.37,2.37,0,0,0,1.947.9,2.462,2.462,0,0,0,1.956-.87A3.242,3.242,0,0,0,137.217,41.931ZM148.021,46h-1.441V44.594h-.035a3.018,3.018,0,0,1-2.769,1.617,2.959,2.959,0,0,1-2.1-.712,2.466,2.466,0,0,1-.76-1.89q0-2.522,2.971-2.936l2.7-.378q0-2.294-1.854-2.294a4.431,4.431,0,0,0-2.936,1.107V37.633a5.577,5.577,0,0,1,3.059-.844q3.173,0,3.173,3.357Zm-1.441-4.553-2.171.3a3.525,3.525,0,0,0-1.512.5,1.432,1.432,0,0,0-.51,1.261,1.374,1.374,0,0,0,.47,1.077A1.817,1.817,0,0,0,144.11,45a2.314,2.314,0,0,0,1.771-.751,2.685,2.685,0,0,0,.7-1.9ZM158.42,46h-1.441V44.471h-.035a3.327,3.327,0,0,1-3.094,1.74A3.362,3.362,0,0,1,151.138,45a4.958,4.958,0,0,1-1.015-3.292,5.394,5.394,0,0,1,1.125-3.577,3.71,3.71,0,0,1,3-1.345,2.885,2.885,0,0,1,2.7,1.459h.035V32.676h1.441Zm-1.441-4.069V40.6a2.575,2.575,0,0,0-.721-1.846A2.417,2.417,0,0,0,154.43,38a2.489,2.489,0,0,0-2.074.967,4.237,4.237,0,0,0-.756,2.672,3.81,3.81,0,0,0,.725,2.457,2.37,2.37,0,0,0,1.947.9,2.462,2.462,0,0,0,1.956-.87A3.242,3.242,0,0,0,156.979,41.931Zm4.862,4.263a.933.933,0,0,1-.69-.29.955.955,0,0,1-.286-.694.969.969,0,0,1,.286-.7.926.926,0,0,1,.69-.294.95.95,0,0,1,.7.294.962.962,0,0,1,.29.7.947.947,0,0,1-.29.694A.958.958,0,0,1,161.841,46.193ZM3.771,70.7H9.114V73H.729v-.949a4.418,4.418,0,0,1,.325-1.736,5.76,5.76,0,0,1,.817-1.38,7.09,7.09,0,0,1,1.077-1.081q.584-.47,1.112-.848.554-.4.971-.756a5.534,5.534,0,0,0,.7-.716,2.723,2.723,0,0,0,.426-.721,2.143,2.143,0,0,0,.141-.778,1.563,1.563,0,0,0-.457-1.222,2.032,2.032,0,0,0-1.4-.413,4.694,4.694,0,0,0-3.111,1.292V61.249a6.679,6.679,0,0,1,3.709-1.063,5.478,5.478,0,0,1,1.718.25,3.635,3.635,0,0,1,1.288.716,3.055,3.055,0,0,1,.8,1.129,3.811,3.811,0,0,1,.277,1.481,4.176,4.176,0,0,1-.268,1.547,4.753,4.753,0,0,1-.712,1.23,6.458,6.458,0,0,1-1.024,1.015q-.58.461-1.2.892-.422.3-.813.593a7.707,7.707,0,0,0-.69.58,3.149,3.149,0,0,0-.475.558A.963.963,0,0,0,3.771,70.7Zm8.993,2.522a1.62,1.62,0,0,1-1.143-.422,1.356,1.356,0,0,1-.457-1.037,1.306,1.306,0,0,1,.47-1.037,1.736,1.736,0,0,1,1.173-.4,1.671,1.671,0,0,1,1.165.409,1.415,1.415,0,0,1-.009,2.083A1.742,1.742,0,0,1,12.764,73.22ZM30.89,73H29.132l-2.109-3.533a7.7,7.7,0,0,0-.562-.839,3.207,3.207,0,0,0-.558-.567,1.933,1.933,0,0,0-.615-.321,2.53,2.53,0,0,0-.743-.1H23.332V73H21.855V60.4h3.762a5.361,5.361,0,0,1,1.525.207,3.412,3.412,0,0,1,1.213.628,2.92,2.92,0,0,1,.8,1.05,3.483,3.483,0,0,1,.29,1.472,3.545,3.545,0,0,1-.2,1.208,3.156,3.156,0,0,1-.562.98,3.41,3.41,0,0,1-.879.734,4.487,4.487,0,0,1-1.156.47v.035a2.658,2.658,0,0,1,.549.321,3.023,3.023,0,0,1,.444.426,5.646,5.646,0,0,1,.417.558q.207.312.461.725ZM23.332,61.732V66.3h2a3.039,3.039,0,0,0,1.024-.167,2.37,2.37,0,0,0,.813-.479,2.172,2.172,0,0,0,.536-.765,2.56,2.56,0,0,0,.193-1.015,1.976,1.976,0,0,0-.655-1.578,2.813,2.813,0,0,0-1.894-.567Zm15.8,7.128H32.782a3.366,3.366,0,0,0,.809,2.32A2.788,2.788,0,0,0,35.717,72a4.422,4.422,0,0,0,2.795-1V72.35a5.224,5.224,0,0,1-3.138.861,3.8,3.8,0,0,1-3-1.226,5.018,5.018,0,0,1-1.09-3.45,4.921,4.921,0,0,1,1.191-3.423,3.819,3.819,0,0,1,2.958-1.323,3.384,3.384,0,0,1,2.733,1.143,4.764,4.764,0,0,1,.967,3.173ZM37.66,67.639a2.933,2.933,0,0,0-.6-1.942A2.051,2.051,0,0,0,35.41,65a2.328,2.328,0,0,0-1.731.729,3.31,3.31,0,0,0-.879,1.907ZM42.759,73H41.318V59.676h1.441Zm10.153-4.14H46.558a3.366,3.366,0,0,0,.809,2.32A2.788,2.788,0,0,0,49.493,72a4.422,4.422,0,0,0,2.795-1V72.35a5.224,5.224,0,0,1-3.138.861,3.8,3.8,0,0,1-3-1.226,5.018,5.018,0,0,1-1.09-3.45,4.921,4.921,0,0,1,1.191-3.423,3.819,3.819,0,0,1,2.958-1.323,3.384,3.384,0,0,1,2.733,1.143,4.764,4.764,0,0,1,.967,3.173Zm-1.477-1.222a2.933,2.933,0,0,0-.6-1.942A2.051,2.051,0,0,0,49.186,65a2.328,2.328,0,0,0-1.731.729,3.31,3.31,0,0,0-.879,1.907ZM62.169,64l-3.586,9H57.168l-3.41-9H55.34l2.285,6.539a5.869,5.869,0,0,1,.316,1.257h.035a5.943,5.943,0,0,1,.281-1.222L60.648,64Zm7.991,9H68.719V71.594h-.035a3.018,3.018,0,0,1-2.769,1.617,2.959,2.959,0,0,1-2.1-.712,2.466,2.466,0,0,1-.76-1.89q0-2.522,2.971-2.936l2.7-.378Q68.719,65,66.864,65a4.431,4.431,0,0,0-2.936,1.107V64.633a5.577,5.577,0,0,1,3.059-.844q3.173,0,3.173,3.357Zm-1.441-4.553-2.171.3a3.525,3.525,0,0,0-1.512.5,1.432,1.432,0,0,0-.51,1.261A1.374,1.374,0,0,0,65,71.581,1.817,1.817,0,0,0,66.249,72a2.314,2.314,0,0,0,1.771-.751,2.685,2.685,0,0,0,.7-1.9ZM80.348,73H78.907V67.867Q78.907,65,76.815,65a2.269,2.269,0,0,0-1.789.813,3.013,3.013,0,0,0-.708,2.052V73H72.878V64h1.441v1.494h.035a3.248,3.248,0,0,1,2.953-1.705,2.753,2.753,0,0,1,2.259.954,4.248,4.248,0,0,1,.782,2.755Zm8.852-.413a4.684,4.684,0,0,1-2.461.624,4.074,4.074,0,0,1-3.107-1.252,4.539,4.539,0,0,1-1.182-3.248,4.99,4.99,0,0,1,1.274-3.573,4.458,4.458,0,0,1,3.4-1.349,4.735,4.735,0,0,1,2.092.439v1.477a3.665,3.665,0,0,0-2.145-.7,2.9,2.9,0,0,0-2.263.989,3.752,3.752,0,0,0-.883,2.6,3.573,3.573,0,0,0,.831,2.5A2.863,2.863,0,0,0,86.986,72a3.613,3.613,0,0,0,2.215-.782Zm2.92-10.872a.913.913,0,0,1-.659-.264.89.89,0,0,1-.272-.668.923.923,0,0,1,.932-.94.931.931,0,0,1,.672.268.939.939,0,0,1,0,1.332A.923.923,0,0,1,92.12,61.715ZM92.824,73H91.382V64h1.441Zm9.362,0h-1.441V71.594h-.035a3.018,3.018,0,0,1-2.769,1.617,2.959,2.959,0,0,1-2.1-.712,2.466,2.466,0,0,1-.76-1.89q0-2.522,2.971-2.936l2.7-.378Q100.744,65,98.89,65a4.431,4.431,0,0,0-2.936,1.107V64.633a5.577,5.577,0,0,1,3.059-.844q3.173,0,3.173,3.357Zm-1.441-4.553-2.171.3a3.525,3.525,0,0,0-1.512.5,1.432,1.432,0,0,0-.51,1.261,1.374,1.374,0,0,0,.47,1.077A1.817,1.817,0,0,0,98.275,72a2.314,2.314,0,0,0,1.771-.751,2.685,2.685,0,0,0,.7-1.9Zm4.66,4.746a.933.933,0,0,1-.69-.29.955.955,0,0,1-.286-.694.969.969,0,0,1,.286-.7.926.926,0,0,1,.69-.294.95.95,0,0,1,.7.294.962.962,0,0,1,.29.7.947.947,0,0,1-.29.694A.958.958,0,0,1,105.4,73.193ZM1.028,99.587V97.17a4.878,4.878,0,0,0,2.953.923,2.659,2.659,0,0,0,1.657-.457,1.517,1.517,0,0,0,.593-1.274,1.449,1.449,0,0,0-.734-1.3A3.8,3.8,0,0,0,3.48,94.6H2.312V92.477H3.393q2.461,0,2.461-1.635,0-1.538-1.89-1.538a4.308,4.308,0,0,0-2.461.817V87.854A6.8,6.8,0,0,1,4.6,87.186a4.669,4.669,0,0,1,3.01.87,2.769,2.769,0,0,1,1.077,2.259,2.937,2.937,0,0,1-2.5,3.094v.044a3.405,3.405,0,0,1,2.109.971A2.738,2.738,0,0,1,9.062,96.4,3.382,3.382,0,0,1,7.77,99.191,5.586,5.586,0,0,1,4.2,100.22,6.9,6.9,0,0,1,1.028,99.587Zm11.735.633a1.62,1.62,0,0,1-1.143-.422,1.356,1.356,0,0,1-.457-1.037,1.306,1.306,0,0,1,.47-1.037,1.736,1.736,0,0,1,1.173-.4,1.671,1.671,0,0,1,1.165.409,1.415,1.415,0,0,1-.009,2.083A1.742,1.742,0,0,1,12.764,100.22Zm15.49-11.487H23.332v4.359h4.553v1.327H23.332V100H21.855V87.4h6.4Zm2.937-.018a.913.913,0,0,1-.659-.264.89.89,0,0,1-.272-.668.923.923,0,0,1,.932-.94.931.931,0,0,1,.672.268.939.939,0,0,1,0,1.332A.923.923,0,0,1,31.191,88.715Zm.7,11.285H30.453V91h1.441Zm9.362,0H39.815V98.594H39.78a3.018,3.018,0,0,1-2.769,1.617,2.959,2.959,0,0,1-2.1-.712,2.466,2.466,0,0,1-.76-1.89q0-2.522,2.971-2.936l2.7-.378Q39.815,92,37.96,92a4.431,4.431,0,0,0-2.936,1.107V91.633a5.577,5.577,0,0,1,3.059-.844q3.173,0,3.173,3.357Zm-1.441-4.553-2.171.3a3.525,3.525,0,0,0-1.512.5,1.432,1.432,0,0,0-.51,1.261,1.374,1.374,0,0,0,.47,1.077A1.817,1.817,0,0,0,37.345,99a2.314,2.314,0,0,0,1.771-.751,2.685,2.685,0,0,0,.7-1.9ZM45.45,98.7h-.035V100H43.974V86.676h1.441v5.906h.035a3.408,3.408,0,0,1,3.111-1.793A3.3,3.3,0,0,1,51.273,92a4.99,4.99,0,0,1,.98,3.239,5.578,5.578,0,0,1-1.1,3.617,3.658,3.658,0,0,1-3.006,1.358A2.96,2.96,0,0,1,45.45,98.7Zm-.035-3.63v1.257a2.676,2.676,0,0,0,.725,1.894A2.587,2.587,0,0,0,50.034,98a4.6,4.6,0,0,0,.743-2.786,3.629,3.629,0,0,0-.694-2.355A2.3,2.3,0,0,0,48.2,92a2.554,2.554,0,0,0-2.021.875A3.211,3.211,0,0,0,45.415,95.069ZM55.3,88.715a.913.913,0,0,1-.659-.264.89.89,0,0,1-.272-.668.923.923,0,0,1,.932-.94.931.931,0,0,1,.672.268.939.939,0,0,1,0,1.332A.923.923,0,0,1,55.3,88.715ZM56,100H54.558V91H56Zm4.361,0H58.919V86.676H60.36Zm3.658-11.285a.913.913,0,0,1-.659-.264.89.89,0,0,1-.272-.668.923.923,0,0,1,.932-.94.931.931,0,0,1,.672.268.939.939,0,0,1,0,1.332A.923.923,0,0,1,64.018,88.715Zm.7,11.285H63.28V91h1.441Zm10.6,0H73.881V98.471h-.035a3.327,3.327,0,0,1-3.094,1.74A3.362,3.362,0,0,1,68.041,99a4.958,4.958,0,0,1-1.015-3.292,5.394,5.394,0,0,1,1.125-3.577,3.71,3.71,0,0,1,3-1.345,2.885,2.885,0,0,1,2.7,1.459h.035V86.676h1.441Zm-1.441-4.069V94.6a2.575,2.575,0,0,0-.721-1.846A2.417,2.417,0,0,0,71.332,92a2.489,2.489,0,0,0-2.074.967,4.237,4.237,0,0,0-.756,2.672,3.81,3.81,0,0,0,.725,2.457,2.37,2.37,0,0,0,1.947.9,2.462,2.462,0,0,0,1.956-.87A3.242,3.242,0,0,0,73.881,95.931ZM84.685,100H83.243V98.594h-.035a3.018,3.018,0,0,1-2.769,1.617,2.959,2.959,0,0,1-2.1-.712,2.466,2.466,0,0,1-.76-1.89q0-2.522,2.971-2.936l2.7-.378Q83.243,92,81.389,92a4.431,4.431,0,0,0-2.936,1.107V91.633a5.577,5.577,0,0,1,3.059-.844q3.173,0,3.173,3.357Zm-1.441-4.553-2.171.3a3.525,3.525,0,0,0-1.512.5,1.432,1.432,0,0,0-.51,1.261,1.374,1.374,0,0,0,.47,1.077A1.817,1.817,0,0,0,80.774,99a2.314,2.314,0,0,0,1.771-.751,2.685,2.685,0,0,0,.7-1.9ZM95.084,100H93.643V98.471h-.035a3.327,3.327,0,0,1-3.094,1.74A3.362,3.362,0,0,1,87.8,99a4.958,4.958,0,0,1-1.015-3.292,5.394,5.394,0,0,1,1.125-3.577,3.71,3.71,0,0,1,3-1.345,2.885,2.885,0,0,1,2.7,1.459h.035V86.676h1.441Zm-1.441-4.069V94.6a2.575,2.575,0,0,0-.721-1.846A2.417,2.417,0,0,0,91.094,92a2.489,2.489,0,0,0-2.074.967,4.237,4.237,0,0,0-.756,2.672,3.81,3.81,0,0,0,.725,2.457,2.37,2.37,0,0,0,1.947.9,2.462,2.462,0,0,0,1.956-.87A3.242,3.242,0,0,0,93.643,95.931Zm4.862,4.263a.933.933,0,0,1-.69-.29.955.955,0,0,1-.286-.694.969.969,0,0,1,.286-.7.926.926,0,0,1,.69-.294.95.95,0,0,1,.7.294.962.962,0,0,1,.29.7.947.947,0,0,1-.29.694A.958.958,0,0,1,98.5,100.193ZM8.367,114.4v7.945H9.879v2.074H8.367V127H5.836v-2.584H.343v-2.171q.729-.817,1.512-1.789t1.512-2q.729-1.028,1.358-2.07A20.749,20.749,0,0,0,5.792,114.4ZM2.83,122.342H5.836v-4.4q-.308.571-.668,1.156t-.756,1.151q-.4.567-.8,1.1T2.83,122.342Zm9.933,4.878a1.62,1.62,0,0,1-1.143-.422,1.356,1.356,0,0,1-.457-1.037,1.306,1.306,0,0,1,.47-1.037,1.736,1.736,0,0,1,1.173-.4,1.671,1.671,0,0,1,1.165.409,1.415,1.415,0,0,1-.009,2.083A1.742,1.742,0,0,1,12.764,127.22Zm17.67-.747a7.392,7.392,0,0,1-3.48.738,5.613,5.613,0,0,1-4.307-1.731,6.389,6.389,0,0,1-1.617-4.544,6.7,6.7,0,0,1,1.819-4.887,6.175,6.175,0,0,1,4.614-1.863,7.4,7.4,0,0,1,2.971.519v1.573a6.024,6.024,0,0,0-2.988-.756,4.585,4.585,0,0,0-3.52,1.45,5.463,5.463,0,0,0-1.349,3.876,5.2,5.2,0,0,0,1.261,3.669,4.292,4.292,0,0,0,3.309,1.367,6.208,6.208,0,0,0,3.287-.844Zm6.137.738a4.175,4.175,0,0,1-3.186-1.261,4.672,4.672,0,0,1-1.191-3.344,4.867,4.867,0,0,1,1.239-3.542,4.455,4.455,0,0,1,3.349-1.274,4.037,4.037,0,0,1,3.142,1.239,4.914,4.914,0,0,1,1.129,3.437,4.835,4.835,0,0,1-1.217,3.45A4.265,4.265,0,0,1,36.57,127.211ZM36.675,119a2.742,2.742,0,0,0-2.2.945,3.88,3.88,0,0,0-.809,2.606,3.67,3.67,0,0,0,.817,2.522,2.778,2.778,0,0,0,2.188.923,2.635,2.635,0,0,0,2.149-.905,3.928,3.928,0,0,0,.751-2.575,4,4,0,0,0-.751-2.6A2.623,2.623,0,0,0,36.675,119Zm19.461,8H54.695v-5.168a3.9,3.9,0,0,0-.461-2.162A1.75,1.75,0,0,0,52.682,119a1.921,1.921,0,0,0-1.569.844,3.228,3.228,0,0,0-.646,2.021V127H49.026v-5.344q0-2.654-2.048-2.654a1.9,1.9,0,0,0-1.564.8,3.288,3.288,0,0,0-.615,2.07V127H43.357v-9H44.8v1.424h.035a3.058,3.058,0,0,1,2.795-1.635,2.6,2.6,0,0,1,2.549,1.863,3.212,3.212,0,0,1,2.988-1.863q2.971,0,2.971,3.665Zm4.2-1.3H60.3v5.44H58.862V118H60.3v1.582h.035a3.408,3.408,0,0,1,3.111-1.793A3.3,3.3,0,0,1,66.166,119a5.005,5.005,0,0,1,.976,3.239,5.578,5.578,0,0,1-1.1,3.617,3.658,3.658,0,0,1-3.006,1.358A3.011,3.011,0,0,1,60.339,125.7Zm-.035-3.63v1.257a2.676,2.676,0,0,0,.725,1.894A2.587,2.587,0,0,0,64.922,125a4.6,4.6,0,0,0,.743-2.786,3.629,3.629,0,0,0-.694-2.355A2.3,2.3,0,0,0,63.09,119a2.554,2.554,0,0,0-2.021.875A3.211,3.211,0,0,0,60.3,122.069ZM75.889,127H74.447v-1.406h-.035a3.018,3.018,0,0,1-2.769,1.617,2.959,2.959,0,0,1-2.1-.712,2.466,2.466,0,0,1-.76-1.89q0-2.522,2.971-2.936l2.7-.378q0-2.294-1.854-2.294a4.431,4.431,0,0,0-2.936,1.107v-1.477a5.577,5.577,0,0,1,3.059-.844q3.173,0,3.173,3.357Zm-1.441-4.553-2.171.3a3.525,3.525,0,0,0-1.512.5,1.432,1.432,0,0,0-.51,1.261,1.374,1.374,0,0,0,.47,1.077,1.817,1.817,0,0,0,1.252.417,2.314,2.314,0,0,0,1.771-.751,2.685,2.685,0,0,0,.7-1.9Zm8.852-2.988a1.763,1.763,0,0,0-1.09-.29,1.839,1.839,0,0,0-1.542.87,4.023,4.023,0,0,0-.62,2.373V127H78.606v-9h1.441v1.854h.035a3.143,3.143,0,0,1,.94-1.481,2.144,2.144,0,0,1,1.415-.532,2.353,2.353,0,0,1,.861.123ZM91.308,127H89.867v-1.406h-.035a3.018,3.018,0,0,1-2.769,1.617,2.959,2.959,0,0,1-2.1-.712,2.466,2.466,0,0,1-.76-1.89q0-2.522,2.971-2.936l2.7-.378q0-2.294-1.854-2.294a4.431,4.431,0,0,0-2.936,1.107v-1.477a5.577,5.577,0,0,1,3.059-.844q3.173,0,3.173,3.357Zm-1.441-4.553-2.171.3a3.525,3.525,0,0,0-1.512.5,1.432,1.432,0,0,0-.51,1.261,1.374,1.374,0,0,0,.47,1.077A1.817,1.817,0,0,0,87.4,126a2.314,2.314,0,0,0,1.771-.751,2.685,2.685,0,0,0,.7-1.9ZM95.5,125.7h-.035V127H94.026V113.676h1.441v5.906H95.5a3.408,3.408,0,0,1,3.111-1.793A3.3,3.3,0,0,1,101.325,119a4.99,4.99,0,0,1,.98,3.239,5.578,5.578,0,0,1-1.1,3.617,3.658,3.658,0,0,1-3.006,1.358A2.96,2.96,0,0,1,95.5,125.7Zm-.035-3.63v1.257a2.676,2.676,0,0,0,.725,1.894,2.587,2.587,0,0,0,3.894-.224,4.6,4.6,0,0,0,.743-2.786,3.629,3.629,0,0,0-.694-2.355A2.3,2.3,0,0,0,98.253,119a2.554,2.554,0,0,0-2.021.875A3.211,3.211,0,0,0,95.467,122.069Zm9.881-6.354a.913.913,0,0,1-.659-.264.89.89,0,0,1-.272-.668.923.923,0,0,1,.932-.94.931.931,0,0,1,.672.268.939.939,0,0,1,0,1.332A.923.923,0,0,1,105.348,115.715Zm.7,11.285H104.61v-9h1.441Zm4.361,0h-1.441V113.676h1.441Zm3.658-11.285a.913.913,0,0,1-.659-.264.89.89,0,0,1-.272-.668.923.923,0,0,1,.932-.94.931.931,0,0,1,.672.268.939.939,0,0,1,0,1.332A.923.923,0,0,1,114.07,115.715Zm.7,11.285h-1.441v-9h1.441Zm10.6,0h-1.441v-1.529H123.9a3.327,3.327,0,0,1-3.094,1.74A3.362,3.362,0,0,1,118.093,126a4.958,4.958,0,0,1-1.015-3.292,5.394,5.394,0,0,1,1.125-3.577,3.71,3.71,0,0,1,3-1.345,2.885,2.885,0,0,1,2.7,1.459h.035v-5.572h1.441Zm-1.441-4.069V121.6a2.575,2.575,0,0,0-.721-1.846,2.417,2.417,0,0,0-1.828-.756,2.489,2.489,0,0,0-2.074.967,4.237,4.237,0,0,0-.756,2.672,3.81,3.81,0,0,0,.725,2.457,2.37,2.37,0,0,0,1.947.9,2.462,2.462,0,0,0,1.956-.87A3.242,3.242,0,0,0,123.933,122.931Zm10.8,4.069H133.3v-1.406h-.035a3.018,3.018,0,0,1-2.769,1.617,2.959,2.959,0,0,1-2.1-.712,2.466,2.466,0,0,1-.76-1.89q0-2.522,2.971-2.936l2.7-.378q0-2.294-1.854-2.294a4.431,4.431,0,0,0-2.936,1.107v-1.477a5.577,5.577,0,0,1,3.059-.844q3.173,0,3.173,3.357Zm-1.441-4.553-2.171.3a3.525,3.525,0,0,0-1.512.5,1.432,1.432,0,0,0-.51,1.261,1.374,1.374,0,0,0,.47,1.077,1.817,1.817,0,0,0,1.252.417,2.314,2.314,0,0,0,1.771-.751,2.685,2.685,0,0,0,.7-1.9ZM145.136,127h-1.441v-1.529h-.035a3.327,3.327,0,0,1-3.094,1.74A3.362,3.362,0,0,1,137.854,126a4.958,4.958,0,0,1-1.015-3.292,5.394,5.394,0,0,1,1.125-3.577,3.71,3.71,0,0,1,3-1.345,2.885,2.885,0,0,1,2.7,1.459h.035v-5.572h1.441Zm-1.441-4.069V121.6a2.575,2.575,0,0,0-.721-1.846,2.417,2.417,0,0,0-1.828-.756,2.489,2.489,0,0,0-2.074.967,4.237,4.237,0,0,0-.756,2.672,3.81,3.81,0,0,0,.725,2.457,2.37,2.37,0,0,0,1.947.9,2.462,2.462,0,0,0,1.956-.87A3.242,3.242,0,0,0,143.695,122.931Zm4.862,4.263a.933.933,0,0,1-.69-.29.955.955,0,0,1-.286-.694.969.969,0,0,1,.286-.7.926.926,0,0,1,.69-.294.95.95,0,0,1,.7.294.962.962,0,0,1,.29.7.947.947,0,0,1-.29.694A.958.958,0,0,1,148.557,127.193Z" transform="translate(905.701 3198)" fill="#212429"/>
    <g transform="matrix(1, 0, 0, 1, 305.7, 3164)" filter="url(#Trazado_1015669)">
      <path id="Trazado_1015669-2" data-name="Trazado 1015669" d="M142.5,0C221.2,0,285,54.4,285,121.5S221.2,243,142.5,243,0,188.6,0,121.5,63.8,0,142.5,0Z" transform="translate(402 224)" fill="#01899b"/>
    </g>
    <path id="Trazado_1015670" data-name="Trazado 1015670" d="M39.163,32.366a9.778,9.778,0,0,1-7.354-2.937,10.544,10.544,0,0,1-2.842-7.654,11.3,11.3,0,0,1,2.886-8.057A9.991,9.991,0,0,1,39.5,10.643a9.534,9.534,0,0,1,7.273,2.944,10.855,10.855,0,0,1,2.776,7.764,11.118,11.118,0,0,1-2.878,7.983A9.879,9.879,0,0,1,39.163,32.366Zm.205-17.651a4.763,4.763,0,0,0-3.955,1.868,7.787,7.787,0,0,0-1.465,4.944,7.644,7.644,0,0,0,1.465,4.937,5.055,5.055,0,0,0,7.72.051,7.56,7.56,0,0,0,1.436-4.9,8.192,8.192,0,0,0-1.392-5.083A4.537,4.537,0,0,0,39.368,14.715Zm17.9,15.542H57.21V32H52.581V9.793H57.21v9.463h.059a5.493,5.493,0,0,1,4.878-2.622,5.352,5.352,0,0,1,4.468,1.992,8.591,8.591,0,0,1,1.567,5.449A9.3,9.3,0,0,1,66.351,30.1a5.965,5.965,0,0,1-4.893,2.271A4.726,4.726,0,0,1,57.269,30.257Zm-.132-6.328v1.538a3.511,3.511,0,0,0,.835,2.4,2.716,2.716,0,0,0,2.139.952A2.838,2.838,0,0,0,62.564,27.6a5.906,5.906,0,0,0,.872-3.464,4.7,4.7,0,0,0-.8-2.908,2.694,2.694,0,0,0-2.278-1.047,2.943,2.943,0,0,0-2.307,1.04A3.951,3.951,0,0,0,57.137,23.929Zm16.392-9.3a2.7,2.7,0,0,1-1.919-.7,2.242,2.242,0,0,1-.747-1.707,2.162,2.162,0,0,1,.747-1.7,3.133,3.133,0,0,1,3.845,0,2.172,2.172,0,0,1,.74,1.7,2.233,2.233,0,0,1-.74,1.729A2.75,2.75,0,0,1,73.528,14.627Zm2.285,17.109a8.154,8.154,0,0,1-1.626,5.317A5.7,5.7,0,0,1,69.5,39.046a6.481,6.481,0,0,1-2.212-.439V34.974A3.6,3.6,0,0,0,69,35.516q2.183,0,2.183-3.428V17h4.629Zm17.373-5.918H83.4q.234,3.267,4.116,3.267a8.036,8.036,0,0,0,4.351-1.172v3.34a11.429,11.429,0,0,1-5.405,1.113,7.609,7.609,0,0,1-5.64-2.014,7.61,7.61,0,0,1-2.007-5.618,8.027,8.027,0,0,1,2.168-5.918,7.223,7.223,0,0,1,5.332-2.183,6.555,6.555,0,0,1,5.076,1.948,7.5,7.5,0,0,1,1.794,5.288Zm-4.292-2.842q0-3.223-2.607-3.223a2.489,2.489,0,0,0-1.926.923,4.189,4.189,0,0,0-.989,2.3Zm16.113,8.848a6.842,6.842,0,0,1-3.091.542q-4.893,0-4.893-5.083v-6.87H94.593V17h2.432V13.763l4.614-1.318V17h3.369v3.413h-3.369v6.064q0,2.344,1.86,2.344a3.136,3.136,0,0,0,1.509-.425Zm4.951-17.2a2.7,2.7,0,0,1-1.919-.7,2.242,2.242,0,0,1-.747-1.707,2.162,2.162,0,0,1,.747-1.7,3.133,3.133,0,0,1,3.845,0,2.172,2.172,0,0,1,.74,1.7,2.233,2.233,0,0,1-.74,1.729A2.75,2.75,0,0,1,109.959,14.627ZM112.244,32h-4.629V17h4.629Zm18.179-15-5.581,15h-5.273l-5.317-15H119.2l2.607,9.243a13.5,13.5,0,0,1,.513,2.666h.059a15.13,15.13,0,0,1,.542-2.578L125.589,17Zm8.833,15.366a8.063,8.063,0,0,1-5.9-2.1,7.621,7.621,0,0,1-2.146-5.706,7.621,7.621,0,0,1,2.227-5.823,8.413,8.413,0,0,1,6.021-2.1,7.966,7.966,0,0,1,5.859,2.1,7.472,7.472,0,0,1,2.124,5.559,7.932,7.932,0,0,1-2.19,5.9A8.153,8.153,0,0,1,139.256,32.366Zm.117-12.187a3.088,3.088,0,0,0-2.549,1.128,4.974,4.974,0,0,0-.908,3.193q0,4.321,3.486,4.321,3.325,0,3.325-4.438Q142.728,20.179,139.373,20.179ZM149.466,31.6v-3.75a9.855,9.855,0,0,0,2.278,1.025,7.552,7.552,0,0,0,2.146.337,4.6,4.6,0,0,0,1.941-.337,1.088,1.088,0,0,0,.71-1.025.949.949,0,0,0-.322-.732,3,3,0,0,0-.828-.513,9.392,9.392,0,0,0-1.106-.4q-.6-.176-1.157-.4a11.088,11.088,0,0,1-1.575-.725,4.552,4.552,0,0,1-1.143-.9,3.541,3.541,0,0,1-.7-1.187,4.735,4.735,0,0,1-.242-1.6,4.11,4.11,0,0,1,.549-2.168,4.487,4.487,0,0,1,1.465-1.487,6.693,6.693,0,0,1,2.095-.85,10.922,10.922,0,0,1,2.454-.271,13.614,13.614,0,0,1,2.021.154,15.088,15.088,0,0,1,2.021.447v3.574a7.3,7.3,0,0,0-1.882-.769,7.94,7.94,0,0,0-1.97-.256,4.365,4.365,0,0,0-.857.081,2.822,2.822,0,0,0-.71.234,1.3,1.3,0,0,0-.483.4.91.91,0,0,0-.176.549,1.015,1.015,0,0,0,.264.7,2.29,2.29,0,0,0,.688.505,6.8,6.8,0,0,0,.945.381q.52.168,1.033.344a13.427,13.427,0,0,1,1.67.7,5.339,5.339,0,0,1,1.282.894,3.509,3.509,0,0,1,.82,1.2,4.806,4.806,0,0,1-.293,3.918,4.633,4.633,0,0,1-1.538,1.538,6.975,6.975,0,0,1-2.212.864,12.262,12.262,0,0,1-2.6.271A13.4,13.4,0,0,1,149.466,31.6ZM186.2,17,180.11,33.2q-2.2,5.845-6.621,5.845a8.483,8.483,0,0,1-2.769-.381V34.974a3.893,3.893,0,0,0,2.007.542,2.507,2.507,0,0,0,2.49-1.685l.791-1.86L169.915,17h5.127l2.8,9.126a11.859,11.859,0,0,1,.41,2.007h.059a13.993,13.993,0,0,1,.483-1.978L181.619,17ZM21.109,67.458a9.153,9.153,0,0,1-4.526.908,7.655,7.655,0,0,1-5.6-2.095,7.235,7.235,0,0,1-2.139-5.405,7.97,7.97,0,0,1,2.292-6.028,8.472,8.472,0,0,1,6.13-2.2,7.866,7.866,0,0,1,3.838.7v3.926a5.277,5.277,0,0,0-3.237-1.084,4.266,4.266,0,0,0-3.157,1.165,4.345,4.345,0,0,0-1.165,3.215,4.275,4.275,0,0,0,1.113,3.127,4.092,4.092,0,0,0,3.062,1.135,6.11,6.11,0,0,0,3.384-1.084ZM36.622,68h-4.38V65.847h-.059a4.889,4.889,0,0,1-4.468,2.52,4.673,4.673,0,0,1-3.435-1.238,4.435,4.435,0,0,1-1.252-3.3q0-4.365,5.171-5.039l4.072-.542q0-2.461-2.666-2.461a9.1,9.1,0,0,0-5.1,1.6V53.894a11.468,11.468,0,0,1,2.644-.879,13.9,13.9,0,0,1,3.054-.381q6.416,0,6.416,6.4Zm-4.351-6.094V60.9l-2.725.352q-2.256.293-2.256,2.036a1.683,1.683,0,0,0,.549,1.3,2.111,2.111,0,0,0,1.487.505,2.74,2.74,0,0,0,2.124-.9A3.254,3.254,0,0,0,32.271,61.906Zm17.8-4.731a4.015,4.015,0,0,0-1.948-.454,2.807,2.807,0,0,0-2.358,1.106,4.825,4.825,0,0,0-.85,3.01V68H40.284V53h4.629v2.783h.059q1.1-3.047,3.955-3.047a2.981,2.981,0,0,1,1.143.176ZM64.7,68h-4.38V65.847h-.059a4.889,4.889,0,0,1-4.468,2.52,4.673,4.673,0,0,1-3.435-1.238,4.435,4.435,0,0,1-1.252-3.3q0-4.365,5.171-5.039l4.072-.542q0-2.461-2.666-2.461a9.1,9.1,0,0,0-5.1,1.6V53.894a11.468,11.468,0,0,1,2.644-.879,13.9,13.9,0,0,1,3.054-.381q6.416,0,6.416,6.4Zm-4.351-6.094V60.9l-2.725.352q-2.256.293-2.256,2.036a1.683,1.683,0,0,0,.549,1.3,2.111,2.111,0,0,0,1.487.505,2.74,2.74,0,0,0,2.124-.9A3.254,3.254,0,0,0,60.352,61.906Zm19.38,5.552a9.153,9.153,0,0,1-4.526.908,7.655,7.655,0,0,1-5.6-2.095,7.235,7.235,0,0,1-2.139-5.405,7.97,7.97,0,0,1,2.292-6.028,8.472,8.472,0,0,1,6.13-2.2,7.866,7.866,0,0,1,3.838.7v3.926a5.277,5.277,0,0,0-3.237-1.084,4.266,4.266,0,0,0-3.157,1.165,4.345,4.345,0,0,0-1.165,3.215,4.275,4.275,0,0,0,1.113,3.127,4.092,4.092,0,0,0,3.062,1.135,6.11,6.11,0,0,0,3.384-1.084Zm12.1.366a6.842,6.842,0,0,1-3.091.542q-4.893,0-4.893-5.083v-6.87H81.417V53h2.432V49.763l4.614-1.318V53h3.369v3.413H88.462v6.064q0,2.344,1.86,2.344a3.136,3.136,0,0,0,1.509-.425ZM107.8,61.818H98.013q.234,3.267,4.116,3.267a8.036,8.036,0,0,0,4.351-1.172v3.34a11.429,11.429,0,0,1-5.405,1.113,6.982,6.982,0,0,1-7.646-7.632A8.027,8.027,0,0,1,95.6,54.816a7.223,7.223,0,0,1,5.332-2.183A6.555,6.555,0,0,1,106,54.582,7.5,7.5,0,0,1,107.8,59.87Zm-4.292-2.842q0-3.223-2.607-3.223a2.489,2.489,0,0,0-1.926.923,4.189,4.189,0,0,0-.989,2.3Zm16.831-1.8a4.015,4.015,0,0,0-1.948-.454,2.807,2.807,0,0,0-2.358,1.106,4.825,4.825,0,0,0-.85,3.01V68h-4.629V53h4.629v2.783h.059q1.1-3.047,3.955-3.047a2.981,2.981,0,0,1,1.143.176ZM127.12,68h-4.629V53h4.629Zm2.388-22.1-4.585,4.731h-3.34l3.809-4.731Zm.527,21.709v-3.75a9.855,9.855,0,0,0,2.278,1.025,7.552,7.552,0,0,0,2.146.337,4.6,4.6,0,0,0,1.941-.337,1.088,1.088,0,0,0,.71-1.025.949.949,0,0,0-.322-.732,3,3,0,0,0-.828-.513,9.392,9.392,0,0,0-1.106-.4q-.6-.176-1.157-.4a11.088,11.088,0,0,1-1.575-.725,4.552,4.552,0,0,1-1.143-.9,3.541,3.541,0,0,1-.7-1.187,4.735,4.735,0,0,1-.242-1.6,4.11,4.11,0,0,1,.549-2.168,4.487,4.487,0,0,1,1.465-1.487,6.693,6.693,0,0,1,2.095-.85,10.922,10.922,0,0,1,2.454-.271,13.614,13.614,0,0,1,2.021.154,15.088,15.088,0,0,1,2.021.447v3.574a7.3,7.3,0,0,0-1.882-.769,7.94,7.94,0,0,0-1.97-.256,4.365,4.365,0,0,0-.857.081,2.822,2.822,0,0,0-.71.234,1.3,1.3,0,0,0-.483.4.91.91,0,0,0-.176.549,1.015,1.015,0,0,0,.264.7,2.29,2.29,0,0,0,.688.505,6.8,6.8,0,0,0,.945.381q.52.168,1.033.344a13.427,13.427,0,0,1,1.67.7,5.339,5.339,0,0,1,1.282.894,3.509,3.509,0,0,1,.82,1.2,4.806,4.806,0,0,1-.293,3.918,4.633,4.633,0,0,1-1.538,1.538,6.975,6.975,0,0,1-2.212.864,12.262,12.262,0,0,1-2.6.271A13.4,13.4,0,0,1,130.035,67.6Zm23.247.22a6.842,6.842,0,0,1-3.091.542q-4.893,0-4.893-5.083v-6.87h-2.432V53H145.3V49.763l4.614-1.318V53h3.369v3.413h-3.369v6.064q0,2.344,1.86,2.344a3.136,3.136,0,0,0,1.509-.425Zm4.951-17.2a2.7,2.7,0,0,1-1.919-.7,2.242,2.242,0,0,1-.747-1.707,2.162,2.162,0,0,1,.747-1.7,3.133,3.133,0,0,1,3.845,0,2.172,2.172,0,0,1,.74,1.7,2.233,2.233,0,0,1-.74,1.729A2.75,2.75,0,0,1,158.233,50.627ZM160.518,68h-4.629V53h4.629Zm15.264-.542a9.153,9.153,0,0,1-4.526.908,7.655,7.655,0,0,1-5.6-2.095,7.235,7.235,0,0,1-2.139-5.405,7.97,7.97,0,0,1,2.292-6.028,8.472,8.472,0,0,1,6.13-2.2,7.866,7.866,0,0,1,3.838.7v3.926a5.277,5.277,0,0,0-3.237-1.084,4.266,4.266,0,0,0-3.157,1.165,4.345,4.345,0,0,0-1.165,3.215,4.275,4.275,0,0,0,1.113,3.127,4.092,4.092,0,0,0,3.062,1.135,6.11,6.11,0,0,0,3.384-1.084ZM191.294,68h-4.38V65.847h-.059a4.889,4.889,0,0,1-4.468,2.52,4.673,4.673,0,0,1-3.435-1.238,4.435,4.435,0,0,1-1.252-3.3q0-4.365,5.171-5.039l4.072-.542q0-2.461-2.666-2.461a9.1,9.1,0,0,0-5.1,1.6V53.894a11.468,11.468,0,0,1,2.644-.879,13.9,13.9,0,0,1,3.054-.381q6.416,0,6.416,6.4Zm-4.351-6.094V60.9l-2.725.352q-2.256.293-2.256,2.036a1.683,1.683,0,0,0,.549,1.3,2.111,2.111,0,0,0,1.487.505,2.74,2.74,0,0,0,2.124-.9A3.254,3.254,0,0,0,186.944,61.906Zm7.031,5.7v-3.75a9.855,9.855,0,0,0,2.278,1.025,7.552,7.552,0,0,0,2.146.337,4.6,4.6,0,0,0,1.941-.337,1.088,1.088,0,0,0,.71-1.025.949.949,0,0,0-.322-.732,3,3,0,0,0-.828-.513,9.392,9.392,0,0,0-1.106-.4q-.6-.176-1.157-.4a11.088,11.088,0,0,1-1.575-.725,4.552,4.552,0,0,1-1.143-.9,3.541,3.541,0,0,1-.7-1.187,4.735,4.735,0,0,1-.242-1.6,4.11,4.11,0,0,1,.549-2.168,4.487,4.487,0,0,1,1.465-1.487,6.693,6.693,0,0,1,2.095-.85,10.922,10.922,0,0,1,2.454-.271,13.614,13.614,0,0,1,2.021.154,15.088,15.088,0,0,1,2.021.447v3.574a7.3,7.3,0,0,0-1.882-.769,7.94,7.94,0,0,0-1.97-.256,4.365,4.365,0,0,0-.857.081,2.822,2.822,0,0,0-.71.234,1.3,1.3,0,0,0-.483.4.91.91,0,0,0-.176.549,1.015,1.015,0,0,0,.264.7,2.29,2.29,0,0,0,.688.505,6.8,6.8,0,0,0,.945.381q.52.168,1.033.344a13.427,13.427,0,0,1,1.67.7,5.339,5.339,0,0,1,1.282.894,3.509,3.509,0,0,1,.82,1.2,4.806,4.806,0,0,1-.293,3.918,4.633,4.633,0,0,1-1.538,1.538,6.975,6.975,0,0,1-2.212.864,12.262,12.262,0,0,1-2.6.271A13.4,13.4,0,0,1,193.975,67.6ZM61.209,104H56.58v-2.065h-.059a5.19,5.19,0,0,1-4.644,2.432,5.687,5.687,0,0,1-4.526-1.985,8.216,8.216,0,0,1-1.714-5.544,8.943,8.943,0,0,1,1.89-5.962,6.164,6.164,0,0,1,4.951-2.241,4.212,4.212,0,0,1,4.043,2.08h.059V81.793h4.629Zm-4.541-7.295V95.577a3.549,3.549,0,0,0-.85-2.432,3,3,0,0,0-4.614.242,5.612,5.612,0,0,0-.864,3.318,4.856,4.856,0,0,0,.835,3.047,2.964,2.964,0,0,0,4.607-.059A4.7,4.7,0,0,0,56.668,96.705Zm21.914,1.113H68.8q.234,3.267,4.116,3.267a8.036,8.036,0,0,0,4.351-1.172v3.34a11.429,11.429,0,0,1-5.405,1.113,6.982,6.982,0,0,1-7.646-7.632,8.027,8.027,0,0,1,2.168-5.918,7.223,7.223,0,0,1,5.332-2.183,6.555,6.555,0,0,1,5.076,1.948,7.5,7.5,0,0,1,1.794,5.288ZM74.29,94.977q0-3.223-2.607-3.223a2.489,2.489,0,0,0-1.926.923,4.189,4.189,0,0,0-.989,2.3ZM94.241,104H89.612V81.793h4.629Zm16.377,0h-4.38v-2.153h-.059a4.889,4.889,0,0,1-4.468,2.52,4.673,4.673,0,0,1-3.435-1.238,4.435,4.435,0,0,1-1.252-3.3q0-4.365,5.171-5.039l4.072-.542q0-2.461-2.666-2.461a9.1,9.1,0,0,0-5.1,1.6V89.894a11.468,11.468,0,0,1,2.644-.879,13.9,13.9,0,0,1,3.054-.381q6.416,0,6.416,6.4Zm-4.351-6.094V96.9l-2.725.352q-2.256.293-2.256,2.036a1.683,1.683,0,0,0,.549,1.3,2.111,2.111,0,0,0,1.487.505,2.74,2.74,0,0,0,2.124-.9A3.254,3.254,0,0,0,106.268,97.906ZM141.907,104h-4.775l-8.657-13.2a19.086,19.086,0,0,1-1.055-1.743h-.059q.117,1.113.117,3.4V104h-4.468V82.994h5.1l8.335,12.788q.571.864,1.055,1.714h.059a22.459,22.459,0,0,1-.117-2.886V82.994h4.468Zm9.536,0h-4.731V82.994h4.731Zm16.919-17.153H160.95V92h6.812v3.838H160.95V104h-4.731V82.994h12.144Z" transform="translate(743.701 3454)" fill="#fff"/>
    <g transform="matrix(1, 0, 0, 1, 305.7, 3164)" filter="url(#Trazado_1015671)">
      <path id="Trazado_1015671-2" data-name="Trazado 1015671" d="M10,0H512a10,10,0,0,1,10,10V173a10,10,0,0,1-10,10H10A10,10,0,0,1,0,173V10A10,10,0,0,1,10,0Z" transform="translate(9 6)" fill="#cbe7ea"/>
    </g>
    <path id="Trazado_1015672" data-name="Trazado 1015672" d="M6.768,19.22a5.867,5.867,0,0,1-4.412-1.762A6.327,6.327,0,0,1,.65,12.865,6.779,6.779,0,0,1,2.382,8.031,6,6,0,0,1,6.97,6.186a5.721,5.721,0,0,1,4.364,1.767A6.513,6.513,0,0,1,13,12.61a6.671,6.671,0,0,1-1.727,4.79A5.928,5.928,0,0,1,6.768,19.22ZM6.891,8.629A2.858,2.858,0,0,0,4.518,9.75a4.672,4.672,0,0,0-.879,2.966,4.586,4.586,0,0,0,.879,2.962,2.816,2.816,0,0,0,2.3,1.09,2.844,2.844,0,0,0,2.329-1.059,4.536,4.536,0,0,0,.861-2.94,4.915,4.915,0,0,0-.835-3.05A2.722,2.722,0,0,0,6.891,8.629ZM15.093,19V6.4h4.588a5.729,5.729,0,0,1,3.243.773,2.488,2.488,0,0,1,1.134,2.18,2.58,2.58,0,0,1-.69,1.784A3.625,3.625,0,0,1,21.605,12.2v.035a3.493,3.493,0,0,1,2.149.993,2.778,2.778,0,0,1,.8,2.013,3.364,3.364,0,0,1-1.239,2.747A5.186,5.186,0,0,1,19.935,19ZM17.931,8.488v2.988H19.18a2.08,2.08,0,0,0,1.384-.426,1.453,1.453,0,0,0,.505-1.173q0-1.389-2.074-1.389Zm0,5.1v3.322H19.47a2.367,2.367,0,0,0,1.542-.457A1.527,1.527,0,0,0,21.57,15.2a1.425,1.425,0,0,0-.549-1.187,2.43,2.43,0,0,0-1.534-.431ZM31.89,14a5.723,5.723,0,0,1-1.173,3.876,4.266,4.266,0,0,1-3.4,1.345,4.835,4.835,0,0,1-1.837-.343V16.214a2.637,2.637,0,0,0,1.635.554q1.942,0,1.942-2.883V6.4h2.83Zm10.32,5H34.652V6.4H41.92V8.708h-4.43v2.8h4.122v2.3H37.491V16.7h4.72ZM53.243,8.708H49.648V19H46.8V8.708H43.223V6.4h10.02ZM57.78,19H54.941V6.4H57.78ZM71.141,6.4,66.8,19H63.582L59.293,6.4h3.059l2.628,8.771a6.282,6.282,0,0,1,.255,1.257h.053a7.1,7.1,0,0,1,.272-1.292L68.17,6.4Zm6.8,12.823a5.867,5.867,0,0,1-4.412-1.762,6.327,6.327,0,0,1-1.705-4.592,6.779,6.779,0,0,1,1.731-4.834,6,6,0,0,1,4.588-1.846,5.721,5.721,0,0,1,4.364,1.767,6.513,6.513,0,0,1,1.666,4.658A6.671,6.671,0,0,1,82.45,17.4,5.928,5.928,0,0,1,77.945,19.22Zm.123-10.591A2.858,2.858,0,0,0,75.7,9.75a4.672,4.672,0,0,0-.879,2.966,4.586,4.586,0,0,0,.879,2.962,3.033,3.033,0,0,0,4.632.031,4.536,4.536,0,0,0,.861-2.94,4.915,4.915,0,0,0-.835-3.05A2.722,2.722,0,0,0,78.068,8.629Zm7.622,9.888V15.7a5.4,5.4,0,0,0,1.661.962,5.34,5.34,0,0,0,1.811.321,4.015,4.015,0,0,0,.936-.1,2.193,2.193,0,0,0,.668-.268,1.169,1.169,0,0,0,.4-.4,1.009,1.009,0,0,0,.132-.505,1.092,1.092,0,0,0-.211-.659,2.27,2.27,0,0,0-.576-.536,6.015,6.015,0,0,0-.866-.475q-.5-.229-1.081-.466a5.517,5.517,0,0,1-2.2-1.5,3.281,3.281,0,0,1-.725-2.145,3.416,3.416,0,0,1,.4-1.692A3.359,3.359,0,0,1,87.11,7.073,4.828,4.828,0,0,1,88.687,6.4a8.106,8.106,0,0,1,1.9-.215A11.418,11.418,0,0,1,92.33,6.3a6.861,6.861,0,0,1,1.4.365V9.3a4.239,4.239,0,0,0-.69-.387,5.466,5.466,0,0,0-.769-.277,5.866,5.866,0,0,0-.787-.163,5.567,5.567,0,0,0-.743-.053,3.873,3.873,0,0,0-.879.092,2.254,2.254,0,0,0-.668.259,1.29,1.29,0,0,0-.422.4.948.948,0,0,0-.149.523,1,1,0,0,0,.167.567,1.916,1.916,0,0,0,.475.475,5.037,5.037,0,0,0,.747.439q.439.215.993.444a11.067,11.067,0,0,1,1.358.672,4.827,4.827,0,0,1,1.033.8,3.133,3.133,0,0,1,.659,1.024,3.618,3.618,0,0,1,.229,1.34,3.59,3.59,0,0,1-.4,1.771,3.247,3.247,0,0,1-1.085,1.16,4.707,4.707,0,0,1-1.6.637,9.219,9.219,0,0,1-1.92.193,10.678,10.678,0,0,1-1.973-.176A5.956,5.956,0,0,1,85.69,18.517ZM7.313,60.115V73H4.544V63.244A3.315,3.315,0,0,1,4,63.626a5.58,5.58,0,0,1-.664.325,5.925,5.925,0,0,1-.729.246,5.328,5.328,0,0,1-.747.145V62A11.549,11.549,0,0,0,3.9,61.2a11.6,11.6,0,0,0,1.731-1.081Zm5.451,13.1a1.62,1.62,0,0,1-1.143-.422,1.356,1.356,0,0,1-.457-1.037,1.306,1.306,0,0,1,.47-1.037,1.736,1.736,0,0,1,1.173-.4,1.671,1.671,0,0,1,1.165.409,1.415,1.415,0,0,1-.009,2.083A1.742,1.742,0,0,1,12.764,73.22ZM23.3,68.236V73H21.82V60.4h3.463a4.571,4.571,0,0,1,3.133.984,3.515,3.515,0,0,1,1.112,2.777,3.82,3.82,0,0,1-1.235,2.936,4.718,4.718,0,0,1-3.335,1.143Zm0-6.5V66.9h1.547a3.458,3.458,0,0,0,2.333-.7,2.474,2.474,0,0,0,.8-1.973q0-2.5-2.953-2.5ZM36.4,65.459a1.763,1.763,0,0,0-1.09-.29,1.839,1.839,0,0,0-1.542.87,4.023,4.023,0,0,0-.62,2.373V73H31.709V64h1.441v1.854h.035a3.143,3.143,0,0,1,.94-1.481,2.144,2.144,0,0,1,1.415-.532,2.353,2.353,0,0,1,.861.123Zm5.328,7.752a4.175,4.175,0,0,1-3.186-1.261,4.672,4.672,0,0,1-1.191-3.344,4.867,4.867,0,0,1,1.239-3.542,4.455,4.455,0,0,1,3.349-1.274,4.037,4.037,0,0,1,3.142,1.239,4.914,4.914,0,0,1,1.129,3.437A4.835,4.835,0,0,1,45,71.915,4.265,4.265,0,0,1,41.731,73.211ZM41.836,65a2.742,2.742,0,0,0-2.2.945,3.88,3.88,0,0,0-.809,2.606,3.67,3.67,0,0,0,.817,2.522A2.778,2.778,0,0,0,41.836,72a2.635,2.635,0,0,0,2.149-.905,3.928,3.928,0,0,0,.751-2.575,4,4,0,0,0-.751-2.6A2.623,2.623,0,0,0,41.836,65Zm13.757-1-3.586,9H50.592l-3.41-9h1.582l2.285,6.539a5.869,5.869,0,0,1,.316,1.257H51.4a5.943,5.943,0,0,1,.281-1.222L54.072,64Zm8.782,4.86H58.02a3.366,3.366,0,0,0,.809,2.32A2.788,2.788,0,0,0,60.956,72a4.422,4.422,0,0,0,2.795-1V72.35a5.224,5.224,0,0,1-3.138.861,3.8,3.8,0,0,1-3-1.226,5.018,5.018,0,0,1-1.09-3.45,4.921,4.921,0,0,1,1.191-3.423,3.819,3.819,0,0,1,2.958-1.323,3.384,3.384,0,0,1,2.733,1.143,4.764,4.764,0,0,1,.967,3.173ZM62.9,67.639a2.933,2.933,0,0,0-.6-1.942A2.051,2.051,0,0,0,60.648,65a2.328,2.328,0,0,0-1.731.729,3.31,3.31,0,0,0-.879,1.907ZM73.79,68.86H67.435a3.366,3.366,0,0,0,.809,2.32A2.788,2.788,0,0,0,70.371,72a4.422,4.422,0,0,0,2.795-1V72.35a5.224,5.224,0,0,1-3.138.861,3.8,3.8,0,0,1-3-1.226,5.018,5.018,0,0,1-1.09-3.45,4.921,4.921,0,0,1,1.191-3.423,3.819,3.819,0,0,1,2.958-1.323,3.384,3.384,0,0,1,2.733,1.143A4.764,4.764,0,0,1,73.79,68.1Zm-1.477-1.222a2.933,2.933,0,0,0-.6-1.942A2.051,2.051,0,0,0,70.063,65a2.328,2.328,0,0,0-1.731.729,3.31,3.31,0,0,0-.879,1.907Zm8.351-2.18a1.763,1.763,0,0,0-1.09-.29,1.839,1.839,0,0,0-1.542.87,4.023,4.023,0,0,0-.62,2.373V73H75.971V64h1.441v1.854h.035a3.143,3.143,0,0,1,.94-1.481,2.144,2.144,0,0,1,1.415-.532,2.353,2.353,0,0,1,.861.123ZM87.9,61.715a.913.913,0,0,1-.659-.264.89.89,0,0,1-.272-.668.923.923,0,0,1,.932-.94.931.931,0,0,1,.672.268.939.939,0,0,1,0,1.332A.923.923,0,0,1,87.9,61.715ZM88.6,73H87.163V64H88.6ZM99,73H97.554V67.867Q97.554,65,95.462,65a2.269,2.269,0,0,0-1.789.813,3.013,3.013,0,0,0-.708,2.052V73H91.525V64h1.441v1.494H93a3.248,3.248,0,0,1,2.953-1.705,2.753,2.753,0,0,1,2.259.954A4.248,4.248,0,0,1,99,67.5Zm7.165-12.059a1.92,1.92,0,0,0-.958-.237q-1.512,0-1.512,1.907V64H105.8v1.23H103.69V73h-1.433V65.23H100.72V64h1.538V62.541a3.032,3.032,0,0,1,.817-2.237,2.759,2.759,0,0,1,2.039-.822,2.824,2.824,0,0,1,1.046.158Zm4.95,12.27a4.175,4.175,0,0,1-3.186-1.261,4.672,4.672,0,0,1-1.191-3.344,4.867,4.867,0,0,1,1.239-3.542,4.455,4.455,0,0,1,3.349-1.274,4.037,4.037,0,0,1,3.142,1.239,4.914,4.914,0,0,1,1.129,3.437,4.835,4.835,0,0,1-1.217,3.45A4.265,4.265,0,0,1,111.11,73.211ZM111.216,65a2.742,2.742,0,0,0-2.2.945,3.88,3.88,0,0,0-.809,2.606,3.67,3.67,0,0,0,.817,2.522,2.778,2.778,0,0,0,2.188.923,2.635,2.635,0,0,0,2.149-.905,3.928,3.928,0,0,0,.751-2.575,4,4,0,0,0-.751-2.6A2.623,2.623,0,0,0,111.216,65Zm11.375.457a1.763,1.763,0,0,0-1.09-.29,1.839,1.839,0,0,0-1.542.87,4.023,4.023,0,0,0-.62,2.373V73H117.9V64h1.441v1.854h.035a3.143,3.143,0,0,1,.94-1.481,2.144,2.144,0,0,1,1.415-.532,2.353,2.353,0,0,1,.861.123ZM136.936,73h-1.441V67.832a3.9,3.9,0,0,0-.461-2.162A1.75,1.75,0,0,0,133.482,65a1.921,1.921,0,0,0-1.569.844,3.228,3.228,0,0,0-.646,2.021V73h-1.441V67.656q0-2.654-2.048-2.654a1.9,1.9,0,0,0-1.564.8,3.288,3.288,0,0,0-.615,2.07V73h-1.441V64H125.6v1.424h.035a3.058,3.058,0,0,1,2.795-1.635,2.6,2.6,0,0,1,2.549,1.863,3.212,3.212,0,0,1,2.988-1.863q2.971,0,2.971,3.665Zm9.169,0h-1.441V71.594h-.035a3.018,3.018,0,0,1-2.769,1.617,2.959,2.959,0,0,1-2.1-.712,2.466,2.466,0,0,1-.76-1.89q0-2.522,2.971-2.936l2.7-.378q0-2.294-1.854-2.294a4.431,4.431,0,0,0-2.936,1.107V64.633a5.577,5.577,0,0,1,3.059-.844q3.173,0,3.173,3.357Zm-1.441-4.553-2.171.3a3.525,3.525,0,0,0-1.512.5,1.432,1.432,0,0,0-.51,1.261,1.374,1.374,0,0,0,.47,1.077,1.817,1.817,0,0,0,1.252.417,2.314,2.314,0,0,0,1.771-.751,2.685,2.685,0,0,0,.7-1.9Zm10.294,4.14a4.684,4.684,0,0,1-2.461.624,4.074,4.074,0,0,1-3.107-1.252,4.539,4.539,0,0,1-1.182-3.248,4.99,4.99,0,0,1,1.274-3.573,4.458,4.458,0,0,1,3.4-1.349,4.735,4.735,0,0,1,2.092.439v1.477a3.665,3.665,0,0,0-2.145-.7,2.9,2.9,0,0,0-2.263.989,3.752,3.752,0,0,0-.883,2.6,3.573,3.573,0,0,0,.831,2.5,2.863,2.863,0,0,0,2.228.914,3.613,3.613,0,0,0,2.215-.782Zm2.92-10.872a.913.913,0,0,1-.659-.264.89.89,0,0,1-.272-.668.923.923,0,0,1,.932-.94.931.931,0,0,1,.672.268.939.939,0,0,1,0,1.332A.923.923,0,0,1,157.877,61.715ZM158.58,73h-1.441V64h1.441Zm6.681.211a4.175,4.175,0,0,1-3.186-1.261,4.672,4.672,0,0,1-1.191-3.344,4.867,4.867,0,0,1,1.239-3.542,4.455,4.455,0,0,1,3.349-1.274,4.037,4.037,0,0,1,3.142,1.239,4.914,4.914,0,0,1,1.129,3.437,4.835,4.835,0,0,1-1.217,3.45A4.265,4.265,0,0,1,165.262,73.211ZM165.367,65a2.742,2.742,0,0,0-2.2.945,3.88,3.88,0,0,0-.809,2.606,3.67,3.67,0,0,0,.817,2.522,2.778,2.778,0,0,0,2.188.923,2.635,2.635,0,0,0,2.149-.905,3.928,3.928,0,0,0,.751-2.575,4,4,0,0,0-.751-2.6A2.623,2.623,0,0,0,165.367,65Zm2.109-5.59-2.3,2.883h-1.116l1.96-2.883ZM179.519,73h-1.441V67.867q0-2.865-2.092-2.865a2.269,2.269,0,0,0-1.789.813,3.013,3.013,0,0,0-.708,2.052V73h-1.441V64h1.441v1.494h.035a3.248,3.248,0,0,1,2.953-1.705,2.753,2.753,0,0,1,2.259.954,4.248,4.248,0,0,1,.782,2.755Zm14.927,0h-1.441V71.576h-.035a2.96,2.96,0,0,1-2.777,1.635q-3.217,0-3.217-3.832V64h1.433v5.15q0,2.848,2.18,2.848a2.205,2.205,0,0,0,1.736-.778,2.976,2.976,0,0,0,.681-2.035V64h1.441Zm-1.354-13.588-2.3,2.883h-1.116l1.96-2.883Zm8.439,13.5a2.779,2.779,0,0,1-1.345.281q-2.364,0-2.364-2.637V65.23h-1.547V64h1.547V61.8l1.441-.466V64h2.268v1.23h-2.268V70.3a2.1,2.1,0,0,0,.308,1.292,1.228,1.228,0,0,0,1.02.387,1.515,1.515,0,0,0,.94-.3Zm2.665-11.2a.913.913,0,0,1-.659-.264.89.89,0,0,1-.272-.668.923.923,0,0,1,.932-.94.931.931,0,0,1,.672.268.939.939,0,0,1,0,1.332A.923.923,0,0,1,204.2,61.715ZM204.9,73h-1.441V64H204.9Zm4.361,0H207.82V59.676h1.441Zm9.329-1.3h-.035v5.44h-1.441V64h1.441v1.582h.035a3.408,3.408,0,0,1,3.111-1.793A3.3,3.3,0,0,1,224.418,65a5.005,5.005,0,0,1,.976,3.239,5.578,5.578,0,0,1-1.1,3.617,3.658,3.658,0,0,1-3.006,1.358A3.011,3.011,0,0,1,218.59,71.7Zm-.035-3.63v1.257a2.676,2.676,0,0,0,.725,1.894A2.587,2.587,0,0,0,223.174,71a4.6,4.6,0,0,0,.743-2.786,3.629,3.629,0,0,0-.694-2.355A2.3,2.3,0,0,0,221.341,65a2.554,2.554,0,0,0-2.021.875A3.211,3.211,0,0,0,218.555,68.069ZM234.14,73H232.7V71.594h-.035a3.018,3.018,0,0,1-2.769,1.617,2.959,2.959,0,0,1-2.1-.712,2.466,2.466,0,0,1-.76-1.89q0-2.522,2.971-2.936l2.7-.378Q232.7,65,230.844,65a4.431,4.431,0,0,0-2.936,1.107V64.633a5.577,5.577,0,0,1,3.059-.844q3.173,0,3.173,3.357ZM232.7,68.447l-2.171.3a3.525,3.525,0,0,0-1.512.5,1.432,1.432,0,0,0-.51,1.261,1.374,1.374,0,0,0,.47,1.077,1.817,1.817,0,0,0,1.252.417A2.314,2.314,0,0,0,232,71.247a2.685,2.685,0,0,0,.7-1.9Zm8.852-2.988a1.763,1.763,0,0,0-1.09-.29,1.839,1.839,0,0,0-1.542.87,4.023,4.023,0,0,0-.62,2.373V73h-1.441V64H238.3v1.854h.035a3.143,3.143,0,0,1,.94-1.481,2.144,2.144,0,0,1,1.415-.532,2.353,2.353,0,0,1,.861.123ZM249.56,73h-1.441V71.594h-.035a3.018,3.018,0,0,1-2.769,1.617,2.959,2.959,0,0,1-2.1-.712,2.466,2.466,0,0,1-.76-1.89q0-2.522,2.971-2.936l2.7-.378q0-2.294-1.854-2.294a4.431,4.431,0,0,0-2.936,1.107V64.633a5.577,5.577,0,0,1,3.059-.844q3.173,0,3.173,3.357Zm-1.441-4.553-2.171.3a3.525,3.525,0,0,0-1.512.5,1.432,1.432,0,0,0-.51,1.261,1.374,1.374,0,0,0,.47,1.077,1.817,1.817,0,0,0,1.252.417,2.314,2.314,0,0,0,1.771-.751,2.685,2.685,0,0,0,.7-1.9ZM258.651,73H257.21V59.676h1.441Zm9.362,0h-1.441V71.594h-.035a3.018,3.018,0,0,1-2.769,1.617,2.959,2.959,0,0,1-2.1-.712,2.466,2.466,0,0,1-.76-1.89q0-2.522,2.971-2.936l2.7-.378q0-2.294-1.854-2.294a4.431,4.431,0,0,0-2.936,1.107V64.633a5.577,5.577,0,0,1,3.059-.844q3.173,0,3.173,3.357Zm-1.441-4.553-2.171.3a3.525,3.525,0,0,0-1.512.5,1.432,1.432,0,0,0-.51,1.261,1.374,1.374,0,0,0,.47,1.077A1.817,1.817,0,0,0,264.1,72a2.314,2.314,0,0,0,1.771-.751,2.685,2.685,0,0,0,.7-1.9Zm13.266,4.465a2.779,2.779,0,0,1-1.345.281q-2.364,0-2.364-2.637V65.23h-1.547V64h1.547V61.8l1.441-.466V64h2.268v1.23h-2.268V70.3a2.1,2.1,0,0,0,.308,1.292,1.228,1.228,0,0,0,1.02.387,1.515,1.515,0,0,0,.94-.3Zm5.688.3a4.175,4.175,0,0,1-3.186-1.261,4.672,4.672,0,0,1-1.191-3.344,4.867,4.867,0,0,1,1.239-3.542,4.455,4.455,0,0,1,3.349-1.274,4.037,4.037,0,0,1,3.142,1.239,4.914,4.914,0,0,1,1.129,3.437,4.835,4.835,0,0,1-1.217,3.45A4.265,4.265,0,0,1,285.527,73.211ZM285.632,65a2.742,2.742,0,0,0-2.2.945,3.88,3.88,0,0,0-.809,2.606,3.67,3.67,0,0,0,.817,2.522,2.778,2.778,0,0,0,2.188.923,2.635,2.635,0,0,0,2.149-.905,3.928,3.928,0,0,0,.751-2.575,4,4,0,0,0-.751-2.6A2.623,2.623,0,0,0,285.632,65Zm19.461,8h-1.441V67.832a3.9,3.9,0,0,0-.461-2.162A1.75,1.75,0,0,0,301.639,65a1.921,1.921,0,0,0-1.569.844,3.228,3.228,0,0,0-.646,2.021V73h-1.441V67.656q0-2.654-2.048-2.654a1.9,1.9,0,0,0-1.564.8,3.288,3.288,0,0,0-.615,2.07V73h-1.441V64h1.441v1.424h.035a3.058,3.058,0,0,1,2.795-1.635,2.6,2.6,0,0,1,2.549,1.863,3.212,3.212,0,0,1,2.988-1.863q2.971,0,2.971,3.665Zm9.169,0H312.82V71.594h-.035a3.018,3.018,0,0,1-2.769,1.617,2.959,2.959,0,0,1-2.1-.712,2.466,2.466,0,0,1-.76-1.89q0-2.522,2.971-2.936l2.7-.378q0-2.294-1.854-2.294a4.431,4.431,0,0,0-2.936,1.107V64.633a5.577,5.577,0,0,1,3.059-.844q3.173,0,3.173,3.357Zm-1.441-4.553-2.171.3a3.525,3.525,0,0,0-1.512.5,1.432,1.432,0,0,0-.51,1.261,1.374,1.374,0,0,0,.47,1.077A1.817,1.817,0,0,0,310.35,72a2.314,2.314,0,0,0,1.771-.751,2.685,2.685,0,0,0,.7-1.9ZM329.593,73h-1.441V71.471h-.035a3.327,3.327,0,0,1-3.094,1.74A3.362,3.362,0,0,1,322.312,72a4.958,4.958,0,0,1-1.015-3.292,5.394,5.394,0,0,1,1.125-3.577,3.71,3.71,0,0,1,3-1.345,2.885,2.885,0,0,1,2.7,1.459h.035V59.676h1.441Zm-1.441-4.069V67.6a2.575,2.575,0,0,0-.721-1.846A2.417,2.417,0,0,0,325.6,65a2.489,2.489,0,0,0-2.074.967,4.237,4.237,0,0,0-.756,2.672A3.81,3.81,0,0,0,323.5,71.1a2.37,2.37,0,0,0,1.947.9,2.462,2.462,0,0,0,1.956-.87A3.242,3.242,0,0,0,328.152,68.931Zm11.595-.07h-6.354a3.366,3.366,0,0,0,.809,2.32,2.788,2.788,0,0,0,2.127.817,4.422,4.422,0,0,0,2.795-1V72.35a5.224,5.224,0,0,1-3.138.861,3.8,3.8,0,0,1-3-1.226,5.018,5.018,0,0,1-1.09-3.45,4.921,4.921,0,0,1,1.191-3.423,3.819,3.819,0,0,1,2.958-1.323,3.384,3.384,0,0,1,2.733,1.143,4.764,4.764,0,0,1,.967,3.173Zm-1.477-1.222a2.933,2.933,0,0,0-.6-1.942A2.051,2.051,0,0,0,336.02,65a2.328,2.328,0,0,0-1.731.729,3.31,3.31,0,0,0-.879,1.907ZM354.542,73H353.1V71.471h-.035a3.327,3.327,0,0,1-3.094,1.74A3.362,3.362,0,0,1,347.26,72a4.958,4.958,0,0,1-1.015-3.292,5.394,5.394,0,0,1,1.125-3.577,3.71,3.71,0,0,1,3-1.345,2.885,2.885,0,0,1,2.7,1.459h.035V59.676h1.441ZM353.1,68.931V67.6a2.575,2.575,0,0,0-.721-1.846A2.417,2.417,0,0,0,350.552,65a2.489,2.489,0,0,0-2.074.967,4.237,4.237,0,0,0-.756,2.672,3.81,3.81,0,0,0,.725,2.457,2.37,2.37,0,0,0,1.947.9,2.462,2.462,0,0,0,1.956-.87A3.242,3.242,0,0,0,353.1,68.931Zm11.595-.07h-6.354a3.366,3.366,0,0,0,.809,2.32,2.788,2.788,0,0,0,2.127.817,4.422,4.422,0,0,0,2.795-1V72.35a5.224,5.224,0,0,1-3.138.861,3.8,3.8,0,0,1-3-1.226,5.018,5.018,0,0,1-1.09-3.45,4.921,4.921,0,0,1,1.191-3.423A3.819,3.819,0,0,1,361,63.789a3.384,3.384,0,0,1,2.733,1.143A4.764,4.764,0,0,1,364.7,68.1Zm-1.477-1.222a2.933,2.933,0,0,0-.6-1.942A2.051,2.051,0,0,0,360.969,65a2.328,2.328,0,0,0-1.731.729,3.31,3.31,0,0,0-.879,1.907Zm9.793,4.948a4.684,4.684,0,0,1-2.461.624,4.074,4.074,0,0,1-3.107-1.252,4.539,4.539,0,0,1-1.182-3.248,4.99,4.99,0,0,1,1.274-3.573,4.458,4.458,0,0,1,3.4-1.349,4.735,4.735,0,0,1,2.092.439v1.477a3.665,3.665,0,0,0-2.145-.7,2.9,2.9,0,0,0-2.263.989,3.752,3.752,0,0,0-.883,2.6,3.573,3.573,0,0,0,.831,2.5A2.863,2.863,0,0,0,370.8,72a3.613,3.613,0,0,0,2.215-.782Zm2.92-10.872a.913.913,0,0,1-.659-.264.89.89,0,0,1-.272-.668.923.923,0,0,1,.932-.94.931.931,0,0,1,.672.268.939.939,0,0,1,0,1.332A.923.923,0,0,1,375.931,61.715Zm.7,11.285h-1.441V64h1.441Zm2.375-.325V71.128A4.266,4.266,0,0,0,381.6,72q1.9,0,1.9-1.266a1.1,1.1,0,0,0-.163-.611,1.62,1.62,0,0,0-.439-.444,3.383,3.383,0,0,0-.65-.347q-.374-.154-.8-.321a10.357,10.357,0,0,1-1.05-.479,3.173,3.173,0,0,1-.756-.545,2.028,2.028,0,0,1-.457-.69,2.441,2.441,0,0,1-.154-.905,2.15,2.15,0,0,1,.29-1.121,2.572,2.572,0,0,1,.773-.817,3.607,3.607,0,0,1,1.1-.5,4.893,4.893,0,0,1,1.279-.167,5.164,5.164,0,0,1,2.092.4v1.459a4.077,4.077,0,0,0-2.285-.65,2.671,2.671,0,0,0-.729.092,1.786,1.786,0,0,0-.558.259,1.2,1.2,0,0,0-.36.4,1.053,1.053,0,0,0-.127.514,1.233,1.233,0,0,0,.127.589,1.3,1.3,0,0,0,.374.422,2.855,2.855,0,0,0,.6.334q.352.149.8.325a11.131,11.131,0,0,1,1.072.47,3.678,3.678,0,0,1,.809.545,2.129,2.129,0,0,1,.514.7,2.254,2.254,0,0,1,.18.94,2.217,2.217,0,0,1-.294,1.16,2.523,2.523,0,0,1-.787.817,3.6,3.6,0,0,1-1.134.483,5.6,5.6,0,0,1-1.345.158A5.106,5.106,0,0,1,379.009,72.675Zm8.923-10.96a.913.913,0,0,1-.659-.264.89.89,0,0,1-.272-.668.923.923,0,0,1,.932-.94.931.931,0,0,1,.672.268.939.939,0,0,1,0,1.332A.923.923,0,0,1,387.932,61.715Zm.7,11.285h-1.441V64h1.441Zm6.681.211a4.175,4.175,0,0,1-3.186-1.261,4.672,4.672,0,0,1-1.191-3.344,4.867,4.867,0,0,1,1.239-3.542,4.455,4.455,0,0,1,3.349-1.274,4.037,4.037,0,0,1,3.142,1.239,4.914,4.914,0,0,1,1.129,3.437,4.835,4.835,0,0,1-1.217,3.45A4.265,4.265,0,0,1,395.317,73.211ZM395.422,65a2.742,2.742,0,0,0-2.2.945,3.88,3.88,0,0,0-.809,2.606,3.67,3.67,0,0,0,.817,2.522,2.778,2.778,0,0,0,2.188.923,2.635,2.635,0,0,0,2.149-.905,3.928,3.928,0,0,0,.751-2.575,4,4,0,0,0-.751-2.6A2.623,2.623,0,0,0,395.422,65Zm14.152,8h-1.441V67.867q0-2.865-2.092-2.865a2.269,2.269,0,0,0-1.789.813,3.013,3.013,0,0,0-.708,2.052V73H402.1V64h1.441v1.494h.035a3.248,3.248,0,0,1,2.953-1.705,2.753,2.753,0,0,1,2.259.954,4.248,4.248,0,0,1,.782,2.755Zm9.951-4.14h-6.354a3.366,3.366,0,0,0,.809,2.32,2.788,2.788,0,0,0,2.127.817,4.422,4.422,0,0,0,2.795-1V72.35a5.224,5.224,0,0,1-3.138.861,3.8,3.8,0,0,1-3-1.226,5.018,5.018,0,0,1-1.09-3.45,4.921,4.921,0,0,1,1.191-3.423,3.819,3.819,0,0,1,2.958-1.323,3.384,3.384,0,0,1,2.733,1.143,4.764,4.764,0,0,1,.967,3.173Zm-1.477-1.222a2.933,2.933,0,0,0-.6-1.942A2.051,2.051,0,0,0,415.8,65a2.328,2.328,0,0,0-1.731.729,3.31,3.31,0,0,0-.879,1.907Zm3.113,5.036V71.128a4.266,4.266,0,0,0,2.593.87q1.9,0,1.9-1.266a1.1,1.1,0,0,0-.163-.611,1.62,1.62,0,0,0-.439-.444,3.383,3.383,0,0,0-.65-.347q-.374-.154-.8-.321a10.357,10.357,0,0,1-1.05-.479,3.173,3.173,0,0,1-.756-.545,2.028,2.028,0,0,1-.457-.69,2.441,2.441,0,0,1-.154-.905,2.15,2.15,0,0,1,.29-1.121,2.572,2.572,0,0,1,.773-.817,3.607,3.607,0,0,1,1.1-.5,4.893,4.893,0,0,1,1.279-.167,5.164,5.164,0,0,1,2.092.4v1.459a4.077,4.077,0,0,0-2.285-.65,2.671,2.671,0,0,0-.729.092,1.786,1.786,0,0,0-.558.259,1.2,1.2,0,0,0-.36.4,1.053,1.053,0,0,0-.127.514,1.233,1.233,0,0,0,.127.589,1.3,1.3,0,0,0,.374.422,2.855,2.855,0,0,0,.6.334q.352.149.8.325a11.131,11.131,0,0,1,1.072.47,3.678,3.678,0,0,1,.809.545,2.129,2.129,0,0,1,.514.7,2.254,2.254,0,0,1,.18.94,2.217,2.217,0,0,1-.294,1.16,2.523,2.523,0,0,1-.787.817,3.6,3.6,0,0,1-1.134.483,5.6,5.6,0,0,1-1.345.158A5.106,5.106,0,0,1,421.162,72.675Zm8.685.519a.933.933,0,0,1-.69-.29.955.955,0,0,1-.286-.694.969.969,0,0,1,.286-.7.926.926,0,0,1,.69-.294.95.95,0,0,1,.7.294.962.962,0,0,1,.29.7.947.947,0,0,1-.29.694A.958.958,0,0,1,429.847,73.193ZM3.771,97.7H9.114V100H.729v-.949a4.418,4.418,0,0,1,.325-1.736,5.76,5.76,0,0,1,.817-1.38,7.09,7.09,0,0,1,1.077-1.081q.584-.47,1.112-.848.554-.4.971-.756a5.534,5.534,0,0,0,.7-.716,2.723,2.723,0,0,0,.426-.721,2.143,2.143,0,0,0,.141-.778,1.563,1.563,0,0,0-.457-1.222,2.032,2.032,0,0,0-1.4-.413,4.694,4.694,0,0,0-3.111,1.292V88.249a6.679,6.679,0,0,1,3.709-1.063,5.478,5.478,0,0,1,1.718.25,3.635,3.635,0,0,1,1.288.716,3.055,3.055,0,0,1,.8,1.129,3.811,3.811,0,0,1,.277,1.481,4.176,4.176,0,0,1-.268,1.547,4.753,4.753,0,0,1-.712,1.23,6.458,6.458,0,0,1-1.024,1.015q-.58.461-1.2.892-.422.3-.813.593a7.707,7.707,0,0,0-.69.58,3.149,3.149,0,0,0-.475.558A.963.963,0,0,0,3.771,97.7Zm8.993,2.522a1.62,1.62,0,0,1-1.143-.422,1.356,1.356,0,0,1-.457-1.037,1.306,1.306,0,0,1,.47-1.037,1.736,1.736,0,0,1,1.173-.4,1.671,1.671,0,0,1,1.165.409,1.415,1.415,0,0,1-.009,2.083A1.742,1.742,0,0,1,12.764,100.22ZM23.3,95.236V100H21.82V87.4h3.463a4.571,4.571,0,0,1,3.133.984,3.515,3.515,0,0,1,1.112,2.777,3.82,3.82,0,0,1-1.235,2.936,4.718,4.718,0,0,1-3.335,1.143Zm0-6.5V93.9h1.547a3.458,3.458,0,0,0,2.333-.7,2.474,2.474,0,0,0,.8-1.973q0-2.5-2.953-2.5ZM36.4,92.459a1.763,1.763,0,0,0-1.09-.29,1.839,1.839,0,0,0-1.542.87,4.023,4.023,0,0,0-.62,2.373V100H31.709V91h1.441v1.854h.035a3.143,3.143,0,0,1,.94-1.481,2.144,2.144,0,0,1,1.415-.532,2.353,2.353,0,0,1,.861.123Zm5.328,7.752a4.175,4.175,0,0,1-3.186-1.261,4.672,4.672,0,0,1-1.191-3.344,4.867,4.867,0,0,1,1.239-3.542,4.455,4.455,0,0,1,3.349-1.274,4.037,4.037,0,0,1,3.142,1.239,4.914,4.914,0,0,1,1.129,3.437A4.835,4.835,0,0,1,45,98.915,4.265,4.265,0,0,1,41.731,100.211ZM41.836,92a2.742,2.742,0,0,0-2.2.945,3.88,3.88,0,0,0-.809,2.606,3.67,3.67,0,0,0,.817,2.522A2.778,2.778,0,0,0,41.836,99a2.635,2.635,0,0,0,2.149-.905,3.928,3.928,0,0,0,.751-2.575,4,4,0,0,0-.751-2.6A2.623,2.623,0,0,0,41.836,92ZM61.3,100H59.856V94.832a3.9,3.9,0,0,0-.461-2.162A1.75,1.75,0,0,0,57.843,92a1.921,1.921,0,0,0-1.569.844,3.228,3.228,0,0,0-.646,2.021V100H54.187V94.656Q54.187,92,52.139,92a1.9,1.9,0,0,0-1.564.8,3.288,3.288,0,0,0-.615,2.07V100H48.518V91h1.441v1.424h.035a3.058,3.058,0,0,1,2.795-1.635,2.6,2.6,0,0,1,2.549,1.863,3.212,3.212,0,0,1,2.988-1.863q2.971,0,2.971,3.665Zm6.488.211A4.175,4.175,0,0,1,64.6,98.95a4.672,4.672,0,0,1-1.191-3.344,4.867,4.867,0,0,1,1.239-3.542A4.455,4.455,0,0,1,68,90.789a4.037,4.037,0,0,1,3.142,1.239,4.914,4.914,0,0,1,1.129,3.437,4.835,4.835,0,0,1-1.217,3.45A4.265,4.265,0,0,1,67.785,100.211ZM67.891,92a2.742,2.742,0,0,0-2.2.945,3.88,3.88,0,0,0-.809,2.606,3.67,3.67,0,0,0,.817,2.522A2.778,2.778,0,0,0,67.891,99a2.635,2.635,0,0,0,2.149-.905,3.929,3.929,0,0,0,.751-2.575,4,4,0,0,0-.751-2.6A2.623,2.623,0,0,0,67.891,92Zm13.757-1-3.586,9H76.646l-3.41-9h1.582L77.1,97.539A5.869,5.869,0,0,1,77.42,98.8h.035a5.943,5.943,0,0,1,.281-1.222L80.127,91Zm8.782,4.86H84.075a3.366,3.366,0,0,0,.809,2.32A2.788,2.788,0,0,0,87.01,99a4.422,4.422,0,0,0,2.795-1V99.35a5.224,5.224,0,0,1-3.138.861,3.8,3.8,0,0,1-3-1.226,5.018,5.018,0,0,1-1.09-3.45,4.921,4.921,0,0,1,1.191-3.423,3.819,3.819,0,0,1,2.958-1.323,3.384,3.384,0,0,1,2.733,1.143,4.764,4.764,0,0,1,.967,3.173Zm-1.477-1.222a2.933,2.933,0,0,0-.6-1.942A2.051,2.051,0,0,0,86.7,92a2.328,2.328,0,0,0-1.731.729,3.31,3.31,0,0,0-.879,1.907Zm8.351-2.18a1.763,1.763,0,0,0-1.09-.29,1.839,1.839,0,0,0-1.542.87,4.023,4.023,0,0,0-.62,2.373V100H92.611V91h1.441v1.854h.035a3.143,3.143,0,0,1,.94-1.481,2.144,2.144,0,0,1,1.415-.532,2.353,2.353,0,0,1,.861.123Zm7.94,7.541H103.8V86.676h1.441Zm9.362,0h-1.441V98.594h-.035a3.018,3.018,0,0,1-2.769,1.617,2.959,2.959,0,0,1-2.1-.712,2.466,2.466,0,0,1-.76-1.89q0-2.522,2.971-2.936l2.7-.378q0-2.294-1.854-2.294a4.431,4.431,0,0,0-2.936,1.107V91.633a5.577,5.577,0,0,1,3.059-.844q3.173,0,3.173,3.357Zm-1.441-4.553-2.171.3a3.525,3.525,0,0,0-1.512.5,1.432,1.432,0,0,0-.51,1.261,1.374,1.374,0,0,0,.47,1.077A1.817,1.817,0,0,0,110.7,99a2.314,2.314,0,0,0,1.771-.751,2.685,2.685,0,0,0,.7-1.9Zm15.226,4.14a4.684,4.684,0,0,1-2.461.624,4.074,4.074,0,0,1-3.107-1.252,4.539,4.539,0,0,1-1.182-3.248,4.99,4.99,0,0,1,1.274-3.573,4.458,4.458,0,0,1,3.4-1.349,4.735,4.735,0,0,1,2.092.439v1.477a3.665,3.665,0,0,0-2.145-.7,2.9,2.9,0,0,0-2.263.989,3.752,3.752,0,0,0-.883,2.6,3.573,3.573,0,0,0,.831,2.5,2.863,2.863,0,0,0,2.228.914,3.613,3.613,0,0,0,2.215-.782Zm5.943.624a4.175,4.175,0,0,1-3.186-1.261,4.672,4.672,0,0,1-1.191-3.344,4.867,4.867,0,0,1,1.239-3.542,4.455,4.455,0,0,1,3.349-1.274,4.037,4.037,0,0,1,3.142,1.239,4.914,4.914,0,0,1,1.129,3.437,4.835,4.835,0,0,1-1.217,3.45A4.265,4.265,0,0,1,134.334,100.211ZM134.44,92a2.742,2.742,0,0,0-2.2.945,3.88,3.88,0,0,0-.809,2.606,3.67,3.67,0,0,0,.817,2.522A2.778,2.778,0,0,0,134.44,99a2.635,2.635,0,0,0,2.149-.905,3.928,3.928,0,0,0,.751-2.575,4,4,0,0,0-.751-2.6A2.623,2.623,0,0,0,134.44,92Zm19.461,8h-1.441V94.832A3.9,3.9,0,0,0,152,92.67,1.75,1.75,0,0,0,150.447,92a1.921,1.921,0,0,0-1.569.844,3.228,3.228,0,0,0-.646,2.021V100H146.79V94.656q0-2.654-2.048-2.654a1.9,1.9,0,0,0-1.564.8,3.288,3.288,0,0,0-.615,2.07V100h-1.441V91h1.441v1.424h.035a3.058,3.058,0,0,1,2.795-1.635,2.6,2.6,0,0,1,2.549,1.863,3.212,3.212,0,0,1,2.988-1.863q2.971,0,2.971,3.665Zm4.2-1.3h-.035v5.44h-1.441V91h1.441v1.582h.035a3.408,3.408,0,0,1,3.111-1.793A3.3,3.3,0,0,1,163.931,92a5.005,5.005,0,0,1,.976,3.239,5.578,5.578,0,0,1-1.1,3.617,3.658,3.658,0,0,1-3.006,1.358A3.011,3.011,0,0,1,158.1,98.7Zm-.035-3.63v1.257a2.676,2.676,0,0,0,.725,1.894A2.587,2.587,0,0,0,162.687,98a4.6,4.6,0,0,0,.743-2.786,3.629,3.629,0,0,0-.694-2.355A2.3,2.3,0,0,0,160.855,92a2.554,2.554,0,0,0-2.021.875A3.211,3.211,0,0,0,158.069,95.069ZM173.653,100h-1.441V98.594h-.035a3.018,3.018,0,0,1-2.769,1.617,2.959,2.959,0,0,1-2.1-.712,2.466,2.466,0,0,1-.76-1.89q0-2.522,2.971-2.936l2.7-.378q0-2.294-1.854-2.294a4.431,4.431,0,0,0-2.936,1.107V91.633a5.577,5.577,0,0,1,3.059-.844q3.173,0,3.173,3.357Zm-1.441-4.553-2.171.3a3.525,3.525,0,0,0-1.512.5,1.432,1.432,0,0,0-.51,1.261,1.374,1.374,0,0,0,.47,1.077,1.817,1.817,0,0,0,1.252.417,2.314,2.314,0,0,0,1.771-.751,2.685,2.685,0,0,0,.7-1.9Zm8.852-2.988a1.763,1.763,0,0,0-1.09-.29,1.839,1.839,0,0,0-1.542.87,4.023,4.023,0,0,0-.62,2.373V100h-1.441V91h1.441v1.854h.035a3.143,3.143,0,0,1,.94-1.481,2.144,2.144,0,0,1,1.415-.532,2.353,2.353,0,0,1,.861.123ZM189.073,100h-1.441V98.594H187.6a3.018,3.018,0,0,1-2.769,1.617,2.959,2.959,0,0,1-2.1-.712,2.466,2.466,0,0,1-.76-1.89q0-2.522,2.971-2.936l2.7-.378q0-2.294-1.854-2.294a4.431,4.431,0,0,0-2.936,1.107V91.633a5.577,5.577,0,0,1,3.059-.844q3.173,0,3.173,3.357Zm-1.441-4.553-2.171.3a3.525,3.525,0,0,0-1.512.5,1.432,1.432,0,0,0-.51,1.261,1.374,1.374,0,0,0,.47,1.077,1.817,1.817,0,0,0,1.252.417,2.314,2.314,0,0,0,1.771-.751,2.685,2.685,0,0,0,.7-1.9Zm5.636,3.252h-.035V100h-1.441V86.676h1.441v5.906h.035a3.408,3.408,0,0,1,3.111-1.793A3.3,3.3,0,0,1,199.09,92a4.99,4.99,0,0,1,.98,3.239,5.578,5.578,0,0,1-1.1,3.617,3.658,3.658,0,0,1-3.006,1.358A2.96,2.96,0,0,1,193.267,98.7Zm-.035-3.63v1.257a2.676,2.676,0,0,0,.725,1.894A2.587,2.587,0,0,0,197.851,98a4.6,4.6,0,0,0,.743-2.786,3.629,3.629,0,0,0-.694-2.355A2.3,2.3,0,0,0,196.018,92a2.554,2.554,0,0,0-2.021.875A3.211,3.211,0,0,0,193.232,95.069Zm9.881-6.354a.913.913,0,0,1-.659-.264.89.89,0,0,1-.272-.668.923.923,0,0,1,.932-.94.931.931,0,0,1,.672.268.939.939,0,0,1,0,1.332A.923.923,0,0,1,203.113,88.715Zm.7,11.285h-1.441V91h1.441Zm4.361,0h-1.441V86.676h1.441Zm3.658-11.285a.913.913,0,0,1-.659-.264.89.89,0,0,1-.272-.668.923.923,0,0,1,.932-.94.931.931,0,0,1,.672.268.939.939,0,0,1,0,1.332A.923.923,0,0,1,211.835,88.715Zm.7,11.285H211.1V91h1.441Zm10.6,0H221.7V98.471h-.035a3.327,3.327,0,0,1-3.094,1.74A3.362,3.362,0,0,1,215.858,99a4.958,4.958,0,0,1-1.015-3.292,5.394,5.394,0,0,1,1.125-3.577,3.71,3.71,0,0,1,3-1.345,2.885,2.885,0,0,1,2.7,1.459h.035V86.676h1.441ZM221.7,95.931V94.6a2.575,2.575,0,0,0-.721-1.846A2.417,2.417,0,0,0,219.149,92a2.489,2.489,0,0,0-2.074.967,4.237,4.237,0,0,0-.756,2.672,3.81,3.81,0,0,0,.725,2.457,2.37,2.37,0,0,0,1.947.9,2.462,2.462,0,0,0,1.956-.87A3.242,3.242,0,0,0,221.7,95.931ZM232.5,100H231.06V98.594h-.035a3.018,3.018,0,0,1-2.769,1.617,2.959,2.959,0,0,1-2.1-.712,2.466,2.466,0,0,1-.76-1.89q0-2.522,2.971-2.936l2.7-.378q0-2.294-1.854-2.294a4.431,4.431,0,0,0-2.936,1.107V91.633a5.577,5.577,0,0,1,3.059-.844q3.173,0,3.173,3.357Zm-1.441-4.553-2.171.3a3.525,3.525,0,0,0-1.512.5,1.432,1.432,0,0,0-.51,1.261,1.374,1.374,0,0,0,.47,1.077,1.817,1.817,0,0,0,1.252.417,2.314,2.314,0,0,0,1.771-.751,2.685,2.685,0,0,0,.7-1.9ZM242.9,100H241.46V98.471h-.035a3.327,3.327,0,0,1-3.094,1.74A3.362,3.362,0,0,1,235.619,99a4.958,4.958,0,0,1-1.015-3.292,5.394,5.394,0,0,1,1.125-3.577,3.71,3.71,0,0,1,3-1.345,2.885,2.885,0,0,1,2.7,1.459h.035V86.676H242.9Zm-1.441-4.069V94.6a2.575,2.575,0,0,0-.721-1.846A2.417,2.417,0,0,0,238.911,92a2.489,2.489,0,0,0-2.074.967,4.237,4.237,0,0,0-.756,2.672,3.81,3.81,0,0,0,.725,2.457,2.37,2.37,0,0,0,1.947.9,2.462,2.462,0,0,0,1.956-.87A3.242,3.242,0,0,0,241.46,95.931Zm16.527-.07h-6.355a3.366,3.366,0,0,0,.809,2.32,2.788,2.788,0,0,0,2.127.817,4.422,4.422,0,0,0,2.795-1V99.35a5.224,5.224,0,0,1-3.138.861,3.8,3.8,0,0,1-3-1.226,5.018,5.018,0,0,1-1.09-3.45,4.921,4.921,0,0,1,1.191-3.423,3.819,3.819,0,0,1,2.958-1.323,3.384,3.384,0,0,1,2.733,1.143,4.764,4.764,0,0,1,.967,3.173Zm-1.477-1.222a2.933,2.933,0,0,0-.6-1.942A2.051,2.051,0,0,0,254.26,92a2.328,2.328,0,0,0-1.731.729,3.31,3.31,0,0,0-.879,1.907ZM267.639,100H266.2V94.867Q266.2,92,264.106,92a2.269,2.269,0,0,0-1.789.813,3.013,3.013,0,0,0-.708,2.052V100h-1.441V91h1.441v1.494h.035a3.248,3.248,0,0,1,2.953-1.705,2.753,2.753,0,0,1,2.259.954,4.248,4.248,0,0,1,.782,2.755Zm9.091,0h-1.441V86.676h1.441Zm9.362,0h-1.441V98.594h-.035a3.018,3.018,0,0,1-2.769,1.617,2.959,2.959,0,0,1-2.1-.712,2.466,2.466,0,0,1-.76-1.89q0-2.522,2.971-2.936l2.7-.378Q284.651,92,282.8,92a4.431,4.431,0,0,0-2.936,1.107V91.633a5.577,5.577,0,0,1,3.059-.844q3.173,0,3.173,3.357Zm-1.441-4.553-2.171.3a3.525,3.525,0,0,0-1.512.5,1.432,1.432,0,0,0-.51,1.261,1.374,1.374,0,0,0,.47,1.077,1.817,1.817,0,0,0,1.252.417,2.314,2.314,0,0,0,1.771-.751,2.685,2.685,0,0,0,.7-1.9Zm3.614,4.228V98.128a4.266,4.266,0,0,0,2.593.87q1.9,0,1.9-1.266a1.1,1.1,0,0,0-.163-.611,1.62,1.62,0,0,0-.439-.444,3.383,3.383,0,0,0-.65-.347q-.374-.154-.8-.321a10.357,10.357,0,0,1-1.05-.479,3.173,3.173,0,0,1-.756-.545,2.028,2.028,0,0,1-.457-.69,2.441,2.441,0,0,1-.154-.905,2.15,2.15,0,0,1,.29-1.121,2.572,2.572,0,0,1,.773-.817,3.607,3.607,0,0,1,1.1-.5,4.893,4.893,0,0,1,1.279-.167,5.164,5.164,0,0,1,2.092.4v1.459a4.077,4.077,0,0,0-2.285-.65,2.671,2.671,0,0,0-.729.092,1.786,1.786,0,0,0-.558.259,1.2,1.2,0,0,0-.36.4,1.053,1.053,0,0,0-.127.514,1.233,1.233,0,0,0,.127.589,1.3,1.3,0,0,0,.374.422,2.855,2.855,0,0,0,.6.334q.352.149.8.325a11.131,11.131,0,0,1,1.072.47,3.678,3.678,0,0,1,.809.545,2.129,2.129,0,0,1,.514.7,2.254,2.254,0,0,1,.18.94,2.217,2.217,0,0,1-.294,1.16,2.523,2.523,0,0,1-.787.817,3.6,3.6,0,0,1-1.134.483,5.6,5.6,0,0,1-1.345.158A5.106,5.106,0,0,1,288.265,99.675Zm20.35-3.814h-6.354a3.366,3.366,0,0,0,.809,2.32A2.788,2.788,0,0,0,305.2,99a4.422,4.422,0,0,0,2.795-1V99.35a5.224,5.224,0,0,1-3.138.861,3.8,3.8,0,0,1-3-1.226,5.018,5.018,0,0,1-1.09-3.45,4.921,4.921,0,0,1,1.191-3.423,3.819,3.819,0,0,1,2.958-1.323,3.384,3.384,0,0,1,2.733,1.143,4.764,4.764,0,0,1,.967,3.173Zm-1.477-1.222a2.933,2.933,0,0,0-.6-1.942A2.051,2.051,0,0,0,304.889,92a2.328,2.328,0,0,0-1.731.729,3.31,3.31,0,0,0-.879,1.907ZM323.576,100h-1.441V94.832a3.9,3.9,0,0,0-.461-2.162A1.75,1.75,0,0,0,320.122,92a1.921,1.921,0,0,0-1.569.844,3.228,3.228,0,0,0-.646,2.021V100h-1.441V94.656q0-2.654-2.048-2.654a1.9,1.9,0,0,0-1.564.8,3.288,3.288,0,0,0-.615,2.07V100H310.8V91h1.441v1.424h.035a3.058,3.058,0,0,1,2.795-1.635,2.6,2.6,0,0,1,2.549,1.863,3.212,3.212,0,0,1,2.988-1.863q2.971,0,2.971,3.665Zm4.2-1.3h-.035v5.44H326.3V91h1.441v1.582h.035a3.408,3.408,0,0,1,3.111-1.793A3.3,3.3,0,0,1,333.606,92a5.005,5.005,0,0,1,.976,3.239,5.578,5.578,0,0,1-1.1,3.617,3.658,3.658,0,0,1-3.006,1.358A3.011,3.011,0,0,1,327.779,98.7Zm-.035-3.63v1.257a2.676,2.676,0,0,0,.725,1.894A2.587,2.587,0,0,0,332.363,98a4.6,4.6,0,0,0,.743-2.786,3.629,3.629,0,0,0-.694-2.355A2.3,2.3,0,0,0,330.53,92a2.554,2.554,0,0,0-2.021.875A3.211,3.211,0,0,0,327.744,95.069Zm13.836-2.61a1.763,1.763,0,0,0-1.09-.29,1.839,1.839,0,0,0-1.542.87,4.023,4.023,0,0,0-.62,2.373V100h-1.441V91h1.441v1.854h.035a3.143,3.143,0,0,1,.94-1.481,2.144,2.144,0,0,1,1.415-.532,2.353,2.353,0,0,1,.861.123Zm8.8,3.4h-6.354a3.366,3.366,0,0,0,.809,2.32,2.788,2.788,0,0,0,2.127.817,4.422,4.422,0,0,0,2.795-1V99.35a5.224,5.224,0,0,1-3.138.861,3.8,3.8,0,0,1-3-1.226,5.018,5.018,0,0,1-1.09-3.45,4.921,4.921,0,0,1,1.191-3.423,3.819,3.819,0,0,1,2.958-1.323,3.384,3.384,0,0,1,2.733,1.143,4.764,4.764,0,0,1,.967,3.173ZM348.9,94.639a2.933,2.933,0,0,0-.6-1.942A2.051,2.051,0,0,0,346.653,92a2.328,2.328,0,0,0-1.731.729,3.31,3.31,0,0,0-.879,1.907Zm3.113,5.036V98.128a4.266,4.266,0,0,0,2.593.87q1.9,0,1.9-1.266a1.1,1.1,0,0,0-.163-.611,1.62,1.62,0,0,0-.439-.444,3.383,3.383,0,0,0-.65-.347q-.374-.154-.8-.321a10.357,10.357,0,0,1-1.05-.479,3.173,3.173,0,0,1-.756-.545,2.028,2.028,0,0,1-.457-.69,2.441,2.441,0,0,1-.154-.905,2.15,2.15,0,0,1,.29-1.121,2.572,2.572,0,0,1,.773-.817,3.607,3.607,0,0,1,1.1-.5,4.893,4.893,0,0,1,1.279-.167,5.164,5.164,0,0,1,2.092.4v1.459a4.077,4.077,0,0,0-2.285-.65,2.671,2.671,0,0,0-.729.092,1.786,1.786,0,0,0-.558.259,1.2,1.2,0,0,0-.36.4,1.053,1.053,0,0,0-.127.514,1.233,1.233,0,0,0,.127.589,1.3,1.3,0,0,0,.374.422,2.855,2.855,0,0,0,.6.334q.352.149.8.325a11.131,11.131,0,0,1,1.072.47,3.678,3.678,0,0,1,.809.545,2.129,2.129,0,0,1,.514.7,2.254,2.254,0,0,1,.18.94,2.217,2.217,0,0,1-.294,1.16,2.523,2.523,0,0,1-.787.817,3.6,3.6,0,0,1-1.134.483,5.6,5.6,0,0,1-1.345.158A5.106,5.106,0,0,1,352.016,99.675Zm14.627.325H365.2V98.594h-.035a3.018,3.018,0,0,1-2.769,1.617,2.959,2.959,0,0,1-2.1-.712,2.466,2.466,0,0,1-.76-1.89q0-2.522,2.971-2.936l2.7-.378Q365.2,92,363.347,92a4.431,4.431,0,0,0-2.936,1.107V91.633a5.577,5.577,0,0,1,3.059-.844q3.173,0,3.173,3.357ZM365.2,95.447l-2.171.3a3.525,3.525,0,0,0-1.512.5,1.432,1.432,0,0,0-.51,1.261,1.374,1.374,0,0,0,.47,1.077,1.817,1.817,0,0,0,1.252.417,2.314,2.314,0,0,0,1.771-.751,2.685,2.685,0,0,0,.7-1.9Zm3.614,4.228V98.128a4.266,4.266,0,0,0,2.593.87q1.9,0,1.9-1.266a1.1,1.1,0,0,0-.163-.611,1.62,1.62,0,0,0-.439-.444,3.383,3.383,0,0,0-.65-.347q-.374-.154-.8-.321a10.357,10.357,0,0,1-1.05-.479,3.173,3.173,0,0,1-.756-.545,2.028,2.028,0,0,1-.457-.69,2.441,2.441,0,0,1-.154-.905,2.15,2.15,0,0,1,.29-1.121,2.572,2.572,0,0,1,.773-.817,3.607,3.607,0,0,1,1.1-.5,4.893,4.893,0,0,1,1.279-.167,5.164,5.164,0,0,1,2.092.4v1.459a4.077,4.077,0,0,0-2.285-.65,2.671,2.671,0,0,0-.729.092,1.786,1.786,0,0,0-.558.259,1.2,1.2,0,0,0-.36.4,1.053,1.053,0,0,0-.127.514,1.233,1.233,0,0,0,.127.589,1.3,1.3,0,0,0,.374.422,2.855,2.855,0,0,0,.6.334q.352.149.8.325a11.131,11.131,0,0,1,1.072.47,3.678,3.678,0,0,1,.809.545,2.129,2.129,0,0,1,.514.7,2.254,2.254,0,0,1,.18.94,2.217,2.217,0,0,1-.294,1.16,2.523,2.523,0,0,1-.787.817,3.6,3.6,0,0,1-1.134.483,5.6,5.6,0,0,1-1.345.158A5.106,5.106,0,0,1,368.816,99.675Zm8.685.519a.933.933,0,0,1-.69-.29.955.955,0,0,1-.286-.694.969.969,0,0,1,.286-.7.926.926,0,0,1,.69-.294.95.95,0,0,1,.7.294.962.962,0,0,1,.29.7.947.947,0,0,1-.29.694A.958.958,0,0,1,377.5,100.193ZM1.028,126.587V124.17a4.878,4.878,0,0,0,2.953.923,2.659,2.659,0,0,0,1.657-.457,1.517,1.517,0,0,0,.593-1.274,1.449,1.449,0,0,0-.734-1.3A3.8,3.8,0,0,0,3.48,121.6H2.312v-2.127H3.393q2.461,0,2.461-1.635,0-1.538-1.89-1.538a4.308,4.308,0,0,0-2.461.817v-2.268a6.8,6.8,0,0,1,3.094-.668,4.669,4.669,0,0,1,3.01.87,2.769,2.769,0,0,1,1.077,2.259,2.937,2.937,0,0,1-2.5,3.094v.044a3.405,3.405,0,0,1,2.109.971,2.738,2.738,0,0,1,.773,1.973,3.382,3.382,0,0,1-1.292,2.795A5.586,5.586,0,0,1,4.2,127.22,6.9,6.9,0,0,1,1.028,126.587Zm11.735.633a1.62,1.62,0,0,1-1.143-.422,1.356,1.356,0,0,1-.457-1.037,1.306,1.306,0,0,1,.47-1.037,1.736,1.736,0,0,1,1.173-.4,1.671,1.671,0,0,1,1.165.409,1.415,1.415,0,0,1-.009,2.083A1.742,1.742,0,0,1,12.764,127.22Zm18.478-1.081a8.428,8.428,0,0,1-4.219,1.072,5.765,5.765,0,0,1-4.364-1.74,6.383,6.383,0,0,1-1.666-4.605,6.554,6.554,0,0,1,1.85-4.8,6.307,6.307,0,0,1,4.689-1.876,7.979,7.979,0,0,1,3.454.668v1.635a6.633,6.633,0,0,0-3.621-.967,4.524,4.524,0,0,0-3.472,1.459,6.094,6.094,0,0,0-.1,7.537,4.405,4.405,0,0,0,3.41,1.367,5.269,5.269,0,0,0,2.558-.589v-3.533h-2.76v-1.336h4.236Zm9.178.861H38.978v-1.406h-.035a3.018,3.018,0,0,1-2.769,1.617,2.959,2.959,0,0,1-2.1-.712,2.466,2.466,0,0,1-.76-1.89q0-2.522,2.971-2.936l2.7-.378q0-2.294-1.854-2.294a4.431,4.431,0,0,0-2.936,1.107v-1.477a5.577,5.577,0,0,1,3.059-.844q3.173,0,3.173,3.357Zm-1.441-4.553-2.171.3a3.525,3.525,0,0,0-1.512.5,1.432,1.432,0,0,0-.51,1.261,1.374,1.374,0,0,0,.47,1.077,1.817,1.817,0,0,0,1.252.417,2.314,2.314,0,0,0,1.771-.751,2.685,2.685,0,0,0,.7-1.9Zm8.852-2.988a1.763,1.763,0,0,0-1.09-.29,1.839,1.839,0,0,0-1.542.87,4.023,4.023,0,0,0-.62,2.373V127H43.137v-9h1.441v1.854h.035a3.143,3.143,0,0,1,.94-1.481,2.144,2.144,0,0,1,1.415-.532,2.353,2.353,0,0,1,.861.123ZM55.839,127H54.4v-1.406h-.035a3.018,3.018,0,0,1-2.769,1.617,2.959,2.959,0,0,1-2.1-.712,2.466,2.466,0,0,1-.76-1.89q0-2.522,2.971-2.936l2.7-.378Q54.4,119,52.543,119a4.431,4.431,0,0,0-2.936,1.107v-1.477a5.577,5.577,0,0,1,3.059-.844q3.173,0,3.173,3.357ZM54.4,122.447l-2.171.3a3.525,3.525,0,0,0-1.512.5,1.432,1.432,0,0,0-.51,1.261,1.374,1.374,0,0,0,.47,1.077,1.817,1.817,0,0,0,1.252.417,2.314,2.314,0,0,0,1.771-.751,2.685,2.685,0,0,0,.7-1.9ZM66.027,127H64.586v-5.133q0-2.865-2.092-2.865a2.269,2.269,0,0,0-1.789.813A3.013,3.013,0,0,0,60,121.867V127H58.557v-9H60v1.494h.035a3.248,3.248,0,0,1,2.953-1.705,2.753,2.753,0,0,1,2.259.954,4.248,4.248,0,0,1,.782,2.755Zm6.892-.088a2.779,2.779,0,0,1-1.345.281q-2.364,0-2.364-2.637V119.23H67.664V118h1.547v-2.2l1.441-.466V118H72.92v1.23H70.652V124.3a2.1,2.1,0,0,0,.308,1.292,1.228,1.228,0,0,0,1.02.387,1.515,1.515,0,0,0,.94-.3Zm2.665-11.2a.913.913,0,0,1-.659-.264.89.89,0,0,1-.272-.668.923.923,0,0,1,.932-.94.931.931,0,0,1,.672.268.939.939,0,0,1,0,1.332A.923.923,0,0,1,75.585,115.715Zm.7,11.285H74.846v-9h1.441Zm9.2-8.587-5.326,7.356H85.43V127H78.039v-.448l5.326-7.321H78.539V118h6.943ZM93.79,127H92.349v-1.406h-.035a3.018,3.018,0,0,1-2.769,1.617,2.959,2.959,0,0,1-2.1-.712,2.466,2.466,0,0,1-.76-1.89q0-2.522,2.971-2.936l2.7-.378q0-2.294-1.854-2.294a4.431,4.431,0,0,0-2.936,1.107v-1.477a5.577,5.577,0,0,1,3.059-.844q3.173,0,3.173,3.357Zm-1.441-4.553-2.171.3a3.525,3.525,0,0,0-1.512.5,1.432,1.432,0,0,0-.51,1.261,1.374,1.374,0,0,0,.47,1.077,1.817,1.817,0,0,0,1.252.417,2.314,2.314,0,0,0,1.771-.751,2.685,2.685,0,0,0,.7-1.9Zm8.852-2.988a1.763,1.763,0,0,0-1.09-.29,1.839,1.839,0,0,0-1.542.87,4.023,4.023,0,0,0-.62,2.373V127H96.508v-9h1.441v1.854h.035a3.143,3.143,0,0,1,.94-1.481,2.144,2.144,0,0,1,1.415-.532,2.353,2.353,0,0,1,.861.123Zm7.94,7.541H107.7V113.676h1.441Zm9.362,0h-1.441v-1.406h-.035a3.018,3.018,0,0,1-2.769,1.617,2.959,2.959,0,0,1-2.1-.712,2.466,2.466,0,0,1-.76-1.89q0-2.522,2.971-2.936l2.7-.378q0-2.294-1.854-2.294a4.431,4.431,0,0,0-2.936,1.107v-1.477a5.577,5.577,0,0,1,3.059-.844q3.173,0,3.173,3.357Zm-1.441-4.553-2.171.3a3.525,3.525,0,0,0-1.512.5,1.432,1.432,0,0,0-.51,1.261,1.374,1.374,0,0,0,.47,1.077,1.817,1.817,0,0,0,1.252.417,2.314,2.314,0,0,0,1.771-.751,2.685,2.685,0,0,0,.7-1.9Zm13.266,4.465a2.779,2.779,0,0,1-1.345.281q-2.364,0-2.364-2.637V119.23h-1.547V118h1.547v-2.2l1.441-.466V118h2.268v1.23h-2.268V124.3a2.1,2.1,0,0,0,.308,1.292,1.227,1.227,0,0,0,1.02.387,1.515,1.515,0,0,0,.94-.3Zm6.62-7.453a1.763,1.763,0,0,0-1.09-.29,1.839,1.839,0,0,0-1.542.87,4.023,4.023,0,0,0-.62,2.373V127h-1.441v-9H133.7v1.854h.035a3.143,3.143,0,0,1,.94-1.481,2.144,2.144,0,0,1,1.415-.532,2.353,2.353,0,0,1,.861.123ZM144.957,127h-1.441v-1.406h-.035a3.018,3.018,0,0,1-2.769,1.617,2.959,2.959,0,0,1-2.1-.712,2.466,2.466,0,0,1-.76-1.89q0-2.522,2.971-2.936l2.7-.378q0-2.294-1.854-2.294a4.431,4.431,0,0,0-2.936,1.107v-1.477a5.577,5.577,0,0,1,3.059-.844q3.173,0,3.173,3.357Zm-1.441-4.553-2.171.3a3.525,3.525,0,0,0-1.512.5,1.432,1.432,0,0,0-.51,1.261,1.374,1.374,0,0,0,.47,1.077,1.817,1.817,0,0,0,1.252.417,2.314,2.314,0,0,0,1.771-.751,2.685,2.685,0,0,0,.7-1.9ZM155.145,127H153.7v-5.133q0-2.865-2.092-2.865a2.269,2.269,0,0,0-1.789.813,3.013,3.013,0,0,0-.708,2.052V127h-1.441v-9h1.441v1.494h.035a3.248,3.248,0,0,1,2.953-1.705,2.753,2.753,0,0,1,2.259.954,4.248,4.248,0,0,1,.782,2.755Zm2.173-.325v-1.547a4.266,4.266,0,0,0,2.593.87q1.9,0,1.9-1.266a1.1,1.1,0,0,0-.163-.611,1.62,1.62,0,0,0-.439-.444,3.383,3.383,0,0,0-.65-.347q-.374-.154-.8-.321a10.357,10.357,0,0,1-1.05-.479,3.173,3.173,0,0,1-.756-.545,2.028,2.028,0,0,1-.457-.69,2.441,2.441,0,0,1-.154-.905,2.15,2.15,0,0,1,.29-1.121,2.572,2.572,0,0,1,.773-.817,3.607,3.607,0,0,1,1.1-.5,4.893,4.893,0,0,1,1.279-.167,5.164,5.164,0,0,1,2.092.4v1.459a4.077,4.077,0,0,0-2.285-.65,2.671,2.671,0,0,0-.729.092,1.786,1.786,0,0,0-.558.259,1.2,1.2,0,0,0-.36.4,1.053,1.053,0,0,0-.127.514,1.233,1.233,0,0,0,.127.589,1.3,1.3,0,0,0,.374.422,2.855,2.855,0,0,0,.6.334q.352.149.8.325a11.131,11.131,0,0,1,1.072.47,3.678,3.678,0,0,1,.809.545,2.129,2.129,0,0,1,.514.7,2.254,2.254,0,0,1,.18.94,2.217,2.217,0,0,1-.294,1.16,2.523,2.523,0,0,1-.787.817,3.6,3.6,0,0,1-1.134.483,5.6,5.6,0,0,1-1.345.158A5.106,5.106,0,0,1,157.318,126.675Zm9.661-.976h-.035v5.44H165.5V118h1.441v1.582h.035a3.408,3.408,0,0,1,3.111-1.793A3.3,3.3,0,0,1,172.806,119a5.005,5.005,0,0,1,.976,3.239,5.578,5.578,0,0,1-1.1,3.617,3.658,3.658,0,0,1-3.006,1.358A3.011,3.011,0,0,1,166.979,125.7Zm-.035-3.63v1.257a2.676,2.676,0,0,0,.725,1.894,2.587,2.587,0,0,0,3.894-.224,4.6,4.6,0,0,0,.743-2.786,3.629,3.629,0,0,0-.694-2.355A2.3,2.3,0,0,0,169.73,119a2.554,2.554,0,0,0-2.021.875A3.211,3.211,0,0,0,166.944,122.069ZM182.529,127h-1.441v-1.406h-.035a3.018,3.018,0,0,1-2.769,1.617,2.959,2.959,0,0,1-2.1-.712,2.466,2.466,0,0,1-.76-1.89q0-2.522,2.971-2.936l2.7-.378q0-2.294-1.854-2.294a4.431,4.431,0,0,0-2.936,1.107v-1.477a5.577,5.577,0,0,1,3.059-.844q3.173,0,3.173,3.357Zm-1.441-4.553-2.171.3a3.525,3.525,0,0,0-1.512.5,1.432,1.432,0,0,0-.51,1.261,1.374,1.374,0,0,0,.47,1.077,1.817,1.817,0,0,0,1.252.417,2.314,2.314,0,0,0,1.771-.751,2.685,2.685,0,0,0,.7-1.9Zm8.852-2.988a1.763,1.763,0,0,0-1.09-.29,1.839,1.839,0,0,0-1.542.87,4.023,4.023,0,0,0-.62,2.373V127h-1.441v-9h1.441v1.854h.035a3.143,3.143,0,0,1,.94-1.481,2.144,2.144,0,0,1,1.415-.532,2.353,2.353,0,0,1,.861.123Zm8.8,3.4h-6.354a3.366,3.366,0,0,0,.809,2.32,2.788,2.788,0,0,0,2.127.817,4.422,4.422,0,0,0,2.795-1v1.354a5.224,5.224,0,0,1-3.138.861,3.8,3.8,0,0,1-3-1.226,5.018,5.018,0,0,1-1.09-3.45,4.921,4.921,0,0,1,1.191-3.423,3.819,3.819,0,0,1,2.958-1.323,3.384,3.384,0,0,1,2.733,1.143,4.764,4.764,0,0,1,.967,3.173Zm-1.477-1.222a2.933,2.933,0,0,0-.6-1.942,2.051,2.051,0,0,0-1.648-.694,2.328,2.328,0,0,0-1.731.729,3.31,3.31,0,0,0-.879,1.907ZM208.392,127H206.95v-5.133q0-2.865-2.092-2.865a2.269,2.269,0,0,0-1.789.813,3.013,3.013,0,0,0-.708,2.052V127h-1.441v-9h1.441v1.494h.035a3.248,3.248,0,0,1,2.953-1.705,2.753,2.753,0,0,1,2.259.954,4.248,4.248,0,0,1,.782,2.755Zm8.852-.413a4.684,4.684,0,0,1-2.461.624,4.074,4.074,0,0,1-3.107-1.252,4.539,4.539,0,0,1-1.182-3.248,4.99,4.99,0,0,1,1.274-3.573,4.458,4.458,0,0,1,3.4-1.349,4.735,4.735,0,0,1,2.092.439v1.477a3.665,3.665,0,0,0-2.145-.7,2.9,2.9,0,0,0-2.263.989,3.752,3.752,0,0,0-.883,2.6,3.573,3.573,0,0,0,.831,2.5,2.863,2.863,0,0,0,2.228.914,3.613,3.613,0,0,0,2.215-.782Zm2.92-10.872a.913.913,0,0,1-.659-.264.89.89,0,0,1-.272-.668.923.923,0,0,1,.932-.94.931.931,0,0,1,.672.268.939.939,0,0,1,0,1.332A.923.923,0,0,1,220.164,115.715Zm.7,11.285h-1.441v-9h1.441Zm9.362,0h-1.441v-1.406h-.035a3.018,3.018,0,0,1-2.769,1.617,2.959,2.959,0,0,1-2.1-.712,2.466,2.466,0,0,1-.76-1.89q0-2.522,2.971-2.936l2.7-.378q0-2.294-1.854-2.294A4.431,4.431,0,0,0,224,120.109v-1.477a5.577,5.577,0,0,1,3.059-.844q3.173,0,3.173,3.357Zm-1.441-4.553-2.171.3a3.525,3.525,0,0,0-1.512.5,1.432,1.432,0,0,0-.51,1.261,1.374,1.374,0,0,0,.47,1.077,1.817,1.817,0,0,0,1.252.417,2.314,2.314,0,0,0,1.771-.751,2.685,2.685,0,0,0,.7-1.9ZM245.042,118l-4.14,10.441q-1.107,2.795-3.111,2.795a3.3,3.3,0,0,1-.94-.114V129.83a2.672,2.672,0,0,0,.853.158,1.767,1.767,0,0,0,1.635-1.3l.721-1.705L236.543,118h1.6l2.435,6.926q.044.132.185.686h.053q.044-.211.176-.668L243.548,118Zm12.616,8.587a4.683,4.683,0,0,1-2.461.624,4.074,4.074,0,0,1-3.107-1.252,4.539,4.539,0,0,1-1.182-3.248,4.99,4.99,0,0,1,1.274-3.573,4.458,4.458,0,0,1,3.4-1.349,4.735,4.735,0,0,1,2.092.439v1.477a3.665,3.665,0,0,0-2.145-.7,2.9,2.9,0,0,0-2.263.989,3.752,3.752,0,0,0-.883,2.6,3.573,3.573,0,0,0,.831,2.5,2.863,2.863,0,0,0,2.228.914,3.613,3.613,0,0,0,2.215-.782Zm5.943.624a4.175,4.175,0,0,1-3.186-1.261,4.672,4.672,0,0,1-1.191-3.344,4.867,4.867,0,0,1,1.239-3.542,4.455,4.455,0,0,1,3.349-1.274,4.037,4.037,0,0,1,3.142,1.239,4.914,4.914,0,0,1,1.129,3.437,4.835,4.835,0,0,1-1.217,3.45A4.265,4.265,0,0,1,263.6,127.211Zm.105-8.209a2.742,2.742,0,0,0-2.2.945,3.88,3.88,0,0,0-.809,2.606,3.67,3.67,0,0,0,.817,2.522,2.778,2.778,0,0,0,2.188.923,2.635,2.635,0,0,0,2.149-.905,3.928,3.928,0,0,0,.751-2.575,4,4,0,0,0-.751-2.6A2.623,2.623,0,0,0,263.707,119Zm14.152,8h-1.441v-5.133q0-2.865-2.092-2.865a2.269,2.269,0,0,0-1.789.813,3.013,3.013,0,0,0-.708,2.052V127h-1.441v-9h1.441v1.494h.035a3.248,3.248,0,0,1,2.953-1.705,2.753,2.753,0,0,1,2.259.954,4.248,4.248,0,0,1,.782,2.755Zm7.165-12.059a1.92,1.92,0,0,0-.958-.237q-1.512,0-1.512,1.907V118h2.109v1.23h-2.109V127h-1.433v-7.77h-1.538V118h1.538v-1.459a3.032,3.032,0,0,1,.817-2.237,2.759,2.759,0,0,1,2.039-.822,2.824,2.824,0,0,1,1.046.158Zm1.927.773a.913.913,0,0,1-.659-.264.89.89,0,0,1-.272-.668.923.923,0,0,1,.932-.94.931.931,0,0,1,.672.268.939.939,0,0,1,0,1.332A.923.923,0,0,1,286.95,115.715Zm.7,11.285h-1.441v-9h1.441Zm9.362,0h-1.441v-1.406h-.035a3.018,3.018,0,0,1-2.769,1.617,2.959,2.959,0,0,1-2.1-.712,2.466,2.466,0,0,1-.76-1.89q0-2.522,2.971-2.936l2.7-.378q0-2.294-1.854-2.294a4.431,4.431,0,0,0-2.936,1.107v-1.477a5.577,5.577,0,0,1,3.059-.844q3.173,0,3.173,3.357Zm-1.441-4.553-2.171.3a3.525,3.525,0,0,0-1.512.5,1.432,1.432,0,0,0-.51,1.261,1.374,1.374,0,0,0,.47,1.077A1.817,1.817,0,0,0,293.1,126a2.314,2.314,0,0,0,1.771-.751,2.685,2.685,0,0,0,.7-1.9ZM307.2,127h-1.441v-5.133q0-2.865-2.092-2.865a2.269,2.269,0,0,0-1.789.813,3.013,3.013,0,0,0-.708,2.052V127h-1.441v-9h1.441v1.494h.035a3.248,3.248,0,0,1,2.953-1.705,2.753,2.753,0,0,1,2.259.954,4.248,4.248,0,0,1,.782,2.755Zm8.993-8.587-5.326,7.356h5.273V127h-7.392v-.448l5.326-7.321h-4.825V118H316.2ZM324.5,127h-1.441v-1.406h-.035a3.018,3.018,0,0,1-2.769,1.617,2.959,2.959,0,0,1-2.1-.712,2.466,2.466,0,0,1-.76-1.89q0-2.522,2.971-2.936l2.7-.378q0-2.294-1.854-2.294a4.431,4.431,0,0,0-2.936,1.107v-1.477a5.577,5.577,0,0,1,3.059-.844q3.173,0,3.173,3.357Zm-1.441-4.553-2.171.3a3.525,3.525,0,0,0-1.512.5,1.432,1.432,0,0,0-.51,1.261,1.374,1.374,0,0,0,.47,1.077,1.817,1.817,0,0,0,1.252.417,2.314,2.314,0,0,0,1.771-.751,2.685,2.685,0,0,0,.7-1.9Zm4.66,4.746a.933.933,0,0,1-.69-.29.955.955,0,0,1-.286-.694.969.969,0,0,1,.286-.7.926.926,0,0,1,.69-.294.95.95,0,0,1,.7.294.962.962,0,0,1,.29.7.947.947,0,0,1-.29.694A.958.958,0,0,1,327.723,127.193Z" transform="translate(340.701 3196)" fill="#212429"/>
    <g transform="matrix(1, 0, 0, 1, 305.7, 3164)" filter="url(#XMLID_956_)">
      <path id="XMLID_956_3" data-name="XMLID_956_" d="M109.266,169.867,73.241,133.842a10.747,10.747,0,1,1,15.2-15.2l10.95,10.95C103,56.1,53.675,8.312,3.112,7.869a1.623,1.623,0,0,1-.519-3.151C55.156-13.028,121.175,19.248,133.112,103.6q1.6,12.255,2.455,24.762l9.724-9.724a10.746,10.746,0,0,1,15.2,15.2l-36.025,36.025a10.742,10.742,0,0,1-15.2,0Z" transform="matrix(0.26, 0.97, -0.97, 0.26, 805.19, 169.03)" fill="#ed7161"/>
    </g>
    <g transform="matrix(1, 0, 0, 1, 305.7, 3164)" filter="url(#XMLID_956_2)">
      <path id="XMLID_956_4" data-name="XMLID_956_" d="M107.75,3.147,71.725,39.172a10.747,10.747,0,0,0,15.2,15.2l10.95-10.95C101.487,116.915,52.158,164.7,1.6,165.145a1.623,1.623,0,0,0-.519,3.151C53.64,186.042,119.659,153.766,131.6,69.411q1.6-12.255,2.455-24.762l9.724,9.724a10.746,10.746,0,0,0,15.2-15.2L122.947,3.151a10.742,10.742,0,0,0-15.2,0Z" transform="matrix(-0.26, 0.97, -0.97, -0.26, 449, 215.28)" fill="#ed7161"/>
    </g>
  </g>
</svg>
