<svg xmlns="http://www.w3.org/2000/svg" xmlns:xlink="http://www.w3.org/1999/xlink" width="110" height="110" viewBox="0 0 110 110">
  <defs>
    <filter id="Trazado_982547" x="0" y="0" width="110" height="110" filterUnits="userSpaceOnUse">
      <feOffset dy="3" input="SourceAlpha"/>
      <feGaussianBlur stdDeviation="3" result="blur"/>
      <feFlood flood-opacity="0.161"/>
      <feComposite operator="in" in2="blur"/>
      <feComposite in="SourceGraphic"/>
    </filter>
  </defs>
  <g id="Grupo_1171414" data-name="Grupo 1171414" transform="translate(-800.701 -6929)">
    <g id="Grupo_1163801" data-name="Grupo 1163801" transform="translate(-0.299 2285)">
      <g id="Grupo_1163014" data-name="Grupo 1163014" transform="translate(1 306)">
        <g id="Grupo_1157015" data-name="Grupo 1157015" transform="translate(0 3549)">
          <g id="Grupo_1155792" data-name="Grupo 1155792" transform="translate(-1 -3894.666)">
            <g id="Grupo_1154703" data-name="Grupo 1154703" transform="translate(0 1465.666)">
              <g id="Grupo_1150789" data-name="Grupo 1150789" transform="translate(3 2320)">
                <g id="Grupo_1154212" data-name="Grupo 1154212" transform="translate(-236 -5809)">
                  <g id="Grupo_1152583" data-name="Grupo 1152583" transform="translate(1043 6713)">
                    <g id="Grupo_1146973" data-name="Grupo 1146973" transform="translate(0 0)">
                      <g id="Grupo_1146954" data-name="Grupo 1146954">
                        <g transform="matrix(1, 0, 0, 1, -9, -6)" filter="url(#Trazado_982547)">
                          <g id="Trazado_982547-2" data-name="Trazado 982547" transform="translate(9 6)" fill="#e4f2f4">
                            <path d="M 46 90.49987030029297 C 39.99187850952148 90.49987030029297 34.16426849365234 89.32350921630859 28.67905426025391 87.00345611572266 C 23.38019943237305 84.76224517822266 18.62104034423828 81.55341339111328 14.53374671936035 77.46613311767578 C 10.44646644592285 73.37885284423828 7.237639904022217 68.61969757080078 4.996413230895996 63.32085418701172 C 2.676359891891479 57.83565521240234 1.5 52.008056640625 1.5 45.99993515014648 C 1.5 39.99181365966797 2.676359891891479 34.16421508789062 4.996413230895996 28.67901420593262 C 7.237639904022217 23.38017463684082 10.44646644592285 18.62101554870605 14.53374671936035 14.53373527526855 C 18.62104034423828 10.44645500183105 23.38019943237305 7.23762845993042 28.67905426025391 4.996415138244629 C 34.16426849365234 2.676361799240112 39.99187850952148 1.500001788139343 46 1.500001788139343 C 52.00812149047852 1.500001788139343 57.83573150634766 2.676361799240112 63.32094573974609 4.996415138244629 C 68.61979675292969 7.23762845993042 73.37895965576172 10.44645500183105 77.46625518798828 14.53373527526855 C 81.55353546142578 18.62101554870605 84.76235961914062 23.38017463684082 87.00358581542969 28.67901420593262 C 89.32363891601562 34.16421508789062 90.5 39.99181365966797 90.5 45.99993515014648 C 90.5 52.008056640625 89.32363891601562 57.83565521240234 87.00358581542969 63.32085418701172 C 84.76235961914062 68.61969757080078 81.55353546142578 73.37885284423828 77.46625518798828 77.46613311767578 C 73.37895965576172 81.55341339111328 68.61979675292969 84.76224517822266 63.32094573974609 87.00345611572266 C 57.83573150634766 89.32350921630859 52.00812149047852 90.49987030029297 46 90.49987030029297 Z" stroke="none"/>
                            <path d="M 46 2.999992370605469 C 40.1937141418457 2.999992370605469 34.56269836425781 4.136489868164062 29.26337051391602 6.377906799316406 C 24.14332580566406 8.543502807617188 19.54441070556641 11.64437866210938 15.59439849853516 15.59437561035156 C 11.64440155029297 19.54439544677734 8.54351806640625 24.14329528808594 6.377914428710938 29.26333618164062 C 4.136497497558594 34.56264877319336 3 40.19366455078125 3 45.99993515014648 C 3 51.80620574951172 4.136497497558594 57.43720626831055 6.377914428710938 62.73651885986328 C 8.54351806640625 67.8565673828125 11.64440155029297 72.45545959472656 15.59439849853516 76.40547943115234 C 19.54441070556641 80.35547637939453 24.14332580566406 83.45635223388672 29.26337051391602 85.6219482421875 C 34.56269836425781 87.86336517333984 40.1937141418457 88.99986267089844 46 88.99986267089844 C 51.8062858581543 88.99986267089844 57.43730163574219 87.86336517333984 62.73661422729492 85.6219482421875 C 67.85667419433594 83.45635223388672 72.45557403564453 80.35547637939453 76.40558624267578 76.40547943115234 C 80.35559844970703 72.45545959472656 83.45647430419922 67.8565673828125 85.6220703125 62.73651885986328 C 87.86350250244141 57.43720626831055 89 51.80620574951172 89 45.99993515014648 C 89 40.19366455078125 87.86350250244141 34.56264877319336 85.6220703125 29.26333618164062 C 83.45647430419922 24.14329528808594 80.35559844970703 19.54439544677734 76.40558624267578 15.59437561035156 C 72.45557403564453 11.64437866210938 67.85667419433594 8.543502807617188 62.73661422729492 6.377906799316406 C 57.43730163574219 4.136489868164062 51.8062858581543 2.999992370605469 46 2.999992370605469 M 46 -7.62939453125e-06 C 71.40509033203125 -7.62939453125e-06 92 20.59486389160156 92 45.99993515014648 C 92 71.40499114990234 71.40509033203125 91.99986267089844 46 91.99986267089844 C 20.59490203857422 91.99986267089844 0 71.40499114990234 0 45.99993515014648 C 0 20.59486389160156 20.59490203857422 -7.62939453125e-06 46 -7.62939453125e-06 Z" stroke="none" fill="#01899b"/>
                          </g>
                        </g>
                      </g>
                    </g>
                  </g>
                </g>
              </g>
            </g>
          </g>
        </g>
      </g>
    </g>
    <g id="assets_11135334" transform="translate(820.201 6945.402)">
      <g id="Grupo_1171408" data-name="Grupo 1171408" transform="translate(25.437 1.151)">
        <path id="Trazado_1015389" data-name="Trazado 1015389" d="M191.443,25.289A10.344,10.344,0,1,0,181.1,14.948,10.364,10.364,0,0,0,191.443,25.289Z" transform="translate(-181.101 -4.602)" fill="#f0b500" fill-rule="evenodd"/>
      </g>
      <g id="Grupo_1171409" data-name="Grupo 1171409" transform="translate(25.437 50.578)">
        <path id="Trazado_1015390" data-name="Trazado 1015390" d="M191.443,383.258A10.344,10.344,0,1,0,181.1,372.917,10.364,10.364,0,0,0,191.443,383.258Z" transform="translate(-181.101 -362.571)" fill="#2a428c" fill-rule="evenodd"/>
      </g>
      <g id="Grupo_1171410" data-name="Grupo 1171410" transform="translate(49.817 25.535)">
        <path id="Trazado_1015391" data-name="Trazado 1015391" d="M368.019,201.89a10.344,10.344,0,1,0-10.346-10.346A10.364,10.364,0,0,0,368.019,201.89Z" transform="translate(-357.673 -181.203)" fill="#fd646f" fill-rule="evenodd"/>
      </g>
      <g id="Grupo_1171411" data-name="Grupo 1171411" transform="translate(1.674 26.156)">
        <path id="Trazado_1015392" data-name="Trazado 1015392" d="M18.724,205.148A9.722,9.722,0,1,0,9,195.424a9.741,9.741,0,0,0,9.724,9.724Z" transform="translate(-9 -185.703)" fill="#4caf50" fill-rule="evenodd"/>
      </g>
      <path id="Trazado_1015393" data-name="Trazado 1015393" d="M394.643,220.165a4.031,4.031,0,0,0-5.647-.04,4.022,4.022,0,0,0-5.647,5.728l5.007,5.007a.907.907,0,0,0,.641.266h0a.908.908,0,0,0,.641-.266l5-5.007A4.027,4.027,0,0,0,394.643,220.165Z" transform="translate(-328.973 -188.236)" fill="#eaf6ff"/>
      <g id="Grupo_1171412" data-name="Grupo 1171412" transform="translate(26.437 24.146)">
        <path id="Trazado_1015394" data-name="Trazado 1015394" d="M197.686,171.139l-9.342,3.418V185.7c1.5,4.558,4.832,7.209,9.342,8.9,4.51-1.695,7.848-4.346,9.342-8.9V174.557Z" transform="translate(-188.344 -171.139)" fill="#23a8fe" fill-rule="evenodd"/>
      </g>
      <g id="Grupo_1171413" data-name="Grupo 1171413" transform="translate(29.662 29.76)">
        <path id="Trazado_1015395" data-name="Trazado 1015395" d="M217.818,224.036a6.117,6.117,0,1,0-6.117-6.117A6.128,6.128,0,0,0,217.818,224.036Z" transform="translate(-211.701 -211.803)" fill="#eaf6ff" fill-rule="evenodd"/>
      </g>
      <path id="Trazado_1015396" data-name="Trazado 1015396" d="M52.612,219.818l-4.139-2.393a.887.887,0,0,0-.888,0l-4.142,2.393a.887.887,0,0,0-.443.768v6.585a.887.887,0,0,0,.887.887h8.281a.887.887,0,0,0,.887-.887v-6.585A.887.887,0,0,0,52.612,219.818Z" transform="translate(-36.632 -186.786)" fill="#eaf6ff"/>
      <path id="Trazado_1015397" data-name="Trazado 1015397" d="M24.236,57.233a.964.964,0,0,1-1.322.337,25.4,25.4,0,0,1-8.833-8.837.965.965,0,1,1,1.659-.986,23.466,23.466,0,0,0,8.16,8.164A.965.965,0,0,1,24.236,57.233ZM22.922,14.179a25.432,25.432,0,0,0-8.841,8.841.965.965,0,1,0,1.659.986,23.5,23.5,0,0,1,8.168-8.168.965.965,0,1,0-.986-1.659ZM57.138,47.41a.965.965,0,0,0-1.322.337,23.422,23.422,0,0,1-8.159,8.163.965.965,0,1,0,.986,1.659,25.358,25.358,0,0,0,8.833-8.838.965.965,0,0,0-.337-1.322ZM47.649,15.838a23.5,23.5,0,0,1,8.168,8.168.965.965,0,1,0,1.659-.986,25.433,25.433,0,0,0-8.84-8.841.965.965,0,0,0-.986,1.659Zm-.843-4.212A11.026,11.026,0,1,1,35.778.6,11.038,11.038,0,0,1,46.806,11.626Zm-1.93,0a9.1,9.1,0,1,0-9.1,9.094A9.108,9.108,0,0,0,44.876,11.626ZM46.806,60.1A11.026,11.026,0,1,1,35.778,49.076,11.04,11.04,0,0,1,46.806,60.1Zm-1.93,0a9.1,9.1,0,1,0-9.1,9.1A9.106,9.106,0,0,0,44.876,60.1Zm26.18-24.223A11.026,11.026,0,1,1,60.033,24.853,11.038,11.038,0,0,1,71.057,35.876Zm-1.93,0a9.1,9.1,0,1,0-9.094,9.1,9.1,9.1,0,0,0,9.094-9.1ZM11.528,46.9A11.026,11.026,0,1,1,22.551,35.877,11.04,11.04,0,0,1,11.528,46.9Zm9.094-11.028a9.1,9.1,0,1,0-9.094,9.1A9.1,9.1,0,0,0,20.622,35.876ZM36.743,7.993v2.685a3.5,3.5,0,0,1,3.4,3.244,3.5,3.5,0,0,1-3.4,3.248v.951a.965.965,0,1,1-1.93,0v-.934h-.145a3.065,3.065,0,0,1-3.254-2.824.965.965,0,0,1,1.93,0c0,.423.544.895,1.324.895h.145V12.511c-1.523-.194-3.4-.865-3.4-3.186a3.5,3.5,0,0,1,3.4-3.244V5.129a.965.965,0,1,1,1.93,0v.934h.149a3.065,3.065,0,0,1,3.254,2.824.965.965,0,0,1-1.93,0c0-.423-.544-.895-1.324-.895h-.149Zm-1.93,2.566V8.025c-.828.134-1.469.674-1.469,1.3C33.345,9.719,33.346,10.321,34.813,10.559Zm1.93,2.064v2.6c.83-.134,1.473-.676,1.473-1.3S37.573,12.756,36.743,12.623Zm0,46.512V54.092a.965.965,0,0,0-1.93,0v5.043H29.77a.965.965,0,1,0,0,1.93h5.043v5.047a.965.965,0,1,0,1.93,0V61.065h5.043a.965.965,0,1,0,0-1.93ZM19.383,35.418a.964.964,0,0,1-1.318.353l-1.072-.619v5.491a.965.965,0,0,1-.965.965h-9a.965.965,0,0,1-.965-.965V35.152l-1.072.619A.965.965,0,0,1,4.022,34.1l2.037-1.176V31.47a.965.965,0,1,1,1.93,0v.339l3.057-1.765a.965.965,0,0,1,.965,0L19.03,34.1A.965.965,0,0,1,19.383,35.418Zm-4.32-1.381-3.535-2.042L7.989,34.037v5.64h7.074Zm50.977,3.6-5.324,5.328a.965.965,0,0,1-.682.283h0a.965.965,0,0,1-.682-.283l-5.328-5.328a4.28,4.28,0,0,1,6.009-6.1,4.28,4.28,0,0,1,6.009,6.1Zm-1.365-4.688a2.359,2.359,0,0,0-3.323,0l-.635.638a.964.964,0,0,1-.683.285h0a.965.965,0,0,1-.682-.283l-.641-.641a2.35,2.35,0,1,0-3.323,3.323l4.646,4.646,4.642-4.646a2.352,2.352,0,0,0,0-3.323Zm-38.9,5.978a.967.967,0,0,1-.048-.3V27.79a.965.965,0,0,1,.633-.906l9.086-3.324a.965.965,0,0,1,.663,0L45.2,26.884a.965.965,0,0,1,.633.906V38.63a.965.965,0,0,1-.048.3c-1.417,4.324-4.578,7.353-9.664,9.259a.964.964,0,0,1-.677,0c-5.082-1.9-8.243-4.933-9.664-9.259Zm1.881-.458c1.233,3.612,3.822,6.094,8.121,7.78,4.3-1.688,6.892-4.169,8.121-7.78V28.465l-8.121-2.971-8.121,2.971Zm1.207-2.6a6.914,6.914,0,1,1,6.914,6.914A6.922,6.922,0,0,1,28.864,35.876Zm1.93,0a4.985,4.985,0,1,0,4.985-4.985A4.99,4.99,0,0,0,30.794,35.876Zm3.621,3.008h.028a.965.965,0,0,0,.725-.362l3.438-4.3A.965.965,0,1,0,37.1,33.02l-2.728,3.41-.763-.847a.965.965,0,0,0-1.434,1.291L33.7,38.565A.964.964,0,0,0,34.415,38.884Z"/>
    </g>
  </g>
</svg>
