<svg xmlns="http://www.w3.org/2000/svg" xmlns:xlink="http://www.w3.org/1999/xlink" width="113" height="113" viewBox="0 0 113 113">
  <defs>
    <filter id="Trazado_982547" x="0" y="0" width="113" height="113" filterUnits="userSpaceOnUse">
      <feOffset dy="3" input="SourceAlpha"/>
      <feGaussianBlur stdDeviation="3" result="blur"/>
      <feFlood flood-opacity="0.161"/>
      <feComposite operator="in" in2="blur"/>
      <feComposite in="SourceGraphic"/>
    </filter>
  </defs>
  <g id="Grupo_1168922" data-name="Grupo 1168922" transform="translate(-324 -4433)">
    <g id="Grupo_1168621" data-name="Grupo 1168621" transform="translate(0.118 -6386.154)">
      <g id="Grupo_1162127" data-name="Grupo 1162127" transform="translate(332.882 10825.154)">
        <g id="Grupo_1152576" data-name="Grupo 1152576" transform="translate(0)">
          <g id="Grupo_1148633" data-name="Grupo 1148633">
            <g id="Grupo_1148525" data-name="Grupo 1148525">
              <g transform="matrix(1, 0, 0, 1, -9, -6)" filter="url(#Trazado_982547)">
                <g id="Trazado_982547-2" data-name="Trazado 982547" transform="translate(9 6)" fill="#e8edf7">
                  <path d="M 47.5 93.5 C 41.28937149047852 93.5 35.26533508300781 92.28397369384766 29.59518623352051 89.88570404052734 C 24.11771965026855 87.56893157958984 19.19813346862793 84.25196075439453 14.97309303283691 80.02691650390625 C 10.74804019927979 75.80186462402344 7.431066513061523 70.88229370117188 5.114293098449707 65.40481567382812 C 2.716026782989502 59.73468017578125 1.5 53.71062850952148 1.5 47.5 C 1.5 41.28937149047852 2.716026782989502 35.26533508300781 5.114293098449707 29.59518623352051 C 7.431066513061523 24.11771965026855 10.74804019927979 19.19813346862793 14.97309303283691 14.97309303283691 C 19.19813346862793 10.74804019927979 24.11771965026855 7.431066513061523 29.59518623352051 5.114293098449707 C 35.26533508300781 2.716026782989502 41.28937149047852 1.5 47.5 1.5 C 53.71062850952148 1.5 59.73468017578125 2.716026782989502 65.40481567382812 5.114293098449707 C 70.88229370117188 7.431066513061523 75.80186462402344 10.74804019927979 80.02691650390625 14.97309303283691 C 84.25196075439453 19.19813346862793 87.56893157958984 24.11771965026855 89.88570404052734 29.59518623352051 C 92.28397369384766 35.26533508300781 93.5 41.28937149047852 93.5 47.5 C 93.5 53.71062850952148 92.28397369384766 59.73468017578125 89.88570404052734 65.40481567382812 C 87.56893157958984 70.88229370117188 84.25196075439453 75.80186462402344 80.02691650390625 80.02691650390625 C 75.80186462402344 84.25196075439453 70.88229370117188 87.56893157958984 65.40481567382812 89.88570404052734 C 59.73468017578125 92.28397369384766 53.71062850952148 93.5 47.5 93.5 Z" stroke="none"/>
                  <path d="M 47.5 3 C 41.49121475219727 3 35.66376876831055 4.176155090332031 30.17950439453125 6.495796203613281 C 24.88084411621094 8.736953735351562 20.12152099609375 11.94598388671875 16.03375244140625 16.03375244140625 C 11.94598388671875 20.12152099609375 8.736953735351562 24.88084411621094 6.495796203613281 30.17950439453125 C 4.176155090332031 35.66376876831055 3 41.49121475219727 3 47.5 C 3 53.50878524780273 4.176155090332031 59.33623123168945 6.495796203613281 64.82049560546875 C 8.736953735351562 70.11915588378906 11.94598388671875 74.87847900390625 16.03375244140625 78.96624755859375 C 20.12152099609375 83.05401611328125 24.88084411621094 86.26304626464844 30.17950439453125 88.50419616699219 C 35.66376876831055 90.82384490966797 41.49121475219727 92 47.5 92 C 53.50878524780273 92 59.33623123168945 90.82384490966797 64.82049560546875 88.50419616699219 C 70.11915588378906 86.26304626464844 74.87847900390625 83.05401611328125 78.96624755859375 78.96624755859375 C 83.05401611328125 74.87847900390625 86.26304626464844 70.11915588378906 88.50419616699219 64.82049560546875 C 90.82384490966797 59.33623123168945 92 53.50878524780273 92 47.5 C 92 41.49121475219727 90.82384490966797 35.66376876831055 88.50419616699219 30.17950439453125 C 86.26304626464844 24.88084411621094 83.05401611328125 20.12152099609375 78.96624755859375 16.03375244140625 C 74.87847900390625 11.94598388671875 70.11915588378906 8.736953735351562 64.82049560546875 6.495796203613281 C 59.33623123168945 4.176155090332031 53.50878524780273 3 47.5 3 M 47.5 0 C 73.7335205078125 0 95 21.2664794921875 95 47.5 C 95 73.7335205078125 73.7335205078125 95 47.5 95 C 21.2664794921875 95 0 73.7335205078125 0 47.5 C 0 21.2664794921875 21.2664794921875 0 47.5 0 Z" stroke="none" fill="#2e5bb6"/>
                </g>
              </g>
            </g>
          </g>
        </g>
      </g>
    </g>
    <g id="salary" transform="translate(343.203 4457.001)">
      <g id="Grupo_1168920" data-name="Grupo 1168920" transform="translate(8.677 0.886)">
        <g id="Grupo_1168904" data-name="Grupo 1168904" transform="translate(11.64)">
          <g id="Grupo_1168903" data-name="Grupo 1168903" transform="translate(0)">
            <g id="Grupo_1168902" data-name="Grupo 1168902">
              <g id="Grupo_1168899" data-name="Grupo 1168899">
                <g id="Grupo_1168898" data-name="Grupo 1168898">
                  <path id="Trazado_1013688" data-name="Trazado 1013688" d="M137.867,17.812s5.758-7.473,4.1-9.617c-.564-.731-1.046.262-2.212.262-1.371,0-1.371-.9-2.742-.9s-1.371.9-2.742.9-1.371-.9-2.742-.9-1.371.9-2.742.9c-1.168,0-1.648-1.005-2.216-.274-1.656,2.132,4.017,9.629,4.017,9.629-25.058,16.473-16.978,38.876-2.184,38.876H140.14c14.839,0,22.869-22.348-2.273-38.876Z" transform="translate(-114.473 -7.559)" fill="#eabc6b"/>
                </g>
              </g>
              <g id="Grupo_1168900" data-name="Grupo 1168900" transform="translate(15.133)">
                <path id="Trazado_1013689" data-name="Trazado 1013689" d="M251.676,17.812s5.758-7.473,4.1-9.617c-.564-.731-1.045.262-2.212.262-1.371,0-1.371-.9-2.742-.9s-1.371.9-2.742.9c-.067,0-.129,0-.19-.008-.551,2.361-3.033,6.04-4.454,8.01.559.821.962,1.353.962,1.353q-.5.33-.984.663c23.941,16.456,15.93,38.213,1.288,38.213h9.245c14.839,0,22.869-22.348-2.273-38.876Z" transform="translate(-243.415 -7.559)" fill="#e8ae4d"/>
              </g>
              <g id="Grupo_1168901" data-name="Grupo 1168901" transform="translate(12.935 8.706)">
                <path id="Trazado_1013690" data-name="Trazado 1013690" d="M236.213,85.942a20.032,20.032,0,0,1-10,0,2.134,2.134,0,0,1-1.406-2.794l.014-.04a1.97,1.97,0,0,1,2.325-1.313,16.277,16.277,0,0,0,8.131,0,1.97,1.97,0,0,1,2.325,1.313l.014.04A2.135,2.135,0,0,1,236.213,85.942Z" transform="translate(-224.683 -81.738)" fill="#ffe07d"/>
              </g>
            </g>
          </g>
        </g>
        <g id="Grupo_1168919" data-name="Grupo 1168919" transform="translate(0 33.339)">
          <g id="Grupo_1168918" data-name="Grupo 1168918">
            <g id="Grupo_1168917" data-name="Grupo 1168917">
              <g id="Grupo_1168916" data-name="Grupo 1168916">
                <g id="Grupo_1168915" data-name="Grupo 1168915">
                  <g id="Grupo_1168914" data-name="Grupo 1168914">
                    <g id="Grupo_1168913" data-name="Grupo 1168913">
                      <g id="Grupo_1168912" data-name="Grupo 1168912">
                        <g id="Grupo_1168911" data-name="Grupo 1168911">
                          <g id="Grupo_1168910" data-name="Grupo 1168910">
                            <g id="Grupo_1168909" data-name="Grupo 1168909" transform="translate(4.646 3.084)">
                              <g id="Grupo_1168908" data-name="Grupo 1168908">
                                <g id="Grupo_1168905" data-name="Grupo 1168905">
                                  <path id="Trazado_1013691" data-name="Trazado 1013691" d="M54.883,334.445l12.742,4.743a9.7,9.7,0,0,0,3.382.609H84.139a9.7,9.7,0,0,0,5.19-1.506l16.442-10.419a2.886,2.886,0,0,0,.47-3.781c-.893-1.312-2.37-1.54-4-.772l-16.008,7.048.019-2.6a4.649,4.649,0,0,0-3.974-4.143l-9.748-1.122c-2.249-.318-3.372-1.072-5.333-2.219a17.471,17.471,0,0,0-8.822-2.391h-3.5v16.549Z" transform="translate(-54.883 -317.896)" fill="#ffddce"/>
                                </g>
                                <g id="Grupo_1168906" data-name="Grupo 1168906">
                                  <path id="Trazado_1013692" data-name="Trazado 1013692" d="M54.883,334.445l12.742,4.743a9.7,9.7,0,0,0,3.382.609H84.139a9.7,9.7,0,0,0,5.19-1.506l16.442-10.419a2.886,2.886,0,0,0,.47-3.781c-.893-1.312-2.37-1.54-4-.772l-16.008,7.048.019-2.6a4.649,4.649,0,0,0-3.974-4.143l-9.748-1.122c-2.249-.318-3.372-1.072-5.333-2.219a17.471,17.471,0,0,0-8.822-2.391h-3.5v16.549Z" transform="translate(-54.883 -317.896)" fill="#ffddce"/>
                                </g>
                                <path id="Trazado_1013693" data-name="Trazado 1013693" d="M106.241,361.572c-.893-1.312-2.37-1.54-4-.772l-4.4,1.939.383.607a2.886,2.886,0,0,1-.47,3.781l-9.58,6.071a9.7,9.7,0,0,1-4.036.881H71.008a9.7,9.7,0,0,1-3.382-.609l-12.742-4.743v3.2l12.742,4.743a9.7,9.7,0,0,0,3.382.609H84.14a9.7,9.7,0,0,0,5.19-1.506l16.442-10.418a2.886,2.886,0,0,0,.47-3.781Z" transform="translate(-54.884 -355.376)" fill="#ffcbbe"/>
                                <g id="Grupo_1168907" data-name="Grupo 1168907" transform="translate(30.177 7.199)">
                                  <path id="Trazado_1013694" data-name="Trazado 1013694" d="M312,379.236v.063l.041-.018Z" transform="translate(-312.004 -379.236)" fill="#f5dbcc"/>
                                </g>
                              </g>
                            </g>
                            <path id="Trazado_1013695" data-name="Trazado 1013695" d="M22.683,313.791a1.674,1.674,0,0,1-1.674,1.674h-4.04a1.674,1.674,0,0,1-1.674-1.674v-20.5a1.674,1.674,0,0,1,1.674-1.674h4.04a1.674,1.674,0,0,1,1.674,1.674Z" transform="translate(-15.295 -291.62)" fill="#407093"/>
                          </g>
                        </g>
                      </g>
                    </g>
                  </g>
                </g>
              </g>
            </g>
          </g>
        </g>
      </g>
      <g id="Grupo_1168921" data-name="Grupo 1168921" transform="translate(7.797 -0.001)">
        <path id="Trazado_1013696" data-name="Trazado 1013696" d="M65.408,43.009c-1.121-1.647-3.022-2.05-5.088-1.078l-1.095.482a18.1,18.1,0,0,0,1.081-11.655,28.118,28.118,0,0,0-7.085-12.812.88.88,0,0,0-1.3,1.189,26.392,26.392,0,0,1,6.664,12A15.782,15.782,0,0,1,56.522,43.6L45.567,48.427l.009-1.237a.859.859,0,0,0,0-.094,5.516,5.516,0,0,0-4.727-4.927l-.023,0-9.737-1.121c-3.744-.533-4.708-2.777-9.779-4.056a18.947,18.947,0,0,1,1.4-9.311c1.928-4.779,5.7-9.422,10.927-13.463,1.949,1.382,10.642,1.554,12.588-.229,1,.757,1.948,1.537,2.834,2.326A.88.88,0,1,0,50.223,15c-.971-.865-2.016-1.719-3.112-2.544A3.133,3.133,0,0,0,46.06,9.332c2.756-4.18,3.557-6.915,2.45-8.349A1.538,1.538,0,0,0,46.4.659,1.412,1.412,0,0,1,44.711.6a3.164,3.164,0,0,0-3.706,0,1.419,1.419,0,0,1-1.778,0,3.164,3.164,0,0,0-3.706,0,1.4,1.4,0,0,1-1.686.056,1.535,1.535,0,0,0-2.114.314c-1.082,1.393-.358,4.042,2.212,8.08a2.866,2.866,0,0,0-.447.3,5.942,5.942,0,0,0-5.118-1.935A6.449,6.449,0,0,1,23.99,6.378a.88.88,0,0,0-.98,1.462,8.2,8.2,0,0,0,5.554,1.322,4.3,4.3,0,0,1,3.93,1.719q-.016.056-.03.113a15.1,15.1,0,0,0-2.791.3,8.265,8.265,0,0,0-5.727,3.667.88.88,0,1,0,1.519.889c1.6-2.743,5.522-3.078,7.078-3.1.007.019.015.038.022.058-5.552,4.283-9.418,9.059-11.494,14.206a20.889,20.889,0,0,0-1.57,9.609,18.315,18.315,0,0,0-2.556-.2V35.9a2.557,2.557,0,0,0-2.554-2.554h-4.04A2.557,2.557,0,0,0,7.8,35.9V56.4a2.557,2.557,0,0,0,2.554,2.554h4.04A2.557,2.557,0,0,0,16.945,56.4v-.251l8.813,3.28a10.544,10.544,0,0,0,3.689.664H42.579a10.561,10.561,0,0,0,5.661-1.643c17.518-11.105,16.454-10.414,16.555-10.5a3.774,3.774,0,0,0,.613-4.934ZM44.566,12.943a19.075,19.075,0,0,1-9.567,0c-1.381-.349-.981-2.813.5-2.44a17.163,17.163,0,0,0,8.56,0C45.522,10.137,45.97,12.589,44.566,12.943ZM33.032,2.221l.02.01a3.122,3.122,0,0,0,3.433-.16c1.5-.982,1.662.592,3.631.592a3.057,3.057,0,0,0,1.853-.592,1.42,1.42,0,0,1,1.779,0,3.139,3.139,0,0,0,3.448.158c.181.653-.229,2.6-2.838,6.484-1.3-.022-3.177,1.251-8.5.066-2.6-3.936-3.007-5.9-2.825-6.558ZM63.674,46.584,47.3,56.961a8.8,8.8,0,0,1-4.719,1.369H29.447a8.788,8.788,0,0,1-3.075-.554l-9.427-3.509V44.789a.88.88,0,1,0-1.76,0V56.4a.8.8,0,0,1-.794.794h-4.04a.8.8,0,0,1-.794-.794V35.9a.8.8,0,0,1,.794-.794h4.04a.8.8,0,0,1,.794.794v4.776a.88.88,0,1,0,1.76,0V38.191c7.28.056,8.917,3.893,13.9,4.6l.023,0,9.736,1.121a3.759,3.759,0,0,1,3.207,3.313L43.8,48.9h-9.08a.88.88,0,0,0,0,1.76h9.954a.911.911,0,0,0,.351-.073l16.011-7.05c1.151-.512,2.2-.585,2.913.461A2.01,2.01,0,0,1,63.674,46.584Z" transform="translate(-7.797 0.001)"/>
        <path id="Trazado_1013697" data-name="Trazado 1013697" d="M244.861,177.031a.88.88,0,0,0,.88-.88v-1.459a5.156,5.156,0,0,0,4.226-4.266,4.514,4.514,0,0,0-3.11-5.163c-.4-.142-.774-.279-1.116-.41v-5.611a3.62,3.62,0,0,1,1.712.752.88.88,0,0,0,1.189-1.3,5.455,5.455,0,0,0-2.9-1.231v-1.252a.88.88,0,1,0-1.76,0v1.323a6.488,6.488,0,0,0-.653.159,4.256,4.256,0,0,0-2.912,3.341,3.722,3.722,0,0,0,1.209,3.669,10.664,10.664,0,0,0,2.356,1.331v6.96a4.675,4.675,0,0,1-2.737-.949.88.88,0,1,0-.964,1.473,6.446,6.446,0,0,0,3.7,1.236v1.4a.88.88,0,0,0,.88.88Zm-2.15-13.713a1.984,1.984,0,0,1-.566-1.958,2.518,2.518,0,0,1,1.69-1.981c.049-.015.1-.027.145-.04v4.754A7.422,7.422,0,0,1,242.711,163.319Zm3.559,3.6a2.77,2.77,0,0,1,1.961,3.212,3.428,3.428,0,0,1-2.49,2.759v-6.162C245.912,166.794,246.087,166.857,246.27,166.922Z" transform="translate(-212.643 -137.101)"/>
      </g>
    </g>
  </g>
</svg>
