<svg xmlns="http://www.w3.org/2000/svg" xmlns:xlink="http://www.w3.org/1999/xlink" width="110" height="110" viewBox="0 0 110 110">
  <defs>
    <filter id="Trazado_982547" x="0" y="0" width="110" height="110" filterUnits="userSpaceOnUse">
      <feOffset dy="3" input="SourceAlpha"/>
      <feGaussianBlur stdDeviation="3" result="blur"/>
      <feFlood flood-opacity="0.161"/>
      <feComposite operator="in" in2="blur"/>
      <feComposite in="SourceGraphic"/>
    </filter>
  </defs>
  <g id="Grupo_1171416" data-name="Grupo 1171416" transform="translate(-1115.701 -6930)">
    <g id="Grupo_1163803" data-name="Grupo 1163803" transform="translate(-0.494 2285.316)">
      <g id="Grupo_1163015" data-name="Grupo 1163015" transform="translate(1.195 305.685)">
        <g id="Grupo_1157017" data-name="Grupo 1157017" transform="translate(0 3549)">
          <g id="Grupo_1155793" data-name="Grupo 1155793" transform="translate(-0.999 -3894)">
            <g id="Grupo_1154704" data-name="Grupo 1154704" transform="translate(0 1466)">
              <g id="Grupo_1150790" data-name="Grupo 1150790" transform="translate(3 2320)">
                <g id="Grupo_1154214" data-name="Grupo 1154214" transform="translate(79 -5809)">
                  <g id="Grupo_1152583" data-name="Grupo 1152583" transform="translate(1043 6713)">
                    <g id="Grupo_1146973" data-name="Grupo 1146973" transform="translate(0 0)">
                      <g id="Grupo_1146954" data-name="Grupo 1146954">
                        <g transform="matrix(1, 0, 0, 1, -9, -6)" filter="url(#Trazado_982547)">
                          <g id="Trazado_982547-2" data-name="Trazado 982547" transform="translate(9 6)" fill="#e4f2f4">
                            <path d="M 46 90.49987030029297 C 39.99187850952148 90.49987030029297 34.16426849365234 89.32350921630859 28.67905426025391 87.00345611572266 C 23.38019943237305 84.76224517822266 18.62104034423828 81.55341339111328 14.53374671936035 77.46613311767578 C 10.44646644592285 73.37885284423828 7.237639904022217 68.61969757080078 4.996413230895996 63.32085418701172 C 2.676359891891479 57.83565521240234 1.5 52.008056640625 1.5 45.99993515014648 C 1.5 39.99181365966797 2.676359891891479 34.16421508789062 4.996413230895996 28.67901420593262 C 7.237639904022217 23.38017463684082 10.44646644592285 18.62101554870605 14.53374671936035 14.53373527526855 C 18.62104034423828 10.44645500183105 23.38019943237305 7.23762845993042 28.67905426025391 4.996415138244629 C 34.16426849365234 2.676361799240112 39.99187850952148 1.500001788139343 46 1.500001788139343 C 52.00812149047852 1.500001788139343 57.83573150634766 2.676361799240112 63.32094573974609 4.996415138244629 C 68.61979675292969 7.23762845993042 73.37895965576172 10.44645500183105 77.46625518798828 14.53373527526855 C 81.55353546142578 18.62101554870605 84.76235961914062 23.38017463684082 87.00358581542969 28.67901420593262 C 89.32363891601562 34.16421508789062 90.5 39.99181365966797 90.5 45.99993515014648 C 90.5 52.008056640625 89.32363891601562 57.83565521240234 87.00358581542969 63.32085418701172 C 84.76235961914062 68.61969757080078 81.55353546142578 73.37885284423828 77.46625518798828 77.46613311767578 C 73.37895965576172 81.55341339111328 68.61979675292969 84.76224517822266 63.32094573974609 87.00345611572266 C 57.83573150634766 89.32350921630859 52.00812149047852 90.49987030029297 46 90.49987030029297 Z" stroke="none"/>
                            <path d="M 46 2.999992370605469 C 40.1937141418457 2.999992370605469 34.56269836425781 4.136489868164062 29.26337051391602 6.377906799316406 C 24.14332580566406 8.543502807617188 19.54441070556641 11.64437866210938 15.59439849853516 15.59437561035156 C 11.64440155029297 19.54439544677734 8.54351806640625 24.14329528808594 6.377914428710938 29.26333618164062 C 4.136497497558594 34.56264877319336 3 40.19366455078125 3 45.99993515014648 C 3 51.80620574951172 4.136497497558594 57.43720626831055 6.377914428710938 62.73651885986328 C 8.54351806640625 67.8565673828125 11.64440155029297 72.45545959472656 15.59439849853516 76.40547943115234 C 19.54441070556641 80.35547637939453 24.14332580566406 83.45635223388672 29.26337051391602 85.6219482421875 C 34.56269836425781 87.86336517333984 40.1937141418457 88.99986267089844 46 88.99986267089844 C 51.8062858581543 88.99986267089844 57.43730163574219 87.86336517333984 62.73661422729492 85.6219482421875 C 67.85667419433594 83.45635223388672 72.45557403564453 80.35547637939453 76.40558624267578 76.40547943115234 C 80.35559844970703 72.45545959472656 83.45647430419922 67.8565673828125 85.6220703125 62.73651885986328 C 87.86350250244141 57.43720626831055 89 51.80620574951172 89 45.99993515014648 C 89 40.19366455078125 87.86350250244141 34.56264877319336 85.6220703125 29.26333618164062 C 83.45647430419922 24.14329528808594 80.35559844970703 19.54439544677734 76.40558624267578 15.59437561035156 C 72.45557403564453 11.64437866210938 67.85667419433594 8.543502807617188 62.73661422729492 6.377906799316406 C 57.43730163574219 4.136489868164062 51.8062858581543 2.999992370605469 46 2.999992370605469 M 46 -7.62939453125e-06 C 71.40509033203125 -7.62939453125e-06 92 20.59486389160156 92 45.99993515014648 C 92 71.40499114990234 71.40509033203125 91.99986267089844 46 91.99986267089844 C 20.59490203857422 91.99986267089844 0 71.40499114990234 0 45.99993515014648 C 0 20.59486389160156 20.59490203857422 -7.62939453125e-06 46 -7.62939453125e-06 Z" stroke="none" fill="#01899b"/>
                          </g>
                        </g>
                      </g>
                    </g>
                  </g>
                </g>
              </g>
            </g>
          </g>
        </g>
      </g>
    </g>
    <g id="time-clock-watch-timer-money" transform="translate(1142.701 6954)">
      <path id="Trazado_1015398" data-name="Trazado 1015398" d="M7,12H56.154V42.949H7Z" transform="translate(-0.628 -1.077)" fill="#4e901e"/>
      <path id="Trazado_1015399" data-name="Trazado 1015399" d="M3,8H52.154V38.949H3Z" transform="translate(-0.269 -0.718)" fill="#5eac24"/>
      <path id="Trazado_1015400" data-name="Trazado 1015400" d="M48.872,15.641V32.026a3.641,3.641,0,0,0-3.641,3.641H10.641A3.641,3.641,0,0,0,7,32.026V15.641A3.641,3.641,0,0,0,10.641,12h34.59A3.641,3.641,0,0,0,48.872,15.641Z" transform="translate(-0.628 -1.077)" fill="#91dc5a"/>
      <path id="Trazado_1015401" data-name="Trazado 1015401" fill="#9bc9ff"/>
      <circle id="Elipse_12147" data-name="Elipse 12147" cx="13.5" cy="13.5" r="13.5" transform="translate(28.436 28.436)" fill="#2488ff"/>
      <circle id="Elipse_12148" data-name="Elipse 12148" cx="10" cy="10" r="10" transform="translate(31.436 31.436)" fill="#ffda44"/>
      <path id="Trazado_1015402" data-name="Trazado 1015402" d="M46.232,35.079a9.976,9.976,0,0,1-10.5,13.51,10.008,10.008,0,1,0,10.5-13.51Z" transform="translate(-3.207 -3.148)" fill="#ffcd00"/>
      <g id="Grupo_1171415" data-name="Grupo 1171415" transform="translate(1.821 6.372)">
        <path id="Trazado_1015403" data-name="Trazado 1015403" d="M44.923,34A10.923,10.923,0,1,0,55.846,44.923,10.923,10.923,0,0,0,44.923,34Zm5.31,18.3-.426-.738a.91.91,0,1,0-1.577.91l.428.742a9.006,9.006,0,0,1-2.822.765v-.859a.91.91,0,0,0-1.821,0v.864a9.006,9.006,0,0,1-2.822-.765l.428-.742a.91.91,0,1,0-1.577-.91l-.426.738a9.166,9.166,0,0,1-2.07-2.067l.738-.426a.91.91,0,1,0-.91-1.577l-.742.428a9.006,9.006,0,0,1-.765-2.822h.859a.91.91,0,1,0,0-1.821h-.864a9.006,9.006,0,0,1,.765-2.822l.742.428a.91.91,0,1,0,.91-1.577l-.738-.426a9.166,9.166,0,0,1,2.067-2.07l.426.738a.91.91,0,1,0,1.577-.91l-.428-.742a9.006,9.006,0,0,1,2.822-.765v.859a.91.91,0,1,0,1.821,0v-.864a9.006,9.006,0,0,1,2.822.765l-.428.742a.91.91,0,1,0,1.577.91l.426-.738a9.166,9.166,0,0,1,2.067,2.067l-.738.426a.91.91,0,1,0,.91,1.577l.742-.428a9.006,9.006,0,0,1,.765,2.822h-.857a.91.91,0,0,0,0,1.821h.864a9.006,9.006,0,0,1-.765,2.822l-.742-.428a.91.91,0,1,0-.91,1.577l.738.426A9.166,9.166,0,0,1,50.234,52.3Z" transform="translate(-4.872 -9.423)" fill="#231f20"/>
        <path id="Trazado_1015404" data-name="Trazado 1015404" d="M45.551,39a.91.91,0,0,0-.91.91v4.551H41.91a.91.91,0,0,0,0,1.821h3.641a.91.91,0,0,0,.91-.91V39.91A.91.91,0,0,0,45.551,39Z" transform="translate(-5.5 -9.872)" fill="#231f20"/>
        <path id="Trazado_1015405" data-name="Trazado 1015405" d="M41.91,25.821h3.641a.91.91,0,1,0,0-1.821H41.91a.91.91,0,0,0,0,1.821Z" transform="translate(-5.5 -8.526)" fill="#231f20"/>
        <path id="Trazado_1015406" data-name="Trazado 1015406" d="M16.551,24H12.91a.91.91,0,1,0,0,1.821h3.641a.91.91,0,0,0,0-1.821Z" transform="translate(-2.897 -8.526)" fill="#231f20"/>
        <path id="Trazado_1015407" data-name="Trazado 1015407" d="M34.1,26.833c0-2.008-2.042-3.641-4.551-3.641-1.48,0-2.731-.834-2.731-1.821s1.251-1.821,2.731-1.821,2.731.834,2.731,1.821a.91.91,0,0,0,1.821,0c0-1.762-1.574-3.235-3.656-3.568,0-.025.015-.047.015-.073V15.91a.91.91,0,1,0-1.821,0v1.821c0,.025.013.047.015.073C26.574,18.137,25,19.61,25,21.372c0,2.008,2.042,3.641,4.551,3.641,1.48,0,2.731.834,2.731,1.821s-1.251,1.821-2.731,1.821-2.731-.834-2.731-1.821a.91.91,0,0,0-1.821,0c0,1.759,1.567,3.229,3.641,3.567v.984a.91.91,0,0,0,1.821,0V30.4c2.074-.339,3.641-1.809,3.641-3.567Z" transform="translate(-4.064 -7.718)" fill="#231f20"/>
        <path id="Trazado_1015408" data-name="Trazado 1015408" d="M55.705,10.641H52.974V7.91a.91.91,0,0,0-.91-.91H2.91A.91.91,0,0,0,2,7.91V38.859a.91.91,0,0,0,.91.91H5.641V42.5a.91.91,0,0,0,.91.91H27.533a14.548,14.548,0,0,0,29.019.3c.036-.091.064-32.159.064-32.159A.91.91,0,0,0,55.705,10.641ZM27.533,41.59H7.462V39.769h20.29a14.845,14.845,0,0,0-.218,1.821Zm.692-3.641H3.821V8.821H51.154V31.149A14.63,14.63,0,0,0,49.333,29.9V15.192a.91.91,0,0,0-.91-.91,2.739,2.739,0,0,1-2.731-2.731.91.91,0,0,0-.91-.91H10.192a.91.91,0,0,0-.91.91,2.739,2.739,0,0,1-2.731,2.731.91.91,0,0,0-.91.91V31.577a.91.91,0,0,0,.91.91,2.739,2.739,0,0,1,2.731,2.731.91.91,0,0,0,.91.91H28.971a15.909,15.909,0,0,0-.746,1.821ZM47.513,16.012v13a14.354,14.354,0,0,0-5.462-1.074,14.564,14.564,0,0,0-12.034,6.372H11.012a4.56,4.56,0,0,0-3.55-3.55V16.012a4.56,4.56,0,0,0,3.55-3.55H43.963a4.56,4.56,0,0,0,3.55,3.55ZM42.051,55.244a12.749,12.749,0,0,1-12.735-12.6.4.4,0,0,0,0-.291A12.744,12.744,0,1,1,42.051,55.244ZM54.8,35.464A14.9,14.9,0,0,0,52.974,32.9V12.462H54.8Z" transform="translate(-2 -7)" fill="#231f20"/>
      </g>
    </g>
  </g>
</svg>
