<svg xmlns="http://www.w3.org/2000/svg" xmlns:xlink="http://www.w3.org/1999/xlink" width="113" height="113" viewBox="0 0 113 113">
  <defs>
    <filter id="Trazado_982547" x="0" y="0" width="113" height="113" filterUnits="userSpaceOnUse">
      <feOffset dy="3" input="SourceAlpha"/>
      <feGaussianBlur stdDeviation="3" result="blur"/>
      <feFlood flood-opacity="0.161"/>
      <feComposite operator="in" in2="blur"/>
      <feComposite in="SourceGraphic"/>
    </filter>
  </defs>
  <g id="Grupo_1168946" data-name="Grupo 1168946" transform="translate(-1164 -4433)">
    <g id="Grupo_1168623" data-name="Grupo 1168623" transform="translate(0.118 -6386.154)">
      <g id="Grupo_1162129" data-name="Grupo 1162129" transform="translate(1172.882 10825.154)">
        <g id="Grupo_1152576" data-name="Grupo 1152576" transform="translate(0)">
          <g id="Grupo_1148633" data-name="Grupo 1148633">
            <g id="Grupo_1148525" data-name="Grupo 1148525">
              <g transform="matrix(1, 0, 0, 1, -9, -6)" filter="url(#Trazado_982547)">
                <g id="Trazado_982547-2" data-name="Trazado 982547" transform="translate(9 6)" fill="#e8edf7">
                  <path d="M 47.5 93.5 C 41.28937149047852 93.5 35.26533508300781 92.28397369384766 29.59518623352051 89.88570404052734 C 24.11771965026855 87.56893157958984 19.19813346862793 84.25196075439453 14.97309303283691 80.02691650390625 C 10.74804019927979 75.80186462402344 7.431066513061523 70.88229370117188 5.114293098449707 65.40481567382812 C 2.716026782989502 59.73468017578125 1.5 53.71062850952148 1.5 47.5 C 1.5 41.28937149047852 2.716026782989502 35.26533508300781 5.114293098449707 29.59518623352051 C 7.431066513061523 24.11771965026855 10.74804019927979 19.19813346862793 14.97309303283691 14.97309303283691 C 19.19813346862793 10.74804019927979 24.11771965026855 7.431066513061523 29.59518623352051 5.114293098449707 C 35.26533508300781 2.716026782989502 41.28937149047852 1.5 47.5 1.5 C 53.71062850952148 1.5 59.73468017578125 2.716026782989502 65.40481567382812 5.114293098449707 C 70.88229370117188 7.431066513061523 75.80186462402344 10.74804019927979 80.02691650390625 14.97309303283691 C 84.25196075439453 19.19813346862793 87.56893157958984 24.11771965026855 89.88570404052734 29.59518623352051 C 92.28397369384766 35.26533508300781 93.5 41.28937149047852 93.5 47.5 C 93.5 53.71062850952148 92.28397369384766 59.73468017578125 89.88570404052734 65.40481567382812 C 87.56893157958984 70.88229370117188 84.25196075439453 75.80186462402344 80.02691650390625 80.02691650390625 C 75.80186462402344 84.25196075439453 70.88229370117188 87.56893157958984 65.40481567382812 89.88570404052734 C 59.73468017578125 92.28397369384766 53.71062850952148 93.5 47.5 93.5 Z" stroke="none"/>
                  <path d="M 47.5 3 C 41.49121475219727 3 35.66376876831055 4.176155090332031 30.17950439453125 6.495796203613281 C 24.88084411621094 8.736953735351562 20.12152099609375 11.94598388671875 16.03375244140625 16.03375244140625 C 11.94598388671875 20.12152099609375 8.736953735351562 24.88084411621094 6.495796203613281 30.17950439453125 C 4.176155090332031 35.66376876831055 3 41.49121475219727 3 47.5 C 3 53.50878524780273 4.176155090332031 59.33623123168945 6.495796203613281 64.82049560546875 C 8.736953735351562 70.11915588378906 11.94598388671875 74.87847900390625 16.03375244140625 78.96624755859375 C 20.12152099609375 83.05401611328125 24.88084411621094 86.26304626464844 30.17950439453125 88.50419616699219 C 35.66376876831055 90.82384490966797 41.49121475219727 92 47.5 92 C 53.50878524780273 92 59.33623123168945 90.82384490966797 64.82049560546875 88.50419616699219 C 70.11915588378906 86.26304626464844 74.87847900390625 83.05401611328125 78.96624755859375 78.96624755859375 C 83.05401611328125 74.87847900390625 86.26304626464844 70.11915588378906 88.50419616699219 64.82049560546875 C 90.82384490966797 59.33623123168945 92 53.50878524780273 92 47.5 C 92 41.49121475219727 90.82384490966797 35.66376876831055 88.50419616699219 30.17950439453125 C 86.26304626464844 24.88084411621094 83.05401611328125 20.12152099609375 78.96624755859375 16.03375244140625 C 74.87847900390625 11.94598388671875 70.11915588378906 8.736953735351562 64.82049560546875 6.495796203613281 C 59.33623123168945 4.176155090332031 53.50878524780273 3 47.5 3 M 47.5 0 C 73.7335205078125 0 95 21.2664794921875 95 47.5 C 95 73.7335205078125 73.7335205078125 95 47.5 95 C 21.2664794921875 95 0 73.7335205078125 0 47.5 C 0 21.2664794921875 21.2664794921875 0 47.5 0 Z" stroke="none" fill="#2e5bb6"/>
                </g>
              </g>
            </g>
          </g>
        </g>
      </g>
    </g>
    <g id="operation" transform="translate(1146.122 4452)">
      <g id="Grupo_1168941" data-name="Grupo 1168941" transform="translate(47.874 0.996)">
        <g id="Grupo_1168937" data-name="Grupo 1168937" transform="translate(0)">
          <path id="Trazado_1013713" data-name="Trazado 1013713" d="M106.617,122.646h-4.188a1.326,1.326,0,0,1-1.265-.927,20.833,20.833,0,0,0-1.39-3.354,1.327,1.327,0,0,1,.239-1.551l2.962-2.962a1.328,1.328,0,0,0,0-1.879l-5.748-5.748a1.328,1.328,0,0,0-1.879,0l-2.962,2.962a1.327,1.327,0,0,1-1.551.239,20.846,20.846,0,0,0-3.354-1.39,1.326,1.326,0,0,1-.927-1.265v-4.188a1.328,1.328,0,0,0-1.328-1.328H83.42l.194.336a.784.784,0,0,1-.679,1.177H79.542v14.515a10.893,10.893,0,0,0-7.531,4.887V109.164c-.175.085-.35.172-.523.262a1.327,1.327,0,0,1-1.551-.239l-2.962-2.962a1.328,1.328,0,0,0-1.879,0l-5.748,5.748a1.328,1.328,0,0,0,0,1.879l2.962,2.962a1.327,1.327,0,0,1,.239,1.551,20.846,20.846,0,0,0-1.39,3.354,1.326,1.326,0,0,1-1.265.927H55.706a1.328,1.328,0,0,0-1.328,1.328V132.1a1.328,1.328,0,0,0,1.328,1.328h4.188a1.326,1.326,0,0,1,1.265.927,20.832,20.832,0,0,0,1.39,3.354,1.327,1.327,0,0,1-.239,1.551l-2.962,2.962a1.328,1.328,0,0,0,0,1.879l5.748,5.748a1.328,1.328,0,0,0,1.879,0l2.962-2.962a1.327,1.327,0,0,1,1.551-.239,20.833,20.833,0,0,0,3.354,1.39,1.326,1.326,0,0,1,.927,1.265v4.188a1.328,1.328,0,0,0,1.328,1.328h8.129a1.328,1.328,0,0,0,1.328-1.328v-4.188a1.326,1.326,0,0,1,.927-1.265q.6-.189,1.181-.413a9.694,9.694,0,0,1,11.989-11.834q.281-.706.513-1.436a1.326,1.326,0,0,1,1.265-.927h4.188a1.328,1.328,0,0,0,1.328-1.328v-8.129A1.328,1.328,0,0,0,106.617,122.646Z" transform="translate(-54.378 -88.801)" fill="#cdbfba"/>
          <g id="Grupo_1168931" data-name="Grupo 1168931" transform="translate(21.391 12.454)">
            <g id="Grupo_1168929" data-name="Grupo 1168929" transform="translate(3.773)">
              <path id="Trazado_1013714" data-name="Trazado 1013714" d="M270.885,122.646H266.7a1.326,1.326,0,0,1-1.265-.927,20.831,20.831,0,0,0-1.39-3.354,1.327,1.327,0,0,1,.239-1.551l2.962-2.962a1.328,1.328,0,0,0,0-1.879l-5.748-5.748a1.328,1.328,0,0,0-1.879,0l-2.962,2.962a1.327,1.327,0,0,1-1.551.239,20.846,20.846,0,0,0-3.354-1.39,1.326,1.326,0,0,1-.927-1.265v-4.188a1.328,1.328,0,0,0-1.328-1.328h-1.805l.194.336a.784.784,0,0,1-.679,1.177H243.81v2.525a26.585,26.585,0,0,1,8.923,8.723,15.815,15.815,0,0,1,6.37,21.957,9.691,9.691,0,0,1,5.815-.179q.281-.706.513-1.436a1.326,1.326,0,0,1,1.265-.927h4.188a1.328,1.328,0,0,0,1.328-1.328v-8.129a1.328,1.328,0,0,0-1.328-1.328Z" transform="translate(-243.81 -101.255)" fill="#b9acac"/>
            </g>
            <g id="Grupo_1168930" data-name="Grupo 1168930" transform="translate(0 40.561)">
              <path id="Trazado_1013715" data-name="Trazado 1013715" d="M227.971,409.9a9.675,9.675,0,0,1,.581-3.311q-.223.126-.45.244a26.545,26.545,0,0,1-12.7,10.58v.853a1.328,1.328,0,0,0,1.328,1.328h8.129a1.328,1.328,0,0,0,1.328-1.328v-4.188a1.326,1.326,0,0,1,.927-1.265q.6-.189,1.181-.413A9.7,9.7,0,0,1,227.971,409.9Z" transform="translate(-215.405 -406.593)" fill="#b9acac"/>
            </g>
          </g>
          <path id="Trazado_1013716" data-name="Trazado 1013716" d="M166.482,207.621a15.811,15.811,0,0,0-13.674-23.743,15.983,15.983,0,0,0-1.619.082v4.971a10.893,10.893,0,0,0-7.531,4.887v-7.023a15.81,15.81,0,0,0,16.9,26.67A9.72,9.72,0,0,1,166.482,207.621Z" transform="translate(-126.024 -160.448)" fill="#868686"/>
          <path id="Trazado_1013717" data-name="Trazado 1013717" d="M234.321,183.878a15.9,15.9,0,0,0-1.619.083v.733a15.846,15.846,0,0,1,7.985,6.012,11,11,0,0,1,.006,17.956A15.82,15.82,0,0,1,231,215.144a15.846,15.846,0,0,0,11.075-1.68,9.72,9.72,0,0,1,5.92-5.842,15.811,15.811,0,0,0-13.674-23.743Z" transform="translate(-207.537 -160.448)" fill="#766e6e"/>
          <g id="Grupo_1168932" data-name="Grupo 1168932" transform="translate(13.455)">
            <path id="Trazado_1013718" data-name="Trazado 1013718" d="M159.841,40.87a10.894,10.894,0,0,1,7.531-4.887V21.468h3.393a.784.784,0,0,0,.679-1.177l-7.158-12.4a.784.784,0,0,0-1.359,0l-7.158,12.4a.784.784,0,0,0,.679,1.177h3.393v19.4Z" transform="translate(-155.662 -7.5)" fill="#97da7b"/>
          </g>
          <g id="Grupo_1168936" data-name="Grupo 1168936" transform="translate(20.026 0)">
            <g id="Grupo_1168934" data-name="Grupo 1168934" transform="translate(2.393 13.968)">
              <g id="Grupo_1168933" data-name="Grupo 1168933">
                <path id="Trazado_1013719" data-name="Trazado 1013719" d="M225.892,112.645h-1.416a1.328,1.328,0,0,0-1.328,1.328v13.982a10.77,10.77,0,0,1,2.745-.8Z" transform="translate(-223.147 -112.645)" fill="#80d261"/>
              </g>
            </g>
            <g id="Grupo_1168935" data-name="Grupo 1168935">
              <path id="Trazado_1013720" data-name="Trazado 1013720" d="M214.343,20.291l-7.158-12.4a.784.784,0,0,0-1.359,0l-.693,1.2,6.465,11.2a.784.784,0,0,1-.679,1.177h2.745a.785.785,0,0,0,.679-1.177Z" transform="translate(-205.133 -7.5)" fill="#80d261"/>
            </g>
          </g>
        </g>
        <g id="Grupo_1168940" data-name="Grupo 1168940" transform="translate(11.208 23.67)">
          <g id="Grupo_1168938" data-name="Grupo 1168938" transform="translate(0 0)">
            <circle id="Elipse_12101" data-name="Elipse 12101" cx="11.01" cy="11.01" r="11.01" transform="translate(0 15.568) rotate(-45)" fill="#ffe177"/>
          </g>
          <g id="Grupo_1168939" data-name="Grupo 1168939" transform="translate(12.794 4.559)">
            <path id="Trazado_1013721" data-name="Trazado 1013721" d="M237.843,220a11.024,11.024,0,0,0-2.782.355,11.012,11.012,0,0,1,0,21.309A11.011,11.011,0,1,0,237.843,220Z" transform="translate(-235.061 -220)" fill="#ffd15b"/>
          </g>
        </g>
      </g>
      <g id="Grupo_1168944" data-name="Grupo 1168944" transform="translate(81.831 47.629)">
        <g id="Grupo_1168942" data-name="Grupo 1168942">
          <circle id="Elipse_12102" data-name="Elipse 12102" cx="9.695" cy="9.695" r="9.695" fill="#60b7ff"/>
        </g>
        <g id="Grupo_1168943" data-name="Grupo 1168943" transform="translate(6.905)">
          <path id="Trazado_1013722" data-name="Trazado 1013722" d="M364.77,358.54a9.691,9.691,0,0,0-2.79.409,9.7,9.7,0,0,1,0,18.571,9.7,9.7,0,1,0,2.79-18.98Z" transform="translate(-361.98 -358.54)" fill="#26a6fe"/>
        </g>
      </g>
      <g id="Grupo_1168945" data-name="Grupo 1168945" transform="translate(46.878 0)">
        <path id="Trazado_1013723" data-name="Trazado 1013723" d="M95.926,46.624h4.188a2.327,2.327,0,0,0,2.325-2.325V36.17a2.327,2.327,0,0,0-2.325-2.325H95.926a.329.329,0,0,1-.315-.23A21.921,21.921,0,0,0,94.154,30.1a.329.329,0,0,1,.06-.387l2.962-2.962a2.325,2.325,0,0,0,0-3.288l-5.748-5.748a2.327,2.327,0,0,0-3.288,0l-2.962,2.962a.33.33,0,0,1-.387.06,21.9,21.9,0,0,0-3.514-1.457.329.329,0,0,1-.23-.315V14.78a2.327,2.327,0,0,0-2.325-2.325h-1.23L70.815.891a1.781,1.781,0,0,0-3.084,0L64.926,5.749a1,1,0,0,0,1.726,1L69.273,2.2l6.791,11.763H73.039a1,1,0,0,0-1,1V28.516A11.988,11.988,0,0,0,66.5,31.431V14.964a1,1,0,0,0-1-1H62.482l1.845-3.2a1,1,0,0,0-1.726-1l-2.029,3.514a1.781,1.781,0,0,0,1.542,2.671h2.4v4.784a.329.329,0,0,1-.374-.065l-2.962-2.962a2.328,2.328,0,0,0-3.288,0l-5.748,5.748a2.325,2.325,0,0,0,0,3.288L55.1,29.714a.329.329,0,0,1,.059.387,21.9,21.9,0,0,0-1.456,3.514.329.329,0,0,1-.315.23H49.2a2.327,2.327,0,0,0-2.325,2.325V37.86a1,1,0,1,0,1.993,0V36.17a.332.332,0,0,1,.332-.332H53.39a2.314,2.314,0,0,0,2.215-1.623,19.894,19.894,0,0,1,1.324-3.194,2.314,2.314,0,0,0-.418-2.716L53.55,25.344a.332.332,0,0,1,0-.469L59.3,19.126a.332.332,0,0,1,.47,0l2.962,2.962a2.313,2.313,0,0,0,1.782.677v4.074a16.8,16.8,0,0,0,16.432,28.98A10.577,10.577,0,0,0,81,59.18c-.107.036-.215.074-.321.107A2.313,2.313,0,0,0,79.054,61.5V65.69a.332.332,0,0,1-.332.332H70.594a.332.332,0,0,1-.332-.332V61.5a2.313,2.313,0,0,0-1.623-2.215,19.9,19.9,0,0,1-3.194-1.324,2.314,2.314,0,0,0-2.716.418l-2.962,2.962a.332.332,0,0,1-.47,0L53.55,55.6a.332.332,0,0,1,0-.47l2.962-2.962a2.314,2.314,0,0,0,.418-2.716,19.894,19.894,0,0,1-1.324-3.194,2.314,2.314,0,0,0-2.215-1.623H49.2a.332.332,0,0,1-.332-.332v-1.79a1,1,0,0,0-1.993,0V44.3A2.327,2.327,0,0,0,49.2,46.624H53.39a.329.329,0,0,1,.315.23,21.921,21.921,0,0,0,1.456,3.514.329.329,0,0,1-.06.387l-2.962,2.962a2.328,2.328,0,0,0,0,3.288l5.748,5.748a2.325,2.325,0,0,0,3.288,0l2.962-2.962a.33.33,0,0,1,.387-.06,21.9,21.9,0,0,0,3.515,1.457.329.329,0,0,1,.23.315V65.69a2.327,2.327,0,0,0,2.325,2.325h8.129a2.327,2.327,0,0,0,2.325-2.325V61.5a.329.329,0,0,1,.23-.315c.082-.026.166-.056.249-.083a10.633,10.633,0,0,0,.767,1.608,1,1,0,1,0,1.72-1.006,8.7,8.7,0,1,1,2.907,3,1,1,0,0,0-1.057,1.689,10.689,10.689,0,1,0,9.574-19.014c.06-.175.119-.35.174-.523a.329.329,0,0,1,.315-.23Zm-21.268-16.4A10.013,10.013,0,1,1,64.645,40.235,10.025,10.025,0,0,1,74.658,30.221ZM87.64,47.367a10.747,10.747,0,0,0-6.02,5.942,14.81,14.81,0,0,1-17.109-23.86v4.376a12,12,0,1,0,10.147-5.6q-.313,0-.623.016V25.437c.208-.009.416-.014.623-.014A14.813,14.813,0,0,1,87.64,47.367Zm6.07-1.113c-.059.188-.123.378-.19.568a10.5,10.5,0,0,0-3.362-.1,16.8,16.8,0,0,0-15.5-23.293c-.207,0-.415.005-.623.013V15.96h2.4a1.763,1.763,0,0,0,1.542-.89,1.793,1.793,0,0,0,.22-.623h.529a.332.332,0,0,1,.332.332v4.187a2.314,2.314,0,0,0,1.623,2.215,19.9,19.9,0,0,1,3.194,1.324,2.313,2.313,0,0,0,2.716-.418l2.962-2.962a.332.332,0,0,1,.47,0l5.748,5.748a.332.332,0,0,1,0,.469L92.8,28.305a2.314,2.314,0,0,0-.418,2.716,19.892,19.892,0,0,1,1.324,3.194,2.314,2.314,0,0,0,2.215,1.623h4.188a.332.332,0,0,1,.332.332V44.3a.332.332,0,0,1-.332.332H95.926A2.314,2.314,0,0,0,93.71,46.254Z" transform="translate(-46.878 0)"/>
        <path id="Trazado_1013724" data-name="Trazado 1013724" d="M229,256.74h-5.817a1,1,0,0,0,0,1.993h2.5v.9a1,1,0,1,0,1.993,0v-.9H229a2.174,2.174,0,0,0,2.171-2.171v-2.4A2.174,2.174,0,0,0,229,251.992h-4.642a.179.179,0,0,1-.178-.178v-2.4a.179.179,0,0,1,.178-.178h5.817a1,1,0,0,0,0-1.993h-2.5v-.9a1,1,0,0,0-1.993,0v.9h-1.325a2.173,2.173,0,0,0-2.171,2.171v2.4a2.173,2.173,0,0,0,2.171,2.171H229a.179.179,0,0,1,.178.179v2.4A.179.179,0,0,1,229,256.74Z" transform="translate(-198.897 -212.754)"/>
        <path id="Trazado_1013725" data-name="Trazado 1013725" d="M195.035,292.222v-.684a1,1,0,0,0-1.993,0v.684a1,1,0,0,0,1.993,0Z" transform="translate(-173.625 -251.946)"/>
        <path id="Trazado_1013726" data-name="Trazado 1013726" d="M304.954,293.218a1,1,0,0,0,1-1v-.684a1,1,0,1,0-1.993,0v.684A1,1,0,0,0,304.954,293.218Z" transform="translate(-269.807 -251.946)"/>
        <path id="Trazado_1013727" data-name="Trazado 1013727" d="M363.471,392.3a1,1,0,0,0-1.361.365l-4.885,8.462a1,1,0,1,0,1.726,1l4.885-8.462A1,1,0,0,0,363.471,392.3Z" transform="translate(-315.882 -340.074)"/>
        <circle id="Elipse_12103" data-name="Elipse 12103" cx="0.996" cy="0.996" r="0.996" transform="translate(40.198 52.873)"/>
        <circle id="Elipse_12104" data-name="Elipse 12104" cx="0.996" cy="0.996" r="0.996" transform="translate(47.107 59.782)"/>
      </g>
    </g>
  </g>
</svg>
