<svg xmlns="http://www.w3.org/2000/svg" xmlns:xlink="http://www.w3.org/1999/xlink" width="110" height="110" viewBox="0 0 110 110">
  <defs>
    <filter id="Trazado_982547" x="0" y="0" width="110" height="110" filterUnits="userSpaceOnUse">
      <feOffset dy="3" input="SourceAlpha"/>
      <feGaussianBlur stdDeviation="3" result="blur"/>
      <feFlood flood-opacity="0.161"/>
      <feComposite operator="in" in2="blur"/>
      <feComposite in="SourceGraphic"/>
    </filter>
  </defs>
  <g id="Grupo_1171417" data-name="Grupo 1171417" transform="translate(-7337 -6929)">
    <g id="Grupo_1168729" data-name="Grupo 1168729" transform="translate(6536 2285)">
      <g id="Grupo_1163014" data-name="Grupo 1163014" transform="translate(1 306)">
        <g id="Grupo_1157015" data-name="Grupo 1157015" transform="translate(0 3549)">
          <g id="Grupo_1155792" data-name="Grupo 1155792" transform="translate(-1 -3894.666)">
            <g id="Grupo_1154703" data-name="Grupo 1154703" transform="translate(0 1465.666)">
              <g id="Grupo_1150789" data-name="Grupo 1150789" transform="translate(3 2320)">
                <g id="Grupo_1154212" data-name="Grupo 1154212" transform="translate(-236 -5809)">
                  <g id="Grupo_1152583" data-name="Grupo 1152583" transform="translate(1043 6713)">
                    <g id="Grupo_1146973" data-name="Grupo 1146973" transform="translate(0 0)">
                      <g id="Grupo_1146954" data-name="Grupo 1146954">
                        <g transform="matrix(1, 0, 0, 1, -9, -6)" filter="url(#Trazado_982547)">
                          <g id="Trazado_982547-2" data-name="Trazado 982547" transform="translate(9 6)" fill="#e4f2f4">
                            <path d="M 46 90.49987030029297 C 39.99187850952148 90.49987030029297 34.16426849365234 89.32350921630859 28.67905426025391 87.00345611572266 C 23.38019943237305 84.76224517822266 18.62104034423828 81.55341339111328 14.53374671936035 77.46613311767578 C 10.44646644592285 73.37885284423828 7.237639904022217 68.61969757080078 4.996413230895996 63.32085418701172 C 2.676359891891479 57.83565521240234 1.5 52.008056640625 1.5 45.99993515014648 C 1.5 39.99181365966797 2.676359891891479 34.16421508789062 4.996413230895996 28.67901420593262 C 7.237639904022217 23.38017463684082 10.44646644592285 18.62101554870605 14.53374671936035 14.53373527526855 C 18.62104034423828 10.44645500183105 23.38019943237305 7.23762845993042 28.67905426025391 4.996415138244629 C 34.16426849365234 2.676361799240112 39.99187850952148 1.500001788139343 46 1.500001788139343 C 52.00812149047852 1.500001788139343 57.83573150634766 2.676361799240112 63.32094573974609 4.996415138244629 C 68.61979675292969 7.23762845993042 73.37895965576172 10.44645500183105 77.46625518798828 14.53373527526855 C 81.55353546142578 18.62101554870605 84.76235961914062 23.38017463684082 87.00358581542969 28.67901420593262 C 89.32363891601562 34.16421508789062 90.5 39.99181365966797 90.5 45.99993515014648 C 90.5 52.008056640625 89.32363891601562 57.83565521240234 87.00358581542969 63.32085418701172 C 84.76235961914062 68.61969757080078 81.55353546142578 73.37885284423828 77.46625518798828 77.46613311767578 C 73.37895965576172 81.55341339111328 68.61979675292969 84.76224517822266 63.32094573974609 87.00345611572266 C 57.83573150634766 89.32350921630859 52.00812149047852 90.49987030029297 46 90.49987030029297 Z" stroke="none"/>
                            <path d="M 46 2.999992370605469 C 40.1937141418457 2.999992370605469 34.56269836425781 4.136489868164062 29.26337051391602 6.377906799316406 C 24.14332580566406 8.543502807617188 19.54441070556641 11.64437866210938 15.59439849853516 15.59437561035156 C 11.64440155029297 19.54439544677734 8.54351806640625 24.14329528808594 6.377914428710938 29.26333618164062 C 4.136497497558594 34.56264877319336 3 40.19366455078125 3 45.99993515014648 C 3 51.80620574951172 4.136497497558594 57.43720626831055 6.377914428710938 62.73651885986328 C 8.54351806640625 67.8565673828125 11.64440155029297 72.45545959472656 15.59439849853516 76.40547943115234 C 19.54441070556641 80.35547637939453 24.14332580566406 83.45635223388672 29.26337051391602 85.6219482421875 C 34.56269836425781 87.86336517333984 40.1937141418457 88.99986267089844 46 88.99986267089844 C 51.8062858581543 88.99986267089844 57.43730163574219 87.86336517333984 62.73661422729492 85.6219482421875 C 67.85667419433594 83.45635223388672 72.45557403564453 80.35547637939453 76.40558624267578 76.40547943115234 C 80.35559844970703 72.45545959472656 83.45647430419922 67.8565673828125 85.6220703125 62.73651885986328 C 87.86350250244141 57.43720626831055 89 51.80620574951172 89 45.99993515014648 C 89 40.19366455078125 87.86350250244141 34.56264877319336 85.6220703125 29.26333618164062 C 83.45647430419922 24.14329528808594 80.35559844970703 19.54439544677734 76.40558624267578 15.59437561035156 C 72.45557403564453 11.64437866210938 67.85667419433594 8.543502807617188 62.73661422729492 6.377906799316406 C 57.43730163574219 4.136489868164062 51.8062858581543 2.999992370605469 46 2.999992370605469 M 46 -7.62939453125e-06 C 71.40509033203125 -7.62939453125e-06 92 20.59486389160156 92 45.99993515014648 C 92 71.40499114990234 71.40509033203125 91.99986267089844 46 91.99986267089844 C 20.59490203857422 91.99986267089844 0 71.40499114990234 0 45.99993515014648 C 0 20.59486389160156 20.59490203857422 -7.62939453125e-06 46 -7.62939453125e-06 Z" stroke="none" fill="#01899b"/>
                          </g>
                        </g>
                      </g>
                    </g>
                  </g>
                </g>
              </g>
            </g>
          </g>
        </g>
      </g>
    </g>
    <g id="filled_outline" data-name="filled outline" transform="translate(7347 6937)">
      <path id="Trazado_1015409" data-name="Trazado 1015409" d="M164.53,127.622c5.983,5.721,13.314,15.078,13.314,21.918,0,11.555-9.367,18.069-20.922,18.069S136,161.094,136,149.54c0-6.822,7.293-16.153,13.266-21.873Z" transform="translate(-105.735 -98.353)" fill="#39b54a"/>
      <path id="Trazado_1015410" data-name="Trazado 1015410" d="M189.491,237.588a28.378,28.378,0,0,1-37.022,17.167c3.333,6.31,10.571,9.748,18.964,9.748,11.555,0,20.922-6.514,20.922-18.069C192.355,243.749,191.226,240.676,189.491,237.588Z" transform="translate(-120.246 -195.247)" fill="#009245"/>
      <path id="Trazado_1015411" data-name="Trazado 1015411" d="M227.832,36.363l15.263-.045,2.542-7.638a2.509,2.509,0,0,0-3.7-2.933,2.5,2.5,0,0,1-3.1-.355,4.715,4.715,0,0,0-6.691,0,2.5,2.5,0,0,1-3.1.355l-.036-.023a2.509,2.509,0,0,0-3.708,2.923Z" transform="translate(-184.3 -7.049)" fill="#39b54a"/>
      <rect id="Rect치ngulo_414021" data-name="Rect치ngulo 414021" width="21" height="3" rx="1.5" transform="translate(40.683 25)" fill="#8c6239"/>
      <rect id="Rect치ngulo_414022" data-name="Rect치ngulo 414022" width="21" height="4" rx="2" transform="translate(40.683 28)" fill="#603813"/>
      <path id="Trazado_1015412" data-name="Trazado 1015412" d="M232,214.657v-3.8L241.51,208l9.51,2.853v3.8Z" transform="translate(-190.323 -169.176)" fill="#666"/>
      <path id="Trazado_1015413" data-name="Trazado 1015413" d="M136.777,373.706a4.319,4.319,0,0,0-3.057,1.268l-1.583,1.585-4.755.951h-5.706l-10.461-3.8,6.327-.7a2.509,2.509,0,0,0-.277-5h-8.9l-9.51,1.9H96v8.559h2.853l21.873,3.8h7.608l6.657-1.9,3.213-3.213a2.017,2.017,0,0,0-1.426-3.444Z" transform="translate(-70.49 -310.156)" fill="#fccca7"/>
      <path id="Trazado_1015414" data-name="Trazado 1015414" d="M216,256h22.824v3.8H216Z" transform="translate(-176.225 -211.47)" fill="gray"/>
      <path id="Trazado_1015415" data-name="Trazado 1015415" d="M216,336h22.824v3.8H216Z" transform="translate(-176.225 -281.96)" fill="gray"/>
      <path id="Trazado_1015416" data-name="Trazado 1015416" d="M223.608,369.583a2.509,2.509,0,0,1-2.232,2.494l-5.376.7.951.951,6.327-.7a2.508,2.508,0,0,0-.212-5A2.5,2.5,0,0,1,223.608,369.583Z" transform="translate(-176.225 -310.181)" fill="#e5b391"/>
      <path id="Trazado_1015417" data-name="Trazado 1015417" d="M136.777,416c-.063,0-.126,0-.189,0a2.012,2.012,0,0,1-.287,2.488l-3.213,3.213-6.657,1.9h-7.608l-21.873-3.8H96v.951h2.853l21.873,3.8h7.608l6.657-1.9,3.213-3.213A2.017,2.017,0,0,0,136.777,416Z" transform="translate(-70.49 -352.45)" fill="#e5b391"/>
      <path id="Trazado_1015418" data-name="Trazado 1015418" d="M24,368H35.412v14.265H24Z" transform="translate(-7.049 -310.156)" fill="#ffc841"/>
      <path id="Trazado_1015419" data-name="Trazado 1015419" d="M24,464H35.412v2.853H24Z" transform="translate(-7.049 -394.744)" fill="#f2b630"/>
      <path id="Trazado_1015420" data-name="Trazado 1015420" d="M354.367,339.8h6.376V336h-1.083A28.433,28.433,0,0,1,354.367,339.8Z" transform="translate(-298.144 -281.96)" fill="#666"/>
      <path id="Trazado_1015421" data-name="Trazado 1015421" d="M62.318,31.5a2.848,2.848,0,0,0-.448-3.136,2.847,2.847,0,0,0-.386-4.162l.755-2.269a3.46,3.46,0,0,0-5.113-4.039,1.54,1.54,0,0,1-1.92-.22,5.666,5.666,0,0,0-8.039,0,1.539,1.539,0,0,1-1.92.22l-.036-.023A3.46,3.46,0,0,0,40.094,21.9l.765,2.329a2.847,2.847,0,0,0-.355,4.138,2.848,2.848,0,0,0-.447,3.137c-3.387,3.677-10.742,12.495-10.742,19.687a19.089,19.089,0,0,0,1.314,7.136l-1.314.263v-.742a.951.951,0,0,0-.951-.951H16.951a.951.951,0,0,0-.951.951V72.109a.951.951,0,0,0,.951.951H28.363a.951.951,0,0,0,.951-.951V69.435l20.759,3.61a.962.962,0,0,0,.163.014h7.608a.951.951,0,0,0,.262-.037l6.657-1.9a.952.952,0,0,0,.411-.242l3.213-3.213a2.965,2.965,0,0,0,.065-4.128A17.794,17.794,0,0,0,73.06,51.187c0-2.982-1.263-6.555-3.755-10.621A59.707,59.707,0,0,0,62.318,31.5ZM41.677,30.265a.952.952,0,0,1,.951-.951H59.746a.951.951,0,1,1,0,1.9H42.628A.952.952,0,0,1,41.677,30.265Zm0-3.8a.952.952,0,0,1,.951-.951H59.746a.951.951,0,1,1,0,1.9H42.628A.952.952,0,0,1,41.677,26.461Zm.747-6.889A1.507,1.507,0,0,1,44.2,19.48l.036.023a3.431,3.431,0,0,0,4.279-.489,3.765,3.765,0,0,1,5.343,0,3.432,3.432,0,0,0,4.279.489,1.515,1.515,0,0,1,1.778.094,1.54,1.54,0,0,1,.519,1.734l-.758,2.277H42.658L41.9,21.3A1.54,1.54,0,0,1,42.424,19.572ZM27.412,71.158H17.9V58.795h9.51Zm39.629-4.837L64,69.36l-6.292,1.8H50.318l-21-3.653V60.525l8.653-1.731h8.809a1.558,1.558,0,0,1,.172,3.107l-6.327.7a.951.951,0,0,0-.22,1.839l10.461,3.8a.953.953,0,0,0,.325.057h5.706a.954.954,0,0,0,.186-.018l4.755-.951a.952.952,0,0,0,.486-.261L63.9,65.489a3.346,3.346,0,0,1,2.384-.989,1.066,1.066,0,0,1,.754,1.82Zm-7.3-22.742H42.628V42.384l8.559-2.568,8.559,2.568Zm1.9,1.9v1.9H40.726v-1.9Zm-6.657,7.608v-3.8h3.8v3.8Zm-1.9-3.8v3.8h-3.8v-3.8Zm-5.706,0v3.8h-3.8v-3.8Zm14.265,5.706v1.9H40.726v-1.9Zm5.045,7.636a2.976,2.976,0,0,0-.405-.028,5.236,5.236,0,0,0-3.73,1.547l-1.379,1.381L56.8,66.4H51.354l-6.481-2.357,2.285-.254a3.457,3.457,0,0,0,2.706-5H62.6a.951.951,0,0,0,.951-.951v-3.8a.951.951,0,0,0-.951-.951H60.7v-3.8h1.9a.951.951,0,0,0,.951-.951v-3.8a.951.951,0,0,0-.951-.951h-.951v-1.9a.951.951,0,0,0-.678-.911l-9.51-2.853a.953.953,0,0,0-.547,0L41.4,40.766a.951.951,0,0,0-.678.911v1.9h-.951a.951.951,0,0,0-.951.951v3.8a.951.951,0,0,0,.951.951h1.9v3.8h-1.9a.951.951,0,0,0-.951.951v2.853h-.951a.954.954,0,0,0-.186.018L32.53,57.942a17.083,17.083,0,0,1-1.314-6.756c0-2.589,1.2-5.919,3.474-9.628A58.078,58.078,0,0,1,41.4,32.842a2.836,2.836,0,0,0,1.223.276H59.746a2.835,2.835,0,0,0,1.223-.276,57.772,57.772,0,0,1,6.714,8.718c2.273,3.709,3.474,7.038,3.474,9.627A15.873,15.873,0,0,1,66.692,62.627Z"/>
    </g>
  </g>
</svg>
