<svg xmlns="http://www.w3.org/2000/svg" xmlns:xlink="http://www.w3.org/1999/xlink" width="110" height="110" viewBox="0 0 110 110">
  <defs>
    <filter id="Trazado_982547" x="0" y="0" width="110" height="110" filterUnits="userSpaceOnUse">
      <feOffset dy="3" input="SourceAlpha"/>
      <feGaussianBlur stdDeviation="3" result="blur"/>
      <feFlood flood-opacity="0.161"/>
      <feComposite operator="in" in2="blur"/>
      <feComposite in="SourceGraphic"/>
    </filter>
  </defs>
  <g id="Grupo_1171419" data-name="Grupo 1171419" transform="translate(-7652 -6930)">
    <g id="Grupo_1168730" data-name="Grupo 1168730" transform="translate(6535.805 2285.316)">
      <g id="Grupo_1163015" data-name="Grupo 1163015" transform="translate(1.195 305.685)">
        <g id="Grupo_1157017" data-name="Grupo 1157017" transform="translate(0 3549)">
          <g id="Grupo_1155793" data-name="Grupo 1155793" transform="translate(-0.999 -3894)">
            <g id="Grupo_1154704" data-name="Grupo 1154704" transform="translate(0 1466)">
              <g id="Grupo_1150790" data-name="Grupo 1150790" transform="translate(3 2320)">
                <g id="Grupo_1154214" data-name="Grupo 1154214" transform="translate(79 -5809)">
                  <g id="Grupo_1152583" data-name="Grupo 1152583" transform="translate(1043 6713)">
                    <g id="Grupo_1146973" data-name="Grupo 1146973" transform="translate(0 0)">
                      <g id="Grupo_1146954" data-name="Grupo 1146954">
                        <g transform="matrix(1, 0, 0, 1, -9, -6)" filter="url(#Trazado_982547)">
                          <g id="Trazado_982547-2" data-name="Trazado 982547" transform="translate(9 6)" fill="#e4f2f4">
                            <path d="M 46 90.49987030029297 C 39.99187850952148 90.49987030029297 34.16426849365234 89.32350921630859 28.67905426025391 87.00345611572266 C 23.38019943237305 84.76224517822266 18.62104034423828 81.55341339111328 14.53374671936035 77.46613311767578 C 10.44646644592285 73.37885284423828 7.237639904022217 68.61969757080078 4.996413230895996 63.32085418701172 C 2.676359891891479 57.83565521240234 1.5 52.008056640625 1.5 45.99993515014648 C 1.5 39.99181365966797 2.676359891891479 34.16421508789062 4.996413230895996 28.67901420593262 C 7.237639904022217 23.38017463684082 10.44646644592285 18.62101554870605 14.53374671936035 14.53373527526855 C 18.62104034423828 10.44645500183105 23.38019943237305 7.23762845993042 28.67905426025391 4.996415138244629 C 34.16426849365234 2.676361799240112 39.99187850952148 1.500001788139343 46 1.500001788139343 C 52.00812149047852 1.500001788139343 57.83573150634766 2.676361799240112 63.32094573974609 4.996415138244629 C 68.61979675292969 7.23762845993042 73.37895965576172 10.44645500183105 77.46625518798828 14.53373527526855 C 81.55353546142578 18.62101554870605 84.76235961914062 23.38017463684082 87.00358581542969 28.67901420593262 C 89.32363891601562 34.16421508789062 90.5 39.99181365966797 90.5 45.99993515014648 C 90.5 52.008056640625 89.32363891601562 57.83565521240234 87.00358581542969 63.32085418701172 C 84.76235961914062 68.61969757080078 81.55353546142578 73.37885284423828 77.46625518798828 77.46613311767578 C 73.37895965576172 81.55341339111328 68.61979675292969 84.76224517822266 63.32094573974609 87.00345611572266 C 57.83573150634766 89.32350921630859 52.00812149047852 90.49987030029297 46 90.49987030029297 Z" stroke="none"/>
                            <path d="M 46 2.999992370605469 C 40.1937141418457 2.999992370605469 34.56269836425781 4.136489868164062 29.26337051391602 6.377906799316406 C 24.14332580566406 8.543502807617188 19.54441070556641 11.64437866210938 15.59439849853516 15.59437561035156 C 11.64440155029297 19.54439544677734 8.54351806640625 24.14329528808594 6.377914428710938 29.26333618164062 C 4.136497497558594 34.56264877319336 3 40.19366455078125 3 45.99993515014648 C 3 51.80620574951172 4.136497497558594 57.43720626831055 6.377914428710938 62.73651885986328 C 8.54351806640625 67.8565673828125 11.64440155029297 72.45545959472656 15.59439849853516 76.40547943115234 C 19.54441070556641 80.35547637939453 24.14332580566406 83.45635223388672 29.26337051391602 85.6219482421875 C 34.56269836425781 87.86336517333984 40.1937141418457 88.99986267089844 46 88.99986267089844 C 51.8062858581543 88.99986267089844 57.43730163574219 87.86336517333984 62.73661422729492 85.6219482421875 C 67.85667419433594 83.45635223388672 72.45557403564453 80.35547637939453 76.40558624267578 76.40547943115234 C 80.35559844970703 72.45545959472656 83.45647430419922 67.8565673828125 85.6220703125 62.73651885986328 C 87.86350250244141 57.43720626831055 89 51.80620574951172 89 45.99993515014648 C 89 40.19366455078125 87.86350250244141 34.56264877319336 85.6220703125 29.26333618164062 C 83.45647430419922 24.14329528808594 80.35559844970703 19.54439544677734 76.40558624267578 15.59437561035156 C 72.45557403564453 11.64437866210938 67.85667419433594 8.543502807617188 62.73661422729492 6.377906799316406 C 57.43730163574219 4.136489868164062 51.8062858581543 2.999992370605469 46 2.999992370605469 M 46 -7.62939453125e-06 C 71.40509033203125 -7.62939453125e-06 92 20.59486389160156 92 45.99993515014648 C 92 71.40499114990234 71.40509033203125 91.99986267089844 46 91.99986267089844 C 20.59490203857422 91.99986267089844 0 71.40499114990234 0 45.99993515014648 C 0 20.59486389160156 20.59490203857422 -7.62939453125e-06 46 -7.62939453125e-06 Z" stroke="none" fill="#01899b"/>
                          </g>
                        </g>
                      </g>
                    </g>
                  </g>
                </g>
              </g>
            </g>
          </g>
        </g>
      </g>
    </g>
    <g id="profit_6078949" transform="translate(7680 6955)">
      <path id="Trazado_1015422" data-name="Trazado 1015422" d="M44.654,56h-4.99A1.663,1.663,0,0,0,38,57.663v1.663a1.663,1.663,0,0,0,1.663,1.663H56.3a1.663,1.663,0,0,0,1.663-1.663V57.663A1.663,1.663,0,0,0,56.3,56Z" transform="translate(-6.225 -9.254)" fill="#f4a93c"/>
      <path id="Trazado_1015423" data-name="Trazado 1015423" d="M56.21,56H39.663A1.663,1.663,0,0,0,38,57.663v1.663l.124.124H55.379a.832.832,0,0,0,.832-.832Z" transform="translate(-6.225 -9.254)" fill="#f7cc46"/>
      <path id="Trazado_1015424" data-name="Trazado 1015424" d="M45.251,41.924H2V2H45.251Z" transform="translate(-0.168 -0.168)" fill="#e2e7f6"/>
      <path id="Trazado_1015425" data-name="Trazado 1015425" d="M2,2H41.924V38.6H2Z" transform="translate(-0.168 -0.168)" fill="#f7fafd"/>
      <path id="Trazado_1015426" data-name="Trazado 1015426" d="M6,18h4.99V41.289H6Z" transform="translate(-0.841 -2.86)" fill="#f4a93c"/>
      <path id="Trazado_1015427" data-name="Trazado 1015427" d="M44.654,32h-4.99A1.663,1.663,0,0,0,38,33.663v1.663a1.663,1.663,0,0,0,1.663,1.663H56.3a1.663,1.663,0,0,0,1.663-1.663V33.663A1.663,1.663,0,0,0,56.3,32Z" transform="translate(-6.225 -5.216)" fill="#f4a93c"/>
      <path id="Trazado_1015428" data-name="Trazado 1015428" d="M44.654,38h-4.99A1.663,1.663,0,0,0,38,39.663v1.663a1.663,1.663,0,0,0,1.663,1.663H56.3a1.663,1.663,0,0,0,1.663-1.663V39.663A1.663,1.663,0,0,0,56.3,38Z" transform="translate(-6.225 -6.225)" fill="#f6b940"/>
      <path id="Trazado_1015429" data-name="Trazado 1015429" d="M44.654,44h-4.99A1.663,1.663,0,0,0,38,45.663v1.663a1.663,1.663,0,0,0,1.663,1.663H56.3a1.663,1.663,0,0,0,1.663-1.663V45.663A1.663,1.663,0,0,0,56.3,44Z" transform="translate(-6.225 -7.235)" fill="#f4a93c"/>
      <path id="Trazado_1015430" data-name="Trazado 1015430" d="M44.654,50h-4.99A1.663,1.663,0,0,0,38,51.663v1.663a1.663,1.663,0,0,0,1.663,1.663H56.3a1.663,1.663,0,0,0,1.663-1.663V51.663A1.663,1.663,0,0,0,56.3,50Z" transform="translate(-6.225 -8.244)" fill="#f6b940"/>
      <path id="Trazado_1015431" data-name="Trazado 1015431" d="M6,18H9.327V39.625H6Z" transform="translate(-0.841 -2.86)" fill="#f6b940"/>
      <path id="Trazado_1015432" data-name="Trazado 1015432" d="M16,22h4.99V41.962H16Z" transform="translate(-2.524 -3.533)" fill="#b52f28"/>
      <path id="Trazado_1015433" data-name="Trazado 1015433" d="M16,22h3.327V40.3H16Z" transform="translate(-2.524 -3.533)" fill="#d23f34"/>
      <path id="Trazado_1015434" data-name="Trazado 1015434" d="M26,28h4.99V42.971H26Z" transform="translate(-4.206 -4.543)" fill="#4c6cb5"/>
      <path id="Trazado_1015435" data-name="Trazado 1015435" d="M26,28h3.327V41.308H26Z" transform="translate(-4.206 -4.543)" fill="#5a80cc"/>
      <path id="Trazado_1015436" data-name="Trazado 1015436" d="M2,2H45.251V8.654H2Z" transform="translate(-0.168 -0.168)" fill="#3b5892"/>
      <path id="Trazado_1015437" data-name="Trazado 1015437" d="M2,2H41.924V6.99H2Z" transform="translate(-0.168 -0.168)" fill="#4c6cb5"/>
      <path id="Trazado_1015438" data-name="Trazado 1015438" d="M5,5h6.654V6.663H5Z" transform="translate(-0.673 -0.673)" fill="#c0dafc"/>
      <path id="Trazado_1015439" data-name="Trazado 1015439" d="M15,5h1.663V6.663H15Z" transform="translate(-2.356 -0.673)" fill="#c0dafc"/>
      <g id="Grupo_1171418" data-name="Grupo 1171418" transform="translate(31.775 26.784)">
        <path id="Trazado_1015440" data-name="Trazado 1015440" d="M56.21,50H39.663A1.663,1.663,0,0,0,38,51.663v1.663l.124.124H55.379a.832.832,0,0,0,.832-.832Z" transform="translate(-38 -35.029)" fill="#f7cc46"/>
        <path id="Trazado_1015441" data-name="Trazado 1015441" d="M56.21,44H39.663A1.663,1.663,0,0,0,38,45.663v1.663l.124.124H55.379a.832.832,0,0,0,.832-.832Z" transform="translate(-38 -34.019)" fill="#f7cc46"/>
        <path id="Trazado_1015442" data-name="Trazado 1015442" d="M56.21,38H39.663A1.663,1.663,0,0,0,38,39.663v1.663l.124.124H55.379a.832.832,0,0,0,.832-.832Z" transform="translate(-38 -33.01)" fill="#f7cc46"/>
        <path id="Trazado_1015443" data-name="Trazado 1015443" d="M56.21,32H39.663A1.663,1.663,0,0,0,38,33.663v1.663l.124.124H55.379a.832.832,0,0,0,.832-.832Z" transform="translate(-38 -32)" fill="#f7cc46"/>
      </g>
      <ellipse id="Elipse_12149" data-name="Elipse 12149" cx="8" cy="8.5" rx="8" ry="8.5" transform="translate(23 35)" fill="#e8972d"/>
      <circle id="Elipse_12150" data-name="Elipse 12150" cx="8.5" cy="8.5" r="8.5" transform="translate(16 35)" fill="#f6b940"/>
      <path id="Trazado_1015444" data-name="Trazado 1015444" d="M31.848,43.347A8.307,8.307,0,0,0,20.675,55.307h9.509a1.663,1.663,0,0,0,1.663-1.663Z" transform="translate(-3.028 -6.897)" fill="#f7cc46"/>
      <path id="Trazado_1015445" data-name="Trazado 1015445" d="M29.159,49.99H27.5a.832.832,0,0,1-.832-.832v-.832A.832.832,0,0,1,27.5,47.5h1.663a.832.832,0,0,1,.832.832h1.663a2.5,2.5,0,0,0-2.5-2.5V45H27.5v.832a2.5,2.5,0,0,0-2.5,2.5v.832a2.5,2.5,0,0,0,2.5,2.5h1.663a.832.832,0,0,1,.832.832v.832a.832.832,0,0,1-.832.832H27.5a.832.832,0,0,1-.832-.832H25a2.5,2.5,0,0,0,2.5,2.5v.832h1.663v-.832a2.5,2.5,0,0,0,2.5-2.5v-.832A2.5,2.5,0,0,0,29.159,49.99Z" transform="translate(-4.038 -7.403)" fill="#f7fafd"/>
      <path id="Trazado_1015446" data-name="Trazado 1015446" d="M52.149,30.971V22.654h2.5L48.822,16,43,22.654h2.5v8.317Z" transform="translate(-7.067 -2.524)" fill="#4d8c28"/>
      <path id="Trazado_1015447" data-name="Trazado 1015447" d="M50.486,27.694V17.9L48.822,16,43,22.654h2.5v5.04Z" transform="translate(-7.067 -2.524)" fill="#559b2d"/>
      <path id="Trazado_1015448" data-name="Trazado 1015448" d="M52.568,28.448a2.5,2.5,0,0,0-2.5-2.5H45.914v-4.99h1.663a.832.832,0,0,0,.625-1.379L45.914,16.97V1.832A.832.832,0,0,0,45.083,1H1.832A.832.832,0,0,0,1,1.832V41.756a.832.832,0,0,0,.832.832h13.35c-.025.274-.042.551-.042.832a9.13,9.13,0,0,0,12.476,8.514,8.941,8.941,0,0,0,4.99.476,2.475,2.475,0,0,0,.832.16H50.073a2.5,2.5,0,0,0,2.5-2.5V48.41a2.479,2.479,0,0,0-.649-1.663,2.479,2.479,0,0,0,.649-1.663V43.419a2.479,2.479,0,0,0-.649-1.663,2.479,2.479,0,0,0,.649-1.663V38.429a2.479,2.479,0,0,0-.649-1.664,2.479,2.479,0,0,0,.649-1.663V33.438a2.479,2.479,0,0,0-.649-1.663,2.479,2.479,0,0,0,.649-1.663Zm-2.5-.832a.832.832,0,0,1,.832.832v1.663a.832.832,0,0,1-.832.832H33.438a.832.832,0,0,1-.832-.832V28.448a.832.832,0,0,1,.832-.832H37.6v.832a.832.832,0,0,0,.832.832h6.654a.832.832,0,0,0,.832-.832v-.832Zm.832,5.822V35.1a.832.832,0,0,1-.832.832H36.187a9.1,9.1,0,0,0-3.581-1.5v-.991a.832.832,0,0,1,.832-.832H50.073A.832.832,0,0,1,50.9,33.438Zm0,4.99v1.663a.832.832,0,0,1-.832.832H39.738A9.149,9.149,0,0,0,38,37.6H50.073A.832.832,0,0,1,50.9,38.429Zm0,4.99v1.663a.832.832,0,0,1-.832.832H39.738a9.121,9.121,0,0,0,.354-2.5c0-.281-.017-.557-.042-.832H50.073A.832.832,0,0,1,50.9,43.419ZM45.748,19.3h-.665a.832.832,0,0,0-.832.832v7.486H39.26V20.13a.832.832,0,0,0-.832-.832h-.665l3.992-4.559Zm-1.5-16.635v4.99H2.663V2.663ZM2.663,40.924V9.317H44.251v5.747l-1.87-2.136a.855.855,0,0,0-1.248,0l-5.822,6.654a.832.832,0,0,0,.622,1.379H37.6v4.99H33.438a2.5,2.5,0,0,0-2.5,2.5v1.663a2.479,2.479,0,0,0,.649,1.663,2.479,2.479,0,0,0-.649,1.663v.832a9.08,9.08,0,0,0-3.327.635V23.457a.832.832,0,0,0-.832-.832h-4.99a.832.832,0,0,0-.832.832V34.905a9.129,9.129,0,0,0-1.663.855V18.467a.832.832,0,0,0-.832-.832h-4.99a.832.832,0,0,0-.832.832V38.429a.832.832,0,0,0,.832.832h2.673a9.127,9.127,0,0,0-.655,1.663Zm23.289-6.5a8.789,8.789,0,0,0-3.327,0V24.289h3.327Zm-8.317,2.731c-.136.143-.272.285-.4.438H14.308V19.3h3.327Zm-.832,6.26A7.486,7.486,0,1,1,24.289,50.9,7.486,7.486,0,0,1,16.8,43.419Zm12.882,7.372a9.117,9.117,0,0,0,0-14.744,7.486,7.486,0,1,1,0,14.744Zm21.22-.718a.832.832,0,0,1-.832.832H36.187a9.2,9.2,0,0,0,2.9-3.327H50.073a.832.832,0,0,1,.832.832Z" transform="translate(0)"/>
      <path id="Trazado_1015449" data-name="Trazado 1015449" d="M10.822,17H5.832A.832.832,0,0,0,5,17.832V41.121a.832.832,0,0,0,.832.832h4.99a.832.832,0,0,0,.832-.832V17.832A.832.832,0,0,0,10.822,17ZM9.99,40.289H6.663V18.663H9.99Z" transform="translate(-0.673 -2.692)"/>
      <path id="Trazado_1015450" data-name="Trazado 1015450" d="M5,5h6.654V6.663H5Z" transform="translate(-0.673 -0.673)"/>
      <path id="Trazado_1015451" data-name="Trazado 1015451" d="M15,5h1.663V6.663H15Z" transform="translate(-2.356 -0.673)"/>
      <path id="Trazado_1015452" data-name="Trazado 1015452" d="M27.5,47.5h1.663a.832.832,0,0,1,.832.832h1.663a2.5,2.5,0,0,0-2.5-2.5V45H27.5v.832a2.5,2.5,0,0,0-2.5,2.5v.832a2.5,2.5,0,0,0,2.5,2.5h1.663a.832.832,0,0,1,.832.832v.832a.832.832,0,0,1-.832.832H27.5a.832.832,0,0,1-.832-.832H25a2.5,2.5,0,0,0,2.5,2.5v.832h1.663v-.832a2.5,2.5,0,0,0,2.5-2.5v-.832a2.5,2.5,0,0,0-2.5-2.5H27.5a.832.832,0,0,1-.832-.832v-.832A.832.832,0,0,1,27.5,47.5Z" transform="translate(-4.038 -7.403)"/>
    </g>
  </g>
</svg>
