<svg xmlns="http://www.w3.org/2000/svg" xmlns:xlink="http://www.w3.org/1999/xlink" width="715" height="348.183" viewBox="0 0 715 348.183">
  <defs>
    <filter id="Trazado_1015691" x="10" y="66.183" width="167" height="162" filterUnits="userSpaceOnUse">
      <feOffset dy="3" input="SourceAlpha"/>
      <feGaussianBlur stdDeviation="3" result="blur"/>
      <feFlood flood-opacity="0.161"/>
      <feComposite operator="in" in2="blur"/>
      <feComposite in="SourceGraphic"/>
    </filter>
    <filter id="Trazado_1015692" x="273" y="66.183" width="168" height="162" filterUnits="userSpaceOnUse">
      <feOffset dy="3" input="SourceAlpha"/>
      <feGaussianBlur stdDeviation="3" result="blur-2"/>
      <feFlood flood-opacity="0.161"/>
      <feComposite operator="in" in2="blur-2"/>
      <feComposite in="SourceGraphic"/>
    </filter>
    <filter id="Trazado_1015693" x="538" y="66.183" width="167" height="162" filterUnits="userSpaceOnUse">
      <feOffset dy="3" input="SourceAlpha"/>
      <feGaussianBlur stdDeviation="3" result="blur-3"/>
      <feFlood flood-opacity="0.161"/>
      <feComposite operator="in" in2="blur-3"/>
      <feComposite in="SourceGraphic"/>
    </filter>
    <filter id="Trazado_1013102" x="172.299" y="98.183" width="93" height="93" filterUnits="userSpaceOnUse">
      <feOffset dy="3" input="SourceAlpha"/>
      <feGaussianBlur stdDeviation="3" result="blur-4"/>
      <feFlood flood-opacity="0.161"/>
      <feComposite operator="in" in2="blur-4"/>
      <feComposite in="SourceGraphic"/>
    </filter>
    <filter id="Trazado_1013103" x="452.299" y="111.703" width="89.164" height="36.565" filterUnits="userSpaceOnUse">
      <feOffset dy="3" input="SourceAlpha"/>
      <feGaussianBlur stdDeviation="3" result="blur-5"/>
      <feFlood flood-opacity="0.161"/>
      <feComposite operator="in" in2="blur-5"/>
      <feComposite in="SourceGraphic"/>
    </filter>
    <filter id="Trazado_1013104" x="452.299" y="141.097" width="89.164" height="36.565" filterUnits="userSpaceOnUse">
      <feOffset dy="3" input="SourceAlpha"/>
      <feGaussianBlur stdDeviation="3" result="blur-6"/>
      <feFlood flood-opacity="0.161"/>
      <feComposite operator="in" in2="blur-6"/>
      <feComposite in="SourceGraphic"/>
    </filter>
  </defs>
  <g id="Grupo_1171494" data-name="Grupo 1171494" transform="translate(-442.701 -598.817)">
    <path id="Trazado_1015690" data-name="Trazado 1015690" d="M0,0H715V229H0Z" transform="translate(442.701 632)" fill="#fff"/>
    <g transform="matrix(1, 0, 0, 1, 442.7, 598.82)" filter="url(#Trazado_1015691)">
      <path id="Trazado_1015691-2" data-name="Trazado 1015691" d="M74.5,0C115.645,0,149,32.236,149,72s-33.355,72-74.5,72S0,111.764,0,72,33.355,0,74.5,0Z" transform="translate(19 72.18)" fill="#01899b"/>
    </g>
    <g transform="matrix(1, 0, 0, 1, 442.7, 598.82)" filter="url(#Trazado_1015692)">
      <path id="Trazado_1015692-2" data-name="Trazado 1015692" d="M75,0c41.421,0,75,32.236,75,72s-33.579,72-75,72S0,111.764,0,72,33.579,0,75,0Z" transform="translate(282 72.18)" fill="#01899b"/>
    </g>
    <g transform="matrix(1, 0, 0, 1, 442.7, 598.82)" filter="url(#Trazado_1015693)">
      <path id="Trazado_1015693-2" data-name="Trazado 1015693" d="M74.5,0C115.645,0,149,32.236,149,72s-33.355,72-74.5,72S0,111.764,0,72,33.355,0,74.5,0Z" transform="translate(547 72.18)" fill="#01899b"/>
    </g>
    <g id="plus-symbol-button" transform="translate(624 703)">
      <g transform="matrix(1, 0, 0, 1, -181.3, -104.18)" filter="url(#Trazado_1013102)">
        <path id="Trazado_1013102-2" data-name="Trazado 1013102" d="M75,30.347V44.653A1.951,1.951,0,0,1,73.049,46.6H46.6V73.049A1.951,1.951,0,0,1,44.653,75H30.347A1.951,1.951,0,0,1,28.4,73.049V46.6H1.951A1.951,1.951,0,0,1,0,44.653V30.347A1.951,1.951,0,0,1,1.951,28.4H28.4V1.951A1.951,1.951,0,0,1,30.347,0H44.653A1.951,1.951,0,0,1,46.6,1.951V28.4H73.049A1.95,1.95,0,0,1,75,30.347Z" transform="translate(181.3 104.18)" fill="#98cfd6"/>
      </g>
    </g>
    <g id="equals-symbol" transform="translate(904 709.021)">
      <g id="Grupo_1168772" data-name="Grupo 1168772" transform="translate(0 7.5)">
        <g transform="matrix(1, 0, 0, 1, -461.3, -117.7)" filter="url(#Trazado_1013103)">
          <path id="Trazado_1013103-2" data-name="Trazado 1013103" d="M71.164,12.132A4.633,4.633,0,0,0,66.532,7.5H4.632A4.633,4.633,0,0,0,0,12.132v9.3a4.633,4.633,0,0,0,4.632,4.632h61.9a4.633,4.633,0,0,0,4.632-4.632Z" transform="translate(461.3 110.2)" fill="#98cfd6"/>
        </g>
        <g transform="matrix(1, 0, 0, 1, -461.3, -117.7)" filter="url(#Trazado_1013104)">
          <path id="Trazado_1013104-2" data-name="Trazado 1013104" d="M71.164,31.132A4.633,4.633,0,0,0,66.532,26.5H4.632A4.633,4.633,0,0,0,0,31.132v9.3a4.633,4.633,0,0,0,4.632,4.632h61.9a4.633,4.633,0,0,0,4.632-4.632Z" transform="translate(461.3 120.6)" fill="#98cfd6"/>
        </g>
      </g>
    </g>
    <path id="Trazado_1015694" data-name="Trazado 1015694" d="M0,0H715V84H0Z" transform="translate(442.701 863)" fill="#01899b"/>
    <path id="Contenido" d="M13,0H2.082V-18.205h10.5v3.339h-6.4v4.05h5.954V-7.49H6.183v4.164H13ZM28.971-.647a12.005,12.005,0,0,1-5.205.965,8.774,8.774,0,0,1-6.589-2.463,9,9,0,0,1-2.4-6.563,9.619,9.619,0,0,1,2.7-7.084,9.436,9.436,0,0,1,7-2.717,13.094,13.094,0,0,1,4.494.673v3.948a7.963,7.963,0,0,0-4.164-1.092,5.524,5.524,0,0,0-4.139,1.612A5.983,5.983,0,0,0,19.094-9a5.868,5.868,0,0,0,1.485,4.208,5.247,5.247,0,0,0,4,1.568,8.53,8.53,0,0,0,4.393-1.168ZM46.985-7.884q0,8.2-7.643,8.2-7.414,0-7.414-8.011V-18.205h4.113V-7.643q0,4.418,3.453,4.418,3.39,0,3.39-4.266V-18.205h4.1ZM66.384,0H61.915L60.62-4.05H54.146L52.863,0H48.42l6.627-18.205h4.862Zm-6.7-7.2-1.955-6.119a7.974,7.974,0,0,1-.3-1.638h-.1A6.944,6.944,0,0,1,57-13.368L55.021-7.2ZM81.313-.647a12.005,12.005,0,0,1-5.205.965A8.774,8.774,0,0,1,69.52-2.146a9,9,0,0,1-2.4-6.563,9.619,9.619,0,0,1,2.7-7.084,9.436,9.436,0,0,1,7-2.717,13.094,13.094,0,0,1,4.494.673v3.948a7.963,7.963,0,0,0-4.164-1.092,5.524,5.524,0,0,0-4.139,1.612A5.983,5.983,0,0,0,71.437-9a5.868,5.868,0,0,0,1.485,4.208,5.247,5.247,0,0,0,4,1.568,8.53,8.53,0,0,0,4.393-1.168ZM88.588,0h-4.1V-18.205h4.1ZM100.42.317a8.474,8.474,0,0,1-6.373-2.545,9.138,9.138,0,0,1-2.463-6.633,9.792,9.792,0,0,1,2.5-6.982,8.659,8.659,0,0,1,6.627-2.666,8.263,8.263,0,0,1,6.3,2.552,9.408,9.408,0,0,1,2.406,6.729,9.635,9.635,0,0,1-2.495,6.919A8.562,8.562,0,0,1,100.42.317Zm.178-15.3a4.128,4.128,0,0,0-3.428,1.619A6.749,6.749,0,0,0,95.9-9.077,6.625,6.625,0,0,0,97.17-4.8,4.068,4.068,0,0,0,100.5-3.225a4.109,4.109,0,0,0,3.364-1.53A6.552,6.552,0,0,0,105.1-9a7.1,7.1,0,0,0-1.206-4.405A3.932,3.932,0,0,0,100.6-14.98Zm4.139-9.014-3.974,4.1H97.868l3.3-4.1ZM128.807,0h-4.139l-7.5-11.438a16.542,16.542,0,0,1-.914-1.511H116.2q.1.965.1,2.945V0H112.43V-18.205h4.418l7.224,11.083q.5.749.914,1.485h.051a19.464,19.464,0,0,1-.1-2.5V-18.205h3.872Zm24.388-.647a12.005,12.005,0,0,1-5.205.965A8.774,8.774,0,0,1,141.4-2.146,9,9,0,0,1,139-8.709a9.619,9.619,0,0,1,2.7-7.084,9.436,9.436,0,0,1,7-2.717,13.094,13.094,0,0,1,4.494.673v3.948a7.963,7.963,0,0,0-4.164-1.092,5.524,5.524,0,0,0-4.139,1.612A5.983,5.983,0,0,0,143.317-9,5.868,5.868,0,0,0,144.8-4.792a5.247,5.247,0,0,0,4,1.568,8.53,8.53,0,0,0,4.393-1.168Zm10.55.965a8.474,8.474,0,0,1-6.373-2.545,9.138,9.138,0,0,1-2.463-6.633,9.792,9.792,0,0,1,2.5-6.982,8.659,8.659,0,0,1,6.627-2.666,8.263,8.263,0,0,1,6.3,2.552,9.408,9.408,0,0,1,2.406,6.729,9.635,9.635,0,0,1-2.495,6.919A8.562,8.562,0,0,1,163.744.317Zm.178-15.3a4.128,4.128,0,0,0-3.428,1.619,6.749,6.749,0,0,0-1.27,4.285,6.625,6.625,0,0,0,1.27,4.278,4.068,4.068,0,0,0,3.326,1.574,4.109,4.109,0,0,0,3.364-1.53A6.552,6.552,0,0,0,168.429-9a7.1,7.1,0,0,0-1.206-4.405A3.932,3.932,0,0,0,163.922-14.98ZM192.144,0H188l-7.5-11.438a16.539,16.539,0,0,1-.914-1.511h-.051q.1.965.1,2.945V0h-3.872V-18.205h4.418l7.224,11.083q.5.749.914,1.485h.051a19.466,19.466,0,0,1-.1-2.5V-18.205h3.872Zm16.948-14.866H203.9V0h-4.113V-14.866h-5.167v-3.339h14.473ZM225.735,0h-4.469l-1.295-4.05H213.5L212.215,0h-4.443L214.4-18.205h4.862Zm-6.7-7.2-1.955-6.119a7.975,7.975,0,0,1-.3-1.638h-.1a6.944,6.944,0,0,1-.317,1.587l-1.98,6.17ZM228.008,0V-18.205h6.627a8.276,8.276,0,0,1,4.685,1.117,3.593,3.593,0,0,1,1.638,3.148,3.726,3.726,0,0,1-1,2.577,5.236,5.236,0,0,1-2.545,1.536v.051a5.045,5.045,0,0,1,3.1,1.435,4.012,4.012,0,0,1,1.162,2.907,4.859,4.859,0,0,1-1.79,3.967A7.491,7.491,0,0,1,235,0Zm4.1-15.184v4.316h1.8a3,3,0,0,0,2-.616,2.1,2.1,0,0,0,.73-1.695q0-2.006-3-2.006Zm0,7.363v4.8h2.222a3.419,3.419,0,0,0,2.228-.66,2.205,2.205,0,0,0,.806-1.8,2.058,2.058,0,0,0-.793-1.714,3.51,3.51,0,0,0-2.215-.622ZM255.519,0H244.677V-18.205h4.1V-3.326h6.741Zm13.368,0H257.969V-18.205h10.5v3.339h-6.4v4.05h5.954V-7.49h-5.954v4.164h6.817Z" transform="translate(658.701 915)" fill="#fff"/>
    <g id="Trazado_1015695" data-name="Trazado 1015695" transform="translate(442.701 630)" fill="none">
      <path d="M0,0H715V233H0Z" stroke="none"/>
      <path d="M 5 5 L 5 228 L 710 228 L 710 5 L 5 5 M 0 0 L 715 0 L 715 233 L 0 233 L 0 0 Z" stroke="none" fill="#004a54"/>
    </g>
    <path id="Contenido-2" data-name="Contenido" d="M18.091,0H13.622L12.327-4.05H5.853L4.57,0H.127L6.754-18.205h4.862Zm-6.7-7.2L9.433-13.317a7.974,7.974,0,0,1-.3-1.638h-.1a6.944,6.944,0,0,1-.317,1.587L6.729-7.2ZM29.821-.47A7.932,7.932,0,0,1,25.9.317,6.634,6.634,0,0,1,21.049-1.5,6.27,6.27,0,0,1,19.2-6.183a6.907,6.907,0,0,1,1.987-5.224A7.343,7.343,0,0,1,26.5-13.317a6.817,6.817,0,0,1,3.326.609v3.4a4.573,4.573,0,0,0-2.806-.939A3.7,3.7,0,0,0,24.28-9.236a3.766,3.766,0,0,0-1.009,2.787,3.7,3.7,0,0,0,.965,2.71,3.546,3.546,0,0,0,2.653.984,5.3,5.3,0,0,0,2.933-.939Zm10.486.317a5.93,5.93,0,0,1-2.679.47q-4.24,0-4.24-4.405v-5.954H31.281V-13h2.107v-2.806l4-1.143V-13h2.92v2.958h-2.92v5.256q0,2.031,1.612,2.031a2.718,2.718,0,0,0,1.308-.368Zm4.291-14.9a2.343,2.343,0,0,1-1.663-.6,1.943,1.943,0,0,1-.647-1.479,1.874,1.874,0,0,1,.647-1.473,2.421,2.421,0,0,1,1.663-.571,2.415,2.415,0,0,1,1.669.571,1.882,1.882,0,0,1,.641,1.473,1.935,1.935,0,0,1-.641,1.5A2.383,2.383,0,0,1,44.6-15.057ZM46.579,0H42.567V-13h4.012ZM62.334-13,57.5,0h-4.57L48.318-13h4.291l2.26,8.011a11.7,11.7,0,0,1,.444,2.311h.051a13.112,13.112,0,0,1,.47-2.234L58.145-13ZM69.989.317A6.988,6.988,0,0,1,64.879-1.5a6.6,6.6,0,0,1-1.86-4.945,6.6,6.6,0,0,1,1.93-5.046,7.291,7.291,0,0,1,5.218-1.822A6.9,6.9,0,0,1,75.245-11.5a6.476,6.476,0,0,1,1.841,4.818,6.874,6.874,0,0,1-1.9,5.116A7.066,7.066,0,0,1,69.989.317Zm.1-10.562a2.676,2.676,0,0,0-2.209.978A4.311,4.311,0,0,0,67.095-6.5q0,3.745,3.021,3.745Q73-2.755,73-6.6,73-10.245,70.091-10.245ZM100.56-8.887H88.194v-2.6H100.56Zm0,5.51H88.194V-5.954H100.56Zm16.352-2.895V0h-4.1V-18.205h6.424q6.881,0,6.881,5.8a5.567,5.567,0,0,1-1.974,4.437,7.821,7.821,0,0,1-5.275,1.695Zm0-8.785v5.675h1.612q3.275,0,3.275-2.869,0-2.806-3.275-2.806ZM138.557,0h-3.8V-1.866h-.051A4.237,4.237,0,0,1,130.838.317a4.05,4.05,0,0,1-2.977-1.073,3.844,3.844,0,0,1-1.085-2.863q0-3.783,4.481-4.367l3.529-.47q0-2.133-2.311-2.133A7.887,7.887,0,0,0,128.058-9.2v-3.021a9.939,9.939,0,0,1,2.292-.762,12.046,12.046,0,0,1,2.647-.33q5.561,0,5.561,5.548Zm-3.771-5.281v-.876l-2.361.3q-1.955.254-1.955,1.765a1.458,1.458,0,0,0,.476,1.124,1.829,1.829,0,0,0,1.289.438,2.375,2.375,0,0,0,1.841-.781A2.82,2.82,0,0,0,134.786-5.281ZM140.88-.343v-3.25a8.541,8.541,0,0,0,1.974.889,6.545,6.545,0,0,0,1.86.292A3.989,3.989,0,0,0,146.4-2.7a.943.943,0,0,0,.616-.889.822.822,0,0,0-.279-.635,2.6,2.6,0,0,0-.717-.444,8.14,8.14,0,0,0-.958-.343q-.521-.152-1-.343a9.609,9.609,0,0,1-1.365-.628,3.945,3.945,0,0,1-.99-.781,3.069,3.069,0,0,1-.609-1.028,4.1,4.1,0,0,1-.209-1.384,3.562,3.562,0,0,1,.476-1.879,3.889,3.889,0,0,1,1.27-1.289,5.8,5.8,0,0,1,1.815-.736,9.466,9.466,0,0,1,2.126-.235,11.8,11.8,0,0,1,1.752.133,13.076,13.076,0,0,1,1.752.387v3.1a6.33,6.33,0,0,0-1.631-.667,6.882,6.882,0,0,0-1.708-.222,3.783,3.783,0,0,0-.743.07,2.446,2.446,0,0,0-.616.2,1.131,1.131,0,0,0-.419.343.789.789,0,0,0-.152.476.879.879,0,0,0,.229.609,1.985,1.985,0,0,0,.6.438,5.89,5.89,0,0,0,.819.33q.451.146.9.3a11.637,11.637,0,0,1,1.447.609,4.627,4.627,0,0,1,1.111.774,3.041,3.041,0,0,1,.711,1.041,3.7,3.7,0,0,1,.248,1.422,3.709,3.709,0,0,1-.5,1.974,4.015,4.015,0,0,1-1.333,1.333,6.045,6.045,0,0,1-1.917.749,10.627,10.627,0,0,1-2.253.235A11.617,11.617,0,0,1,140.88-.343ZM155.2-15.057a2.343,2.343,0,0,1-1.663-.6,1.943,1.943,0,0,1-.647-1.479,1.874,1.874,0,0,1,.647-1.473,2.421,2.421,0,0,1,1.663-.571,2.415,2.415,0,0,1,1.669.571,1.882,1.882,0,0,1,.641,1.473,1.935,1.935,0,0,1-.641,1.5A2.383,2.383,0,0,1,155.2-15.057ZM157.181,0h-4.012V-13h4.012Zm15.755-13L168.1,0h-4.57L158.92-13h4.291l2.26,8.011a11.7,11.7,0,0,1,.444,2.311h.051a13.113,13.113,0,0,1,.47-2.234L168.746-13ZM180.591.317a6.988,6.988,0,0,1-5.11-1.822,6.6,6.6,0,0,1-1.86-4.945,6.6,6.6,0,0,1,1.93-5.046,7.291,7.291,0,0,1,5.218-1.822,6.9,6.9,0,0,1,5.078,1.822,6.476,6.476,0,0,1,1.841,4.818,6.874,6.874,0,0,1-1.9,5.116A7.066,7.066,0,0,1,180.591.317Zm.1-10.562a2.676,2.676,0,0,0-2.209.978A4.311,4.311,0,0,0,177.7-6.5q0,3.745,3.021,3.745,2.882,0,2.882-3.847Q183.6-10.245,180.692-10.245Zm30.469,4.088h-4.888V-1.27h-2.564V-6.157H198.8V-8.734h4.913v-4.913h2.564v4.913h4.888Zm16.352-.114V0h-4.1V-18.205h6.424q6.881,0,6.881,5.8a5.567,5.567,0,0,1-1.974,4.437,7.821,7.821,0,0,1-5.275,1.695Zm0-8.785v5.675h1.612q3.275,0,3.275-2.869,0-2.806-3.275-2.806ZM249.158,0h-3.8V-1.866h-.051A4.237,4.237,0,0,1,241.439.317a4.05,4.05,0,0,1-2.977-1.073,3.844,3.844,0,0,1-1.085-2.863q0-3.783,4.481-4.367l3.529-.47q0-2.133-2.311-2.133A7.887,7.887,0,0,0,238.659-9.2v-3.021a9.939,9.939,0,0,1,2.292-.762,12.046,12.046,0,0,1,2.647-.33q5.561,0,5.561,5.548Zm-3.771-5.281v-.876l-2.361.3q-1.955.254-1.955,1.765a1.458,1.458,0,0,0,.476,1.124,1.829,1.829,0,0,0,1.289.438,2.375,2.375,0,0,0,1.841-.781A2.82,2.82,0,0,0,245.388-5.281Zm14.8,5.129a5.93,5.93,0,0,1-2.679.47q-4.24,0-4.24-4.405v-5.954h-2.107V-13h2.107v-2.806l4-1.143V-13h2.92v2.958h-2.92v5.256q0,2.031,1.612,2.031a2.718,2.718,0,0,0,1.308-.368Zm10.74-9.229a3.48,3.48,0,0,0-1.688-.394,2.433,2.433,0,0,0-2.044.958,4.182,4.182,0,0,0-.736,2.609V0H262.45V-13h4.012v2.412h.051a3.47,3.47,0,0,1,3.428-2.641,2.583,2.583,0,0,1,.99.152Zm4-5.675a2.343,2.343,0,0,1-1.663-.6,1.943,1.943,0,0,1-.647-1.479,1.874,1.874,0,0,1,.647-1.473,2.421,2.421,0,0,1,1.663-.571,2.415,2.415,0,0,1,1.669.571,1.882,1.882,0,0,1,.641,1.473,1.935,1.935,0,0,1-.641,1.5A2.383,2.383,0,0,1,274.93-15.057ZM276.91,0H272.9V-13h4.012Zm24.02,0h-4V-7.414q0-2.831-2.082-2.831a1.913,1.913,0,0,0-1.612.851,3.5,3.5,0,0,0-.622,2.12V0H288.6V-7.49q0-2.755-2.044-2.755a1.959,1.959,0,0,0-1.644.813,3.575,3.575,0,0,0-.616,2.209V0h-4.012V-13H284.3v2.031h.051a4.8,4.8,0,0,1,1.746-1.695,4.8,4.8,0,0,1,2.457-.654,3.743,3.743,0,0,1,3.771,2.425,4.809,4.809,0,0,1,4.367-2.425q4.24,0,4.24,5.23ZM310.3.317a6.988,6.988,0,0,1-5.11-1.822,6.6,6.6,0,0,1-1.86-4.945,6.6,6.6,0,0,1,1.93-5.046,7.291,7.291,0,0,1,5.218-1.822,6.9,6.9,0,0,1,5.078,1.822A6.476,6.476,0,0,1,317.4-6.678a6.874,6.874,0,0,1-1.9,5.116A7.066,7.066,0,0,1,310.3.317Zm.1-10.562a2.676,2.676,0,0,0-2.209.978A4.311,4.311,0,0,0,307.4-6.5q0,3.745,3.021,3.745,2.882,0,2.882-3.847Q313.308-10.245,310.4-10.245ZM332.554,0h-4V-7.224q0-3.021-2.158-3.021a2.141,2.141,0,0,0-1.714.8,3.047,3.047,0,0,0-.673,2.031V0H320V-13h4.012v2.057h.051a4.6,4.6,0,0,1,4.177-2.374q4.316,0,4.316,5.357Zm5.205-15.057a2.343,2.343,0,0,1-1.663-.6,1.943,1.943,0,0,1-.647-1.479,1.874,1.874,0,0,1,.647-1.473,2.421,2.421,0,0,1,1.663-.571,2.415,2.415,0,0,1,1.669.571,1.882,1.882,0,0,1,.641,1.473,1.935,1.935,0,0,1-.641,1.5A2.383,2.383,0,0,1,337.759-15.057ZM339.739,0h-4.012V-13h4.012Zm9.572.317A6.988,6.988,0,0,1,344.2-1.5a6.6,6.6,0,0,1-1.86-4.945,6.6,6.6,0,0,1,1.93-5.046,7.291,7.291,0,0,1,5.218-1.822,6.9,6.9,0,0,1,5.078,1.822,6.476,6.476,0,0,1,1.841,4.818,6.874,6.874,0,0,1-1.9,5.116A7.066,7.066,0,0,1,349.312.317Zm.1-10.562a2.676,2.676,0,0,0-2.209.978,4.311,4.311,0,0,0-.787,2.768q0,3.745,3.021,3.745,2.882,0,2.882-3.847Q352.32-10.245,349.413-10.245Z" transform="translate(611.701 618)" fill="#0b0a0a"/>
  </g>
</svg>
