<svg xmlns="http://www.w3.org/2000/svg" xmlns:xlink="http://www.w3.org/1999/xlink" width="113" height="113" viewBox="0 0 113 113">
  <defs>
    <filter id="Trazado_982547" x="0" y="0" width="113" height="113" filterUnits="userSpaceOnUse">
      <feOffset dy="3" input="SourceAlpha"/>
      <feGaussianBlur stdDeviation="3" result="blur"/>
      <feFlood flood-opacity="0.161"/>
      <feComposite operator="in" in2="blur"/>
      <feComposite in="SourceGraphic"/>
    </filter>
  </defs>
  <g id="Grupo_1168885" data-name="Grupo 1168885" transform="translate(-271 -799)">
    <g id="Grupo_1162469" data-name="Grupo 1162469" transform="translate(0 -2236.154)">
      <g id="Grupo_1162113" data-name="Grupo 1162113" transform="translate(280 3041.154)">
        <g id="Grupo_1152576" data-name="Grupo 1152576" transform="translate(0)">
          <g id="Grupo_1148633" data-name="Grupo 1148633">
            <g id="Grupo_1148525" data-name="Grupo 1148525">
              <g transform="matrix(1, 0, 0, 1, -9, -6)" filter="url(#Trazado_982547)">
                <g id="Trazado_982547-2" data-name="Trazado 982547" transform="translate(9 6)" fill="#e8edf7">
                  <path d="M 47.5 93.5 C 41.28937149047852 93.5 35.26533508300781 92.28397369384766 29.59518623352051 89.88570404052734 C 24.11771965026855 87.56893157958984 19.19813346862793 84.25196075439453 14.97309303283691 80.02691650390625 C 10.74804019927979 75.80186462402344 7.431066513061523 70.88229370117188 5.114293098449707 65.40481567382812 C 2.716026782989502 59.73468017578125 1.5 53.71062850952148 1.5 47.5 C 1.5 41.28937149047852 2.716026782989502 35.26533508300781 5.114293098449707 29.59518623352051 C 7.431066513061523 24.11771965026855 10.74804019927979 19.19813346862793 14.97309303283691 14.97309303283691 C 19.19813346862793 10.74804019927979 24.11771965026855 7.431066513061523 29.59518623352051 5.114293098449707 C 35.26533508300781 2.716026782989502 41.28937149047852 1.5 47.5 1.5 C 53.71062850952148 1.5 59.73468017578125 2.716026782989502 65.40481567382812 5.114293098449707 C 70.88229370117188 7.431066513061523 75.80186462402344 10.74804019927979 80.02691650390625 14.97309303283691 C 84.25196075439453 19.19813346862793 87.56893157958984 24.11771965026855 89.88570404052734 29.59518623352051 C 92.28397369384766 35.26533508300781 93.5 41.28937149047852 93.5 47.5 C 93.5 53.71062850952148 92.28397369384766 59.73468017578125 89.88570404052734 65.40481567382812 C 87.56893157958984 70.88229370117188 84.25196075439453 75.80186462402344 80.02691650390625 80.02691650390625 C 75.80186462402344 84.25196075439453 70.88229370117188 87.56893157958984 65.40481567382812 89.88570404052734 C 59.73468017578125 92.28397369384766 53.71062850952148 93.5 47.5 93.5 Z" stroke="none"/>
                  <path d="M 47.5 3 C 41.49121475219727 3 35.66376876831055 4.176155090332031 30.17950439453125 6.495796203613281 C 24.88084411621094 8.736953735351562 20.12152099609375 11.94598388671875 16.03375244140625 16.03375244140625 C 11.94598388671875 20.12152099609375 8.736953735351562 24.88084411621094 6.495796203613281 30.17950439453125 C 4.176155090332031 35.66376876831055 3 41.49121475219727 3 47.5 C 3 53.50878524780273 4.176155090332031 59.33623123168945 6.495796203613281 64.82049560546875 C 8.736953735351562 70.11915588378906 11.94598388671875 74.87847900390625 16.03375244140625 78.96624755859375 C 20.12152099609375 83.05401611328125 24.88084411621094 86.26304626464844 30.17950439453125 88.50419616699219 C 35.66376876831055 90.82384490966797 41.49121475219727 92 47.5 92 C 53.50878524780273 92 59.33623123168945 90.82384490966797 64.82049560546875 88.50419616699219 C 70.11915588378906 86.26304626464844 74.87847900390625 83.05401611328125 78.96624755859375 78.96624755859375 C 83.05401611328125 74.87847900390625 86.26304626464844 70.11915588378906 88.50419616699219 64.82049560546875 C 90.82384490966797 59.33623123168945 92 53.50878524780273 92 47.5 C 92 41.49121475219727 90.82384490966797 35.66376876831055 88.50419616699219 30.17950439453125 C 86.26304626464844 24.88084411621094 83.05401611328125 20.12152099609375 78.96624755859375 16.03375244140625 C 74.87847900390625 11.94598388671875 70.11915588378906 8.736953735351562 64.82049560546875 6.495796203613281 C 59.33623123168945 4.176155090332031 53.50878524780273 3 47.5 3 M 47.5 0 C 73.7335205078125 0 95 21.2664794921875 95 47.5 C 95 73.7335205078125 73.7335205078125 95 47.5 95 C 21.2664794921875 95 0 73.7335205078125 0 47.5 C 0 21.2664794921875 21.2664794921875 0 47.5 0 Z" stroke="none" fill="#2e5bb6"/>
                </g>
              </g>
            </g>
          </g>
        </g>
      </g>
    </g>
    <g id="accounting" transform="translate(300 825.001)">
      <path id="Trazado_1013548" data-name="Trazado 1013548" d="M93.094,40H64V89.1h40V50.91H93.094Zm0,0" transform="translate(-56.727 -35.455)" fill="#dcf4ca"/>
      <path id="Trazado_1013549" data-name="Trazado 1013549" d="M136,273.458h31.822V248C167.822,261.066,151.579,273.458,136,273.458Zm0,0" transform="translate(-120.544 -219.816)" fill="#c9eeae"/>
      <path id="Trazado_1013550" data-name="Trazado 1013550" d="M9.818,8h20a1.818,1.818,0,0,1,1.818,1.818V35.276a1.818,1.818,0,0,1-1.818,1.818h-20A1.818,1.818,0,0,1,8,35.276V9.818A1.818,1.818,0,0,1,9.818,8Zm0,0" transform="translate(-7.091 -7.092)" fill="#d1e7f8"/>
      <path id="Trazado_1013551" data-name="Trazado 1013551" d="M320,50.91h10.91L320,40Zm0,0" transform="translate(-283.632 -35.455)" fill="#006df0"/>
      <path id="Trazado_1013552" data-name="Trazado 1013552" d="M32,32H50.184v4.546H32Zm0,0" transform="translate(-28.364 -28.364)" fill="#88f236"/>
      <g id="Grupo_1168884" data-name="Grupo 1168884" transform="translate(4.546 10.909)">
        <path id="Trazado_1013553" data-name="Trazado 1013553" d="M40.909,96h1.818a.909.909,0,0,1,.909.909v1.818a.909.909,0,0,1-.909.909H40.909A.909.909,0,0,1,40,98.728V96.909A.909.909,0,0,1,40.909,96Zm0,0" transform="translate(-40 -96)" fill="#006df0"/>
        <path id="Trazado_1013554" data-name="Trazado 1013554" d="M96.909,96h1.818a.909.909,0,0,1,.909.909v1.818a.909.909,0,0,1-.909.909H96.909A.909.909,0,0,1,96,98.728V96.909A.909.909,0,0,1,96.909,96Zm0,0" transform="translate(-89.636 -96)" fill="#006df0"/>
        <path id="Trazado_1013555" data-name="Trazado 1013555" d="M152.909,96h1.818a.909.909,0,0,1,.909.909v1.818a.909.909,0,0,1-.909.909h-1.818a.909.909,0,0,1-.909-.909V96.909A.909.909,0,0,1,152.909,96Zm0,0" transform="translate(-139.271 -96)" fill="#006df0"/>
        <path id="Trazado_1013556" data-name="Trazado 1013556" d="M40.909,152h1.818a.909.909,0,0,1,.909.909v1.818a.909.909,0,0,1-.909.909H40.909a.909.909,0,0,1-.909-.909v-1.818A.909.909,0,0,1,40.909,152Zm0,0" transform="translate(-40 -145.636)" fill="#006df0"/>
        <path id="Trazado_1013557" data-name="Trazado 1013557" d="M96.909,152h1.818a.909.909,0,0,1,.909.909v1.818a.909.909,0,0,1-.909.909H96.909a.909.909,0,0,1-.909-.909v-1.818A.909.909,0,0,1,96.909,152Zm0,0" transform="translate(-89.636 -145.636)" fill="#006df0"/>
        <path id="Trazado_1013558" data-name="Trazado 1013558" d="M152.909,152h1.818a.909.909,0,0,1,.909.909v1.818a.909.909,0,0,1-.909.909h-1.818a.909.909,0,0,1-.909-.909v-1.818A.909.909,0,0,1,152.909,152Zm0,0" transform="translate(-139.271 -145.636)" fill="#006df0"/>
        <path id="Trazado_1013559" data-name="Trazado 1013559" d="M40.909,208h1.818a.909.909,0,0,1,.909.909v1.818a.909.909,0,0,1-.909.909H40.909a.909.909,0,0,1-.909-.909v-1.818A.909.909,0,0,1,40.909,208Zm0,0" transform="translate(-40 -195.271)" fill="#006df0"/>
        <path id="Trazado_1013560" data-name="Trazado 1013560" d="M96.909,208h1.818a.909.909,0,0,1,.909.909v1.818a.909.909,0,0,1-.909.909H96.909a.909.909,0,0,1-.909-.909v-1.818A.909.909,0,0,1,96.909,208Zm0,0" transform="translate(-89.636 -195.271)" fill="#006df0"/>
      </g>
      <path id="Trazado_1013561" data-name="Trazado 1013561" d="M436.994,259.339a1.819,1.819,0,0,0-2.572-2.572l-1.286,1.285,2.572,2.572Zm0,0" transform="translate(-383.911 -227.114)" fill="#d1d3d4"/>
      <path id="Trazado_1013562" data-name="Trazado 1013562" d="M290.2,301.515,288,306.282l4.767-2.195,12.379-12.379-2.571-2.571Zm0,0" transform="translate(-255.27 -256.277)" fill="#ed1c24"/>
      <path id="Trazado_1013563" data-name="Trazado 1013563" d="M416.234,274.163l1.92-1.92,2.572,2.571-1.92,1.921Zm0,0" transform="translate(-368.929 -241.303)" fill="#f7941d"/>
      <path id="Trazado_1013564" data-name="Trazado 1013564" d="M128.366,304.183A8.183,8.183,0,1,1,120.183,296,8.183,8.183,0,0,1,128.366,304.183Zm0,0" transform="translate(-99.272 -262.361)" fill="#ff9811"/>
      <path id="Trazado_1013565" data-name="Trazado 1013565" d="M40,136.366H58.184A1.824,1.824,0,0,0,60,134.547V120C60,129.046,51.056,136.366,40,136.366Zm0,0" transform="translate(-35.454 -106.363)" fill="#c2dff6"/>
      <path id="Trazado_1013566" data-name="Trazado 1013566" d="M152.909,208h1.818a.909.909,0,0,1,.909.909v1.818a.909.909,0,0,1-.909.909h-1.818a.909.909,0,0,1-.909-.909v-1.818A.909.909,0,0,1,152.909,208Zm0,0" transform="translate(-134.726 -184.362)" fill="#006df0"/>
      <path id="Trazado_1013567" data-name="Trazado 1013567" d="M113.092,288a9.092,9.092,0,1,0,9.092,9.092A9.092,9.092,0,0,0,113.092,288Zm0,16.366a7.274,7.274,0,1,1,7.274-7.274A7.273,7.273,0,0,1,113.092,304.366Zm0,0" transform="translate(-92.181 -255.27)"/>
      <path id="Trazado_1013568" data-name="Trazado 1013568" d="M155.637,322.728c1.11,0,1.818.538,1.818.909h1.818c0-1.292-1.144-2.338-2.728-2.637v-1h-1.818v1c-1.583.3-2.728,1.343-2.728,2.637,0,1.53,1.6,2.728,3.637,2.728,1.11,0,1.818.538,1.818.909s-.708.909-1.818.909-1.818-.538-1.818-.909H152c0,1.292,1.144,2.338,2.728,2.637v1h1.818v-1c1.583-.3,2.728-1.343,2.728-2.637,0-1.53-1.6-2.728-3.637-2.728-1.11,0-1.818-.538-1.818-.909S154.526,322.728,155.637,322.728Zm0,0" transform="translate(-134.726 -283.633)"/>
      <path id="Trazado_1013569" data-name="Trazado 1013569" d="M46.369,52.733H8.182V30.912H22.73a2.728,2.728,0,0,0,2.728-2.728V5.454h10v10.91h10.91V29.093h1.818V15.079L36.744,3.636H25.457V2.727A2.728,2.728,0,0,0,22.729,0h-20A2.728,2.728,0,0,0,0,2.727V28.184a2.728,2.728,0,0,0,2.728,2.728H6.364V54.551H48.187V41.822H46.369ZM37.277,6.74l7.806,7.806H37.277ZM1.818,28.184V2.727a.909.909,0,0,1,.909-.909h20a.909.909,0,0,1,.909.909V28.184a.909.909,0,0,1-.909.909h-20a.909.909,0,0,1-.909-.909Zm0,0" transform="translate(0 0)"/>
      <path id="Trazado_1013570" data-name="Trazado 1013570" d="M256,200h1.818v1.818H256Zm0,0" transform="translate(-226.906 -177.271)"/>
      <path id="Trazado_1013571" data-name="Trazado 1013571" d="M288,200h10.91v1.818H288Zm0,0" transform="translate(-255.269 -177.271)"/>
      <path id="Trazado_1013572" data-name="Trazado 1013572" d="M256,168h1.818v1.818H256Zm0,0" transform="translate(-226.906 -148.908)"/>
      <path id="Trazado_1013573" data-name="Trazado 1013573" d="M288,168h10.91v1.818H288Zm0,0" transform="translate(-255.269 -148.908)"/>
      <path id="Trazado_1013574" data-name="Trazado 1013574" d="M256,232h1.818v1.818H256Zm0,0" transform="translate(-226.906 -205.634)"/>
      <path id="Trazado_1013575" data-name="Trazado 1013575" d="M288,232h10.91v1.818H288Zm0,0" transform="translate(-255.269 -205.634)"/>
      <path id="Trazado_1013576" data-name="Trazado 1013576" d="M256,264h1.818v1.818H256Zm0,0" transform="translate(-226.906 -233.997)"/>
      <path id="Trazado_1013577" data-name="Trazado 1013577" d="M288,264h10.91v1.818H288Zm0,0" transform="translate(-255.269 -233.997)"/>
      <path id="Trazado_1013578" data-name="Trazado 1013578" d="M44,24H24v6.364H44Zm-1.818,4.546H25.818V25.818H42.184Zm0,0" transform="translate(-21.273 -21.273)"/>
      <path id="Trazado_1013579" data-name="Trazado 1013579" d="M35.637,88H33.818A1.818,1.818,0,0,0,32,89.818v1.818a1.818,1.818,0,0,0,1.818,1.818h1.818a1.818,1.818,0,0,0,1.818-1.818V89.818A1.818,1.818,0,0,0,35.637,88Zm-1.818,3.637V89.818h1.818v1.818Zm0,0" transform="translate(-28.364 -78)"/>
      <path id="Trazado_1013580" data-name="Trazado 1013580" d="M91.637,88H89.818A1.818,1.818,0,0,0,88,89.818v1.818a1.818,1.818,0,0,0,1.818,1.818h1.818a1.818,1.818,0,0,0,1.818-1.818V89.818A1.818,1.818,0,0,0,91.637,88Zm-1.818,3.637V89.818h1.818v1.818Zm0,0" transform="translate(-77.999 -78)"/>
      <path id="Trazado_1013581" data-name="Trazado 1013581" d="M147.637,88h-1.818A1.818,1.818,0,0,0,144,89.818v1.818a1.818,1.818,0,0,0,1.818,1.818h1.818a1.818,1.818,0,0,0,1.818-1.818V89.818A1.818,1.818,0,0,0,147.637,88Zm-1.818,3.637V89.818h1.818v1.818Zm0,0" transform="translate(-127.635 -78)"/>
      <path id="Trazado_1013582" data-name="Trazado 1013582" d="M35.637,144H33.818A1.818,1.818,0,0,0,32,145.818v1.818a1.818,1.818,0,0,0,1.818,1.818h1.818a1.818,1.818,0,0,0,1.818-1.818v-1.818A1.818,1.818,0,0,0,35.637,144Zm-1.818,3.637v-1.818h1.818v1.818Zm0,0" transform="translate(-28.364 -127.635)"/>
      <path id="Trazado_1013583" data-name="Trazado 1013583" d="M91.637,144H89.818A1.818,1.818,0,0,0,88,145.818v1.818a1.818,1.818,0,0,0,1.818,1.818h1.818a1.818,1.818,0,0,0,1.818-1.818v-1.818A1.818,1.818,0,0,0,91.637,144Zm-1.818,3.637v-1.818h1.818v1.818Zm0,0" transform="translate(-77.999 -127.635)"/>
      <path id="Trazado_1013584" data-name="Trazado 1013584" d="M147.637,144h-1.818A1.818,1.818,0,0,0,144,145.818v1.818a1.818,1.818,0,0,0,1.818,1.818h1.818a1.819,1.819,0,0,0,1.818-1.818v-1.818A1.818,1.818,0,0,0,147.637,144Zm-1.818,3.637v-1.818h1.818v1.818Zm0,0" transform="translate(-127.635 -127.635)"/>
      <path id="Trazado_1013585" data-name="Trazado 1013585" d="M35.637,200H33.818A1.818,1.818,0,0,0,32,201.818v1.818a1.818,1.818,0,0,0,1.818,1.818h1.818a1.818,1.818,0,0,0,1.818-1.818v-1.818A1.818,1.818,0,0,0,35.637,200Zm-1.818,3.637v-1.818h1.818v1.818Zm0,0" transform="translate(-28.364 -177.271)"/>
      <path id="Trazado_1013586" data-name="Trazado 1013586" d="M91.637,200H89.818A1.818,1.818,0,0,0,88,201.818v1.818a1.818,1.818,0,0,0,1.818,1.818h1.818a1.819,1.819,0,0,0,1.818-1.818v-1.818A1.818,1.818,0,0,0,91.637,200Zm-1.818,3.637v-1.818h1.818v1.818Zm0,0" transform="translate(-77.999 -177.271)"/>
      <path id="Trazado_1013587" data-name="Trazado 1013587" d="M147.637,200h-1.818A1.818,1.818,0,0,0,144,201.818v1.818a1.818,1.818,0,0,0,1.818,1.818h1.818a1.819,1.819,0,0,0,1.818-1.818v-1.818A1.818,1.818,0,0,0,147.637,200Zm-1.818,3.637v-1.818h1.818v1.818Zm0,0" transform="translate(-127.635 -177.271)"/>
      <path id="Trazado_1013588" data-name="Trazado 1013588" d="M301.916,249.239a2.792,2.792,0,0,0-3.857,0l-15.587,15.586a.92.92,0,0,0-.182.263l-2.195,4.766a.91.91,0,0,0,1.206,1.206l4.766-2.195a.911.911,0,0,0,.263-.182L301.916,253.1a2.727,2.727,0,0,0,0-3.857Zm-16.757,18.042-2.382,1.1,1.1-2.382,11.621-11.622,1.286,1.286Zm12.91-12.911-1.286-1.285.637-.637,1.286,1.286Zm2.564-2.564-.643.643-1.286-1.286.644-.643a.93.93,0,0,1,1.285,0A.91.91,0,0,1,300.633,251.806Zm0,0" transform="translate(-248.19 -220.229)"/>
    </g>
  </g>
</svg>
