<svg xmlns="http://www.w3.org/2000/svg" xmlns:xlink="http://www.w3.org/1999/xlink" width="108" height="108" viewBox="0 0 108 108">
  <defs>
    <filter id="Trazado_982547" x="0" y="0" width="108" height="108" filterUnits="userSpaceOnUse">
      <feOffset dy="3" input="SourceAlpha"/>
      <feGaussianBlur stdDeviation="3" result="blur"/>
      <feFlood flood-opacity="0.161"/>
      <feComposite operator="in" in2="blur"/>
      <feComposite in="SourceGraphic"/>
    </filter>
  </defs>
  <g id="Grupo_1168895" data-name="Grupo 1168895" transform="translate(-616 -313)">
    <g id="Grupo_1162473" data-name="Grupo 1162473" transform="translate(0 -201)">
      <g id="Grupo_1162135" data-name="Grupo 1162135" transform="translate(625 520)">
        <g id="Grupo_1159095" data-name="Grupo 1159095" transform="translate(0)">
          <g id="Grupo_1154033" data-name="Grupo 1154033">
            <g id="Grupo_1153177" data-name="Grupo 1153177">
              <g id="Grupo_1149598" data-name="Grupo 1149598">
                <g id="Grupo_1148770" data-name="Grupo 1148770">
                  <g id="Grupo_1146954" data-name="Grupo 1146954">
                    <g transform="matrix(1, 0, 0, 1, -9, -6)" filter="url(#Trazado_982547)">
                      <g id="Trazado_982547-2" data-name="Trazado 982547" transform="translate(9 6)" fill="#f5fdfa">
                        <path d="M 45.00000762939453 88.5 C 39.12688446044922 88.5 33.43023300170898 87.35007476806641 28.06830787658691 85.08217620849609 C 22.8885326385498 82.89131164550781 18.23630714416504 79.75458526611328 14.24085807800293 75.75914764404297 C 10.24542045593262 71.76370239257812 7.108695030212402 67.11147308349609 4.917832851409912 61.93170166015625 C 2.649932622909546 56.56977462768555 1.500007629394531 50.87312316894531 1.500007629394531 45 C 1.500007629394531 39.12687683105469 2.649932622909546 33.43022537231445 4.917832851409912 28.06830024719238 C 7.108695030212402 22.88852500915527 10.24542045593262 18.23629951477051 14.24085807800293 14.2408504486084 C 18.23630714416504 10.24541282653809 22.8885326385498 7.108687400817871 28.06830787658691 4.917825222015381 C 33.43023300170898 2.649924993515015 39.12688446044922 1.5 45.00000762939453 1.5 C 50.87313079833984 1.5 56.56978225708008 2.649924993515015 61.93170928955078 4.917825222015381 C 67.11148071289062 7.108687400817871 71.76371002197266 10.24541282653809 75.7591552734375 14.2408504486084 C 79.75459289550781 18.23629951477051 82.89131927490234 22.88852500915527 85.08218383789062 28.06830024719238 C 87.35008239746094 33.43022537231445 88.50000762939453 39.12687683105469 88.50000762939453 45 C 88.50000762939453 50.87312316894531 87.35008239746094 56.56977462768555 85.08218383789062 61.93170166015625 C 82.89131927490234 67.11147308349609 79.75459289550781 71.76370239257812 75.7591552734375 75.75914764404297 C 71.76371002197266 79.75458526611328 67.11148071289062 82.89131164550781 61.93170928955078 85.08217620849609 C 56.56978225708008 87.35007476806641 50.87313079833984 88.5 45.00000762939453 88.5 Z" stroke="none"/>
                        <path d="M 45.00000762939453 3 C 39.32872009277344 3 33.82866287231445 4.110054016113281 28.65263748168945 6.299339294433594 C 23.65166473388672 8.414573669433594 19.15969085693359 11.44334411621094 15.30152130126953 15.301513671875 C 11.44335174560547 19.15968322753906 8.414581298828125 23.65165710449219 6.299346923828125 28.65262985229492 C 4.110061645507812 33.82865524291992 3.000007629394531 39.32871246337891 3.000007629394531 45 C 3.000007629394531 50.67128753662109 4.110061645507812 56.17134475708008 6.299346923828125 61.34737396240234 C 8.414581298828125 66.34834289550781 11.44335174560547 70.84031677246094 15.30152130126953 74.698486328125 C 19.15969085693359 78.55665588378906 23.65166473388672 81.58542633056641 28.65263748168945 83.70066070556641 C 33.82866287231445 85.88994598388672 39.32872009277344 87 45.00000762939453 87 C 50.67129516601562 87 56.17135238647461 85.88994598388672 61.34738159179688 83.70066070556641 C 66.34835052490234 81.58542633056641 70.84032440185547 78.55665588378906 74.69849395751953 74.698486328125 C 78.55666351318359 70.84031677246094 81.58543395996094 66.34834289550781 83.70066833496094 61.34737396240234 C 85.88995361328125 56.17134475708008 87.00000762939453 50.67128753662109 87.00000762939453 45 C 87.00000762939453 39.32871246337891 85.88995361328125 33.82865524291992 83.70066833496094 28.65262985229492 C 81.58543395996094 23.65165710449219 78.55666351318359 19.15968322753906 74.69849395751953 15.301513671875 C 70.84032440185547 11.44334411621094 66.34835052490234 8.414573669433594 61.34738159179688 6.299339294433594 C 56.17135238647461 4.110054016113281 50.67129516601562 3 45.00000762939453 3 M 45.00000762939453 0 C 69.85282135009766 0 90.00000762939453 20.14718627929688 90.00000762939453 45 C 90.00000762939453 69.85281372070312 69.85282135009766 90 45.00000762939453 90 C 20.14719390869141 90 7.62939453125e-06 69.85281372070312 7.62939453125e-06 45 C 7.62939453125e-06 20.14718627929688 20.14719390869141 0 45.00000762939453 0 Z" stroke="none" fill="#ee9865"/>
                      </g>
                    </g>
                  </g>
                </g>
              </g>
            </g>
          </g>
        </g>
      </g>
    </g>
    <g id="accountant" transform="translate(642 336.001)">
      <path id="Trazado_1013641" data-name="Trazado 1013641" d="M29.376,201.247c0,1.951,1.781,1.951,1.781,3.91s-1.781,1.96-1.781,3.919,1.781,1.96,1.781,3.928c0,.125-.009.241-.018.356l-1.674.561a5.4,5.4,0,0,0-1.871,1.1v-2.547H11.563v15.141a.894.894,0,0,0,.891.891h18.7a3.562,3.562,0,0,1-3.563,3.563H11.563A3.562,3.562,0,0,1,8,228.5V203.563A3.562,3.562,0,0,1,11.563,200H27.595a3.558,3.558,0,0,1,1.879.535,2.42,2.42,0,0,0-.1.712Zm0,0" transform="translate(-7.109 -177.733)" fill="#ccd1d9"/>
      <path id="Trazado_1013642" data-name="Trazado 1013642" d="M40,312v15.142a.894.894,0,0,0,.891.891h13.36V318.52a5.112,5.112,0,0,1,.134-1.176,5.23,5.23,0,0,1,1.648-2.8V312Zm0,0" transform="translate(-35.547 -277.264)" fill="#fcd770"/>
      <path id="Trazado_1013643" data-name="Trazado 1013643" d="M40,232H56.032v5.344H40Zm0,0" transform="translate(-35.547 -206.171)" fill="#69d6f4"/>
      <path id="Trazado_1013644" data-name="Trazado 1013644" d="M40.907,79.141h-6.36a8.907,8.907,0,1,1,12.719,0Zm0,0" transform="translate(-28.437 -56.875)" fill="#fcd770"/>
      <path id="Trazado_1013645" data-name="Trazado 1013645" d="M352.907,320.923h-8.016L344,312.016l1.541-2.574,2.022,1.683L349.344,304l5.371,1.79,1.666.552a5.345,5.345,0,0,1,3.652,5.068v9.513Zm0,0" transform="translate(-305.701 -270.155)" fill="#e6e9ed"/>
      <path id="Trazado_1013646" data-name="Trazado 1013646" d="M175.125,320.923H168V311.41a5.111,5.111,0,0,1,.133-1.176,5.23,5.23,0,0,1,1.648-2.8,5.4,5.4,0,0,1,1.871-1.1l1.674-.561L178.688,304l1.781,7.125,2.022-1.683,1.541,2.574-.891,8.907Zm0,0" transform="translate(-149.296 -270.155)" fill="#e6e9ed"/>
      <path id="Trazado_1013647" data-name="Trazado 1013647" d="M335.125,296.891l-1.781,7.125-2.022-1.684L328,299.563,332.453,296Zm0,0" transform="translate(-291.482 -263.045)" fill="#aab2bd"/>
      <path id="Trazado_1013648" data-name="Trazado 1013648" d="M271.125,299.563l-3.322,2.77-2.022,1.684L264,296.891l2.672-.891Zm0,0" transform="translate(-234.608 -263.045)" fill="#aab2bd"/>
      <path id="Trazado_1013649" data-name="Trazado 1013649" d="M304.8,330.77,301.483,328l-3.322,2.77,1.541,2.574-.891,8.907h5.344l-.891-8.907Zm0,0" transform="translate(-264.965 -291.483)" fill="#ff826e"/>
      <path id="Trazado_1013650" data-name="Trazado 1013650" d="M236.032,24.032a18.229,18.229,0,0,1-12.906-5.344,4.7,4.7,0,0,0-3.554,4.453h-.009A3.562,3.562,0,0,0,216,26.7V20.469a12.469,12.469,0,1,1,24.939,0V26.7a3.558,3.558,0,0,0-3.563-3.563v.891Zm0,0" transform="translate(-191.952 -7.11)" fill="#b27946"/>
      <path id="Trazado_1013651" data-name="Trazado 1013651" d="M376.016,176c0,1.96,1.781,1.96,1.781,3.919s-1.781,1.951-1.781,3.91,1.781,1.96,1.781,3.919-1.781,1.96-1.781,3.928a2.422,2.422,0,0,0,.027.365l-5.371-1.79L368,189.36v-2.975a8.9,8.9,0,0,0,4.409-6.823h.044A3.562,3.562,0,0,0,376.016,176Zm0,0" transform="translate(-327.029 -156.406)" fill="#b27946"/>
      <path id="Trazado_1013652" data-name="Trazado 1013652" d="M209.8,186.385v2.975l-2.672.891-5.362,1.781c.009-.116.018-.231.018-.356,0-1.968-1.781-1.968-1.781-3.928s1.781-1.959,1.781-3.919-1.781-1.96-1.781-3.91a2.42,2.42,0,0,1,.1-.712c.365-1.283,1.684-1.523,1.684-3.207a3.558,3.558,0,0,0,3.563,3.563h.044a8.923,8.923,0,0,0,4.409,6.823Zm0,0" transform="translate(-177.733 -156.405)" fill="#b27946"/>
      <g id="Grupo_1168894" data-name="Grupo 1168894" transform="translate(24.048 11.578)">
        <path id="Trazado_1013653" data-name="Trazado 1013653" d="M296.907,269.281v2.975l-4.453,3.563L288,272.256v-2.975a8.906,8.906,0,0,0,8.907,0Zm0,0" transform="translate(-279.984 -250.88)" fill="#f0d0b4"/>
        <path id="Trazado_1013654" data-name="Trazado 1013654" d="M410.167,145.042a3.565,3.565,0,0,1-2.521,6.083H407.6c.026-.294.044-.588.044-.891V144A3.586,3.586,0,0,1,410.167,145.042Zm0,0" transform="translate(-386.27 -139.546)" fill="#f0d0b4"/>
        <path id="Trazado_1013655" data-name="Trazado 1013655" d="M257.477,107.955a18.3,18.3,0,0,0,6.992,1.39h1.345v5.344c0,.3-.018.6-.044.891a8.907,8.907,0,0,1-17.725,0c-.027-.294-.044-.588-.044-.891v-6.128a.445.445,0,0,1,.009-.107A4.7,4.7,0,0,1,251.563,104,18.246,18.246,0,0,0,257.477,107.955Zm0,0" transform="translate(-244.437 -104)" fill="#f0d0b4"/>
        <path id="Trazado_1013656" data-name="Trazado 1013656" d="M219.563,144.107v6.128c0,.3.018.6.044.891h-.044a3.563,3.563,0,0,1,0-7.125h.009A.445.445,0,0,0,219.563,144.107Zm0,0" transform="translate(-216 -139.547)" fill="#f0d0b4"/>
      </g>
      <path id="Trazado_1013657" data-name="Trazado 1013657" d="M281.781,160.891a.891.891,0,1,1-.891-.891A.891.891,0,0,1,281.781,160.891Zm0,0" transform="translate(-248.826 -142.187)"/>
      <path id="Trazado_1013658" data-name="Trazado 1013658" d="M361.781,160.891a.891.891,0,1,1-.891-.891A.891.891,0,0,1,361.781,160.891Zm0,0" transform="translate(-319.919 -142.187)"/>
      <path id="Trazado_1013659" data-name="Trazado 1013659" d="M299.563,217.781A1.783,1.783,0,0,1,297.781,216H296a3.563,3.563,0,0,0,7.125,0h-1.781A1.783,1.783,0,0,1,299.563,217.781Zm0,0" transform="translate(-263.045 -191.952)"/>
      <path id="Trazado_1013660" data-name="Trazado 1013660" d="M50.959,35.346l-1.052-.351a1.966,1.966,0,0,1,.63-1.09,3.479,3.479,0,0,0,0-5.118,1.732,1.732,0,0,1,0-2.719,3.473,3.473,0,0,0,0-5.115,1.773,1.773,0,0,1-.658-1.358V13.36a13.36,13.36,0,1,0-26.72,0v6.235a1.773,1.773,0,0,1-.658,1.358,6.1,6.1,0,0,0-.556.678,4.438,4.438,0,0,0-1.269-.242,9.8,9.8,0,1,0-16.407.006A4.449,4.449,0,0,0,0,25.829V50.768a4.459,4.459,0,0,0,4.453,4.453H20.486a4.46,4.46,0,0,0,4.363-3.563H55.222v-10.4a6.225,6.225,0,0,0-4.263-5.913ZM49.22,22.151a1.731,1.731,0,0,1,0,2.716,3.477,3.477,0,0,0,0,5.117,1.734,1.734,0,0,1,0,2.721A3.857,3.857,0,0,0,48.2,34.424l-6.335-2.112V30.467a9.807,9.807,0,0,0,4.295-6.494,4.454,4.454,0,0,0,2.976-1.919l.087.1Zm-12.7,8.131A8.025,8.025,0,0,1,28.5,22.266V16.141a3.808,3.808,0,0,1,2.432-3.554,19,19,0,0,0,13.142,5.226h.459v4.453a8.025,8.025,0,0,1-8.016,8.016Zm0,1.781a9.728,9.728,0,0,0,3.563-.681v1.143l-3.563,2.851-3.563-2.851V31.383A9.728,9.728,0,0,0,36.518,32.064Zm-4.632,1.889,3.223,2.579-3.416,2.846-1.238-4.949Zm3.656,8.8h1.951l.712,7.125H34.83ZM37.8,40.971H35.241l-.892-1.486,2.169-1.807,2.169,1.807Zm.131-4.439,3.223-2.579,1.43.476-1.238,4.949Zm8.389-19.445a2.656,2.656,0,0,1,0,5.016Zm-9.8-15.305A11.592,11.592,0,0,1,48.1,13.36v2.7a4.409,4.409,0,0,0-1.781-.823V12.469H44.534v3.563h-.459A17.237,17.237,0,0,1,31.8,10.948l-.356-.356-.489.123a5.584,5.584,0,0,0-4.16,4.509,4.407,4.407,0,0,0-1.859.831v-2.7A11.592,11.592,0,0,1,36.518,1.781ZM24.939,19.594a2.668,2.668,0,0,1,1.781-2.508V22.1a2.666,2.666,0,0,1-1.781-2.507Zm-1.123,2.557.089-.1a4.481,4.481,0,0,0,2.973,1.919,9.806,9.806,0,0,0,4.3,6.5v1.845l-6.335,2.112a3.853,3.853,0,0,0-1.022-1.718,1.736,1.736,0,0,1,0-2.722,3.476,3.476,0,0,0,0-5.116,1.732,1.732,0,0,1,0-2.717ZM12.47,8.015a8.006,8.006,0,0,1,5.963,13.36H13.36V20.321a2.666,2.666,0,0,0-.891-5.18.891.891,0,1,1,.891-.891h1.781a2.668,2.668,0,0,0-1.781-2.508V9.8H11.579v1.945a2.666,2.666,0,0,0,.891,5.18.891.891,0,1,1-.891.891H9.8a2.668,2.668,0,0,0,1.781,2.508v1.055H6.507A8.006,8.006,0,0,1,12.47,8.015ZM23.158,49.877v.891a2.676,2.676,0,0,1-2.672,2.672H4.454a2.676,2.676,0,0,1-2.672-2.672V25.829a2.676,2.676,0,0,1,2.672-2.672H20.486a2.665,2.665,0,0,1,.9.163c0,.064-.012.123-.012.19A3.511,3.511,0,0,0,22.5,26.067a1.732,1.732,0,0,1,0,2.719,3.479,3.479,0,0,0,0,5.118,1.971,1.971,0,0,1,.63,1.09l-1.052.351a6.2,6.2,0,0,0-.7.3v-1.8H3.563V49.877a1.783,1.783,0,0,0,1.781,1.781H21.376V49.877H19.6V41.259a4.447,4.447,0,0,1,3.045-4.225l6.122-2.041,1.892,7.569,2.31-1.925.857,1.429-.781,7.81H26.72v-.369l-.783-.783a3.41,3.41,0,0,1,0-4.822l.783-.783V40.97H24.939v1.413l-.261.261a5.181,5.181,0,0,0-.1,7.233Zm-5.344,0H16.032V46.315h1.781ZM10.688,39.189V35.626h3.563v3.563Zm3.563,1.781v3.563H10.688V40.97ZM8.907,39.189H5.344V35.626H8.907ZM5.344,40.97H8.907v3.563H5.344Zm0,5.344H8.907v3.563H5.344Zm5.344,0h3.563v3.563H10.688Zm7.125-5.055v3.274H16.032V40.97h1.8c0,.1-.023.19-.023.289Zm.363-2.07H16.032V35.626H19.6V36.9A6.213,6.213,0,0,0,18.176,39.189ZM53.441,49.877H48.455a5.181,5.181,0,0,0-.1-7.233l-.261-.261V40.97H46.315v2.15l.783.783a3.41,3.41,0,0,1,0,4.822l-.783.783v.369H40l-.781-7.811.857-1.429,2.31,1.925,1.892-7.569L50.4,37.034a4.45,4.45,0,0,1,3.045,4.225Zm0,0"/>
      <path id="Trazado_1013661" data-name="Trazado 1013661" d="M32,224v7.125H49.814V224Zm16.032,5.344H33.781v-3.563H48.032Zm0,0" transform="translate(-28.437 -199.062)"/>
    </g>
  </g>
</svg>
