<svg xmlns="http://www.w3.org/2000/svg" xmlns:xlink="http://www.w3.org/1999/xlink" width="295" height="218.313" viewBox="0 0 295 218.313">
  <defs>
    <clipPath id="clip-path">
      <rect id="Rectángulo_413512" data-name="Rectángulo 413512" width="295" height="218.313" transform="translate(200 10196)" fill="#fff" stroke="#707070" stroke-width="1"/>
    </clipPath>
    <clipPath id="clip-path-2">
      <rect id="Rectángulo_413503" data-name="Rectángulo 413503" width="311.756" height="310.741" fill="none"/>
    </clipPath>
    <clipPath id="clip-path-3">
      <rect id="Rectángulo_413509" data-name="Rectángulo 413509" width="311.063" height="311.063" fill="none"/>
    </clipPath>
    <clipPath id="clip-path-5">
      <path id="Trazado_1013018" data-name="Trazado 1013018" d="M245.756,183.129s.045,1.738.141,4.4a213.3,213.3,0,0,0-21.362-2.344c-66.307-12.515-99.02,13.832-99.02,13.832v0c-.053.06-29.259,32.794-37.536,46.051-3.9,5.2-8.757,25.524-6.233,34.728s47.332-6.488,47.332-6.488c-2.169-2.262-3.872-5.78-5.214-9.757L139.1,253.045l6.179,24.579c15.369,16.687,72.673-.659,74.869-5.488.854-1.881,1.708-15.471,2.434-31.37,0,.055,0,.092,0,.092s57.528-12.568,62.952-16.512c9.506-.827-1.68-44.326-1.68-44.326-10.225,6.748-38.093,3.109-38.093,3.109" transform="translate(-81.049 -180.02)" fill="none"/>
    </clipPath>
  </defs>
  <g id="Enmascarar_grupo_1098747" data-name="Enmascarar grupo 1098747" transform="translate(-200 -10196)" clip-path="url(#clip-path)">
    <g id="Grupo_1168758" data-name="Grupo 1168758" transform="translate(180 10182)">
      <g id="Grupo_1168749" data-name="Grupo 1168749" transform="translate(0 0.321)">
        <g id="Grupo_1168748" data-name="Grupo 1168748" clip-path="url(#clip-path-2)">
          <path id="Trazado_1012976" data-name="Trazado 1012976" d="M120.276,72.986c-15.84,9.177-27.5,26.334-27.56,44.64-.026,8.37,2.241,16.934-.052,24.984-2.046,7.185-7.42,12.851-12.422,18.4a314.077,314.077,0,0,0-26.056,33.118C48.823,201.976,43.65,210.6,43.462,220.1c-.241,12.231,8.314,23.523,19.3,28.908s23.909,5.593,35.9,3.187S122,244.949,133.4,240.519c14.164-5.5,28.742-10.445,43.882-11.734a94,94,0,0,1,37.677,4.5c9.755,3.264,40.821,4.349,58.237-9.142s21.783-51.863,3.333-68.921a133.251,133.251,0,0,0-36.36-24.125c-13.482-6.02-27.747-14.422-31.989-28.565-2.047-6.824-1.466-14.28-3.931-20.964-10.154-27.525-64.99-19.585-83.975-8.586" transform="translate(-16.449 -23.783)" fill="#f9eae1"/>
          <path id="Trazado_1012977" data-name="Trazado 1012977" d="M337.591,57.846a21.189,21.189,0,0,0-3.724,9.885c-.785,5.38-.351,11.1,2.25,15.87,4.815,8.837,15.631,12.4,25.6,13.761,5.409.738,11.614.8,15.489-3.042a12.926,12.926,0,0,0,3.437-8.269c.458-6.182-2.228-12.267-6.1-17.105S365.66,60.326,360.709,56.6c-6.744-5.082-17.338-6.329-23.118,1.25" transform="translate(-126.241 -19.862)" fill="#f9eae1"/>
          <path id="Trazado_1012978" data-name="Trazado 1012978" d="M434.788,151.824A6.792,6.792,0,1,1,428,145.032a6.792,6.792,0,0,1,6.792,6.792" transform="translate(-159.434 -54.897)" fill="#f9eee8"/>
          <path id="Trazado_1012979" data-name="Trazado 1012979" d="M93.2,414.868a6.792,6.792,0,1,1-6.792-6.792,6.792,6.792,0,0,1,6.792,6.792" transform="translate(-30.136 -154.464)" fill="#f9eee8"/>
          <path id="Trazado_1012980" data-name="Trazado 1012980" d="M60.346,170.946a6.792,6.792,0,1,1-6.792-6.791,6.792,6.792,0,0,1,6.792,6.791" transform="translate(-17.701 -62.136)" fill="#f9eee8"/>
          <path id="Trazado_1012981" data-name="Trazado 1012981" d="M317.484,359.49a6.792,6.792,0,1,1-6.792-6.792,6.792,6.792,0,0,1,6.792,6.792" transform="translate(-115.032 -133.503)" fill="#f9eee8"/>
          <path id="Trazado_1012982" data-name="Trazado 1012982" d="M177.82,155.908a6.792,6.792,0,1,1-6.792-6.791,6.792,6.792,0,0,1,6.792,6.791" transform="translate(-62.167 -56.443)" fill="#f3cd69"/>
          <path id="Trazado_1012983" data-name="Trazado 1012983" d="M394.474,373.561a6.792,6.792,0,1,1-6.792-6.792,6.791,6.791,0,0,1,6.792,6.792" transform="translate(-144.174 -138.829)" fill="#f3cd69"/>
          <path id="Trazado_1012984" data-name="Trazado 1012984" d="M343.25,301.7a4.55,4.55,0,1,1-4.55-4.55,4.55,4.55,0,0,1,4.55,4.55" transform="translate(-126.482 -112.476)" fill="#f3cd69"/>
          <path id="Trazado_1012985" data-name="Trazado 1012985" d="M63.926,287.032a4.55,4.55,0,1,1-4.55-4.551,4.55,4.55,0,0,1,4.55,4.551" transform="translate(-20.752 -106.924)" fill="#f3cd69"/>
          <path id="Trazado_1012986" data-name="Trazado 1012986" d="M145.472,125.572l-6.893-1.111,2.178,6.481Z" transform="translate(-52.455 -47.111)" fill="#ecae5f"/>
          <path id="Trazado_1012987" data-name="Trazado 1012987" d="M457.318,75.668l-6.893-1.111,2.178,6.481Z" transform="translate(-170.494 -28.221)" fill="#ecae5f"/>
          <path id="Trazado_1012988" data-name="Trazado 1012988" d="M134.854,388.115,127.961,387l2.178,6.48Z" transform="translate(-48.435 -146.488)" fill="#ecae5f"/>
          <path id="Trazado_1012989" data-name="Trazado 1012989" d="M361.4,399.332l-6.121,3.36,5.7,3.774Z" transform="translate(-134.48 -151.154)" fill="#ecae5f"/>
          <path id="Trazado_1012990" data-name="Trazado 1012990" d="M119.532,50.4c.047-.024.244.21.512.72a9.39,9.39,0,0,1,.837,2.383,11.205,11.205,0,0,1-1.962,8.995,11.81,11.81,0,0,1-5.2,3.993,8.882,8.882,0,0,1-3.727.631,5.926,5.926,0,0,1-3.822-1.644,4.888,4.888,0,0,1-1.225-1.919,4.338,4.338,0,0,1-.105-2.385,5.436,5.436,0,0,1,2.972-3.575,5.314,5.314,0,0,1,2.413-.484,6.47,6.47,0,0,1,2.37.572,7.447,7.447,0,0,1,3.474,3.327A9.861,9.861,0,0,1,117.1,65.6a13.633,13.633,0,0,1-.784,4.4,14.227,14.227,0,0,1-4.894,6.722A12.589,12.589,0,0,1,104.31,79.2a12.037,12.037,0,0,1-6.366-1.549,10.77,10.77,0,0,1-3.838-3.78,10.568,10.568,0,0,1-1.414-3.779c-.339-2.209.114-3.407.186-3.381.157.011-.051,1.219.465,3.242a10.732,10.732,0,0,0,1.566,3.4,10.072,10.072,0,0,0,3.62,3.242,10.984,10.984,0,0,0,5.717,1.191,11.27,11.27,0,0,0,6.23-2.319,12.8,12.8,0,0,0,4.26-6.011A12.119,12.119,0,0,0,115.4,65.6a8.238,8.238,0,0,0-.85-3.79,5.785,5.785,0,0,0-2.666-2.57,4.043,4.043,0,0,0-3.37-.116,3.817,3.817,0,0,0-2.09,2.439,2.921,2.921,0,0,0,.853,2.8,4.408,4.408,0,0,0,2.823,1.263,7.546,7.546,0,0,0,3.123-.461,10.755,10.755,0,0,0,4.734-3.4,10.49,10.49,0,0,0,2.093-4.4,11.524,11.524,0,0,0,.172-3.748c-.26-2.076-.833-3.15-.692-3.212" transform="translate(-35.038 -19.078)" fill="#6d3a75"/>
          <path id="Trazado_1012991" data-name="Trazado 1012991" d="M413.661,63.94c.044.024-.025.295-.3.743a5.039,5.039,0,0,1-1.649,1.606,7.691,7.691,0,0,1-3.485,1.123,9.024,9.024,0,0,1-4.782-.914,10.76,10.76,0,0,1-4.413-3.939,9.533,9.533,0,0,1-1.4-6.7,10.013,10.013,0,0,1,4.04-6.417,8.507,8.507,0,0,1,1.822-.974,5.3,5.3,0,0,1,2.187-.434,3.3,3.3,0,0,1,1.258.278,2.486,2.486,0,0,1,1.093.949,2.726,2.726,0,0,1,.394,1.343,4.164,4.164,0,0,1-.147,1.222,7.979,7.979,0,0,1-2.285,3.658,9.515,9.515,0,0,1-3.552,2.07,12.217,12.217,0,0,1-7.522-.218,10.312,10.312,0,0,1-5.584-3.945,6.439,6.439,0,0,1-.97-3.086,9.255,9.255,0,0,1,.326-2.869,16.427,16.427,0,0,1,4.212-7.164c1.411-1.373,2.386-1.876,2.442-1.8a24.89,24.89,0,0,1-1.95,2.246,18.638,18.638,0,0,0-1.917,2.833,16.266,16.266,0,0,0-1.612,4.166,6.206,6.206,0,0,0,.659,4.9,9.033,9.033,0,0,0,4.877,3.215,10.787,10.787,0,0,0,6.521.124,7.917,7.917,0,0,0,2.909-1.721,6.368,6.368,0,0,0,1.793-2.849,1.635,1.635,0,0,0-.044-1.231,1.1,1.1,0,0,0-.961-.429,3.66,3.66,0,0,0-1.517.31,6.927,6.927,0,0,0-1.479.776,8.511,8.511,0,0,0-3.444,5.321,8.162,8.162,0,0,0,1.059,5.685,9.709,9.709,0,0,0,3.751,3.6,8.256,8.256,0,0,0,4.184,1.038,7.5,7.5,0,0,0,3.208-.747,5.9,5.9,0,0,0,1.707-1.24c.344-.352.514-.564.573-.529" transform="translate(-146.998 -14.559)" fill="#6d3a75"/>
          <path id="Trazado_1012992" data-name="Trazado 1012992" d="M423.769,407.99c.007-.144,1.106-.077,2.973-.6a13.908,13.908,0,0,0,3.225-1.315,10.657,10.657,0,0,0,3.383-2.955,9.179,9.179,0,0,0,1.7-5.042c-.009-.481.032-1.009-.011-1.472a4.282,4.282,0,0,0-.356-1.349,5.469,5.469,0,0,0-1.891-2.266,5.388,5.388,0,0,0-2.9-1.009,5.689,5.689,0,0,0-3.111.842,6.809,6.809,0,0,0-2.4,2.422,6.031,6.031,0,0,0-.652,1.589,1.22,1.22,0,0,0,.125,1.116,1.119,1.119,0,0,0,1.043.2,2.115,2.115,0,0,0,1.109-.828,8.5,8.5,0,0,0,.878-1.534,16.2,16.2,0,0,0,.7-1.691,8.786,8.786,0,0,0,.1-6.536,5.957,5.957,0,0,0-4.519-3.37,6.135,6.135,0,0,0-4.83,1.459,6.729,6.729,0,0,0-2.041,3.808,9.9,9.9,0,0,0,0,3.43c.345,1.891.916,2.853.784,2.922-.066.051-.856-.8-1.433-2.775a9.729,9.729,0,0,1-.3-3.72,7.6,7.6,0,0,1,2.162-4.549,7.269,7.269,0,0,1,11.6,2.121,8.309,8.309,0,0,1,.791,3.842,13.011,13.011,0,0,1-.729,3.909,17.35,17.35,0,0,1-.753,1.868,9.783,9.783,0,0,1-1.058,1.851,3.767,3.767,0,0,1-2.043,1.449,3.1,3.1,0,0,1-1.367.038,2.475,2.475,0,0,1-1.327-.71,2.406,2.406,0,0,1-.637-1.385,3.772,3.772,0,0,1,.086-1.289,7.631,7.631,0,0,1,.846-2.067,8.416,8.416,0,0,1,3.017-3.009,7.282,7.282,0,0,1,4.026-1.029,7.151,7.151,0,0,1,6.113,4.324,5.7,5.7,0,0,1,.428,1.809c.038.606-.023,1.137-.032,1.692a10.271,10.271,0,0,1-2.149,5.674,11.218,11.218,0,0,1-3.9,3.073,12.865,12.865,0,0,1-3.526,1.118c-2.007.344-3.135.042-3.115-.047" transform="translate(-157.19 -144.872)" fill="#6d3a75"/>
          <path id="Trazado_1012993" data-name="Trazado 1012993" d="M80.153,213.447c.03-.088,1.264.393,2.7,2.157a19.334,19.334,0,0,1,2.171,3.445,12.848,12.848,0,0,1,.92,2.422,8.244,8.244,0,0,1,.247,2.973,8.4,8.4,0,0,1-3.5,5.779,10.481,10.481,0,0,1-7.539,1.71,12.706,12.706,0,0,1-4.043-1.242,8.72,8.72,0,0,1-3.418-2.977,6.527,6.527,0,0,1-.971-4.728,5.025,5.025,0,0,1,1.144-2.345,5.122,5.122,0,0,1,2.192-1.482,4.29,4.29,0,0,1,2.725-.037,5.921,5.921,0,0,1,2.168,1.339,11.494,11.494,0,0,1,2.627,3.794,11.775,11.775,0,0,1,.37,8.522,11.99,11.99,0,0,1-4.77,6.054,11.1,11.1,0,0,1-6.461,1.777,9.932,9.932,0,0,1-5.253-1.674,9.36,9.36,0,0,1-2.827-3.019,7.712,7.712,0,0,1-.93-2.418c-.111-.581-.085-.9-.036-.9a23.407,23.407,0,0,0,1.526,2.962,9.28,9.28,0,0,0,2.782,2.574,9.161,9.161,0,0,0,4.761,1.271,10,10,0,0,0,5.654-1.75,10.663,10.663,0,0,0,4.063-5.381,10.273,10.273,0,0,0-.413-7.345,9.935,9.935,0,0,0-2.247-3.216,4.26,4.26,0,0,0-1.538-.963,2.568,2.568,0,0,0-1.65.031,3.436,3.436,0,0,0-1.457.986,3.323,3.323,0,0,0-.764,1.56,4.884,4.884,0,0,0,.718,3.493,7.14,7.14,0,0,0,2.755,2.426,11.254,11.254,0,0,0,3.511,1.132,9.107,9.107,0,0,0,6.5-1.308,7.206,7.206,0,0,0,3.118-4.77,9.2,9.2,0,0,0-.836-4.847A22.194,22.194,0,0,0,82.315,216a27.113,27.113,0,0,0-2.162-2.552" transform="translate(-21.812 -80.79)" fill="#6d3a75"/>
        </g>
      </g>
      <g id="Grupo_1168751" data-name="Grupo 1168751" transform="translate(0 0)">
        <g id="Grupo_1168750" data-name="Grupo 1168750" clip-path="url(#clip-path-3)">
          <rect id="Rectángulo_413504" data-name="Rectángulo 413504" width="15.366" height="33.223" transform="translate(228.845 177.062)" fill="#edb453"/>
          <rect id="Rectángulo_413505" data-name="Rectángulo 413505" width="37.999" height="33.223" transform="translate(244.21 177.062)" fill="#f3cb87"/>
          <rect id="Rectángulo_413506" data-name="Rectángulo 413506" width="10.978" height="16.612" transform="translate(258.765 177.062)" fill="#3a201e"/>
          <path id="Trazado_1013001" data-name="Trazado 1013001" d="M392.428,317.609c-.472,0-.855-7.437-.855-16.612s.383-16.612.855-16.612.855,7.437.855,16.612-.382,16.612-.855,16.612" transform="translate(-148.217 -107.324)" fill="#3a201e"/>
          <path id="Trazado_1013002" data-name="Trazado 1013002" d="M421.547,337.39c.008.234-2.982.534-7.82.716s-11.52.284-18.9.256-14.059-.173-18.893-.365-7.823-.436-7.82-.672,2.994-.42,7.829-.536,11.514-.165,18.89-.135,14.053.124,18.885.244,7.82.255,7.829.493" transform="translate(-139.338 -127.105)" fill="#3a201e"/>
          <path id="Trazado_1013003" data-name="Trazado 1013003" d="M427.707,261.431c-.676-3.551,5.193-19.8,13.31-24.43l-4.125-2.217,9.146-1.465,1.589,7.971-3.8-2.83c-7.359,5.06-9.782,18.733-8.974,23.051Z" transform="translate(-161.875 -87.994)" fill="#b974d0"/>
          <path id="Trazado_1013004" data-name="Trazado 1013004" d="M436.266,252.248a6.279,6.279,0,0,1,.282-1.565,30.052,30.052,0,0,1,1.382-4.22,23.35,23.35,0,0,1,3.426-5.9c.217-.248.43-.508.661-.757s.475-.495.732-.735.521-.477.807-.7l.447-.339.395-.3a.235.235,0,0,1,.05-.034l.05.037.1.075.2.149,1.835,1.347.917.674.055.039.017.011.029.018c-.421-2.072-.868-4.266-1.331-6.546l-3.174.511-4.339.689.006.006.006,0,.168.091,1.256.68,1.509.817.594.321.074.04c.042.013-.029.03-.039.044l-.142.091-.284.181-.917.584a18.835,18.835,0,0,0-3.748,3.447,39.169,39.169,0,0,0-4.746,7.195c-1.136,2.166-1.905,3.978-2.417,5.23a14.081,14.081,0,0,1-.823,1.933c-.025-.007.009-.191.1-.537s.228-.854.445-1.5a43.69,43.69,0,0,1,2.205-5.377,37.25,37.25,0,0,1,4.673-7.422,19.2,19.2,0,0,1,3.864-3.635l.237-.155c.016-.007,0-.012-.009-.017l-.965-.512-3.638-1.946,6.8-1.1,3.982-.636c.643,3.273,1.263,6.421,1.848,9.4l-4.375-3.288c-.019-.025-.034-.02-.061,0l-.4.3c-.273.2-.519.437-.776.649s-.476.463-.71.689-.434.48-.648.714a24.111,24.111,0,0,0-3.493,5.66,40.774,40.774,0,0,0-1.58,4.1,8.622,8.622,0,0,1-.534,1.492" transform="translate(-162.498 -87.699)" fill="#3a201e"/>
          <rect id="Rectángulo_413507" data-name="Rectángulo 413507" width="39.175" height="23.635" transform="translate(46.553 95.694)" fill="#e26e3b"/>
          <path id="Trazado_1013005" data-name="Trazado 1013005" d="M109.993,168.515H82.351A3.011,3.011,0,0,1,79.34,165.5V153.46H113V165.5a3.011,3.011,0,0,1-3.011,3.011" transform="translate(-30.032 -57.766)" fill="#3a201e"/>
          <path id="Trazado_1013006" data-name="Trazado 1013006" d="M76.551,136.851h7.122l-3.319,9.722h-9.56Z" transform="translate(-26.797 -51.48)" fill="#61936b"/>
          <path id="Trazado_1013007" data-name="Trazado 1013007" d="M96.452,136.851l-1.511,9.722H86.177l3.32-9.722Z" transform="translate(-32.619 -51.48)" fill="#96cc9e"/>
          <path id="Trazado_1013008" data-name="Trazado 1013008" d="M70.766,152.494c-.412,3.277,2.021,5.971,4.551,6.081,2.655.114,5.413-2.619,5.009-6.081Z" transform="translate(-26.769 -57.401)" fill="#61936b"/>
          <path id="Trazado_1013009" data-name="Trazado 1013009" d="M86.144,152.494c-.449,3.214,1.948,5.8,4.275,5.854,2.38.051,4.932-2.552,4.489-5.854Z" transform="translate(-32.586 -57.401)" fill="#96cc9e"/>
          <path id="Trazado_1013010" data-name="Trazado 1013010" d="M128.451,136.851h-7.122l3.319,9.722h9.56Z" transform="translate(-45.925 -51.48)" fill="#61936b"/>
          <path id="Trazado_1013011" data-name="Trazado 1013011" d="M110.137,136.851l1.511,9.722h8.764l-3.32-9.722Z" transform="translate(-41.689 -51.48)" fill="#96cc9e"/>
          <path id="Trazado_1013012" data-name="Trazado 1013012" d="M136.206,152.494c.412,3.277-2.021,5.971-4.551,6.081-2.655.114-5.413-2.619-5.009-6.081Z" transform="translate(-47.923 -57.401)" fill="#61936b"/>
          <path id="Trazado_1013013" data-name="Trazado 1013013" d="M121.3,152.494c.449,3.214-1.948,5.8-4.275,5.854-2.38.051-4.932-2.552-4.489-5.854Z" transform="translate(-42.579 -57.401)" fill="#96cc9e"/>
          <path id="Trazado_1013014" data-name="Trazado 1013014" d="M106.406,136.851H101.79l-1.511,9.722h7.639Z" transform="translate(-37.957 -51.48)" fill="#61936b"/>
          <path id="Trazado_1013015" data-name="Trazado 1013015" d="M100.258,152.494c-.337,3.49,2.059,5.972,3.9,5.943,1.818-.029,4.1-2.521,3.738-5.943" transform="translate(-37.938 -57.401)" fill="#61936b"/>
          <rect id="Rectángulo_413508" data-name="Rectángulo 413508" width="46.861" height="2.175" transform="translate(42.71 119.328)" fill="#ecb354"/>
          <path id="Trazado_1013016" data-name="Trazado 1013016" d="M112.524,152.725c-.007.472-9.354.72-20.878.554s-20.86-.683-20.853-1.155,9.355-.72,20.878-.554,20.86.683,20.853,1.155" transform="translate(-26.796 -57.032)" fill="#3a201e"/>
        </g>
      </g>
      <g id="Grupo_1168753" data-name="Grupo 1168753" transform="translate(0 0.321)">
        <g id="Grupo_1168752" data-name="Grupo 1168752" clip-path="url(#clip-path-2)">
          <path id="Trazado_1013017" data-name="Trazado 1013017" d="M283.849,180.02c-10.225,6.748-38.094,3.109-38.094,3.109s.045,1.738.142,4.4a213.3,213.3,0,0,0-21.362-2.344c-66.306-12.515-99.02,13.832-99.02,13.832v0c-.053.06-29.259,32.794-37.536,46.051-3.9,5.2-8.757,25.524-6.233,34.728s47.332-6.488,47.332-6.488c-2.169-2.262-3.872-5.78-5.214-9.757L139.1,253.045l6.179,24.579c15.369,16.687,72.674-.658,74.869-5.489.855-1.88,1.709-15.471,2.434-31.369,0,.055,0,.092,0,.092s57.529-12.568,62.952-16.512c9.506-.827-1.681-44.326-1.681-44.326" transform="translate(-30.679 -68.141)" fill="#eeb722"/>
        </g>
      </g>
      <g id="Grupo_1168755" data-name="Grupo 1168755" transform="translate(50.371 112.2)">
        <g id="Grupo_1168754" data-name="Grupo 1168754" clip-path="url(#clip-path-5)">
          <circle id="Elipse_12062" data-name="Elipse 12062" cx="18.106" cy="18.106" r="18.106" transform="translate(33.688 27.138) rotate(-79.099)" fill="none" stroke="#f9c98a" stroke-miterlimit="10" stroke-width="3"/>
          <circle id="Elipse_12063" data-name="Elipse 12063" cx="18.106" cy="18.106" r="18.106" transform="matrix(0.23, -0.973, 0.973, 0.23, 63.666, 52.041)" fill="none" stroke="#f9c98a" stroke-miterlimit="10" stroke-width="3"/>
          <circle id="Elipse_12064" data-name="Elipse 12064" cx="18.106" cy="18.106" r="18.106" transform="translate(95.066 26.389) rotate(-82.027)" fill="none" stroke="#f9c98a" stroke-miterlimit="10" stroke-width="3"/>
          <circle id="Elipse_12065" data-name="Elipse 12065" cx="18.106" cy="18.106" r="18.106" transform="translate(115.02 30.797)" fill="none" stroke="#f9c98a" stroke-miterlimit="10" stroke-width="3"/>
          <circle id="Elipse_12066" data-name="Elipse 12066" cx="18.106" cy="18.106" r="18.106" transform="matrix(0.23, -0.973, 0.973, 0.23, 80.875, 89.148)" fill="none" stroke="#f9c98a" stroke-miterlimit="10" stroke-width="3"/>
          <circle id="Elipse_12067" data-name="Elipse 12067" cx="18.106" cy="18.106" r="18.106" transform="translate(136.068 27.644) rotate(-76.717)" fill="none" stroke="#f9c98a" stroke-miterlimit="10" stroke-width="3"/>
          <circle id="Elipse_12068" data-name="Elipse 12068" cx="18.106" cy="18.106" r="18.106" transform="translate(155.115 34.243)" fill="none" stroke="#f9c98a" stroke-miterlimit="10" stroke-width="3"/>
          <circle id="Elipse_12069" data-name="Elipse 12069" cx="18.106" cy="18.106" r="18.106" transform="translate(52.787 84.609)" fill="none" stroke="#f9c98a" stroke-miterlimit="10" stroke-width="3"/>
          <circle id="Elipse_12070" data-name="Elipse 12070" cx="18.106" cy="18.106" r="18.106" transform="translate(121.638 73.233)" fill="none" stroke="#f9c98a" stroke-miterlimit="10" stroke-width="3"/>
          <circle id="Elipse_12071" data-name="Elipse 12071" cx="18.106" cy="18.106" r="18.106" transform="translate(178.897 34.364) rotate(-76.717)" fill="none" stroke="#f9c98a" stroke-miterlimit="10" stroke-width="3"/>
          <circle id="Elipse_12072" data-name="Elipse 12072" cx="18.106" cy="18.106" r="18.106" transform="matrix(0.23, -0.973, 0.973, 0.23, 27.72, 68.36)" fill="none" stroke="#f9c98a" stroke-miterlimit="10" stroke-width="3"/>
          <circle id="Elipse_12073" data-name="Elipse 12073" cx="18.106" cy="18.106" r="18.106" transform="matrix(0.189, -0.982, 0.982, 0.189, 3.564, 111.369)" fill="none" stroke="#f9c98a" stroke-miterlimit="10" stroke-width="3"/>
          <circle id="Elipse_12074" data-name="Elipse 12074" cx="18.106" cy="18.106" r="18.106" transform="matrix(0.189, -0.982, 0.982, 0.189, -14.542, 72.468)" fill="none" stroke="#f9c98a" stroke-miterlimit="10" stroke-width="3"/>
        </g>
      </g>
      <g id="Grupo_1168757" data-name="Grupo 1168757" transform="translate(0 0.321)">
        <g id="Grupo_1168756" data-name="Grupo 1168756" clip-path="url(#clip-path-2)">
          <path id="Trazado_1013019" data-name="Trazado 1013019" d="M173.494,295.422c-.223.041-1.156-3.445-2.54-9.121s-3.181-13.54-5.067-22.25c-.943-4.355-1.815-8.509-2.583-12.294-.375-1.894-.731-3.694-1.064-5.382-.163-.841-.314-1.664-.452-2.459s-.25-1.53-.395-2.228a13.691,13.691,0,0,0-1.187-3.588,18.907,18.907,0,0,0-1.547-2.454c-.96-1.3-1.512-2.033-1.417-2.117s.791.494,1.93,1.694a15.27,15.27,0,0,1,1.867,2.41,13.583,13.583,0,0,1,1.531,3.78c.19.723.352,1.483.515,2.263s.355,1.578.543,2.41c.382,1.675.789,3.462,1.216,5.342.852,3.764,1.771,7.908,2.714,12.262,1.885,8.709,3.5,16.615,4.578,22.358s1.6,9.331,1.359,9.376" transform="translate(-59.515 -88.392)" fill="#3a201e"/>
          <path id="Trazado_1013020" data-name="Trazado 1013020" d="M101.841,277.783c-.065-.221,1.268-.846,3.51-1.6a78.88,78.88,0,0,1,18.072-3.583c2.359-.159,3.83-.089,3.854.14.048.485-5.677,1.4-12.663,2.8l-8.955,1.813c-2.3.45-3.751.664-3.818.432" transform="translate(-38.548 -103.151)" fill="#3a201e"/>
          <path id="Trazado_1013021" data-name="Trazado 1013021" d="M110.658,270.76c-.022-.229,1.042-.559,2.8-.813a41.734,41.734,0,0,1,13.812.533c1.736.39,2.771.8,2.731,1.027s-1.144.25-2.891.172-4.143-.229-6.79-.332-5.047-.137-6.8-.192-2.846-.154-2.869-.393" transform="translate(-41.886 -102.051)" fill="#3a201e"/>
          <path id="Trazado_1013022" data-name="Trazado 1013022" d="M305.88,285.823c-.058-.009-.077-.318-.058-.9s.085-1.429.15-2.522c.04-1.1.152-2.429.182-3.984.062-1.552.085-3.322.091-5.279s-.021-4.1-.05-6.412-.057-4.783.018-7.4a61.862,61.862,0,0,1,.681-8.215A41.456,41.456,0,0,1,309.2,242.5c1.132-2.845,2.472-5.484,3.738-8.021.32-.636.643-1.27.981-1.893l.52-.927.271-.456.382-.611a17.594,17.594,0,0,1,2.136-2.733l1-1.053c.328-.339.768-.813,1.008-1.034q-.544,2.711-1.091,5.2c-.083.4-.194.863-.293,1.242l-.175.674c-.112.448-.242.886-.365,1.32-.5,1.735-1.029,3.368-1.595,4.886s-1.136,2.927-1.711,4.214-1.14,2.457-1.687,3.5-1.054,1.963-1.526,2.75-.891,1.449-1.239,1.981c-.712,1.055-1.144,1.589-1.217,1.544a6.031,6.031,0,0,1,.778-1.8l1.025-2.077c.4-.814.845-1.756,1.318-2.816s.978-2.236,1.488-3.526,1.03-2.693,1.526-4.2.985-3.125,1.429-4.836c.111-.428.228-.86.328-1.3l.157-.664a.883.883,0,0,0,.016-.1,1.541,1.541,0,0,0,.016-.208c.011-.034-.028.025-.043.044l-.049.073a.938.938,0,0,0-.061.111l-.406.694-.487.891c-.319.6-.629,1.224-.941,1.857-1.246,2.546-2.556,5.158-3.649,7.906a41.271,41.271,0,0,0-2.24,8.246,64.321,64.321,0,0,0-.761,8.006c-.117,2.575-.137,5.037-.175,7.347s-.077,4.467-.16,6.436-.192,3.752-.346,5.312c-.122,1.563-.331,2.9-.474,3.994-.168,1.091-.347,1.93-.47,2.5s-.224.86-.283.851" transform="translate(-115.756 -85.459)" fill="#3a201e"/>
          <path id="Trazado_1013023" data-name="Trazado 1013023" d="M370.34,216.02c-.156.175-1.741-.943-4.169-2.911s-5.695-4.795-9.116-8.136c-.849-.841-1.676-1.665-2.454-2.482s-1.517-1.616-2.214-2.383c-1.38-1.549-2.577-2.986-3.529-4.235-.485-.617-.895-1.2-1.255-1.707s-.656-.958-.884-1.336c-.459-.753-.666-1.2-.572-1.272s.48.24,1.1.861l1.1,1.144,1.435,1.528c1.058,1.135,2.333,2.47,3.759,3.942.721.728,1.466,1.5,2.26,2.288l2.452,2.432c3.388,3.309,6.513,6.261,8.727,8.458s3.519,3.633,3.362,3.81" transform="translate(-131.014 -72.504)" fill="#3a201e"/>
          <path id="Trazado_1013024" data-name="Trazado 1013024" d="M361.536,219.906c-.367.279-3.793-3.641-7.173-9.076s-5.4-10.229-4.991-10.436c.43-.22,3.094,4.176,6.442,9.532s6.11,9.69,5.723,9.98" transform="translate(-132.223 -75.85)" fill="#3a201e"/>
          <path id="Trazado_1013025" data-name="Trazado 1013025" d="M225.3,170.845c.646.554-.025,9.726,1.188,9.726s-.229-9.172.584-10.28c.661-.9,7.616-6.071,10.692-7.726v-10.07a13.223,13.223,0,0,1-1.5.285l-14.223,1.767a13.108,13.108,0,0,1-8.254-1.7V165.62a122.442,122.442,0,0,1,11.514,5.225" transform="translate(-80.922 -57.722)" fill="#b16656"/>
          <path id="Trazado_1013026" data-name="Trazado 1013026" d="M237.765,160.111v-7.616a13.349,13.349,0,0,1-1.5.285l-14.223,1.767a13.106,13.106,0,0,1-8.253-1.7v10.517c7.975,1.592,16.251-.052,23.977-3.254" transform="translate(-80.923 -57.722)" fill="#3a201e"/>
          <path id="Trazado_1013027" data-name="Trazado 1013027" d="M191.294,62.438l7.657,42.419a13.163,13.163,0,0,0,14.576,10.724l14.223-1.767a13.163,13.163,0,0,0,11.539-13.062V51.458s-27.451-8.678-48,10.98" transform="translate(-72.408 -18.755)" fill="#b16656"/>
          <path id="Trazado_1013028" data-name="Trazado 1013028" d="M202.931,131.94a13.162,13.162,0,0,0,14.576,10.724l14.223-1.767a13.162,13.162,0,0,0,11.54-13.062V121.1l-1.3,1.354a15.438,15.438,0,0,0-3.8,6.834l-.342,1.329a6.747,6.747,0,0,1-5.658,5.012l-14.213,1.863a6.746,6.746,0,0,1-6.925-3.7l-.211-.425a15.443,15.443,0,0,0-6.852-6.925l-2.1-1.068-.062.344Z" transform="translate(-76.388 -45.839)" fill="#6c458c"/>
          <path id="Trazado_1013029" data-name="Trazado 1013029" d="M196.466,110.178a8.713,8.713,0,1,1-9.906-7.329,8.713,8.713,0,0,1,9.906,7.329" transform="translate(-67.806 -38.894)" fill="#b16656"/>
          <path id="Trazado_1013030" data-name="Trazado 1013030" d="M218.994,111.871a8.026,8.026,0,1,1-8.026-8.026,8.026,8.026,0,0,1,8.026,8.026" transform="translate(-76.817 -39.307)" fill="#ab5146"/>
          <path id="Trazado_1013031" data-name="Trazado 1013031" d="M260.518,100.072a8.026,8.026,0,1,0,0,12.372Z" transform="translate(-93.637 -37.183)" fill="#ab5146"/>
          <path id="Trazado_1013032" data-name="Trazado 1013032" d="M242.533,73.608a18.328,18.328,0,0,1,.332,4.027c.1,2.593.195,6.344.272,10.98s.14,10.156.183,16.286q.014,2.3.029,4.707a14.416,14.416,0,0,1-.852,5.1,14,14,0,0,1-9.912,8.782c-.451.114-.912.168-1.366.252-.443.065-.863.109-1.293.164l-5.05.615-4.876.584c-1.6.17-3.109.431-4.775.457a13.778,13.778,0,0,1-8.53-2.955,13.273,13.273,0,0,1-2.825-3.015,14.624,14.624,0,0,1-1-1.674c-.137-.287-.254-.579-.378-.864a6.053,6.053,0,0,1-.319-.862c-.09-.29-.187-.573-.267-.857l-.183-.855c-.134-.571-.186-1.082-.278-1.6q-.243-1.546-.459-2.914c-.27-1.815-.5-3.382-.7-4.675a18.428,18.428,0,0,1-.388-4.021,18.328,18.328,0,0,1,1.043,3.9c.272,1.278.6,2.828.982,4.623l.589,2.891c.11.5.193,1.06.333,1.557l.195.777c.083.257.181.513.272.774a5.26,5.26,0,0,0,.316.776c.122.255.236.517.367.774a13.509,13.509,0,0,0,.948,1.49,12.091,12.091,0,0,0,2.612,2.653,12.439,12.439,0,0,0,7.656,2.5c1.4-.036,3-.315,4.584-.5l4.87-.626,5.047-.64c.424-.056.864-.1,1.278-.166.4-.078.8-.122,1.2-.224a12.408,12.408,0,0,0,8.732-7.7,12.874,12.874,0,0,0,.791-4.523q.014-2.406.029-4.707c.043-6.13.106-11.65.183-16.286s.169-8.388.272-10.98a18.331,18.331,0,0,1,.332-4.027" transform="translate(-75.652 -27.862)" fill="#3a201e"/>
          <path id="Trazado_1013033" data-name="Trazado 1013033" d="M185.464,74.732a23.08,23.08,0,0,1,3.842.285s-.061,5.23,2.867,4.812-3.354-24.192-3.354-24.192c.671.423,8.481,5.16,17.041,1.424a18.643,18.643,0,0,0,9.808-10.7,9.7,9.7,0,0,0,6.309,3.769,9.54,9.54,0,0,0,6.1-1.26c.335,1.4.367,11.4,6.624,11.722,7.13.367,7.586-5.309,7.11-7.33,9.263,1.05,6.308-15.866-3.974-12.062,1.8-1.152,1.761-5.576-1.007-7.214-4.226-2.5-6.663.991-7.22,2.334.477-13.7-22.119-7.028-21.892,1.464-10.892-15.162-29.046,3.335-23.983,12.131-2.593-2.215-8.455.314-7.366,6.573.809,4.649,3.368,4.95,6.061,3.485,0,0,.758,9.7,3.032,14.754" transform="translate(-66.709 -10.776)" fill="#6c458c"/>
          <path id="Trazado_1013034" data-name="Trazado 1013034" d="M190.5,117.981c-.013.077-.278.125-.7-.04a3.458,3.458,0,0,1-1.431-1.19,3.185,3.185,0,0,1-.57-1.259,1.494,1.494,0,0,1,.132-.987,1.345,1.345,0,0,1,.392-.437,2.432,2.432,0,0,1,.408-.241,4.433,4.433,0,0,1,1.691-.336,6.306,6.306,0,0,1,.874.042l.224.032c.012,0,.006,0,.006,0h0s0,.006,0-.007l-.019-.145-.044-.346c-.034-.226-.1-.429-.148-.641a4.087,4.087,0,0,0-.24-.544,1.887,1.887,0,0,0-1.557-1.025,3.5,3.5,0,0,0-1.456.247c-.351.126-.543.243-.615.172-.055-.048.024-.3.348-.589a2.986,2.986,0,0,1,1.709-.73,2.768,2.768,0,0,1,1.367.236,2.863,2.863,0,0,1,1.205,1.073,4.678,4.678,0,0,1,.387.751c.077.264.176.537.229.814l.068.419.037.243c.011.116.013.256.02.384q.033.777.066,1.574l-.272-.126-.47-.219L191.92,115l-.207-.066a2.416,2.416,0,0,0-.4-.107l-.175-.027a5.745,5.745,0,0,0-.7-.052,3.7,3.7,0,0,0-1.238.167,1.331,1.331,0,0,0-.208.1c-.036.018-.061.035-.055.037s-.024,0-.023.015c-.038.016-.058.149-.054.287a2.591,2.591,0,0,0,.286.919,4.539,4.539,0,0,0,.922,1.242c.27.254.461.371.439.465" transform="translate(-70.95 -41.619)" fill="#3a201e"/>
          <path id="Trazado_1013035" data-name="Trazado 1013035" d="M234.651,93.81c.081.042-.027.4-.185,1.04a7.353,7.353,0,0,0-.2,1.144c-.03.418.009.952.287,1.129.052.062.155.08.238.122.119.023.243.053.385.067a8.284,8.284,0,0,0,.947.026c.675-.016,1.413-.087,2.187-.175s1.591-.205,2.435-.337l1.285-.211c.081-.014.027,0,.044-.008h0v0l.035-.13c.025-.1.058-.2.076-.3a7.551,7.551,0,0,0,0-2.432,14.467,14.467,0,0,0-.6-2.294C241.065,90,240.464,88.706,240,87.6a20.2,20.2,0,0,1-.981-2.7c-.17-.665-.188-1.051-.109-1.073s.27.305.576.895.763,1.434,1.332,2.487a36.653,36.653,0,0,1,1.866,3.835,13.912,13.912,0,0,1,.732,2.493,8.352,8.352,0,0,1,.026,2.882c-.022.124-.062.245-.093.366l-.144.525c-.07.205-.059.5-.349.461l-.616.106-1.316.2c-.864.117-1.7.209-2.5.27a20.294,20.294,0,0,1-2.309.062,8.213,8.213,0,0,1-1.088-.112,4.219,4.219,0,0,1-.549-.149,1.632,1.632,0,0,1-.541-.354,1.548,1.548,0,0,1-.449-1.034,2.9,2.9,0,0,1,.071-.867A5.336,5.336,0,0,1,234,94.676c.314-.619.578-.906.653-.866" transform="translate(-88.375 -31.728)" fill="#3a201e"/>
          <path id="Trazado_1013036" data-name="Trazado 1013036" d="M220.873,90.47c2.566-.23,4.51,6.419.65,7.035-3.127.5-4.033-6.73-.65-7.035" transform="translate(-82.791 -34.242)" fill="#3a201e"/>
          <path id="Trazado_1013037" data-name="Trazado 1013037" d="M251.644,84.787c2.566-.23,4.51,6.418.65,7.034-3.127.5-4.033-6.731-.65-7.034" transform="translate(-94.438 -32.091)" fill="#3a201e"/>
          <path id="Trazado_1013038" data-name="Trazado 1013038" d="M219.957,80.954c.388-.14-1.61-3.171-3.291-3.171-2.071,0-9.32,4.977-9.906,6.245-.387.838,1.692,2.467,2.391,2.342.951-.171,5.854-3.635,10.806-5.416" transform="translate(-78.244 -29.442)" fill="#3a201e"/>
          <path id="Trazado_1013039" data-name="Trazado 1013039" d="M243.822,77.3c-.411-.037.758-3.475,2.385-3.9,2-.523,10.274,2.463,11.161,3.542.585.713-1.015,2.815-1.723,2.869-.963.075-6.582-2.039-11.823-2.513" transform="translate(-92.259 -27.761)" fill="#3a201e"/>
          <path id="Trazado_1013040" data-name="Trazado 1013040" d="M223.732,106.884s6.58,4.564,13.7,4.341c0,0-1.113,6.178-9.128,4.731s-4.576-9.072-4.576-9.072" transform="translate(-84.409 -40.458)" fill="#fbefdf"/>
          <path id="Trazado_1013041" data-name="Trazado 1013041" d="M205.072,169.8c2.626.231,15.878,6.312,16.524,6.866s-.025,9.726,1.188,9.726-.229-9.172.584-10.28,11.152-8.678,12.075-8.216.924,10.246.924,10.246-8.7,10.062-13.583,10.062-18.725-7.374-18.725-7.374-.428-11.157,1.014-11.031" transform="translate(-77.217 -63.545)" fill="#f9c98a"/>
          <path id="Trazado_1013042" data-name="Trazado 1013042" d="M215.855,184.046a8.9,8.9,0,0,1,2.166.7c1.37.5,3.347,1.281,5.849,2,.626.173,1.286.334,1.971.456a5.659,5.659,0,0,0,2.06.061,11.721,11.721,0,0,0,4.206-2.125,41.116,41.116,0,0,0,4.163-3.518q1.036-.984,2.066-2.054l1.026-1.087.853-.943q-.007-.648-.016-1.306-.017-.778-.035-1.566c-.031-1.113-.076-2.212-.146-3.288a19.636,19.636,0,0,0-.378-3.068l-.027-.094s0-.007,0-.008H239.6l-.078.03c-.05.02-.1.04-.157.067-.429.2-.869.444-1.3.694-.857.508-1.687,1.042-2.488,1.576-1.6,1.07-3.1,2.131-4.484,3.15-.689.51-1.35,1.01-1.963,1.5a10.726,10.726,0,0,0-.834.73c-.121.062-.178.452-.216.781-.116,1.4-.045,2.746-.038,3.9s.026,2.176-.012,3.005a7.228,7.228,0,0,1-.268,1.913.8.8,0,0,1-.3.451c-.116.069-.188.022-.191.013-.014-.029.058-.036.109-.115a.879.879,0,0,0,.131-.414,10.5,10.5,0,0,0,.02-1.848c-.038-.813-.117-1.81-.2-2.973a35.083,35.083,0,0,1-.149-4.014,4.475,4.475,0,0,1,.075-.613,2.14,2.14,0,0,1,.1-.352,2.268,2.268,0,0,1,.117-.219c.041-.057.08-.1.122-.153a10.656,10.656,0,0,1,.906-.855c.617-.532,1.271-1.057,1.955-1.593,1.369-1.068,2.858-2.17,4.465-3.281.8-.556,1.639-1.111,2.524-1.65.447-.267.9-.531,1.409-.771.062-.031.131-.06.2-.088a1.929,1.929,0,0,1,.286-.1l.365-.086c.115.014.231.016.346.039a.9.9,0,0,1,.17.044l.141.108c.078.088.185.142.234.264a2.352,2.352,0,0,1,.17.337c.047.147.075.219.091.288a19.874,19.874,0,0,1,.439,3.313c.076,1.1.124,2.214.155,3.339q.017.8.034,1.582.007.908.013,1.8l-.677.762-.523.567-1.053,1.1q-1.055,1.08-2.126,2.074a39.858,39.858,0,0,1-4.347,3.557,12.376,12.376,0,0,1-4.692,2.2,6.494,6.494,0,0,1-2.409-.137,20.886,20.886,0,0,1-2.043-.557,46.865,46.865,0,0,1-5.787-2.391,7.779,7.779,0,0,1-1.979-1.134" transform="translate(-81.705 -63.172)" fill="#3a201e"/>
          <path id="Trazado_1013043" data-name="Trazado 1013043" d="M221.764,184.666c-.086.007-.214-.54-.325-1.538s-.183-2.452-.334-4.2c-.021-.217-.045-.439-.079-.652a2.853,2.853,0,0,0-.058-.309.564.564,0,0,0-.032-.117.091.091,0,0,0-.017-.028c-.016-.025-.047-.021-.132-.076l-.321-.161c-.214-.111-.451-.216-.684-.328-.942-.438-1.96-.9-3.035-1.368-2.15-.948-4.526-1.97-7.034-2.98-1.255-.5-2.486-.981-3.675-1.362-.291-.082-.59-.176-.867-.243-.375-.067-.248-.059-.288-.05-.006.006,0,0,0,0a1.154,1.154,0,0,0-.063.154,3.49,3.49,0,0,0-.112.373c-.065.265-.117.543-.159.823a58.118,58.118,0,0,0-.4,6.168c-.019.879-.037,1.681-.053,2.4,0,.111,0,.108-.007.161.007.034-.03.1.015.11.066.044.108.075.266.167l.71.427c.85.522,1.3.849,1.263.928s-.568-.1-1.493-.485l-.766-.33-.578-.267a.4.4,0,0,1-.083-.044l-.007-.093-.013-.192c-.008-.118-.016-.239-.024-.36-.055-.71-.1-1.518-.137-2.413a43.875,43.875,0,0,1,.137-6.337c.037-.3.086-.615.157-.937a4.7,4.7,0,0,1,.139-.5,2.3,2.3,0,0,1,.107-.271,1.167,1.167,0,0,1,.249-.377c.05-.052.1-.109.15-.158s.121-.08.183-.116a.655.655,0,0,1,.209-.05l.054-.009.013,0c0-.035.007-.01.01-.018l.027,0,.108-.006a1.2,1.2,0,0,1,.213.027l.174.029.266.046c.335.075.646.168.972.255,1.26.387,2.505.868,3.78,1.372,2.539,1.022,4.912,2.083,7.049,3.1q1.6.758,3.017,1.492c.235.125.464.24.693.372l.342.194c.109.092.342.173.43.375a.7.7,0,0,1,.141.29,1.194,1.194,0,0,1,.054.231,3.561,3.561,0,0,1,.051.39c.025.25.035.483.042.712.037,1.813-.039,3.242-.072,4.241s-.084,1.548-.174,1.555" transform="translate(-76.911 -64.344)" fill="#3a201e"/>
          <path id="Trazado_1013044" data-name="Trazado 1013044" d="M226.211,186.883c0,1.464-.625,2.65-1.4,2.65s-1.4-1.186-1.4-2.65.625-2.65,1.4-2.65,1.4,1.186,1.4,2.65" transform="translate(-84.568 -69.735)" fill="#3a201e"/>
          <path id="Trazado_1013045" data-name="Trazado 1013045" d="M241.626,185.434c.128,1.458-.39,2.695-1.158,2.762s-1.495-1.06-1.623-2.518.39-2.695,1.158-2.762,1.495,1.06,1.623,2.518" transform="translate(-90.4 -69.236)" fill="#3a201e"/>
          <path id="Trazado_1013046" data-name="Trazado 1013046" d="M337.4,132.13s21.378,6.616,32.54-1.053c0,0-10.7-28.409-12.128-33.563s-2.106-23.271-5.02-27.938c-1.776-2.845-7.055-3.325-7.668-3.1-2.807-1.574-5.89-1.144-5.78-.722-3.7-2.726-6.6-.694-6.474,1.62-2.788-6.518-12.033-15.344-13.786-13.665-1.856,1.777,6.468,16.952,7.974,20.922.712,1.878-4.637,7.576-4.539,9.117.432,6.752,12.812,16.384,13.336,18,1.006,3.1,1.546,30.384,1.546,30.384" transform="translate(-120.676 -20.251)" fill="#b16656"/>
          <path id="Trazado_1013047" data-name="Trazado 1013047" d="M336.951,129.127a10.956,10.956,0,0,1-.177-1.919c-.064-1.276-.157-3.129-.277-5.509-.119-2.4-.264-5.321-.433-8.713q-.137-2.546-.334-5.432c-.073-.959-.147-1.945-.245-2.954a22.248,22.248,0,0,0-.433-3.009l-.02-.088-.025-.043a.48.48,0,0,0-.069-.114,3.112,3.112,0,0,0-.216-.283c-.161-.194-.341-.39-.525-.584-.37-.389-.759-.779-1.157-1.17L330.591,96.9a67.931,67.931,0,0,1-4.961-5.409,29.254,29.254,0,0,1-2.265-3.188,13.13,13.13,0,0,1-1.63-3.789,7.865,7.865,0,0,1-.17-1.08,2.6,2.6,0,0,1,.329-1.255,17.566,17.566,0,0,1,1.086-1.831c.763-1.163,1.569-2.3,2.262-3.49a8.022,8.022,0,0,0,.823-1.79,1.716,1.716,0,0,0,.065-.394,1.164,1.164,0,0,0-.007-.148,1.3,1.3,0,0,0-.048-.146c-.126-.321-.265-.646-.411-.973-.584-1.307-1.227-2.626-1.869-3.96-1.286-2.67-2.612-5.4-3.837-8.248a45.036,45.036,0,0,1-1.677-4.422,9.834,9.834,0,0,1-.487-2.483,1.929,1.929,0,0,1,.015-.368,1.547,1.547,0,0,1,.075-.406,1.248,1.248,0,0,1,.211-.452,1.14,1.14,0,0,1,.412-.385,1.6,1.6,0,0,1,.5-.181,3.273,3.273,0,0,1,.445-.014c.129.018.265.034.388.06l.347.1a9.411,9.411,0,0,1,2.255,1.245,23.747,23.747,0,0,1,1.932,1.551,39.748,39.748,0,0,1,3.483,3.516,41.377,41.377,0,0,1,2.633,3.325q.611.862,1.164,1.763c.181.3.363.6.532.913l.117.214h0v0l.009-.018a3.009,3.009,0,0,1,.315-.443,3.58,3.58,0,0,1,.863-.737,3.907,3.907,0,0,1,2.109-.538,5.318,5.318,0,0,1,2.019.447,7.471,7.471,0,0,1,.9.444c.147.078.275.177.414.265.048.032.033.022.036.025l0,0,0,0c.03-.012-.091.039.2-.093a3.975,3.975,0,0,1,.58-.177,6.226,6.226,0,0,1,1.121-.15,8.546,8.546,0,0,1,2.179.171,6.968,6.968,0,0,1,2.064.769,3.432,3.432,0,0,1,.474.309l.229.168.143.133c.012.015.011.011.019.009-.043.008.1-.02.2-.036a2.694,2.694,0,0,1,.29-.032,7.573,7.573,0,0,1,4.134.979,6.426,6.426,0,0,1,2.774,3.107,20.989,20.989,0,0,1,1.155,3.722c.287,1.235.5,2.46.7,3.672.4,2.424.684,4.8.95,7.1s.513,4.542.758,6.713a48.867,48.867,0,0,0,1,6.179c1.167,3.865,2.472,7.441,3.6,10.684l5.409,15.256c.629,1.789,1.109,3.175,1.421,4.117a7.564,7.564,0,0,1,.423,1.454,7.553,7.553,0,0,1-.637-1.373c-.382-.916-.93-2.277-1.624-4.042-1.387-3.531-3.371-8.675-5.765-15.131-1.183-3.24-2.524-6.76-3.764-10.7a49.01,49.01,0,0,1-1.1-6.317q-.4-3.255-.818-6.709c-.284-2.3-.588-4.654-.994-7.043-.2-1.194-.426-2.4-.711-3.594a20.025,20.025,0,0,0-1.1-3.491A5.2,5.2,0,0,0,350,67.731a6.4,6.4,0,0,0-3.429-.809,1.7,1.7,0,0,0-.2.022,1.9,1.9,0,0,0-.293.068l-.234.068-.117.034c-.038,0-.083.043-.109,0l-.355-.328-.223-.207-.175-.125a2.341,2.341,0,0,0-.365-.236,5.749,5.749,0,0,0-1.7-.621,7.278,7.278,0,0,0-1.858-.14,4.939,4.939,0,0,0-.9.122,2.334,2.334,0,0,0-1.087.548l-.718-.477c-.119-.075-.231-.165-.355-.228a6.305,6.305,0,0,0-.745-.366,4.072,4.072,0,0,0-1.551-.347,2.644,2.644,0,0,0-1.436.359,2.3,2.3,0,0,0-.546.468,1.731,1.731,0,0,0-.22.319,1.947,1.947,0,0,0-.187.431c-.043.185-.05.446-.077.665l-.612.149-.614.14-.455-.964c-.076-.157-.157-.31-.241-.459l-.129-.236c-.16-.292-.333-.579-.506-.866q-.529-.858-1.118-1.69a40.235,40.235,0,0,0-2.551-3.219,38.771,38.771,0,0,0-3.367-3.4,22.678,22.678,0,0,0-1.826-1.469,8.369,8.369,0,0,0-1.917-1.076c-.3-.114-.63-.118-.633-.072,0,0,0,0-.012,0s-.052-.05-.014-.01c.014.016.014.019.014.019a.022.022,0,0,1,0,.007c-.009-.013-.021.038-.032.082a.487.487,0,0,0-.029.175.934.934,0,0,0-.009.222,8.8,8.8,0,0,0,.428,2.132,44.063,44.063,0,0,0,1.618,4.294c1.2,2.815,2.511,5.537,3.786,8.212.637,1.34,1.274,2.66,1.867,4,.148.336.291.676.428,1.027a2.363,2.363,0,0,1,.109.37,2.281,2.281,0,0,1,.024.389,2.837,2.837,0,0,1-.106.665,9.008,9.008,0,0,1-.956,2.081c-.741,1.253-1.562,2.393-2.319,3.531a16.83,16.83,0,0,0-1.023,1.693,1.741,1.741,0,0,0-.224.679,6.673,6.673,0,0,0,.139.914,12.115,12.115,0,0,0,1.47,3.47,28.518,28.518,0,0,0,2.155,3.087,68.335,68.335,0,0,0,4.832,5.375l2.418,2.436c.4.4.786.8,1.165,1.208.19.206.376.414.558.639a3.973,3.973,0,0,1,.269.365,1.4,1.4,0,0,1,.217.481,22.017,22.017,0,0,1,.423,3.194c.083,1.02.143,2.014.2,2.979q.153,2.9.237,5.452c.117,3.4.178,6.334.216,8.729s.046,4.256.036,5.518a10.733,10.733,0,0,1-.081,1.926" transform="translate(-120.29 -19.866)" fill="#3a201e"/>
          <path id="Trazado_1013048" data-name="Trazado 1013048" d="M348.708,101.7c-.076,0-.167-.442-.265-1.225-.014-.1-.022-.2-.04-.31l-.086-.334q-.087-.353-.185-.756a5.45,5.45,0,0,0-.3-.837l-.176-.451c-.065-.152-.164-.293-.246-.446a5.382,5.382,0,0,0-.589-.915,5.831,5.831,0,0,0-.778-.89,9.381,9.381,0,0,0-2.119-1.562,14.526,14.526,0,0,0-2.779-1.092q-.761-.208-1.57-.357l-.408-.066-.209-.034-.408-.049-1.7-.193.648-.906.327-.463c.1-.142.227-.351.25-.389.186-.3.359-.615.518-.937a11.24,11.24,0,0,0,.777-2.038,9.746,9.746,0,0,0,.27-3.925,8.91,8.91,0,0,0-1.216-3.441c-.154-.245-.323-.489-.488-.7s-.286-.282-.329-.281a.585.585,0,0,0-.381.188,6.747,6.747,0,0,0-.54.562c-.745.821-1.427,1.6-2.045,2.311-2.467,2.858-3.915,4.706-4.068,4.6-.136-.094,1.054-2.135,3.365-5.169.579-.757,1.227-1.575,1.946-2.436a7.175,7.175,0,0,1,.615-.685,1.641,1.641,0,0,1,1.186-.492,1.369,1.369,0,0,1,.708.257,2.345,2.345,0,0,1,.436.415c.215.263.4.523.592.8a9.859,9.859,0,0,1,1.462,3.894,10.718,10.718,0,0,1-.277,4.442,12.073,12.073,0,0,1-.874,2.27c-.179.357-.373.7-.582,1.034-.076.12-.045.07-.053.082l0,0-.012.011a.228.228,0,0,0,.05.014l.674.124q.861.174,1.674.419a14.77,14.77,0,0,1,2.984,1.284,9.864,9.864,0,0,1,2.278,1.845,6.405,6.405,0,0,1,.812,1.046,5.889,5.889,0,0,1,.583,1.061c.079.176.173.339.231.511l.152.508a5.445,5.445,0,0,1,.234.931q.053.437.1.822c.014.124.027.244.04.359s-.006.224-.009.328c-.036.825-.093,1.263-.17,1.26" transform="translate(-125.121 -29.517)" fill="#3a201e"/>
          <path id="Trazado_1013049" data-name="Trazado 1013049" d="M347.35,71.507c.011-.043.1-.057.269-.042a1.868,1.868,0,0,1,.72.193,4.175,4.175,0,0,1,1.917,1.938,8.779,8.779,0,0,1,.707,1.723,15.312,15.312,0,0,1,.468,2.046c.127.725.2,1.486.273,2.273s.109,1.586.148,2.428a20.694,20.694,0,0,1-.037,2.482,9.055,9.055,0,0,1-.47,2.35,3.966,3.966,0,0,1-.242.552,2.779,2.779,0,0,1-.324.52,2.866,2.866,0,0,1-.43.457,2.669,2.669,0,0,1-.546.328,2.9,2.9,0,0,1-1.094.2,3.54,3.54,0,0,1-.97-.127,3.909,3.909,0,0,1-1.415-.778,5,5,0,0,1-.793-.853c-.367-.511-.493-.834-.428-.887s.337.167.791.545a4.7,4.7,0,0,0,2.054,1.091,2.8,2.8,0,0,0,.717.021,2.028,2.028,0,0,0,.7-.176,2.056,2.056,0,0,0,.864-1.273,14.033,14.033,0,0,0,.343-4.4c-.041-.817-.081-1.615-.119-2.388s-.1-1.5-.19-2.2a17.868,17.868,0,0,0-.325-1.938,9.527,9.527,0,0,0-.5-1.6,4.411,4.411,0,0,0-1.355-1.9,3.787,3.787,0,0,0-.546-.377c-.131-.091-.2-.161-.19-.2" transform="translate(-130.621 -27.048)" fill="#3a201e"/>
          <path id="Trazado_1013050" data-name="Trazado 1013050" d="M357.876,72.969c.007-.044.09-.068.255-.071a1.654,1.654,0,0,1,.69.189,2.865,2.865,0,0,1,.864.739,5.082,5.082,0,0,1,.723,1.272,19.082,19.082,0,0,1,.8,8c-.06.781-.144,1.54-.265,2.277a7.076,7.076,0,0,1-.658,2.173,3.081,3.081,0,0,1-1.672,1.511,2.11,2.11,0,0,1-1.107.079,2.59,2.59,0,0,1-.88-.371A4.187,4.187,0,0,1,355,86.789c-.211-.564-.193-.9-.115-.925s.238.255.554.688a4.638,4.638,0,0,0,1.636,1.424,1.3,1.3,0,0,0,1.168.083,2.072,2.072,0,0,0,.991-1.05,6.491,6.491,0,0,0,.47-1.83c.1-.7.171-1.429.228-2.18a24.485,24.485,0,0,0-.375-7.6,4.029,4.029,0,0,0-1.011-1.9c-.375-.334-.684-.431-.665-.531" transform="translate(-134.308 -27.593)" fill="#3a201e"/>
          <path id="Trazado_1013051" data-name="Trazado 1013051" d="M369.849,79.367c.173.021.262.879.334,2.287.031.7.05,1.544.027,2.484-.011.47-.036.966-.083,1.485a9.161,9.161,0,0,1-.276,1.653,5.662,5.662,0,0,1-1.633,2.893,3.1,3.1,0,0,1-1.436.672,2.326,2.326,0,0,1-1.408-.19,2.688,2.688,0,0,1-.86-.681,3.527,3.527,0,0,1-.431-.635c-.191-.366-.241-.594-.17-.644s.264.083.56.333a3.673,3.673,0,0,0,1.24.787,1.5,1.5,0,0,0,.846-.009,2.212,2.212,0,0,0,.883-.525,5.185,5.185,0,0,0,1.178-2.363,10.041,10.041,0,0,0,.257-1.427c.06-.486.109-.963.152-1.42.087-.914.162-1.746.246-2.447.16-1.4.393-2.275.572-2.253" transform="translate(-137.736 -30.042)" fill="#3a201e"/>
          <path id="Trazado_1013052" data-name="Trazado 1013052" d="M336.744,67.99c.134-.108.562.16,1.1.736a11.92,11.92,0,0,1,1.692,2.5A15.323,15.323,0,0,1,340.659,74c.208.737.259,1.224.1,1.3s-.506-.284-.925-.924-.915-1.551-1.439-2.556-.986-1.912-1.306-2.588-.487-1.132-.345-1.245" transform="translate(-127.444 -25.726)" fill="#3a201e"/>
          <path id="Trazado_1013053" data-name="Trazado 1013053" d="M346.168,131.535c4.843,1.064,19.755-3.126,22.474-8.283l1.578,4.977c-3.447,8.022-18.917,10.619-23.652,8.815Z" transform="translate(-131.031 -46.653)" fill="#6d3a75"/>
          <path id="Trazado_1013054" data-name="Trazado 1013054" d="M346.071,178.7s27.642,5.084,38.094-3.109l-1.62-7.273s-15.334,7.79-36.424,1.859Z" transform="translate(-130.994 -63.711)" fill="#f9c98a"/>
          <path id="Trazado_1013055" data-name="Trazado 1013055" d="M345.8,177.945a14.7,14.7,0,0,1-.31-3.587q-.029-.872-.063-1.922c-.017-.765-.036-1.594-.056-2.483q0-.488-.011-.994c-.075-.264.182-.105.326-.093l.5.114,1.638.37c.9.183,1.842.456,2.858.586a57.727,57.727,0,0,0,14.284.817,52.546,52.546,0,0,0,8.362-1.175c1.432-.305,2.87-.7,4.312-1.146.714-.24,1.441-.468,2.148-.748.357-.134.714-.27,1.063-.421l.388-.162.544-.254,1.091-.523.18.811q.588,2.651,1.162,5.235.308,1.4.612,2.772c.03.054-.012.08-.056.106l-.116.082-.232.164-.459.326-.514.361c-.332.225-.684.407-1.023.61a26.733,26.733,0,0,1-8.464,2.708,55.246,55.246,0,0,1-7.9.674c-2.476.048-4.777-.035-6.871-.173a91.6,91.6,0,0,1-9.852-1.176,12.742,12.742,0,0,1-3.537-.878,18.063,18.063,0,0,1,3.626.219c2.318.206,5.674.5,9.82.628,2.073.06,4.344.073,6.771-.035a57.658,57.658,0,0,0,7.677-.809,36.005,36.005,0,0,0,4.017-.968,21.517,21.517,0,0,0,3.9-1.651c.3-.185.622-.351.914-.553l.414-.3a.031.031,0,0,0,.008-.007l-.391-1.732q-.438-1.957-.888-3.967l-.016.006-.14.058c-.372.16-.746.3-1.12.442-.743.293-1.5.527-2.241.772-1.5.456-2.987.856-4.468,1.16a51.719,51.719,0,0,1-8.628,1.109,54.622,54.622,0,0,1-14.605-1.2c-1.03-.172-1.977-.488-2.887-.717l-.67-.181-.2-.057-.126-.039-.134-.042c-.04-.007-.112-.055-.1.012-.006.087-.012.173-.018.258-.065,1.556-.122,2.9-.168,4.01a14.689,14.689,0,0,1-.352,3.583" transform="translate(-130.719 -62.957)" fill="#3a201e"/>
          <path id="Trazado_1013056" data-name="Trazado 1013056" d="M181.65,188.508s7.1,30.484,12.042,32.359,33.577-6.988,35.794-12.272,0-25.681,0-25.681l7.492.705s-3.231,28.555,2.394,47.815,12.589,30.584,12.26,41.8c0,0,6.829,21.1,6.148,34.564,0,0-71.385,16.142-93.542,2.508,0,0,5.57-22.063,9.831-30.585,6.985-10.377,13.519-32.223,10.377-48.335-3-15.374-7.4-36.291-9.264-40.677a4.709,4.709,0,0,1,6.47-2.2" transform="translate(-62.167 -69.236)" fill="#e26e3b"/>
          <path id="Trazado_1013057" data-name="Trazado 1013057" d="M229.058,340.783c.018.116-.645.326-1.861.605-.608.143-1.356.3-2.229.444s-1.867.329-2.973.47c-2.208.318-4.853.591-7.8.792-1.474.081-3.02.181-4.627.205-1.606.052-3.269.043-4.973.034-1.7-.043-3.366-.085-4.969-.186-1.6-.074-3.148-.222-4.618-.347-2.938-.292-5.572-.646-7.769-1.032-1.1-.175-2.089-.385-2.957-.561s-1.611-.352-2.214-.513c-1.208-.317-1.864-.546-1.842-.663s.718-.107,1.956.007l5.22.533c2.2.23,4.821.457,7.734.66,1.457.081,2.986.195,4.573.245,1.587.078,3.23.107,4.913.15,1.684.009,3.327.03,4.915,0,1.589,0,3.119-.068,4.578-.1,2.917-.114,5.545-.259,7.75-.421l5.234-.372c1.24-.076,1.937-.063,1.955.053" transform="translate(-68.219 -128.676)" fill="#3a201e"/>
          <path id="Trazado_1013058" data-name="Trazado 1013058" d="M241.355,182.913a13.4,13.4,0,0,1,.667,3.529c.292,2.287.648,5.606.863,9.733.1,2.065.163,4.331.079,6.782a28.485,28.485,0,0,1-.359,3.826c-.068.334-.1.664-.2,1.008s-.213.691-.32,1.04a5.491,5.491,0,0,1-1.426,1.864,20.114,20.114,0,0,1-3.607,2.431c-1.277.7-2.608,1.335-3.978,1.942-2.742,1.206-5.64,2.281-8.647,3.261s-5.984,1.805-8.9,2.462q-2.187.5-4.341.815a22.356,22.356,0,0,1-4.328.281,5.028,5.028,0,0,1-.564-.06,3.141,3.141,0,0,1-.582-.112,2.945,2.945,0,0,1-1.171-.561A6.837,6.837,0,0,1,203.1,219.5a24.011,24.011,0,0,1-1.806-3.419c-.989-2.252-1.737-4.393-2.382-6.358-1.276-3.933-2.113-7.164-2.651-9.407a13.806,13.806,0,0,1-.636-3.533,15.318,15.318,0,0,1,1.276,3.351c.732,2.179,1.744,5.348,3.153,9.192.709,1.918,1.516,4.011,2.528,6.164a23.381,23.381,0,0,0,1.761,3.165,5.474,5.474,0,0,0,1.134,1.275,1.37,1.37,0,0,0,.623.277,1.941,1.941,0,0,0,.41.07,3.735,3.735,0,0,0,.447.04,21.492,21.492,0,0,0,3.989-.323c1.378-.219,2.787-.5,4.212-.834,2.853-.664,5.782-1.494,8.745-2.454s5.82-2.013,8.5-3.17c1.341-.582,2.639-1.188,3.869-1.842a19.03,19.03,0,0,0,3.342-2.176,4.082,4.082,0,0,0,1.045-1.27q.137-.424.273-.843c.094-.278.127-.6.195-.9a28.2,28.2,0,0,0,.421-3.623c.143-2.381.15-4.624.128-6.67-.059-4.1-.23-7.417-.318-9.714a15.884,15.884,0,0,1,0-3.585" transform="translate(-74.036 -69.236)" fill="#3a201e"/>
          <path id="Trazado_1013059" data-name="Trazado 1013059" d="M182.59,202.84a12.673,12.673,0,0,1,1.172,3.247c.627,2.125,1.448,5.224,2.373,9.071s1.966,8.442,3.053,13.558c.53,2.562,1.085,5.25,1.661,8.036q.208,1.048.418,2.114l.347,2.2a22.42,22.42,0,0,1,.25,2.245c.051.756.153,1.515.162,2.281a69.059,69.059,0,0,1-1.625,17.086,82.55,82.55,0,0,1-4.1,13.368,53.924,53.924,0,0,1-4.193,8.439,20.848,20.848,0,0,1-1.449,2.115c-.357.465-.568.692-.617.659-.25-.158,2.5-4.229,5.13-11.645a93.463,93.463,0,0,0,3.685-13.255,72.179,72.179,0,0,0,1.459-16.694c-.008-.743-.108-1.473-.155-2.2a21.508,21.508,0,0,0-.234-2.163l-.322-2.117q-.2-1.064-.4-2.11l-1.561-8.044c-1.011-5.117-1.923-9.727-2.69-13.612-.772-3.848-1.4-6.974-1.84-9.172a14.3,14.3,0,0,1-.526-3.406" transform="translate(-68.145 -76.778)" fill="#3a201e"/>
          <path id="Trazado_1013060" data-name="Trazado 1013060" d="M310.969,362.8c-.118-.006-.222-.5-.31-1.39-.054-.444-.06-.983-.141-1.609s-.143-1.339-.213-2.124c-.353-3.142-.986-7.465-1.951-12.207-1.9-9.489-3.991-17.088-3.533-17.234.438-.149,3.284,7.287,5.209,16.9a70.774,70.774,0,0,1,1.481,12.465c-.006.808-.019,1.538-.038,2.178a16.134,16.134,0,0,1-.149,1.64c-.117.9-.237,1.386-.355,1.38" transform="translate(-115.356 -124.243)" fill="#3a201e"/>
          <path id="Trazado_1013061" data-name="Trazado 1013061" d="M252.5,337.623s-2.79-15.942-2.163-17.075,22.792-5.986,23.439-4.53,2.951,17.91,2.951,17.91S267,339.3,252.5,337.623" transform="translate(-94.723 -119.516)" fill="#755dfe"/>
          <path id="Trazado_1013062" data-name="Trazado 1013062" d="M286.159,345.542l-1.443.267a.994.994,0,0,1-1.158-.8l-.027-.147a.994.994,0,0,1,.8-1.158l1.443-.268a1,1,0,0,1,1.159.8l.027.148a.994.994,0,0,1-.8,1.159" transform="translate(-107.315 -129.991)" fill="#aac9fe"/>
          <path id="Trazado_1013063" data-name="Trazado 1013063" d="M278.5,346.96l-1.443.267a.994.994,0,0,1-1.158-.8l-.027-.148a.994.994,0,0,1,.8-1.158l1.443-.267a.994.994,0,0,1,1.159.8l.027.148a.993.993,0,0,1-.8,1.158" transform="translate(-104.417 -130.528)" fill="#aac9fe"/>
          <path id="Trazado_1013064" data-name="Trazado 1013064" d="M261.529,350.105l-1.443.267a.994.994,0,0,1-1.158-.8l-.027-.148a.994.994,0,0,1,.8-1.158l1.443-.267a.994.994,0,0,1,1.159.8l.027.148a.994.994,0,0,1-.8,1.158" transform="translate(-97.992 -131.719)" fill="#aac9fe"/>
          <path id="Trazado_1013065" data-name="Trazado 1013065" d="M269.313,348.671l-1.443.267a.994.994,0,0,1-1.158-.8l-.027-.147a1,1,0,0,1,.8-1.159l1.442-.267a1,1,0,0,1,1.159.8l.027.148a.994.994,0,0,1-.8,1.159" transform="translate(-100.938 -131.176)" fill="#aac9fe"/>
          <path id="Trazado_1013066" data-name="Trazado 1013066" d="M255.921,331.811c1.563.447,17.47-2.994,18.367-3.846s.048-7.084-.981-7.56-17.97,3.052-18.592,3.887.4,7.289,1.205,7.519" transform="translate(-96.342 -121.263)" fill="#3a201e"/>
          <path id="Trazado_1013067" data-name="Trazado 1013067" d="M260.442,344.234,259,344.5a.994.994,0,0,1-1.158-.8l-.027-.148a.994.994,0,0,1,.8-1.158l1.442-.268a1,1,0,0,1,1.159.8l.027.148a.994.994,0,0,1-.8,1.158" transform="translate(-97.58 -129.496)" fill="#de3300"/>
          <path id="Trazado_1013068" data-name="Trazado 1013068" d="M268.083,342.818l-1.443.267a.994.994,0,0,1-1.158-.8l-.027-.148a.994.994,0,0,1,.8-1.158l1.443-.268a1,1,0,0,1,1.159.8l.027.148a.994.994,0,0,1-.8,1.158" transform="translate(-100.473 -128.96)" fill="#aac9fe"/>
          <path id="Trazado_1013069" data-name="Trazado 1013069" d="M276.727,340.968l-1.443.267a.994.994,0,0,1-1.158-.8l-.027-.148a.994.994,0,0,1,.8-1.158l1.443-.268a.994.994,0,0,1,1.158.8l.027.148a.994.994,0,0,1-.8,1.158" transform="translate(-103.745 -128.26)" fill="#aac9fe"/>
          <path id="Trazado_1013070" data-name="Trazado 1013070" d="M284.954,339.034l-1.443.267a.994.994,0,0,1-1.158-.8l-.027-.148a.994.994,0,0,1,.8-1.158l1.443-.268a1,1,0,0,1,1.159.8l.027.148a.994.994,0,0,1-.8,1.158" transform="translate(-106.859 -127.528)" fill="#aac9fe"/>
          <path id="Trazado_1013071" data-name="Trazado 1013071" d="M251.994,368.017c-.057.016-.168-.2-.33-.634a17.239,17.239,0,0,1-.562-1.93c-.193-.849-.4-1.893-.6-3.112s-.387-2.61-.556-4.151-.331-3.231-.472-5.048q-.093-1.364-.193-2.817-.041-.727-.084-1.475-.023-.505-.046-1.017l-.027-.725-.014-.366-.006-.184a1.071,1.071,0,0,1,.175.007l2.327.166,1.562.066c1.053.029,2.129.045,3.224.014a61.465,61.465,0,0,0,6.756-.521c.694-.092,1.381-.189,2.06-.311.681-.106,1.351-.238,2.015-.372s1.317-.286,1.965-.429,1.28-.326,1.911-.484,1.242-.358,1.852-.531l1.789-.574,1.721-.613,2.438-.96q.243.857.484,1.7l.059.208.033.131.061.245.121.488c.152.649.3,1.285.408,1.91.239,1.249.4,2.446.505,3.576s.158,2.194.171,3.177-.012,1.889-.068,2.7-.122,1.543-.209,2.172-.178,1.163-.26,1.594c-.181.861-.329,1.31-.408,1.3s-.093-.485-.064-1.352q.017-.669.04-1.592c.016-.625.019-1.341,0-2.14s-.05-1.682-.117-2.638-.17-1.985-.33-3.075-.357-2.243-.63-3.441c-.128-.6-.288-1.209-.454-1.831L278,344.3l-.088-.25-.09.048-.8.335-1.755.666-1.828.622c-.625.188-1.254.392-1.9.573s-1.295.365-1.96.518-1.334.328-2.019.458-1.371.282-2.071.392c-.7.127-1.4.229-2.119.323a57.772,57.772,0,0,1-6.953.5c-1.126.021-2.233-.01-3.316-.057-.541-.032-1.076-.054-1.6-.1l-.7-.063-.061-.012c-.017,0-.008.031-.014.049l0,.017v.009l0,.085.01.372q.023.743.045,1.466.055,1.444.106,2.8c.079,1.808.162,3.491.261,5.027s.2,2.921.3,4.138.219,2.26.309,3.115q.153,1.233.242,1.963c.052.452.052.7,0,.715" transform="translate(-94.29 -129.459)" fill="#3a201e"/>
          <path id="Trazado_1013072" data-name="Trazado 1013072" d="M250,237.208s1.1,18.662,3.208,18.8,23.715-2.946,24.7-4.069-1.543-19.5-2.806-20.066-23.816,4.069-25.1,5.332" transform="translate(-94.629 -87.751)" fill="#f3f2f0"/>
          <path id="Trazado_1013073" data-name="Trazado 1013073" d="M283.974,240.595c.08.465-1.94,1.2-4.511,1.638s-4.719.418-4.8-.047,1.94-1.2,4.511-1.638,4.72-.419,4.8.047" transform="translate(-103.965 -90.932)" fill="#3a201e"/>
          <path id="Trazado_1013074" data-name="Trazado 1013074" d="M285.815,247.418c.088.464-2.219,1.291-5.153,1.849s-5.384.633-5.472.17,2.219-1.292,5.153-1.85,5.384-.633,5.472-.17" transform="translate(-104.164 -93.537)" fill="#3a201e"/>
          <path id="Trazado_1013075" data-name="Trazado 1013075" d="M286.615,254.7c.12.456-2.087,1.364-4.93,2.027s-5.223.825-5.317.363,2.112-1.37,4.93-2.027,5.2-.82,5.317-.363" transform="translate(-104.609 -96.312)" fill="#3a201e"/>
          <path id="Trazado_1013076" data-name="Trazado 1013076" d="M268.045,229.384l.6,5.747,3.514-.6-.855-5.662Z" transform="translate(-101.46 -86.631)" fill="#3a201e"/>
          <path id="Trazado_1013077" data-name="Trazado 1013077" d="M266.856,253.744c-.237.754-8.69,2.065-9.211,1.685s-2.063-10.55-1.688-11.21,8.463-2.351,9.133-1.8,2,10.568,1.766,11.323" transform="translate(-96.862 -91.72)" fill="#3a201e"/>
          <path id="Trazado_1013078" data-name="Trazado 1013078" d="M146.169,256s-1.571,22.873,8.151,32.3c0,0,24.517-14.052,29.73-15.245s23.292-6.741,28.085-9.442c2.922-1.647,4.012-6,3.815-6.619,1.7-2.734,1.408-5.833.981-5.742,2.89-3.576.989-6.563-1.328-6.54,6.637-2.493,11.31-6.66,9.711-8.486-1.693-1.933-10.091,1.705-13.569,2.1-2,.226-8.105.832-8.105.832s3.626-10.12-.378-11.094c-1.475-.359-3.03,4.858-8.658,9.512-5.394,4.46-9.783,11.52-11.418,11.972-3.139.866-37.015,6.455-37.015,6.455" transform="translate(-55.292 -86.318)" fill="#b16656"/>
          <path id="Trazado_1013079" data-name="Trazado 1013079" d="M153.019,254.815a4.125,4.125,0,0,1,1.16-.331c.771-.173,1.915-.408,3.4-.7,2.978-.584,7.33-1.392,12.811-2.4l9.034-1.68c1.634-.31,3.335-.633,5.071-1,.213-.047.441-.09.645-.142l.312-.077.157-.038c.052-.013.055-.032.086-.045a3.914,3.914,0,0,0,.855-.7c.613-.629,1.208-1.353,1.813-2.079a68.566,68.566,0,0,1,8.249-8.986,28.248,28.248,0,0,0,4.365-4.566c.662-.856,1.283-1.758,1.92-2.691.321-.467.643-.942,1.025-1.427a5.015,5.015,0,0,1,.706-.741,2.732,2.732,0,0,1,.261-.189,2.073,2.073,0,0,1,.372-.174,1.525,1.525,0,0,1,.815-.045c.234.075.351.108.516.177a4.3,4.3,0,0,1,.446.251,3.006,3.006,0,0,1,.715.709,4.349,4.349,0,0,1,.682,1.672,10.884,10.884,0,0,1,.052,3.221,24.606,24.606,0,0,1-.556,3.078q-.184.759-.4,1.512l-.083.292.03,0,1.212-.127,2.555-.266,2.579-.268a10.92,10.92,0,0,0,1.222-.175c.4-.079.817-.18,1.232-.287,1.662-.432,3.354-.968,5.1-1.429.873-.232,1.76-.449,2.681-.616a9.139,9.139,0,0,1,2.979-.14,2.812,2.812,0,0,1,1.177.455,2.113,2.113,0,0,1,.829,1.213,2.465,2.465,0,0,1-.069,1.334,4.217,4.217,0,0,1-.477,1,11.325,11.325,0,0,1-2.679,2.72,24.446,24.446,0,0,1-3.046,1.957c-.524.285-1.052.559-1.587.811l-.676.313-.009,0s-.018,0-.012,0a.02.02,0,0,1,.011,0l0,0c-.019-.019.023.019.063.052l.111.1a1.693,1.693,0,0,1,.2.212,3.753,3.753,0,0,1,.622.966,4.292,4.292,0,0,1,.329,2.166,6.069,6.069,0,0,1-.59,1.966c-.137.306-.324.572-.485.858-.076.114-.12.163-.17.236l.006.01a1.852,1.852,0,0,1,.164.318,3.644,3.644,0,0,1,.283.94,5.223,5.223,0,0,1-.019,1.835,5.739,5.739,0,0,1-.6,1.7,5.581,5.581,0,0,1-.505.754,4.246,4.246,0,0,1-.3.342c-.044.046-.122.132-.139.145l-.065.055s-.01.005-.009.009v.014a7.874,7.874,0,0,1-.454,1.934,11.313,11.313,0,0,1-.769,1.727,8.622,8.622,0,0,1-2.459,2.9,20.113,20.113,0,0,1-3.2,1.6c-1.053.438-2.1.84-3.138,1.229-4.157,1.523-8.168,2.806-11.975,3.964s-7.42,2.185-10.806,2.984a34.9,34.9,0,0,0-4.552,1.792c-1.448.658-2.822,1.321-4.125,1.961-5.207,2.572-9.3,4.736-12.12,6.187-1.41.728-2.5,1.285-3.242,1.648a4.406,4.406,0,0,1-1.164.492,4.4,4.4,0,0,1,1.029-.733c.7-.442,1.747-1.076,3.117-1.879,2.743-1.6,6.759-3.905,11.925-6.614,1.293-.674,2.659-1.372,4.11-2.068a34.746,34.746,0,0,1,4.721-1.954c3.359-.855,6.919-1.935,10.7-3.13s7.755-2.526,11.85-4.068c1.02-.393,2.046-.8,3.066-1.232a19.52,19.52,0,0,0,2.887-1.452,7.086,7.086,0,0,0,1.971-2.384,9.846,9.846,0,0,0,.654-1.5,8.886,8.886,0,0,0,.379-1.519l.139-.458q.074-.227.147-.456l.224-.193a1.193,1.193,0,0,0,.126-.129,2.48,2.48,0,0,0,.2-.231,3.91,3.91,0,0,0,.345-.52,4.107,4.107,0,0,0,.415-1.2,3.6,3.6,0,0,0,.012-1.254,2.065,2.065,0,0,0-.167-.549,1.2,1.2,0,0,0-.225-.363l-.518-.61.86-1.181c.122-.226.278-.442.378-.674a4.448,4.448,0,0,0,.424-1.405,2.623,2.623,0,0,0-.2-1.315,2.068,2.068,0,0,0-.343-.531.642.642,0,0,0-.106-.114l-.168-.143c-.195-.2-.708-.252-1.094-.366l-.126-.633c-.014-.063-.041-.192-.042-.187a.225.225,0,0,1-.014-.062l-.03-.18-.1-.582c.561-.209,1.078-.441,1.62-.662l.512-.231.381-.179c.507-.24,1-.5,1.5-.77a22.908,22.908,0,0,0,2.831-1.824,9.825,9.825,0,0,0,2.268-2.275,1.562,1.562,0,0,0,.331-1.017.414.414,0,0,0-.157-.226,1.188,1.188,0,0,0-.484-.166,7.719,7.719,0,0,0-2.385.139c-.844.152-1.694.357-2.542.583-1.7.448-3.381.978-5.112,1.426-.434.111-.871.217-1.325.305a12.378,12.378,0,0,1-1.363.193l-2.587.262-6.389.646.522-1.484c.083-.246.161-.485.23-.714l.147-.483c.14-.478.27-.958.388-1.438a23.089,23.089,0,0,0,.534-2.869,9.4,9.4,0,0,0-.015-2.723,2.793,2.793,0,0,0-.4-1.048,1.413,1.413,0,0,0-.317-.323c-.059-.043-.129-.068-.19-.109-.058-.026-.177-.057-.173-.062a.038.038,0,0,0-.026,0,.054.054,0,0,0-.015.007c-.018.018-.05.029-.086.063a3.528,3.528,0,0,0-.47.5c-.326.406-.645.866-.966,1.326-.641.924-1.295,1.858-1.992,2.746a29.558,29.558,0,0,1-4.633,4.761,68.845,68.845,0,0,0-8.17,8.709c-.626.729-1.234,1.452-1.922,2.139a4.591,4.591,0,0,1-1.305.976,1.776,1.776,0,0,1-.226.089l-.174.04-.347.08c-.234.056-.449.091-.674.138-1.772.346-3.475.638-5.12.92-3.287.559-6.323,1.05-9.077,1.488-5.508.875-9.887,1.529-12.891,1.95-1.5.209-2.662.36-3.447.446a4.1,4.1,0,0,1-1.2.063" transform="translate(-57.92 -85.834)" fill="#3a201e"/>
          <path id="Trazado_1013080" data-name="Trazado 1013080" d="M260.842,251.493c.174.157-.051.668-.627,1.143a8.241,8.241,0,0,1-2.435,1.329,9.408,9.408,0,0,1-2.671.6c-.713.041-1.216-.107-1.234-.343s.318-.495.919-.823a19.553,19.553,0,0,1,2.4-1.034c.948-.351,1.818-.618,2.448-.787s1.026-.245,1.2-.08" transform="translate(-96.096 -95.161)" fill="#3a201e"/>
          <path id="Trazado_1013081" data-name="Trazado 1013081" d="M142.363,269.841s-.019,28.105,9.924,36.909l6.861-2.9s-10.425-13.679-8.392-35.492Z" transform="translate(-53.887 -101.577)" fill="#f9c98a"/>
          <path id="Trazado_1013082" data-name="Trazado 1013082" d="M142.272,269.569a19.447,19.447,0,0,1,3.488-.869l4.171-.849.971-.185c.246-.121.13.167.146.309q-.013.256-.025.516L150.955,270c-.022.924-.127,1.9-.076,2.924a57.318,57.318,0,0,0,1.731,14.247,52.449,52.449,0,0,0,2.662,8.049c.559,1.36,1.211,2.709,1.91,4.054.366.663.723,1.341,1.129,1.989.2.329.4.657.613.981l.159.244.1.142.173.244.7.971-.751.318-4.705,1.987-2.487,1.048c-.048.039-.081,0-.114-.036l-.1-.1-.2-.2-.323-.314-.425-.417c-.277-.282-.518-.592-.775-.884A26.623,26.623,0,0,1,146,297.483a55.5,55.5,0,0,1-2.1-7.621c-.5-2.419-.84-4.693-1.091-6.773a96.536,96.536,0,0,1-.686-9.887,16.006,16.006,0,0,1,.143-3.633,25.672,25.672,0,0,1,.355,3.61c.19,2.321.479,5.679,1.085,9.789.306,2.054.694,4.3,1.232,6.67a57.252,57.252,0,0,0,2.168,7.436,35.973,35.973,0,0,0,1.68,3.8,21.7,21.7,0,0,0,2.346,3.579c.24.268.463.556.718.812l.39.377.086.084s0,0,0,0l1.763-.75,3.977-1.687-.231-.355c-.219-.329-.426-.669-.63-1.01-.42-.674-.784-1.37-1.16-2.055-.715-1.385-1.377-2.771-1.941-4.168a51.712,51.712,0,0,1-2.649-8.253,54.972,54.972,0,0,1-1.489-14.538c-.021-1.042.114-2.028.168-2.963q.049-.614.1-1.193l.014-.135c0-.039.033-.119-.03-.09l-.262.034-4.117.619a19.448,19.448,0,0,1-3.574.381" transform="translate(-53.796 -101.306)" fill="#3a201e"/>
        </g>
      </g>
    </g>
  </g>
</svg>
