<svg xmlns="http://www.w3.org/2000/svg" xmlns:xlink="http://www.w3.org/1999/xlink" width="295" height="218.083" viewBox="0 0 295 218.083">
  <defs>
    <clipPath id="clip-path">
      <rect id="Rectángulo_413492" data-name="Rectángulo 413492" width="295" height="218.083" transform="translate(915 8568)" fill="#fff" stroke="#707070" stroke-width="1"/>
    </clipPath>
    <clipPath id="clip-path-2">
      <rect id="Rectángulo_413513" data-name="Rectángulo 413513" width="311.756" height="310.741" fill="none"/>
    </clipPath>
    <clipPath id="clip-path-3">
      <rect id="Rectángulo_413491" data-name="Rectángulo 413491" width="212.505" height="204.312" fill="none"/>
    </clipPath>
  </defs>
  <g id="Enmascarar_grupo_1098748" data-name="Enmascarar grupo 1098748" transform="translate(-915 -8568)" clip-path="url(#clip-path)">
    <g id="Grupo_1168761" data-name="Grupo 1168761" transform="translate(524.701 -365.879)">
      <g id="Grupo_1168760" data-name="Grupo 1168760">
        <g id="Grupo_1168759" data-name="Grupo 1168759" transform="translate(390.299 8919.509)" clip-path="url(#clip-path-2)">
          <path id="Trazado_1013083" data-name="Trazado 1013083" d="M120.276,72.986c-15.84,9.177-27.5,26.334-27.56,44.64-.026,8.37,2.241,16.934-.052,24.984-2.046,7.185-7.42,12.851-12.422,18.4a314.077,314.077,0,0,0-26.056,33.118C48.823,201.976,43.65,210.6,43.462,220.1c-.241,12.231,8.314,23.523,19.3,28.908s23.909,5.593,35.9,3.187S122,244.949,133.4,240.519c14.164-5.5,28.742-10.445,43.882-11.734a94,94,0,0,1,37.677,4.5c9.755,3.264,40.821,4.349,58.237-9.142s21.783-51.863,3.333-68.921a133.251,133.251,0,0,0-36.36-24.125c-13.482-6.02-27.747-14.422-31.989-28.565-2.047-6.824-1.466-14.28-3.931-20.964-10.154-27.525-64.99-19.585-83.975-8.586" transform="translate(-16.449 -23.783)" fill="#f9eae1"/>
          <path id="Trazado_1013084" data-name="Trazado 1013084" d="M337.591,57.846a21.189,21.189,0,0,0-3.724,9.885c-.785,5.38-.351,11.1,2.25,15.87,4.815,8.837,15.631,12.4,25.6,13.761,5.409.738,11.614.8,15.489-3.042a12.926,12.926,0,0,0,3.437-8.269c.458-6.182-2.228-12.267-6.1-17.105S365.66,60.326,360.709,56.6c-6.744-5.082-17.338-6.329-23.118,1.25" transform="translate(-126.241 -19.862)" fill="#f9eae1"/>
          <path id="Trazado_1013085" data-name="Trazado 1013085" d="M434.788,151.824A6.792,6.792,0,1,1,428,145.032a6.792,6.792,0,0,1,6.792,6.792" transform="translate(-159.434 -54.897)" fill="#f9eee8"/>
          <path id="Trazado_1013086" data-name="Trazado 1013086" d="M93.2,414.868a6.792,6.792,0,1,1-6.792-6.792,6.792,6.792,0,0,1,6.792,6.792" transform="translate(-30.136 -154.464)" fill="#f9eee8"/>
          <path id="Trazado_1013087" data-name="Trazado 1013087" d="M60.346,170.946a6.792,6.792,0,1,1-6.792-6.791,6.792,6.792,0,0,1,6.792,6.791" transform="translate(-17.701 -62.136)" fill="#f9eee8"/>
          <path id="Trazado_1013088" data-name="Trazado 1013088" d="M317.484,359.49a6.792,6.792,0,1,1-6.792-6.792,6.792,6.792,0,0,1,6.792,6.792" transform="translate(-115.032 -133.503)" fill="#f9eee8"/>
          <path id="Trazado_1013089" data-name="Trazado 1013089" d="M177.82,155.908a6.792,6.792,0,1,1-6.792-6.791,6.792,6.792,0,0,1,6.792,6.791" transform="translate(-62.167 -56.443)" fill="#f3cd69"/>
          <path id="Trazado_1013091" data-name="Trazado 1013091" d="M343.25,301.7a4.55,4.55,0,1,1-4.55-4.55,4.55,4.55,0,0,1,4.55,4.55" transform="translate(-126.482 -112.476)" fill="#f3cd69"/>
          <path id="Trazado_1013092" data-name="Trazado 1013092" d="M63.926,287.032a4.55,4.55,0,1,1-4.55-4.551,4.55,4.55,0,0,1,4.55,4.551" transform="translate(-20.752 -106.924)" fill="#f3cd69"/>
          <path id="Trazado_1013093" data-name="Trazado 1013093" d="M145.472,125.572l-6.893-1.111,2.178,6.481Z" transform="translate(-52.455 -47.111)" fill="#ecae5f"/>
          <path id="Trazado_1013094" data-name="Trazado 1013094" d="M457.318,75.668l-6.893-1.111,2.178,6.481Z" transform="translate(-170.494 -28.221)" fill="#ecae5f"/>
          <path id="Trazado_1013095" data-name="Trazado 1013095" d="M134.854,388.115,127.961,387l2.178,6.48Z" transform="translate(-48.435 -146.488)" fill="#ecae5f"/>
          <path id="Trazado_1013096" data-name="Trazado 1013096" d="M361.4,399.332l-6.121,3.36,5.7,3.774Z" transform="translate(-134.48 -151.154)" fill="#ecae5f"/>
          <path id="Trazado_1013097" data-name="Trazado 1013097" d="M119.532,50.4c.047-.024.244.21.512.72a9.39,9.39,0,0,1,.837,2.383,11.205,11.205,0,0,1-1.962,8.995,11.81,11.81,0,0,1-5.2,3.993,8.882,8.882,0,0,1-3.727.631,5.926,5.926,0,0,1-3.822-1.644,4.888,4.888,0,0,1-1.225-1.919,4.338,4.338,0,0,1-.105-2.385,5.436,5.436,0,0,1,2.972-3.575,5.314,5.314,0,0,1,2.413-.484,6.47,6.47,0,0,1,2.37.572,7.447,7.447,0,0,1,3.474,3.327A9.861,9.861,0,0,1,117.1,65.6a13.633,13.633,0,0,1-.784,4.4,14.227,14.227,0,0,1-4.894,6.722A12.589,12.589,0,0,1,104.31,79.2a12.037,12.037,0,0,1-6.366-1.549,10.77,10.77,0,0,1-3.838-3.78,10.568,10.568,0,0,1-1.414-3.779c-.339-2.209.114-3.407.186-3.381.157.011-.051,1.219.465,3.242a10.732,10.732,0,0,0,1.566,3.4,10.072,10.072,0,0,0,3.62,3.242,10.984,10.984,0,0,0,5.717,1.191,11.27,11.27,0,0,0,6.23-2.319,12.8,12.8,0,0,0,4.26-6.011A12.119,12.119,0,0,0,115.4,65.6a8.238,8.238,0,0,0-.85-3.79,5.785,5.785,0,0,0-2.666-2.57,4.043,4.043,0,0,0-3.37-.116,3.817,3.817,0,0,0-2.09,2.439,2.921,2.921,0,0,0,.853,2.8,4.408,4.408,0,0,0,2.823,1.263,7.546,7.546,0,0,0,3.123-.461,10.755,10.755,0,0,0,4.734-3.4,10.49,10.49,0,0,0,2.093-4.4,11.524,11.524,0,0,0,.172-3.748c-.26-2.076-.833-3.15-.692-3.212" transform="translate(-56.755 -15.078)" fill="#6d3a75"/>
          <path id="Trazado_1013098" data-name="Trazado 1013098" d="M413.661,63.94c.044.024-.025.295-.3.743a5.039,5.039,0,0,1-1.649,1.606,7.691,7.691,0,0,1-3.485,1.123,9.024,9.024,0,0,1-4.782-.914,10.76,10.76,0,0,1-4.413-3.939,9.533,9.533,0,0,1-1.4-6.7,10.013,10.013,0,0,1,4.04-6.417,8.507,8.507,0,0,1,1.822-.974,5.3,5.3,0,0,1,2.187-.434,3.3,3.3,0,0,1,1.258.278,2.486,2.486,0,0,1,1.093.949,2.726,2.726,0,0,1,.394,1.343,4.164,4.164,0,0,1-.147,1.222,7.979,7.979,0,0,1-2.285,3.658,9.515,9.515,0,0,1-3.552,2.07,12.217,12.217,0,0,1-7.522-.218,10.312,10.312,0,0,1-5.584-3.945,6.439,6.439,0,0,1-.97-3.086,9.255,9.255,0,0,1,.326-2.869,16.427,16.427,0,0,1,4.212-7.164c1.411-1.373,2.386-1.876,2.442-1.8a24.89,24.89,0,0,1-1.95,2.246,18.638,18.638,0,0,0-1.917,2.833,16.266,16.266,0,0,0-1.612,4.166,6.206,6.206,0,0,0,.659,4.9,9.033,9.033,0,0,0,4.877,3.215,10.787,10.787,0,0,0,6.521.124,7.917,7.917,0,0,0,2.909-1.721,6.368,6.368,0,0,0,1.793-2.849,1.635,1.635,0,0,0-.044-1.231,1.1,1.1,0,0,0-.961-.429,3.66,3.66,0,0,0-1.517.31,6.927,6.927,0,0,0-1.479.776,8.511,8.511,0,0,0-3.444,5.321,8.162,8.162,0,0,0,1.059,5.685,9.709,9.709,0,0,0,3.751,3.6,8.256,8.256,0,0,0,4.184,1.038,7.5,7.5,0,0,0,3.208-.747,5.9,5.9,0,0,0,1.707-1.24c.344-.352.514-.564.573-.529" transform="translate(-146.998 -14.559)" fill="#6d3a75"/>
          <path id="Trazado_1013099" data-name="Trazado 1013099" d="M423.769,407.99c.007-.144,1.106-.077,2.973-.6a13.908,13.908,0,0,0,3.225-1.315,10.657,10.657,0,0,0,3.383-2.955,9.179,9.179,0,0,0,1.7-5.042c-.009-.481.032-1.009-.011-1.472a4.282,4.282,0,0,0-.356-1.349,5.469,5.469,0,0,0-1.891-2.266,5.388,5.388,0,0,0-2.9-1.009,5.689,5.689,0,0,0-3.111.842,6.809,6.809,0,0,0-2.4,2.422,6.031,6.031,0,0,0-.652,1.589,1.22,1.22,0,0,0,.125,1.116,1.119,1.119,0,0,0,1.043.2,2.115,2.115,0,0,0,1.109-.828,8.5,8.5,0,0,0,.878-1.534,16.2,16.2,0,0,0,.7-1.691,8.786,8.786,0,0,0,.1-6.536,5.957,5.957,0,0,0-4.519-3.37,6.135,6.135,0,0,0-4.83,1.459,6.729,6.729,0,0,0-2.041,3.808,9.9,9.9,0,0,0,0,3.43c.345,1.891.916,2.853.784,2.922-.066.051-.856-.8-1.433-2.775a9.729,9.729,0,0,1-.3-3.72,7.6,7.6,0,0,1,2.162-4.549,7.269,7.269,0,0,1,11.6,2.121,8.309,8.309,0,0,1,.791,3.842,13.011,13.011,0,0,1-.729,3.909,17.35,17.35,0,0,1-.753,1.868,9.783,9.783,0,0,1-1.058,1.851,3.767,3.767,0,0,1-2.043,1.449,3.1,3.1,0,0,1-1.367.038,2.475,2.475,0,0,1-1.327-.71,2.406,2.406,0,0,1-.637-1.385,3.772,3.772,0,0,1,.086-1.289,7.631,7.631,0,0,1,.846-2.067,8.416,8.416,0,0,1,3.017-3.009,7.282,7.282,0,0,1,4.026-1.029,7.151,7.151,0,0,1,6.113,4.324,5.7,5.7,0,0,1,.428,1.809c.038.606-.023,1.137-.032,1.692a10.271,10.271,0,0,1-2.149,5.674,11.218,11.218,0,0,1-3.9,3.073,12.865,12.865,0,0,1-3.526,1.118c-2.007.344-3.135.042-3.115-.047" transform="translate(-157.19 -144.872)" fill="#6d3a75"/>
          <path id="Trazado_1013100" data-name="Trazado 1013100" d="M80.153,213.447c.03-.088,1.264.393,2.7,2.157a19.334,19.334,0,0,1,2.171,3.445,12.848,12.848,0,0,1,.92,2.422,8.244,8.244,0,0,1,.247,2.973,8.4,8.4,0,0,1-3.5,5.779,10.481,10.481,0,0,1-7.539,1.71,12.706,12.706,0,0,1-4.043-1.242,8.72,8.72,0,0,1-3.418-2.977,6.527,6.527,0,0,1-.971-4.728,5.025,5.025,0,0,1,1.144-2.345,5.122,5.122,0,0,1,2.192-1.482,4.29,4.29,0,0,1,2.725-.037,5.921,5.921,0,0,1,2.168,1.339,11.494,11.494,0,0,1,2.627,3.794,11.775,11.775,0,0,1,.37,8.522,11.99,11.99,0,0,1-4.77,6.054,11.1,11.1,0,0,1-6.461,1.777,9.932,9.932,0,0,1-5.253-1.674,9.36,9.36,0,0,1-2.827-3.019,7.712,7.712,0,0,1-.93-2.418c-.111-.581-.085-.9-.036-.9a23.407,23.407,0,0,0,1.526,2.962,9.28,9.28,0,0,0,2.782,2.574,9.161,9.161,0,0,0,4.761,1.271,10,10,0,0,0,5.654-1.75,10.663,10.663,0,0,0,4.063-5.381,10.273,10.273,0,0,0-.413-7.345,9.935,9.935,0,0,0-2.247-3.216,4.26,4.26,0,0,0-1.538-.963,2.568,2.568,0,0,0-1.65.031,3.436,3.436,0,0,0-1.457.986,3.323,3.323,0,0,0-.764,1.56,4.884,4.884,0,0,0,.718,3.493,7.14,7.14,0,0,0,2.755,2.426,11.254,11.254,0,0,0,3.511,1.132,9.107,9.107,0,0,0,6.5-1.308,7.206,7.206,0,0,0,3.118-4.77,9.2,9.2,0,0,0-.836-4.847A22.194,22.194,0,0,0,82.315,216a27.113,27.113,0,0,0-2.162-2.552" transform="translate(-21.812 -80.79)" fill="#6d3a75"/>
        </g>
      </g>
      <g id="Grupo_1168736" data-name="Grupo 1168736" transform="translate(439.924 8937.731)">
        <g id="Grupo_1168735" data-name="Grupo 1168735" clip-path="url(#clip-path-3)">
          <path id="Trazado_1012753" data-name="Trazado 1012753" d="M103.711,173.447a12.726,12.726,0,1,1-12.726-12.726,12.726,12.726,0,0,1,12.726,12.726" transform="translate(-43.452 -89.237)" fill="#a0ba6d"/>
          <path id="Trazado_1012754" data-name="Trazado 1012754" d="M115.842,162.164c7.159,3.6,7.671,13.066,6.512,16.663a14.7,14.7,0,0,1-5.094,6.941c4.324-2.033,7.548-6.072,7.548-11.166a13.389,13.389,0,0,0-8.966-12.438" transform="translate(-64.319 -90.038)" fill="#72955c"/>
          <path id="Trazado_1012755" data-name="Trazado 1012755" d="M99.031,185.759a11.041,11.041,0,0,1-3.341-.5,7.566,7.566,0,0,1-2.551-1.291l.961-2.157a7.764,7.764,0,0,0,2.22,1.174,8.04,8.04,0,0,0,2.711.47,5.845,5.845,0,0,0,1.9-.256A2.276,2.276,0,0,0,102,182.5a1.574,1.574,0,0,0,.342-.993,1.371,1.371,0,0,0-.491-1.1,3.637,3.637,0,0,0-1.27-.662q-.78-.245-1.729-.448t-1.9-.5a8.519,8.519,0,0,1-1.74-.758,3.413,3.413,0,0,1-1.75-3.191,4.046,4.046,0,0,1,.651-2.231A4.488,4.488,0,0,1,96.1,171a8.177,8.177,0,0,1,3.384-.608,10.662,10.662,0,0,1,2.669.342,7.72,7.72,0,0,1,2.306.982l-.875,2.156a8.241,8.241,0,0,0-2.071-.886,7.86,7.86,0,0,0-2.049-.288,5.277,5.277,0,0,0-1.857.278,2.248,2.248,0,0,0-1.057.737,1.7,1.7,0,0,0-.331,1.014,1.382,1.382,0,0,0,.48,1.1,3.392,3.392,0,0,0,1.26.651q.779.236,1.74.448t1.9.5a8.241,8.241,0,0,1,1.729.747,3.66,3.66,0,0,1,1.27,1.217,3.552,3.552,0,0,1,.48,1.932,4.008,4.008,0,0,1-.651,2.21,4.473,4.473,0,0,1-2,1.623,8.255,8.255,0,0,1-3.394.608m-.661-17.72h1.751v20.068H98.37Z" transform="translate(-51.714 -93.3)" fill="#fffaf3"/>
          <path id="Trazado_1012756" data-name="Trazado 1012756" d="M102.927,171.843c-.042,0-.116-.261-.217-.76l-.081-.418-.138-.495-.157-.576c-.057-.2-.148-.413-.227-.639a12.319,12.319,0,0,0-1.606-3.062,12.631,12.631,0,0,0-3.242-3.168,12.058,12.058,0,0,0-5.068-1.974,12.186,12.186,0,0,0-6.161.651,12.776,12.776,0,0,0-1.522.684c-.246.136-.482.294-.726.44-.121.076-.245.146-.363.227l-.343.26a11.639,11.639,0,0,0-2.489,2.469,13.428,13.428,0,0,0-.988,1.51,13.09,13.09,0,0,0-.739,1.677,11.458,11.458,0,0,0-.712,3.662,12.1,12.1,0,0,0,1.9,7.022,12.242,12.242,0,0,0,5.114,4.488c.124.06.246.124.37.179l.383.143c.255.092.506.2.761.279a13.05,13.05,0,0,0,1.545.365l.769.125.766.046a11.942,11.942,0,0,0,1.5-.005,12.632,12.632,0,0,0,10.525-7.414c.778-1.751.926-2.838,1.041-2.815.041.007.03.277-.033.793a5.964,5.964,0,0,1-.184.944c-.047.185-.089.386-.152.6l-.232.662a12.074,12.074,0,0,1-1.741,3.174,12.916,12.916,0,0,1-3.575,3.231,13.258,13.258,0,0,1-5.566,1.838,12.76,12.76,0,0,1-1.623.04l-.833-.036-.838-.12a13.936,13.936,0,0,1-1.69-.371c-.279-.087-.555-.194-.835-.292l-.421-.151c-.137-.059-.271-.126-.408-.189a13.222,13.222,0,0,1-7.76-12.58,12.55,12.55,0,0,1,.79-4.031,14.22,14.22,0,0,1,.822-1.842,14.46,14.46,0,0,1,1.095-1.655,12.664,12.664,0,0,1,2.753-2.685l.379-.28c.13-.087.267-.163.4-.245.269-.158.53-.326.8-.472a13.775,13.775,0,0,1,1.675-.728,13.056,13.056,0,0,1,6.712-.6,12.729,12.729,0,0,1,5.4,2.267,12.894,12.894,0,0,1,3.314,3.495,11.8,11.8,0,0,1,1.492,3.3c.064.24.14.462.181.678l.105.607.084.519q.013.238.024.436c.024.52.016.79-.027.793" transform="translate(-42.704 -88.592)" fill="#72955c"/>
          <path id="Trazado_1012757" data-name="Trazado 1012757" d="M103.711,100.79A12.726,12.726,0,1,1,90.985,88.064a12.726,12.726,0,0,1,12.726,12.726" transform="translate(-43.452 -48.896)" fill="#a0ba6d"/>
          <path id="Trazado_1012758" data-name="Trazado 1012758" d="M99.146,112.728a11.055,11.055,0,0,1-3.341-.5,7.583,7.583,0,0,1-2.551-1.292l.961-2.156a7.786,7.786,0,0,0,2.22,1.174,8.051,8.051,0,0,0,2.711.469,5.836,5.836,0,0,0,1.9-.256,2.276,2.276,0,0,0,1.067-.694,1.571,1.571,0,0,0,.342-.993,1.371,1.371,0,0,0-.491-1.1,3.632,3.632,0,0,0-1.27-.662q-.78-.245-1.73-.448t-1.9-.5a8.555,8.555,0,0,1-1.74-.758,3.412,3.412,0,0,1-1.75-3.191,4.041,4.041,0,0,1,.651-2.231,4.482,4.482,0,0,1,1.985-1.623,8.18,8.18,0,0,1,3.384-.608,10.636,10.636,0,0,1,2.669.342,7.728,7.728,0,0,1,2.306.982l-.875,2.156a8.236,8.236,0,0,0-2.071-.886,7.839,7.839,0,0,0-2.049-.288,5.267,5.267,0,0,0-1.857.278,2.248,2.248,0,0,0-1.057.736,1.7,1.7,0,0,0-.331,1.015,1.385,1.385,0,0,0,.48,1.1,3.4,3.4,0,0,0,1.26.651q.779.235,1.74.448t1.9.5a8.259,8.259,0,0,1,1.729.748,3.657,3.657,0,0,1,1.27,1.216,3.55,3.55,0,0,1,.48,1.933,4.008,4.008,0,0,1-.651,2.209,4.47,4.47,0,0,1-2,1.623,8.247,8.247,0,0,1-3.394.609m-.661-17.72h1.751v20.068H98.485Z" transform="translate(-51.777 -52.751)" fill="#fffaf3"/>
          <path id="Trazado_1012759" data-name="Trazado 1012759" d="M115.842,89.507c7.159,3.6,7.671,13.066,6.512,16.663a14.7,14.7,0,0,1-5.094,6.941,12.726,12.726,0,0,0-1.418-23.6" transform="translate(-64.319 -49.697)" fill="#72955c"/>
          <path id="Trazado_1012760" data-name="Trazado 1012760" d="M102.948,100.133c-.042,0-.1-.279-.164-.8-.016-.133-.032-.278-.052-.439s-.068-.334-.1-.522a9.737,9.737,0,0,0-.309-1.285,12.351,12.351,0,0,0-1.463-3.274,12.518,12.518,0,0,0-3.2-3.448,12.272,12.272,0,0,0-11.58-1.651,12.778,12.778,0,0,0-1.582.7c-.256.141-.5.3-.754.456a6.034,6.034,0,0,0-.731.508,11.089,11.089,0,0,0-2.557,2.586A11.779,11.779,0,0,0,78.73,96.31a12.054,12.054,0,0,0,0,7.647,11.766,11.766,0,0,0,1.726,3.343,11.1,11.1,0,0,0,2.557,2.586,6.091,6.091,0,0,0,.73.508c.254.152.5.315.754.456a12.777,12.777,0,0,0,1.581.7A12.272,12.272,0,0,0,97.66,109.9a12.518,12.518,0,0,0,3.2-3.448,12.352,12.352,0,0,0,1.463-3.274,9.738,9.738,0,0,0,.309-1.285c.036-.188.079-.362.1-.522s.036-.306.052-.439c.066-.524.121-.8.164-.8s.069.279.082.819q0,.206.006.453c-.006.166-.03.346-.048.543a8.584,8.584,0,0,1-.207,1.35,11.9,11.9,0,0,1-1.337,3.508,12.824,12.824,0,0,1-3.259,3.786,12.967,12.967,0,0,1-5.52,2.539,12.232,12.232,0,0,1-1.672.212c-.286.013-.573.043-.863.041l-.878-.036a5.933,5.933,0,0,1-.886-.089c-.3-.046-.6-.079-.894-.138a14.386,14.386,0,0,1-3.515-1.257c-.282-.151-.553-.326-.832-.49a6.975,6.975,0,0,1-.806-.549,12.166,12.166,0,0,1-2.827-2.815,12.858,12.858,0,0,1-1.915-3.668,13.156,13.156,0,0,1,0-8.415,12.866,12.866,0,0,1,1.915-3.669,12.175,12.175,0,0,1,2.827-2.815,6.958,6.958,0,0,1,.806-.549c.279-.164.55-.339.832-.49a14.363,14.363,0,0,1,3.515-1.258c.3-.059.6-.092.894-.138a5.934,5.934,0,0,1,.886-.089l.877-.036c.29,0,.578.028.863.041a12.216,12.216,0,0,1,1.672.212,12.957,12.957,0,0,1,5.52,2.539,12.826,12.826,0,0,1,3.259,3.786,11.9,11.9,0,0,1,1.337,3.508,8.584,8.584,0,0,1,.207,1.35c.018.2.042.377.048.544s0,.316-.006.453c-.013.54-.04.819-.082.819" transform="translate(-42.689 -48.239)" fill="#72955c"/>
          <path id="Trazado_1012761" data-name="Trazado 1012761" d="M103.711,28.132A12.726,12.726,0,1,1,90.985,15.406a12.726,12.726,0,0,1,12.726,12.726" transform="translate(-43.452 -8.554)" fill="#a0ba6d"/>
          <path id="Trazado_1012762" data-name="Trazado 1012762" d="M99.145,40.07a11.055,11.055,0,0,1-3.341-.5,7.578,7.578,0,0,1-2.551-1.292l.961-2.156a7.771,7.771,0,0,0,2.221,1.174,8.047,8.047,0,0,0,2.711.47,5.835,5.835,0,0,0,1.9-.256,2.271,2.271,0,0,0,1.067-.694,1.57,1.57,0,0,0,.342-.993,1.371,1.371,0,0,0-.491-1.1,3.624,3.624,0,0,0-1.27-.662q-.78-.246-1.73-.448t-1.9-.5a8.571,8.571,0,0,1-1.74-.758,3.413,3.413,0,0,1-1.75-3.192,4.042,4.042,0,0,1,.651-2.231,4.483,4.483,0,0,1,1.985-1.623,8.176,8.176,0,0,1,3.383-.608,10.637,10.637,0,0,1,2.669.342,7.721,7.721,0,0,1,2.306.982l-.875,2.156a8.255,8.255,0,0,0-2.071-.886A7.863,7.863,0,0,0,99.572,27a5.267,5.267,0,0,0-1.857.278,2.248,2.248,0,0,0-1.057.737,1.7,1.7,0,0,0-.331,1.014,1.385,1.385,0,0,0,.48,1.1,3.392,3.392,0,0,0,1.26.651q.779.235,1.74.448t1.9.5a8.257,8.257,0,0,1,1.729.747,3.658,3.658,0,0,1,1.27,1.217,3.547,3.547,0,0,1,.48,1.932,4.01,4.01,0,0,1-.651,2.21,4.476,4.476,0,0,1-2,1.623,8.255,8.255,0,0,1-3.394.608m-.661-17.72h1.751V42.418H98.484Z" transform="translate(-51.777 -12.409)" fill="#fffaf3"/>
          <path id="Trazado_1012763" data-name="Trazado 1012763" d="M115.842,16.756c7.159,3.6,7.671,13.066,6.512,16.663a14.7,14.7,0,0,1-5.094,6.941,12.726,12.726,0,0,0-1.418-23.6" transform="translate(-64.319 -9.303)" fill="#72955c"/>
          <path id="Trazado_1012764" data-name="Trazado 1012764" d="M102.948,27.476c-.042,0-.1-.279-.164-.8-.016-.132-.032-.278-.052-.438s-.068-.334-.1-.522a9.72,9.72,0,0,0-.309-1.285,12.351,12.351,0,0,0-1.463-3.274,12.525,12.525,0,0,0-3.2-3.448,12.275,12.275,0,0,0-11.58-1.651,12.783,12.783,0,0,0-1.582.705c-.256.14-.5.3-.754.456a6.032,6.032,0,0,0-.731.508,11.076,11.076,0,0,0-2.557,2.586,11.776,11.776,0,0,0-1.726,3.343,13.049,13.049,0,0,0-.622,3.824,13.043,13.043,0,0,0,.623,3.823,11.778,11.778,0,0,0,1.726,3.343,13.83,13.83,0,0,0,1.184,1.41,13.877,13.877,0,0,0,1.373,1.176,6.094,6.094,0,0,0,.73.508c.254.152.5.315.754.456a12.771,12.771,0,0,0,1.581.7,12.27,12.27,0,0,0,11.58-1.651,12.517,12.517,0,0,0,3.2-3.448,12.351,12.351,0,0,0,1.463-3.274,9.748,9.748,0,0,0,.309-1.284c.036-.189.079-.362.1-.523s.036-.306.052-.439c.066-.524.121-.8.164-.8s.069.28.082.819c0,.137,0,.288.006.453s-.03.346-.048.544a8.584,8.584,0,0,1-.207,1.35,11.9,11.9,0,0,1-1.337,3.508,12.824,12.824,0,0,1-3.259,3.786,12.967,12.967,0,0,1-5.52,2.539,12.164,12.164,0,0,1-1.672.213c-.286.013-.573.042-.863.041l-.878-.037a5.932,5.932,0,0,1-.886-.089c-.3-.046-.6-.079-.894-.138a14.385,14.385,0,0,1-3.515-1.257c-.282-.151-.553-.326-.832-.49a6.923,6.923,0,0,1-.806-.549A14.721,14.721,0,0,1,80.8,36.891a14.95,14.95,0,0,1-1.312-1.538,12.858,12.858,0,0,1-1.915-3.668,14.117,14.117,0,0,1-.691-4.208,14.128,14.128,0,0,1,.691-4.208A12.861,12.861,0,0,1,79.491,19.6a12.189,12.189,0,0,1,2.827-2.816,7.01,7.01,0,0,1,.806-.548c.279-.164.55-.339.832-.49a14.362,14.362,0,0,1,3.515-1.258c.3-.059.6-.092.894-.138a5.874,5.874,0,0,1,.886-.089l.877-.036c.29,0,.578.028.863.04a12.284,12.284,0,0,1,1.672.213,13.012,13.012,0,0,1,8.779,6.325,11.907,11.907,0,0,1,1.337,3.508,8.589,8.589,0,0,1,.207,1.35c.018.2.042.377.048.544s0,.316-.006.453c-.013.54-.04.818-.082.818" transform="translate(-42.689 -7.898)" fill="#72955c"/>
          <line id="Línea_767" data-name="Línea 767" x2="6.753" y2="7.083" transform="translate(25.518 36.055)" fill="none" stroke="#753d32" stroke-miterlimit="10" stroke-width="2"/>
          <line id="Línea_768" data-name="Línea 768" x2="3.829" y2="5.907" transform="translate(28.895 33.903)" fill="none" stroke="#753d32" stroke-miterlimit="10" stroke-width="2"/>
          <line id="Línea_769" data-name="Línea 769" y1="4.784" x2="7.254" transform="translate(169.957 96.708)" fill="none" stroke="#753d32" stroke-miterlimit="10" stroke-width="2"/>
          <line id="Línea_770" data-name="Línea 770" y1="5.346" x2="12.862" transform="translate(170.78 98.819)" fill="none" stroke="#753d32" stroke-miterlimit="10" stroke-width="2"/>
          <path id="Trazado_1012765" data-name="Trazado 1012765" d="M119.449,211.853c-8.023,2.214-27.419,40.624-27.419,40.624s12.6,10.1,28.9,11.652c0,0,5.786-54.281-1.48-52.276" transform="translate(-51.098 -117.597)" fill="#a9e0ff"/>
          <path id="Trazado_1012766" data-name="Trazado 1012766" d="M77.494,252.429c-8.888,1-19.642-4.979-21.163-5.778l-4.088-2.418a23.222,23.222,0,0,1-4.94-13.219c-.024-3.855,1.957-9.434,2.921-13.607.97-4.214,2.171-9.355,2.171-9.355-1.934-1.459-7.424,1.905-10.129,9.677-.889,2.552-8.877-4.373-6.793-19.988.561-4.206-3.617-5.315-6.151-4.965-4.6.638-18.009,11.245-14.389,29.536,1.39,7.027,10.538,17.749,11.037,19.39,1.207,3.96,2.384,52.171,21.334,59.5,18.136,7.017,27.113-18.907,30.96-35.863-.27-4.087-.529-8.453-.771-12.913" transform="translate(-7.952 -107.002)" fill="#844c3d"/>
          <path id="Trazado_1012767" data-name="Trazado 1012767" d="M43.508,298.24a11.225,11.225,0,0,1-1.622-1.089,23.9,23.9,0,0,1-3.871-4.055,39.448,39.448,0,0,1-4.442-7.674,72.32,72.32,0,0,1-3.813-11.1A131.236,131.236,0,0,1,26.97,260.4c-.764-5.046-1.3-10.482-1.855-16.168-.075-.708-.153-1.421-.253-2.12l-.083-.516c-.034-.161-.07-.313-.107-.465-.073-.125-.1-.224-.193-.375l-.273-.442c-.787-1.193-1.678-2.393-2.541-3.617-1.738-2.448-3.483-4.988-5.046-7.723a38.112,38.112,0,0,1-2.116-4.3,18.407,18.407,0,0,1-.754-2.351l-.152-.608-.1-.6q-.1-.6-.2-1.208a35.966,35.966,0,0,1-.318-4.938,30.132,30.132,0,0,1,.511-5A26.013,26.013,0,0,1,23.757,193.65a16.929,16.929,0,0,1,2.057-1.25,9.517,9.517,0,0,1,2.293-.869,7.008,7.008,0,0,1,2.485-.045,5.874,5.874,0,0,1,2.327.881,5,5,0,0,1,1.67,1.856,5.075,5.075,0,0,1,.261.561l.195.58c.058.194.085.392.128.588a3.531,3.531,0,0,1,.087.588,7.668,7.668,0,0,1,.044,1.166l-.015.576-.031.537c-.049.715-.068,1.425-.085,2.132a34.627,34.627,0,0,0,.776,8.174,21.38,21.38,0,0,0,1.2,3.712,11.62,11.62,0,0,0,1.945,3.141,3.906,3.906,0,0,0,1.31.993.643.643,0,0,0,.5.041.286.286,0,0,0,.116-.126,3.332,3.332,0,0,0,.157-.367,22.852,22.852,0,0,1,1.647-3.3,17.694,17.694,0,0,1,4.571-5.213,6.091,6.091,0,0,1,3.119-1.259,3.176,3.176,0,0,1,.873.076,1.653,1.653,0,0,1,.242.07.827.827,0,0,1,.285.128,1.154,1.154,0,0,1,.3.527,1.23,1.23,0,0,1,.037.3,1.9,1.9,0,0,1-.023.244,2.644,2.644,0,0,1-.1.421c-.085.259-.183.491-.28.72-.4.9-.764,1.748-1.048,2.607a20.045,20.045,0,0,0-.672,2.532c-.168.831-.27,1.639-.351,2.432a20.147,20.147,0,0,1-.4,2.306c-.332,1.451-.734,2.74-1.084,3.9a50.35,50.35,0,0,0-1.454,5.359c-.234,1.245-.236,1.916-.292,1.916a1.524,1.524,0,0,1-.045-.5,4.833,4.833,0,0,1,.015-.613c.011-.244.033-.527.079-.844a40.04,40.04,0,0,1,1.24-5.453c.314-1.168.68-2.462.972-3.891a20.009,20.009,0,0,0,.335-2.241,25.152,25.152,0,0,1,.31-2.5,20.472,20.472,0,0,1,.648-2.633c.278-.891.652-1.791,1.026-2.68.09-.221.179-.444.245-.656a1.925,1.925,0,0,0,.072-.3,1.06,1.06,0,0,0,.011-.128.371.371,0,0,0-.009-.071.227.227,0,0,0-.064-.11.82.82,0,0,0-.177-.05,2.359,2.359,0,0,0-.651-.046,5.315,5.315,0,0,0-2.655,1.14A16.928,16.928,0,0,0,43.64,213.7a22,22,0,0,0-1.546,3.177,4.091,4.091,0,0,1-.206.481,1.269,1.269,0,0,1-.519.527,1.586,1.586,0,0,1-1.308.019,4.809,4.809,0,0,1-1.707-1.237,12.584,12.584,0,0,1-2.16-3.408A22.361,22.361,0,0,1,34.9,209.37a35.5,35.5,0,0,1-.855-8.434c.014-.725.029-1.453.076-2.184l.029-.549.01-.515a6.506,6.506,0,0,0-.043-1.022,4.34,4.34,0,0,0-1.841-3.324,5.411,5.411,0,0,0-3.92-.652,8.394,8.394,0,0,0-2,.772,15.69,15.69,0,0,0-1.91,1.169,24.893,24.893,0,0,0-9.757,15.564,29.088,29.088,0,0,0-.491,4.786,34.9,34.9,0,0,0,.3,4.752l.192,1.168.1.581.139.555a17.328,17.328,0,0,0,.7,2.188,37.127,37.127,0,0,0,2.035,4.154c1.522,2.678,3.237,5.2,4.957,7.64.858,1.228,1.731,2.413,2.553,3.671l.3.494a5.306,5.306,0,0,1,.29.6c.052.2.1.4.138.6l.087.558c.1.736.176,1.455.248,2.17.522,5.711,1.021,11.108,1.738,16.137A135.408,135.408,0,0,0,30.6,274.11a74.334,74.334,0,0,0,3.6,11.038,40.9,40.9,0,0,0,4.2,7.665,26.9,26.9,0,0,0,3.648,4.149,12,12,0,0,1,1.462,1.277" transform="translate(-7.205 -106.269)" fill="#3a201e"/>
          <path id="Trazado_1012768" data-name="Trazado 1012768" d="M23.815,211.441c.041.008.056.177.047.492q-.023.51-.061,1.364-.011.447-.024.982c0,.359,0,.749.009,1.168.016.837.072,1.789.163,2.84.185,2.1.576,4.589,1.071,7.356.269,1.391.383,2.873,1.23,3.879a7.926,7.926,0,0,0,1.636,1.413c.642.447,1.3.9,1.976,1.345,1.345.894,2.679,1.735,3.984,2.521s2.58,1.5,3.812,2.208a26.87,26.87,0,0,1,3.4,2.246,12.537,12.537,0,0,1,1.389,1.276,6.719,6.719,0,0,1,1,1.473,9.636,9.636,0,0,1,.944,2.828,7.51,7.51,0,0,1,.066,2.244,4.266,4.266,0,0,1-.4,1.365c-.171.282-.277.412-.314.391s-.005-.189.083-.479a6.113,6.113,0,0,0,.154-1.313,8.185,8.185,0,0,0-.26-2.069,9.658,9.658,0,0,0-1.031-2.549,6.059,6.059,0,0,0-.931-1.242,12.355,12.355,0,0,0-1.324-1.123,28.313,28.313,0,0,0-3.33-2.066c-1.228-.668-2.545-1.376-3.871-2.161s-2.686-1.627-4.048-2.531c-.682-.453-1.347-.908-2-1.369a8.908,8.908,0,0,1-1.869-1.657A5.528,5.528,0,0,1,24.282,228c-.173-.77-.259-1.476-.374-2.172a65.429,65.429,0,0,1-.822-7.485c-.038-1.076-.033-2.052.016-2.907.022-.427.062-.825.093-1.189s.086-.7.131-.995a11.5,11.5,0,0,1,.292-1.357c.089-.306.155-.461.2-.453" transform="translate(-12.804 -117.398)" fill="#3a201e"/>
          <path id="Trazado_1012769" data-name="Trazado 1012769" d="M37.128,219.668c-.161.035-.58-1.127-1.05-3.058-.232-.966-.482-2.123-.7-3.419-.118-.646-.214-1.33-.319-2.038-.089-.711-.191-1.445-.257-2.2s-.126-1.5-.169-2.215-.063-1.41-.053-2.073q.005-.5.01-.967l.047-.914c.026-.588.106-1.138.158-1.637.089-.5.153-.949.254-1.339s.188-.724.293-.99c.217-.53.373-.8.453-.775s.079.345.011.883c-.031.27-.041.607-.081.988s-.036.826-.068,1.307c0,.488-.024,1.017-.005,1.59q.007.431.015.887t.041.942c.021.644.079,1.321.122,2.022s.113,1.428.191,2.171.157,1.47.228,2.172.166,1.376.245,2.022c.163,1.276.311,2.433.438,3.428.25,1.955.369,3.178.2,3.215" transform="translate(-19.198 -109.957)" fill="#3a201e"/>
          <path id="Trazado_1012770" data-name="Trazado 1012770" d="M49.88,192.715c.037.02.042.107.02.25s-.069.342-.117.6c-.031.126-.048.274-.074.432s-.054.329-.073.516c-.049.37-.089.8-.119,1.271a66.536,66.536,0,0,0,.077,7.473c.176,2.911.335,5.544.455,7.528.048.968.07,1.754.052,2.3s-.081.862-.166.862-.177-.283-.308-.814-.281-1.3-.439-2.259a71.1,71.1,0,0,1-.816-7.555,34.745,34.745,0,0,1,.286-7.646,11,11,0,0,1,.309-1.308,4.888,4.888,0,0,1,.179-.525,3.764,3.764,0,0,1,.185-.431,2.389,2.389,0,0,1,.345-.555c.1-.116.166-.165.2-.145" transform="translate(-26.815 -106.998)" fill="#3a201e"/>
          <path id="Trazado_1012771" data-name="Trazado 1012771" d="M45.305,237.355c.047.166-.58.493-1.6.942L39.718,240l-3.965,1.751c-1.025.44-1.692.674-1.781.527s.427-.64,1.364-1.285a25.31,25.31,0,0,1,8.1-3.519c1.111-.245,1.825-.279,1.87-.12" transform="translate(-18.857 -131.733)" fill="#3a201e"/>
          <path id="Trazado_1012772" data-name="Trazado 1012772" d="M116.843,332.47c.017,0,.054.035.069.143a.179.179,0,0,1-.024.112.163.163,0,0,1-.161.072.647.647,0,0,1-.259-.11,6.72,6.72,0,0,1-1.149-1.088c-.9-1.011-2.1-2.554-3.507-4.5-2.815-3.9-6.487-9.437-10.327-15.685s-7.108-12.035-9.237-16.358a45.421,45.421,0,0,1-2.273-5.245c-.447-1.285-.486-2.068-.4-2.075s.267.694.838,1.9c.556,1.208,1.442,2.927,2.6,5.021,2.309,4.189,5.685,9.885,9.512,16.118s7.377,11.825,10,15.835c1.311,2,2.39,3.613,3.165,4.7a11.958,11.958,0,0,0,.93,1.193.751.751,0,0,0,.142.121c0-.007.019.05,0,.017.007.008.016-.019.024-.03.025-.074.032-.129.056-.13" transform="translate(-49.716 -159.757)" fill="#3a201e"/>
          <path id="Trazado_1012773" data-name="Trazado 1012773" d="M215.661,202.644s27.448,14.6,29.944,16.884S219.4,296.2,215.861,297.452s-54.317-1.416-57.957-4.165c-2.372-1.791-6.253-85.872-4.68-88.772,1.474-2.718,27.974-6.543,36.883-5.852s25.554,3.982,25.554,3.982" transform="translate(-84.872 -110.258)" fill="#5ca4e0"/>
          <path id="Trazado_1012774" data-name="Trazado 1012774" d="M232.642,161.961c0,.309.469,14.944.469,14.944L227.7,178.33s-1.3,17.106,11.509,19.786c8.6,1.8,22.259-13.3,22.259-13.3l-5.559-3.258,2.059-16.4Z" transform="translate(-126.405 -89.926)" fill="#844c3d"/>
          <path id="Trazado_1012775" data-name="Trazado 1012775" d="M242.468,171.321a18.709,18.709,0,0,0,5.354,2.1,26.918,26.918,0,0,0,11.643.15,29.353,29.353,0,0,0,3.8-1.1l.918-7.313-25.326-3.192c0,.136.1,3.306.21,6.821,1.143.831,2.177,1.8,3.4,2.54" transform="translate(-132.621 -89.926)" fill="#3a201e"/>
          <path id="Trazado_1012776" data-name="Trazado 1012776" d="M219.465,194.877c.188.045-1.6,11.735,3.609,20.445,0,0-4.858-1.144-9.994,3.95-1.211.25-8.184-14.177-9.994-22.395,0,0,8.112-3.965,16.38-2" transform="translate(-112.759 -107.898)" fill="#a9e0ff"/>
          <path id="Trazado_1012777" data-name="Trazado 1012777" d="M267.4,202.773s-2.528,9.185-19.37,17.236c0,0,4.662,1.88,9,8.206,0,0,15.749-4.052,22.76-17.533,0,0-6.244-7.728-12.389-7.908" transform="translate(-137.711 -112.586)" fill="#a9e0ff"/>
          <path id="Trazado_1012778" data-name="Trazado 1012778" d="M218.735,194.493c-.01.041-.273.032-.759-.022l-.9-.109-1.227-.085a27.035,27.035,0,0,0-7.735.773,30.289,30.289,0,0,0-5.087,1.7c-.043.029-.1.027-.071.078l.128.492q.191.725.415,1.468.449,1.485,1,3.034c.737,2.063,1.591,4.2,2.544,6.393s2,4.433,3.185,6.657c.328.612.664,1.215,1.015,1.793.175.289.355.573.54.842.093.133.187.266.282.388.079.108.241.287.2.24l0,0h0l0,0h0l.047-.044c.263-.231.5-.485.783-.693l.818-.641.858-.574a12.959,12.959,0,0,1,3.7-1.594,11.472,11.472,0,0,1,1.941-.3c.161-.014.325-.011.486-.017.139-.008.4,0,.347,0a.673.673,0,0,1,.086.015c.009-.012-.022-.057-.034-.092l-.235-.47c-.086-.174-.167-.349-.247-.524-.32-.7-.595-1.4-.835-2.087a28.645,28.645,0,0,1-1.07-4.008,36.734,36.734,0,0,1-.642-6.72,37.874,37.874,0,0,1,.217-4.362c.056-.5.112-.887.156-1.144a1.66,1.66,0,0,1,.086-.388c.214,0,.006,2.179.2,5.873a40.729,40.729,0,0,0,.879,6.553,29.071,29.071,0,0,0,1.132,3.849c.246.658.523,1.322.84,1.983l.245.5.288.548c.35.633.763,1.31,1.114,1.93l-1.01-.2a8.673,8.673,0,0,0-.937-.128c-.353-.008-.4-.012-.563,0-.143.008-.286.007-.43.021a10.452,10.452,0,0,0-1.733.293,11.95,11.95,0,0,0-3.35,1.484l-.786.534-.754.6c-.258.193-.481.434-.725.651l-.329.3a.844.844,0,0,1-.194.12c-.064.027-.133.089-.194.088a1.054,1.054,0,0,1-.837-.323,3.588,3.588,0,0,1-.479-.525c-.117-.148-.221-.3-.325-.444-.206-.3-.4-.6-.581-.9-.369-.606-.714-1.224-1.05-1.85-1.209-2.271-2.256-4.541-3.207-6.76s-1.789-4.393-2.507-6.5q-.538-1.578-.972-3.1-.215-.763-.4-1.513l-.088-.374-.132-.6-.07-.332c0-.023-.034-.066,0-.072l.077-.036.154-.071c.2-.091.414-.193.608-.272a29.486,29.486,0,0,1,5.3-1.61,24.262,24.262,0,0,1,7.965-.4l1.238.2c.355.076.651.162.89.226.478.133.721.223.712.264" transform="translate(-112.03 -107.514)" fill="#3a201e"/>
          <path id="Trazado_1012779" data-name="Trazado 1012779" d="M265.719,202.718c0-.042.293-.054.859-.035a5.379,5.379,0,0,1,1.034.144,8.863,8.863,0,0,1,1.376.379,21.638,21.638,0,0,1,7.482,5.012c.347.328.688.678,1.035,1.039l.517.557.129.143.2.232.219.258.108.131-.082.147-.908,1.6a13.836,13.836,0,0,1-.864,1.419,28.814,28.814,0,0,1-2.1,2.794l-.585.693a7.55,7.55,0,0,1-.617.682l-1.321,1.333a40.183,40.183,0,0,1-6.29,4.827,44.7,44.7,0,0,1-7.627,3.76c-.635.236-1.269.462-1.911.664l-.241.076-.289.085-.471.132-.236.064c-.047.032-.057-.04-.085-.062l-.072-.1-.757-1.049a28.56,28.56,0,0,0-2.422-2.883,24.816,24.816,0,0,0-2.706-2.427c-.469-.364-.953-.7-1.441-1.011l-.368-.228-.193-.111c-.124-.071-.248-.142-.379-.209-.263-.135-.552-.26-.827-.389l-.884-.381,3.582-1.8c.419-.2.817-.427,1.212-.65l1.172-.659c.784-.417,1.5-.9,2.219-1.345.354-.228.714-.439,1.051-.672l.991-.7a39.4,39.4,0,0,0,6.273-5.425,25.762,25.762,0,0,0,3.263-4.321c.645-1.088.889-1.729.951-1.71a4.519,4.519,0,0,1-.621,1.884,21.7,21.7,0,0,1-3.068,4.609,37.072,37.072,0,0,1-6.233,5.741l-1,.736c-.339.244-.7.467-1.057.706-.721.468-1.446.974-2.235,1.411l-1.183.69c-.4.234-.8.471-1.223.68l-1.269.655-.16.083-.016.009-.02.013c-.01.008-.034.017-.031.024l.057.024.013.006.195.11.4.239c.523.328,1.039.677,1.537,1.057a25.58,25.58,0,0,1,2.858,2.527,29.081,29.081,0,0,1,2.539,3l.388.538.416-.128c.616-.194,1.231-.415,1.846-.643a44.972,44.972,0,0,0,7.431-3.636,40.36,40.36,0,0,0,6.145-4.626l1.3-1.273a7.128,7.128,0,0,0,.606-.651l.576-.662a28.8,28.8,0,0,0,2.074-2.663,13.291,13.291,0,0,0,.863-1.353l.4-.671.2-.33.077-.123c.033-.027-.02-.047-.027-.072l-.014-.018-.033-.04-.121-.141-.487-.553c-.327-.36-.651-.71-.979-1.04a23.021,23.021,0,0,0-7.046-5.182,26.536,26.536,0,0,0-3.1-.932" transform="translate(-136.034 -112.531)" fill="#3a201e"/>
          <rect id="Rectángulo_413490" data-name="Rectángulo 413490" width="6.549" height="23.889" transform="translate(109.616 131.42) rotate(-75.971)" fill="#a9e0ff"/>
          <path id="Trazado_1012780" data-name="Trazado 1012780" d="M253.7,286.609q-.284.592-.573,1.17t-.588,1.159l-1.028-.241q.007-.366.011-.73t-.012-.733q-.009-.278-.024-.55t-.034-.549q.109.041.22.079c.074.025.149.047.223.066l.048.012a.216.216,0,0,0,.05.005q.027.436.067.859t.085.857q.153-.206.3-.416l.3-.42c.007-.009.023-.034.049-.072l.09-.136.109-.164.1-.159.109-.17a.367.367,0,0,0,.067.024l.069.017.178.048.176.044" transform="translate(-139.61 -158.871)" fill="#5e6dc4"/>
          <path id="Trazado_1012781" data-name="Trazado 1012781" d="M257.982,288.437l-.631-.122q-.313-.059-.634-.113l-.069.251.838.159q-.011.113-.03.221c-.012.072-.028.144-.045.217-.008.03-.016.06-.025.092s-.017.063-.025.093l-.8-.054-.051.409c.165.03.33.055.5.075s.334.043.5.069c-.012.11-.023.221-.036.333a2.61,2.61,0,0,0-.015.331q-.454-.117-.9-.224t-.9-.221q.1-.372.209-.741t.2-.746l.015-.061c.036-.145.07-.29.1-.435s.064-.292.1-.44q.252.067.5.128l.508.125q.2.049.387.105l.384.115Z" transform="translate(-141.943 -159.645)" fill="#5e6dc4"/>
          <path id="Trazado_1012782" data-name="Trazado 1012782" d="M263.336,290.624q-.071.282-.141.555t-.144.554q-.2-.06-.391-.108-.1-.024-.2-.039c-.067-.01-.133-.017-.2-.023q-.055-.3-.112-.588t-.112-.588c-.027-.145-.051-.29-.072-.433s-.041-.288-.061-.434q-.137.425-.274.845t-.265.847l-.687-.193q.137-.618.277-1.23t.261-1.234l1.254.307q.023.176.04.352t.025.355c.007.181.02.362.041.543s.041.363.061.544q.1-.4.185-.8t.183-.805l.628.239q-.071.336-.144.668t-.156.665" transform="translate(-144.738 -160.215)" fill="#5e6dc4"/>
          <path id="Trazado_1012783" data-name="Trazado 1012783" d="M270,292.32l-.049.2a.853.853,0,0,1-.071.19,1.094,1.094,0,0,1-.066.114.442.442,0,0,1-.072.084.413.413,0,0,1-.09.062.616.616,0,0,1-.121.046.426.426,0,0,1-.111.008l-.219,0q-.131,0-.291-.008t-.326-.016l-.329-.017-.3-.016-.225-.012c-.061,0-.1-.006-.122-.008q.092-.6.188-1.188t.218-1.184l.53.155q.263.077.53.165l.2.068c.089.029.181.062.277.1s.184.074.266.113a.555.555,0,0,1,.172.111.539.539,0,0,1,.094.18.741.741,0,0,1,.037.2.647.647,0,0,1-.013.134q-.016.09-.037.19c-.015.067-.029.131-.043.193s-.026.109-.034.141m-.808-.158c.006-.024.012-.048.017-.076s.01-.052.014-.076.008-.072.009-.112a.789.789,0,0,0,0-.117.575.575,0,0,0-.023-.111.348.348,0,0,0-.05-.1.247.247,0,0,0-.1-.058c-.056-.022-.117-.043-.185-.063s-.131-.038-.19-.055l-.115-.03-.131-.033q-.037.256-.077.5t-.086.5c.041.008.1.017.179.026s.159.016.242.02a1.639,1.639,0,0,0,.236-.006.363.363,0,0,0,.169-.051.168.168,0,0,0,.064-.071.537.537,0,0,0,.032-.093" transform="translate(-148.587 -161.333)" fill="#5e6dc4"/>
          <path id="Trazado_1012784" data-name="Trazado 1012784" d="M275.5,292.82l-.631-.122q-.314-.059-.633-.113l-.07.251.838.159c-.008.075-.017.149-.03.221s-.027.144-.045.217c-.008.03-.016.06-.025.092s-.017.062-.025.092l-.8-.054-.051.409c.164.03.33.055.5.075s.334.043.5.069c-.012.11-.024.221-.036.333a2.678,2.678,0,0,0-.015.331q-.454-.117-.9-.224t-.9-.221q.1-.372.209-.741t.2-.746l.015-.061q.055-.218.1-.435c.032-.145.064-.292.1-.44q.252.067.5.128l.508.125q.195.049.387.1l.384.115Z" transform="translate(-151.672 -162.078)" fill="#5e6dc4"/>
          <path id="Trazado_1012785" data-name="Trazado 1012785" d="M280.805,295.023c-.016.062-.032.127-.049.2a.842.842,0,0,1-.071.189,1.066,1.066,0,0,1-.066.115.443.443,0,0,1-.072.084.412.412,0,0,1-.09.062.622.622,0,0,1-.121.046.45.45,0,0,1-.111.008l-.219,0q-.13,0-.29-.008t-.326-.016l-.329-.017-.3-.016-.225-.012c-.061,0-.1-.006-.122-.009q.092-.6.188-1.187t.218-1.184l.53.155q.263.077.53.165l.2.068c.089.029.181.062.277.1s.184.074.266.112a.561.561,0,0,1,.172.111.547.547,0,0,1,.094.18.74.74,0,0,1,.037.2.646.646,0,0,1-.013.134c-.011.06-.023.123-.037.19s-.029.131-.043.193-.026.109-.034.141m-.808-.158c.006-.024.012-.049.017-.076s.01-.052.014-.077.008-.072.009-.112a.781.781,0,0,0,0-.117.571.571,0,0,0-.023-.111.36.36,0,0,0-.05-.1.247.247,0,0,0-.1-.058c-.056-.022-.117-.043-.185-.063s-.131-.039-.19-.055l-.115-.03-.131-.033q-.037.256-.076.5t-.086.5c.041.008.1.016.179.026s.159.016.242.02a1.653,1.653,0,0,0,.236-.006.365.365,0,0,0,.169-.051.168.168,0,0,0,.064-.071.529.529,0,0,0,.032-.092" transform="translate(-154.586 -162.833)" fill="#5e6dc4"/>
          <path id="Trazado_1012786" data-name="Trazado 1012786" d="M287.3,296.429l-.02.081c-.007.027-.014.053-.023.078s-.02.057-.036.11-.036.113-.059.181-.047.14-.074.214-.053.144-.079.207-.05.116-.073.161a.217.217,0,0,1-.053.078.611.611,0,0,1-.265.085,1.291,1.291,0,0,1-.293-.007,2.229,2.229,0,0,1-.291-.059q-.143-.039-.268-.071l-.141-.037-.224-.061q-.126-.035-.262-.077t-.252-.087a1.953,1.953,0,0,1-.2-.087.2.2,0,0,1-.1-.081.459.459,0,0,1-.025-.088c-.006-.031-.011-.06-.015-.089-.01-.077-.017-.159-.02-.245s0-.173,0-.262.013-.175.025-.261a2.194,2.194,0,0,1,.045-.241q.015-.061.049-.156c.023-.064.049-.132.078-.205s.062-.147.1-.222.07-.145.1-.209a1.376,1.376,0,0,1,.1-.163.23.23,0,0,1,.1-.083.361.361,0,0,1,.129-.012c.061,0,.131.007.21.017s.163.021.253.036l.255.043q.12.021.217.042l.142.032c.04.01.095.026.163.048s.142.047.221.077.158.062.237.1.153.071.22.108a1.234,1.234,0,0,1,.168.11.191.191,0,0,1,.077.1.538.538,0,0,1,.005.109q0,.069-.013.155c-.008.057-.016.117-.027.181s-.02.123-.032.181-.021.11-.031.157-.018.085-.025.113m-.6-.038c.011-.043.02-.088.028-.138a.279.279,0,0,0-.01-.137c-.011-.03-.047-.06-.108-.092a1.5,1.5,0,0,0-.207-.086c-.076-.026-.15-.048-.223-.068l-.153-.04c-.024-.006-.065-.014-.125-.024s-.124-.019-.191-.026-.131-.01-.19-.01a.181.181,0,0,0-.115.024.2.2,0,0,0-.052.077c-.018.04-.036.083-.053.13s-.033.092-.046.135-.022.074-.027.093-.01.043-.018.077-.013.07-.018.108-.009.073-.011.106a.173.173,0,0,0,.006.076c0,.012.02.027.05.044s.067.034.111.053.091.037.141.054l.146.049.126.038.078.021c.026.006.071.016.135.027s.132.021.2.029.139.012.2.013a.241.241,0,0,0,.126-.021.229.229,0,0,0,.056-.087q.031-.069.059-.152c.018-.056.035-.109.048-.161s.025-.09.03-.113" transform="translate(-157.978 -163.694)" fill="#5e6dc4"/>
          <path id="Trazado_1012787" data-name="Trazado 1012787" d="M293.7,297.846a.556.556,0,0,1-.263.373.662.662,0,0,1-.463.057,9.176,9.176,0,0,1,.283,1.221l-.94-.212a3.768,3.768,0,0,0,.043-.5,3.685,3.685,0,0,0-.03-.494c-.072-.013-.143-.025-.214-.036s-.141-.023-.211-.036l-.166.731q-.185-.036-.367-.082c-.062-.016-.122-.032-.18-.048s-.117-.036-.175-.057q.1-.289.189-.577t.169-.579q.139-.516.289-1.03.3.059.609.115t.605.131c.051.012.106.028.165.045a1.492,1.492,0,0,1,.177.063,1.384,1.384,0,0,1,.166.084.658.658,0,0,1,.136.105.712.712,0,0,1,.183.336.814.814,0,0,1,0,.386m-.73-.237c0-.017.01-.04.016-.071s.011-.061.015-.093a.529.529,0,0,0,0-.091.131.131,0,0,0-.02-.068.124.124,0,0,0-.05-.033l-.079-.032c-.028-.01-.055-.02-.081-.027l-.056-.016a2.5,2.5,0,0,0-.254-.05c-.085-.012-.169-.022-.253-.029l-.069.643a1.1,1.1,0,0,0,.142.06c.05.017.1.032.149.044l.1.02c.042.008.086.015.131.019a.779.779,0,0,0,.129,0,.158.158,0,0,0,.09-.027.125.125,0,0,0,.028-.046.528.528,0,0,0,.027-.075l.023-.077c.008-.025.012-.044.015-.054" transform="translate(-161.579 -164.671)" fill="#5e6dc4"/>
          <path id="Trazado_1012788" data-name="Trazado 1012788" d="M236.934,258.471c-.162-.021-.193-1.06-.02-2.722a42.578,42.578,0,0,1,3.463-12.528,16.979,16.979,0,0,1,.915-1.755c.248-.4.422-.6.5-.57s.052.3-.06.754-.3,1.1-.547,1.881c-.49,1.574-1.172,3.735-1.841,6.146s-1.19,4.617-1.577,6.219-.66,2.6-.833,2.573" transform="translate(-131.477 -133.751)" fill="#3a201e"/>
          <path id="Trazado_1012789" data-name="Trazado 1012789" d="M250.178,251.485a1.076,1.076,0,1,1-1.076-1.076,1.076,1.076,0,0,1,1.076,1.076" transform="translate(-137.711 -139.035)" fill="#3a201e"/>
          <path id="Trazado_1012790" data-name="Trazado 1012790" d="M246.522,263.148a1.076,1.076,0,1,1-1.076-1.076,1.076,1.076,0,0,1,1.076,1.076" transform="translate(-135.681 -145.51)" fill="#3a201e"/>
          <path id="Trazado_1012791" data-name="Trazado 1012791" d="M243.312,275.771a1.076,1.076,0,1,1-1.076-1.076,1.076,1.076,0,0,1,1.076,1.076" transform="translate(-133.899 -152.519)" fill="#3a201e"/>
          <path id="Trazado_1012792" data-name="Trazado 1012792" d="M152.91,323.834a9.328,9.328,0,0,1-.607-2.362c-.278-1.541-.607-3.785-.89-6.567-.59-5.563-1.056-13.271-1.341-21.786s-.358-16.229-.324-21.812c.007-.7.013-1.362.02-1.991q.008-.429.015-.834c0-.031-.024-.052-.034-.08l-.113-.182-.222-.359c-.583-.943-1.079-1.759-1.478-2.431a9.352,9.352,0,0,1-1.135-2.154,9.346,9.346,0,0,1,1.532,1.892c.46.631,1.015,1.409,1.651,2.316l.243.346.125.18.1.144a.207.207,0,0,1,.062.158q.016.484.033,1,.032.943.067,1.988c.175,5.6.416,13.286.681,21.782.284,8.5.613,16.2.98,21.755.173,2.78.369,5.023.5,6.574a9.4,9.4,0,0,1,.135,2.428" transform="translate(-81.503 -146.177)" fill="#3a201e"/>
          <path id="Trazado_1012793" data-name="Trazado 1012793" d="M264.527,69.741a9.309,9.309,0,0,1-9.309,9.309,9.2,9.2,0,0,1-3.4-.645A25.584,25.584,0,0,1,202.13,74.34a8.807,8.807,0,0,1-1.032.058,9.309,9.309,0,1,1,2.219-18.351l2.726-24.729,50.846,5.6-2.6,23.559a7.952,7.952,0,0,1,.925-.049,9.309,9.309,0,0,1,9.309,9.309" transform="translate(-106.487 -17.388)" fill="#996752"/>
          <path id="Trazado_1012794" data-name="Trazado 1012794" d="M264.527,69.741a9.309,9.309,0,0,1-9.309,9.309,9.2,9.2,0,0,1-3.4-.645A25.584,25.584,0,0,1,202.13,74.34a8.807,8.807,0,0,1-1.032.058,9.309,9.309,0,1,1,2.219-18.351l2.726-24.729,50.846,5.6-2.6,23.559a7.952,7.952,0,0,1,.925-.049,9.309,9.309,0,0,1,9.309,9.309" transform="translate(-106.487 -17.388)" fill="#844c3d"/>
          <path id="Trazado_1012795" data-name="Trazado 1012795" d="M233.827,108.055a8.359,8.359,0,1,1-8.219-8.5,8.359,8.359,0,0,1,8.219,8.5" transform="translate(-120.546 -55.277)" fill="#82362e"/>
          <path id="Trazado_1012796" data-name="Trazado 1012796" d="M304.027,109.219a8.359,8.359,0,1,1-8.219-8.5,8.358,8.358,0,0,1,8.219,8.5" transform="translate(-159.523 -55.923)" fill="#82362e"/>
          <path id="Trazado_1012797" data-name="Trazado 1012797" d="M317.974,65.861S305.73,47.071,307.8,41.716s15.689,16.411,15.615,16.739-2.39,7.405-2.39,7.405a21.1,21.1,0,0,0-3.048,0" transform="translate(-170.767 -22.692)" fill="#3a201e"/>
          <path id="Trazado_1012798" data-name="Trazado 1012798" d="M211.767,53.18l2.28.282s8.029-11.222,15.807-22.255c4.9-6.955-9.134-3.9-9.134-3.9s-12.943,4.807-8.953,25.874" transform="translate(-117.155 -14.79)" fill="#3a201e"/>
          <path id="Trazado_1012799" data-name="Trazado 1012799" d="M250.733,34.925c-.473,1.169-.915,2.265-.993,2.408a22.351,22.351,0,0,1-3.693,4.994,42.35,42.35,0,0,0,21.268-4.759,3.963,3.963,0,0,0,.6-.749Z" transform="translate(-136.613 -19.391)" fill="#3a201e"/>
          <path id="Trazado_1012800" data-name="Trazado 1012800" d="M243.554,72.214a1.217,1.217,0,0,1-.785.314c-.341.051-.734.085-1.193.154a14.98,14.98,0,0,0-1.59.322c-.3.08-.616.172-.937.272s-.648.221-.979.358-.651.274-.954.426-.593.3-.87.456c-.551.309-1.039.627-1.472.91-.225.136-.412.278-.614.39a4.191,4.191,0,0,1-.533.3,1.033,1.033,0,0,1-.855.121c-.231-.1-.372-.366-.407-.79a3.127,3.127,0,0,1,.063-.731,4.675,4.675,0,0,1,.306-.893,6.441,6.441,0,0,1,1.436-1.976,7.771,7.771,0,0,1,1.141-.9,7.938,7.938,0,0,1,1.384-.719,7.911,7.911,0,0,1,2.947-.592,5.836,5.836,0,0,1,2.5.51,3.041,3.041,0,0,1,1.374,1.16.789.789,0,0,1,.04.9" transform="translate(-129.015 -38.666)" fill="#3a201e"/>
          <path id="Trazado_1012801" data-name="Trazado 1012801" d="M288.034,72.213a.789.789,0,0,1,.04-.9,3.041,3.041,0,0,1,1.374-1.16,5.83,5.83,0,0,1,2.5-.51,7.9,7.9,0,0,1,2.948.591,7.94,7.94,0,0,1,1.384.719,7.755,7.755,0,0,1,1.141.9,6.426,6.426,0,0,1,1.436,1.976,4.606,4.606,0,0,1,.306.893,3.105,3.105,0,0,1,.064.731c-.035.425-.176.688-.407.79a1.033,1.033,0,0,1-.855-.121,4.082,4.082,0,0,1-.533-.3c-.2-.111-.389-.254-.614-.389-.432-.283-.92-.6-1.472-.911-.277-.153-.564-.31-.87-.456s-.623-.291-.953-.425-.659-.25-.979-.358-.637-.192-.937-.272a14.851,14.851,0,0,0-1.59-.322c-.459-.069-.852-.1-1.192-.154a1.22,1.22,0,0,1-.786-.314" transform="translate(-159.857 -38.666)" fill="#3a201e"/>
          <path id="Trazado_1012802" data-name="Trazado 1012802" d="M215.116,92.742a23.736,23.736,0,0,1-.189,3.891c-.109,1.252-.242,2.778-.4,4.546a28.6,28.6,0,0,0-.039,5.95,25.735,25.735,0,0,0,1.765,6.943A25.348,25.348,0,0,0,227.6,126.688a25.212,25.212,0,0,0,32.656-7.864,25.626,25.626,0,0,0,3.208-6.4,26.139,26.139,0,0,0,.8-3.036c.109-.485.18-.962.248-1.426s.128-.921.186-1.361c.235-1.76.437-3.277.6-4.523a23.7,23.7,0,0,1,.663-3.839,23.79,23.79,0,0,1-.189,3.891l-.4,4.546a28.262,28.262,0,0,1-1.092,6.011,25.959,25.959,0,0,1-50.663-5.473,27.87,27.87,0,0,1,.22-6.106c.235-1.76.437-3.277.6-4.523a23.679,23.679,0,0,1,.663-3.839" transform="translate(-118.569 -51.493)" fill="#3a201e"/>
          <path id="Trazado_1012803" data-name="Trazado 1012803" d="M201.865,106.105c-.02.074-.323.1-.817-.113a3.228,3.228,0,0,1-1.606-1.6,3.6,3.6,0,0,1,.259-3.447,1.736,1.736,0,0,1,.459-.457,1.544,1.544,0,0,1,.672-.24,3.039,3.039,0,0,1,1.139.134,8.845,8.845,0,0,1,1.941.774l.242.137v0l.006.009c.005.008.008.006.013,0a.028.028,0,0,0,.005-.01c0-.011.015.03-.031-.133a4.043,4.043,0,0,0-.595-1.247,3.923,3.923,0,0,0-1.808-1.434,2.5,2.5,0,0,0-1.524-.093c-.355.1-.536.251-.6.194-.053-.036.013-.309.406-.587a2.534,2.534,0,0,1,1.928-.294,4.394,4.394,0,0,1,2.455,1.563,4.835,4.835,0,0,1,.848,1.553c.024.078.044.131.082.274l.073.395a4.212,4.212,0,0,1,.07.768c0,.25-.008.477-.012.735s-.014.491-.021.738l-1.18-.9c-.2-.152-.388-.265-.584-.394l-.216-.127-.141-.077a8.577,8.577,0,0,0-1.681-.7,2.119,2.119,0,0,0-.693-.127.4.4,0,0,0-.176.046.589.589,0,0,0-.169.155,2.682,2.682,0,0,0-.475,1.247,2.88,2.88,0,0,0,.11,1.215,3.35,3.35,0,0,0,1.049,1.514c.354.3.6.433.57.519" transform="translate(-110.558 -54.211)" fill="#3a201e"/>
          <path id="Trazado_1012804" data-name="Trazado 1012804" d="M336.7,116.261c-.028-.086.216-.222.57-.519a3.343,3.343,0,0,0,1.049-1.514,2.871,2.871,0,0,0,.11-1.214,2.674,2.674,0,0,0-.475-1.247.584.584,0,0,0-.169-.155.4.4,0,0,0-.176-.047,2.158,2.158,0,0,0-.693.127,8.6,8.6,0,0,0-1.681.695l-.141.078-.216.127c-.2.129-.386.242-.584.394l-1.18.9q-.011-.372-.021-.738c0-.258-.017-.485-.012-.736a4.21,4.21,0,0,1,.07-.767l.073-.395c.038-.144.059-.2.082-.274a4.832,4.832,0,0,1,.848-1.554,4.39,4.39,0,0,1,2.455-1.563,2.534,2.534,0,0,1,1.928.293c.393.278.459.551.407.587-.065.057-.246-.094-.6-.194a2.5,2.5,0,0,0-1.524.093,3.929,3.929,0,0,0-1.808,1.434,4.051,4.051,0,0,0-.595,1.248c-.045.163-.031.121-.031.133a.025.025,0,0,0,.005.01s.008,0,.013,0l.006-.009h0l.242-.137a8.778,8.778,0,0,1,1.941-.773,3.046,3.046,0,0,1,1.139-.135,1.545,1.545,0,0,1,.672.241,1.73,1.73,0,0,1,.459.457,3.6,3.6,0,0,1,.259,3.447,3.23,3.23,0,0,1-1.606,1.6c-.494.208-.8.186-.817.112" transform="translate(-184.934 -59.85)" fill="#3a201e"/>
          <path id="Trazado_1012805" data-name="Trazado 1012805" d="M264.092,100.145c.065.038-.038.427-.449,1.017a6.126,6.126,0,0,1-2.333,1.953,6.734,6.734,0,0,1-4.545.456,6.5,6.5,0,0,1-2.5-1.215,5.17,5.17,0,0,1-1.731-2.5,6.421,6.421,0,0,1-.18-2.986,8.138,8.138,0,0,1,.9-2.579,7.059,7.059,0,0,1,3.289-3.156,5.068,5.068,0,0,1,3.044-.355c.713.161,1.039.414,1.01.482-.032.088-.406,0-1.063-.008a5.436,5.436,0,0,0-2.614.66,6.594,6.594,0,0,0-2.667,2.9,7.441,7.441,0,0,0-.71,2.239,5.455,5.455,0,0,0,.161,2.432,4.738,4.738,0,0,0,3.351,3,6.209,6.209,0,0,0,3.911-.16,7.1,7.1,0,0,0,2.318-1.472c.489-.454.731-.754.809-.705" transform="translate(-140.062 -50.348)" fill="#3a201e"/>
          <path id="Trazado_1012806" data-name="Trazado 1012806" d="M240.859,87.907c3.415,1.088,1.806,8.48-1.734,8.05s-1.681-9.138,1.734-8.05" transform="translate(-131.71 -48.756)" fill="#3a201e"/>
          <path id="Trazado_1012807" data-name="Trazado 1012807" d="M292.893,90.732c3.566.361,3.514,7.927-.039,8.234s-3.527-8.6.039-8.234" transform="translate(-161.129 -50.371)" fill="#3a201e"/>
          <path id="Trazado_1012808" data-name="Trazado 1012808" d="M259.337,124.174l17.482-4.739s-1.1,9.954-7.173,11.137-10.309-6.4-10.309-6.4" transform="translate(-143.992 -66.314)" fill="#f5f5ed"/>
          <path id="Trazado_1012809" data-name="Trazado 1012809" d="M308.091,5.949s1.326-1.925,2.6-1.721,4.326.657,4.953,2.016a5.731,5.731,0,0,1,.084,3.316s-6.235-2.186-7.64-3.61" transform="translate(-171.061 -2.339)" fill="#7f2824"/>
          <path id="Trazado_1012810" data-name="Trazado 1012810" d="M300.833,17.462c-1.606-4.7-17.732-19.43-40.089-15.977l19.811,21.351s8.566,3.345,15.678,17.175c0,0,6.207-17.846,4.6-22.549" transform="translate(-144.773 -0.537)" fill="#c4301c"/>
          <path id="Trazado_1012811" data-name="Trazado 1012811" d="M298.962,33.911c-1.915-2.565-2.9-5.631-4.588-8.328-5.593-8.935-15.982-11.891-25.592-14.786l16.235,17.5s8.566,3.345,15.677,17.175c0,0,1.154-3.317,2.337-7.468a21.875,21.875,0,0,1-4.07-4.09" transform="translate(-149.236 -5.995)" fill="#b72415"/>
          <path id="Trazado_1012812" data-name="Trazado 1012812" d="M329.258,67.749a2.415,2.415,0,0,1,.069,2.267c-.25.684-1.2.69-1.53,1.341a109.822,109.822,0,0,0-8.444-12.9c-.447-.616-2.035-2.031-.758-2.558.875-.362,2.271,1.261,2.823,1.753a35.971,35.971,0,0,1,5.537,6.05,23.256,23.256,0,0,1,2.3,4.048" transform="translate(-176.623 -31.007)" fill="#a01d17"/>
          <path id="Trazado_1012813" data-name="Trazado 1012813" d="M196.439,24.784s29.86-16.3,48.9,2.978c0,0,1.939-20.229-24.745-26.129-21.49-4.751-38.276,7.463-35.484,14.5,3.589,9.045,11.328,8.652,11.328,8.652" transform="translate(-102.61 -0.313)" fill="#d94c3b"/>
          <path id="Trazado_1012814" data-name="Trazado 1012814" d="M199.694,8.716C210.9,4.008,224.3,4.854,235.652,8.688c1.261.426,1.058.925,2.285,1.437-3.769-3.386-8.21-6.483-17.342-8.367-21.555-4.449-38.276,7.463-35.484,14.5a16.58,16.58,0,0,0,1.68,3.205c2.118-5.081,8.329-8.824,12.9-10.746" transform="translate(-102.609 -0.438)" fill="#e25247"/>
          <path id="Trazado_1012815" data-name="Trazado 1012815" d="M195.868,24.47a2.183,2.183,0,0,1-1,.072,10.4,10.4,0,0,1-2.819-.558A11.809,11.809,0,0,1,188.1,21.7a14.564,14.564,0,0,1-3.581-4.878l-.362-.776a7.315,7.315,0,0,1-.278-.894,4.9,4.9,0,0,1-.1-.955c0-.162,0-.324.006-.488q.037-.24.073-.482a8.129,8.129,0,0,1,1.677-3.566,20.208,20.208,0,0,1,6.606-5.236A41.687,41.687,0,0,1,210.668,0a50.529,50.529,0,0,1,9.874.806,36.817,36.817,0,0,1,8.846,2.712A27.223,27.223,0,0,1,236.421,8.1a25.078,25.078,0,0,1,4.659,5.633,26.637,26.637,0,0,1,3.546,9.876,11.1,11.1,0,0,1,.143,3.842c-.09,0-.118-1.364-.612-3.759a28.216,28.216,0,0,0-3.812-9.5,24.8,24.8,0,0,0-4.6-5.332,26.7,26.7,0,0,0-6.825-4.308,36.44,36.44,0,0,0-8.591-2.559,50.633,50.633,0,0,0-9.642-.763,41.466,41.466,0,0,0-18.021,4.192,19.484,19.484,0,0,0-6.329,4.86,7.226,7.226,0,0,0-1.549,3.111l-.072.4-.012.4a3.987,3.987,0,0,0,.06.78,6.721,6.721,0,0,0,.211.741l.327.746a14.2,14.2,0,0,0,3.251,4.729,11.9,11.9,0,0,0,3.66,2.35,12.726,12.726,0,0,0,2.679.76,5.392,5.392,0,0,1,.974.173" transform="translate(-102.039 0)" fill="#f27f79"/>
          <path id="Trazado_1012816" data-name="Trazado 1012816" d="M212.5,414.5H.162L0,408.2H212.343Z" transform="translate(0 -226.646)" fill="#cea97b"/>
          <path id="Trazado_1012817" data-name="Trazado 1012817" d="M33.847,319.515,45.86,369.989s25.467-7.129,52.265-8.621c0,0,32.143-16.007,47.727-11.946,0,0-18.58-48.021-21.925-47.782s-32.061,1.539-41.236,10.8c0,0-22.8-4.157-48.844,7.071" transform="translate(-18.793 -167.479)" fill="#f3cb72"/>
          <path id="Trazado_1012818" data-name="Trazado 1012818" d="M205.087,346.538l-20.361-44.649a78.27,78.27,0,0,0-41.06,9.886c12.539-10.138,32.2-12.252,42.162-11.029,4.238,6.625,15.937,31.684,21.821,48.227A122.985,122.985,0,0,0,159.1,360.7c5.793-4.942,32.8-16.02,45.988-14.161" transform="translate(-79.768 -166.81)" fill="#3a201e"/>
          <path id="Trazado_1012819" data-name="Trazado 1012819" d="M159.074,374.855a6.577,6.577,0,0,1-.682-1.913c-.364-1.275-.878-3.073-1.508-5.283-.315-1.115-.677-2.332-1.065-3.638s-.818-2.7-1.265-4.164l-1.451-4.585-1.6-4.91-5.758-17.2c-1.447-4.415-2.26-7.175-2.1-7.231s1.26,2.6,2.916,6.942,3.873,10.367,6.1,17.105c.556,1.685,1.09,3.333,1.584,4.933s.958,3.146,1.389,4.623.819,2.887,1.162,4.212.663,2.559.926,3.693.5,2.16.685,3.066.345,1.686.45,2.329a6.55,6.55,0,0,1,.218,2.02" transform="translate(-79.743 -180.966)" fill="#3a201e"/>
          <path id="Trazado_1012820" data-name="Trazado 1012820" d="M119.333,332.751c-.059-.062-.042-.206.09-.411a1.217,1.217,0,0,1,.331-.337,1,1,0,0,1,.771-.154,1.174,1.174,0,0,1,.414.186,1.747,1.747,0,0,1,.308.282,1.994,1.994,0,0,1,.4.77,2.468,2.468,0,0,1,.068.911,2.881,2.881,0,0,1-.091.464,2.811,2.811,0,0,1-.179.461,1.321,1.321,0,0,1-.482.545,1.192,1.192,0,0,1-.739.163,1.661,1.661,0,0,1-.984-.492,2.3,2.3,0,0,1-.644-1.39,1.758,1.758,0,0,1,.164-.97c.113-.206.233-.285.31-.258.167.058.135.5.37,1.037a2.182,2.182,0,0,0,.226.4,1.622,1.622,0,0,0,.333.348.624.624,0,0,0,.322.13.01.01,0,0,0,0-.009c0-.012-.016.027.029-.056a2.073,2.073,0,0,0,.1-.258,2.159,2.159,0,0,0,.067-.27,1.738,1.738,0,0,0,.016-.507,1.24,1.24,0,0,0-.123-.406,1.443,1.443,0,0,0-.094-.151c-.031-.039-.044-.06-.062-.079a.247.247,0,0,0-.219-.055,1.882,1.882,0,0,0-.315.079c-.2.063-.337.093-.4.029" transform="translate(-65.846 -184.24)" fill="#3a201e"/>
          <path id="Trazado_1012821" data-name="Trazado 1012821" d="M127.3,330.616c-.066-.042-.072-.218.115-.446a1.139,1.139,0,0,1,.436-.31,1.306,1.306,0,0,1,.753-.073,1.582,1.582,0,0,1,.813.452,2.077,2.077,0,0,1,.507.882,3.186,3.186,0,0,1,.11,1.02,3.3,3.3,0,0,1-.2,1.086,1.71,1.71,0,0,1-.387.6,1.318,1.318,0,0,1-.733.362,1.5,1.5,0,0,1-1.253-.461,2.416,2.416,0,0,1-.5-.821,3.174,3.174,0,0,1-.2-.745,1.837,1.837,0,0,1,.156-1.13c.14-.243.29-.316.358-.276s.08.186.1.391a2.748,2.748,0,0,0,.219.8,3.783,3.783,0,0,0,.273.513,1.711,1.711,0,0,0,.366.448.386.386,0,0,0,.3.1.174.174,0,0,0,.058-.043.619.619,0,0,0,.1-.183,2.714,2.714,0,0,0,.139-.71,2.67,2.67,0,0,0-.008-.677,1.067,1.067,0,0,0-.472-.774.942.942,0,0,0-.668-.057c-.189.044-.317.105-.389.056" transform="translate(-70.364 -183.094)" fill="#3a201e"/>
          <path id="Trazado_1012822" data-name="Trazado 1012822" d="M125.393,356.722c-.058-.057-.035-.212.119-.439a1.328,1.328,0,0,1,.383-.365,1.173,1.173,0,0,1,.8-.166,1.5,1.5,0,0,1,.868.486,1.883,1.883,0,0,1,.461.988,3.3,3.3,0,0,1-.022,1.063c-.028.171-.056.322-.1.509a2.166,2.166,0,0,1-.251.613,1.469,1.469,0,0,1-.6.55,1.21,1.21,0,0,1-.9.068,1.617,1.617,0,0,1-.6-.36,2.59,2.59,0,0,1-.364-.416,2.828,2.828,0,0,1-.5-1.7,2.566,2.566,0,0,1,.267-1.1c.124-.234.245-.338.324-.314.174.046.11.6.271,1.338a2.481,2.481,0,0,0,.533,1.088,1.043,1.043,0,0,0,.413.315c.019,0,0,0,.017-.01a.323.323,0,0,0,.1-.106,2.575,2.575,0,0,0,.215-.694,2.841,2.841,0,0,0,.081-.709.972.972,0,0,0-.133-.487.749.749,0,0,0-.279-.28.5.5,0,0,0-.329-.049,1.766,1.766,0,0,0-.352.1c-.213.084-.362.134-.423.073" transform="translate(-69.23 -197.516)" fill="#3a201e"/>
          <path id="Trazado_1012823" data-name="Trazado 1012823" d="M134.322,355.039c-.014-.082.1-.188.336-.3a1.86,1.86,0,0,1,.473-.137,1.6,1.6,0,0,1,.731.053,1.651,1.651,0,0,1,.777.555,2.477,2.477,0,0,1,.438.912,3.1,3.1,0,0,1,.09,1.078,1.97,1.97,0,0,1-.552,1.215,1.555,1.555,0,0,1-1.423.446,1.664,1.664,0,0,1-1.046-.8,2.783,2.783,0,0,1-.314-.918,5.708,5.708,0,0,1-.088-.748,2.189,2.189,0,0,1,.205-1.135c.141-.25.291-.33.361-.292s.081.189.1.406a4.161,4.161,0,0,0,.186.885c.057.186.132.4.214.624a2.216,2.216,0,0,0,.283.573.581.581,0,0,0,.342.238.42.42,0,0,0,.316-.143.871.871,0,0,0,.223-.494,2.435,2.435,0,0,0,0-.694,1.849,1.849,0,0,0-.169-.57.914.914,0,0,0-.284-.337,2.06,2.06,0,0,0-.8-.24c-.237-.04-.386-.09-.4-.175" transform="translate(-74.257 -196.876)" fill="#3a201e"/>
          <path id="Trazado_1012824" data-name="Trazado 1012824" d="M131.656,384.191c-.028-.059.006-.141.06-.279a1.307,1.307,0,0,1,.057-.122,1.5,1.5,0,0,1,.125-.186.773.773,0,0,1,.475-.3.764.764,0,0,1,.564.145,1.222,1.222,0,0,1,.256.246,1.728,1.728,0,0,1,.112.16l.074.122a3.2,3.2,0,0,1,.412,1.15,3.538,3.538,0,0,1-.061,1.425,3.378,3.378,0,0,1-.275.738,3.626,3.626,0,0,1-.207.356,1.425,1.425,0,0,1-.437.435l-.042.025a1.143,1.143,0,0,1-.527.132,1.407,1.407,0,0,1-.5-.091,1.811,1.811,0,0,1-.656-.441,2.739,2.739,0,0,1-.61-1.1,4.7,4.7,0,0,1-.179-1.866,3.45,3.45,0,0,1,.336-1.192c.139-.26.268-.377.346-.35.169.056.079.656.181,1.547a5.646,5.646,0,0,0,.377,1.485,1.852,1.852,0,0,0,.4.63.683.683,0,0,0,.226.144c.04.012.038.008.036.008h0c.006-.009-.02.03.041-.055.047-.075.1-.149.14-.23a2.62,2.62,0,0,0,.208-.49,2.98,2.98,0,0,0,.133-1,2.913,2.913,0,0,0-.158-.871l-.029-.09-.006-.036a.351.351,0,0,0-.025-.077.223.223,0,0,0-.122-.12.27.27,0,0,0-.189.016.971.971,0,0,0-.094.04l-.125.069c-.168.088-.293.078-.318.022" transform="translate(-72.332 -212.76)" fill="#3a201e"/>
          <path id="Trazado_1012825" data-name="Trazado 1012825" d="M140.43,383.828c-.005-.08.139-.184.439-.2a1.816,1.816,0,0,1,1.2.414,2.429,2.429,0,0,1,.886,1.734,2.174,2.174,0,0,1-.271,1.233,1.786,1.786,0,0,1-1.208.87,1.765,1.765,0,0,1-1.433-.414,2.19,2.19,0,0,1-.677-1.055,3.3,3.3,0,0,1-.131-.994,3.91,3.91,0,0,1,.093-.83,2.287,2.287,0,0,1,.55-1.094c.213-.208.382-.253.44-.2.124.124-.157.585-.131,1.4a4.016,4.016,0,0,0,.242,1.349,1.163,1.163,0,0,0,.368.5.619.619,0,0,0,.462.141.653.653,0,0,0,.4-.284,1.156,1.156,0,0,0,.171-.585,1.8,1.8,0,0,0-.359-1.141,2.146,2.146,0,0,0-.692-.569c-.2-.112-.346-.177-.35-.263" transform="translate(-77.31 -212.801)" fill="#3a201e"/>
          <path id="Trazado_1012826" data-name="Trazado 1012826" d="M139.179,409.294c-.046-.043-.036-.154.055-.324a1.107,1.107,0,0,1,.233-.292.917.917,0,0,1,.559-.233,1.16,1.16,0,0,1,.592.151,1.861,1.861,0,0,1,.482.378,3.183,3.183,0,0,1,.64,1.13,4.043,4.043,0,0,1,.214,1.454,4.164,4.164,0,0,1-.1.8,3.719,3.719,0,0,1-.29.817,1.484,1.484,0,0,1-.325.423,1.089,1.089,0,0,1-.507.252,1.272,1.272,0,0,1-.561-.02,1.859,1.859,0,0,1-.38-.145,2.6,2.6,0,0,1-1-.907,2.955,2.955,0,0,1-.431-1.08,3.447,3.447,0,0,1-.04-.959,3.777,3.777,0,0,1,.149-.752,1.609,1.609,0,0,1,.287-.558.677.677,0,0,1,.35-.236c.1-.021.155,0,.172.04.034.082-.069.2-.1.425a2.26,2.26,0,0,0-.03.44,6.271,6.271,0,0,0,.041.637,2.708,2.708,0,0,0,.525,1.39,1.622,1.622,0,0,0,.6.479.691.691,0,0,0,.146.051l0,0v0c0-.006-.012.02.024-.043a3.088,3.088,0,0,0,.194-.538,3.466,3.466,0,0,0,.1-.575,3.58,3.58,0,0,0-.066-1.087,2.889,2.889,0,0,0-.317-.861,1.271,1.271,0,0,0-.213-.27.7.7,0,0,0-.182-.133.369.369,0,0,0-.243,0,2.062,2.062,0,0,0-.259.1c-.154.07-.262.1-.31.058" transform="translate(-76.787 -226.78)" fill="#3a201e"/>
          <path id="Trazado_1012827" data-name="Trazado 1012827" d="M147.872,408.277a.124.124,0,0,1-.041-.113.574.574,0,0,1,.061-.226.971.971,0,0,1,.287-.34.687.687,0,0,1,.6-.109,1.2,1.2,0,0,1,.5.339c.11.1.223.212.337.336a5.751,5.751,0,0,1,.67.889,3.007,3.007,0,0,1,.459,1.353,2.2,2.2,0,0,1-.11.855,1.81,1.81,0,0,1-.549.808,1.7,1.7,0,0,1-.755.364,1.494,1.494,0,0,1-.866-.083,1.872,1.872,0,0,1-.97-1.019,4.815,4.815,0,0,1-.271-.971,6.5,6.5,0,0,1-.111-.833,3.34,3.34,0,0,1,.12-1.232c.094-.283.209-.417.29-.4.172.04.175.62.443,1.487q.1.328.237.713a5.51,5.51,0,0,0,.309.75.8.8,0,0,0,.4.392.431.431,0,0,0,.4-.109.639.639,0,0,0,.187-.273,1.13,1.13,0,0,0,.069-.4,2.252,2.252,0,0,0-.23-.893,8.283,8.283,0,0,0-.448-.839l-.224-.355a.7.7,0,0,0-.087-.157.224.224,0,0,0-.2-.068.737.737,0,0,0-.194.053,1.667,1.667,0,0,1-.182.082.136.136,0,0,1-.118,0" transform="translate(-81.672 -226.236)" fill="#3a201e"/>
          <path id="Trazado_1012828" data-name="Trazado 1012828" d="M206.722,319.477l.148.52-.977.278-.134-.471a3.124,3.124,0,0,1-1.7-.057l.393-1.2a2.266,2.266,0,0,0,1.309.122c.229-.065.48-.182.425-.376-.048-.167-.186-.18-.322-.185-.06,0-.112,0-.178.005H204.9a1.34,1.34,0,0,1-1.406-.963,1.626,1.626,0,0,1,.962-1.908l-.13-.458.977-.278.129.451a2.843,2.843,0,0,1,1.306.085l-.485,1.165a1.719,1.719,0,0,0-1.011-.049c-.285.081-.447.195-.4.375s.219.162.373.149c.315-.023.614,0,.935,0a1.349,1.349,0,0,1,1.471.93,1.57,1.57,0,0,1-.906,1.869" transform="translate(-112.955 -174.624)" fill="#3a201e"/>
          <path id="Trazado_1012829" data-name="Trazado 1012829" d="M215.01,342.621l.148.52-.977.278-.134-.471a3.123,3.123,0,0,1-1.7-.057l.393-1.2a2.263,2.263,0,0,0,1.309.122c.229-.065.48-.182.425-.375-.048-.167-.186-.18-.322-.185-.06,0-.112,0-.178.005h-.788a1.34,1.34,0,0,1-1.406-.963,1.626,1.626,0,0,1,.962-1.908l-.13-.458.977-.278.129.451a2.843,2.843,0,0,1,1.306.085l-.485,1.165a1.719,1.719,0,0,0-1.01-.049c-.285.081-.447.195-.4.375s.219.162.373.148c.315-.023.614,0,.935,0a1.349,1.349,0,0,1,1.471.93,1.57,1.57,0,0,1-.906,1.869" transform="translate(-117.556 -187.474)" fill="#3a201e"/>
          <path id="Trazado_1012830" data-name="Trazado 1012830" d="M225.506,368.817l.148.52-.977.278-.134-.471a3.124,3.124,0,0,1-1.7-.057l.393-1.2a2.266,2.266,0,0,0,1.309.122c.229-.065.48-.182.425-.376-.048-.167-.186-.179-.322-.185-.06,0-.112,0-.178.005h-.788a1.34,1.34,0,0,1-1.406-.963,1.626,1.626,0,0,1,.962-1.908l-.13-.458.977-.278.129.451a2.842,2.842,0,0,1,1.306.085l-.485,1.165a1.719,1.719,0,0,0-1.011-.049c-.285.081-.447.195-.4.375s.219.162.373.149c.315-.023.614,0,.935,0a1.349,1.349,0,0,1,1.471.93,1.57,1.57,0,0,1-.906,1.869" transform="translate(-123.384 -202.019)" fill="#3a201e"/>
          <path id="Trazado_1012831" data-name="Trazado 1012831" d="M236.423,395.542l.148.52-.977.278-.134-.472a3.12,3.12,0,0,1-1.7-.056l.393-1.2a2.266,2.266,0,0,0,1.309.122c.229-.065.48-.182.425-.375-.048-.167-.186-.179-.322-.185-.06,0-.112,0-.178,0H234.6a1.339,1.339,0,0,1-1.406-.963,1.626,1.626,0,0,1,.962-1.908l-.13-.458.977-.278.129.451a2.842,2.842,0,0,1,1.306.085l-.485,1.165a1.719,1.719,0,0,0-1.011-.049c-.285.081-.447.195-.4.375s.219.162.373.149c.315-.024.614,0,.935,0a1.349,1.349,0,0,1,1.471.93,1.57,1.57,0,0,1-.906,1.869" transform="translate(-129.446 -216.858)" fill="#3a201e"/>
          <path id="Trazado_1012832" data-name="Trazado 1012832" d="M110.033,336.776l.089.534-1,.167-.08-.484a3.125,3.125,0,0,1-1.678-.247l.525-1.147a2.271,2.271,0,0,0,1.286.268c.235-.039.5-.127.465-.326-.028-.171-.164-.2-.3-.221-.059-.005-.111-.011-.177-.015l-.782-.089a1.34,1.34,0,0,1-1.289-1.115,1.624,1.624,0,0,1,1.172-1.787l-.078-.47,1-.167.077.463a2.845,2.845,0,0,1,1.288.232l-.613,1.1a1.719,1.719,0,0,0-1-.163c-.292.049-.466.143-.435.329.028.17.2.186.353.19.316.013.61.067.93.1a1.35,1.35,0,0,1,1.357,1.09,1.569,1.569,0,0,1-1.111,1.755" transform="translate(-59.448 -184.157)" fill="#3a201e"/>
          <path id="Trazado_1012833" data-name="Trazado 1012833" d="M115.66,360.706l.089.534-1,.167-.08-.484a3.122,3.122,0,0,1-1.678-.247l.525-1.147a2.271,2.271,0,0,0,1.286.268c.235-.039.5-.127.465-.326-.028-.171-.164-.2-.3-.22-.059-.006-.111-.011-.177-.015l-.782-.089a1.34,1.34,0,0,1-1.288-1.116,1.624,1.624,0,0,1,1.172-1.787l-.078-.47,1-.167.077.463a2.845,2.845,0,0,1,1.288.232l-.613,1.1a1.719,1.719,0,0,0-1-.163c-.292.048-.466.143-.435.329.028.17.2.186.353.19.316.013.61.067.93.1a1.349,1.349,0,0,1,1.357,1.09,1.569,1.569,0,0,1-1.111,1.755" transform="translate(-62.572 -197.444)" fill="#3a201e"/>
          <path id="Trazado_1012834" data-name="Trazado 1012834" d="M123.138,387.918l.089.534-1,.167-.08-.484a3.125,3.125,0,0,1-1.678-.247l.525-1.147a2.272,2.272,0,0,0,1.286.268c.235-.039.5-.127.465-.326-.028-.171-.164-.2-.3-.221-.059-.005-.111-.011-.177-.015l-.782-.089a1.34,1.34,0,0,1-1.288-1.116,1.624,1.624,0,0,1,1.172-1.787l-.078-.47,1-.167.077.463a2.845,2.845,0,0,1,1.288.232l-.613,1.1a1.719,1.719,0,0,0-1-.163c-.292.048-.466.143-.435.329.028.17.2.186.353.19.316.013.61.067.93.1a1.35,1.35,0,0,1,1.357,1.09,1.569,1.569,0,0,1-1.111,1.755" transform="translate(-66.724 -212.553)" fill="#3a201e"/>
          <path id="Trazado_1012835" data-name="Trazado 1012835" d="M130.975,415.7l.089.534-1,.167-.08-.484a3.129,3.129,0,0,1-1.678-.247l.525-1.147a2.268,2.268,0,0,0,1.286.269c.235-.039.5-.127.465-.326-.028-.171-.164-.2-.3-.221-.059-.005-.111-.011-.177-.015l-.782-.089a1.34,1.34,0,0,1-1.288-1.115,1.624,1.624,0,0,1,1.172-1.787l-.078-.47,1-.167.077.463a2.846,2.846,0,0,1,1.288.232l-.613,1.1a1.719,1.719,0,0,0-1-.163c-.292.049-.466.143-.435.329.028.17.2.186.353.189.316.013.61.067.93.1a1.35,1.35,0,0,1,1.357,1.09,1.569,1.569,0,0,1-1.111,1.755" transform="translate(-71.076 -227.98)" fill="#3a201e"/>
          <path id="Trazado_1012836" data-name="Trazado 1012836" d="M214.948,312.627c-.02-.074.129-.217.471-.236a1.472,1.472,0,0,1,.6.11,2.05,2.05,0,0,1,.672.447,3.594,3.594,0,0,1,.563.732,5.857,5.857,0,0,1,.453.911,2.735,2.735,0,0,1,.185,1.27,1.919,1.919,0,0,1-.794,1.348,1.539,1.539,0,0,1-.859.289,1.494,1.494,0,0,1-.852-.254,2.572,2.572,0,0,1-.828-1,4.327,4.327,0,0,1-.513-1.868,2.364,2.364,0,0,1,.306-1.292c.174-.268.337-.357.4-.316.155.093-.075.657.15,1.506a4.79,4.79,0,0,0,.632,1.409,1.686,1.686,0,0,0,.493.554.3.3,0,0,0,.367-.026.786.786,0,0,0,.308-.5,1.815,1.815,0,0,0-.068-.761,7.291,7.291,0,0,0-.285-.8,3.94,3.94,0,0,0-.318-.632,1.8,1.8,0,0,0-.7-.649c-.21-.112-.371-.146-.388-.233" transform="translate(-118.844 -173.448)" fill="#3a201e"/>
          <path id="Trazado_1012837" data-name="Trazado 1012837" d="M223.34,309.748c-.036-.02-.052-.08-.028-.179a.79.79,0,0,1,.233-.37,1.372,1.372,0,0,1,.623-.331,1.632,1.632,0,0,1,.964.073,2.213,2.213,0,0,1,.917.684,3.082,3.082,0,0,1,.558,1.128,5.833,5.833,0,0,1,.189,1.276,3.069,3.069,0,0,1-.282,1.509,1.917,1.917,0,0,1-.6.7,1.3,1.3,0,0,1-.547.224,1.136,1.136,0,0,1-.593-.074,2.364,2.364,0,0,1-.663-.454,4.545,4.545,0,0,1-.449-.478,4.244,4.244,0,0,1-.882-2.01,3.25,3.25,0,0,1,.086-1.446c.1-.326.237-.478.312-.459s.115.2.162.5a5.957,5.957,0,0,0,.281,1.2,4.243,4.243,0,0,0,.894,1.476,4.066,4.066,0,0,0,.358.329,1.687,1.687,0,0,0,.317.214c.013-.008-.012,0,.024-.021a.777.777,0,0,0,.211-.262,2.135,2.135,0,0,0,.171-.929,6.023,6.023,0,0,0-.087-1.036,1.881,1.881,0,0,0-.748-1.292,1.064,1.064,0,0,0-.512-.176,1.3,1.3,0,0,0-.447.051c-.249.074-.386.194-.464.15" transform="translate(-123.672 -171.47)" fill="#3a201e"/>
          <path id="Trazado_1012838" data-name="Trazado 1012838" d="M234,362.891c-.044-.06.087-.285.5-.447a2.148,2.148,0,0,1,1.83.231,2.951,2.951,0,0,1,.925.924,4.021,4.021,0,0,1,.545,1.357,3.508,3.508,0,0,1-.037,1.672,2.468,2.468,0,0,1-1.206,1.524,2.19,2.19,0,0,1-1.023.263,1.919,1.919,0,0,1-1.028-.3,2.919,2.919,0,0,1-1.065-1.369,5.226,5.226,0,0,1-.37-2.582,4.262,4.262,0,0,1,.514-1.645c.209-.35.387-.5.459-.463s.048.26-.011.625a7.368,7.368,0,0,0-.1,1.515,5.251,5.251,0,0,0,.531,2.082,1.948,1.948,0,0,0,.668.817.741.741,0,0,0,.393.1,1.035,1.035,0,0,0,.454-.125,1.316,1.316,0,0,0,.634-.791,2.585,2.585,0,0,0,.075-1.131,2.845,2.845,0,0,0-.861-1.772,1.984,1.984,0,0,0-1.238-.468c-.337-.008-.546.056-.594-.02" transform="translate(-129.392 -201.021)" fill="#3a201e"/>
          <path id="Trazado_1012839" data-name="Trazado 1012839" d="M242.106,361.411c-.041,0-.083-.044-.113-.147a.766.766,0,0,1,.053-.457,1.352,1.352,0,0,1,.46-.564,1.891,1.891,0,0,1,.893-.356,2.714,2.714,0,0,1,2.254.829,2.628,2.628,0,0,1,.7,1.34,2.152,2.152,0,0,1-.364,1.695,1.928,1.928,0,0,1-.728.6,1.741,1.741,0,0,1-.941.152,2.151,2.151,0,0,1-1.393-.8,3.041,3.041,0,0,1-.561-1.171,5.594,5.594,0,0,1-.156-1.014,2.832,2.832,0,0,1,.247-1.493c.175-.329.366-.435.431-.392s.036.231.026.527a4.1,4.1,0,0,0,.152,1.229,3.742,3.742,0,0,0,.714,1.576,1.081,1.081,0,0,0,.663.341.645.645,0,0,0,.567-.29,1,1,0,0,0,.164-.761,1.614,1.614,0,0,0-.354-.787,2,2,0,0,0-1.374-.721,1.44,1.44,0,0,0-.594.085,1.238,1.238,0,0,0-.4.228c-.194.165-.252.347-.342.348" transform="translate(-134.354 -199.675)" fill="#3a201e"/>
          <path id="Trazado_1012840" data-name="Trazado 1012840" d="M244.094,389c-.039,0-.089-.049-.1-.167a.677.677,0,0,1,.17-.484,1.176,1.176,0,0,1,.713-.395,1.247,1.247,0,0,1,.546.032,1.725,1.725,0,0,1,.518.245,3.357,3.357,0,0,1,.808.849,6.521,6.521,0,0,1,.64,1.087,3.823,3.823,0,0,1,.354,1.461,2.784,2.784,0,0,1-.469,1.675,1.691,1.691,0,0,1-.386.4,1.4,1.4,0,0,1-.566.238,1.745,1.745,0,0,1-1.014-.147,2.578,2.578,0,0,1-.7-.475,2.974,2.974,0,0,1-.493-.586,3.9,3.9,0,0,1-.519-1.23,5.374,5.374,0,0,1-.145-1.094,5.825,5.825,0,0,1,.038-.891,2.4,2.4,0,0,1,.181-.685c.173-.371.393-.482.452-.432s.013.24.01.548a6.848,6.848,0,0,0,.179,1.359,4.482,4.482,0,0,0,.729,1.777,2.041,2.041,0,0,0,.343.357,1.532,1.532,0,0,0,.4.249.592.592,0,0,0,.318.051c.053-.015.085-.027.175-.145a1.716,1.716,0,0,0,.269-.952,3,3,0,0,0-.2-1.047,7.242,7.242,0,0,0-.456-.975,3.093,3.093,0,0,0-.486-.711,1.1,1.1,0,0,0-.25-.194.592.592,0,0,0-.232-.08.835.835,0,0,0-.444.069c-.233.1-.294.293-.383.295" transform="translate(-135.17 -215.392)" fill="#ca922c"/>
          <path id="Trazado_1012841" data-name="Trazado 1012841" d="M253.224,387.728c-.073-.036-.074-.244.038-.6a2.334,2.334,0,0,1,.315-.631,1.689,1.689,0,0,1,.844-.636,1.83,1.83,0,0,1,1.328.111A2.355,2.355,0,0,1,256.822,387a3.288,3.288,0,0,1,.347,1.5,5.339,5.339,0,0,1-.05.761,6.422,6.422,0,0,1-.146.767,1.566,1.566,0,0,1-1.59,1.3,1.623,1.623,0,0,1-.886-.461,4.074,4.074,0,0,1-.494-.534,4.126,4.126,0,0,1-.863-2.277,3.132,3.132,0,0,1,.08-.948,1.242,1.242,0,0,1,.419-.68.714.714,0,0,1,.478-.165c.118.012.169.059.17.1,0,.086-.182.155-.3.391a.969.969,0,0,0-.091.46,3.521,3.521,0,0,0,.1.725,3.835,3.835,0,0,0,.874,1.675,3.4,3.4,0,0,0,.389.368.564.564,0,0,0,.257.155.359.359,0,0,0,.11-.079.844.844,0,0,0,.165-.352c.047-.175.089-.411.121-.614a4.761,4.761,0,0,0,.057-.6,2.373,2.373,0,0,0-.162-1,1.424,1.424,0,0,0-.531-.623,1.012,1.012,0,0,0-.642-.171,1.71,1.71,0,0,0-.959.664c-.225.254-.375.4-.453.364" transform="translate(-140.549 -214.2)" fill="#ca922c"/>
          <path id="Trazado_1012842" data-name="Trazado 1012842" d="M223.22,335.684c-.042-.063.065-.255.414-.341a1.3,1.3,0,0,1,.632.023,1.95,1.95,0,0,1,.723.4,4.41,4.41,0,0,1,.619.664,4.173,4.173,0,0,1,.55.908,2.6,2.6,0,0,1,.218,1.293,2.143,2.143,0,0,1-.674,1.357,1.7,1.7,0,0,1-.762.4,1.725,1.725,0,0,1-.824-.016,2.116,2.116,0,0,1-1.152-.789,2.681,2.681,0,0,1-.457-1.057,4.149,4.149,0,0,1-.077-.9c.026-1.068.3-1.679.457-1.655.174.021.217.647.4,1.58a2.855,2.855,0,0,0,.552,1.331,1.08,1.08,0,0,0,.555.329.524.524,0,0,0,.487-.129,1.045,1.045,0,0,0,.3-.6,1.662,1.662,0,0,0-.082-.741,5.571,5.571,0,0,0-.73-1.365,1.422,1.422,0,0,0-.733-.554c-.217-.07-.379-.057-.422-.135" transform="translate(-123.499 -186.177)" fill="#3a201e"/>
          <path id="Trazado_1012843" data-name="Trazado 1012843" d="M231.751,332.8c-.038-.014-.065-.071-.048-.174a.658.658,0,0,1,.243-.37,1.077,1.077,0,0,1,.676-.23,1.94,1.94,0,0,1,.858.219,3.511,3.511,0,0,1,1.564,1.463,2.923,2.923,0,0,1,.352,1.315,2.611,2.611,0,0,1-.4,1.468,1.935,1.935,0,0,1-.617.614,1.486,1.486,0,0,1-.936.212,2.18,2.18,0,0,1-1.289-.718,4.834,4.834,0,0,1-1.07-1.761,3.634,3.634,0,0,1-.209-1.346c.022-.322.1-.5.178-.5.181-.014.322.64.82,1.493a5.421,5.421,0,0,0,1.065,1.305,1.194,1.194,0,0,0,.619.335.3.3,0,0,0,.185-.056.811.811,0,0,0,.226-.24,1.55,1.55,0,0,0,.227-.8,1.993,1.993,0,0,0-.164-.824,3.193,3.193,0,0,0-1-1.22,1.076,1.076,0,0,0-.864-.313c-.222.034-.34.154-.422.125" transform="translate(-128.188 -184.353)" fill="#3a201e"/>
          <path id="Trazado_1012844" data-name="Trazado 1012844" d="M60.848,340.529c-.043-.073.134-.263.494-.547a7.384,7.384,0,0,1,.678-.483c.274-.171.586-.37.943-.568s.752-.408,1.188-.607.9-.416,1.408-.606c.5-.206,1.038-.384,1.594-.572.561-.171,1.143-.349,1.747-.5a37.271,37.271,0,0,1,6.246-.994c1.608-.117,2.61-.1,2.634.069s-.942.452-2.51.787-3.734.732-6.07,1.323c-.586.142-1.15.306-1.7.456-.542.167-1.069.316-1.561.486-.5.155-.962.329-1.4.482s-.837.32-1.212.454l-1,.393-.762.291c-.424.152-.681.2-.724.13" transform="translate(-33.781 -186.326)" fill="#3a201e"/>
          <path id="Trazado_1012845" data-name="Trazado 1012845" d="M63.316,345.962c-.063-.151.785-.68,2.249-1.334a39.961,39.961,0,0,1,12.088-3.092,15.788,15.788,0,0,1,1.9-.064c.451.02.7.07.713.154s-.226.193-.656.318-1.055.274-1.827.447c-1.543.344-3.668.807-5.993,1.4s-4.41,1.21-5.93,1.648-2.479.682-2.545.521" transform="translate(-35.153 -189.591)" fill="#3a201e"/>
          <path id="Trazado_1012846" data-name="Trazado 1012846" d="M66.8,366.09c-.064-.151.8-.694,2.284-1.375A39.359,39.359,0,0,1,81.4,361.494c1.63-.134,2.646-.082,2.664.081s-.959.424-2.533.774-3.742.82-6.109,1.438-4.486,1.272-6.031,1.738-2.521.725-2.589.565" transform="translate(-37.089 -200.67)" fill="#3a201e"/>
          <path id="Trazado_1012847" data-name="Trazado 1012847" d="M86.138,367.52c.018.172-.95.418-2.51.764s-3.714.8-6.079,1.349-4.487,1.108-6.018,1.538c-.769.207-1.388.386-1.826.49s-.7.13-.733.053.161-.248.549-.492a12.956,12.956,0,0,1,1.722-.866,36.9,36.9,0,0,1,6.027-1.913,43.906,43.906,0,0,1,6.229-1.013c1.613-.13,2.622-.072,2.638.092" transform="translate(-38.294 -203.968)" fill="#3a201e"/>
          <path id="Trazado_1012848" data-name="Trazado 1012848" d="M94.8,388.056c.015.17-.93.4-2.46.66s-3.639.566-5.934,1c-.572.118-1.131.225-1.666.351s-1.047.254-1.538.369c-.481.143-.949.251-1.371.394l-.619.19-.563.2c-.363.117-.682.242-.966.351s-.534.193-.733.275c-.4.153-.654.207-.7.136s.118-.261.463-.548a4.934,4.934,0,0,1,.661-.472,8.643,8.643,0,0,1,.933-.535l.559-.28.621-.266c.428-.192.9-.342,1.4-.52.5-.15,1.024-.322,1.576-.453.549-.146,1.124-.265,1.713-.387a38.961,38.961,0,0,1,6.081-.664c1.562-.042,2.53.034,2.545.2" transform="translate(-43.442 -215.343)" fill="#3a201e"/>
          <path id="Trazado_1012849" data-name="Trazado 1012849" d="M97.093,393.281c0,.084-.242.182-.685.287l-.806.178-1.063.221c-.393.081-.822.171-1.281.279s-.948.224-1.463.343c-.512.135-1.053.263-1.607.421s-1.13.318-1.718.485c-2.347.7-4.453,1.415-5.994,1.909s-2.52.757-2.587.6.794-.7,2.267-1.4a41.605,41.605,0,0,1,5.968-2.279c.6-.172,1.19-.338,1.766-.472s1.134-.254,1.666-.362c.537-.092,1.044-.186,1.526-.241s.928-.109,1.339-.137.783-.041,1.111-.044a7.212,7.212,0,0,1,.84.028c.462.04.717.1.721.187" transform="translate(-44.355 -218.241)" fill="#3a201e"/>
          <path id="Trazado_1012850" data-name="Trazado 1012850" d="M81.982,418.953c-.042-.073.14-.265.51-.552a7.411,7.411,0,0,1,.7-.485c.282-.172.6-.382.968-.571a21.637,21.637,0,0,1,2.663-1.216c.517-.19,1.063-.389,1.639-.555s1.176-.33,1.794-.48a34.806,34.806,0,0,1,6.415-.823c1.65-.052,2.672.032,2.685.2s-.987.393-2.6.664-3.83.608-6.227,1.155c-.6.145-1.181.283-1.737.44s-1.092.314-1.6.468c-1.015.32-1.916.649-2.671.938-.383.134-.716.285-1.021.395l-.779.294c-.433.155-.7.207-.737.133" transform="translate(-45.515 -230.007)" fill="#3a201e"/>
          <path id="Trazado_1012851" data-name="Trazado 1012851" d="M102.032,421.9c.018.172-.971.42-2.566.763s-3.795.79-6.206,1.353-4.572,1.149-6.134,1.594c-.782.219-1.418.4-1.865.5s-.713.13-.747.053.169-.249.566-.493a14.255,14.255,0,0,1,1.756-.878,37.152,37.152,0,0,1,6.145-1.97,43.49,43.49,0,0,1,6.361-1.018c1.647-.126,2.674-.07,2.69.093" transform="translate(-46.922 -234.16)" fill="#3a201e"/>
          <path id="Trazado_1012852" data-name="Trazado 1012852" d="M197.72,373.278c0,.085-.232.174-.644.265-.205.05-.456.077-.745.151l-.978.2-1.174.285c-.418.125-.867.232-1.333.378s-.958.288-1.458.471c-.505.165-1.02.361-1.549.559s-1.04.407-1.531.614-.964.41-1.41.615-.866.405-1.265.584c-.388.2-.762.364-1.089.537-.667.329-1.194.615-1.568.8-.193.089-.328.169-.441.206s-.182.047-.211.016-.012-.1.049-.2a2.113,2.113,0,0,1,.316-.4,9.436,9.436,0,0,1,1.41-1.164c.311-.228.669-.443,1.05-.687.39-.224.8-.476,1.253-.7s.924-.471,1.425-.7,1.029-.448,1.574-.659,1.086-.4,1.616-.556c.524-.173,1.046-.3,1.538-.42s.974-.2,1.417-.282c.45-.063.87-.107,1.253-.147.386-.022.736-.027,1.042-.03a5.212,5.212,0,0,1,.786.054c.431.055.664.126.664.211" transform="translate(-101.225 -207.107)" fill="#3a201e"/>
          <path id="Trazado_1012853" data-name="Trazado 1012853" d="M200.754,379.862c.014.083-.2.206-.6.354l-.717.259-.948.328c-1.4.479-3.317,1.2-5.425,2.057s-4.03,1.634-5.458,2.122-2.35.7-2.412.54.739-.643,2.071-1.335,3.2-1.594,5.341-2.461a31.042,31.042,0,0,1,5.66-1.759c.373-.076.716-.124,1.018-.159a6.112,6.112,0,0,1,.778-.059c.431-.007.672.03.686.113" transform="translate(-102.826 -210.848)" fill="#3a201e"/>
          <path id="Trazado_1012854" data-name="Trazado 1012854" d="M179.693,320.463c0,.085-.217.172-.6.257-.193.047-.428.077-.7.135s-.58.114-.92.172l-1.107.225-1.261.289c-.439.123-.906.224-1.381.367s-.97.277-1.47.439a46.719,46.719,0,0,0-5.032,1.915c-.315.14-.6.27-.844.39s-.455.223-.636.3-.307.151-.415.182-.173.039-.2.008-.015-.1.041-.194a1.852,1.852,0,0,1,.294-.379,5.33,5.33,0,0,1,.552-.5,9.03,9.03,0,0,1,.792-.569,21.178,21.178,0,0,1,5.079-2.324c.52-.169,1.035-.31,1.535-.432s.991-.215,1.454-.311c.469-.073.914-.141,1.333-.188s.812-.069,1.17-.083.684,0,.969.005a6.336,6.336,0,0,1,.73.072c.4.061.618.134.618.219" transform="translate(-91.674 -177.765)" fill="#3a201e"/>
          <path id="Trazado_1012855" data-name="Trazado 1012855" d="M187.259,345.111c0,.084-.23.173-.639.262-.2.049-.454.076-.742.146s-.614.124-.974.192l-1.172.262c-.417.113-.866.214-1.333.345s-.958.261-1.459.429c-.507.151-1.024.327-1.554.509s-1.043.373-1.538.56-.97.374-1.418.564-.872.373-1.273.538c-.39.182-.766.337-1.095.5-.671.306-1.2.576-1.571.754-.193.083-.326.162-.439.2s-.181.045-.21.013-.012-.1.049-.2a2,2,0,0,1,.319-.4,8.735,8.735,0,0,1,1.428-1.124c.316-.217.677-.421,1.063-.651.393-.21.81-.447,1.265-.659s.933-.436,1.436-.649,1.033-.412,1.582-.6,1.088-.362,1.618-.5c.524-.157,1.044-.263,1.534-.375s.969-.172,1.41-.246c.447-.051.864-.09,1.243-.122.383-.015.729-.017,1.032-.016a5.579,5.579,0,0,1,.778.06c.427.057.658.129.658.214" transform="translate(-95.404 -191.464)" fill="#3a201e"/>
          <path id="Trazado_1012856" data-name="Trazado 1012856" d="M183.12,326.382c.014.083-.193.2-.573.346s-.934.323-1.616.539c-1.365.43-3.236,1.043-5.3,1.769s-3.93,1.4-5.309,1.835-2.264.629-2.327.472.706-.633,2.005-1.275a49.268,49.268,0,0,1,5.225-2.186,32.006,32.006,0,0,1,5.5-1.457,11.46,11.46,0,0,1,1.727-.166c.414,0,.646.039.66.122" transform="translate(-93.276 -181.149)" fill="#3a201e"/>
          <path id="Trazado_1012857" data-name="Trazado 1012857" d="M189.51,350.728c.052.162-.776.584-2.142,1.161s-3.267,1.315-5.35,2.152-3.944,1.638-5.288,2.235c-.674.3-1.223.533-1.611.684s-.628.2-.673.129.109-.258.429-.537a12,12,0,0,1,1.45-1.039,33.446,33.446,0,0,1,5.237-2.605,46.091,46.091,0,0,1,5.531-1.837c1.445-.37,2.367-.5,2.418-.341" transform="translate(-96.853 -194.697)" fill="#3a201e"/>
          <path id="Trazado_1012858" data-name="Trazado 1012858" d="M191.187,409.765c-.068-.151.7-.69,2.021-1.44a40.141,40.141,0,0,1,5.384-2.505c.546-.2,1.083-.393,1.608-.56s1.034-.32,1.528-.439.964-.23,1.409-.312.867-.135,1.249-.183a9.345,9.345,0,0,1,1.043-.061,4.293,4.293,0,0,1,.791.036c.434.053.668.123.668.207s-.233.176-.641.268c-.2.042-.453.092-.74.169s-.613.126-.97.233-.751.185-1.167.318-.864.25-1.329.408-.954.318-1.459.492-1.025.37-1.558.568c-2.128.805-4.04,1.6-5.448,2.144s-2.319.814-2.389.657" transform="translate(-106.15 -224.458)" fill="#3a201e"/>
          <path id="Trazado_1012859" data-name="Trazado 1012859" d="M188.18,402.392c-.042-.073.124-.257.466-.53a12,12,0,0,1,1.54-1,33.734,33.734,0,0,1,5.518-2.407,41.817,41.817,0,0,1,5.8-1.554c1.514-.278,2.474-.324,2.509-.163s-.851.512-2.291,1-3.435,1.126-5.62,1.873-4.137,1.478-5.544,2.032c-.707.27-1.277.5-1.683.636s-.652.185-.694.112" transform="translate(-104.48 -220.23)" fill="#3a201e"/>
          <path id="Trazado_1012860" data-name="Trazado 1012860" d="M49.471,379.973,37.426,330.39s24.448-10.492,45.265-7.071c-8.02-4.9-36.831-.646-48.845,7.071l12.013,52.277s27.912-5.092,52.264-10.424c0,0-16.3-1.569-48.653,7.73" transform="translate(-18.792 -178.354)" fill="#3a201e"/>
          <path id="Trazado_1012861" data-name="Trazado 1012861" d="M311.852,256.167c3.154,12.379,11.885,28.449,13.661,28.136,12.578-2.219,34.693-9.8,34.588-13.7-3.07-5.887-26.55-29.651-26.55-29.651-11.878-9.855-25.305,1.06-21.7,15.214" transform="translate(-172.818 -131.682)" fill="#a9e0ff"/>
          <path id="Trazado_1012862" data-name="Trazado 1012862" d="M269.14,329.6l1.081,1.707s-22.745,5.183-26.539,4.5-12.768-6.045-15.587-6.2-5.356,3.968-5.356,3.968-9.909,3.642-12.5,5.27c-3.212,2.017-9.17,5.708-7.451,7.6s6.8-1.1,8.868-1.1,5.866.111,5.866.111,2.208,18.007,9.3,19.038,19.588-5.18,23.713-4.836,50.884,4.952,57.282-7.264c4.354-8.316-11.551-31.633-11.551-31.633A121.4,121.4,0,0,1,269.14,329.6" transform="translate(-112.424 -178.089)" fill="#844c3d"/>
          <path id="Trazado_1012863" data-name="Trazado 1012863" d="M226.1,374.781q-.005.037-.408-.017a2.03,2.03,0,0,1-.49-.108,3.556,3.556,0,0,1-.65-.248l-.377-.186c-.127-.075-.254-.164-.39-.253a7.238,7.238,0,0,1-.834-.66,11.5,11.5,0,0,1-1.671-2.027,26.3,26.3,0,0,1-2.907-6.454c-.417-1.307-.8-2.718-1.15-4.224-.175-.752-.335-1.528-.488-2.328l-.218-1.216-.137-.843-3.35-.035-1.963-.024a6.056,6.056,0,0,0-1.816.371,41.581,41.581,0,0,1-4.062,1.233,5.323,5.323,0,0,1-2.41.03,2.3,2.3,0,0,1-1.2-.764,1.694,1.694,0,0,1-.356-.744,1.873,1.873,0,0,1,.029-.8,3.478,3.478,0,0,1,.6-1.2,8.192,8.192,0,0,1,.8-.922,18.291,18.291,0,0,1,1.793-1.544c1.248-.956,2.571-1.821,3.916-2.675.343-.213.66-.425,1.025-.638s.733-.4,1.1-.593q1.1-.54,2.233-1.027c1.5-.654,3.036-1.274,4.589-1.886l2.262-.875,2.054-.772.3-.428c.142-.194.286-.386.437-.571a12.594,12.594,0,0,1,.958-1.069,7.5,7.5,0,0,1,2.4-1.686,3.907,3.907,0,0,1,.743-.225,3.166,3.166,0,0,1,.389-.068l.4-.015a4.46,4.46,0,0,1,.769.085c.245.047.462.119.693.178a23.7,23.7,0,0,1,2.516.952c3.2,1.4,6.149,2.95,9.042,4.138a21.638,21.638,0,0,0,2.145.764,6.241,6.241,0,0,0,1.019.2c.349.019.71.016,1.072,0,1.457-.072,2.893-.252,4.272-.443,2.762-.388,5.324-.84,7.658-1.257,4.665-.848,8.415-1.6,11-2.092l.916-.175.652-.119.14-.025.069-.012c.009,0,.029,0,.029-.009l-.015-.026-.115-.208-.225-.409a3.7,3.7,0,0,1-.466-.954c.034-.022.261.264.664.829l.4.572.243.36.032.048c0,.012-.029.011-.042.017l-.107.028-.223.057-1.851.468c-2.562.633-6.289,1.507-10.945,2.464-2.33.472-4.89.975-7.672,1.411-1.393.215-2.836.419-4.367.515-.385.017-.778.028-1.188.009a7.12,7.12,0,0,1-1.231-.222,22.184,22.184,0,0,1-2.274-.78c-2.977-1.188-5.945-2.722-9.1-4.071a22.859,22.859,0,0,0-2.386-.892c-.2-.048-.4-.115-.59-.149a3.251,3.251,0,0,0-.55-.06l-.265.01a1.98,1.98,0,0,0-.268.05,2.716,2.716,0,0,0-.537.165,6.359,6.359,0,0,0-1.994,1.428,11.542,11.542,0,0,0-.866.972c-.138.17-.27.346-.4.523l-.189.27-.11.164-.18.282-2.426.912-2.25.872c-1.544.608-3.067,1.223-4.55,1.865q-1.114.479-2.18,1c-.348.177-.7.352-1.016.543s-.673.415-1,.62c-1.337.841-2.639,1.686-3.841,2.6a17.421,17.421,0,0,0-1.685,1.431,4.085,4.085,0,0,0-1.1,1.563.558.558,0,0,0,.1.548,1.171,1.171,0,0,0,.624.39,4.322,4.322,0,0,0,1.88-.034c1.333-.264,2.635-.761,3.962-1.163.334-.1.671-.2,1.023-.273.177-.037.356-.072.544-.094a3.48,3.48,0,0,1,.566-.026l1.973.051,4.188.108q.067.52.133,1.033.045.308.088.612l.193,1.2c.136.789.279,1.559.436,2.3.31,1.49.659,2.888,1.035,4.183a27.332,27.332,0,0,0,2.627,6.389,11.868,11.868,0,0,0,1.5,2.02,7.47,7.47,0,0,0,.749.674c.123.093.236.187.35.267l.34.2a3.948,3.948,0,0,0,.591.3,2.455,2.455,0,0,0,.451.17c.248.08.378.133.374.158" transform="translate(-111.71 -188.389)" fill="#3a201e"/>
          <path id="Trazado_1012864" data-name="Trazado 1012864" d="M413.319,320.743c.138-.094,1.457,1.566,3.3,4.447A80.628,80.628,0,0,1,422.87,337a42.234,42.234,0,0,1,2.314,7.039,17.567,17.567,0,0,1,.426,6.1,8.368,8.368,0,0,1-.637,2.308,6.018,6.018,0,0,1-.979,1.525c-.682.731-1.2.948-1.234.893-.063-.078.345-.427.858-1.184a7.421,7.421,0,0,0,1.132-3.633,18.579,18.579,0,0,0-.663-5.751,48.657,48.657,0,0,0-2.346-6.825,126.551,126.551,0,0,0-5.868-11.843c-1.638-2.973-2.695-4.793-2.554-4.888" transform="translate(-229.48 -178.084)" fill="#3a201e"/>
          <path id="Trazado_1012865" data-name="Trazado 1012865" d="M353.133,331.253c.028.08-.509.346-1.506.762-.5.207-1.113.454-1.829.729l-2.46.858c-3.66,1.233-8.8,2.694-14.538,4s-10.994,2.221-14.81,2.779-6.2.739-6.225.572,2.307-.656,6.076-1.425,8.972-1.822,14.688-3.12,10.853-2.615,14.557-3.63l2.5-.681c.733-.212,1.365-.391,1.886-.529a4.6,4.6,0,0,1,1.66-.311" transform="translate(-173.101 -183.908)" fill="#3a201e"/>
          <path id="Trazado_1012866" data-name="Trazado 1012866" d="M307.5,377.476l-4.607-.458a1.666,1.666,0,0,1-1.5-1.543l-1.569-22.893a2.391,2.391,0,0,1,2.237-2.536l4.4-.276a2.391,2.391,0,0,1,2.541,2.353l.322,23.672a1.666,1.666,0,0,1-1.83,1.68" transform="translate(-166.472 -194.2)" fill="#3a201e"/>
          <path id="Trazado_1012867" data-name="Trazado 1012867" d="M310.471,382.938a5.21,5.21,0,1,1-5.21-5.21,5.21,5.21,0,0,1,5.21,5.21" transform="translate(-166.598 -209.726)" fill="#f1e3d3"/>
          <circle id="Elipse_12048" data-name="Elipse 12048" cx="5.21" cy="5.21" r="5.21" transform="matrix(0.999, -0.038, 0.038, 0.999, 133.258, 168.206)" fill="none" stroke="#3a201e" stroke-miterlimit="10" stroke-width="2"/>
          <path id="Trazado_1012868" data-name="Trazado 1012868" d="M308.311,386.366l1.536,2.448,2.871-2.248" transform="translate(-171.184 -214.522)" fill="none" stroke="#3a201e" stroke-miterlimit="10" stroke-width="2"/>
        </g>
      </g>
    </g>
  </g>
</svg>
