<svg xmlns="http://www.w3.org/2000/svg" xmlns:xlink="http://www.w3.org/1999/xlink" width="113" height="113" viewBox="0 0 113 113">
  <defs>
    <filter id="Trazado_982547" x="0" y="0" width="113" height="113" filterUnits="userSpaceOnUse">
      <feOffset dy="3" input="SourceAlpha"/>
      <feGaussianBlur stdDeviation="3" result="blur"/>
      <feFlood flood-opacity="0.161"/>
      <feComposite operator="in" in2="blur"/>
      <feComposite in="SourceGraphic"/>
    </filter>
  </defs>
  <g id="Grupo_1171446" data-name="Grupo 1171446" transform="translate(-171.701 -9626)">
    <g id="Grupo_1168771" data-name="Grupo 1168771" transform="translate(0.214 8595.386)">
      <g id="Grupo_1168178" data-name="Grupo 1168178" transform="translate(180.487 1036.614)">
        <g id="Grupo_1166845" data-name="Grupo 1166845" transform="translate(0)">
          <g id="Grupo_1166720" data-name="Grupo 1166720">
            <g id="Grupo_1164305" data-name="Grupo 1164305">
              <g id="Grupo_1163948" data-name="Grupo 1163948">
                <g id="Grupo_1158168" data-name="Grupo 1158168">
                  <g id="Grupo_1152576" data-name="Grupo 1152576">
                    <g id="Grupo_1148633" data-name="Grupo 1148633">
                      <g id="Grupo_1148525" data-name="Grupo 1148525">
                        <g transform="matrix(1, 0, 0, 1, -9, -6)" filter="url(#Trazado_982547)">
                          <g id="Trazado_982547-2" data-name="Trazado 982547" transform="translate(9 6)" fill="#f5fdfa">
                            <path d="M 47.5 93.5 C 41.28937149047852 93.5 35.26533508300781 92.28397369384766 29.59518623352051 89.88570404052734 C 24.11771965026855 87.56893157958984 19.19813346862793 84.25196075439453 14.97309303283691 80.02691650390625 C 10.74804019927979 75.80186462402344 7.431066513061523 70.88229370117188 5.114293098449707 65.40481567382812 C 2.716026782989502 59.73468017578125 1.5 53.71062850952148 1.5 47.5 C 1.5 41.28937149047852 2.716026782989502 35.26533508300781 5.114293098449707 29.59518623352051 C 7.431066513061523 24.11771965026855 10.74804019927979 19.19813346862793 14.97309303283691 14.97309303283691 C 19.19813346862793 10.74804019927979 24.11771965026855 7.431066513061523 29.59518623352051 5.114293098449707 C 35.26533508300781 2.716026782989502 41.28937149047852 1.5 47.5 1.5 C 53.71062850952148 1.5 59.73468017578125 2.716026782989502 65.40481567382812 5.114293098449707 C 70.88229370117188 7.431066513061523 75.80186462402344 10.74804019927979 80.02691650390625 14.97309303283691 C 84.25196075439453 19.19813346862793 87.56893157958984 24.11771965026855 89.88570404052734 29.59518623352051 C 92.28397369384766 35.26533508300781 93.5 41.28937149047852 93.5 47.5 C 93.5 53.71062850952148 92.28397369384766 59.73468017578125 89.88570404052734 65.40481567382812 C 87.56893157958984 70.88229370117188 84.25196075439453 75.80186462402344 80.02691650390625 80.02691650390625 C 75.80186462402344 84.25196075439453 70.88229370117188 87.56893157958984 65.40481567382812 89.88570404052734 C 59.73468017578125 92.28397369384766 53.71062850952148 93.5 47.5 93.5 Z" stroke="none"/>
                            <path d="M 47.5 3 C 41.49121475219727 3 35.66376876831055 4.176155090332031 30.17950439453125 6.495796203613281 C 24.88084411621094 8.736953735351562 20.12152099609375 11.94598388671875 16.03375244140625 16.03375244140625 C 11.94598388671875 20.12152099609375 8.736953735351562 24.88084411621094 6.495796203613281 30.17950439453125 C 4.176155090332031 35.66376876831055 3 41.49121475219727 3 47.5 C 3 53.50878524780273 4.176155090332031 59.33623123168945 6.495796203613281 64.82049560546875 C 8.736953735351562 70.11915588378906 11.94598388671875 74.87847900390625 16.03375244140625 78.96624755859375 C 20.12152099609375 83.05401611328125 24.88084411621094 86.26304626464844 30.17950439453125 88.50419616699219 C 35.66376876831055 90.82384490966797 41.49121475219727 92 47.5 92 C 53.50878524780273 92 59.33623123168945 90.82384490966797 64.82049560546875 88.50419616699219 C 70.11915588378906 86.26304626464844 74.87847900390625 83.05401611328125 78.96624755859375 78.96624755859375 C 83.05401611328125 74.87847900390625 86.26304626464844 70.11915588378906 88.50419616699219 64.82049560546875 C 90.82384490966797 59.33623123168945 92 53.50878524780273 92 47.5 C 92 41.49121475219727 90.82384490966797 35.66376876831055 88.50419616699219 30.17950439453125 C 86.26304626464844 24.88084411621094 83.05401611328125 20.12152099609375 78.96624755859375 16.03375244140625 C 74.87847900390625 11.94598388671875 70.11915588378906 8.736953735351562 64.82049560546875 6.495796203613281 C 59.33623123168945 4.176155090332031 53.50878524780273 3 47.5 3 M 47.5 0 C 73.7335205078125 0 95 21.2664794921875 95 47.5 C 95 73.7335205078125 73.7335205078125 95 47.5 95 C 21.2664794921875 95 0 73.7335205078125 0 47.5 C 0 21.2664794921875 21.2664794921875 0 47.5 0 Z" stroke="none" fill="#598475"/>
                          </g>
                        </g>
                      </g>
                    </g>
                  </g>
                </g>
              </g>
            </g>
          </g>
        </g>
      </g>
    </g>
    <g id="accounting_3_" data-name="accounting (3)" transform="translate(198.701 9650)">
      <g id="Grupo_1171444" data-name="Grupo 1171444" transform="translate(1.926 1.926)">
        <g id="Grupo_1171425" data-name="Grupo 1171425" transform="translate(27.783 42.6)">
          <path id="Trazado_1015480" data-name="Trazado 1015480" d="M38.483,48v6.483l-5.612,3.241A6.4,6.4,0,0,1,32,54.483,6.478,6.478,0,0,1,38.483,48Z" transform="translate(-32 -48)" fill="#fcd770"/>
        </g>
        <g id="Grupo_1171426" data-name="Grupo 1171426" transform="translate(34.265 42.6)">
          <path id="Trazado_1015481" data-name="Trazado 1015481" d="M45.483,54.483a6.4,6.4,0,0,1-.871,3.241L39,54.483V48A6.478,6.478,0,0,1,45.483,54.483Z" transform="translate(-39 -48)" fill="#69d6f4"/>
        </g>
        <g id="Grupo_1171427" data-name="Grupo 1171427" transform="translate(28.653 49.083)">
          <path id="Trazado_1015482" data-name="Trazado 1015482" d="M38.552,55l5.612,3.241a6.479,6.479,0,0,1-11.224,0Z" transform="translate(-32.94 -55)" fill="#b4dd7f"/>
        </g>
        <g id="Grupo_1171428" data-name="Grupo 1171428" transform="translate(0 0)">
          <path id="Trazado_1015483" data-name="Trazado 1015483" d="M14.965,7.557h-.926a4.632,4.632,0,0,0-4.63,4.63v.926a1.858,1.858,0,0,0-1.852,1.852v.157A1.858,1.858,0,0,0,8.1,16.438l1.306,1.306v4.63l-2.343-1.76A12.623,12.623,0,0,1,2,10.483a4.007,4.007,0,0,1,.769-2.371A4.064,4.064,0,0,1,4.778,6.63,5.754,5.754,0,0,1,10.427,2H18.67a3.7,3.7,0,0,1,3.7,3.7,3.713,3.713,0,0,1-3.7,3.7H16.817a1.866,1.866,0,0,1-1.852-1.852Z" transform="translate(-2 -2)" fill="#656d78"/>
        </g>
        <g id="Grupo_1171429" data-name="Grupo 1171429" transform="translate(22.226 16.67)">
          <path id="Trazado_1015484" data-name="Trazado 1015484" d="M26,20h5.557v7.409H26Z" transform="translate(-26 -20)" fill="#ffeaa7"/>
        </g>
        <g id="Grupo_1171430" data-name="Grupo 1171430" transform="translate(50.009)">
          <path id="Trazado_1015485" data-name="Trazado 1015485" d="M56,2h5.557V26.078H56Z" transform="translate(-56 -2)" fill="#ffeaa7"/>
        </g>
        <g id="Grupo_1171431" data-name="Grupo 1171431" transform="translate(31.487 11.113)">
          <path id="Trazado_1015486" data-name="Trazado 1015486" d="M36,14h5.557V26.965H36Z" transform="translate(-36 -14)" fill="#ffeaa7"/>
        </g>
        <g id="Grupo_1171432" data-name="Grupo 1171432" transform="translate(40.748 5.557)">
          <path id="Trazado_1015487" data-name="Trazado 1015487" d="M51.557,8V26.522H46V8Z" transform="translate(-46 -8)" fill="#ffeaa7"/>
        </g>
        <g id="Grupo_1171433" data-name="Grupo 1171433" transform="translate(5.557 44.221)">
          <path id="Trazado_1015488" data-name="Trazado 1015488" d="M15.409,49.982v3.7H8V49.75a7.63,7.63,0,0,0,1.852.232h5.557Z" transform="translate(-8 -49.75)" fill="#b4dd7f"/>
        </g>
        <g id="Grupo_1171434" data-name="Grupo 1171434" transform="translate(14.817 26.264)">
          <path id="Trazado_1015489" data-name="Trazado 1015489" d="M20.176,30.527a11.151,11.151,0,0,1,5.945,2.667l3.519,3.084a4.691,4.691,0,0,0,6.4-.213l5.112-5.112,3.7,3.7-5.714,5.714a8.943,8.943,0,0,1-11.882.685V38.361a.929.929,0,0,0-.926-.926H18V34.657l.861-4.288V30.36Z" transform="translate(-18 -30.36)" fill="#b4dd7f"/>
        </g>
        <g id="Grupo_1171435" data-name="Grupo 1171435" transform="translate(0 26.718)">
          <path id="Trazado_1015490" data-name="Trazado 1015490" d="M13.113,43.028v5.557h-3.7a7.63,7.63,0,0,1-1.852-.232A7.414,7.414,0,0,1,2,41.176v-4.2A6.487,6.487,0,0,1,6.362,30.85l3.973,4.769,2.778-2.778,3.7,1.852v2.778h-.926a.929.929,0,0,0-.926.926v4.63Z" transform="translate(-2 -30.85)" fill="#b4dd7f"/>
        </g>
        <g id="Grupo_1171436" data-name="Grupo 1171436" transform="translate(11.113 25.93)">
          <path id="Trazado_1015491" data-name="Trazado 1015491" d="M18.566,30.343,17.7,34.63,14,32.778,15.852,30l2.713.333Z" transform="translate(-14 -30)" fill="#a0d468"/>
        </g>
        <g id="Grupo_1171437" data-name="Grupo 1171437" transform="translate(4.362 25.93)">
          <path id="Trazado_1015492" data-name="Trazado 1015492" d="M13.461,32.778l-2.778,2.778L6.71,30.787a5.331,5.331,0,0,1,.546-.167l2.5-.62Z" transform="translate(-6.71 -30)" fill="#a0d468"/>
        </g>
        <g id="Grupo_1171438" data-name="Grupo 1171438" transform="translate(5.557 48.157)">
          <path id="Trazado_1015493" data-name="Trazado 1015493" d="M15.409,54h7.409v7.409H8V54Z" transform="translate(-8 -54)" fill="#d3a06c"/>
        </g>
        <g id="Grupo_1171439" data-name="Grupo 1171439" transform="translate(12.965 33.339)">
          <path id="Trazado_1015494" data-name="Trazado 1015494" d="M18.889,48.3a2.777,2.777,0,0,0-1.963-4.742H16v-4.63A.929.929,0,0,1,16.926,38h9.261a.929.929,0,0,1,.926.926V51.891a.929.929,0,0,1-.926.926H16v-3.7h.926A2.772,2.772,0,0,0,18.889,48.3Z" transform="translate(-16 -38)" fill="#969faa"/>
        </g>
        <g id="Grupo_1171440" data-name="Grupo 1171440" transform="translate(16.67 38.896)">
          <ellipse id="Elipse_12157" data-name="Elipse 12157" cx="1.5" cy="2" rx="1.5" ry="2" transform="translate(0.404 0.178)" fill="#69d6f4"/>
        </g>
        <g id="Grupo_1171441" data-name="Grupo 1171441" transform="translate(37.97 24.078)">
          <path id="Trazado_1015495" data-name="Trazado 1015495" d="M49.483,30.612a2.6,2.6,0,0,1-.769,1.861l-2.01,2.01-3.7-3.7,2.01-2.01A2.622,2.622,0,0,1,46.862,28h.046a2.569,2.569,0,0,1,2.575,2.575Z" transform="translate(-43 -28)" fill="#f0d0b4"/>
        </g>
        <g id="Grupo_1171442" data-name="Grupo 1171442" transform="translate(11.113 38.896)">
          <path id="Trazado_1015496" data-name="Trazado 1015496" d="M15.852,44h.926a2.778,2.778,0,0,1,0,5.557H14V44Z" transform="translate(-14 -44)" fill="#f0d0b4"/>
        </g>
        <g id="Grupo_1171443" data-name="Grupo 1171443" transform="translate(5.557 5.557)">
          <path id="Trazado_1015497" data-name="Trazado 1015497" d="M20.965,20.965V21.3a3.371,3.371,0,0,1-3.371,3.371,3.105,3.105,0,0,1-.658-.065L15.409,24.3v4.075l-1.852,2.778-3.7-2.778V18.187L8.546,16.881A1.858,1.858,0,0,1,8,15.566v-.157a1.858,1.858,0,0,1,1.852-1.852V12.63A4.632,4.632,0,0,1,14.483,8h.926a1.866,1.866,0,0,0,1.852,1.852h1.852a3.7,3.7,0,0,0,1.852-.5v1.584a6.33,6.33,0,0,0,1.852,4.473l-1.852,1.852Z" transform="translate(-8 -8)" fill="#f0d0b4"/>
        </g>
      </g>
      <g id="Grupo_1171445" data-name="Grupo 1171445" transform="translate(1 1)">
        <circle id="Elipse_12158" data-name="Elipse 12158" cx="1" cy="1" r="1" transform="translate(15 11)"/>
        <path id="Trazado_1015498" data-name="Trazado 1015498" d="M51.009,1V25.078H49.157V6.557H41.748V25.078H39.9V12.113H32.487V25.078H30.635V17.67H23.226V26.93H40.438l-6.307,6.307a3.764,3.764,0,0,1-5.139.171l-3.521-3.081a12,12,0,0,0-6.434-2.886l-3.22-.4V24.912l.416.083a4.3,4.3,0,0,0,5.141-4.214V17.127l2.236-2.236-.655-.655a5.361,5.361,0,0,1-1.581-3.817V9.311A4.614,4.614,0,0,0,18.6,1H10.353A6.707,6.707,0,0,0,3.917,5.872,4.983,4.983,0,0,0,1,10.411,13.654,13.654,0,0,0,6.436,21.283l1.973,1.48v4.37l-1.8.449A7.4,7.4,0,0,0,1,34.77v4.2a8.343,8.343,0,0,0,5.557,7.849v11.6h16.67V51.009h1.852a1.854,1.854,0,0,0,1.852-1.852V40.588a9.906,9.906,0,0,0,4.63,1.16,9.8,9.8,0,0,0,6.978-2.89l7.729-7.729A3.549,3.549,0,0,0,47.3,28.574a3.463,3.463,0,0,0-.428-1.644H58.417V1ZM28.783,25.078h-3.7V19.522h3.7ZM43.6,8.409h3.7v16.67H43.6Zm-9.261,5.557h3.7V25.078h-3.7ZM16.5,28.991l-.425,2.125-1.682-.841.953-1.429Zm4.533-14.14-1.51,1.51v3.162H17.67a1.854,1.854,0,0,1-1.852-1.852H13.965a3.708,3.708,0,0,0,3.7,3.7h1.772a2.437,2.437,0,0,1-2.843,1.8l-4.3-.86-.364,1.816,2.034.407v3.035l-1.154,1.731-2.55-1.913V17.286L8.68,15.705a.922.922,0,0,1-.271-.656v-.158a.928.928,0,0,1,.926-.926h.926V12.113a3.708,3.708,0,0,1,3.7-3.7h.17a2.774,2.774,0,0,0,2.608,1.852H18.6a4.626,4.626,0,0,0,.926-.094v.252a7.2,7.2,0,0,0,1.51,4.431ZM7.547,19.8a11.8,11.8,0,0,1-4.7-9.391A3.133,3.133,0,0,1,5,7.435l.509-.17.106-.527a4.849,4.849,0,0,1,4.741-3.886H18.6a2.778,2.778,0,1,1,0,5.557H16.744a.926.926,0,1,1,0-1.852h.926V4.7h-.926a2.774,2.774,0,0,0-2.608,1.852h-.17a5.562,5.562,0,0,0-5.557,5.557v.158a2.784,2.784,0,0,0-1.852,2.62v.158a2.761,2.761,0,0,0,.814,1.965l1.038,1.038v2.395Zm1.585,9.06,2.5,1.873-1.306,1.306-2.4-2.877Zm.2,18.442h4.63v1.852H8.409V47.25A8.274,8.274,0,0,0,9.335,47.3Zm6.483-5.557a1.852,1.852,0,1,1,0,3.7H13.965v-3.7Zm5.557,14.817H15.817v-3.7H13.965v3.7H8.409V51.009H21.374Zm3.7-7.409H15.817V47.3a3.7,3.7,0,0,0,3.364-2.173,2.737,2.737,0,0,0,1.267.32A2.778,2.778,0,1,0,18.331,40.9a3.677,3.677,0,0,0-2.513-1v-3.7h9.261Zm-5.557-6.483a.926.926,0,1,1,.926.926A.928.928,0,0,1,19.522,42.674ZM37.23,37.548A7.962,7.962,0,0,1,31.561,39.9a8.051,8.051,0,0,1-4.63-1.481V36.191a1.854,1.854,0,0,0-1.852-1.852H15.817a1.854,1.854,0,0,0-1.852,1.852v3.7H9.335a.928.928,0,0,1-.926-.926V36.191H6.557V38.97a2.782,2.782,0,0,0,2.778,2.778h2.778v3.7H9.335A6.49,6.49,0,0,1,2.852,38.97v-4.2a5.541,5.541,0,0,1,3.164-5L10.2,34.785l3.024-3.024,4.191,2.1.927-4.637.467.058a10.153,10.153,0,0,1,5.444,2.442L27.773,34.8a5.616,5.616,0,0,0,7.669-.256L39.9,30.092l2.394,2.395Zm7.741-10.136a1.662,1.662,0,0,1,.482,1.2,1.686,1.686,0,0,1-.493,1.2L43.6,31.178l-2.395-2.395,1.357-1.357a1.713,1.713,0,0,1,1.247-.5,1.634,1.634,0,0,1,1.162.482Zm11.595-2.334h-3.7V2.852h3.7Z" transform="translate(-1 -1)"/>
        <path id="Trazado_1015499" data-name="Trazado 1015499" d="M38.409,47a7.409,7.409,0,1,0,7.409,7.409A7.417,7.417,0,0,0,38.409,47Zm-.926,1.936v4.938l-4.277,2.469a5.534,5.534,0,0,1,4.277-7.407Zm.926,11.03a5.548,5.548,0,0,1-4.279-2.016l4.279-2.471,4.279,2.471A5.548,5.548,0,0,1,38.409,59.965Zm5.2-3.622-4.277-2.47V48.936a5.535,5.535,0,0,1,4.277,7.408Z" transform="translate(-3.217 -4.4)"/>
        <path id="Trazado_1015500" data-name="Trazado 1015500" d="M49,61h1.852v1.852H49Z" transform="translate(-4.548 -5.435)"/>
        <path id="Trazado_1015501" data-name="Trazado 1015501" d="M53,61h9.261v1.852H53Z" transform="translate(-4.843 -5.435)"/>
        <path id="Trazado_1015502" data-name="Trazado 1015502" d="M49,57h1.852v1.852H49Z" transform="translate(-4.548 -5.139)"/>
        <path id="Trazado_1015503" data-name="Trazado 1015503" d="M53,57h9.261v1.852H53Z" transform="translate(-4.843 -5.139)"/>
        <path id="Trazado_1015504" data-name="Trazado 1015504" d="M49,53h1.852v1.852H49Z" transform="translate(-4.548 -4.843)"/>
        <path id="Trazado_1015505" data-name="Trazado 1015505" d="M53,53h9.261v1.852H53Z" transform="translate(-4.843 -4.843)"/>
        <path id="Trazado_1015506" data-name="Trazado 1015506" d="M49,49h1.852v1.852H49Z" transform="translate(-4.548 -4.548)"/>
        <path id="Trazado_1015507" data-name="Trazado 1015507" d="M53,49h9.261v1.852H53Z" transform="translate(-4.843 -4.548)"/>
        <path id="Trazado_1015508" data-name="Trazado 1015508" d="M47,45H59.965v1.852H47Z" transform="translate(-4.4 -4.252)"/>
        <path id="Trazado_1015509" data-name="Trazado 1015509" d="M47,41H59.965v1.852H47Z" transform="translate(-4.4 -3.956)"/>
        <path id="Trazado_1015510" data-name="Trazado 1015510" d="M49,37h3.7v1.852H49Z" transform="translate(-4.548 -3.661)"/>
        <path id="Trazado_1015511" data-name="Trazado 1015511" d="M55,37h5.557v1.852H55Z" transform="translate(-4.991 -3.661)"/>
      </g>
    </g>
  </g>
</svg>
