<svg xmlns="http://www.w3.org/2000/svg" xmlns:xlink="http://www.w3.org/1999/xlink" width="113" height="113" viewBox="0 0 113 113">
  <defs>
    <filter id="Trazado_982547" x="0" y="0" width="113" height="113" filterUnits="userSpaceOnUse">
      <feOffset dy="3" input="SourceAlpha"/>
      <feGaussianBlur stdDeviation="3" result="blur"/>
      <feFlood flood-opacity="0.161"/>
      <feComposite operator="in" in2="blur"/>
      <feComposite in="SourceGraphic"/>
    </filter>
  </defs>
  <g id="Grupo_1170345" data-name="Grupo 1170345" transform="translate(-171.701 -966)">
    <g id="Grupo_1168704" data-name="Grupo 1168704" transform="translate(0.214 -64.614)">
      <g id="Grupo_1168178" data-name="Grupo 1168178" transform="translate(180.487 1036.614)">
        <g id="Grupo_1166845" data-name="Grupo 1166845" transform="translate(0)">
          <g id="Grupo_1166720" data-name="Grupo 1166720">
            <g id="Grupo_1164305" data-name="Grupo 1164305">
              <g id="Grupo_1163948" data-name="Grupo 1163948">
                <g id="Grupo_1158168" data-name="Grupo 1158168">
                  <g id="Grupo_1152576" data-name="Grupo 1152576">
                    <g id="Grupo_1148633" data-name="Grupo 1148633">
                      <g id="Grupo_1148525" data-name="Grupo 1148525">
                        <g transform="matrix(1, 0, 0, 1, -9, -6)" filter="url(#Trazado_982547)">
                          <g id="Trazado_982547-2" data-name="Trazado 982547" transform="translate(9 6)" fill="#e8edf7">
                            <path d="M 47.5 93.5 C 41.28937149047852 93.5 35.26533508300781 92.28397369384766 29.59518623352051 89.88570404052734 C 24.11771965026855 87.56893157958984 19.19813346862793 84.25196075439453 14.97309303283691 80.02691650390625 C 10.74804019927979 75.80186462402344 7.431066513061523 70.88229370117188 5.114293098449707 65.40481567382812 C 2.716026782989502 59.73468017578125 1.5 53.71062850952148 1.5 47.5 C 1.5 41.28937149047852 2.716026782989502 35.26533508300781 5.114293098449707 29.59518623352051 C 7.431066513061523 24.11771965026855 10.74804019927979 19.19813346862793 14.97309303283691 14.97309303283691 C 19.19813346862793 10.74804019927979 24.11771965026855 7.431066513061523 29.59518623352051 5.114293098449707 C 35.26533508300781 2.716026782989502 41.28937149047852 1.5 47.5 1.5 C 53.71062850952148 1.5 59.73468017578125 2.716026782989502 65.40481567382812 5.114293098449707 C 70.88229370117188 7.431066513061523 75.80186462402344 10.74804019927979 80.02691650390625 14.97309303283691 C 84.25196075439453 19.19813346862793 87.56893157958984 24.11771965026855 89.88570404052734 29.59518623352051 C 92.28397369384766 35.26533508300781 93.5 41.28937149047852 93.5 47.5 C 93.5 53.71062850952148 92.28397369384766 59.73468017578125 89.88570404052734 65.40481567382812 C 87.56893157958984 70.88229370117188 84.25196075439453 75.80186462402344 80.02691650390625 80.02691650390625 C 75.80186462402344 84.25196075439453 70.88229370117188 87.56893157958984 65.40481567382812 89.88570404052734 C 59.73468017578125 92.28397369384766 53.71062850952148 93.5 47.5 93.5 Z" stroke="none"/>
                            <path d="M 47.5 3 C 41.49121475219727 3 35.66376876831055 4.176155090332031 30.17950439453125 6.495796203613281 C 24.88084411621094 8.736953735351562 20.12152099609375 11.94598388671875 16.03375244140625 16.03375244140625 C 11.94598388671875 20.12152099609375 8.736953735351562 24.88084411621094 6.495796203613281 30.17950439453125 C 4.176155090332031 35.66376876831055 3 41.49121475219727 3 47.5 C 3 53.50878524780273 4.176155090332031 59.33623123168945 6.495796203613281 64.82049560546875 C 8.736953735351562 70.11915588378906 11.94598388671875 74.87847900390625 16.03375244140625 78.96624755859375 C 20.12152099609375 83.05401611328125 24.88084411621094 86.26304626464844 30.17950439453125 88.50419616699219 C 35.66376876831055 90.82384490966797 41.49121475219727 92 47.5 92 C 53.50878524780273 92 59.33623123168945 90.82384490966797 64.82049560546875 88.50419616699219 C 70.11915588378906 86.26304626464844 74.87847900390625 83.05401611328125 78.96624755859375 78.96624755859375 C 83.05401611328125 74.87847900390625 86.26304626464844 70.11915588378906 88.50419616699219 64.82049560546875 C 90.82384490966797 59.33623123168945 92 53.50878524780273 92 47.5 C 92 41.49121475219727 90.82384490966797 35.66376876831055 88.50419616699219 30.17950439453125 C 86.26304626464844 24.88084411621094 83.05401611328125 20.12152099609375 78.96624755859375 16.03375244140625 C 74.87847900390625 11.94598388671875 70.11915588378906 8.736953735351562 64.82049560546875 6.495796203613281 C 59.33623123168945 4.176155090332031 53.50878524780273 3 47.5 3 M 47.5 0 C 73.7335205078125 0 95 21.2664794921875 95 47.5 C 95 73.7335205078125 73.7335205078125 95 47.5 95 C 21.2664794921875 95 0 73.7335205078125 0 47.5 C 0 21.2664794921875 21.2664794921875 0 47.5 0 Z" stroke="none" fill="#183164"/>
                          </g>
                        </g>
                      </g>
                    </g>
                  </g>
                </g>
              </g>
            </g>
          </g>
        </g>
      </g>
    </g>
    <g id="budget_2_" data-name="budget (2)" transform="translate(181.698 956.13)">
      <path id="Trazado_1014558" data-name="Trazado 1014558" d="M93.414,104.187a.992.992,0,0,1-.291-.7V79.694A23.772,23.772,0,0,0,71.73,95.337a12.208,12.208,0,0,1,11.509,21.435H85.46a3.333,3.333,0,0,1,3.329,3.329v2.1a3.313,3.313,0,0,1-.963,2.337,3.322,3.322,0,0,1,.959,2.16,24,24,0,0,0,5.329.6,23.649,23.649,0,0,0,16.124-6.287Z" transform="translate(-48.365 -39.77)" fill="#547dbf"/>
      <path id="Trazado_1014559" data-name="Trazado 1014559" d="M63.99,80.555l-17.25-17.25V38.913a.991.991,0,0,0-.991-.991,25.8,25.8,0,0,0-23.319,14.75.991.991,0,0,0,1.79.849,23.95,23.95,0,0,1,20.538-13.6V63.716a.987.987,0,0,0,.291.7L61.874,81.242A23.655,23.655,0,0,1,45.75,87.529a24.009,24.009,0,0,1-2.895-.174.991.991,0,0,0-.239,1.967,26.083,26.083,0,0,0,3.134.189,25.629,25.629,0,0,0,18.239-7.554.992.992,0,0,0,0-1.4ZM28.959,65.782h-1.49a1.155,1.155,0,1,1,0-2.278H31.3a.991.991,0,1,0,0-1.982H29.2V59.958a.991.991,0,1,0-1.982,0v1.575a3.119,3.119,0,1,0,.246,6.232h1.49a1.155,1.155,0,1,1,0,2.278H25.13a.991.991,0,1,0,0,1.982h2.093v1.565a.991.991,0,0,0,1.982,0V72.014a3.119,3.119,0,1,0-.246-6.232Zm0,0h-1.49a1.155,1.155,0,1,1,0-2.278H31.3a.991.991,0,1,0,0-1.982H29.2V59.958a.991.991,0,1,0-1.982,0v1.575a3.119,3.119,0,1,0,.246,6.232h1.49a1.155,1.155,0,1,1,0,2.278H25.13a.991.991,0,1,0,0,1.982h2.093v1.565a.991.991,0,0,0,1.982,0V72.014a3.119,3.119,0,1,0-.246-6.232Zm0,0h-1.49a1.155,1.155,0,1,1,0-2.278H31.3a.991.991,0,1,0,0-1.982H29.2V59.958a.991.991,0,1,0-1.982,0v1.575a3.119,3.119,0,1,0,.246,6.232h1.49a1.155,1.155,0,1,1,0,2.278H25.13a.991.991,0,1,0,0,1.982h2.093v1.565a.991.991,0,0,0,1.982,0V72.014a3.119,3.119,0,1,0-.246-6.232Zm0,0h-1.49a1.155,1.155,0,1,1,0-2.278H31.3a.991.991,0,1,0,0-1.982H29.2V59.958a.991.991,0,1,0-1.982,0v1.575a3.119,3.119,0,1,0,.246,6.232h1.49a1.155,1.155,0,1,1,0,2.278H25.13a.991.991,0,1,0,0,1.982h2.093v1.565a.991.991,0,0,0,1.982,0V72.014a3.119,3.119,0,1,0-.246-6.232Zm0,0h-1.49a1.155,1.155,0,1,1,0-2.278H31.3a.991.991,0,1,0,0-1.982H29.2V59.958a.991.991,0,1,0-1.982,0v1.575a3.119,3.119,0,1,0,.246,6.232h1.49a1.155,1.155,0,1,1,0,2.278H25.13a.991.991,0,1,0,0,1.982h2.093v1.565a.991.991,0,0,0,1.982,0V72.014a3.119,3.119,0,1,0-.246-6.232Zm0,0h-1.49a1.155,1.155,0,1,1,0-2.278H31.3a.991.991,0,1,0,0-1.982H29.2V59.958a.991.991,0,1,0-1.982,0v1.575a3.119,3.119,0,1,0,.246,6.232h1.49a1.155,1.155,0,1,1,0,2.278H25.13a.991.991,0,1,0,0,1.982h2.093v1.565a.991.991,0,0,0,1.982,0V72.014a3.119,3.119,0,1,0-.246-6.232ZM37.1,77H34.873a12.21,12.21,0,1,0-13.321,0H19.331A3.332,3.332,0,0,0,16,80.33v2.1a3.314,3.314,0,0,0,.962,2.337A3.317,3.317,0,0,0,16,87.11v2.1a3.332,3.332,0,0,0,3.328,3.328H37.1a3.333,3.333,0,0,0,3.329-3.328v-2.1a3.323,3.323,0,0,0-.962-2.338,3.32,3.32,0,0,0,.962-2.337v-2.1A3.333,3.333,0,0,0,37.1,77ZM17.985,66.773A10.229,10.229,0,1,1,28.214,77,10.241,10.241,0,0,1,17.985,66.773Zm20.458,22.44A1.349,1.349,0,0,1,37.1,90.559H19.331a1.348,1.348,0,0,1-1.346-1.346v-2.1a1.348,1.348,0,0,1,1.346-1.348H37.1a1.349,1.349,0,0,1,1.348,1.348Zm0-6.779A1.349,1.349,0,0,1,37.1,83.781H19.331a1.348,1.348,0,0,1-1.346-1.346v-2.1a1.348,1.348,0,0,1,1.346-1.346H37.1a1.349,1.349,0,0,1,1.348,1.346ZM29.2,73.589V72.014a3.119,3.119,0,1,0-.246-6.232h-1.49a1.155,1.155,0,1,1,0-2.278H31.3a.991.991,0,1,0,0-1.982H29.2V59.958a.991.991,0,1,0-1.982,0v1.575a3.119,3.119,0,1,0,.246,6.232h1.49a1.155,1.155,0,1,1,0,2.278H25.13a.991.991,0,1,0,0,1.982h2.093v1.565a.991.991,0,1,0,1.982,0Zm-.246-7.806h-1.49a1.155,1.155,0,1,1,0-2.278H31.3a.991.991,0,1,0,0-1.982H29.2V59.958a.991.991,0,1,0-1.982,0v1.575a3.119,3.119,0,1,0,.246,6.232h1.49a1.155,1.155,0,1,1,0,2.278H25.13a.991.991,0,1,0,0,1.982h2.093v1.565a.991.991,0,0,0,1.982,0V72.014a3.119,3.119,0,1,0-.246-6.232Zm0,0h-1.49a1.155,1.155,0,1,1,0-2.278H31.3a.991.991,0,1,0,0-1.982H29.2V59.958a.991.991,0,1,0-1.982,0v1.575a3.119,3.119,0,1,0,.246,6.232h1.49a1.155,1.155,0,1,1,0,2.278H25.13a.991.991,0,1,0,0,1.982h2.093v1.565a.991.991,0,0,0,1.982,0V72.014a3.119,3.119,0,1,0-.246-6.232Zm0,0h-1.49a1.155,1.155,0,1,1,0-2.278H31.3a.991.991,0,1,0,0-1.982H29.2V59.958a.991.991,0,1,0-1.982,0v1.575a3.119,3.119,0,1,0,.246,6.232h1.49a1.155,1.155,0,1,1,0,2.278H25.13a.991.991,0,1,0,0,1.982h2.093v1.565a.991.991,0,0,0,1.982,0V72.014a3.119,3.119,0,1,0-.246-6.232Zm0,0h-1.49a1.155,1.155,0,1,1,0-2.278H31.3a.991.991,0,1,0,0-1.982H29.2V59.958a.991.991,0,1,0-1.982,0v1.575a3.119,3.119,0,1,0,.246,6.232h1.49a1.155,1.155,0,1,1,0,2.278H25.13a.991.991,0,1,0,0,1.982h2.093v1.565a.991.991,0,0,0,1.982,0V72.014a3.119,3.119,0,1,0-.246-6.232Zm47.484-3.057h-24.8a.991.991,0,0,0-.7,1.691l17.54,17.54a.994.994,0,0,0,1.4,0,25.635,25.635,0,0,0,7.554-18.24A.991.991,0,0,0,76.443,62.725ZM69.164,79.84,54.031,64.707h21.4A23.629,23.629,0,0,1,69.164,79.84ZM75.6,59.589A25.824,25.824,0,0,0,49.8,33.87a.99.99,0,0,0-.991.991v24.8a.991.991,0,0,0,.991.991H74.608a.991.991,0,0,0,.991-.991C75.6,59.639,75.6,59.614,75.6,59.589Zm-24.8-.916v-22.8a23.845,23.845,0,0,1,22.8,22.8Z" transform="translate(0 0)"/>
      <path id="Trazado_1014560" data-name="Trazado 1014560" d="M302.145,71.822h-22.8V49.02A23.845,23.845,0,0,1,302.145,71.822Z" transform="translate(-228.55 -13.149)" fill="#ea4335"/>
      <path id="Trazado_1014561" data-name="Trazado 1014561" d="M325.253,267.29a23.629,23.629,0,0,1-6.267,15.133L303.853,267.29Z" transform="translate(-249.822 -202.583)" fill="#41b75d"/>
      <path id="Trazado_1014562" data-name="Trazado 1014562" d="M41.231,426.67v4.8H32.348A1.348,1.348,0,0,1,31,430.121v-2.1a1.348,1.348,0,0,1,1.346-1.348Z" transform="translate(-13.018 -340.907)" fill="#fac31f"/>
      <path id="Trazado_1014563" data-name="Trazado 1014563" d="M118.661,428.018v2.1a1.349,1.349,0,0,1-1.348,1.346h-8.882v-4.8h8.882A1.349,1.349,0,0,1,118.661,428.018Z" transform="translate(-80.218 -340.907)" fill="#e2ab25"/>
      <path id="Trazado_1014564" data-name="Trazado 1014564" d="M41.231,375.36v4.8H32.348A1.347,1.347,0,0,1,31,378.811v-2.1a1.348,1.348,0,0,1,1.346-1.346Z" transform="translate(-13.018 -296.376)" fill="#fac31f"/>
      <path id="Trazado_1014565" data-name="Trazado 1014565" d="M118.661,376.706v2.1a1.349,1.349,0,0,1-1.348,1.346h-8.882v-4.8h8.882A1.349,1.349,0,0,1,118.661,376.706Z" transform="translate(-80.218 -296.376)" fill="#e2ab25"/>
      <path id="Trazado_1014566" data-name="Trazado 1014566" d="M41.976,216.72h-1.49a3.119,3.119,0,1,1-.246-6.232v-1.575a.99.99,0,0,1,.991-.991V205.5a10.229,10.229,0,0,0,0,20.458v-2.423a.99.99,0,0,1-.991-.991v-1.565H38.148a.991.991,0,0,1,0-1.982h3.829a1.155,1.155,0,1,0,0-2.278Zm-2.838-3.12a1.258,1.258,0,0,0,1.348,1.139h.745v-2.278h-.745A1.258,1.258,0,0,0,39.139,213.6Z" transform="translate(-13.017 -148.956)" fill="#fac31f"/>
      <path id="Trazado_1014567" data-name="Trazado 1014567" d="M118.661,215.729a10.242,10.242,0,0,1-10.229,10.229v-2.423a.991.991,0,0,0,.991-.991V220.97a3.119,3.119,0,1,0-.246-6.232h-.745v-2.278h3.082a.991.991,0,1,0,0-1.982h-2.091v-1.565a.991.991,0,0,0-.991-.991V205.5A10.242,10.242,0,0,1,118.661,215.729Z" transform="translate(-80.218 -148.956)" fill="#e2ab25"/>
    </g>
  </g>
</svg>
