<svg xmlns="http://www.w3.org/2000/svg" xmlns:xlink="http://www.w3.org/1999/xlink" width="113" height="113" viewBox="0 0 113 113">
  <defs>
    <filter id="Trazado_982547" x="0" y="0" width="113" height="113" filterUnits="userSpaceOnUse">
      <feOffset dy="3" input="SourceAlpha"/>
      <feGaussianBlur stdDeviation="3" result="blur"/>
      <feFlood flood-opacity="0.161"/>
      <feComposite operator="in" in2="blur"/>
      <feComposite in="SourceGraphic"/>
    </filter>
  </defs>
  <g id="Grupo_1171448" data-name="Grupo 1171448" transform="translate(-197.486 -1010.614)">
    <g id="Grupo_1168775" data-name="Grupo 1168775" transform="translate(206.486 1016.614)">
      <g id="Grupo_1168178" data-name="Grupo 1168178" transform="translate(0)">
        <g id="Grupo_1166845" data-name="Grupo 1166845">
          <g id="Grupo_1166720" data-name="Grupo 1166720">
            <g id="Grupo_1164305" data-name="Grupo 1164305">
              <g id="Grupo_1163948" data-name="Grupo 1163948">
                <g id="Grupo_1158168" data-name="Grupo 1158168">
                  <g id="Grupo_1152576" data-name="Grupo 1152576">
                    <g id="Grupo_1148633" data-name="Grupo 1148633">
                      <g id="Grupo_1148525" data-name="Grupo 1148525">
                        <g transform="matrix(1, 0, 0, 1, -9, -6)" filter="url(#Trazado_982547)">
                          <g id="Trazado_982547-2" data-name="Trazado 982547" transform="translate(9 6)" fill="#e8edf7">
                            <path d="M 47.5 93.5 C 41.28937149047852 93.5 35.26533508300781 92.28397369384766 29.59518623352051 89.88570404052734 C 24.11771965026855 87.56893157958984 19.19813346862793 84.25196075439453 14.97309303283691 80.02691650390625 C 10.74804019927979 75.80186462402344 7.431066513061523 70.88229370117188 5.114293098449707 65.40481567382812 C 2.716026782989502 59.73468017578125 1.5 53.71062850952148 1.5 47.5 C 1.5 41.28937149047852 2.716026782989502 35.26533508300781 5.114293098449707 29.59518623352051 C 7.431066513061523 24.11771965026855 10.74804019927979 19.19813346862793 14.97309303283691 14.97309303283691 C 19.19813346862793 10.74804019927979 24.11771965026855 7.431066513061523 29.59518623352051 5.114293098449707 C 35.26533508300781 2.716026782989502 41.28937149047852 1.5 47.5 1.5 C 53.71062850952148 1.5 59.73468017578125 2.716026782989502 65.40481567382812 5.114293098449707 C 70.88229370117188 7.431066513061523 75.80186462402344 10.74804019927979 80.02691650390625 14.97309303283691 C 84.25196075439453 19.19813346862793 87.56893157958984 24.11771965026855 89.88570404052734 29.59518623352051 C 92.28397369384766 35.26533508300781 93.5 41.28937149047852 93.5 47.5 C 93.5 53.71062850952148 92.28397369384766 59.73468017578125 89.88570404052734 65.40481567382812 C 87.56893157958984 70.88229370117188 84.25196075439453 75.80186462402344 80.02691650390625 80.02691650390625 C 75.80186462402344 84.25196075439453 70.88229370117188 87.56893157958984 65.40481567382812 89.88570404052734 C 59.73468017578125 92.28397369384766 53.71062850952148 93.5 47.5 93.5 Z" stroke="none"/>
                            <path d="M 47.5 3 C 41.49121475219727 3 35.66376876831055 4.176155090332031 30.17950439453125 6.495796203613281 C 24.88084411621094 8.736953735351562 20.12152099609375 11.94598388671875 16.03375244140625 16.03375244140625 C 11.94598388671875 20.12152099609375 8.736953735351562 24.88084411621094 6.495796203613281 30.17950439453125 C 4.176155090332031 35.66376876831055 3 41.49121475219727 3 47.5 C 3 53.50878524780273 4.176155090332031 59.33623123168945 6.495796203613281 64.82049560546875 C 8.736953735351562 70.11915588378906 11.94598388671875 74.87847900390625 16.03375244140625 78.96624755859375 C 20.12152099609375 83.05401611328125 24.88084411621094 86.26304626464844 30.17950439453125 88.50419616699219 C 35.66376876831055 90.82384490966797 41.49121475219727 92 47.5 92 C 53.50878524780273 92 59.33623123168945 90.82384490966797 64.82049560546875 88.50419616699219 C 70.11915588378906 86.26304626464844 74.87847900390625 83.05401611328125 78.96624755859375 78.96624755859375 C 83.05401611328125 74.87847900390625 86.26304626464844 70.11915588378906 88.50419616699219 64.82049560546875 C 90.82384490966797 59.33623123168945 92 53.50878524780273 92 47.5 C 92 41.49121475219727 90.82384490966797 35.66376876831055 88.50419616699219 30.17950439453125 C 86.26304626464844 24.88084411621094 83.05401611328125 20.12152099609375 78.96624755859375 16.03375244140625 C 74.87847900390625 11.94598388671875 70.11915588378906 8.736953735351562 64.82049560546875 6.495796203613281 C 59.33623123168945 4.176155090332031 53.50878524780273 3 47.5 3 M 47.5 0 C 73.7335205078125 0 95 21.2664794921875 95 47.5 C 95 73.7335205078125 73.7335205078125 95 47.5 95 C 21.2664794921875 95 0 73.7335205078125 0 47.5 C 0 21.2664794921875 21.2664794921875 0 47.5 0 Z" stroke="none" fill="#183164"/>
                          </g>
                        </g>
                      </g>
                    </g>
                  </g>
                </g>
              </g>
            </g>
          </g>
        </g>
      </g>
    </g>
    <g id="budget-friendly" transform="translate(197.464 1013.413)">
      <g id="Grupo_1171447" data-name="Grupo 1171447" transform="translate(28.755 22.572)">
        <path id="Trazado_1015512" data-name="Trazado 1015512" d="M141.2,28.69A10.472,10.472,0,1,1,130.73,39.162,10.472,10.472,0,0,1,141.2,28.69Z" transform="translate(-118.747 -28.69)" fill="#f8ed3f" fill-rule="evenodd"/>
        <path id="Trazado_1015513" data-name="Trazado 1015513" d="M172.967,56.835A10.47,10.47,0,0,1,158.43,71.174a10.471,10.471,0,0,1,14.536-14.339Z" transform="translate(-141.61 -51.877)" fill="#f7d02e" fill-rule="evenodd"/>
        <path id="Trazado_1015514" data-name="Trazado 1015514" d="M283.7,72.539V93.285a2.719,2.719,0,0,1-2.513,2.878H261.383a2.721,2.721,0,0,1-2.513-2.878V72.539a3,3,0,0,1,.67-1.953l9.9-12.255a2.307,2.307,0,0,1,3.689,0l9.906,12.255A3,3,0,0,1,283.7,72.539Z" transform="translate(-230.866 -53.819)" fill="#43b249" fill-rule="evenodd"/>
        <path id="Trazado_1015515" data-name="Trazado 1015515" d="M329.167,91.141v20.746a2.719,2.719,0,0,1-2.513,2.878H313.343a2.719,2.719,0,0,1-2.513-2.878V91.141a3,3,0,0,1,.666-1.953L320,78.67l8.5,10.518A2.994,2.994,0,0,1,329.167,91.141Z" transform="translate(-276.33 -72.421)" fill="#8fc73e" fill-rule="evenodd"/>
        <path id="Trazado_1015516" data-name="Trazado 1015516" d="M333.674,100.35a3.68,3.68,0,1,1-3.5,3.676A3.592,3.592,0,0,1,333.674,100.35Z" transform="translate(-293.252 -91.391)" fill="#fff" fill-rule="evenodd"/>
        <path id="Trazado_1015517" data-name="Trazado 1015517" d="M104.591,282.842l9.069,4.008c4.25,1.878,5.376,5.1,1.6,7.091l15.43-5.907c5.507-2.109,7.97,2.793,2.385,5.706l-18.9,9.862a3.64,3.64,0,0,1-2.6.33l-13.644-3.189-10.7,4.568.273-15.65,13.7-6.652a3.876,3.876,0,0,1,3.377-.166Z" transform="translate(-80.694 -250.794)" fill="#f9b5b2" fill-rule="evenodd"/>
        <path id="Trazado_1015518" data-name="Trazado 1015518" d="M155.067,361.9l-6.546,4.912-13.041,6.471a2.645,2.645,0,0,1-1.758.22l-13.736-3.313-7.545,3.529v-3.438l7.4-2.629,14.381,2.948Z" transform="translate(-102.743 -320.241)" fill="#f598a2" fill-rule="evenodd"/>
        <path id="Trazado_1015519" data-name="Trazado 1015519" d="M37.662,300.31H41.79a2.792,2.792,0,0,1,2.786,2.782V319.83a2.791,2.791,0,0,1-2.786,2.782H37.662a2.789,2.789,0,0,1-2.782-2.782V303.092A2.789,2.789,0,0,1,37.662,300.31Z" transform="translate(-34.88 -266.351)" fill="#af4499" fill-rule="evenodd"/>
        <path id="Trazado_1015520" data-name="Trazado 1015520" d="M40.4,300.31c.008.11.011.22.011.333V320.85a4.637,4.637,0,0,1-.344,1.762H37.662a3.043,3.043,0,0,1-2.782-3.236v-15.83a3.044,3.044,0,0,1,2.782-3.236Z" transform="translate(-34.88 -266.351)" fill="#cb6aaa" fill-rule="evenodd"/>
        <path id="Trazado_1015521" data-name="Trazado 1015521" d="M296,181.11A8.888,8.888,0,1,1,287.11,190,8.888,8.888,0,0,1,296,181.11Z" transform="translate(-255.575 -162.054)" fill="#f7d02e" fill-rule="evenodd"/>
        <path id="Trazado_1015522" data-name="Trazado 1015522" d="M322.744,200.834a8.889,8.889,0,0,1-11.078,13.41,8.889,8.889,0,0,1,11.078-13.41Z" transform="translate(-275.367 -178.425)" fill="#f8ed3f" fill-rule="evenodd"/>
      </g>
      <path id="Trazado_1015523" data-name="Trazado 1015523" d="M65.206,53.347a.872.872,0,1,1,1.737-.164c.131,1.371,2.538,2.055,3.894.971a1.416,1.416,0,0,0,.578-1.084c0-2.726-6.227-.336-6.227-4.982a3.553,3.553,0,0,1,3.1-3.282v-.871a.877.877,0,0,1,.911-.875v0a.87.87,0,0,1,.868.893l-.018.844a3.558,3.558,0,0,1,3.118,3.289.875.875,0,0,1-1.75,0c0-1.447-2.5-2.2-3.894-1.084a1.42,1.42,0,0,0-.581,1.084c0,2.726,6.226.336,6.226,4.982a3.556,3.556,0,0,1-3.112,3.286l-.018.868a.875.875,0,0,1-1.75,0v-.868a3.611,3.611,0,0,1-3.078-3.011Zm3.972-12.6a9.765,9.765,0,1,1-9.763,9.767A9.767,9.767,0,0,1,69.178,40.749Zm5.667,4.1a8.014,8.014,0,1,0,0,11.333,8.014,8.014,0,0,0,0-11.333Zm-43.308,10.8h4.132a3.666,3.666,0,0,1,3.6,3.019L48.9,54A4.772,4.772,0,0,1,53,53.817l2.884,1.273V43.381A11.347,11.347,0,1,1,62.475,31.7l4.175-5.163a3.168,3.168,0,0,1,5.05,0l.178.216c5.167-7.41,11.065-3.249,10.408,1.687-.273,2.024-1.634,4.157-4.576,5.529l3.894,4.82a3.884,3.884,0,0,1,.861,2.5V58.562c3.452.815,4.055,5.125-.929,7.726l-18.9,9.863a4.528,4.528,0,0,1-3.2.408L46.072,73.434l-6.759,2.888a3.668,3.668,0,0,1-3.647,3.384h-4.13a3.666,3.666,0,0,1-3.657-3.657h0V59.312h0a3.664,3.664,0,0,1,3.657-3.658Zm7.786,4.933V74.42l6.294-2.69a.891.891,0,0,1,.578-.064l13.644,3.189a2.75,2.75,0,0,0,2-.248l18.9-9.863c1.68-.879,2.505-1.9,2.665-2.778a1.332,1.332,0,0,0-.649-1.432c-1.02-.631-2.577-.333-3.689.1l-15.43,5.9a.848.848,0,0,1-.613,0l-11.27-4.153a.874.874,0,0,1,.6-1.642l10.895,4.016c3.1-1.868.833-4.136-1.878-5.33L52.3,55.419a3.027,3.027,0,0,0-2.647.153ZM35.67,57.4H31.537a1.915,1.915,0,0,0-1.907,1.91h0V76.05h0a1.914,1.914,0,0,0,1.907,1.907h4.132a1.917,1.917,0,0,0,1.907-1.907h0V59.312h0A1.916,1.916,0,0,0,35.67,57.4Zm21.965-1.534,4.437,1.96c2.042.9,4.147,2.47,4.395,4.555a3.192,3.192,0,0,1-.085,1.23l12.057-4.618a8.334,8.334,0,0,1,2.279-.543V41.288a2.128,2.128,0,0,0-.471-1.4L72.078,29.777c-.241.461-.479.954-.713,1.485a4.651,4.651,0,0,1,.925,7.141,4.261,4.261,0,0,1-6.224,0,4.665,4.665,0,0,1,0-6.4,4.281,4.281,0,0,1,3.647-1.315c.386-.871.783-1.659,1.184-2.37a4.324,4.324,0,0,0-1.1-1.145,1.482,1.482,0,0,0-1.24,0,1.712,1.712,0,0,0-.546.461l-9.9,12.251a2.122,2.122,0,0,0-.475,1.4ZM71.8,35.365c-.889.068-1.708.081-2.64.064a.872.872,0,0,1-.815-1.141h0c.216-.659.44-1.283.663-1.878A2.842,2.842,0,0,0,67.331,37.2,2.61,2.61,0,0,0,71.8,35.365Zm4.77-2.8c6.492-2.7,4.054-9.324.156-7.875a8.213,8.213,0,0,0-3.718,3.469Zm-5.886.348q-.148.377-.29.776l.968-.039a2.653,2.653,0,0,0-.678-.738Zm-14.8,8.519a3.907,3.907,0,0,1,.861-2.64L60.779,33.8l.029-.759a9.578,9.578,0,1,0-4.92,8.385ZM45.607,35.585a.872.872,0,1,1,1.449-.97,4.951,4.951,0,0,0,8.31,0,.872.872,0,1,1,1.45.97A6.692,6.692,0,0,1,45.607,35.585Zm9.052-5.756a.875.875,0,1,1,1.75,0v.51a.875.875,0,0,1-1.75,0Zm-8.407,0a.875.875,0,0,1,1.75,0v.51a.875.875,0,1,1-1.75,0Z"/>
    </g>
  </g>
</svg>
