<svg xmlns="http://www.w3.org/2000/svg" xmlns:xlink="http://www.w3.org/1999/xlink" width="113" height="113" viewBox="0 0 113 113">
  <defs>
    <filter id="Trazado_982547" x="0" y="0" width="113" height="113" filterUnits="userSpaceOnUse">
      <feOffset dy="3" input="SourceAlpha"/>
      <feGaussianBlur stdDeviation="3" result="blur"/>
      <feFlood flood-opacity="0.161"/>
      <feComposite operator="in" in2="blur"/>
      <feComposite in="SourceGraphic"/>
    </filter>
  </defs>
  <g id="Grupo_1168889" data-name="Grupo 1168889" transform="translate(-586 -799)">
    <g id="Grupo_1162470" data-name="Grupo 1162470" transform="translate(315 -2236.154)">
      <g id="Grupo_1162113" data-name="Grupo 1162113" transform="translate(280 3041.154)">
        <g id="Grupo_1152576" data-name="Grupo 1152576" transform="translate(0)">
          <g id="Grupo_1148633" data-name="Grupo 1148633">
            <g id="Grupo_1148525" data-name="Grupo 1148525">
              <g transform="matrix(1, 0, 0, 1, -9, -6)" filter="url(#Trazado_982547)">
                <g id="Trazado_982547-2" data-name="Trazado 982547" transform="translate(9 6)" fill="#e8edf7">
                  <path d="M 47.5 93.5 C 41.28937149047852 93.5 35.26533508300781 92.28397369384766 29.59518623352051 89.88570404052734 C 24.11771965026855 87.56893157958984 19.19813346862793 84.25196075439453 14.97309303283691 80.02691650390625 C 10.74804019927979 75.80186462402344 7.431066513061523 70.88229370117188 5.114293098449707 65.40481567382812 C 2.716026782989502 59.73468017578125 1.5 53.71062850952148 1.5 47.5 C 1.5 41.28937149047852 2.716026782989502 35.26533508300781 5.114293098449707 29.59518623352051 C 7.431066513061523 24.11771965026855 10.74804019927979 19.19813346862793 14.97309303283691 14.97309303283691 C 19.19813346862793 10.74804019927979 24.11771965026855 7.431066513061523 29.59518623352051 5.114293098449707 C 35.26533508300781 2.716026782989502 41.28937149047852 1.5 47.5 1.5 C 53.71062850952148 1.5 59.73468017578125 2.716026782989502 65.40481567382812 5.114293098449707 C 70.88229370117188 7.431066513061523 75.80186462402344 10.74804019927979 80.02691650390625 14.97309303283691 C 84.25196075439453 19.19813346862793 87.56893157958984 24.11771965026855 89.88570404052734 29.59518623352051 C 92.28397369384766 35.26533508300781 93.5 41.28937149047852 93.5 47.5 C 93.5 53.71062850952148 92.28397369384766 59.73468017578125 89.88570404052734 65.40481567382812 C 87.56893157958984 70.88229370117188 84.25196075439453 75.80186462402344 80.02691650390625 80.02691650390625 C 75.80186462402344 84.25196075439453 70.88229370117188 87.56893157958984 65.40481567382812 89.88570404052734 C 59.73468017578125 92.28397369384766 53.71062850952148 93.5 47.5 93.5 Z" stroke="none"/>
                  <path d="M 47.5 3 C 41.49121475219727 3 35.66376876831055 4.176155090332031 30.17950439453125 6.495796203613281 C 24.88084411621094 8.736953735351562 20.12152099609375 11.94598388671875 16.03375244140625 16.03375244140625 C 11.94598388671875 20.12152099609375 8.736953735351562 24.88084411621094 6.495796203613281 30.17950439453125 C 4.176155090332031 35.66376876831055 3 41.49121475219727 3 47.5 C 3 53.50878524780273 4.176155090332031 59.33623123168945 6.495796203613281 64.82049560546875 C 8.736953735351562 70.11915588378906 11.94598388671875 74.87847900390625 16.03375244140625 78.96624755859375 C 20.12152099609375 83.05401611328125 24.88084411621094 86.26304626464844 30.17950439453125 88.50419616699219 C 35.66376876831055 90.82384490966797 41.49121475219727 92 47.5 92 C 53.50878524780273 92 59.33623123168945 90.82384490966797 64.82049560546875 88.50419616699219 C 70.11915588378906 86.26304626464844 74.87847900390625 83.05401611328125 78.96624755859375 78.96624755859375 C 83.05401611328125 74.87847900390625 86.26304626464844 70.11915588378906 88.50419616699219 64.82049560546875 C 90.82384490966797 59.33623123168945 92 53.50878524780273 92 47.5 C 92 41.49121475219727 90.82384490966797 35.66376876831055 88.50419616699219 30.17950439453125 C 86.26304626464844 24.88084411621094 83.05401611328125 20.12152099609375 78.96624755859375 16.03375244140625 C 74.87847900390625 11.94598388671875 70.11915588378906 8.736953735351562 64.82049560546875 6.495796203613281 C 59.33623123168945 4.176155090332031 53.50878524780273 3 47.5 3 M 47.5 0 C 73.7335205078125 0 95 21.2664794921875 95 47.5 C 95 73.7335205078125 73.7335205078125 95 47.5 95 C 21.2664794921875 95 0 73.7335205078125 0 47.5 C 0 21.2664794921875 21.2664794921875 0 47.5 0 Z" stroke="none" fill="#2e5bb6"/>
                </g>
              </g>
            </g>
          </g>
        </g>
      </g>
    </g>
    <g id="compliant" transform="translate(606.261 823)">
      <g id="Grupo_1168887" data-name="Grupo 1168887" transform="translate(12.591 0.852)">
        <path id="Trazado_1013589" data-name="Trazado 1013589" d="M55.041,51.727h-35.8V16.039L27.763,7.5H55.041Z" transform="translate(-19.239 -7.5)" fill="#fff"/>
        <path id="Trazado_1013590" data-name="Trazado 1013590" d="M314.239,7.5h2.273V51.727h-2.273Z" transform="translate(-280.71 -7.5)" fill="#a9baca"/>
        <circle id="Elipse_12094" data-name="Elipse 12094" cx="5.96" cy="5.96" r="5.96" transform="translate(11.941 4.39)" fill="#fff08a"/>
        <path id="Trazado_1013591" data-name="Trazado 1013591" d="M167.876,46.125a5.982,5.982,0,0,0-1.137.11,5.96,5.96,0,0,1,0,11.7,5.96,5.96,0,1,0,1.137-11.81Z" transform="translate(-149.974 -41.735)" fill="#ffc472"/>
        <path id="Trazado_1013592" data-name="Trazado 1013592" d="M27.763,16.039V7.5l-8.524,8.539Z" transform="translate(-19.239 -7.5)" fill="#a9baca"/>
        <path id="Trazado_1013593" data-name="Trazado 1013593" d="M123.676,438.421h-2.841V434.5H102.095v3.921H99.239v4.021h2.856v.014h18.739v-.014h2.841Z" transform="translate(-90.146 -385.968)" fill="#fcad42"/>
        <g id="Grupo_1168886" data-name="Grupo 1168886" transform="translate(27.837 36.217)">
          <path id="Trazado_1013594" data-name="Trazado 1013594" d="M269.239,434.5h2.273v3.921h-2.273Z" transform="translate(-268.661 -422.185)" fill="#ff905b"/>
          <path id="Trazado_1013595" data-name="Trazado 1013595" d="M294.239,469h2.273v4.021h-2.273Z" transform="translate(-290.82 -452.763)" fill="#ff905b"/>
          <path id="Trazado_1013596" data-name="Trazado 1013596" d="M0,0H4.05V11.225H0Z" transform="translate(0 3.491) rotate(-59.537)" fill="#ff905b"/>
        </g>
        <path id="Trazado_1013597" data-name="Trazado 1013597" d="M360.865,379.525a3.1,3.1,0,0,1-4.25,1.1l-12.164-7.157,3.149-5.352,12.164,7.157A3.1,3.1,0,0,1,360.865,379.525Z" transform="translate(-307.488 -327.13)" fill="#fcad42"/>
        <path id="Trazado_1013598" data-name="Trazado 1013598" d="M375.619,375.274l-12.164-7.157-1.116,1.9,11.672,6.868a3.1,3.1,0,0,1,1.272,3.915,3.1,3.1,0,0,0,.336-5.522Z" transform="translate(-323.343 -327.13)" fill="#ff905b"/>
        <path id="Trazado_1013599" data-name="Trazado 1013599" d="M0,0H13.715V8.151H0Z" transform="translate(18.362 39.741) rotate(-59.537)" fill="#fcad42"/>
        <path id="Trazado_1013600" data-name="Trazado 1013600" d="M0,0H2.2V8.151H0Z" transform="translate(24.2 29.817) rotate(-59.537)" fill="#ff905b"/>
        <path id="Trazado_1013601" data-name="Trazado 1013601" d="M158.6,361.12a2.423,2.423,0,0,1-3.317.86l-7.49-4.407a2.423,2.423,0,1,1,2.458-4.177l7.49,4.407A2.423,2.423,0,0,1,158.6,361.12Z" transform="translate(-132.125 -313.784)" fill="#fff08a"/>
        <path id="Trazado_1013602" data-name="Trazado 1013602" d="M241.42,220.367a2.423,2.423,0,0,1-3.317.86l-7.49-4.407a2.423,2.423,0,1,1,2.458-4.177l7.49,4.407A2.423,2.423,0,0,1,241.42,220.367Z" transform="translate(-205.529 -189.03)" fill="#fff08a"/>
        <path id="Trazado_1013603" data-name="Trazado 1013603" d="M241.393,217.051l-7.49-4.407a2.422,2.422,0,0,0-3.546,1.379,2.416,2.416,0,0,1,1.938.228l7.49,4.407a2.424,2.424,0,0,1,1.088,2.8,2.423,2.423,0,0,0,.519-4.405Z" transform="translate(-206.362 -189.031)" fill="#ffc472"/>
        <path id="Trazado_1013604" data-name="Trazado 1013604" d="M316.037,340.109l-3.669,6.236a2.052,2.052,0,1,1-3.537-2.081l3.669-6.236a2.052,2.052,0,0,1,3.537,2.081Z" transform="translate(-275.665 -299.564)" fill="#fff08a"/>
        <path id="Trazado_1013605" data-name="Trazado 1013605" d="M337.945,337.3a2.052,2.052,0,0,0-2.809.728l-1.05,1.785a2.051,2.051,0,0,1,3.382,2.305l1.206-2.009A2.052,2.052,0,0,0,337.945,337.3Z" transform="translate(-298.301 -299.564)" fill="#ffc472"/>
      </g>
      <g id="Grupo_1168888" data-name="Grupo 1168888" transform="translate(11.739 0)">
        <path id="Trazado_1013606" data-name="Trazado 1013606" d="M130.426,45.436a6.812,6.812,0,1,0-6.812,6.812A6.82,6.82,0,0,0,130.426,45.436Zm-11.92,0a5.108,5.108,0,1,1,5.107,5.108A5.113,5.113,0,0,1,118.506,45.436Z" transform="translate(-104.86 -34.234)"/>
        <path id="Trazado_1013607" data-name="Trazado 1013607" d="M153.313,73.806l-2.733,3.24-1.039-1.438-1.382,1,2.316,3.207,4.141-4.907Z" transform="translate(-132.654 -65.417)"/>
        <path id="Trazado_1013608" data-name="Trazado 1013608" d="M64.364,181.5h15.33v1.7H64.364Z" transform="translate(-58.383 -160.871)"/>
        <path id="Trazado_1013609" data-name="Trazado 1013609" d="M64.364,219.5h15.33v1.7H64.364Z" transform="translate(-58.383 -194.552)"/>
        <path id="Trazado_1013610" data-name="Trazado 1013610" d="M64.364,256.438h15.33v1.7H64.364Z" transform="translate(-58.383 -227.292)"/>
        <path id="Trazado_1013611" data-name="Trazado 1013611" d="M64.364,293.53h8.51v1.7h-8.51Z" transform="translate(-58.383 -260.168)"/>
        <path id="Trazado_1013612" data-name="Trazado 1013612" d="M65.3,48.262l-4.025-2.368-.864,1.469,4.025,2.368a2.252,2.252,0,1,1-2.284,3.883L50.721,46.889l2.284-3.882,5.941,3.5.864-1.469-5.959-3.506A2.9,2.9,0,0,0,49.246,38.2V32.57a3.277,3.277,0,0,0,0-3.215V0H20.762L11.739,9.038V30.8h1.7V10.243h8.524V1.7H47.541V27.836l-6.977-4.105a3.275,3.275,0,0,0-3.8,5.306L30.623,39.478a3.275,3.275,0,0,0-3.946,4.749H13.444V32.563h-1.7V45.932H28.776l4.42,2.6H23.687v3.921H20.832v5.726H46.973V52.453H44.132V48.532H39.853a3.251,3.251,0,0,0,.3-2.395c-.018-.07-.039-.138-.061-.206H44.7a2.9,2.9,0,0,0,5.142,2.417l11.447,6.735A3.957,3.957,0,1,0,65.3,48.262ZM14.647,8.539l5.616-5.626V8.539Zm27.78,43.915H37.042v1.7h8.226v2.316H22.536V54.158H35.323v-1.7H25.392V50.237H42.427Zm3.836-9.441-4.668-2.747,1.19-2.022,4.671,2.741Zm-1-8.979a3.255,3.255,0,0,0,1.126.2,3.3,3.3,0,0,0,1.153-.21v5.032l-3.892-2.283Zm-.3,10.193h-5.7l1.466-2.491ZM37.55,25.757a1.56,1.56,0,0,1,.96-.724,1.578,1.578,0,0,1,.4-.051,1.561,1.561,0,0,1,.794.218l7.49,4.407A1.571,1.571,0,1,1,45.6,32.315l-7.492-4.408a1.57,1.57,0,0,1-.556-2.149Zm.66,4.189,5.556,3.269L37.675,43.567,32.119,40.3ZM28.137,41.755a1.56,1.56,0,0,1,.96-.724,1.578,1.578,0,0,1,.4-.051,1.561,1.561,0,0,1,.793.217l7.491,4.408a1.571,1.571,0,0,1,.557,2.15h0a1.571,1.571,0,0,1-2.15.557l-7.49-4.407a1.573,1.573,0,0,1-.557-2.15Zm19.69,6a1.2,1.2,0,0,1-1.335-1.769l3.669-6.236a1.192,1.192,0,0,1,.733-.553,1.206,1.206,0,0,1,.3-.039,1.2,1.2,0,0,1,1.032,1.807L48.56,47.2a1.191,1.191,0,0,1-.733.553Z" transform="translate(-11.739 0)"/>
      </g>
    </g>
  </g>
</svg>
