<svg xmlns="http://www.w3.org/2000/svg" xmlns:xlink="http://www.w3.org/1999/xlink" width="113" height="113" viewBox="0 0 113 113">
  <defs>
    <filter id="Trazado_982547" x="0" y="0" width="113" height="113" filterUnits="userSpaceOnUse">
      <feOffset dy="3" input="SourceAlpha"/>
      <feGaussianBlur stdDeviation="3" result="blur"/>
      <feFlood flood-opacity="0.161"/>
      <feComposite operator="in" in2="blur"/>
      <feComposite in="SourceGraphic"/>
    </filter>
  </defs>
  <g id="Grupo_1168890" data-name="Grupo 1168890" transform="translate(-902 -799)">
    <g id="Grupo_1162472" data-name="Grupo 1162472" transform="translate(631 -2236.154)">
      <g id="Grupo_1162113" data-name="Grupo 1162113" transform="translate(280 3041.154)">
        <g id="Grupo_1152576" data-name="Grupo 1152576" transform="translate(0)">
          <g id="Grupo_1148633" data-name="Grupo 1148633">
            <g id="Grupo_1148525" data-name="Grupo 1148525">
              <g transform="matrix(1, 0, 0, 1, -9, -6)" filter="url(#Trazado_982547)">
                <g id="Trazado_982547-2" data-name="Trazado 982547" transform="translate(9 6)" fill="#e8edf7">
                  <path d="M 47.5 93.5 C 41.28937149047852 93.5 35.26533508300781 92.28397369384766 29.59518623352051 89.88570404052734 C 24.11771965026855 87.56893157958984 19.19813346862793 84.25196075439453 14.97309303283691 80.02691650390625 C 10.74804019927979 75.80186462402344 7.431066513061523 70.88229370117188 5.114293098449707 65.40481567382812 C 2.716026782989502 59.73468017578125 1.5 53.71062850952148 1.5 47.5 C 1.5 41.28937149047852 2.716026782989502 35.26533508300781 5.114293098449707 29.59518623352051 C 7.431066513061523 24.11771965026855 10.74804019927979 19.19813346862793 14.97309303283691 14.97309303283691 C 19.19813346862793 10.74804019927979 24.11771965026855 7.431066513061523 29.59518623352051 5.114293098449707 C 35.26533508300781 2.716026782989502 41.28937149047852 1.5 47.5 1.5 C 53.71062850952148 1.5 59.73468017578125 2.716026782989502 65.40481567382812 5.114293098449707 C 70.88229370117188 7.431066513061523 75.80186462402344 10.74804019927979 80.02691650390625 14.97309303283691 C 84.25196075439453 19.19813346862793 87.56893157958984 24.11771965026855 89.88570404052734 29.59518623352051 C 92.28397369384766 35.26533508300781 93.5 41.28937149047852 93.5 47.5 C 93.5 53.71062850952148 92.28397369384766 59.73468017578125 89.88570404052734 65.40481567382812 C 87.56893157958984 70.88229370117188 84.25196075439453 75.80186462402344 80.02691650390625 80.02691650390625 C 75.80186462402344 84.25196075439453 70.88229370117188 87.56893157958984 65.40481567382812 89.88570404052734 C 59.73468017578125 92.28397369384766 53.71062850952148 93.5 47.5 93.5 Z" stroke="none"/>
                  <path d="M 47.5 3 C 41.49121475219727 3 35.66376876831055 4.176155090332031 30.17950439453125 6.495796203613281 C 24.88084411621094 8.736953735351562 20.12152099609375 11.94598388671875 16.03375244140625 16.03375244140625 C 11.94598388671875 20.12152099609375 8.736953735351562 24.88084411621094 6.495796203613281 30.17950439453125 C 4.176155090332031 35.66376876831055 3 41.49121475219727 3 47.5 C 3 53.50878524780273 4.176155090332031 59.33623123168945 6.495796203613281 64.82049560546875 C 8.736953735351562 70.11915588378906 11.94598388671875 74.87847900390625 16.03375244140625 78.96624755859375 C 20.12152099609375 83.05401611328125 24.88084411621094 86.26304626464844 30.17950439453125 88.50419616699219 C 35.66376876831055 90.82384490966797 41.49121475219727 92 47.5 92 C 53.50878524780273 92 59.33623123168945 90.82384490966797 64.82049560546875 88.50419616699219 C 70.11915588378906 86.26304626464844 74.87847900390625 83.05401611328125 78.96624755859375 78.96624755859375 C 83.05401611328125 74.87847900390625 86.26304626464844 70.11915588378906 88.50419616699219 64.82049560546875 C 90.82384490966797 59.33623123168945 92 53.50878524780273 92 47.5 C 92 41.49121475219727 90.82384490966797 35.66376876831055 88.50419616699219 30.17950439453125 C 86.26304626464844 24.88084411621094 83.05401611328125 20.12152099609375 78.96624755859375 16.03375244140625 C 74.87847900390625 11.94598388671875 70.11915588378906 8.736953735351562 64.82049560546875 6.495796203613281 C 59.33623123168945 4.176155090332031 53.50878524780273 3 47.5 3 M 47.5 0 C 73.7335205078125 0 95 21.2664794921875 95 47.5 C 95 73.7335205078125 73.7335205078125 95 47.5 95 C 21.2664794921875 95 0 73.7335205078125 0 47.5 C 0 21.2664794921875 21.2664794921875 0 47.5 0 Z" stroke="none" fill="#2e5bb6"/>
                </g>
              </g>
            </g>
          </g>
        </g>
      </g>
    </g>
    <g id="XMLID_2297_" transform="translate(908.063 825)">
      <g id="XMLID_2298_" transform="translate(26.73 0.793)">
        <g id="XMLID_2299_" transform="translate(0)">
          <g id="XMLID_2300_" transform="translate(9.758)">
            <g id="XMLID_2301_">
              <path id="XMLID_2302_" d="M163.021,9.852v43.08a2.353,2.353,0,0,1-2.352,2.352H128.129a2.353,2.353,0,0,1-2.352-2.352V9.852A2.353,2.353,0,0,1,128.129,7.5h32.539A2.353,2.353,0,0,1,163.021,9.852Z" transform="translate(-125.777 -7.5)" fill="#9eafc6"/>
              <path id="XMLID_2303_" d="M138.314,180.921a2.45,2.45,0,0,1-.074.6c2.5,1.031,3.062,2.344,3.062,3.308v4.426c0,.963-.558,2.275-3.062,3.307a2.45,2.45,0,0,1,.074.6v3.123H128.129a2.353,2.353,0,0,1-2.352-2.352V165.375a32.047,32.047,0,0,1,3.743-.215,26.2,26.2,0,0,1,7.828,1.068c3.268,1.068,3.953,2.566,3.953,3.635v4.426c0,.953-.547,2.249-2.988,3.275Z" transform="translate(-125.777 -148.498)" fill="#8590a8"/>
              <rect id="XMLID_2304_" width="28.117" height="7.79" transform="translate(4.563 5.683)" fill="#57d3d0"/>
              <path id="XMLID_2305_" d="M241.775,61.28l-7.789,7.79h-4.649l7.79-7.79Z" transform="translate(-218.393 -55.597)" fill="#8ce5e1"/>
              <path id="XMLID_2306_" d="M306.926,61.28l-7.79,7.79h-4.649l7.79-7.79Z" transform="translate(-276.658 -55.597)" fill="#8ce5e1"/>
              <g id="XMLID_2307_" transform="translate(4.727 18.555)">
                <path id="XMLID_2833_" d="M173.985,186.106h-1.962a1.514,1.514,0,0,1-1.514-1.514h0a1.514,1.514,0,0,1,1.514-1.514h1.962a1.514,1.514,0,0,1,1.514,1.514h0A1.514,1.514,0,0,1,173.985,186.106Z" transform="translate(-170.509 -183.078)" fill="#ed6294"/>
                <path id="XMLID_2308_" d="M247.408,184.593a1.514,1.514,0,0,1-1.514,1.514h-1.963a1.514,1.514,0,0,1-.3-3,1.55,1.55,0,0,1,.3-.03h1.963A1.514,1.514,0,0,1,247.408,184.593Z" transform="translate(-234.818 -183.08)" fill="#ed6294"/>
                <path id="XMLID_2309_" d="M245.615,186.14v.218h-1.684a1.514,1.514,0,0,1-.3-3C245.225,184.285,245.615,185.334,245.615,186.14Z" transform="translate(-234.818 -183.33)" fill="#dc4173"/>
                <path id="XMLID_2830_" d="M317.806,186.106h-1.963a1.514,1.514,0,0,1-1.514-1.514h0a1.514,1.514,0,0,1,1.514-1.514h1.963a1.514,1.514,0,0,1,1.514,1.514h0A1.514,1.514,0,0,1,317.806,186.106Z" transform="translate(-299.131 -183.078)" fill="#ed6294"/>
                <path id="XMLID_2829_" d="M389.716,186.106h-1.962a1.514,1.514,0,0,1-1.514-1.514h0a1.514,1.514,0,0,1,1.514-1.514h1.962a1.514,1.514,0,0,1,1.514,1.514h0A1.514,1.514,0,0,1,389.716,186.106Z" transform="translate(-363.441 -183.078)" fill="#ed6294"/>
              </g>
              <g id="XMLID_2310_" transform="translate(4.727 26.262)">
                <path id="XMLID_2827_" d="M173.985,259.033h-1.962a1.514,1.514,0,0,1-1.514-1.514h0a1.514,1.514,0,0,1,1.514-1.514h1.962a1.514,1.514,0,0,1,1.514,1.514h0A1.514,1.514,0,0,1,173.985,259.033Z" transform="translate(-170.509 -256.005)" fill="#697491"/>
                <path id="XMLID_2311_" d="M247.408,257.514a1.515,1.515,0,0,1-1.514,1.514h-1.963a1.514,1.514,0,0,1,0-3.029h1.963A1.515,1.515,0,0,1,247.408,257.514Z" transform="translate(-234.818 -256)" fill="#697491"/>
                <path id="XMLID_2312_" d="M242.417,257.514A1.515,1.515,0,0,1,243.931,256h1.638c-.163.835-.81,1.826-2.623,2.664A1.51,1.51,0,0,1,242.417,257.514Z" transform="translate(-234.818 -256)" fill="#515b7c"/>
                <path id="XMLID_2824_" d="M317.806,259.033h-1.963a1.514,1.514,0,0,1-1.514-1.514h0a1.514,1.514,0,0,1,1.514-1.514h1.963a1.514,1.514,0,0,1,1.514,1.514h0A1.514,1.514,0,0,1,317.806,259.033Z" transform="translate(-299.131 -256.005)" fill="#697491"/>
                <path id="XMLID_2823_" d="M389.716,259.033h-1.962a1.514,1.514,0,0,1-1.514-1.514h0a1.514,1.514,0,0,1,1.514-1.514h1.962a1.514,1.514,0,0,1,1.514,1.514h0A1.514,1.514,0,0,1,389.716,259.033Z" transform="translate(-363.441 -256.005)" fill="#697491"/>
              </g>
              <g id="XMLID_2313_" transform="translate(4.727 32.454)">
                <path id="XMLID_2821_" d="M173.985,317.634h-1.962a1.514,1.514,0,0,1-1.514-1.514h0a1.514,1.514,0,0,1,1.514-1.514h1.962a1.514,1.514,0,0,1,1.514,1.514h0A1.514,1.514,0,0,1,173.985,317.634Z" transform="translate(-170.509 -314.605)" fill="#697491"/>
                <path id="XMLID_2314_" d="M247.408,316.114a1.515,1.515,0,0,1-1.514,1.514h-1.963a1.514,1.514,0,0,1-1.229-2.4,1.405,1.405,0,0,1,.159-.186,1.507,1.507,0,0,1,1.071-.444h1.963A1.515,1.515,0,0,1,247.408,316.114Z" transform="translate(-234.818 -314.6)" fill="#697491"/>
                <path id="XMLID_2315_" d="M242.417,321.445a1.506,1.506,0,0,1,.285-.885,4.565,4.565,0,0,1,2.763,2.4h-1.533A1.515,1.515,0,0,1,242.417,321.445Z" transform="translate(-234.818 -319.93)" fill="#515b7c"/>
                <path id="XMLID_2818_" d="M317.806,317.634h-1.963a1.514,1.514,0,0,1-1.514-1.514h0a1.514,1.514,0,0,1,1.514-1.514h1.963a1.514,1.514,0,0,1,1.514,1.514h0A1.514,1.514,0,0,1,317.806,317.634Z" transform="translate(-299.131 -314.605)" fill="#697491"/>
                <path id="XMLID_2817_" d="M389.716,317.634h-1.962a1.514,1.514,0,0,1-1.514-1.514h0a1.514,1.514,0,0,1,1.514-1.514h1.962a1.514,1.514,0,0,1,1.514,1.514h0A1.514,1.514,0,0,1,389.716,317.634Z" transform="translate(-363.441 -314.605)" fill="#697491"/>
              </g>
              <g id="XMLID_2316_" transform="translate(4.727 38.648)">
                <path id="XMLID_2815_" d="M173.985,376.234h-1.962a1.514,1.514,0,0,1-1.514-1.514h0a1.514,1.514,0,0,1,1.514-1.514h1.962a1.514,1.514,0,0,1,1.514,1.514h0A1.514,1.514,0,0,1,173.985,376.234Z" transform="translate(-170.509 -373.206)" fill="#697491"/>
                <g id="XMLID_2317_" transform="translate(7.599 0)">
                  <path id="XMLID_2318_" d="M247.408,374.723a1.515,1.515,0,0,1-1.514,1.514h-1.963a1.514,1.514,0,1,1,0-3.028h1.963A1.514,1.514,0,0,1,247.408,374.723Z" transform="translate(-242.417 -373.21)" fill="#697491"/>
                </g>
                <path id="XMLID_2319_" d="M243.931,373.21h1.684v2.107a2.454,2.454,0,0,1-.179.92h-1.5a1.514,1.514,0,1,1,0-3.028Z" transform="translate(-234.818 -373.21)" fill="#515b7c"/>
                <path id="XMLID_2811_" d="M317.806,376.234h-1.963a1.514,1.514,0,0,1-1.514-1.514h0a1.514,1.514,0,0,1,1.514-1.514h1.963a1.514,1.514,0,0,1,1.514,1.514h0A1.514,1.514,0,0,1,317.806,376.234Z" transform="translate(-299.131 -373.206)" fill="#697491"/>
                <path id="XMLID_2810_" d="M389.716,376.234h-1.962a1.514,1.514,0,0,1-1.514-1.514h0a1.514,1.514,0,0,1,1.514-1.514h1.962a1.514,1.514,0,0,1,1.514,1.514h0A1.514,1.514,0,0,1,389.716,376.234Z" transform="translate(-363.441 -373.206)" fill="#697491"/>
              </g>
            </g>
          </g>
          <g id="XMLID_2320_" transform="translate(0 17.93)">
            <g id="XMLID_2321_" transform="translate(0 23.297)">
              <path id="XMLID_2322_" d="M33.438,430.114v4.426c0,1.9,4.707,3.435,10.514,3.435s10.514-1.538,10.514-3.435v-4.426Z" transform="translate(-33.438 -426.679)" fill="#efae2e"/>
              <ellipse id="XMLID_2805_" cx="10.514" cy="3.435" rx="10.514" ry="3.435" fill="#ffd243"/>
            </g>
            <g id="XMLID_2323_" transform="translate(2.988 14.964)">
              <path id="XMLID_2324_" d="M61.708,351.267v4.426c0,1.9,4.707,3.435,10.514,3.435s10.514-1.538,10.514-3.435v-4.426Z" transform="translate(-61.708 -347.832)" fill="#efae2e"/>
              <ellipse id="XMLID_2802_" cx="10.514" cy="3.435" rx="10.514" ry="3.435" transform="translate(0)" fill="#ffd243"/>
            </g>
            <g id="XMLID_2325_" transform="translate(0 6.632)">
              <path id="XMLID_2326_" d="M33.438,272.42v4.426c0,1.9,4.707,3.435,10.514,3.435s10.514-1.538,10.514-3.435V272.42Z" transform="translate(-33.438 -268.984)" fill="#efae2e"/>
              <ellipse id="XMLID_2799_" cx="10.514" cy="3.435" rx="10.514" ry="3.435" fill="#ffd243"/>
            </g>
            <g id="XMLID_2327_" transform="translate(2.988)">
              <path id="XMLID_2328_" d="M61.708,209.668v4.426c0,1.9,4.707,3.435,10.514,3.435s10.514-1.538,10.514-3.435v-4.426Z" transform="translate(-61.708 -206.233)" fill="#efae2e"/>
              <ellipse id="XMLID_2796_" cx="10.514" cy="3.435" rx="10.514" ry="3.435" transform="translate(0)" fill="#ffd243"/>
            </g>
          </g>
        </g>
      </g>
      <g id="XMLID_2329_" transform="translate(25.937)">
        <path id="XMLID_2330_" d="M73.732,36.311a.793.793,0,0,0-.793.793v9.121a1.562,1.562,0,0,1-1.56,1.56H48.55v-2.33a2.026,2.026,0,0,0-.206-.876,7.039,7.039,0,0,0,2.35-1.318h1.6a2.307,2.307,0,0,0,0-4.613h-.754V37.122c0-.018,0-.036,0-.054h.755a2.307,2.307,0,0,0,0-4.613H50.329a2.3,2.3,0,0,0-1.782.844c0-.028,0-.055,0-.083v-3.18a2.3,2.3,0,0,0,1.779.84h1.962a2.307,2.307,0,0,0,0-4.613h-.754V23.168h.754a2.307,2.307,0,0,0,0-4.613H50.329a2.315,2.315,0,0,0-1.652.7,24.15,24.15,0,0,0-8.445-1.325c-.992,0-1.986.045-2.95.135V3.145a1.562,1.562,0,0,1,1.56-1.56h6.414a.793.793,0,0,0,0-1.585H38.841A3.149,3.149,0,0,0,35.7,3.145V18.258c-3.783.572-6.771,1.889-6.771,3.9v3.676c-2.462.952-2.988,2.127-2.988,2.956v4.426c0,1.31,1.266,2.324,3.194,3.031a2.026,2.026,0,0,0-.206.876v4.426a2,2,0,0,0,.2.874c-2.609.95-3.19,2.152-3.19,3.033V49.88c0,2.637,4.971,3.89,9.227,4.162l.051,0a.793.793,0,0,0,.05-1.584c-5.4-.345-7.743-1.876-7.743-2.58V47.725c2.081,1.292,5.916,1.958,9.721,1.958s7.641-.666,9.721-1.958v2.156c0,.79-2.732,2.336-8.177,2.605a.793.793,0,0,0,.038,1.584h.04c4.82-.238,9.684-1.625,9.684-4.188v-.51H71.379a3.149,3.149,0,0,0,3.145-3.145V37.1A.792.792,0,0,0,73.732,36.311ZM47.419,43.224a24.115,24.115,0,0,1-7.188.967c-6.29,0-9.721-1.746-9.721-2.643V39.392c2.081,1.292,5.916,1.958,9.721,1.958s7.641-.666,9.721-1.958v2.156C49.952,41.863,49.419,42.57,47.419,43.224Zm-16.72-6.5a28.029,28.029,0,0,0,6.544.723c3.923,0,7.879-.708,9.91-2.081,2.207.669,2.8,1.438,2.8,1.759s-.533,1.022-2.533,1.676a24.116,24.116,0,0,1-7.188.967c-6.29,0-9.721-1.746-9.721-2.643A.681.681,0,0,1,30.7,36.721ZM30.51,24.428c2.081,1.292,5.916,1.958,9.721,1.958s7.641-.666,9.721-1.958v2.156c0,.248-.33.738-1.444,1.254l-.009,0a9.951,9.951,0,0,1-1.081.418,24.115,24.115,0,0,1-7.188.967c-6.29,0-9.721-1.746-9.721-2.643V24.428ZM52.292,40.233a.721.721,0,0,1,0,1.443h-.758q0-.064,0-.128V40.233h.754ZM50.329,34.04h1.962a.721.721,0,0,1,0,1.443H50.78a5.022,5.022,0,0,0-1.163-.833A.722.722,0,0,1,50.329,34.04Zm2.684-5.472a.722.722,0,0,1-.721.721H50.329a.721.721,0,0,1-.591-.309A4.309,4.309,0,0,0,51.1,27.847h1.193A.722.722,0,0,1,53.013,28.569ZM50.329,20.14h1.962a.721.721,0,0,1,0,1.443h-.84a2.906,2.906,0,0,0-1.125-1.443Zm-17.286.342a24.115,24.115,0,0,1,7.188-.967c6.29,0,9.721,1.746,9.721,2.643,0,.315-.533,1.022-2.533,1.676a24.116,24.116,0,0,1-7.188.967c-6.29,0-9.721-1.746-9.721-2.643C30.51,21.843,31.043,21.135,33.043,20.482ZM29.13,27.464c1.065,2.2,6.11,3.348,11.1,3.348a31.362,31.362,0,0,0,3.824-.23,25.053,25.053,0,0,1-6.812.851c-6.29,0-9.721-1.746-9.721-2.643C27.522,28.462,28.025,27.949,29.13,27.464Zm-1.608,5.751V31.059c2.081,1.292,5.916,1.958,9.721,1.958,3.588,0,7.571-.622,9.721-1.956v2.153c0,.315-.533,1.022-2.533,1.676a24.115,24.115,0,0,1-7.188.967C30.953,35.858,27.522,34.112,27.522,33.215ZM44.432,47.131a24.115,24.115,0,0,1-7.188.967c-6.29,0-9.721-1.746-9.721-2.643,0-.444.878-1.176,2.8-1.759,2.031,1.372,5.987,2.08,9.91,2.08a28.026,28.026,0,0,0,6.544-.723.685.685,0,0,1,.189.4C46.965,45.77,46.431,46.477,44.432,47.131Z" transform="translate(-25.937)"/>
        <path id="XMLID_2343_" d="M258.711,0H236.2a.793.793,0,1,0,0,1.585h22.513a1.562,1.562,0,0,1,1.56,1.56V33.491a.793.793,0,0,0,1.585,0V3.145A3.149,3.149,0,0,0,258.711,0Z" transform="translate(-213.269)"/>
        <path id="XMLID_2344_" d="M191.158,54.568a.793.793,0,0,0-.793-.793H162.248a.793.793,0,0,0-.793.793v7.791a.793.793,0,0,0,.793.793h28.118a.793.793,0,0,0,.793-.793V54.568Zm-1.585,7H163.04V55.36h26.532v6.205Z" transform="translate(-147.133 -48.092)"/>
        <path id="XMLID_2347_" d="M311.1,175.578h-1.962a2.307,2.307,0,0,0,0,4.613H311.1a2.307,2.307,0,1,0,0-4.613Zm0,3.028h-1.962a.721.721,0,0,1,0-1.443H311.1a.721.721,0,1,1,0,1.443Z" transform="translate(-277.145 -157.023)"/>
        <path id="XMLID_2350_" d="M383.009,175.578h-1.963a2.307,2.307,0,0,0,0,4.613h1.963a2.307,2.307,0,0,0,0-4.613Zm0,3.028h-1.963a.721.721,0,0,1,0-1.443h1.963a.721.721,0,1,1,0,1.443Z" transform="translate(-341.456 -157.023)"/>
        <path id="XMLID_2353_" d="M311.1,248.5h-1.962a2.307,2.307,0,1,0,0,4.613H311.1a2.307,2.307,0,1,0,0-4.613Zm0,3.028h-1.962a.721.721,0,0,1,0-1.443H311.1a.721.721,0,1,1,0,1.443Z" transform="translate(-277.145 -222.242)"/>
        <path id="XMLID_2356_" d="M383.009,248.5h-1.963a2.307,2.307,0,1,0,0,4.613h1.963a2.307,2.307,0,1,0,0-4.613Zm0,3.028h-1.963a.721.721,0,0,1,0-1.443h1.963a.721.721,0,1,1,0,1.443Z" transform="translate(-341.456 -222.242)"/>
        <path id="XMLID_2359_" d="M311.1,307.105h-1.962a2.307,2.307,0,0,0,0,4.613H311.1a2.307,2.307,0,1,0,0-4.613Zm0,3.028h-1.962a.721.721,0,0,1,0-1.443H311.1a.721.721,0,0,1,0,1.443Z" transform="translate(-277.145 -274.65)"/>
        <path id="XMLID_2362_" d="M383.009,307.105h-1.963a2.307,2.307,0,0,0,0,4.613h1.963a2.307,2.307,0,0,0,0-4.613Zm0,3.028h-1.963a.721.721,0,0,1,0-1.443h1.963a.721.721,0,0,1,0,1.443Z" transform="translate(-341.456 -274.65)"/>
        <path id="XMLID_2365_" d="M311.1,365.706h-1.962a2.307,2.307,0,0,0,0,4.613H311.1a2.307,2.307,0,0,0,0-4.613Zm0,3.028h-1.962a.721.721,0,0,1,0-1.443H311.1a.721.721,0,0,1,0,1.443Z" transform="translate(-277.145 -327.058)"/>
        <path id="XMLID_2368_" d="M383.009,365.706h-1.963a2.307,2.307,0,0,0,0,4.613h1.963a2.307,2.307,0,0,0,0-4.613Zm0,3.028h-1.963a.721.721,0,0,1,0-1.443h1.963a.721.721,0,0,1,0,1.443Z" transform="translate(-341.456 -327.058)"/>
        <path id="XMLID_2371_" d="M61.924,149.659H64.6a.793.793,0,1,0,0-1.585h-2.68a.793.793,0,1,0,0,1.585Z" transform="translate(-57.412 -132.425)"/>
        <path id="XMLID_2372_" d="M61.924,126.418H64.6a.793.793,0,1,0,0-1.585h-2.68a.793.793,0,1,0,0,1.585Z" transform="translate(-57.412 -111.641)"/>
        <path id="XMLID_2373_" d="M87.232,100.635h.011a.788.788,0,0,0,.787-.793.8.8,0,1,0-.8.793Z" transform="translate(-80.045 -88.582)"/>
      </g>
    </g>
  </g>
</svg>
