<svg xmlns="http://www.w3.org/2000/svg" xmlns:xlink="http://www.w3.org/1999/xlink" width="113" height="113" viewBox="0 0 113 113">
  <defs>
    <filter id="Trazado_982547" x="0" y="0" width="113" height="113" filterUnits="userSpaceOnUse">
      <feOffset dy="3" input="SourceAlpha"/>
      <feGaussianBlur stdDeviation="3" result="blur"/>
      <feFlood flood-opacity="0.161"/>
      <feComposite operator="in" in2="blur"/>
      <feComposite in="SourceGraphic"/>
    </filter>
  </defs>
  <g id="Grupo_1168893" data-name="Grupo 1168893" transform="translate(-1217 -799)">
    <g id="Grupo_1162471" data-name="Grupo 1162471" transform="translate(946 -2236.154)">
      <g id="Grupo_1162113" data-name="Grupo 1162113" transform="translate(280 3041.154)">
        <g id="Grupo_1152576" data-name="Grupo 1152576" transform="translate(0)">
          <g id="Grupo_1148633" data-name="Grupo 1148633">
            <g id="Grupo_1148525" data-name="Grupo 1148525">
              <g transform="matrix(1, 0, 0, 1, -9, -6)" filter="url(#Trazado_982547)">
                <g id="Trazado_982547-2" data-name="Trazado 982547" transform="translate(9 6)" fill="#e8edf7">
                  <path d="M 47.5 93.5 C 41.28937149047852 93.5 35.26533508300781 92.28397369384766 29.59518623352051 89.88570404052734 C 24.11771965026855 87.56893157958984 19.19813346862793 84.25196075439453 14.97309303283691 80.02691650390625 C 10.74804019927979 75.80186462402344 7.431066513061523 70.88229370117188 5.114293098449707 65.40481567382812 C 2.716026782989502 59.73468017578125 1.5 53.71062850952148 1.5 47.5 C 1.5 41.28937149047852 2.716026782989502 35.26533508300781 5.114293098449707 29.59518623352051 C 7.431066513061523 24.11771965026855 10.74804019927979 19.19813346862793 14.97309303283691 14.97309303283691 C 19.19813346862793 10.74804019927979 24.11771965026855 7.431066513061523 29.59518623352051 5.114293098449707 C 35.26533508300781 2.716026782989502 41.28937149047852 1.5 47.5 1.5 C 53.71062850952148 1.5 59.73468017578125 2.716026782989502 65.40481567382812 5.114293098449707 C 70.88229370117188 7.431066513061523 75.80186462402344 10.74804019927979 80.02691650390625 14.97309303283691 C 84.25196075439453 19.19813346862793 87.56893157958984 24.11771965026855 89.88570404052734 29.59518623352051 C 92.28397369384766 35.26533508300781 93.5 41.28937149047852 93.5 47.5 C 93.5 53.71062850952148 92.28397369384766 59.73468017578125 89.88570404052734 65.40481567382812 C 87.56893157958984 70.88229370117188 84.25196075439453 75.80186462402344 80.02691650390625 80.02691650390625 C 75.80186462402344 84.25196075439453 70.88229370117188 87.56893157958984 65.40481567382812 89.88570404052734 C 59.73468017578125 92.28397369384766 53.71062850952148 93.5 47.5 93.5 Z" stroke="none"/>
                  <path d="M 47.5 3 C 41.49121475219727 3 35.66376876831055 4.176155090332031 30.17950439453125 6.495796203613281 C 24.88084411621094 8.736953735351562 20.12152099609375 11.94598388671875 16.03375244140625 16.03375244140625 C 11.94598388671875 20.12152099609375 8.736953735351562 24.88084411621094 6.495796203613281 30.17950439453125 C 4.176155090332031 35.66376876831055 3 41.49121475219727 3 47.5 C 3 53.50878524780273 4.176155090332031 59.33623123168945 6.495796203613281 64.82049560546875 C 8.736953735351562 70.11915588378906 11.94598388671875 74.87847900390625 16.03375244140625 78.96624755859375 C 20.12152099609375 83.05401611328125 24.88084411621094 86.26304626464844 30.17950439453125 88.50419616699219 C 35.66376876831055 90.82384490966797 41.49121475219727 92 47.5 92 C 53.50878524780273 92 59.33623123168945 90.82384490966797 64.82049560546875 88.50419616699219 C 70.11915588378906 86.26304626464844 74.87847900390625 83.05401611328125 78.96624755859375 78.96624755859375 C 83.05401611328125 74.87847900390625 86.26304626464844 70.11915588378906 88.50419616699219 64.82049560546875 C 90.82384490966797 59.33623123168945 92 53.50878524780273 92 47.5 C 92 41.49121475219727 90.82384490966797 35.66376876831055 88.50419616699219 30.17950439453125 C 86.26304626464844 24.88084411621094 83.05401611328125 20.12152099609375 78.96624755859375 16.03375244140625 C 74.87847900390625 11.94598388671875 70.11915588378906 8.736953735351562 64.82049560546875 6.495796203613281 C 59.33623123168945 4.176155090332031 53.50878524780273 3 47.5 3 M 47.5 0 C 73.7335205078125 0 95 21.2664794921875 95 47.5 C 95 73.7335205078125 73.7335205078125 95 47.5 95 C 21.2664794921875 95 0 73.7335205078125 0 47.5 C 0 21.2664794921875 21.2664794921875 0 47.5 0 Z" stroke="none" fill="#2e5bb6"/>
                </g>
              </g>
            </g>
          </g>
        </g>
      </g>
    </g>
    <g id="company" transform="translate(1228.001 807.001)">
      <g id="Grupo_1168891" data-name="Grupo 1168891" transform="translate(18.962 20.938)">
        <path id="Trazado_1013613" data-name="Trazado 1013613" d="M357.827,59.951V56H345.975v3.951H344V96.493h15.8V59.951Z" transform="translate(-306.47 -56)" fill="#80daff"/>
        <path id="Trazado_1013614" data-name="Trazado 1013614" d="M62.477,384a28.648,28.648,0,0,0,47.783,0Z" transform="translate(-59.702 -343.507)" fill="#fbd373"/>
        <path id="Trazado_1013615" data-name="Trazado 1013615" d="M133.827,243.753H120V229.926L126.913,224l6.913,5.926Z" transform="translate(-110.124 -203.26)" fill="#80daff"/>
        <path id="Trazado_1013616" data-name="Trazado 1013616" d="M245.827,173.629H232V151.9l7.9-7.9h5.926Z" transform="translate(-208.297 -133.136)" fill="#f47b79"/>
        <path id="Trazado_1013617" data-name="Trazado 1013617" d="M112,432h35.555v1.975H112Z" transform="translate(-103.111 -385.581)"/>
        <path id="Trazado_1013618" data-name="Trazado 1013618" d="M49.876,306.864H40v-7.9L44.938,296l4.938,2.963Z" transform="translate(-40 -266.371)" fill="#f47b79"/>
      </g>
      <path id="Trazado_1013619" data-name="Trazado 1013619" d="M24,47.7,38.814,33.876l5.926,4.938,8.889-9.876-2.963-1.975L60.542,24l-.988,9.876L56.592,31.9,44.74,44.74,38.814,39.8,24,53.629Z" transform="translate(-7.013 -7.013)" fill="#fbd373"/>
      <g id="Grupo_1168892" data-name="Grupo 1168892" transform="translate(15.999 15.999)">
        <path id="Trazado_1013620" data-name="Trazado 1013620" d="M73.283,60.443V49.579H71.307V60.443H65.382V56.493H63.406v3.951H57.481V25.876H71.307V47.6h1.975V24.889A.988.988,0,0,0,72.3,23.9h-.988V20.938a.988.988,0,0,0-.988-.988H65.382V16H63.406v3.951H58.468a.988.988,0,0,0-.988.988V23.9h-.988a.988.988,0,0,0-.988.988v5.926H50.567a.987.987,0,0,0-.7.289l-7.9,7.9a.987.987,0,0,0-.289.7v5.754L36.4,40.929a.988.988,0,0,0-1.286,0L28.2,46.854a.988.988,0,0,0-.345.75v4.181L24.409,49.72a.987.987,0,0,0-1.016,0l-4.938,2.963a.988.988,0,0,0-.479.847v6.913H16v1.975h5.213a29.635,29.635,0,0,0,48.832,0h5.213V60.443ZM59.456,21.926h9.876V23.9H59.456Zm-15.8,18.187,7.322-7.322h4.529V60.444H50.567V56.493H48.592v3.951H43.654ZM29.827,48.059l5.926-5.079,5.926,5.079V60.444H36.74V56.493H34.765v3.951H29.827Zm-9.876,6.031,3.951-2.37,3.951,2.37v6.354H24.889V56.493H22.913v3.951H19.951Zm3.7,8.329h8.881a36.336,36.336,0,0,0,7.141,10.22,27.6,27.6,0,0,1-16.022-10.22ZM43.189,73.176A33.725,33.725,0,0,1,34.73,62.419h21.8a33.726,33.726,0,0,1-8.459,10.757q-1.21.106-2.44.107t-2.44-.107Zm8.393-.538a36.336,36.336,0,0,0,7.141-10.22h8.881A27.6,27.6,0,0,1,51.583,72.638Z" transform="translate(-16 -16)"/>
        <path id="Trazado_1013621" data-name="Trazado 1013621" d="M144,288h1.975v4.938H144Z" transform="translate(-128.198 -254.42)"/>
        <path id="Trazado_1013622" data-name="Trazado 1013622" d="M192,288h1.975v4.938H192Z" transform="translate(-170.272 -254.42)"/>
        <path id="Trazado_1013623" data-name="Trazado 1013623" d="M256,288h1.975v4.938H256Z" transform="translate(-226.371 -254.42)"/>
        <path id="Trazado_1013624" data-name="Trazado 1013624" d="M304,288h1.975v4.938H304Z" transform="translate(-268.445 -254.42)"/>
        <path id="Trazado_1013625" data-name="Trazado 1013625" d="M256,232h1.975v4.938H256Z" transform="translate(-226.371 -205.334)"/>
        <path id="Trazado_1013626" data-name="Trazado 1013626" d="M304,232h1.975v4.938H304Z" transform="translate(-268.445 -205.334)"/>
        <path id="Trazado_1013627" data-name="Trazado 1013627" d="M368,232h1.975v4.938H368Z" transform="translate(-324.544 -205.334)"/>
        <path id="Trazado_1013628" data-name="Trazado 1013628" d="M400,232h1.975v4.938H400Z" transform="translate(-352.594 -205.334)"/>
        <path id="Trazado_1013629" data-name="Trazado 1013629" d="M368,176h1.975v4.938H368Z" transform="translate(-324.544 -156.247)"/>
        <path id="Trazado_1013630" data-name="Trazado 1013630" d="M400,176h1.975v4.938H400Z" transform="translate(-352.594 -156.247)"/>
        <path id="Trazado_1013631" data-name="Trazado 1013631" d="M368,120h1.975v4.938H368Z" transform="translate(-324.544 -107.161)"/>
        <path id="Trazado_1013632" data-name="Trazado 1013632" d="M400,120h1.975v4.938H400Z" transform="translate(-352.594 -107.161)"/>
        <path id="Trazado_1013633" data-name="Trazado 1013633" d="M432,232h1.975v4.938H432Z" transform="translate(-380.643 -205.334)"/>
        <path id="Trazado_1013634" data-name="Trazado 1013634" d="M368,288h1.975v4.938H368Z" transform="translate(-324.544 -254.42)"/>
        <path id="Trazado_1013635" data-name="Trazado 1013635" d="M400,288h1.975v4.938H400Z" transform="translate(-352.594 -254.42)"/>
        <path id="Trazado_1013636" data-name="Trazado 1013636" d="M432,288h1.975v4.938H432Z" transform="translate(-380.643 -254.42)"/>
        <path id="Trazado_1013637" data-name="Trazado 1013637" d="M432,176h1.975v4.938H432Z" transform="translate(-380.643 -156.247)"/>
        <path id="Trazado_1013638" data-name="Trazado 1013638" d="M432,120h1.975v4.938H432Z" transform="translate(-380.643 -107.161)"/>
        <path id="Trazado_1013639" data-name="Trazado 1013639" d="M304,176h1.975v4.938H304Z" transform="translate(-268.445 -156.247)"/>
        <path id="Trazado_1013640" data-name="Trazado 1013640" d="M16.593,47.522a.988.988,0,0,0,1.068-.184L31.838,34.106l5.256,4.38a.988.988,0,0,0,1.358-.089l11.28-12.22,2.261,1.507a.988.988,0,0,0,1.531-.723l.988-9.876a.988.988,0,0,0-1.267-1.044L43.369,19a.988.988,0,0,0-.264,1.768l2.013,1.342-7.489,8.321-5.2-4.33a.988.988,0,0,0-1.306.037L25.837,31.08l1.348,1.444,4.654-4.344,5.256,4.38a.988.988,0,0,0,1.366-.1l8.889-9.876a.988.988,0,0,0-.186-1.482l-1.216-.811L52.4,18.357l-.677,6.773-1.6-1.064a.988.988,0,0,0-1.274.152L37.638,36.368l-5.2-4.337a.988.988,0,0,0-1.306.037L17.974,44.343V41.119l7.587-7.082-1.348-1.444-7.9,7.374A.988.988,0,0,0,16,40.69v5.926a.988.988,0,0,0,.594.906Z" transform="translate(-15.999 -15.999)"/>
      </g>
    </g>
  </g>
</svg>
