<svg xmlns="http://www.w3.org/2000/svg" xmlns:xlink="http://www.w3.org/1999/xlink" width="113" height="113" viewBox="0 0 113 113">
  <defs>
    <filter id="Trazado_982547" x="0" y="0" width="113" height="113" filterUnits="userSpaceOnUse">
      <feOffset dy="3" input="SourceAlpha"/>
      <feGaussianBlur stdDeviation="3" result="blur"/>
      <feFlood flood-opacity="0.161"/>
      <feComposite operator="in" in2="blur"/>
      <feComposite in="SourceGraphic"/>
    </filter>
  </defs>
  <g id="Grupo_1170893" data-name="Grupo 1170893" transform="translate(-270.701 -2199)">
    <g id="Grupo_1168706" data-name="Grupo 1168706" transform="translate(-0.299 -836.154)">
      <g id="Grupo_1162113" data-name="Grupo 1162113" transform="translate(280 3041.154)">
        <g id="Grupo_1152576" data-name="Grupo 1152576" transform="translate(0)">
          <g id="Grupo_1148633" data-name="Grupo 1148633">
            <g id="Grupo_1148525" data-name="Grupo 1148525">
              <g transform="matrix(1, 0, 0, 1, -9, -6)" filter="url(#Trazado_982547)">
                <g id="Trazado_982547-2" data-name="Trazado 982547" transform="translate(9 6)" fill="#e8edf7">
                  <path d="M 47.5 93.5 C 41.28937149047852 93.5 35.26533508300781 92.28397369384766 29.59518623352051 89.88570404052734 C 24.11771965026855 87.56893157958984 19.19813346862793 84.25196075439453 14.97309303283691 80.02691650390625 C 10.74804019927979 75.80186462402344 7.431066513061523 70.88229370117188 5.114293098449707 65.40481567382812 C 2.716026782989502 59.73468017578125 1.5 53.71062850952148 1.5 47.5 C 1.5 41.28937149047852 2.716026782989502 35.26533508300781 5.114293098449707 29.59518623352051 C 7.431066513061523 24.11771965026855 10.74804019927979 19.19813346862793 14.97309303283691 14.97309303283691 C 19.19813346862793 10.74804019927979 24.11771965026855 7.431066513061523 29.59518623352051 5.114293098449707 C 35.26533508300781 2.716026782989502 41.28937149047852 1.5 47.5 1.5 C 53.71062850952148 1.5 59.73468017578125 2.716026782989502 65.40481567382812 5.114293098449707 C 70.88229370117188 7.431066513061523 75.80186462402344 10.74804019927979 80.02691650390625 14.97309303283691 C 84.25196075439453 19.19813346862793 87.56893157958984 24.11771965026855 89.88570404052734 29.59518623352051 C 92.28397369384766 35.26533508300781 93.5 41.28937149047852 93.5 47.5 C 93.5 53.71062850952148 92.28397369384766 59.73468017578125 89.88570404052734 65.40481567382812 C 87.56893157958984 70.88229370117188 84.25196075439453 75.80186462402344 80.02691650390625 80.02691650390625 C 75.80186462402344 84.25196075439453 70.88229370117188 87.56893157958984 65.40481567382812 89.88570404052734 C 59.73468017578125 92.28397369384766 53.71062850952148 93.5 47.5 93.5 Z" stroke="none"/>
                  <path d="M 47.5 3 C 41.49121475219727 3 35.66376876831055 4.176155090332031 30.17950439453125 6.495796203613281 C 24.88084411621094 8.736953735351562 20.12152099609375 11.94598388671875 16.03375244140625 16.03375244140625 C 11.94598388671875 20.12152099609375 8.736953735351562 24.88084411621094 6.495796203613281 30.17950439453125 C 4.176155090332031 35.66376876831055 3 41.49121475219727 3 47.5 C 3 53.50878524780273 4.176155090332031 59.33623123168945 6.495796203613281 64.82049560546875 C 8.736953735351562 70.11915588378906 11.94598388671875 74.87847900390625 16.03375244140625 78.96624755859375 C 20.12152099609375 83.05401611328125 24.88084411621094 86.26304626464844 30.17950439453125 88.50419616699219 C 35.66376876831055 90.82384490966797 41.49121475219727 92 47.5 92 C 53.50878524780273 92 59.33623123168945 90.82384490966797 64.82049560546875 88.50419616699219 C 70.11915588378906 86.26304626464844 74.87847900390625 83.05401611328125 78.96624755859375 78.96624755859375 C 83.05401611328125 74.87847900390625 86.26304626464844 70.11915588378906 88.50419616699219 64.82049560546875 C 90.82384490966797 59.33623123168945 92 53.50878524780273 92 47.5 C 92 41.49121475219727 90.82384490966797 35.66376876831055 88.50419616699219 30.17950439453125 C 86.26304626464844 24.88084411621094 83.05401611328125 20.12152099609375 78.96624755859375 16.03375244140625 C 74.87847900390625 11.94598388671875 70.11915588378906 8.736953735351562 64.82049560546875 6.495796203613281 C 59.33623123168945 4.176155090332031 53.50878524780273 3 47.5 3 M 47.5 0 C 73.7335205078125 0 95 21.2664794921875 95 47.5 C 95 73.7335205078125 73.7335205078125 95 47.5 95 C 21.2664794921875 95 0 73.7335205078125 0 47.5 C 0 21.2664794921875 21.2664794921875 0 47.5 0 Z" stroke="none" fill="#2e5bb6"/>
                </g>
              </g>
            </g>
          </g>
        </g>
      </g>
    </g>
    <g id="_x38_1_Budget_Plan" transform="translate(266.244 2218.102)">
      <g id="Grupo_1170889" data-name="Grupo 1170889" transform="translate(35.457 5.898)">
        <path id="Trazado_1014851" data-name="Trazado 1014851" d="M78.68,33.751V80.075A3.728,3.728,0,0,1,74.952,83.8H43.1a3.728,3.728,0,0,1-3.728-3.728V33.751A3.728,3.728,0,0,1,43.1,30.023H74.952A3.729,3.729,0,0,1,78.68,33.751Z" transform="translate(-38.926 -27.275)" fill="#475da9"/>
        <path id="Trazado_1014852" data-name="Trazado 1014852" d="M78.669,33.777V80.1a3.731,3.731,0,0,1-3.728,3.728H43.084A3.727,3.727,0,0,1,39.356,80.1v-.467H53.28A21.193,21.193,0,0,0,74.474,58.438V30.049h.467a3.732,3.732,0,0,1,3.728,3.728Z" transform="translate(-38.912 -27.298)" opacity="0.12"/>
        <path id="Trazado_1014853" data-name="Trazado 1014853" d="M74.384,65.033h31.332v45.8H74.384Z" transform="translate(-69.95 -58.297)" fill="#e8f1f8"/>
        <path id="Trazado_1014854" data-name="Trazado 1014854" d="M105.71,65.007v45.808H74.375v-3.508H88.656A13.546,13.546,0,0,0,102.195,93.76V65.007Z" transform="translate(-69.942 -58.274)" opacity="0.12"/>
        <path id="Trazado_1014855" data-name="Trazado 1014855" d="M114.514,122.61v-6.726h0a6.726,6.726,0,1,0,6.728,6.726Z" transform="translate(-99.549 -103.356)" fill="#fdcf17"/>
        <path id="Trazado_1014856" data-name="Trazado 1014856" d="M136.538,174.28a6.73,6.73,0,0,1-11.486,4.759l4.759-4.759Z" transform="translate(-114.846 -155.1)" fill="#f14f4a"/>
        <path id="Trazado_1014857" data-name="Trazado 1014857" d="M173.563,122.611v0a6.727,6.727,0,0,0-6.726-6.724v6.726Z" transform="translate(-151.872 -103.357)" fill="#0e9c4a"/>
        <g id="Grupo_1170887" data-name="Grupo 1170887" transform="translate(8.239 15.387)">
          <path id="Trazado_1014858" data-name="Trazado 1014858" d="M261.674,142.275a1.3,1.3,0,0,1-1.3,1.3h-4.4a1.3,1.3,0,1,1,0-2.591h4.4A1.3,1.3,0,0,1,261.674,142.275Z" transform="translate(-237.952 -140.979)" fill="#acbadf"/>
          <path id="Trazado_1014859" data-name="Trazado 1014859" d="M261.674,186.154a1.3,1.3,0,0,1-1.3,1.3h-4.4a1.3,1.3,0,0,1,0-2.591h4.4A1.3,1.3,0,0,1,261.674,186.154Z" transform="translate(-237.952 -179.86)" fill="#acbadf"/>
          <path id="Trazado_1014860" data-name="Trazado 1014860" d="M121.889,259.871a1.3,1.3,0,0,1-1.3,1.3H109.085a1.3,1.3,0,1,1,0-2.591h11.509A1.3,1.3,0,0,1,121.889,259.871Z" transform="translate(-107.789 -245.18)" fill="#acbadf"/>
          <path id="Trazado_1014861" data-name="Trazado 1014861" d="M121.889,307.854a1.3,1.3,0,0,1-1.3,1.3H109.085a1.3,1.3,0,0,1,0-2.591h11.509A1.3,1.3,0,0,1,121.889,307.854Z" transform="translate(-107.789 -287.697)" fill="#acbadf"/>
          <path id="Trazado_1014862" data-name="Trazado 1014862" d="M121.889,355.837a1.3,1.3,0,0,1-1.3,1.3H109.085a1.3,1.3,0,0,1,0-2.591h11.509A1.3,1.3,0,0,1,121.889,355.837Z" transform="translate(-107.789 -330.215)" fill="#acbadf"/>
          <path id="Trazado_1014863" data-name="Trazado 1014863" d="M116.458,403.819a1.3,1.3,0,0,1-1.3,1.3h-6.078a1.3,1.3,0,1,1,0-2.591h6.078A1.3,1.3,0,0,1,116.458,403.819Z" transform="translate(-107.789 -372.731)" fill="#acbadf"/>
        </g>
        <path id="Trazado_1014864" data-name="Trazado 1014864" d="M307.317,206.565a9.113,9.113,0,1,1-9.112-9.112A9.112,9.112,0,0,1,307.317,206.565Z" transform="translate(-260.2 -175.633)" fill="#f78721"/>
        <path id="Trazado_1014865" data-name="Trazado 1014865" d="M326.871,229a6.229,6.229,0,1,1-6.228-6.228A6.228,6.228,0,0,1,326.871,229Z" transform="translate(-282.638 -198.07)" fill="#fdcf17"/>
        <path id="Trazado_1014866" data-name="Trazado 1014866" d="M333.684,235.848a6.23,6.23,0,0,1-11.583,3.191,6.234,6.234,0,0,0,8.547-8.537A6.217,6.217,0,0,1,333.684,235.848Z" transform="translate(-289.45 -204.918)" opacity="0.12"/>
        <path id="Trazado_1014867" data-name="Trazado 1014867" d="M355.376,261.532h1.951a1.175,1.175,0,0,0,0-2.349h-.776a1.175,1.175,0,0,1,0-2.349H358.5" transform="translate(-318.935 -228.25)" fill="none" stroke="#f78721" stroke-linecap="round" stroke-linejoin="round" stroke-miterlimit="10" stroke-width="1.5"/>
        <path id="Trazado_1014868" data-name="Trazado 1014868" d="M369.094,299.061v-.976" transform="translate(-331.09 -264.803)" fill="none" stroke="#f78721" stroke-linecap="round" stroke-linejoin="round" stroke-miterlimit="10" stroke-width="1.5"/>
        <path id="Trazado_1014869" data-name="Trazado 1014869" d="M369.094,249.235v-.976" transform="translate(-331.09 -220.652)" fill="none" stroke="#f78721" stroke-linecap="round" stroke-linejoin="round" stroke-miterlimit="10" stroke-width="1.5"/>
        <path id="Trazado_1014870" data-name="Trazado 1014870" d="M304.1,476.739a1.536,1.536,0,0,1-1.536,1.536H283.97a1.536,1.536,0,0,1,0-3.072h18.591A1.536,1.536,0,0,1,304.1,476.739Z" transform="translate(-254.302 -421.746)" fill="#f78721"/>
        <path id="Trazado_1014871" data-name="Trazado 1014871" d="M287.243,449.768a1.536,1.536,0,0,1-1.536,1.536H267.116a1.536,1.536,0,0,1,0-3.072h18.591A1.536,1.536,0,0,1,287.243,449.768Z" transform="translate(-239.367 -397.847)" fill="#fdcf17"/>
        <path id="Trazado_1014872" data-name="Trazado 1014872" d="M304.1,422.8a1.536,1.536,0,0,1-1.536,1.536H283.97a1.536,1.536,0,1,1,0-3.072h18.591A1.536,1.536,0,0,1,304.1,422.8Z" transform="translate(-254.302 -373.949)" fill="#f78721"/>
        <path id="Trazado_1014873" data-name="Trazado 1014873" d="M287.243,395.827a1.536,1.536,0,0,1-1.536,1.536H267.116a1.536,1.536,0,1,1,0-3.072h18.591A1.536,1.536,0,0,1,287.243,395.827Z" transform="translate(-239.367 -350.05)" fill="#fdcf17"/>
        <path id="Trazado_1014874" data-name="Trazado 1014874" d="M304.1,368.856a1.536,1.536,0,0,1-1.536,1.536H283.97a1.536,1.536,0,1,1,0-3.072h18.591A1.536,1.536,0,0,1,304.1,368.856Z" transform="translate(-254.302 -326.151)" fill="#f78721"/>
        <path id="Trazado_1014875" data-name="Trazado 1014875" d="M287.243,341.885a1.536,1.536,0,0,1-1.536,1.536H267.116a1.536,1.536,0,1,1,0-3.072h18.591A1.536,1.536,0,0,1,287.243,341.885Z" transform="translate(-239.367 -302.253)" fill="#fdcf17"/>
        <path id="Trazado_1014876" data-name="Trazado 1014876" d="M432.2,476.738v0a1.535,1.535,0,0,1-1.535,1.535h-3.66a1.538,1.538,0,0,0,1.537-1.535v0a1.538,1.538,0,0,0-1.537-1.535h3.66A1.535,1.535,0,0,1,432.2,476.738Z" transform="translate(-382.405 -421.746)" opacity="0.12"/>
        <path id="Trazado_1014877" data-name="Trazado 1014877" d="M415.352,449.767v0a1.536,1.536,0,0,1-1.537,1.535h-3.658a1.535,1.535,0,0,0,1.535-1.535v0a1.535,1.535,0,0,0-1.535-1.535h3.658A1.536,1.536,0,0,1,415.352,449.767Z" transform="translate(-367.476 -397.847)" opacity="0.12"/>
        <path id="Trazado_1014878" data-name="Trazado 1014878" d="M432.2,422.8v0a1.535,1.535,0,0,1-1.535,1.535h-3.66a1.538,1.538,0,0,0,1.537-1.535v0a1.538,1.538,0,0,0-1.537-1.535h3.66A1.535,1.535,0,0,1,432.2,422.8Z" transform="translate(-382.405 -373.948)" opacity="0.12"/>
        <path id="Trazado_1014879" data-name="Trazado 1014879" d="M415.352,395.826v0a1.536,1.536,0,0,1-1.537,1.535h-3.658a1.535,1.535,0,0,0,1.535-1.535v0a1.535,1.535,0,0,0-1.535-1.535h3.658A1.536,1.536,0,0,1,415.352,395.826Z" transform="translate(-367.476 -350.05)" opacity="0.12"/>
        <path id="Trazado_1014880" data-name="Trazado 1014880" d="M432.2,368.855v0a1.535,1.535,0,0,1-1.535,1.535h-3.66a1.538,1.538,0,0,0,1.537-1.535v0a1.538,1.538,0,0,0-1.537-1.535h3.66A1.535,1.535,0,0,1,432.2,368.855Z" transform="translate(-382.405 -326.151)" opacity="0.12"/>
        <path id="Trazado_1014881" data-name="Trazado 1014881" d="M415.352,341.884v0a1.536,1.536,0,0,1-1.537,1.535h-3.658a1.535,1.535,0,0,0,1.535-1.535v0a1.535,1.535,0,0,0-1.535-1.535h3.658A1.536,1.536,0,0,1,415.352,341.884Z" transform="translate(-367.476 -302.253)" opacity="0.12"/>
        <path id="Trazado_1014882" data-name="Trazado 1014882" d="M139.025,16.036v.4a1.484,1.484,0,0,1-1.484,1.484h-18.53a1.484,1.484,0,0,1-1.484-1.484v-.4a2.162,2.162,0,0,1,2.162-2.162h.805a2.024,2.024,0,0,0,2.024-2.024,2.024,2.024,0,0,1,2.024-2.024h7.467a2.024,2.024,0,0,1,2.024,2.024,2.024,2.024,0,0,0,2.024,2.024h.805a2.162,2.162,0,0,1,2.162,2.162Z" transform="translate(-108.18 -9.379)" fill="#d1660d"/>
        <g id="Grupo_1170888" data-name="Grupo 1170888" transform="translate(0 0)">
          <path id="Trazado_1014883" data-name="Trazado 1014883" d="M111.031,126.3a7.183,7.183,0,0,0,7.175-7.173v0a7.187,7.187,0,0,0-7.173-7.172h0a7.173,7.173,0,0,0,0,14.347Zm.449-13.436a6.288,6.288,0,0,1,5.807,5.741H111.48Zm-.337,6.71h6.144a6.28,6.28,0,0,1-10.368,4.225Zm-.558-6.71v6l-4.327,4.327a6.27,6.27,0,0,1,4.327-10.329Z" transform="translate(-96.068 -99.876)"/>
          <path id="Trazado_1014884" data-name="Trazado 1014884" d="M252.5,140.537h4.4a1.743,1.743,0,0,0,0-3.486h-4.4a1.743,1.743,0,1,0,0,3.486Zm0-2.591h4.4a.848.848,0,0,1,0,1.7h-4.4a.848.848,0,1,1,0-1.7Z" transform="translate(-226.233 -122.112)"/>
          <path id="Trazado_1014885" data-name="Trazado 1014885" d="M256.9,184.418a1.743,1.743,0,0,0,0-3.486h-4.4a1.743,1.743,0,1,0,0,3.486Zm-5.247-1.743a.849.849,0,0,1,.848-.848h4.4a.848.848,0,0,1,0,1.7h-4.4A.849.849,0,0,1,251.652,182.675Z" transform="translate(-226.233 -160.994)"/>
          <path id="Trazado_1014886" data-name="Trazado 1014886" d="M117.112,254.65H105.6a1.743,1.743,0,1,0,0,3.486h11.509a1.743,1.743,0,0,0,0-3.486Zm0,2.591H105.6a.848.848,0,1,1,0-1.7h11.509a.848.848,0,0,1,0,1.7Z" transform="translate(-96.068 -226.315)"/>
          <path id="Trazado_1014887" data-name="Trazado 1014887" d="M117.112,302.628H105.6a1.743,1.743,0,0,0,0,3.486h11.509a1.743,1.743,0,0,0,0-3.486Zm0,2.592H105.6a.848.848,0,1,1,0-1.7h11.509a.848.848,0,0,1,0,1.7Z" transform="translate(-96.068 -268.828)"/>
          <path id="Trazado_1014888" data-name="Trazado 1014888" d="M117.112,350.612H105.6a1.743,1.743,0,1,0,0,3.486h11.509a1.743,1.743,0,0,0,0-3.486Zm0,2.591H105.6a.848.848,0,1,1,0-1.7h11.509a.848.848,0,0,1,0,1.7Z" transform="translate(-96.068 -311.347)"/>
          <path id="Trazado_1014889" data-name="Trazado 1014889" d="M111.68,398.6H105.6a1.743,1.743,0,1,0,0,3.486h6.078a1.743,1.743,0,1,0,0-3.486Zm0,2.591H105.6a.848.848,0,1,1,0-1.7h6.078a.848.848,0,1,1,0,1.7Z" transform="translate(-96.068 -353.865)"/>
          <path id="Trazado_1014890" data-name="Trazado 1014890" d="M310.485,225.521a6.676,6.676,0,1,0,6.677-6.676A6.685,6.685,0,0,0,310.485,225.521Zm6.677-5.781a5.781,5.781,0,1,1-5.782,5.781,5.787,5.787,0,0,1,5.782-5.781Z" transform="translate(-279.157 -194.589)"/>
          <path id="Trazado_1014891" data-name="Trazado 1014891" d="M353.845,250.008h-1.951a.447.447,0,1,0,0,.895h1.115v.529a.447.447,0,0,0,.895,0V250.9a1.62,1.62,0,0,0-.059-3.239h-.776a.727.727,0,1,1,0-1.454h1.951a.447.447,0,0,0,0-.895H353.9v-.529a.447.447,0,0,0-.895,0v.535a1.619,1.619,0,0,0,.06,3.238h.776a.727.727,0,0,1,0,1.455Z" transform="translate(-315.453 -217.174)"/>
          <path id="Trazado_1014892" data-name="Trazado 1014892" d="M85.7,48.6a1.986,1.986,0,0,0-1.983-1.984h-.265A1.98,1.98,0,0,0,81.8,43.547H80.26a9.551,9.551,0,0,0-4.6-16.013V12.373A4.181,4.181,0,0,0,71.481,8.2H61.742a2.467,2.467,0,0,0-2.454-2.3H51.82a2.467,2.467,0,0,0-2.453,2.3H39.633a4.181,4.181,0,0,0-4.176,4.176V58.7a4.178,4.178,0,0,0,4.176,4.17l44.083,0a1.984,1.984,0,0,0,0-3.967h-.265a1.968,1.968,0,0,0,0-2.177h.265a1.984,1.984,0,0,0,0-3.967h-.265a1.968,1.968,0,0,0,0-2.177h.265A1.985,1.985,0,0,0,85.7,48.6Zm-3.9-4.161a1.089,1.089,0,1,1,0,2.177H63.205a1.089,1.089,0,0,1,0-2.177Zm-18.326,5.25h-.265a1.984,1.984,0,0,0,0,3.967h.265a1.968,1.968,0,0,0,0,2.177h-.265a1.986,1.986,0,0,0-1.983,1.984c0,.059.012.114.017.171h-20.9V13.083h4.033a1.928,1.928,0,0,0,1.918,1.8h18.53a1.928,1.928,0,0,0,1.918-1.8h4.04V27.665a9.54,9.54,0,0,0-4.11,15.882H63.205a1.984,1.984,0,0,0,0,3.967h.265a1.968,1.968,0,0,0,0,2.177Zm18.326.895a1.089,1.089,0,1,1,0,2.177H63.205a1.089,1.089,0,0,1,0-2.177Zm0,6.144a1.089,1.089,0,1,1,0,2.177H63.205a1.089,1.089,0,0,1,0-2.177Zm.329-19.9a8.607,8.607,0,0,1-3.2,6.718H68a8.649,8.649,0,0,1,3.332-15.115,8.656,8.656,0,0,1,10.789,8.4ZM71.481,9.092a3.286,3.286,0,0,1,3.281,3.281v15a9.583,9.583,0,0,0-3.091.08V12.636a.448.448,0,0,0-.447-.447H66.713a2.605,2.605,0,0,0-2.572-2.242h-.805a1.572,1.572,0,0,1-1.393-.854ZM50.244,8.369A1.578,1.578,0,0,1,51.82,6.793h7.468a1.578,1.578,0,0,1,1.577,1.577,2.491,2.491,0,0,0,2.472,2.472h.805a1.716,1.716,0,0,1,1.714,1.714v.4a1.037,1.037,0,0,1-1.036,1.036H46.289a1.038,1.038,0,0,1-1.037-1.036v-.4a1.716,1.716,0,0,1,1.715-1.714h.805A2.492,2.492,0,0,0,50.244,8.369ZM63.468,61.976H39.633A3.282,3.282,0,0,1,36.352,58.7V12.373a3.285,3.285,0,0,1,3.281-3.281h9.532a1.573,1.573,0,0,1-1.393.854h-.805a2.605,2.605,0,0,0-2.572,2.242h-4.5a.448.448,0,0,0-.447.447v45.8a.448.448,0,0,0,.447.447H61.539a2.088,2.088,0,0,0,1.932.917,1.967,1.967,0,0,0,0,2.173ZM83.717,59.8a1.089,1.089,0,0,1,0,2.177H65.125a1.089,1.089,0,0,1,0-2.177Zm0-6.145a1.089,1.089,0,0,1,0,2.177H65.125a1.089,1.089,0,0,1,0-2.177ZM65.125,49.691a1.089,1.089,0,0,1,0-2.177H83.717a1.089,1.089,0,0,1,0,2.177Z" transform="translate(-35.457 -5.898)"/>
        </g>
      </g>
    </g>
  </g>
</svg>
