<svg xmlns="http://www.w3.org/2000/svg" xmlns:xlink="http://www.w3.org/1999/xlink" width="505" height="374" viewBox="0 0 505 374">
  <defs>
    <clipPath id="clip-path">
      <rect id="Rectángulo_414071" data-name="Rectángulo 414071" width="505" height="374" transform="translate(914.701 2394)" fill="#fff" stroke="#707070" stroke-width="1" opacity="0.5"/>
    </clipPath>
    <filter id="XMLID_1190_" x="76.299" y="21.374" width="361.347" height="361.347" filterUnits="userSpaceOnUse">
      <feOffset dy="3" input="SourceAlpha"/>
      <feGaussianBlur stdDeviation="3" result="blur"/>
      <feFlood flood-opacity="0.161"/>
      <feComposite operator="in" in2="blur"/>
      <feComposite in="SourceGraphic"/>
    </filter>
  </defs>
  <g id="Enmascarar_grupo_1098788" data-name="Enmascarar grupo 1098788" transform="translate(-914.701 -2394)" clip-path="url(#clip-path)">
    <g id="Grupo_1171488" data-name="Grupo 1171488" transform="translate(-9470.863 -391.458)">
      <g id="Background1" transform="translate(10470.863 2812.832)">
        <g transform="matrix(1, 0, 0, 1, -85.3, -27.37)" filter="url(#XMLID_1190_)">
          <path id="XMLID_1190_2" data-name="XMLID_1190_" d="M171.673,0A171.673,171.673,0,1,1,0,171.673,171.673,171.673,0,0,1,171.673,0Z" transform="translate(85.3 27.37)" fill="#a4f1d6"/>
        </g>
      </g>
      <g id="Object" transform="translate(10511.048 2846.317)">
        <g id="XMLID_819_" transform="translate(68.41 0)">
          <g id="XMLID_833_" transform="translate(0 6.092)">
            <circle id="XMLID_838_" cx="41.029" cy="41.029" r="41.029" transform="translate(5.052 58.024) rotate(-45)" fill="#dc891a"/>
            <circle id="XMLID_837_" cx="41.029" cy="41.029" r="41.029" transform="translate(0 58.024) rotate(-45)" fill="#ffb327"/>
            <g id="XMLID_834_" transform="translate(49.921 34.686)">
              <path id="XMLID_835_" d="M526.268,403.853v-5.742a16.549,16.549,0,0,1-8.7-2.5l1.364-3.809a15.158,15.158,0,0,0,8.187,2.445c4.037,0,6.766-2.331,6.766-5.571,0-3.127-2.218-5.06-6.425-6.766-5.8-2.274-9.381-4.89-9.381-9.835,0-4.719,3.354-8.3,8.584-9.154v-5.742h3.525v5.515a15.17,15.17,0,0,1,7.39,1.99l-1.421,3.752A13.739,13.739,0,0,0,529,366.5c-4.378,0-6.027,2.615-6.027,4.89,0,2.956,2.1,4.435,7.05,6.482,5.856,2.387,8.813,5.344,8.813,10.4,0,4.491-3.127,8.7-8.983,9.665v5.913h-3.581Z" transform="translate(-517.569 -357.177)" fill="#fff"/>
            </g>
          </g>
          <path id="XMLID_832_" d="M478.062,306.541q-3.689-5.94-7.9-11.519c-1.35-1.787-4.274.133-2.912,1.936q4.215,5.579,7.9,11.519C476.337,310.389,479.25,308.455,478.062,306.541Z" transform="translate(-443.597 -286.562)" fill="#dc891a"/>
          <path id="XMLID_831_" d="M520.443,296a84.847,84.847,0,0,1-1.544-14.846c-.041-2.251-3.531-2.046-3.49.2a89.963,89.963,0,0,0,1.722,15.767C517.564,299.32,520.873,298.183,520.443,296Z" transform="translate(-466.623 -279.564)" fill="#dc891a"/>
          <path id="XMLID_821_" d="M554.013,284.009a45.08,45.08,0,0,0-5.064,12.955c-.49,2.2,2.931,2.93,3.419.733a41.943,41.943,0,0,1,4.76-12.1C558.267,283.648,555.144,282.073,554.013,284.009Z" transform="translate(-482.518 -281.255)" fill="#dc891a"/>
          <path id="XMLID_820_" d="M596.7,293.61a63.18,63.18,0,0,0-9.711,12.8c-1.127,1.955,1.995,3.531,3.116,1.588a59.587,59.587,0,0,1,9.206-12.065C600.89,294.329,598.273,292.009,596.7,293.61Z" transform="translate(-500.479 -285.974)" fill="#dc891a"/>
        </g>
        <g id="XMLID_769_" transform="translate(0 45.971)">
          <path id="XMLID_771_" d="M549.367,367.061l-30.659,9.913,8.793,8.781-64,62.267-54.558-12.716-76.665,89.249,7.783,6.249,72.231-86.12,54.054,13.824,65.7-68.208,7.9,7.891Z" transform="translate(-311.3 -367.061)" fill="#124460"/>
          <path id="XMLID_770_" d="M550.075,665.877v-189.1a4.733,4.733,0,0,0-4.719-4.719h-45.99a4.733,4.733,0,0,0-4.719,4.719v189.1h-5.959V529.73a4.733,4.733,0,0,0-4.719-4.719h-45.99a4.733,4.733,0,0,0-4.719,4.719V665.877H427.3V567.386a4.733,4.733,0,0,0-4.719-4.719H376.59a4.733,4.733,0,0,0-4.719,4.719v98.491h-5.959V612.105a4.733,4.733,0,0,0-4.719-4.719H315.2a4.733,4.733,0,0,0-4.719,4.719v53.771H292.346v18.187h276.6V665.877Z" transform="translate(-292.346 -416.894)" fill="#124460"/>
        </g>
      </g>
    </g>
  </g>
</svg>
