<svg xmlns="http://www.w3.org/2000/svg" xmlns:xlink="http://www.w3.org/1999/xlink" width="108" height="108" viewBox="0 0 108 108">
  <defs>
    <filter id="Trazado_982547" x="0" y="0" width="108" height="108" filterUnits="userSpaceOnUse">
      <feOffset dy="3" input="SourceAlpha"/>
      <feGaussianBlur stdDeviation="3" result="blur"/>
      <feFlood flood-opacity="0.161"/>
      <feComposite operator="in" in2="blur"/>
      <feComposite in="SourceGraphic"/>
    </filter>
  </defs>
  <g id="Grupo_1171490" data-name="Grupo 1171490" transform="translate(-195.701 -3247)">
    <g id="Grupo_1168776" data-name="Grupo 1168776" transform="translate(204.701 3253)">
      <g id="Grupo_1159095" data-name="Grupo 1159095" transform="translate(0)">
        <g id="Grupo_1154033" data-name="Grupo 1154033">
          <g id="Grupo_1153177" data-name="Grupo 1153177">
            <g id="Grupo_1149598" data-name="Grupo 1149598">
              <g id="Grupo_1148770" data-name="Grupo 1148770">
                <g id="Grupo_1146954" data-name="Grupo 1146954">
                  <g transform="matrix(1, 0, 0, 1, -9, -6)" filter="url(#Trazado_982547)">
                    <g id="Trazado_982547-2" data-name="Trazado 982547" transform="translate(9 6)" fill="#f5fdfa">
                      <path d="M 45.00000762939453 88.5 C 39.12688446044922 88.5 33.43023300170898 87.35007476806641 28.06830787658691 85.08217620849609 C 22.8885326385498 82.89131164550781 18.23630714416504 79.75458526611328 14.24085807800293 75.75914764404297 C 10.24542045593262 71.76370239257812 7.108695030212402 67.11147308349609 4.917832851409912 61.93170166015625 C 2.649932622909546 56.56977462768555 1.500007629394531 50.87312316894531 1.500007629394531 45 C 1.500007629394531 39.12687683105469 2.649932622909546 33.43022537231445 4.917832851409912 28.06830024719238 C 7.108695030212402 22.88852500915527 10.24542045593262 18.23629951477051 14.24085807800293 14.2408504486084 C 18.23630714416504 10.24541282653809 22.8885326385498 7.108687400817871 28.06830787658691 4.917825222015381 C 33.43023300170898 2.649924993515015 39.12688446044922 1.5 45.00000762939453 1.5 C 50.87313079833984 1.5 56.56978225708008 2.649924993515015 61.93170928955078 4.917825222015381 C 67.11148071289062 7.108687400817871 71.76371002197266 10.24541282653809 75.7591552734375 14.2408504486084 C 79.75459289550781 18.23629951477051 82.89131927490234 22.88852500915527 85.08218383789062 28.06830024719238 C 87.35008239746094 33.43022537231445 88.50000762939453 39.12687683105469 88.50000762939453 45 C 88.50000762939453 50.87312316894531 87.35008239746094 56.56977462768555 85.08218383789062 61.93170166015625 C 82.89131927490234 67.11147308349609 79.75459289550781 71.76370239257812 75.7591552734375 75.75914764404297 C 71.76371002197266 79.75458526611328 67.11148071289062 82.89131164550781 61.93170928955078 85.08217620849609 C 56.56978225708008 87.35007476806641 50.87313079833984 88.5 45.00000762939453 88.5 Z" stroke="none"/>
                      <path d="M 45.00000762939453 3 C 39.32872009277344 3 33.82866287231445 4.110054016113281 28.65263748168945 6.299339294433594 C 23.65166473388672 8.414573669433594 19.15969085693359 11.44334411621094 15.30152130126953 15.301513671875 C 11.44335174560547 19.15968322753906 8.414581298828125 23.65165710449219 6.299346923828125 28.65262985229492 C 4.110061645507812 33.82865524291992 3.000007629394531 39.32871246337891 3.000007629394531 45 C 3.000007629394531 50.67128753662109 4.110061645507812 56.17134475708008 6.299346923828125 61.34737396240234 C 8.414581298828125 66.34834289550781 11.44335174560547 70.84031677246094 15.30152130126953 74.698486328125 C 19.15969085693359 78.55665588378906 23.65166473388672 81.58542633056641 28.65263748168945 83.70066070556641 C 33.82866287231445 85.88994598388672 39.32872009277344 87 45.00000762939453 87 C 50.67129516601562 87 56.17135238647461 85.88994598388672 61.34738159179688 83.70066070556641 C 66.34835052490234 81.58542633056641 70.84032440185547 78.55665588378906 74.69849395751953 74.698486328125 C 78.55666351318359 70.84031677246094 81.58543395996094 66.34834289550781 83.70066833496094 61.34737396240234 C 85.88995361328125 56.17134475708008 87.00000762939453 50.67128753662109 87.00000762939453 45 C 87.00000762939453 39.32871246337891 85.88995361328125 33.82865524291992 83.70066833496094 28.65262985229492 C 81.58543395996094 23.65165710449219 78.55666351318359 19.15968322753906 74.69849395751953 15.301513671875 C 70.84032440185547 11.44334411621094 66.34835052490234 8.414573669433594 61.34738159179688 6.299339294433594 C 56.17135238647461 4.110054016113281 50.67129516601562 3 45.00000762939453 3 M 45.00000762939453 0 C 69.85282135009766 0 90.00000762939453 20.14718627929688 90.00000762939453 45 C 90.00000762939453 69.85281372070312 69.85282135009766 90 45.00000762939453 90 C 20.14719390869141 90 7.62939453125e-06 69.85281372070312 7.62939453125e-06 45 C 7.62939453125e-06 20.14718627929688 20.14719390869141 0 45.00000762939453 0 Z" stroke="none" fill="#2e5bb6"/>
                    </g>
                  </g>
                </g>
              </g>
            </g>
          </g>
        </g>
      </g>
    </g>
    <g id="personal-finance" transform="translate(200.461 3256.43)">
      <path id="Trazado_1015638" data-name="Trazado 1015638" d="M131.35,336.032c.086.515.15.937.736,1.214a1.183,1.183,0,0,0,1.135-.043l9.552-5.461a2.9,2.9,0,0,1,2.88,5.041l-13.831,7.906c-3.2,1.831-4.612,1.945-8.2,2.178-5.352.348-10.624-.289-15.947-.7l-5.807.577V334.135a11.26,11.26,0,0,0,2.584-.144c4.472-3.948,9.289-3.592,14.391-1.119a2.886,2.886,0,0,0,.739.034v0h8.869a2.915,2.915,0,0,1,2.9,3.123Z" transform="translate(-71.297 -279.004)" fill="#f0b16e" fill-rule="evenodd"/>
      <ellipse id="Elipse_12162" data-name="Elipse 12162" cx="8.662" cy="8.662" rx="8.662" ry="8.662" transform="translate(58.297 28.323) rotate(-75.117)" fill="#ffe177"/>
      <path id="Trazado_1015639" data-name="Trazado 1015639" d="M63.314,336.887h2.753a1.306,1.306,0,0,1,1.3,1.3v14.618a1.306,1.306,0,0,1-1.3,1.3H63.314a1.306,1.306,0,0,1-1.3-1.3V338.19A1.306,1.306,0,0,1,63.314,336.887Z" transform="translate(-36.484 -284.132)" fill="#fa6e85" fill-rule="evenodd"/>
      <g id="Grupo_1171489" data-name="Grupo 1171489" transform="translate(21.13 14.918)">
        <path id="Trazado_1015640" data-name="Trazado 1015640" d="M28.133,106.687h2.6a.922.922,0,0,1,.866.966v5.312a.922.922,0,0,1-.866.966h-2.6a.922.922,0,0,1-.866-.966v-5.312A.922.922,0,0,1,28.133,106.687Z" transform="translate(-27.267 -97.993)" fill="#19cfba" fill-rule="evenodd"/>
        <path id="Trazado_1015641" data-name="Trazado 1015641" d="M93.068,72.352h2.6a.922.922,0,0,1,.866.966v9.659a.922.922,0,0,1-.866.966h-2.6a.922.922,0,0,1-.866-.966V73.318A.922.922,0,0,1,93.068,72.352Z" transform="translate(-83.981 -68.005)" fill="#19cfba" fill-rule="evenodd"/>
        <path id="Trazado_1015642" data-name="Trazado 1015642" d="M158,38.017h2.6a.922.922,0,0,1,.866.966V52.989a.922.922,0,0,1-.866.966H158a.922.922,0,0,1-.866-.966V38.983a.922.922,0,0,1,.866-.966Z" transform="translate(-140.696 -38.017)" fill="#19cfba" fill-rule="evenodd"/>
      </g>
      <path id="Trazado_1015643" data-name="Trazado 1015643" d="M210.7,213.229a6.826,6.826,0,0,1,6.806,6.806v3.588a1.178,1.178,0,0,1-1.176,1.176H205.07a1.178,1.178,0,0,1-1.176-1.176v-3.588A6.826,6.826,0,0,1,210.7,213.229Z" transform="translate(-160.404 -176.129)" fill="#60b7fe" fill-rule="evenodd"/>
      <circle id="Elipse_12163" data-name="Elipse 12163" cx="3.867" cy="3.867" r="3.867" transform="matrix(0.949, -0.316, 0.316, 0.949, 45.41, 30.8)" fill="#f0b16e"/>
      <path id="Trazado_1015644" data-name="Trazado 1015644" d="M70.354,31.794a1.231,1.231,0,0,0-.621-1.033c-.688-.418-1.347,0-2.632-.737a2.991,2.991,0,0,1-1.442-2.506,3.024,3.024,0,0,1,2.329-2.932V24.03a.884.884,0,0,1,1.767,0v.527a5.107,5.107,0,0,1,1.96.8.88.88,0,1,1-.976,1.464,3.551,3.551,0,0,0-1.863-.587,1.591,1.591,0,0,0-.828.231,1.171,1.171,0,0,0,0,2.077c.617.383,1.561.06,2.618.725a2.968,2.968,0,0,1-.909,5.452v.549a.884.884,0,0,1-1.767,0V34.74a5.461,5.461,0,0,1-1.96-.789.88.88,0,0,1,.946-1.484,2.813,2.813,0,0,0,2.766.36A1.209,1.209,0,0,0,70.354,31.794ZM50.292,45.434a5.935,5.935,0,0,1,5.923,5.924v3.588a.3.3,0,0,1-.3.294H44.657a.3.3,0,0,1-.3-.294V51.358A5.946,5.946,0,0,1,50.292,45.434ZM47.3,40.685a2.984,2.984,0,1,1,2.987,2.986A2.988,2.988,0,0,1,47.3,40.685Zm-3.32,6.281H32.523V41.593a.88.88,0,1,0-1.76,0v6.254a.879.879,0,0,0,.88.882H43.068a7.571,7.571,0,0,0-.466,2.629v3.588A2.06,2.06,0,0,0,44.658,57H55.92a2.055,2.055,0,0,0,2.056-2.057V51.358a7.744,7.744,0,0,0-.458-2.629H68.868a.885.885,0,0,0,.887-.882V41.593a.884.884,0,0,0-1.767,0v5.373h-11.4a7.72,7.72,0,0,0-3.239-2.657,4.744,4.744,0,1,0-6.13,0,7.766,7.766,0,0,0-3.239,2.657ZM38.446,23.337a.183.183,0,0,1,.022-.085H40.99a.183.183,0,0,1,.022.085V37.343a.183.183,0,0,1-.022.085H38.468a.183.183,0,0,1-.022-.085ZM38.431,39.19a1.8,1.8,0,0,1-1.745-1.847V23.337a1.8,1.8,0,0,1,1.745-1.847h2.6a1.8,1.8,0,0,1,1.745,1.847V37.343a1.8,1.8,0,0,1-1.745,1.847h-2.6ZM30.223,27.684a.194.194,0,0,1,.022-.086h2.522a.189.189,0,0,1,.022.086v9.659a.183.183,0,0,1-.022.085H30.245a.183.183,0,0,1-.022-.085ZM30.208,39.19a1.8,1.8,0,0,1-1.745-1.847V27.684a1.8,1.8,0,0,1,1.745-1.848h2.6a1.8,1.8,0,0,1,1.745,1.848v9.659A1.8,1.8,0,0,1,32.8,39.19Zm-5.642-1.847a.123.123,0,0,1-.022.085H22.029a.123.123,0,0,1-.022-.085V32.031a.126.126,0,0,1,.022-.086h2.514a.126.126,0,0,1,.022.086Zm1.767,0V32.031a1.8,1.8,0,0,0-1.745-1.849h-2.6a1.8,1.8,0,0,0-1.745,1.849v5.312a1.8,1.8,0,0,0,1.745,1.847h2.6A1.8,1.8,0,0,0,26.333,37.343ZM74.059,64.721,60.231,72.628c-3.128,1.787-4.444,1.872-7.949,2.1-5.444.354-10.526-.271-15.862-.7-.219-.018-4.1.523-4.659.6V63.171h1.1a.929.929,0,0,0,.621-.236c3.927-3.476,8.179-3.81,13.8-1.084a.942.942,0,0,0,.414.094h9.458a2.313,2.313,0,0,1,2.307,2.314,2.285,2.285,0,0,1-.688,1.645H47.157a.94.94,0,0,0,0,1.88H59.122a1.025,1.025,0,0,0,.466-.125L71.759,60.7a2.315,2.315,0,0,1,2.3,4.018ZM30,76.129a.426.426,0,0,1-.421.421H26.821a.425.425,0,0,1-.414-.421V61.509a.425.425,0,0,1,.414-.421H29.58a.426.426,0,0,1,.421.421V76.129Zm44.014-17.46a4.176,4.176,0,0,0-3.187.4L61.34,64.495c0-.078.007-.156.007-.235a4.2,4.2,0,0,0-4.193-4.194H47.911A16.709,16.709,0,0,0,40.1,58.178a12.325,12.325,0,0,0-7.594,3.113h-.754a2.188,2.188,0,0,0-2.174-1.965H26.821a2.188,2.188,0,0,0-2.181,2.183V76.129a2.188,2.188,0,0,0,2.181,2.183H29.58a2.191,2.191,0,0,0,2.144-1.784l4.651-.617c1.006.079,2.019.167,2.995.253a84.286,84.286,0,0,0,13.037.441c3.6-.235,5.25-.342,8.755-2.344l13.828-7.907a4.191,4.191,0,0,0-.976-7.684Zm-5.147-36.8a7.781,7.781,0,1,0,7.787,7.781,7.789,7.789,0,0,0-7.787-7.781Zm0,17.324a9.544,9.544,0,1,0-9.539-9.544A9.555,9.555,0,0,0,68.868,39.19Z" transform="translate(0 -7.453)" fill="#2b3f4f" fill-rule="evenodd"/>
    </g>
  </g>
</svg>
