<svg xmlns="http://www.w3.org/2000/svg" xmlns:xlink="http://www.w3.org/1999/xlink" width="113" height="113" viewBox="0 0 113 113">
  <defs>
    <filter id="Trazado_982547" x="0" y="0" width="113" height="113" filterUnits="userSpaceOnUse">
      <feOffset dy="3" input="SourceAlpha"/>
      <feGaussianBlur stdDeviation="3" result="blur"/>
      <feFlood flood-opacity="0.161"/>
      <feComposite operator="in" in2="blur"/>
      <feComposite in="SourceGraphic"/>
    </filter>
  </defs>
  <g id="Grupo_1171390" data-name="Grupo 1171390" transform="translate(-171.701 -3333)">
    <g id="Grupo_1168721" data-name="Grupo 1168721" transform="translate(0.214 2302.386)">
      <g id="Grupo_1168178" data-name="Grupo 1168178" transform="translate(180.487 1036.614)">
        <g id="Grupo_1166845" data-name="Grupo 1166845" transform="translate(0)">
          <g id="Grupo_1166720" data-name="Grupo 1166720">
            <g id="Grupo_1164305" data-name="Grupo 1164305">
              <g id="Grupo_1163948" data-name="Grupo 1163948">
                <g id="Grupo_1158168" data-name="Grupo 1158168">
                  <g id="Grupo_1152576" data-name="Grupo 1152576">
                    <g id="Grupo_1148633" data-name="Grupo 1148633">
                      <g id="Grupo_1148525" data-name="Grupo 1148525">
                        <g transform="matrix(1, 0, 0, 1, -9, -6)" filter="url(#Trazado_982547)">
                          <g id="Trazado_982547-2" data-name="Trazado 982547" transform="translate(9 6)" fill="#fdf4ee">
                            <path d="M 47.5 93.5 C 41.28937149047852 93.5 35.26533508300781 92.28397369384766 29.59518623352051 89.88570404052734 C 24.11771965026855 87.56893157958984 19.19813346862793 84.25196075439453 14.97309303283691 80.02691650390625 C 10.74804019927979 75.80186462402344 7.431066513061523 70.88229370117188 5.114293098449707 65.40481567382812 C 2.716026782989502 59.73468017578125 1.5 53.71062850952148 1.5 47.5 C 1.5 41.28937149047852 2.716026782989502 35.26533508300781 5.114293098449707 29.59518623352051 C 7.431066513061523 24.11771965026855 10.74804019927979 19.19813346862793 14.97309303283691 14.97309303283691 C 19.19813346862793 10.74804019927979 24.11771965026855 7.431066513061523 29.59518623352051 5.114293098449707 C 35.26533508300781 2.716026782989502 41.28937149047852 1.5 47.5 1.5 C 53.71062850952148 1.5 59.73468017578125 2.716026782989502 65.40481567382812 5.114293098449707 C 70.88229370117188 7.431066513061523 75.80186462402344 10.74804019927979 80.02691650390625 14.97309303283691 C 84.25196075439453 19.19813346862793 87.56893157958984 24.11771965026855 89.88570404052734 29.59518623352051 C 92.28397369384766 35.26533508300781 93.5 41.28937149047852 93.5 47.5 C 93.5 53.71062850952148 92.28397369384766 59.73468017578125 89.88570404052734 65.40481567382812 C 87.56893157958984 70.88229370117188 84.25196075439453 75.80186462402344 80.02691650390625 80.02691650390625 C 75.80186462402344 84.25196075439453 70.88229370117188 87.56893157958984 65.40481567382812 89.88570404052734 C 59.73468017578125 92.28397369384766 53.71062850952148 93.5 47.5 93.5 Z" stroke="none"/>
                            <path d="M 47.5 3 C 41.49121475219727 3 35.66376876831055 4.176155090332031 30.17950439453125 6.495796203613281 C 24.88084411621094 8.736953735351562 20.12152099609375 11.94598388671875 16.03375244140625 16.03375244140625 C 11.94598388671875 20.12152099609375 8.736953735351562 24.88084411621094 6.495796203613281 30.17950439453125 C 4.176155090332031 35.66376876831055 3 41.49121475219727 3 47.5 C 3 53.50878524780273 4.176155090332031 59.33623123168945 6.495796203613281 64.82049560546875 C 8.736953735351562 70.11915588378906 11.94598388671875 74.87847900390625 16.03375244140625 78.96624755859375 C 20.12152099609375 83.05401611328125 24.88084411621094 86.26304626464844 30.17950439453125 88.50419616699219 C 35.66376876831055 90.82384490966797 41.49121475219727 92 47.5 92 C 53.50878524780273 92 59.33623123168945 90.82384490966797 64.82049560546875 88.50419616699219 C 70.11915588378906 86.26304626464844 74.87847900390625 83.05401611328125 78.96624755859375 78.96624755859375 C 83.05401611328125 74.87847900390625 86.26304626464844 70.11915588378906 88.50419616699219 64.82049560546875 C 90.82384490966797 59.33623123168945 92 53.50878524780273 92 47.5 C 92 41.49121475219727 90.82384490966797 35.66376876831055 88.50419616699219 30.17950439453125 C 86.26304626464844 24.88084411621094 83.05401611328125 20.12152099609375 78.96624755859375 16.03375244140625 C 74.87847900390625 11.94598388671875 70.11915588378906 8.736953735351562 64.82049560546875 6.495796203613281 C 59.33623123168945 4.176155090332031 53.50878524780273 3 47.5 3 M 47.5 0 C 73.7335205078125 0 95 21.2664794921875 95 47.5 C 95 73.7335205078125 73.7335205078125 95 47.5 95 C 21.2664794921875 95 0 73.7335205078125 0 47.5 C 0 21.2664794921875 21.2664794921875 0 47.5 0 Z" stroke="none" fill="#ee9865"/>
                          </g>
                        </g>
                      </g>
                    </g>
                  </g>
                </g>
              </g>
            </g>
          </g>
        </g>
      </g>
    </g>
    <g id="pie-chart" transform="translate(194.701 3352.663)">
      <g id="Grupo_1171389" data-name="Grupo 1171389" transform="translate(0.984 1.398)">
        <path id="Trazado_1015359" data-name="Trazado 1015359" d="M36.646,20.586a20.533,20.533,0,0,0-8.2,37.168,1.161,1.161,0,0,1,.427,1.482l-4.227,9.115a.834.834,0,0,1-1.311.412,32.564,32.564,0,0,1,13.3-60.315c.613-.082,1.014.223,1.014.928V19.424a1.14,1.14,0,0,1-1.01,1.163Z" transform="translate(-7.512 -8.435)" fill="#b3e59f" fill-rule="evenodd"/>
        <path id="Trazado_1015360" data-name="Trazado 1015360" d="M95.321,20.586a20.533,20.533,0,0,0-8.2,37.168,1.161,1.161,0,0,1,.427,1.482l-4.227,9.115a.834.834,0,0,1-1.311.412c-.539-.323-1.07-.665-1.59-1.018l3.944-8.509a1.156,1.156,0,0,0-.423-1.482,20.53,20.53,0,0,1,8.2-37.168,1.136,1.136,0,0,0,1.007-1.163V9.377a1.135,1.135,0,0,0-.141-.6c.761-.134,1.534-.245,2.31-.327.613-.082,1.014.223,1.014.928V19.424a1.14,1.14,0,0,1-1.01,1.163Z" transform="translate(-66.187 -8.435)" fill="#95d6a4" fill-rule="evenodd"/>
        <path id="Trazado_1015361" data-name="Trazado 1015361" d="M207.369,96.681a32.567,32.567,0,0,1-35.831,51.294.871.871,0,0,1-.527-1.267l4.227-9.119a1.05,1.05,0,0,1,1.4-.628,20.534,20.534,0,0,0,22.144-31.7,1.105,1.105,0,0,1,.108-1.534L206,96.618A.8.8,0,0,1,207.369,96.681Z" transform="translate(-149.49 -84.757)" fill="#80b4fb" fill-rule="evenodd"/>
        <path id="Trazado_1015362" data-name="Trazado 1015362" d="M270.727,96.681a32.559,32.559,0,0,1-25.32,53.032c-.535,0-1.07-.015-1.6-.041a32.559,32.559,0,0,0,24.5-52.011l1.044-1.044a.8.8,0,0,1,1.371.063Z" transform="translate(-212.848 -84.757)" fill="#61a2f9" fill-rule="evenodd"/>
        <path id="Trazado_1015363" data-name="Trazado 1015363" d="M275.465,8.526A32.384,32.384,0,0,1,292.5,15.587a.874.874,0,0,1,.063,1.371l-7.105,7.105a1.063,1.063,0,0,1-1.534.111,20.383,20.383,0,0,0-8.469-3.51,1.123,1.123,0,0,1-1.007-1.163V9.455c0-.657.364-.951,1.014-.928Z" transform="translate(-239.474 -8.513)" fill="#e27f84" fill-rule="evenodd"/>
        <path id="Trazado_1015364" data-name="Trazado 1015364" d="M276.5,8.525a32.383,32.383,0,0,1,17.037,7.061.874.874,0,0,1,.063,1.371L286.5,24.062a1.063,1.063,0,0,1-1.534.111c-.342-.245-.695-.479-1.051-.7l6.511-6.515a.874.874,0,0,0-.063-1.371,32.434,32.434,0,0,0-14.716-6.734.94.94,0,0,1,.858-.327Z" transform="translate(-240.509 -8.512)" fill="#c9646d" fill-rule="evenodd"/>
        <path id="Trazado_1015365" data-name="Trazado 1015365" d="M151.9,167.264a15.7,15.7,0,1,0-15.7-15.7A15.731,15.731,0,0,0,151.9,167.264Z" transform="translate(-119.343 -119.17)" fill="#fff0af" fill-rule="evenodd"/>
        <path id="Trazado_1015366" data-name="Trazado 1015366" d="M245.458,135.867a15.7,15.7,0,1,1,0,31.4c-.535,0-1.066-.03-1.59-.082a15.7,15.7,0,0,0,0-31.237C244.392,135.893,244.923,135.867,245.458,135.867Z" transform="translate(-212.899 -119.17)" fill="#ffe07d" fill-rule="evenodd"/>
      </g>
      <path id="Trazado_1015367" data-name="Trazado 1015367" d="M12.223,30.924a.979.979,0,0,1,1.943.253A19.9,19.9,0,0,0,14,33.792a19.527,19.527,0,0,0,9.293,16.651.982.982,0,0,1,.353,1.3L18.582,62.648a.981.981,0,0,1-1.415.42A33.546,33.546,0,0,1,31.058.341.986.986,0,0,1,32.11,1.367V13.4a.985.985,0,0,1-.914.981A19.552,19.552,0,0,0,15.18,27.073a.981.981,0,1,1-1.842-.676A21.554,21.554,0,0,1,30.145,12.55V2.4A31.579,31.579,0,0,0,17.252,60.85l4.275-9.215a21.5,21.5,0,0,1-9.3-20.711Zm25.45-5.36a.982.982,0,0,1-1.315,1.46,3.838,3.838,0,0,0-1.85-.825v6.125c.379.149.784.293,1.211.446a5.012,5.012,0,0,1,3.228,3.12,5.27,5.27,0,0,1,.171,2.674,5.868,5.868,0,0,1-1.111,2.463,5.566,5.566,0,0,1-3.5,2.1v1.59a.982.982,0,1,1-1.965,0V43.2A6.938,6.938,0,0,1,28.5,41.848a.981.981,0,1,1,1.073-1.642,6.036,6.036,0,0,0,1.857.892,5.8,5.8,0,0,0,1.118.145v-7.6a11.888,11.888,0,0,1-2.574-1.46,3.682,3.682,0,0,1-1.237-1.842,4.667,4.667,0,0,1-.089-2.232,4.951,4.951,0,0,1,.955-2.095,4.491,4.491,0,0,1,2.243-1.541,6.627,6.627,0,0,1,.7-.171V22.864a.982.982,0,0,1,1.965,0v1.359a6.1,6.1,0,0,1,3.165,1.341Zm-5.129.75c-.048.011-.093.026-.141.037a2.5,2.5,0,0,0-1.259.866,2.993,2.993,0,0,0-.572,1.267,2.715,2.715,0,0,0,.045,1.3,1.694,1.694,0,0,0,.561.862,7.989,7.989,0,0,0,1.367.836V26.315Zm2.522,8.305q-.284-.1-.557-.2v6.708a3.639,3.639,0,0,0,1.946-1.3,3.829,3.829,0,0,0,.735-1.623,3.341,3.341,0,0,0-.1-1.683A3.106,3.106,0,0,0,35.066,34.62ZM33.543,17.111A16.688,16.688,0,1,1,21.751,22,16.632,16.632,0,0,1,33.543,17.111ZM43.95,23.388a14.719,14.719,0,1,0,4.309,10.4,14.675,14.675,0,0,0-4.309-10.4ZM39.672,13.17a.98.98,0,1,1-.553,1.879,19.259,19.259,0,0,0-3.269-.672.986.986,0,0,1-.873-1.04V1.322A.985.985,0,0,1,36.088.345,33.423,33.423,0,0,1,55.435,8.383a.983.983,0,0,1,.03,1.46l-8.52,8.521a.982.982,0,0,1-1.367.019,19.566,19.566,0,0,0-2.559-1.694.979.979,0,0,1,.951-1.712,21.411,21.411,0,0,1,2.191,1.393l7.18-7.18A31.395,31.395,0,0,0,36.942,2.4V12.55a21.458,21.458,0,0,1,2.73.62ZM52.456,44.047a.979.979,0,0,1-1.72-.936A19.531,19.531,0,0,0,48.9,21.691a.991.991,0,0,1,.119-1.348l8.5-8.494A.977.977,0,0,1,59,11.963,33.549,33.549,0,0,1,21.732,65.192a.983.983,0,0,1-.535-1.359L26.267,52.9a.982.982,0,0,1,1.2-.52,19.309,19.309,0,0,0,6.08.962,19.478,19.478,0,0,0,14.783-6.749.98.98,0,1,1,1.482,1.281,21.531,21.531,0,0,1-19.656,7.165,21.312,21.312,0,0,1-2.462-.542l-4.271,9.219A31.577,31.577,0,0,0,58.15,13.995l-7.183,7.183a21.486,21.486,0,0,1,1.489,22.869Z" transform="translate(0 0)"/>
    </g>
  </g>
</svg>
