<svg xmlns="http://www.w3.org/2000/svg" xmlns:xlink="http://www.w3.org/1999/xlink" width="505" height="383" viewBox="0 0 505 383">
  <defs>
    <clipPath id="clip-path">
      <rect id="Rectángulo_414070" data-name="Rectángulo 414070" width="505" height="383" transform="translate(179.701 3951)" fill="#fff" stroke="#707070" stroke-width="1" opacity="0.7"/>
    </clipPath>
  </defs>
  <g id="Enmascarar_grupo_1098787" data-name="Enmascarar grupo 1098787" transform="translate(-179.701 -3951)" clip-path="url(#clip-path)">
    <g id="OBJECTS" transform="translate(189.557 3904.032)">
      <path id="Trazado_1015637" data-name="Trazado 1015637" d="M189.726,0C294.508,0,379.452,78.487,379.452,175.305S294.508,350.611,189.726,350.611,0,272.124,0,175.305,84.943,0,189.726,0Z" transform="translate(52.922 51.633)" fill="#f3b692"/>
      <circle id="Elipse_12160" data-name="Elipse 12160" cx="158.177" cy="158.177" r="158.177" transform="translate(18.951 241.359) rotate(-45)" fill="#fadfd0"/>
      <circle id="Elipse_12161" data-name="Elipse 12161" cx="126.526" cy="126.526" r="126.526" transform="translate(63.711 241.359) rotate(-45)" fill="#6fddf2"/>
      <g id="Grupo_1171449" data-name="Grupo 1171449" transform="translate(228.323 89.75)">
        <path id="Trazado_1015524" data-name="Trazado 1015524" d="M414.786,221.1l-14.509-9.285,21.9-73.464a11.391,11.391,0,0,0-7.1-14L296.252,92.719a2.688,2.688,0,0,0-3.417,1.827L251.484,278.419a2.9,2.9,0,0,0,1.809,3.566l97.586,32.463,6.837,2.274,25.98,8.643c5.14,1.71,10.672-1.689,12.408-7.514l24.061-80.7C421.9,231.325,419.531,224.132,414.786,221.1Z" transform="translate(-236.967 -92.536)" fill="#a12b2d"/>
        <path id="Trazado_1015525" data-name="Trazado 1015525" d="M409.2,221.2l-14.248-8.511L416.1,141.777a10.617,10.617,0,0,0-7.015-13.223l-102.4-30.531a2.7,2.7,0,0,0-3.339,1.839L249.527,280.346a2.7,2.7,0,0,0,1.786,3.367l95.7,28.533,6.7,2,25.478,7.6c5.041,1.5,10.443-1.9,12.119-7.518l23.225-77.9C416.215,230.805,413.861,223.98,409.2,221.2Z" transform="translate(-236.894 -92.735)" fill="#fff"/>
        <path id="Trazado_1015526" data-name="Trazado 1015526" d="M404.1,220.891,389.084,212l21.9-73.464a11.084,11.084,0,0,0-7.433-13.749L295.78,92.651a2.822,2.822,0,0,0-3.5,1.893L236.527,281.532a2.822,2.822,0,0,0,1.893,3.5l100.718,30.029,7.056,2.1,26.814,8c5.306,1.582,10.968-1.919,12.705-7.744l24.061-80.7C411.513,230.89,409.008,223.8,404.1,220.891Z" transform="translate(-236.411 -92.535)" fill="#ff4446"/>
      </g>
      <g id="Grupo_1171452" data-name="Grupo 1171452" transform="translate(58.962 87.252)">
        <g id="Grupo_1171451" data-name="Grupo 1171451" transform="translate(0)">
          <path id="Trazado_1015527" data-name="Trazado 1015527" d="M237.838,269.649l-72.425,39.723a14.1,14.1,0,0,1-19.084-5.565L62.229,150.47a14.1,14.1,0,0,1,5.565-19.085L140.22,91.662A14.1,14.1,0,0,1,159.3,97.227l84.1,153.337A14.1,14.1,0,0,1,237.838,269.649Z" transform="translate(-60.508 -89.941)" fill="#1d4147"/>
          <path id="Trazado_1015528" data-name="Trazado 1015528" d="M234.59,267.417,165.353,305.39a13.678,13.678,0,0,1-18.517-5.4L64.059,149.063a13.678,13.678,0,0,1,5.4-18.517L138.7,92.573a13.678,13.678,0,0,1,18.517,5.4L239.989,248.9A13.678,13.678,0,0,1,234.59,267.417Z" transform="translate(-60.578 -89.976)" fill="#306c78"/>
          <path id="Trazado_1015529" data-name="Trazado 1015529" d="M233.65,242.89l-88.508,48.543h0L70.957,156.173h0l88.509-48.544Z" transform="translate(-60.896 -90.599)" fill="#245159"/>
          <rect id="Rectángulo_414028" data-name="Rectángulo 414028" width="95.152" height="145.834" transform="translate(14.632 67.878) rotate(-28.744)" fill="#ffdf3d"/>
          <g id="Grupo_1171450" data-name="Grupo 1171450" transform="translate(14.629 22.122)" opacity="0.3">
            <path id="Trazado_1015530" data-name="Trazado 1015530" d="M75.7,159.839l5.712,10.417,22.722-26.012Z" transform="translate(-75.702 -114.082)" fill="#fff"/>
            <path id="Trazado_1015531" data-name="Trazado 1015531" d="M159.6,112.917l-23.021,12.626L88.308,180.8,94.6,192.28l66.666-76.32Z" transform="translate(-76.171 -112.917)" fill="#fff"/>
            <path id="Trazado_1015532" data-name="Trazado 1015532" d="M171.957,135.124l-66.665,76.32,7.2,13.134,66.666-76.32Z" transform="translate(-76.803 -113.743)" fill="#fff"/>
            <path id="Trazado_1015533" data-name="Trazado 1015533" d="M195.079,177.277q-33.35,38.182-66.587,76.463l6.064,11.055,66.666-76.32Z" transform="translate(-77.665 -115.311)" fill="#fff"/>
            <path id="Trazado_1015534" data-name="Trazado 1015534" d="M208.127,201.073l-66.666,76.32,3.569,6.508,66.666-76.32Z" transform="translate(-78.148 -116.196)" fill="#fff"/>
            <path id="Trazado_1015535" data-name="Trazado 1015535" d="M227.1,232.885q-13.539,15.48-27.1,30.941l33.88-18.582Z" transform="translate(-80.325 -117.379)" fill="#fff"/>
          </g>
          <path id="Trazado_1015536" data-name="Trazado 1015536" d="M90.945,138.013h0a3.616,3.616,0,0,1-4.895-1.428h0a3.615,3.615,0,0,1,1.428-4.895h0a3.616,3.616,0,0,1,4.895,1.428h0A3.617,3.617,0,0,1,90.945,138.013Z" transform="translate(-61.441 -91.477)" fill="#fff"/>
          <path id="Trazado_1015537" data-name="Trazado 1015537" d="M90.075,136.364h0a1.644,1.644,0,0,1-2.225-.649h0a1.644,1.644,0,0,1,.649-2.225h0a1.644,1.644,0,0,1,2.225.649h0A1.644,1.644,0,0,1,90.075,136.364Z" transform="translate(-61.517 -91.553)" fill="#245159"/>
          <path id="Trazado_1015538" data-name="Trazado 1015538" d="M205.964,279.961a7.437,7.437,0,1,1-10.1-2.944A7.438,7.438,0,0,1,205.964,279.961Z" transform="translate(-65.399 -96.865)" fill="#fff"/>
          <path id="Trazado_1015539" data-name="Trazado 1015539" d="M203.329,281.594a4.293,4.293,0,1,1-5.829-1.7A4.294,4.294,0,0,1,203.329,281.594Z" transform="translate(-65.52 -96.986)" fill="#306c78"/>
          <path id="Trazado_1015540" data-name="Trazado 1015540" d="M201.149,286.594a4.278,4.278,0,0,1-5.537-1.276,4.134,4.134,0,0,0,.2.474,4.293,4.293,0,1,0,7.528-4.129,4.248,4.248,0,0,0-.292-.425A4.281,4.281,0,0,1,201.149,286.594Z" transform="translate(-65.533 -97.056)" fill="#245159"/>
          <rect id="Rectángulo_414029" data-name="Rectángulo 414029" width="32.398" height="6.647" transform="translate(33.252 36.579) rotate(-28.744)" fill="#245159"/>
          <rect id="Rectángulo_414030" data-name="Rectángulo 414030" width="32.398" height="2.83" transform="translate(35.088 39.926) rotate(-28.744)" fill="#1d4147"/>
          <rect id="Rectángulo_414031" data-name="Rectángulo 414031" width="26.269" height="5.571" transform="translate(98.894 202.779) rotate(-28.744)" fill="#245159"/>
          <rect id="Rectángulo_414032" data-name="Rectángulo 414032" width="26.269" height="1.963" transform="translate(100.629 205.943) rotate(-28.744)" fill="#1d4147"/>
          <rect id="Rectángulo_414033" data-name="Rectángulo 414033" width="26.269" height="5.571" transform="translate(142.439 178.895) rotate(-28.744)" fill="#245159"/>
          <rect id="Rectángulo_414034" data-name="Rectángulo 414034" width="26.269" height="1.963" transform="translate(144.175 182.059) rotate(-28.744)" fill="#1d4147"/>
        </g>
      </g>
      <g id="Grupo_1171458" data-name="Grupo 1171458" transform="translate(50.447 217.946)">
        <g id="Grupo_1171453" data-name="Grupo 1171453" transform="translate(0 0)">
          <rect id="Rectángulo_414035" data-name="Rectángulo 414035" width="118.854" height="147.96" transform="matrix(0.907, -0.422, 0.422, 0.907, 0, 50.156)" fill="#ff4446"/>
          <rect id="Rectángulo_414036" data-name="Rectángulo 414036" width="112.934" height="143.883" transform="matrix(0.907, -0.422, 0.422, 0.907, 2.683, 48.908)" fill="#a12b2d"/>
          <rect id="Rectángulo_414037" data-name="Rectángulo 414037" width="109.15" height="140.683" transform="matrix(0.907, -0.422, 0.422, 0.907, 4.398, 48.109)" fill="#fff"/>
          <path id="Trazado_1015541" data-name="Trazado 1015541" d="M65.881,277.907a1.8,1.8,0,1,1-2.394-.873A1.8,1.8,0,0,1,65.881,277.907Z" transform="translate(-52.064 -227.587)" fill="#171c24"/>
          <path id="Trazado_1015542" data-name="Trazado 1015542" d="M74.229,274.022a1.8,1.8,0,1,1-2.394-.873A1.8,1.8,0,0,1,74.229,274.022Z" transform="translate(-52.375 -227.442)" fill="#171c24"/>
          <path id="Trazado_1015543" data-name="Trazado 1015543" d="M82.577,270.136a1.8,1.8,0,1,1-2.395-.873A1.8,1.8,0,0,1,82.577,270.136Z" transform="translate(-52.685 -227.298)" fill="#171c24"/>
          <path id="Trazado_1015544" data-name="Trazado 1015544" d="M90.926,266.251a1.8,1.8,0,1,1-2.395-.873A1.8,1.8,0,0,1,90.926,266.251Z" transform="translate(-52.996 -227.153)" fill="#171c24"/>
          <path id="Trazado_1015545" data-name="Trazado 1015545" d="M99.274,262.365a1.8,1.8,0,1,1-2.395-.873A1.8,1.8,0,0,1,99.274,262.365Z" transform="translate(-53.306 -227.009)" fill="#171c24"/>
          <path id="Trazado_1015546" data-name="Trazado 1015546" d="M107.622,258.48a1.8,1.8,0,1,1-2.395-.873A1.8,1.8,0,0,1,107.622,258.48Z" transform="translate(-53.617 -226.864)" fill="#171c24"/>
          <path id="Trazado_1015547" data-name="Trazado 1015547" d="M115.971,254.594a1.8,1.8,0,1,1-2.394-.873A1.8,1.8,0,0,1,115.971,254.594Z" transform="translate(-53.927 -226.72)" fill="#171c24"/>
          <path id="Trazado_1015548" data-name="Trazado 1015548" d="M124.319,250.709a1.8,1.8,0,1,1-2.395-.873A1.8,1.8,0,0,1,124.319,250.709Z" transform="translate(-54.238 -226.575)" fill="#171c24"/>
          <path id="Trazado_1015549" data-name="Trazado 1015549" d="M132.667,246.823a1.8,1.8,0,1,1-2.395-.873A1.8,1.8,0,0,1,132.667,246.823Z" transform="translate(-54.548 -226.431)" fill="#171c24"/>
          <path id="Trazado_1015550" data-name="Trazado 1015550" d="M141.016,242.937a1.8,1.8,0,1,1-2.395-.873A1.8,1.8,0,0,1,141.016,242.937Z" transform="translate(-54.859 -226.286)" fill="#171c24"/>
          <path id="Trazado_1015551" data-name="Trazado 1015551" d="M149.364,239.052a1.8,1.8,0,1,1-2.395-.873A1.8,1.8,0,0,1,149.364,239.052Z" transform="translate(-55.169 -226.142)" fill="#171c24"/>
          <path id="Trazado_1015552" data-name="Trazado 1015552" d="M157.712,235.166a1.8,1.8,0,1,1-2.395-.873A1.8,1.8,0,0,1,157.712,235.166Z" transform="translate(-55.48 -225.997)" fill="#171c24"/>
          <path id="Trazado_1015553" data-name="Trazado 1015553" d="M64.549,279.272h0a.827.827,0,0,1-1.1-.4L59.6,270.6a.827.827,0,0,1,.4-1.1h0a.827.827,0,0,1,1.1.4l3.852,8.275A.828.828,0,0,1,64.549,279.272Z" transform="translate(-51.956 -227.31)" fill="#252d38"/>
          <path id="Trazado_1015554" data-name="Trazado 1015554" d="M72.9,275.387h0a.827.827,0,0,1-1.1-.4l-3.852-8.275a.827.827,0,0,1,.4-1.1h0a.827.827,0,0,1,1.1.4l3.852,8.275A.827.827,0,0,1,72.9,275.387Z" transform="translate(-52.266 -227.166)" fill="#252d38"/>
          <path id="Trazado_1015555" data-name="Trazado 1015555" d="M81.245,271.5h0a.827.827,0,0,1-1.1-.4L76.3,262.825a.827.827,0,0,1,.4-1.1h0a.827.827,0,0,1,1.1.4l3.852,8.275A.826.826,0,0,1,81.245,271.5Z" transform="translate(-52.577 -227.021)" fill="#252d38"/>
          <path id="Trazado_1015556" data-name="Trazado 1015556" d="M89.594,267.615h0a.827.827,0,0,1-1.1-.4l-3.852-8.275a.827.827,0,0,1,.4-1.1h0a.827.827,0,0,1,1.1.4l3.852,8.275A.827.827,0,0,1,89.594,267.615Z" transform="translate(-52.887 -226.877)" fill="#252d38"/>
          <path id="Trazado_1015557" data-name="Trazado 1015557" d="M97.942,263.73h0a.827.827,0,0,1-1.1-.4l-3.852-8.275a.827.827,0,0,1,.4-1.1h0a.827.827,0,0,1,1.1.4l3.851,8.275A.826.826,0,0,1,97.942,263.73Z" transform="translate(-53.198 -226.732)" fill="#252d38"/>
          <path id="Trazado_1015558" data-name="Trazado 1015558" d="M106.29,259.844h0a.827.827,0,0,1-1.1-.4l-3.852-8.275a.828.828,0,0,1,.4-1.1h0a.827.827,0,0,1,1.1.4l3.852,8.275A.827.827,0,0,1,106.29,259.844Z" transform="translate(-53.508 -226.587)" fill="#252d38"/>
          <path id="Trazado_1015559" data-name="Trazado 1015559" d="M114.639,255.959h0a.828.828,0,0,1-1.1-.4l-3.851-8.275a.827.827,0,0,1,.4-1.1h0a.827.827,0,0,1,1.1.4l3.852,8.275A.827.827,0,0,1,114.639,255.959Z" transform="translate(-53.819 -226.443)" fill="#252d38"/>
          <path id="Trazado_1015560" data-name="Trazado 1015560" d="M122.987,252.073h0a.827.827,0,0,1-1.1-.4l-3.852-8.275a.827.827,0,0,1,.4-1.1h0a.828.828,0,0,1,1.1.4l3.851,8.275A.827.827,0,0,1,122.987,252.073Z" transform="translate(-54.129 -226.298)" fill="#252d38"/>
          <path id="Trazado_1015561" data-name="Trazado 1015561" d="M131.335,248.188h0a.827.827,0,0,1-1.1-.4l-3.852-8.275a.827.827,0,0,1,.4-1.1h0a.827.827,0,0,1,1.1.4l3.852,8.275A.826.826,0,0,1,131.335,248.188Z" transform="translate(-54.44 -226.154)" fill="#252d38"/>
          <path id="Trazado_1015562" data-name="Trazado 1015562" d="M139.684,244.3h0a.827.827,0,0,1-1.1-.4l-3.851-8.275a.827.827,0,0,1,.4-1.1h0a.827.827,0,0,1,1.1.4l3.852,8.275A.828.828,0,0,1,139.684,244.3Z" transform="translate(-54.75 -226.009)" fill="#252d38"/>
          <path id="Trazado_1015563" data-name="Trazado 1015563" d="M148.032,240.416h0a.827.827,0,0,1-1.1-.4l-3.852-8.275a.827.827,0,0,1,.4-1.1h0a.827.827,0,0,1,1.1.4l3.852,8.275A.827.827,0,0,1,148.032,240.416Z" transform="translate(-55.061 -225.865)" fill="#252d38"/>
          <path id="Trazado_1015564" data-name="Trazado 1015564" d="M156.38,236.531h0a.827.827,0,0,1-1.1-.4l-3.852-8.275a.827.827,0,0,1,.4-1.1h0a.827.827,0,0,1,1.1.4l3.852,8.275A.825.825,0,0,1,156.38,236.531Z" transform="translate(-55.371 -225.72)" fill="#252d38"/>
          <line id="Línea_872" data-name="Línea 872" y1="46.058" x2="98.957" transform="translate(10.324 14.806)" fill="none" stroke="#50b6ca" stroke-miterlimit="10" stroke-width="0.896"/>
          <line id="Línea_873" data-name="Línea 873" y1="46.058" x2="98.957" transform="translate(13.254 21.102)" fill="none" stroke="#50b6ca" stroke-miterlimit="10" stroke-width="0.896"/>
          <line id="Línea_874" data-name="Línea 874" y1="46.058" x2="98.958" transform="translate(16.184 27.396)" fill="none" stroke="#50b6ca" stroke-miterlimit="10" stroke-width="0.896"/>
          <line id="Línea_875" data-name="Línea 875" y1="46.058" x2="98.957" transform="translate(19.114 33.692)" fill="none" stroke="#50b6ca" stroke-miterlimit="10" stroke-width="0.896"/>
          <line id="Línea_876" data-name="Línea 876" y1="46.058" x2="98.957" transform="translate(22.044 39.988)" fill="none" stroke="#50b6ca" stroke-miterlimit="10" stroke-width="0.896"/>
          <line id="Línea_877" data-name="Línea 877" y1="46.057" x2="98.958" transform="translate(24.974 46.284)" fill="none" stroke="#50b6ca" stroke-miterlimit="10" stroke-width="0.896"/>
          <line id="Línea_878" data-name="Línea 878" y1="46.058" x2="98.957" transform="translate(27.905 52.579)" fill="none" stroke="#50b6ca" stroke-miterlimit="10" stroke-width="0.896"/>
          <line id="Línea_879" data-name="Línea 879" y1="46.058" x2="98.957" transform="translate(30.835 58.874)" fill="none" stroke="#50b6ca" stroke-miterlimit="10" stroke-width="0.896"/>
          <line id="Línea_880" data-name="Línea 880" y1="46.058" x2="98.958" transform="translate(33.764 65.17)" fill="none" stroke="#50b6ca" stroke-miterlimit="10" stroke-width="0.896"/>
          <line id="Línea_881" data-name="Línea 881" y1="46.057" x2="98.958" transform="translate(36.694 71.466)" fill="none" stroke="#50b6ca" stroke-miterlimit="10" stroke-width="0.896"/>
          <line id="Línea_882" data-name="Línea 882" y1="46.058" x2="98.957" transform="translate(39.625 77.761)" fill="none" stroke="#50b6ca" stroke-miterlimit="10" stroke-width="0.896"/>
          <line id="Línea_883" data-name="Línea 883" y1="46.058" x2="98.957" transform="translate(42.555 84.057)" fill="none" stroke="#50b6ca" stroke-miterlimit="10" stroke-width="0.896"/>
          <line id="Línea_884" data-name="Línea 884" y1="46.058" x2="98.958" transform="translate(45.485 90.352)" fill="none" stroke="#50b6ca" stroke-miterlimit="10" stroke-width="0.896"/>
          <line id="Línea_885" data-name="Línea 885" y1="46.057" x2="98.957" transform="translate(48.415 96.648)" fill="none" stroke="#50b6ca" stroke-miterlimit="10" stroke-width="0.896"/>
          <line id="Línea_886" data-name="Línea 886" y1="46.058" x2="98.957" transform="translate(51.345 102.943)" fill="none" stroke="#50b6ca" stroke-miterlimit="10" stroke-width="0.896"/>
          <line id="Línea_887" data-name="Línea 887" y1="46.058" x2="98.958" transform="translate(54.275 109.239)" fill="none" stroke="#50b6ca" stroke-miterlimit="10" stroke-width="0.896"/>
          <line id="Línea_888" data-name="Línea 888" y1="46.058" x2="98.957" transform="translate(57.206 115.535)" fill="none" stroke="#50b6ca" stroke-miterlimit="10" stroke-width="0.896"/>
          <line id="Línea_889" data-name="Línea 889" y1="46.057" x2="98.957" transform="translate(60.136 121.83)" fill="none" stroke="#50b6ca" stroke-miterlimit="10" stroke-width="0.896"/>
        </g>
        <g id="Grupo_1171454" data-name="Grupo 1171454" transform="translate(17.544 48.246)">
          <path id="Trazado_1015565" data-name="Trazado 1015565" d="M84.5,301.111a2.735,2.735,0,0,1-.934-.165l-11.894-4.339a2.724,2.724,0,1,1,1.867-5.118l9.334,3.405,6.315-17.309a2.725,2.725,0,0,1,5.119,1.868l-7.248,19.868a2.723,2.723,0,0,1-2.56,1.79Z" transform="translate(-69.885 -275.793)" fill="#89c464"/>
        </g>
        <path id="Trazado_1015566" data-name="Trazado 1015566" d="M161.989,259.557,107.13,285.09a2.586,2.586,0,0,1-3.425-1.25h0a2.585,2.585,0,0,1,1.25-3.425l54.859-25.533a2.586,2.586,0,0,1,3.425,1.25h0A2.586,2.586,0,0,1,161.989,259.557Z" transform="translate(-53.59 -226.76)" fill="#306c78"/>
        <g id="Grupo_1171455" data-name="Grupo 1171455" transform="translate(40.836 98.289)">
          <path id="Trazado_1015567" data-name="Trazado 1015567" d="M108.7,353.089a2.711,2.711,0,0,1-.933-.166l-11.895-4.338a2.725,2.725,0,1,1,1.867-5.119l9.334,3.4,6.314-17.309a2.725,2.725,0,0,1,5.119,1.868L111.255,351.3A2.724,2.724,0,0,1,108.7,353.089Z" transform="translate(-94.077 -327.769)" fill="#89c464"/>
        </g>
        <path id="Trazado_1015568" data-name="Trazado 1015568" d="M186.18,311.535l-54.859,25.533a2.586,2.586,0,0,1-3.425-1.25h0a2.585,2.585,0,0,1,1.25-3.425l54.859-25.533a2.585,2.585,0,0,1,3.425,1.25h0A2.585,2.585,0,0,1,186.18,311.535Z" transform="translate(-54.49 -228.694)" fill="#306c78"/>
        <g id="Grupo_1171456" data-name="Grupo 1171456" transform="translate(29.192 73.268)">
          <path id="Trazado_1015569" data-name="Trazado 1015569" d="M96.6,327.1a2.736,2.736,0,0,1-.934-.165L83.774,322.6a2.724,2.724,0,1,1,1.868-5.118l9.334,3.4,6.315-17.309a2.725,2.725,0,0,1,5.119,1.868l-7.248,19.868a2.726,2.726,0,0,1-1.41,1.537A2.754,2.754,0,0,1,96.6,327.1Z" transform="translate(-81.983 -301.781)" fill="#89c464"/>
        </g>
        <path id="Trazado_1015570" data-name="Trazado 1015570" d="M153.942,295.283l-34.717,16.158a2.586,2.586,0,0,1-3.425-1.25h0a2.584,2.584,0,0,1,1.25-3.425l34.717-16.158a2.585,2.585,0,0,1,3.425,1.25h0A2.586,2.586,0,0,1,153.942,295.283Z" transform="translate(-54.04 -228.089)" fill="#306c78"/>
        <g id="Grupo_1171457" data-name="Grupo 1171457" transform="translate(51.311 120.794)">
          <path id="Trazado_1015571" data-name="Trazado 1015571" d="M119.576,376.463a2.713,2.713,0,0,1-.934-.166l-11.895-4.339a2.724,2.724,0,1,1,1.867-5.118l9.334,3.4,6.314-17.309a2.725,2.725,0,0,1,5.119,1.868l-7.248,19.868a2.722,2.722,0,0,1-1.41,1.536A2.69,2.69,0,0,1,119.576,376.463Z" transform="translate(-104.956 -351.143)" fill="#89c464"/>
        </g>
        <path id="Trazado_1015572" data-name="Trazado 1015572" d="M176.917,344.647,142.2,360.8a2.586,2.586,0,0,1-3.425-1.25h0a2.586,2.586,0,0,1,1.25-3.425l34.717-16.158a2.585,2.585,0,0,1,3.425,1.25h0A2.586,2.586,0,0,1,176.917,344.647Z" transform="translate(-54.894 -229.925)" fill="#306c78"/>
      </g>
      <g id="Grupo_1171464" data-name="Grupo 1171464" transform="translate(133.997 86.463)">
        <path id="Trazado_1015573" data-name="Trazado 1015573" d="M324.747,409H155.6a17.157,17.157,0,0,1-17.157-17.157V149.227A17.157,17.157,0,0,1,155.6,132.07H324.747A17.157,17.157,0,0,1,341.9,149.227V391.846A17.157,17.157,0,0,1,324.747,409Z" transform="translate(-138.441 -90.718)" fill="#b8813c"/>
        <path id="Trazado_1015574" data-name="Trazado 1015574" d="M324.747,132.07H155.6a17.157,17.157,0,0,0-17.157,17.157V391.846A17.157,17.157,0,0,0,155.6,409H324.747A17.157,17.157,0,0,0,341.9,391.846V149.227A17.157,17.157,0,0,0,324.747,132.07Zm14.291,256.358A16.674,16.674,0,0,1,322.364,405.1H157.981a16.674,16.674,0,0,1-16.674-16.674V152.645a16.674,16.674,0,0,1,16.674-16.674H322.364a16.674,16.674,0,0,1,16.674,16.674Z" transform="translate(-138.441 -90.718)" fill="#171c24" opacity="0.3"/>
        <path id="Trazado_1015575" data-name="Trazado 1015575" d="M330.926,396.305H150.3l9.5-249.4H321.423Z" transform="translate(-138.882 -91.27)" fill="#171c24" opacity="0.3"/>
        <rect id="Rectángulo_414038" data-name="Rectángulo 414038" width="174.373" height="243.455" transform="translate(14.545 55.631)" fill="#fff"/>
        <path id="Trazado_1015576" data-name="Trazado 1015576" d="M169.617,137.133v18.211h143.43V137.133c0-1.725-.064-3.415-.18-5.063H169.8C169.681,133.719,169.617,135.409,169.617,137.133Z" transform="translate(-139.601 -90.718)" fill="#171c24" opacity="0.3"/>
        <path id="Trazado_1015577" data-name="Trazado 1015577" d="M243.308,89.121a20.634,20.634,0,0,0-20.573,20.573V126.42a20.573,20.573,0,0,0,41.146,0V109.694A20.634,20.634,0,0,0,243.308,89.121Zm0,23.522a7.6,7.6,0,1,1,7.6-7.6A7.6,7.6,0,0,1,243.308,112.643Z" transform="translate(-141.576 -89.121)" fill="#d6b615"/>
        <path id="Trazado_1015578" data-name="Trazado 1015578" d="M310.525,151.753H172.342V129.7a12.33,12.33,0,0,1,12.294-12.294H298.231A12.33,12.33,0,0,1,310.525,129.7Z" transform="translate(-139.702 -90.173)" fill="#ffdf3d"/>
        <path id="Trazado_1015579" data-name="Trazado 1015579" d="M298.231,132.691H184.636a12.33,12.33,0,0,0-12.294,12.294v7.337H310.525v-7.337A12.33,12.33,0,0,0,298.231,132.691Z" transform="translate(-139.702 -90.742)" fill="#d6b615"/>
        <g id="Grupo_1171462" data-name="Grupo 1171462" transform="translate(26.244 76.783)">
          <line id="Línea_890" data-name="Línea 890" x1="134.347" transform="translate(12.856 53.942)" fill="none" stroke="#171c24" stroke-miterlimit="10" stroke-width="0.896" opacity="0.3"/>
          <line id="Línea_891" data-name="Línea 891" x1="134.347" transform="translate(12.856 43.14)" fill="none" stroke="#171c24" stroke-miterlimit="10" stroke-width="0.896" opacity="0.3"/>
          <line id="Línea_892" data-name="Línea 892" x1="134.347" transform="translate(12.856 32.338)" fill="none" stroke="#171c24" stroke-miterlimit="10" stroke-width="0.896" opacity="0.3"/>
          <line id="Línea_893" data-name="Línea 893" x1="134.347" transform="translate(12.856 21.536)" fill="none" stroke="#171c24" stroke-miterlimit="10" stroke-width="0.896" opacity="0.3"/>
          <line id="Línea_894" data-name="Línea 894" x1="134.347" transform="translate(12.856 10.733)" fill="none" stroke="#171c24" stroke-miterlimit="10" stroke-width="0.896" opacity="0.3"/>
          <g id="Grupo_1171459" data-name="Grupo 1171459" transform="translate(24.204)">
            <rect id="Rectángulo_414039" data-name="Rectángulo 414039" width="4.815" height="39.778" transform="translate(0 24.19)" fill="#50b6ca"/>
            <rect id="Rectángulo_414040" data-name="Rectángulo 414040" width="4.815" height="52.111" transform="translate(9.012 11.858)" fill="#e49345"/>
            <rect id="Rectángulo_414041" data-name="Rectángulo 414041" width="4.815" height="63.968" transform="translate(27.035)" fill="#ffdf3d"/>
            <rect id="Rectángulo_414042" data-name="Rectángulo 414042" width="4.815" height="35.036" transform="translate(18.023 28.933)" fill="#ff4446"/>
          </g>
          <g id="Grupo_1171460" data-name="Grupo 1171460" transform="translate(69.777 2.846)">
            <rect id="Rectángulo_414043" data-name="Rectángulo 414043" width="4.815" height="56.379" transform="translate(0 4.743)" fill="#50b6ca"/>
            <rect id="Rectángulo_414044" data-name="Rectángulo 414044" width="4.815" height="45.944" transform="translate(9.012 15.178)" fill="#e49345"/>
            <rect id="Rectángulo_414045" data-name="Rectángulo 414045" width="4.815" height="52.111" transform="translate(27.036 9.012)" fill="#ffdf3d"/>
            <rect id="Rectángulo_414046" data-name="Rectángulo 414046" width="4.815" height="61.123" transform="translate(18.024)" fill="#ff4446"/>
          </g>
          <g id="Grupo_1171461" data-name="Grupo 1171461" transform="translate(115.352 2.846)">
            <rect id="Rectángulo_414047" data-name="Rectángulo 414047" width="4.815" height="56.379" transform="translate(0 4.743)" fill="#50b6ca"/>
            <rect id="Rectángulo_414048" data-name="Rectángulo 414048" width="4.815" height="45.944" transform="translate(9.012 15.178)" fill="#e49345"/>
            <rect id="Rectángulo_414049" data-name="Rectángulo 414049" width="4.815" height="58.773" transform="translate(27.036 2.35)" fill="#ffdf3d"/>
            <rect id="Rectángulo_414050" data-name="Rectángulo 414050" width="4.815" height="61.123" transform="translate(18.024)" fill="#ff4446"/>
          </g>
          <path id="Trazado_1015580" data-name="Trazado 1015580" d="M313.4,232.839H179.052V168.87" transform="translate(-166.196 -168.87)" fill="none" stroke="#171c24" stroke-miterlimit="10" stroke-width="0.896" opacity="0.3"/>
          <text id="_0" data-name="0" transform="translate(4.046 62.267)" fill="#171c24" font-size="6" font-family="Roboto-Regular, Roboto" opacity="0.3"><tspan x="0" y="0">0</tspan></text>
          <text id="_10" data-name="10" transform="translate(0 52.24)" fill="#171c24" font-size="6" font-family="Roboto-Regular, Roboto" opacity="0.3"><tspan x="0" y="0">10</tspan></text>
          <text id="_20" data-name="20" transform="translate(0 41.438)" fill="#171c24" font-size="6" font-family="Roboto-Regular, Roboto" opacity="0.3"><tspan x="0" y="0">20</tspan></text>
          <text id="_30" data-name="30" transform="translate(0 30.636)" fill="#171c24" font-size="6" font-family="Roboto-Regular, Roboto" opacity="0.3"><tspan x="0" y="0">30</tspan></text>
          <text id="_40" data-name="40" transform="translate(0 19.833)" fill="#171c24" font-size="6" font-family="Roboto-Regular, Roboto" opacity="0.3"><tspan x="0" y="0">40</tspan></text>
          <text id="_50" data-name="50" transform="translate(0 9.031)" fill="#171c24" font-size="6" font-family="Roboto-Regular, Roboto" opacity="0.3"><tspan x="0" y="0">50</tspan></text>
        </g>
        <g id="Grupo_1171463" data-name="Grupo 1171463" transform="translate(31.409 160.061)">
          <path id="Trazado_1015581" data-name="Trazado 1015581" d="M171.063,286.079a30.819,30.819,0,0,0,15.485,26.639l12.665-26.9-6.9-28.92A30.527,30.527,0,0,0,171.063,286.079Z" transform="translate(-171.063 -255.422)" fill="#e49345"/>
          <path id="Trazado_1015582" data-name="Trazado 1015582" d="M202.718,255.365a30.715,30.715,0,0,0-4.78.377l6.516,27.306,26.984-7.747A30.8,30.8,0,0,0,202.718,255.365Z" transform="translate(-172.063 -255.365)" fill="#ffdf3d"/>
          <path id="Trazado_1015583" data-name="Trazado 1015583" d="M191.613,315.637a30.668,30.668,0,0,0,41.526-28.669,30.7,30.7,0,0,0-.624-6.148l-28.339,8.136Z" transform="translate(-171.827 -256.312)" fill="#ff4446"/>
        </g>
        <rect id="Rectángulo_414051" data-name="Rectángulo 414051" width="71.716" height="5.209" transform="translate(101.732 166.959)" fill="#171c24" opacity="0.1"/>
        <rect id="Rectángulo_414052" data-name="Rectángulo 414052" width="71.716" height="5.209" transform="translate(101.732 191.004)" fill="#171c24" opacity="0.1"/>
        <rect id="Rectángulo_414053" data-name="Rectángulo 414053" width="56.645" height="5.209" transform="translate(101.732 178.982)" fill="#171c24" opacity="0.2"/>
        <rect id="Rectángulo_414054" data-name="Rectángulo 414054" width="42.272" height="5.209" transform="translate(101.732 203.027)" fill="#171c24" opacity="0.2"/>
        <rect id="Rectángulo_414055" data-name="Rectángulo 414055" width="32.386" height="5.209" transform="translate(101.732 215.049)" fill="#171c24" opacity="0.1"/>
        <rect id="Rectángulo_414056" data-name="Rectángulo 414056" width="138.183" height="52.197" transform="translate(32.64 235.847)" fill="#171c24" opacity="0.2"/>
        <rect id="Rectángulo_414057" data-name="Rectángulo 414057" width="64.227" height="10.673" transform="translate(37.492 240.202)" fill="#e3e3e3"/>
        <rect id="Rectángulo_414058" data-name="Rectángulo 414058" width="60.509" height="10.673" transform="translate(105.463 240.202)" fill="#fff"/>
        <rect id="Rectángulo_414059" data-name="Rectángulo 414059" width="64.227" height="10.673" transform="translate(37.492 272.219)" fill="#f2f2f2"/>
        <rect id="Rectángulo_414060" data-name="Rectángulo 414060" width="60.509" height="10.673" transform="translate(105.463 272.219)" fill="#fff"/>
        <rect id="Rectángulo_414061" data-name="Rectángulo 414061" width="30.183" height="10.673" transform="translate(37.492 255.595)" fill="#e3e3e3"/>
        <rect id="Rectángulo_414062" data-name="Rectángulo 414062" width="30.183" height="10.673" transform="translate(135.717 255.595)" fill="#e3e3e3"/>
        <rect id="Rectángulo_414063" data-name="Rectángulo 414063" width="60.509" height="10.673" transform="translate(71.478 255.595)" fill="#f2f2f2"/>
      </g>
      <g id="Grupo_1171485" data-name="Grupo 1171485" transform="translate(268.899 248.755)">
        <path id="Trazado_1015584" data-name="Trazado 1015584" d="M389.128,425.918,283.488,394.38a6.934,6.934,0,0,1-4.646-8.6L314.1,267.66a6.934,6.934,0,0,1,8.6-4.646l105.64,31.538a6.934,6.934,0,0,1,4.646,8.6L397.73,421.271A6.933,6.933,0,0,1,389.128,425.918Z" transform="translate(-278.554 -257.87)" fill="#245159"/>
        <path id="Trazado_1015585" data-name="Trazado 1015585" d="M390.634,420.874l-105.64-31.538a6.933,6.933,0,0,1-4.646-8.6l35.264-118.118a6.933,6.933,0,0,1,8.6-4.646l105.64,31.538a6.933,6.933,0,0,1,4.646,8.6L399.236,416.227A6.933,6.933,0,0,1,390.634,420.874Z" transform="translate(-278.61 -257.682)" fill="#306c78"/>
        <g id="Grupo_1171483" data-name="Grupo 1171483" transform="translate(11.179 56.8)">
          <g id="Grupo_1171465" data-name="Grupo 1171465" transform="translate(15.881)">
            <path id="Trazado_1015586" data-name="Trazado 1015586" d="M324.277,335.248l-15-4.479a3.663,3.663,0,0,1-2.462-4.558l2.065-6.919a3.663,3.663,0,0,1,4.558-2.462l15,4.479a3.663,3.663,0,0,1,2.462,4.558l-2.065,6.92A3.663,3.663,0,0,1,324.277,335.248Z" transform="translate(-306.66 -316.676)" fill="#245159"/>
            <text id="_1" data-name="1" transform="translate(9.477 10.855) rotate(16.625)" fill="#fff" font-size="7" font-family="Roboto-Regular, Roboto"><tspan x="0" y="0">1</tspan></text>
            <path id="Trazado_1015587" data-name="Trazado 1015587" d="M328.86,333.022l2.065-6.92a3.638,3.638,0,0,0-.482-3.079l-23.123,6.5A3.627,3.627,0,0,0,309.3,331l15,4.479A3.663,3.663,0,0,0,328.86,333.022Z" transform="translate(-306.685 -316.912)" fill="#171c24" opacity="0.1"/>
          </g>
          <g id="Grupo_1171466" data-name="Grupo 1171466" transform="translate(42.822 8.043)">
            <path id="Trazado_1015588" data-name="Trazado 1015588" d="M352.258,343.6l-15-4.478a3.664,3.664,0,0,1-2.462-4.558l2.065-6.92a3.664,3.664,0,0,1,4.558-2.462l15,4.478a3.664,3.664,0,0,1,2.462,4.558l-2.065,6.919A3.663,3.663,0,0,1,352.258,343.6Z" transform="translate(-334.641 -325.03)" fill="#245159"/>
            <text id="_2" data-name="2" transform="translate(9.477 10.855) rotate(16.625)" fill="#fff" font-size="7" font-family="Roboto-Regular, Roboto"><tspan x="0" y="0">2</tspan></text>
            <path id="Trazado_1015589" data-name="Trazado 1015589" d="M358.424,331.377l-23.123,6.5a3.627,3.627,0,0,0,1.98,1.478l15,4.478a3.664,3.664,0,0,0,4.558-2.462l2.065-6.92A3.633,3.633,0,0,0,358.424,331.377Z" transform="translate(-334.666 -325.266)" fill="#171c24" opacity="0.1"/>
          </g>
          <g id="Grupo_1171467" data-name="Grupo 1171467" transform="translate(69.762 16.085)">
            <path id="Trazado_1015590" data-name="Trazado 1015590" d="M380.239,351.955l-15-4.479a3.663,3.663,0,0,1-2.462-4.558l2.065-6.92a3.663,3.663,0,0,1,4.558-2.462l15,4.479a3.663,3.663,0,0,1,2.462,4.558l-2.066,6.92A3.663,3.663,0,0,1,380.239,351.955Z" transform="translate(-362.622 -333.382)" fill="#245159"/>
            <text id="_3" data-name="3" transform="translate(9.476 10.856) rotate(16.625)" fill="#fff" font-size="7" font-family="Roboto-Regular, Roboto"><tspan x="0" y="0">3</tspan></text>
            <path id="Trazado_1015591" data-name="Trazado 1015591" d="M386.4,339.73l-23.123,6.5a3.627,3.627,0,0,0,1.98,1.478l15,4.479a3.664,3.664,0,0,0,4.558-2.462l2.066-6.92A3.638,3.638,0,0,0,386.4,339.73Z" transform="translate(-362.647 -333.618)" fill="#171c24" opacity="0.1"/>
          </g>
          <g id="Grupo_1171468" data-name="Grupo 1171468" transform="translate(10.588 17.732)">
            <path id="Trazado_1015592" data-name="Trazado 1015592" d="M318.779,353.666l-15-4.479a3.663,3.663,0,0,1-2.462-4.558l2.066-6.92a3.663,3.663,0,0,1,4.558-2.462l15,4.479a3.663,3.663,0,0,1,2.462,4.558l-2.065,6.92A3.665,3.665,0,0,1,318.779,353.666Z" transform="translate(-301.162 -335.093)" fill="#245159"/>
            <text id="_4" data-name="4" transform="translate(9.501 10.773) rotate(16.625)" fill="#fff" font-size="7" font-family="Roboto-Regular, Roboto"><tspan x="0" y="0">4</tspan></text>
            <path id="Trazado_1015593" data-name="Trazado 1015593" d="M323.362,351.439l2.066-6.92a3.641,3.641,0,0,0-.482-3.08l-23.123,6.5a3.627,3.627,0,0,0,1.98,1.478l15,4.479A3.661,3.661,0,0,0,323.362,351.439Z" transform="translate(-301.187 -335.329)" fill="#171c24" opacity="0.1"/>
          </g>
          <g id="Grupo_1171469" data-name="Grupo 1171469" transform="translate(37.528 25.774)">
            <path id="Trazado_1015594" data-name="Trazado 1015594" d="M346.76,362.019l-15-4.479a3.663,3.663,0,0,1-2.462-4.558l2.066-6.92a3.663,3.663,0,0,1,4.558-2.462l15,4.479a3.663,3.663,0,0,1,2.462,4.558l-2.066,6.92A3.664,3.664,0,0,1,346.76,362.019Z" transform="translate(-329.143 -343.446)" fill="#245159"/>
            <text id="_5" data-name="5" transform="translate(9.502 10.773) rotate(16.625)" fill="#fff" font-size="7" font-family="Roboto-Regular, Roboto"><tspan x="0" y="0">5</tspan></text>
            <path id="Trazado_1015595" data-name="Trazado 1015595" d="M352.926,349.794,329.8,356.3a3.627,3.627,0,0,0,1.98,1.478l15,4.479a3.664,3.664,0,0,0,4.558-2.462l2.066-6.92A3.638,3.638,0,0,0,352.926,349.794Z" transform="translate(-329.168 -343.682)" fill="#171c24" opacity="0.1"/>
          </g>
          <g id="Grupo_1171470" data-name="Grupo 1171470" transform="translate(64.468 33.817)">
            <path id="Trazado_1015596" data-name="Trazado 1015596" d="M374.74,370.372l-15-4.479a3.664,3.664,0,0,1-2.462-4.558l2.066-6.92a3.663,3.663,0,0,1,4.558-2.462l15,4.479a3.664,3.664,0,0,1,2.462,4.558l-2.066,6.92A3.662,3.662,0,0,1,374.74,370.372Z" transform="translate(-357.123 -351.799)" fill="#245159"/>
            <text id="_6" data-name="6" transform="translate(9.501 10.773) rotate(16.625)" fill="#fff" font-size="7" font-family="Roboto-Regular, Roboto"><tspan x="0" y="0">6</tspan></text>
            <path id="Trazado_1015597" data-name="Trazado 1015597" d="M380.907,358.147l-23.123,6.5a3.627,3.627,0,0,0,1.979,1.478l15,4.479a3.664,3.664,0,0,0,4.558-2.462l2.066-6.92A3.641,3.641,0,0,0,380.907,358.147Z" transform="translate(-357.148 -352.035)" fill="#171c24" opacity="0.1"/>
          </g>
          <g id="Grupo_1171472" data-name="Grupo 1171472" transform="translate(5.294 35.464)">
            <path id="Trazado_1015598" data-name="Trazado 1015598" d="M313.281,372.082l-15-4.479a3.663,3.663,0,0,1-2.462-4.558l2.066-6.919a3.663,3.663,0,0,1,4.558-2.462l15,4.478a3.664,3.664,0,0,1,2.462,4.558l-2.066,6.92A3.662,3.662,0,0,1,313.281,372.082Z" transform="translate(-295.664 -353.51)" fill="#245159"/>
            <g id="Grupo_1171471" data-name="Grupo 1171471" transform="translate(8.701 4.221)">
              <text id="_7" data-name="7" transform="translate(0.752 6.707) rotate(16.625)" fill="#fff" font-size="7" font-family="Roboto-Regular, Roboto"><tspan x="0" y="0">7</tspan></text>
            </g>
            <path id="Trazado_1015599" data-name="Trazado 1015599" d="M298.3,367.84l15,4.479a3.663,3.663,0,0,0,4.558-2.462l2.066-6.92a3.641,3.641,0,0,0-.482-3.08l-23.123,6.5A3.629,3.629,0,0,0,298.3,367.84Z" transform="translate(-295.689 -353.746)" fill="#171c24" opacity="0.1"/>
          </g>
          <g id="Grupo_1171474" data-name="Grupo 1171474" transform="translate(32.234 43.506)">
            <path id="Trazado_1015600" data-name="Trazado 1015600" d="M341.261,380.436l-15-4.479A3.663,3.663,0,0,1,323.8,371.4l2.066-6.92a3.664,3.664,0,0,1,4.558-2.462l15,4.479a3.663,3.663,0,0,1,2.462,4.558l-2.066,6.919A3.663,3.663,0,0,1,341.261,380.436Z" transform="translate(-323.644 -361.863)" fill="#245159"/>
            <g id="Grupo_1171473" data-name="Grupo 1171473" transform="translate(8.704 4.222)">
              <text id="_8" data-name="8" transform="translate(0.752 6.707) rotate(16.625)" fill="#fff" font-size="7" font-family="Roboto-Regular, Roboto"><tspan x="0" y="0">8</tspan></text>
            </g>
            <path id="Trazado_1015601" data-name="Trazado 1015601" d="M347.428,368.211l-23.123,6.5a3.627,3.627,0,0,0,1.98,1.478l15,4.479a3.663,3.663,0,0,0,4.558-2.462l2.066-6.919A3.643,3.643,0,0,0,347.428,368.211Z" transform="translate(-323.669 -362.099)" fill="#171c24" opacity="0.1"/>
          </g>
          <g id="Grupo_1171476" data-name="Grupo 1171476" transform="translate(59.174 51.549)">
            <path id="Trazado_1015602" data-name="Trazado 1015602" d="M369.242,388.789l-15-4.479a3.663,3.663,0,0,1-2.462-4.558l2.065-6.92a3.664,3.664,0,0,1,4.558-2.462l15,4.479a3.663,3.663,0,0,1,2.462,4.558l-2.066,6.92A3.661,3.661,0,0,1,369.242,388.789Z" transform="translate(-351.625 -370.216)" fill="#245159"/>
            <g id="Grupo_1171475" data-name="Grupo 1171475" transform="translate(8.702 4.222)">
              <text id="_9" data-name="9" transform="translate(0.752 6.707) rotate(16.625)" fill="#fff" font-size="7" font-family="Roboto-Regular, Roboto"><tspan x="0" y="0">9</tspan></text>
            </g>
            <path id="Trazado_1015603" data-name="Trazado 1015603" d="M375.408,376.564l-23.123,6.5a3.627,3.627,0,0,0,1.98,1.478l15,4.479a3.664,3.664,0,0,0,4.558-2.462l2.066-6.92A3.636,3.636,0,0,0,375.408,376.564Z" transform="translate(-351.65 -370.452)" fill="#171c24" opacity="0.1"/>
          </g>
          <g id="Grupo_1171477" data-name="Grupo 1171477" transform="translate(0 53.196)">
            <path id="Trazado_1015604" data-name="Trazado 1015604" d="M307.782,390.5l-15-4.479a3.663,3.663,0,0,1-2.462-4.558l2.065-6.92a3.663,3.663,0,0,1,4.558-2.462l15,4.479a3.663,3.663,0,0,1,2.462,4.558l-2.066,6.92A3.662,3.662,0,0,1,307.782,390.5Z" transform="translate(-290.165 -371.927)" fill="#245159"/>
            <text id="_0-2" data-name="0" transform="translate(9.754 10.926) rotate(16.625)" fill="#fff" font-size="7" font-family="Roboto-Regular, Roboto"><tspan x="0" y="0">0</tspan></text>
            <path id="Trazado_1015605" data-name="Trazado 1015605" d="M312.365,388.274l2.066-6.92a3.638,3.638,0,0,0-.482-3.079l-23.123,6.5a3.627,3.627,0,0,0,1.98,1.478l15,4.479A3.663,3.663,0,0,0,312.365,388.274Z" transform="translate(-290.19 -372.163)" fill="#171c24" opacity="0.1"/>
          </g>
          <g id="Grupo_1171478" data-name="Grupo 1171478" transform="translate(26.94 61.239)">
            <path id="Trazado_1015606" data-name="Trazado 1015606" d="M335.763,398.853l-15-4.478a3.664,3.664,0,0,1-2.462-4.558l2.066-6.92a3.663,3.663,0,0,1,4.558-2.462l15,4.479a3.663,3.663,0,0,1,2.462,4.558l-2.065,6.919A3.665,3.665,0,0,1,335.763,398.853Z" transform="translate(-318.146 -380.281)" fill="#245159"/>
            <text id="_" data-name="," transform="translate(10.842 11.251) rotate(16.625)" fill="#fff" font-size="7" font-family="Roboto-Regular, Roboto"><tspan x="0" y="0">,</tspan></text>
            <path id="Trazado_1015607" data-name="Trazado 1015607" d="M341.929,386.628l-23.123,6.5a3.627,3.627,0,0,0,1.98,1.478l15,4.478a3.663,3.663,0,0,0,4.558-2.462l2.065-6.919A3.634,3.634,0,0,0,341.929,386.628Z" transform="translate(-318.171 -380.517)" fill="#171c24" opacity="0.1"/>
          </g>
          <g id="Grupo_1171479" data-name="Grupo 1171479" transform="translate(53.881 69.282)">
            <path id="Trazado_1015608" data-name="Trazado 1015608" d="M363.744,407.207l-15-4.479a3.663,3.663,0,0,1-2.462-4.558l2.065-6.92a3.663,3.663,0,0,1,4.558-2.462l15,4.479a3.663,3.663,0,0,1,2.462,4.558l-2.066,6.919A3.662,3.662,0,0,1,363.744,407.207Z" transform="translate(-346.127 -388.634)" fill="#245159"/>
            <text id="_." data-name="." transform="translate(11.164 9.26) rotate(16.625)" fill="#fff" font-size="5" font-family="Roboto-Regular, Roboto"><tspan x="0" y="0">.</tspan></text>
            <path id="Trazado_1015609" data-name="Trazado 1015609" d="M369.91,394.981l-23.123,6.5a3.627,3.627,0,0,0,1.98,1.478l15,4.479a3.664,3.664,0,0,0,4.558-2.462l2.066-6.92A3.639,3.639,0,0,0,369.91,394.981Z" transform="translate(-346.152 -388.87)" fill="#171c24" opacity="0.1"/>
          </g>
          <g id="Grupo_1171480" data-name="Grupo 1171480" transform="translate(96.701 24.128)">
            <path id="Trazado_1015610" data-name="Trazado 1015610" d="M408.219,360.309l-15-4.479a3.663,3.663,0,0,1-2.462-4.558l2.066-6.92a3.663,3.663,0,0,1,4.558-2.462l15,4.479a3.663,3.663,0,0,1,2.462,4.558l-2.065,6.92A3.665,3.665,0,0,1,408.219,360.309Z" transform="translate(-390.602 -341.736)" fill="#89c464"/>
            <path id="Trazado_1015611" data-name="Trazado 1015611" d="M414.386,348.083l-23.123,6.5a3.627,3.627,0,0,0,1.98,1.478l15,4.479a3.664,3.664,0,0,0,4.558-2.462l2.065-6.92A3.639,3.639,0,0,0,414.386,348.083Z" transform="translate(-390.627 -341.972)" fill="#171c24" opacity="0.1"/>
          </g>
          <g id="Grupo_1171481" data-name="Grupo 1171481" transform="translate(91.408 41.86)">
            <path id="Trazado_1015612" data-name="Trazado 1015612" d="M402.721,378.726l-15-4.479a3.663,3.663,0,0,1-2.462-4.558l2.066-6.92a3.664,3.664,0,0,1,4.558-2.462l15,4.478a3.664,3.664,0,0,1,2.462,4.558l-2.066,6.92A3.663,3.663,0,0,1,402.721,378.726Z" transform="translate(-385.104 -360.153)" fill="#ff4446"/>
            <path id="Trazado_1015613" data-name="Trazado 1015613" d="M408.887,366.5,385.764,373a3.627,3.627,0,0,0,1.98,1.478l15,4.479A3.663,3.663,0,0,0,407.3,376.5l2.066-6.92A3.639,3.639,0,0,0,408.887,366.5Z" transform="translate(-385.129 -360.389)" fill="#171c24" opacity="0.1"/>
          </g>
          <g id="Grupo_1171482" data-name="Grupo 1171482" transform="translate(80.82 59.592)">
            <path id="Trazado_1015614" data-name="Trazado 1015614" d="M391.724,414.875l-15-4.479a3.663,3.663,0,0,1-2.462-4.558l7.36-24.652a3.663,3.663,0,0,1,4.558-2.462l15,4.479a3.663,3.663,0,0,1,2.462,4.558l-7.36,24.652A3.663,3.663,0,0,1,391.724,414.875Z" transform="translate(-374.107 -378.57)" fill="#faa102"/>
            <path id="Trazado_1015615" data-name="Trazado 1015615" d="M374.453,408.627a3.637,3.637,0,0,0,2.283,2.026l15,4.479a3.664,3.664,0,0,0,4.558-2.462l7.36-24.652a3.628,3.628,0,0,0-.179-2.532Z" transform="translate(-374.12 -378.827)" fill="#171c24" opacity="0.1"/>
          </g>
        </g>
        <path id="Trazado_1015616" data-name="Trazado 1015616" d="M416.005,313.495l-90.814-27.112a6.3,6.3,0,0,0-7.809,4.219l-3.021,10.12a6.3,6.3,0,0,0,4.219,7.809l90.814,27.112a6.3,6.3,0,0,0,7.809-4.219l3.021-10.12A6.3,6.3,0,0,0,416.005,313.495Z" transform="translate(-279.876 -258.74)" fill="#50b6ca"/>
        <g id="Grupo_1171484" data-name="Grupo 1171484" transform="translate(34.444 27.382)" opacity="0.2">
          <path id="Trazado_1015617" data-name="Trazado 1015617" d="M325.279,286.383a6.3,6.3,0,0,0-7.809,4.219l-1.012,3.39,12.212-6.6Z" transform="translate(-314.408 -286.122)" fill="#fff"/>
          <path id="Trazado_1015618" data-name="Trazado 1015618" d="M333.353,288.921l-18.4,9.937-.587,1.968c-.017.057-.026.115-.041.171l21.17-11.436Z" transform="translate(-314.329 -286.226)" fill="#fff"/>
          <path id="Trazado_1015619" data-name="Trazado 1015619" d="M345.159,292.552l-28.327,15.3a6.18,6.18,0,0,0,1.85.916l5.568,1.663L353.01,294.9Z" transform="translate(-314.422 -286.361)" fill="#fff"/>
          <path id="Trazado_1015620" data-name="Trazado 1015620" d="M366.664,298.978,337.9,314.514l8.99,2.684q14.282-7.831,28.606-15.582Z" transform="translate(-315.206 -286.6)" fill="#fff"/>
          <path id="Trazado_1015621" data-name="Trazado 1015621" d="M387.562,305.217,358.8,320.753l4.848,1.447,28.76-15.536Z" transform="translate(-315.983 -286.832)" fill="#fff"/>
          <path id="Trazado_1015622" data-name="Trazado 1015622" d="M421.3,315.912q-13.992,7.565-27.964,15.164l1.932.577,27.027-14.6A6.335,6.335,0,0,0,421.3,315.912Z" transform="translate(-317.267 -287.23)" fill="#fff"/>
          <path id="Trazado_1015623" data-name="Trazado 1015623" d="M409.235,336.145l3.7,1.1a6.3,6.3,0,0,0,7.809-4.219l1.11-3.718Q415.537,332.716,409.235,336.145Z" transform="translate(-317.859 -287.728)" fill="#fff"/>
          <path id="Trazado_1015624" data-name="Trazado 1015624" d="M405.965,310.711,377.2,326.247l10.789,3.222q14.315-7.819,28.67-15.563Z" transform="translate(-316.668 -287.036)" fill="#fff"/>
        </g>
        <rect id="Rectángulo_414064" data-name="Rectángulo 414064" width="36.355" height="11.075" transform="translate(44.496 8.417) rotate(16.625)" fill="#245159"/>
        <rect id="Rectángulo_414065" data-name="Rectángulo 414065" width="14.519" height="11.075" transform="translate(84.466 20.349) rotate(16.625)" fill="#1d4147"/>
        <rect id="Rectángulo_414066" data-name="Rectángulo 414066" width="14.519" height="11.075" transform="translate(103.073 25.906) rotate(16.625)" fill="#245159"/>
        <rect id="Rectángulo_414067" data-name="Rectángulo 414067" width="14.519" height="11.075" transform="translate(133.423 34.969) rotate(16.625)" fill="#245159"/>
        <rect id="Rectángulo_414068" data-name="Rectángulo 414068" width="7.707" height="11.075" transform="translate(121.194 31.313) rotate(16.625)" fill="#1d4147"/>
      </g>
      <g id="Grupo_1171487" data-name="Grupo 1171487" transform="translate(142.136 222.529)">
        <path id="Trazado_1015625" data-name="Trazado 1015625" d="M274.745,358.294h0a6.837,6.837,0,0,0,0-9.642l-14.8-14.8a6.837,6.837,0,0,0-9.642,0h0a6.837,6.837,0,0,0,0,9.642l14.8,14.8A6.837,6.837,0,0,0,274.745,358.294Z" transform="translate(-150.667 -234.215)" fill="#245159"/>
        <rect id="Rectángulo_414069" data-name="Rectángulo 414069" width="20.07" height="25.225" transform="translate(113.241 99.047) rotate(135)" fill="#306c78"/>
        <path id="Trazado_1015626" data-name="Trazado 1015626" d="M163.3,326.087a56.027,56.027,0,1,0,0-79.234A56.027,56.027,0,0,0,163.3,326.087Zm8.278-8.278a44.32,44.32,0,1,1,62.678,0A44.321,44.321,0,0,1,171.582,317.809Z" transform="translate(-146.894 -230.443)" fill="#50b6ca"/>
        <path id="Trazado_1015627" data-name="Trazado 1015627" d="M237.783,252.159a48.913,48.913,0,1,0,0,69.174A48.913,48.913,0,0,0,237.783,252.159Zm-3.249,65.925a44.32,44.32,0,1,1,0-62.678A44.319,44.319,0,0,1,234.535,318.084Z" transform="translate(-147.169 -230.718)" fill="#306c78"/>
        <g id="Grupo_1171486" data-name="Grupo 1171486" transform="translate(11.72 11.718)" opacity="0.4">
          <path id="Trazado_1015628" data-name="Trazado 1015628" d="M197.19,243.07q-18.841,18.887-37.684,37.771A44.33,44.33,0,0,1,197.19,243.07Z" transform="translate(-159.083 -242.631)" fill="#fff"/>
          <path id="Trazado_1015629" data-name="Trazado 1015629" d="M159.067,287.167q22.216-22.286,44.451-44.553a44.6,44.6,0,0,1,6.685.523l-50.612,50.612A44.658,44.658,0,0,1,159.067,287.167Z" transform="translate(-159.067 -242.614)" fill="#fff"/>
          <path id="Trazado_1015630" data-name="Trazado 1015630" d="M162.556,303.993l57.886-57.887a44.17,44.17,0,0,1,7.407,3.931L166.485,311.4A44.347,44.347,0,0,1,162.556,303.993Z" transform="translate(-159.197 -242.744)" fill="#fff"/>
          <path id="Trazado_1015631" data-name="Trazado 1015631" d="M186.9,328.67l58.218-58.218a43.93,43.93,0,0,1,1.541,4.122q-27.818,27.82-55.638,55.638A43.918,43.918,0,0,1,186.9,328.67Z" transform="translate(-160.102 -243.649)" fill="#fff"/>
          <path id="Trazado_1015632" data-name="Trazado 1015632" d="M199.743,332.448,248.9,283.294c.14,1.179.219,2.376.266,3.582l-45.838,45.838C202.119,332.667,200.922,332.587,199.743,332.448Z" transform="translate(-160.58 -244.127)" fill="#fff"/>
          <path id="Trazado_1015633" data-name="Trazado 1015633" d="M221.556,330.643l25.537-25.537A44.438,44.438,0,0,1,221.556,330.643Z" transform="translate(-161.391 -244.938)" fill="#fff"/>
          <path id="Trazado_1015634" data-name="Trazado 1015634" d="M180.15,324.872a44.6,44.6,0,0,1-5.635-4.256l62.55-62.55a44.527,44.527,0,0,1,4.277,5.668Q210.671,294.227,180.15,324.872Z" transform="translate(-159.642 -243.189)" fill="#fff"/>
        </g>
        <path id="Trazado_1015635" data-name="Trazado 1015635" d="M350.892,434.442h0a12.427,12.427,0,0,0,0-17.521l-66.4-66.4a12.427,12.427,0,0,0-17.521,0h0a12.427,12.427,0,0,0,0,17.521l66.4,66.4A12.427,12.427,0,0,0,350.892,434.442Z" transform="translate(-151.226 -234.775)" fill="#252d38"/>
        <path id="Trazado_1015636" data-name="Trazado 1015636" d="M263.525,357.747,329.9,424.123a12.427,12.427,0,0,0,17.521,0h0a12.291,12.291,0,0,0,3.45-6.821l.02.02a12.427,12.427,0,0,1,0,17.521h0a12.427,12.427,0,0,1-17.521,0l-66.4-66.4A12.383,12.383,0,0,1,263.525,357.747Z" transform="translate(-151.226 -235.178)" fill="#171c24"/>
      </g>
    </g>
  </g>
</svg>
