<svg xmlns="http://www.w3.org/2000/svg" xmlns:xlink="http://www.w3.org/1999/xlink" width="113" height="113" viewBox="0 0 113 113">
  <defs>
    <filter id="Trazado_982547" x="0" y="0" width="113" height="113" filterUnits="userSpaceOnUse">
      <feOffset dy="3" input="SourceAlpha"/>
      <feGaussianBlur stdDeviation="3" result="blur"/>
      <feFlood flood-opacity="0.161"/>
      <feComposite operator="in" in2="blur"/>
      <feComposite in="SourceGraphic"/>
    </filter>
  </defs>
  <g id="Grupo_1168897" data-name="Grupo 1168897" transform="translate(-171 -2551)">
    <g id="Grupo_1168598" data-name="Grupo 1168598" transform="translate(0 -730)">
      <g id="Grupo_1167519" data-name="Grupo 1167519" transform="translate(180 3287)">
        <g id="Grupo_1166845" data-name="Grupo 1166845" transform="translate(0)">
          <g id="Grupo_1166720" data-name="Grupo 1166720">
            <g id="Grupo_1164305" data-name="Grupo 1164305">
              <g id="Grupo_1163948" data-name="Grupo 1163948">
                <g id="Grupo_1158168" data-name="Grupo 1158168">
                  <g id="Grupo_1152576" data-name="Grupo 1152576">
                    <g id="Grupo_1148633" data-name="Grupo 1148633">
                      <g id="Grupo_1148525" data-name="Grupo 1148525">
                        <g transform="matrix(1, 0, 0, 1, -9, -6)" filter="url(#Trazado_982547)">
                          <g id="Trazado_982547-2" data-name="Trazado 982547" transform="translate(9 6)" fill="#fdf4ee">
                            <path d="M 47.5 93.5 C 41.28937149047852 93.5 35.26533508300781 92.28397369384766 29.59518623352051 89.88570404052734 C 24.11771965026855 87.56893157958984 19.19813346862793 84.25196075439453 14.97309303283691 80.02691650390625 C 10.74804019927979 75.80186462402344 7.431066513061523 70.88229370117188 5.114293098449707 65.40481567382812 C 2.716026782989502 59.73468017578125 1.5 53.71062850952148 1.5 47.5 C 1.5 41.28937149047852 2.716026782989502 35.26533508300781 5.114293098449707 29.59518623352051 C 7.431066513061523 24.11771965026855 10.74804019927979 19.19813346862793 14.97309303283691 14.97309303283691 C 19.19813346862793 10.74804019927979 24.11771965026855 7.431066513061523 29.59518623352051 5.114293098449707 C 35.26533508300781 2.716026782989502 41.28937149047852 1.5 47.5 1.5 C 53.71062850952148 1.5 59.73468017578125 2.716026782989502 65.40481567382812 5.114293098449707 C 70.88229370117188 7.431066513061523 75.80186462402344 10.74804019927979 80.02691650390625 14.97309303283691 C 84.25196075439453 19.19813346862793 87.56893157958984 24.11771965026855 89.88570404052734 29.59518623352051 C 92.28397369384766 35.26533508300781 93.5 41.28937149047852 93.5 47.5 C 93.5 53.71062850952148 92.28397369384766 59.73468017578125 89.88570404052734 65.40481567382812 C 87.56893157958984 70.88229370117188 84.25196075439453 75.80186462402344 80.02691650390625 80.02691650390625 C 75.80186462402344 84.25196075439453 70.88229370117188 87.56893157958984 65.40481567382812 89.88570404052734 C 59.73468017578125 92.28397369384766 53.71062850952148 93.5 47.5 93.5 Z" stroke="none"/>
                            <path d="M 47.5 3 C 41.49121475219727 3 35.66376876831055 4.176155090332031 30.17950439453125 6.495796203613281 C 24.88084411621094 8.736953735351562 20.12152099609375 11.94598388671875 16.03375244140625 16.03375244140625 C 11.94598388671875 20.12152099609375 8.736953735351562 24.88084411621094 6.495796203613281 30.17950439453125 C 4.176155090332031 35.66376876831055 3 41.49121475219727 3 47.5 C 3 53.50878524780273 4.176155090332031 59.33623123168945 6.495796203613281 64.82049560546875 C 8.736953735351562 70.11915588378906 11.94598388671875 74.87847900390625 16.03375244140625 78.96624755859375 C 20.12152099609375 83.05401611328125 24.88084411621094 86.26304626464844 30.17950439453125 88.50419616699219 C 35.66376876831055 90.82384490966797 41.49121475219727 92 47.5 92 C 53.50878524780273 92 59.33623123168945 90.82384490966797 64.82049560546875 88.50419616699219 C 70.11915588378906 86.26304626464844 74.87847900390625 83.05401611328125 78.96624755859375 78.96624755859375 C 83.05401611328125 74.87847900390625 86.26304626464844 70.11915588378906 88.50419616699219 64.82049560546875 C 90.82384490966797 59.33623123168945 92 53.50878524780273 92 47.5 C 92 41.49121475219727 90.82384490966797 35.66376876831055 88.50419616699219 30.17950439453125 C 86.26304626464844 24.88084411621094 83.05401611328125 20.12152099609375 78.96624755859375 16.03375244140625 C 74.87847900390625 11.94598388671875 70.11915588378906 8.736953735351562 64.82049560546875 6.495796203613281 C 59.33623123168945 4.176155090332031 53.50878524780273 3 47.5 3 M 47.5 0 C 73.7335205078125 0 95 21.2664794921875 95 47.5 C 95 73.7335205078125 73.7335205078125 95 47.5 95 C 21.2664794921875 95 0 73.7335205078125 0 47.5 C 0 21.2664794921875 21.2664794921875 0 47.5 0 Z" stroke="none" fill="#ee9865"/>
                          </g>
                        </g>
                      </g>
                    </g>
                  </g>
                </g>
              </g>
            </g>
          </g>
        </g>
      </g>
    </g>
    <g id="accounting_2_" data-name="accounting (2)" transform="translate(197 2574)">
      <path id="Trazado_1013662" data-name="Trazado 1013662" d="M43.995,58a1.872,1.872,0,0,1,1.866,1.866,1.88,1.88,0,0,1-1.866,1.866H17.866A1.872,1.872,0,0,1,16,59.866,1.88,1.88,0,0,1,17.866,58H43.995Z" transform="translate(-0.802 -3.81)" fill="#969faa"/>
      <path id="Trazado_1013663" data-name="Trazado 1013663" d="M37.864,52l2.8,5.6H22L24.8,52Z" transform="translate(-1.203 -3.409)" fill="#aab2bd"/>
      <path id="Trazado_1013664" data-name="Trazado 1013664" d="M42.326,49.46H8.733A3.732,3.732,0,0,1,5,45.727V17.733A3.732,3.732,0,0,1,8.733,14h5.6v3.733H9.666a.936.936,0,0,0-.933.933v22.4a.936.936,0,0,0,.933.933H50.725a.936.936,0,0,0,.933-.933v-22.4a.936.936,0,0,0-.933-.933H46.059V14h5.6a3.732,3.732,0,0,1,3.733,3.733V45.727a3.732,3.732,0,0,1-3.733,3.733H47.925a1.88,1.88,0,0,0,1.866-1.866,1.872,1.872,0,0,0-1.866-1.866h-5.6a1.88,1.88,0,0,0-1.866,1.866A1.872,1.872,0,0,0,42.326,49.46Z" transform="translate(-0.067 -0.869)" fill="#ccd1d9"/>
      <path id="Trazado_1013665" data-name="Trazado 1013665" d="M50.465,48a1.872,1.872,0,0,1,1.866,1.866,1.88,1.88,0,0,1-1.866,1.866h-5.6A1.872,1.872,0,0,1,43,49.866,1.88,1.88,0,0,1,44.866,48Z" transform="translate(-2.607 -3.141)" fill="#ff826e"/>
      <path id="Trazado_1013666" data-name="Trazado 1013666" d="M14.6,18V42.262H9.933A.936.936,0,0,1,9,41.329v-22.4A.936.936,0,0,1,9.933,18Z" transform="translate(-0.334 -1.136)" fill="#69d6f4"/>
      <path id="Trazado_1013667" data-name="Trazado 1013667" d="M54.6,18.933v22.4a.936.936,0,0,1-.933.933H49V18h4.666A.936.936,0,0,1,54.6,18.933Z" transform="translate(-3.008 -1.136)" fill="#69d6f4"/>
      <path id="Trazado_1013668" data-name="Trazado 1013668" d="M14.465,5.733V9.465H7V5.733a3.733,3.733,0,1,1,7.465,0Z" transform="translate(-0.201 -0.067)" fill="#ffeaa7"/>
      <path id="Trazado_1013669" data-name="Trazado 1013669" d="M42.727,2H11a3.732,3.732,0,0,1,3.733,3.733v35.46H46.46V5.733A3.732,3.732,0,0,0,42.727,2Z" transform="translate(-0.468 -0.067)" fill="#e6e9ed"/>
      <g id="Grupo_1168896" data-name="Grupo 1168896" transform="translate(23.596 5.666)">
        <path id="Trazado_1013670" data-name="Trazado 1013670" d="M41,6h3.733V19.064H41Z" transform="translate(-26.069 -6)" fill="#b4dd7f"/>
        <path id="Trazado_1013671" data-name="Trazado 1013671" d="M33,10h3.733v9.332H33Z" transform="translate(-25.535 -6.267)" fill="#b4dd7f"/>
        <path id="Trazado_1013672" data-name="Trazado 1013672" d="M25,14h3.733v5.6H25Z" transform="translate(-25 -6.535)" fill="#b4dd7f"/>
      </g>
      <path id="Trazado_1013673" data-name="Trazado 1013673" d="M38.332,24A9.332,9.332,0,1,1,29,33.332,9.335,9.335,0,0,1,38.332,24Z" transform="translate(-1.671 -1.537)" fill="#fcd770"/>
      <path id="Trazado_1013674" data-name="Trazado 1013674" d="M51.591,12.2H46.925V5.666A4.671,4.671,0,0,0,42.26,1H10.532A4.671,4.671,0,0,0,5.866,5.666v4.666h7.465V12.2H8.666A4.671,4.671,0,0,0,4,16.864V44.859a4.671,4.671,0,0,0,4.666,4.666H22.087L20.22,53.257H17.064a2.8,2.8,0,0,0,0,5.6H43.193a2.8,2.8,0,0,0,0-5.6H40.037L38.17,49.524H51.591a4.671,4.671,0,0,0,4.666-4.666V16.864A4.671,4.671,0,0,0,51.591,12.2Zm-6.532,25.48v2.515H42.544A10.35,10.35,0,0,0,45.059,37.678Zm-8.4,2.515a8.4,8.4,0,1,1,8.4-8.4A8.409,8.409,0,0,1,36.661,40.193ZM46.925,17.8h3.733v22.4H46.925ZM45.059,5.666V25.911A10.256,10.256,0,1,0,30.777,40.193H15.2V5.666a4.618,4.618,0,0,0-.957-2.8H42.26A2.8,2.8,0,0,1,45.059,5.666ZM13.332,40.193H9.6V17.8h3.733ZM7.733,8.465v-2.8a2.8,2.8,0,0,1,5.6,0v2.8ZM44.126,56.056a.935.935,0,0,1-.933.933H17.064a.933.933,0,0,1,0-1.866H43.193A.935.935,0,0,1,44.126,56.056Zm-6.176-2.8H22.307l1.866-3.733H36.084Zm4.309-5.6a.933.933,0,0,1,0-1.866h5.6a.933.933,0,0,1,0,1.866Zm12.131-2.8a2.8,2.8,0,0,1-2.8,2.8h-1.1a2.768,2.768,0,0,0,.172-.933,2.8,2.8,0,0,0-2.8-2.8h-5.6a2.8,2.8,0,0,0-2.8,2.8,2.768,2.768,0,0,0,.172.933H8.666a2.8,2.8,0,0,1-2.8-2.8V16.864a2.8,2.8,0,0,1,2.8-2.8h4.666v1.866H9.6A1.868,1.868,0,0,0,7.733,17.8v22.4A1.868,1.868,0,0,0,9.6,42.059H50.658a1.868,1.868,0,0,0,1.866-1.866V17.8a1.868,1.868,0,0,0-1.866-1.866H46.925V14.064h4.666a2.8,2.8,0,0,1,2.8,2.8Z"/>
      <path id="Trazado_1013675" data-name="Trazado 1013675" d="M10,47h1.866v1.866H10Z" transform="translate(-0.401 -3.075)"/>
      <path id="Trazado_1013676" data-name="Trazado 1013676" d="M14,47h1.866v1.866H14Z" transform="translate(-0.668 -3.075)"/>
      <path id="Trazado_1013677" data-name="Trazado 1013677" d="M18,47h1.866v1.866H18Z" transform="translate(-0.936 -3.075)"/>
      <path id="Trazado_1013678" data-name="Trazado 1013678" d="M38.8,30.733a.935.935,0,0,1,.933.933H41.6a2.8,2.8,0,0,0-1.866-2.628V27H37.866v1.866H36v2.8a2.8,2.8,0,0,0,2.8,2.8.935.935,0,0,1,.933.933v.933H38.8a.935.935,0,0,1-.933-.933H36a2.8,2.8,0,0,0,1.866,2.628v2.038h1.866V38.2H41.6V35.4a2.8,2.8,0,0,0-2.8-2.8.935.935,0,0,1-.933-.933v-.933Z" transform="translate(-2.139 -1.738)"/>
      <circle id="Elipse_12095" data-name="Elipse 12095" cx="1" cy="1" r="1" transform="translate(30 31)"/>
      <circle id="Elipse_12096" data-name="Elipse 12096" cx="1" cy="1" r="1" transform="translate(41 31)"/>
      <path id="Trazado_1013679" data-name="Trazado 1013679" d="M44.53,5h-5.6V18.064H37.064V8.733h-5.6v9.332H29.6v-5.6H24v7.465H44.53Zm-16.8,13.064H25.866V14.332h1.866Zm5.6-7.465H35.2v7.465H33.332Zm9.332,7.465H40.8V6.866h1.866Z" transform="translate(-1.337 -0.267)"/>
      <path id="Trazado_1013680" data-name="Trazado 1013680" d="M18,39h7.465v1.866H18Z" transform="translate(-0.936 -2.54)"/>
      <path id="Trazado_1013681" data-name="Trazado 1013681" d="M18,35h7.465v1.866H18Z" transform="translate(-0.936 -2.273)"/>
      <path id="Trazado_1013682" data-name="Trazado 1013682" d="M18,31h7.465v1.866H18Z" transform="translate(-0.936 -2.005)"/>
      <path id="Trazado_1013683" data-name="Trazado 1013683" d="M18,27h7.465v1.866H18Z" transform="translate(-0.936 -1.738)"/>
      <path id="Trazado_1013684" data-name="Trazado 1013684" d="M18,23h7.465v1.866H18Z" transform="translate(-0.936 -1.47)"/>
      <path id="Trazado_1013685" data-name="Trazado 1013685" d="M18,5h1.866V6.866H18Z" transform="translate(-0.936 -0.267)"/>
      <path id="Trazado_1013686" data-name="Trazado 1013686" d="M18,9h1.866v1.866H18Z" transform="translate(-0.936 -0.535)"/>
      <path id="Trazado_1013687" data-name="Trazado 1013687" d="M18,13h1.866v1.866H18Z" transform="translate(-0.936 -0.802)"/>
    </g>
  </g>
</svg>
